%TF.GenerationSoftware,KiCad,Pcbnew,9.0.1*%
%TF.CreationDate,2025-12-26T13:14:09+09:00*%
%TF.ProjectId,RasPiBNO2,52617350-6942-44e4-9f32-2e6b69636164,rev?*%
%TF.SameCoordinates,Original*%
%TF.FileFunction,Drillmap*%
%TF.FilePolarity,Positive*%
%FSLAX45Y45*%
G04 Gerber Fmt 4.5, Leading zero omitted, Abs format (unit mm)*
G04 Created by KiCad (PCBNEW 9.0.1) date 2025-12-26 13:14:09*
%MOMM*%
%LPD*%
G01*
G04 APERTURE LIST*
%ADD10C,0.050000*%
%ADD11C,0.200000*%
%ADD12C,0.100000*%
%ADD13C,0.102000*%
G04 APERTURE END LIST*
D10*
X11938000Y-8128000D02*
X16002000Y-8128000D01*
X16002000Y-16002000D01*
X11938000Y-16002000D01*
X11938000Y-8128000D01*
D11*
D12*
X13696000Y-9124000D02*
X13736000Y-9164000D01*
X13736000Y-9124000D02*
X13696000Y-9164000D01*
X13696000Y-9886000D02*
X13736000Y-9926000D01*
X13736000Y-9886000D02*
X13696000Y-9926000D01*
X12486000Y-9398000D02*
G75*
G02*
X12406000Y-9398000I-40000J0D01*
G01*
X12406000Y-9398000D02*
G75*
G02*
X12486000Y-9398000I40000J0D01*
G01*
X12486000Y-10414000D02*
G75*
G02*
X12406000Y-10414000I-40000J0D01*
G01*
X12406000Y-10414000D02*
G75*
G02*
X12486000Y-10414000I40000J0D01*
G01*
X12994000Y-9398000D02*
G75*
G02*
X12914000Y-9398000I-40000J0D01*
G01*
X12914000Y-9398000D02*
G75*
G02*
X12994000Y-9398000I40000J0D01*
G01*
X12994000Y-10414000D02*
G75*
G02*
X12914000Y-10414000I-40000J0D01*
G01*
X12914000Y-10414000D02*
G75*
G02*
X12994000Y-10414000I40000J0D01*
G01*
X13629500Y-9525000D02*
G75*
G02*
X13549500Y-9525000I-40000J0D01*
G01*
X13549500Y-9525000D02*
G75*
G02*
X13629500Y-9525000I40000J0D01*
G01*
X13629500Y-9779000D02*
G75*
G02*
X13549500Y-9779000I-40000J0D01*
G01*
X13549500Y-9779000D02*
G75*
G02*
X13629500Y-9779000I40000J0D01*
G01*
X13629500Y-10033000D02*
G75*
G02*
X13549500Y-10033000I-40000J0D01*
G01*
X13549500Y-10033000D02*
G75*
G02*
X13629500Y-10033000I40000J0D01*
G01*
X13629500Y-10287000D02*
G75*
G02*
X13549500Y-10287000I-40000J0D01*
G01*
X13549500Y-10287000D02*
G75*
G02*
X13629500Y-10287000I40000J0D01*
G01*
X14391500Y-9525000D02*
G75*
G02*
X14311500Y-9525000I-40000J0D01*
G01*
X14311500Y-9525000D02*
G75*
G02*
X14391500Y-9525000I40000J0D01*
G01*
X14391500Y-9779000D02*
G75*
G02*
X14311500Y-9779000I-40000J0D01*
G01*
X14311500Y-9779000D02*
G75*
G02*
X14391500Y-9779000I40000J0D01*
G01*
X14391500Y-10033000D02*
G75*
G02*
X14311500Y-10033000I-40000J0D01*
G01*
X14311500Y-10033000D02*
G75*
G02*
X14391500Y-10033000I40000J0D01*
G01*
X14391500Y-10287000D02*
G75*
G02*
X14311500Y-10287000I-40000J0D01*
G01*
X14311500Y-10287000D02*
G75*
G02*
X14391500Y-10287000I40000J0D01*
G01*
X14772000Y-9398000D02*
G75*
G02*
X14692000Y-9398000I-40000J0D01*
G01*
X14692000Y-9398000D02*
G75*
G02*
X14772000Y-9398000I40000J0D01*
G01*
X14772000Y-10414000D02*
G75*
G02*
X14692000Y-10414000I-40000J0D01*
G01*
X14692000Y-10414000D02*
G75*
G02*
X14772000Y-10414000I40000J0D01*
G01*
X15534000Y-9398000D02*
G75*
G02*
X15454000Y-9398000I-40000J0D01*
G01*
X15454000Y-9398000D02*
G75*
G02*
X15534000Y-9398000I40000J0D01*
G01*
X15534000Y-10414000D02*
G75*
G02*
X15454000Y-10414000I-40000J0D01*
G01*
X15454000Y-10414000D02*
G75*
G02*
X15534000Y-10414000I40000J0D01*
G01*
X13595000Y-8533500D02*
X13595000Y-8633500D01*
X13545000Y-8583500D02*
X13645000Y-8583500D01*
X13845000Y-8533500D02*
X13845000Y-8633500D01*
X13795000Y-8583500D02*
X13895000Y-8583500D01*
X14095000Y-8533500D02*
X14095000Y-8633500D01*
X14045000Y-8583500D02*
X14145000Y-8583500D01*
X14345000Y-8533500D02*
X14345000Y-8633500D01*
X14295000Y-8583500D02*
X14395000Y-8583500D01*
D13*
X13141563Y-10958063D02*
X13141563Y-10885937D01*
X13069437Y-10885937D01*
X13069437Y-10958063D01*
X13141563Y-10958063D01*
X13141563Y-11212063D02*
X13141563Y-11139937D01*
X13069437Y-11139937D01*
X13069437Y-11212063D01*
X13141563Y-11212063D01*
X13141563Y-11466063D02*
X13141563Y-11393937D01*
X13069437Y-11393937D01*
X13069437Y-11466063D01*
X13141563Y-11466063D01*
X13141563Y-11720063D02*
X13141563Y-11647937D01*
X13069437Y-11647937D01*
X13069437Y-11720063D01*
X13141563Y-11720063D01*
X13141563Y-11974063D02*
X13141563Y-11901937D01*
X13069437Y-11901937D01*
X13069437Y-11974063D01*
X13141563Y-11974063D01*
X13141563Y-12228063D02*
X13141563Y-12155937D01*
X13069437Y-12155937D01*
X13069437Y-12228063D01*
X13141563Y-12228063D01*
X13141563Y-12482063D02*
X13141563Y-12409937D01*
X13069437Y-12409937D01*
X13069437Y-12482063D01*
X13141563Y-12482063D01*
X13141563Y-12736063D02*
X13141563Y-12663937D01*
X13069437Y-12663937D01*
X13069437Y-12736063D01*
X13141563Y-12736063D01*
X13141563Y-12990063D02*
X13141563Y-12917937D01*
X13069437Y-12917937D01*
X13069437Y-12990063D01*
X13141563Y-12990063D01*
X13141563Y-13244063D02*
X13141563Y-13171937D01*
X13069437Y-13171937D01*
X13069437Y-13244063D01*
X13141563Y-13244063D01*
X13141563Y-13498063D02*
X13141563Y-13425937D01*
X13069437Y-13425937D01*
X13069437Y-13498063D01*
X13141563Y-13498063D01*
X13141563Y-13752063D02*
X13141563Y-13679937D01*
X13069437Y-13679937D01*
X13069437Y-13752063D01*
X13141563Y-13752063D01*
X13141563Y-14006063D02*
X13141563Y-13933937D01*
X13069437Y-13933937D01*
X13069437Y-14006063D01*
X13141563Y-14006063D01*
X13141563Y-14260063D02*
X13141563Y-14187937D01*
X13069437Y-14187937D01*
X13069437Y-14260063D01*
X13141563Y-14260063D01*
X13141563Y-14514063D02*
X13141563Y-14441937D01*
X13069437Y-14441937D01*
X13069437Y-14514063D01*
X13141563Y-14514063D01*
X13141563Y-14768063D02*
X13141563Y-14695937D01*
X13069437Y-14695937D01*
X13069437Y-14768063D01*
X13141563Y-14768063D01*
X13141563Y-15022063D02*
X13141563Y-14949937D01*
X13069437Y-14949937D01*
X13069437Y-15022063D01*
X13141563Y-15022063D01*
X13141563Y-15276063D02*
X13141563Y-15203937D01*
X13069437Y-15203937D01*
X13069437Y-15276063D01*
X13141563Y-15276063D01*
X13141563Y-15530063D02*
X13141563Y-15457937D01*
X13069437Y-15457937D01*
X13069437Y-15530063D01*
X13141563Y-15530063D01*
X13141563Y-15784063D02*
X13141563Y-15711937D01*
X13069437Y-15711937D01*
X13069437Y-15784063D01*
X13141563Y-15784063D01*
X14919563Y-10958063D02*
X14919563Y-10885937D01*
X14847437Y-10885937D01*
X14847437Y-10958063D01*
X14919563Y-10958063D01*
X14919563Y-11212063D02*
X14919563Y-11139937D01*
X14847437Y-11139937D01*
X14847437Y-11212063D01*
X14919563Y-11212063D01*
X14919563Y-11466063D02*
X14919563Y-11393937D01*
X14847437Y-11393937D01*
X14847437Y-11466063D01*
X14919563Y-11466063D01*
X14919563Y-11720063D02*
X14919563Y-11647937D01*
X14847437Y-11647937D01*
X14847437Y-11720063D01*
X14919563Y-11720063D01*
X14919563Y-11974063D02*
X14919563Y-11901937D01*
X14847437Y-11901937D01*
X14847437Y-11974063D01*
X14919563Y-11974063D01*
X14919563Y-12228063D02*
X14919563Y-12155937D01*
X14847437Y-12155937D01*
X14847437Y-12228063D01*
X14919563Y-12228063D01*
X14919563Y-12482063D02*
X14919563Y-12409937D01*
X14847437Y-12409937D01*
X14847437Y-12482063D01*
X14919563Y-12482063D01*
X14919563Y-12736063D02*
X14919563Y-12663937D01*
X14847437Y-12663937D01*
X14847437Y-12736063D01*
X14919563Y-12736063D01*
X14919563Y-12990063D02*
X14919563Y-12917937D01*
X14847437Y-12917937D01*
X14847437Y-12990063D01*
X14919563Y-12990063D01*
X14919563Y-13244063D02*
X14919563Y-13171937D01*
X14847437Y-13171937D01*
X14847437Y-13244063D01*
X14919563Y-13244063D01*
X14919563Y-13498063D02*
X14919563Y-13425937D01*
X14847437Y-13425937D01*
X14847437Y-13498063D01*
X14919563Y-13498063D01*
X14919563Y-13752063D02*
X14919563Y-13679937D01*
X14847437Y-13679937D01*
X14847437Y-13752063D01*
X14919563Y-13752063D01*
X14919563Y-14006063D02*
X14919563Y-13933937D01*
X14847437Y-13933937D01*
X14847437Y-14006063D01*
X14919563Y-14006063D01*
X14919563Y-14260063D02*
X14919563Y-14187937D01*
X14847437Y-14187937D01*
X14847437Y-14260063D01*
X14919563Y-14260063D01*
X14919563Y-14514063D02*
X14919563Y-14441937D01*
X14847437Y-14441937D01*
X14847437Y-14514063D01*
X14919563Y-14514063D01*
X14919563Y-14768063D02*
X14919563Y-14695937D01*
X14847437Y-14695937D01*
X14847437Y-14768063D01*
X14919563Y-14768063D01*
X14919563Y-15022063D02*
X14919563Y-14949937D01*
X14847437Y-14949937D01*
X14847437Y-15022063D01*
X14919563Y-15022063D01*
X14919563Y-15276063D02*
X14919563Y-15203937D01*
X14847437Y-15203937D01*
X14847437Y-15276063D01*
X14919563Y-15276063D01*
X14919563Y-15530063D02*
X14919563Y-15457937D01*
X14847437Y-15457937D01*
X14847437Y-15530063D01*
X14919563Y-15530063D01*
X14919563Y-15784063D02*
X14919563Y-15711937D01*
X14847437Y-15711937D01*
X14847437Y-15784063D01*
X14919563Y-15784063D01*
D11*
X12196277Y-16315984D02*
X12196277Y-16115984D01*
X12196277Y-16115984D02*
X12243896Y-16115984D01*
X12243896Y-16115984D02*
X12272467Y-16125508D01*
X12272467Y-16125508D02*
X12291515Y-16144555D01*
X12291515Y-16144555D02*
X12301039Y-16163603D01*
X12301039Y-16163603D02*
X12310562Y-16201698D01*
X12310562Y-16201698D02*
X12310562Y-16230269D01*
X12310562Y-16230269D02*
X12301039Y-16268365D01*
X12301039Y-16268365D02*
X12291515Y-16287412D01*
X12291515Y-16287412D02*
X12272467Y-16306460D01*
X12272467Y-16306460D02*
X12243896Y-16315984D01*
X12243896Y-16315984D02*
X12196277Y-16315984D01*
X12396277Y-16315984D02*
X12396277Y-16182650D01*
X12396277Y-16220746D02*
X12405801Y-16201698D01*
X12405801Y-16201698D02*
X12415324Y-16192174D01*
X12415324Y-16192174D02*
X12434372Y-16182650D01*
X12434372Y-16182650D02*
X12453420Y-16182650D01*
X12520086Y-16315984D02*
X12520086Y-16182650D01*
X12520086Y-16115984D02*
X12510562Y-16125508D01*
X12510562Y-16125508D02*
X12520086Y-16135031D01*
X12520086Y-16135031D02*
X12529610Y-16125508D01*
X12529610Y-16125508D02*
X12520086Y-16115984D01*
X12520086Y-16115984D02*
X12520086Y-16135031D01*
X12643896Y-16315984D02*
X12624848Y-16306460D01*
X12624848Y-16306460D02*
X12615324Y-16287412D01*
X12615324Y-16287412D02*
X12615324Y-16115984D01*
X12748658Y-16315984D02*
X12729610Y-16306460D01*
X12729610Y-16306460D02*
X12720086Y-16287412D01*
X12720086Y-16287412D02*
X12720086Y-16115984D01*
X12977229Y-16315984D02*
X12977229Y-16115984D01*
X12977229Y-16115984D02*
X13043896Y-16258841D01*
X13043896Y-16258841D02*
X13110562Y-16115984D01*
X13110562Y-16115984D02*
X13110562Y-16315984D01*
X13291515Y-16315984D02*
X13291515Y-16211222D01*
X13291515Y-16211222D02*
X13281991Y-16192174D01*
X13281991Y-16192174D02*
X13262943Y-16182650D01*
X13262943Y-16182650D02*
X13224848Y-16182650D01*
X13224848Y-16182650D02*
X13205801Y-16192174D01*
X13291515Y-16306460D02*
X13272467Y-16315984D01*
X13272467Y-16315984D02*
X13224848Y-16315984D01*
X13224848Y-16315984D02*
X13205801Y-16306460D01*
X13205801Y-16306460D02*
X13196277Y-16287412D01*
X13196277Y-16287412D02*
X13196277Y-16268365D01*
X13196277Y-16268365D02*
X13205801Y-16249317D01*
X13205801Y-16249317D02*
X13224848Y-16239793D01*
X13224848Y-16239793D02*
X13272467Y-16239793D01*
X13272467Y-16239793D02*
X13291515Y-16230269D01*
X13386753Y-16182650D02*
X13386753Y-16382650D01*
X13386753Y-16192174D02*
X13405801Y-16182650D01*
X13405801Y-16182650D02*
X13443896Y-16182650D01*
X13443896Y-16182650D02*
X13462943Y-16192174D01*
X13462943Y-16192174D02*
X13472467Y-16201698D01*
X13472467Y-16201698D02*
X13481991Y-16220746D01*
X13481991Y-16220746D02*
X13481991Y-16277888D01*
X13481991Y-16277888D02*
X13472467Y-16296936D01*
X13472467Y-16296936D02*
X13462943Y-16306460D01*
X13462943Y-16306460D02*
X13443896Y-16315984D01*
X13443896Y-16315984D02*
X13405801Y-16315984D01*
X13405801Y-16315984D02*
X13386753Y-16306460D01*
X13567705Y-16296936D02*
X13577229Y-16306460D01*
X13577229Y-16306460D02*
X13567705Y-16315984D01*
X13567705Y-16315984D02*
X13558182Y-16306460D01*
X13558182Y-16306460D02*
X13567705Y-16296936D01*
X13567705Y-16296936D02*
X13567705Y-16315984D01*
X13567705Y-16192174D02*
X13577229Y-16201698D01*
X13577229Y-16201698D02*
X13567705Y-16211222D01*
X13567705Y-16211222D02*
X13558182Y-16201698D01*
X13558182Y-16201698D02*
X13567705Y-16192174D01*
X13567705Y-16192174D02*
X13567705Y-16211222D01*
D12*
X11895500Y-16624500D02*
X11935500Y-16664500D01*
X11935500Y-16624500D02*
X11895500Y-16664500D01*
D11*
X12234372Y-16535984D02*
X12253420Y-16535984D01*
X12253420Y-16535984D02*
X12272467Y-16545508D01*
X12272467Y-16545508D02*
X12281991Y-16555031D01*
X12281991Y-16555031D02*
X12291515Y-16574079D01*
X12291515Y-16574079D02*
X12301039Y-16612174D01*
X12301039Y-16612174D02*
X12301039Y-16659793D01*
X12301039Y-16659793D02*
X12291515Y-16697888D01*
X12291515Y-16697888D02*
X12281991Y-16716936D01*
X12281991Y-16716936D02*
X12272467Y-16726460D01*
X12272467Y-16726460D02*
X12253420Y-16735984D01*
X12253420Y-16735984D02*
X12234372Y-16735984D01*
X12234372Y-16735984D02*
X12215324Y-16726460D01*
X12215324Y-16726460D02*
X12205801Y-16716936D01*
X12205801Y-16716936D02*
X12196277Y-16697888D01*
X12196277Y-16697888D02*
X12186753Y-16659793D01*
X12186753Y-16659793D02*
X12186753Y-16612174D01*
X12186753Y-16612174D02*
X12196277Y-16574079D01*
X12196277Y-16574079D02*
X12205801Y-16555031D01*
X12205801Y-16555031D02*
X12215324Y-16545508D01*
X12215324Y-16545508D02*
X12234372Y-16535984D01*
X12386753Y-16716936D02*
X12396277Y-16726460D01*
X12396277Y-16726460D02*
X12386753Y-16735984D01*
X12386753Y-16735984D02*
X12377229Y-16726460D01*
X12377229Y-16726460D02*
X12386753Y-16716936D01*
X12386753Y-16716936D02*
X12386753Y-16735984D01*
X12567705Y-16602650D02*
X12567705Y-16735984D01*
X12520086Y-16526460D02*
X12472467Y-16669317D01*
X12472467Y-16669317D02*
X12596277Y-16669317D01*
X12710562Y-16535984D02*
X12729610Y-16535984D01*
X12729610Y-16535984D02*
X12748658Y-16545508D01*
X12748658Y-16545508D02*
X12758182Y-16555031D01*
X12758182Y-16555031D02*
X12767705Y-16574079D01*
X12767705Y-16574079D02*
X12777229Y-16612174D01*
X12777229Y-16612174D02*
X12777229Y-16659793D01*
X12777229Y-16659793D02*
X12767705Y-16697888D01*
X12767705Y-16697888D02*
X12758182Y-16716936D01*
X12758182Y-16716936D02*
X12748658Y-16726460D01*
X12748658Y-16726460D02*
X12729610Y-16735984D01*
X12729610Y-16735984D02*
X12710562Y-16735984D01*
X12710562Y-16735984D02*
X12691515Y-16726460D01*
X12691515Y-16726460D02*
X12681991Y-16716936D01*
X12681991Y-16716936D02*
X12672467Y-16697888D01*
X12672467Y-16697888D02*
X12662943Y-16659793D01*
X12662943Y-16659793D02*
X12662943Y-16612174D01*
X12662943Y-16612174D02*
X12672467Y-16574079D01*
X12672467Y-16574079D02*
X12681991Y-16555031D01*
X12681991Y-16555031D02*
X12691515Y-16545508D01*
X12691515Y-16545508D02*
X12710562Y-16535984D01*
X12901039Y-16535984D02*
X12920086Y-16535984D01*
X12920086Y-16535984D02*
X12939134Y-16545508D01*
X12939134Y-16545508D02*
X12948658Y-16555031D01*
X12948658Y-16555031D02*
X12958182Y-16574079D01*
X12958182Y-16574079D02*
X12967705Y-16612174D01*
X12967705Y-16612174D02*
X12967705Y-16659793D01*
X12967705Y-16659793D02*
X12958182Y-16697888D01*
X12958182Y-16697888D02*
X12948658Y-16716936D01*
X12948658Y-16716936D02*
X12939134Y-16726460D01*
X12939134Y-16726460D02*
X12920086Y-16735984D01*
X12920086Y-16735984D02*
X12901039Y-16735984D01*
X12901039Y-16735984D02*
X12881991Y-16726460D01*
X12881991Y-16726460D02*
X12872467Y-16716936D01*
X12872467Y-16716936D02*
X12862943Y-16697888D01*
X12862943Y-16697888D02*
X12853420Y-16659793D01*
X12853420Y-16659793D02*
X12853420Y-16612174D01*
X12853420Y-16612174D02*
X12862943Y-16574079D01*
X12862943Y-16574079D02*
X12872467Y-16555031D01*
X12872467Y-16555031D02*
X12881991Y-16545508D01*
X12881991Y-16545508D02*
X12901039Y-16535984D01*
X13053420Y-16735984D02*
X13053420Y-16602650D01*
X13053420Y-16621698D02*
X13062943Y-16612174D01*
X13062943Y-16612174D02*
X13081991Y-16602650D01*
X13081991Y-16602650D02*
X13110563Y-16602650D01*
X13110563Y-16602650D02*
X13129610Y-16612174D01*
X13129610Y-16612174D02*
X13139134Y-16631222D01*
X13139134Y-16631222D02*
X13139134Y-16735984D01*
X13139134Y-16631222D02*
X13148658Y-16612174D01*
X13148658Y-16612174D02*
X13167705Y-16602650D01*
X13167705Y-16602650D02*
X13196277Y-16602650D01*
X13196277Y-16602650D02*
X13215324Y-16612174D01*
X13215324Y-16612174D02*
X13224848Y-16631222D01*
X13224848Y-16631222D02*
X13224848Y-16735984D01*
X13320086Y-16735984D02*
X13320086Y-16602650D01*
X13320086Y-16621698D02*
X13329610Y-16612174D01*
X13329610Y-16612174D02*
X13348658Y-16602650D01*
X13348658Y-16602650D02*
X13377229Y-16602650D01*
X13377229Y-16602650D02*
X13396277Y-16612174D01*
X13396277Y-16612174D02*
X13405801Y-16631222D01*
X13405801Y-16631222D02*
X13405801Y-16735984D01*
X13405801Y-16631222D02*
X13415324Y-16612174D01*
X13415324Y-16612174D02*
X13434372Y-16602650D01*
X13434372Y-16602650D02*
X13462943Y-16602650D01*
X13462943Y-16602650D02*
X13481991Y-16612174D01*
X13481991Y-16612174D02*
X13491515Y-16631222D01*
X13491515Y-16631222D02*
X13491515Y-16735984D01*
X13881991Y-16526460D02*
X13710563Y-16783603D01*
X14139134Y-16535984D02*
X14158182Y-16535984D01*
X14158182Y-16535984D02*
X14177229Y-16545508D01*
X14177229Y-16545508D02*
X14186753Y-16555031D01*
X14186753Y-16555031D02*
X14196277Y-16574079D01*
X14196277Y-16574079D02*
X14205801Y-16612174D01*
X14205801Y-16612174D02*
X14205801Y-16659793D01*
X14205801Y-16659793D02*
X14196277Y-16697888D01*
X14196277Y-16697888D02*
X14186753Y-16716936D01*
X14186753Y-16716936D02*
X14177229Y-16726460D01*
X14177229Y-16726460D02*
X14158182Y-16735984D01*
X14158182Y-16735984D02*
X14139134Y-16735984D01*
X14139134Y-16735984D02*
X14120086Y-16726460D01*
X14120086Y-16726460D02*
X14110563Y-16716936D01*
X14110563Y-16716936D02*
X14101039Y-16697888D01*
X14101039Y-16697888D02*
X14091515Y-16659793D01*
X14091515Y-16659793D02*
X14091515Y-16612174D01*
X14091515Y-16612174D02*
X14101039Y-16574079D01*
X14101039Y-16574079D02*
X14110563Y-16555031D01*
X14110563Y-16555031D02*
X14120086Y-16545508D01*
X14120086Y-16545508D02*
X14139134Y-16535984D01*
X14291515Y-16716936D02*
X14301039Y-16726460D01*
X14301039Y-16726460D02*
X14291515Y-16735984D01*
X14291515Y-16735984D02*
X14281991Y-16726460D01*
X14281991Y-16726460D02*
X14291515Y-16716936D01*
X14291515Y-16716936D02*
X14291515Y-16735984D01*
X14424848Y-16535984D02*
X14443896Y-16535984D01*
X14443896Y-16535984D02*
X14462944Y-16545508D01*
X14462944Y-16545508D02*
X14472467Y-16555031D01*
X14472467Y-16555031D02*
X14481991Y-16574079D01*
X14481991Y-16574079D02*
X14491515Y-16612174D01*
X14491515Y-16612174D02*
X14491515Y-16659793D01*
X14491515Y-16659793D02*
X14481991Y-16697888D01*
X14481991Y-16697888D02*
X14472467Y-16716936D01*
X14472467Y-16716936D02*
X14462944Y-16726460D01*
X14462944Y-16726460D02*
X14443896Y-16735984D01*
X14443896Y-16735984D02*
X14424848Y-16735984D01*
X14424848Y-16735984D02*
X14405801Y-16726460D01*
X14405801Y-16726460D02*
X14396277Y-16716936D01*
X14396277Y-16716936D02*
X14386753Y-16697888D01*
X14386753Y-16697888D02*
X14377229Y-16659793D01*
X14377229Y-16659793D02*
X14377229Y-16612174D01*
X14377229Y-16612174D02*
X14386753Y-16574079D01*
X14386753Y-16574079D02*
X14396277Y-16555031D01*
X14396277Y-16555031D02*
X14405801Y-16545508D01*
X14405801Y-16545508D02*
X14424848Y-16535984D01*
X14681991Y-16735984D02*
X14567706Y-16735984D01*
X14624848Y-16735984D02*
X14624848Y-16535984D01*
X14624848Y-16535984D02*
X14605801Y-16564555D01*
X14605801Y-16564555D02*
X14586753Y-16583603D01*
X14586753Y-16583603D02*
X14567706Y-16593127D01*
X14862944Y-16535984D02*
X14767706Y-16535984D01*
X14767706Y-16535984D02*
X14758182Y-16631222D01*
X14758182Y-16631222D02*
X14767706Y-16621698D01*
X14767706Y-16621698D02*
X14786753Y-16612174D01*
X14786753Y-16612174D02*
X14834372Y-16612174D01*
X14834372Y-16612174D02*
X14853420Y-16621698D01*
X14853420Y-16621698D02*
X14862944Y-16631222D01*
X14862944Y-16631222D02*
X14872467Y-16650269D01*
X14872467Y-16650269D02*
X14872467Y-16697888D01*
X14872467Y-16697888D02*
X14862944Y-16716936D01*
X14862944Y-16716936D02*
X14853420Y-16726460D01*
X14853420Y-16726460D02*
X14834372Y-16735984D01*
X14834372Y-16735984D02*
X14786753Y-16735984D01*
X14786753Y-16735984D02*
X14767706Y-16726460D01*
X14767706Y-16726460D02*
X14758182Y-16716936D01*
X14939134Y-16535984D02*
X15072467Y-16535984D01*
X15072467Y-16535984D02*
X14986753Y-16735984D01*
X15139134Y-16535984D02*
X15139134Y-16574079D01*
X15215325Y-16535984D02*
X15215325Y-16574079D01*
X15510563Y-16812174D02*
X15501039Y-16802650D01*
X15501039Y-16802650D02*
X15481991Y-16774079D01*
X15481991Y-16774079D02*
X15472468Y-16755031D01*
X15472468Y-16755031D02*
X15462944Y-16726460D01*
X15462944Y-16726460D02*
X15453420Y-16678841D01*
X15453420Y-16678841D02*
X15453420Y-16640746D01*
X15453420Y-16640746D02*
X15462944Y-16593127D01*
X15462944Y-16593127D02*
X15472468Y-16564555D01*
X15472468Y-16564555D02*
X15481991Y-16545508D01*
X15481991Y-16545508D02*
X15501039Y-16516936D01*
X15501039Y-16516936D02*
X15510563Y-16507412D01*
X15577229Y-16555031D02*
X15586753Y-16545508D01*
X15586753Y-16545508D02*
X15605801Y-16535984D01*
X15605801Y-16535984D02*
X15653420Y-16535984D01*
X15653420Y-16535984D02*
X15672468Y-16545508D01*
X15672468Y-16545508D02*
X15681991Y-16555031D01*
X15681991Y-16555031D02*
X15691515Y-16574079D01*
X15691515Y-16574079D02*
X15691515Y-16593127D01*
X15691515Y-16593127D02*
X15681991Y-16621698D01*
X15681991Y-16621698D02*
X15567706Y-16735984D01*
X15567706Y-16735984D02*
X15691515Y-16735984D01*
X15929610Y-16735984D02*
X15929610Y-16535984D01*
X16015325Y-16735984D02*
X16015325Y-16631222D01*
X16015325Y-16631222D02*
X16005801Y-16612174D01*
X16005801Y-16612174D02*
X15986753Y-16602650D01*
X15986753Y-16602650D02*
X15958182Y-16602650D01*
X15958182Y-16602650D02*
X15939134Y-16612174D01*
X15939134Y-16612174D02*
X15929610Y-16621698D01*
X16139134Y-16735984D02*
X16120087Y-16726460D01*
X16120087Y-16726460D02*
X16110563Y-16716936D01*
X16110563Y-16716936D02*
X16101039Y-16697888D01*
X16101039Y-16697888D02*
X16101039Y-16640746D01*
X16101039Y-16640746D02*
X16110563Y-16621698D01*
X16110563Y-16621698D02*
X16120087Y-16612174D01*
X16120087Y-16612174D02*
X16139134Y-16602650D01*
X16139134Y-16602650D02*
X16167706Y-16602650D01*
X16167706Y-16602650D02*
X16186753Y-16612174D01*
X16186753Y-16612174D02*
X16196277Y-16621698D01*
X16196277Y-16621698D02*
X16205801Y-16640746D01*
X16205801Y-16640746D02*
X16205801Y-16697888D01*
X16205801Y-16697888D02*
X16196277Y-16716936D01*
X16196277Y-16716936D02*
X16186753Y-16726460D01*
X16186753Y-16726460D02*
X16167706Y-16735984D01*
X16167706Y-16735984D02*
X16139134Y-16735984D01*
X16320087Y-16735984D02*
X16301039Y-16726460D01*
X16301039Y-16726460D02*
X16291515Y-16707412D01*
X16291515Y-16707412D02*
X16291515Y-16535984D01*
X16472468Y-16726460D02*
X16453420Y-16735984D01*
X16453420Y-16735984D02*
X16415325Y-16735984D01*
X16415325Y-16735984D02*
X16396277Y-16726460D01*
X16396277Y-16726460D02*
X16386753Y-16707412D01*
X16386753Y-16707412D02*
X16386753Y-16631222D01*
X16386753Y-16631222D02*
X16396277Y-16612174D01*
X16396277Y-16612174D02*
X16415325Y-16602650D01*
X16415325Y-16602650D02*
X16453420Y-16602650D01*
X16453420Y-16602650D02*
X16472468Y-16612174D01*
X16472468Y-16612174D02*
X16481991Y-16631222D01*
X16481991Y-16631222D02*
X16481991Y-16650269D01*
X16481991Y-16650269D02*
X16386753Y-16669317D01*
X16558182Y-16726460D02*
X16577230Y-16735984D01*
X16577230Y-16735984D02*
X16615325Y-16735984D01*
X16615325Y-16735984D02*
X16634372Y-16726460D01*
X16634372Y-16726460D02*
X16643896Y-16707412D01*
X16643896Y-16707412D02*
X16643896Y-16697888D01*
X16643896Y-16697888D02*
X16634372Y-16678841D01*
X16634372Y-16678841D02*
X16615325Y-16669317D01*
X16615325Y-16669317D02*
X16586753Y-16669317D01*
X16586753Y-16669317D02*
X16567706Y-16659793D01*
X16567706Y-16659793D02*
X16558182Y-16640746D01*
X16558182Y-16640746D02*
X16558182Y-16631222D01*
X16558182Y-16631222D02*
X16567706Y-16612174D01*
X16567706Y-16612174D02*
X16586753Y-16602650D01*
X16586753Y-16602650D02*
X16615325Y-16602650D01*
X16615325Y-16602650D02*
X16634372Y-16612174D01*
X16710563Y-16812174D02*
X16720087Y-16802650D01*
X16720087Y-16802650D02*
X16739134Y-16774079D01*
X16739134Y-16774079D02*
X16748658Y-16755031D01*
X16748658Y-16755031D02*
X16758182Y-16726460D01*
X16758182Y-16726460D02*
X16767706Y-16678841D01*
X16767706Y-16678841D02*
X16767706Y-16640746D01*
X16767706Y-16640746D02*
X16758182Y-16593127D01*
X16758182Y-16593127D02*
X16748658Y-16564555D01*
X16748658Y-16564555D02*
X16739134Y-16545508D01*
X16739134Y-16545508D02*
X16720087Y-16516936D01*
X16720087Y-16516936D02*
X16710563Y-16507412D01*
D12*
X11935500Y-16908500D02*
G75*
G02*
X11855500Y-16908500I-40000J0D01*
G01*
X11855500Y-16908500D02*
G75*
G02*
X11935500Y-16908500I40000J0D01*
G01*
D11*
X12234372Y-16799984D02*
X12253420Y-16799984D01*
X12253420Y-16799984D02*
X12272467Y-16809508D01*
X12272467Y-16809508D02*
X12281991Y-16819031D01*
X12281991Y-16819031D02*
X12291515Y-16838079D01*
X12291515Y-16838079D02*
X12301039Y-16876174D01*
X12301039Y-16876174D02*
X12301039Y-16923793D01*
X12301039Y-16923793D02*
X12291515Y-16961889D01*
X12291515Y-16961889D02*
X12281991Y-16980936D01*
X12281991Y-16980936D02*
X12272467Y-16990460D01*
X12272467Y-16990460D02*
X12253420Y-16999984D01*
X12253420Y-16999984D02*
X12234372Y-16999984D01*
X12234372Y-16999984D02*
X12215324Y-16990460D01*
X12215324Y-16990460D02*
X12205801Y-16980936D01*
X12205801Y-16980936D02*
X12196277Y-16961889D01*
X12196277Y-16961889D02*
X12186753Y-16923793D01*
X12186753Y-16923793D02*
X12186753Y-16876174D01*
X12186753Y-16876174D02*
X12196277Y-16838079D01*
X12196277Y-16838079D02*
X12205801Y-16819031D01*
X12205801Y-16819031D02*
X12215324Y-16809508D01*
X12215324Y-16809508D02*
X12234372Y-16799984D01*
X12386753Y-16980936D02*
X12396277Y-16990460D01*
X12396277Y-16990460D02*
X12386753Y-16999984D01*
X12386753Y-16999984D02*
X12377229Y-16990460D01*
X12377229Y-16990460D02*
X12386753Y-16980936D01*
X12386753Y-16980936D02*
X12386753Y-16999984D01*
X12510562Y-16885698D02*
X12491515Y-16876174D01*
X12491515Y-16876174D02*
X12481991Y-16866650D01*
X12481991Y-16866650D02*
X12472467Y-16847603D01*
X12472467Y-16847603D02*
X12472467Y-16838079D01*
X12472467Y-16838079D02*
X12481991Y-16819031D01*
X12481991Y-16819031D02*
X12491515Y-16809508D01*
X12491515Y-16809508D02*
X12510562Y-16799984D01*
X12510562Y-16799984D02*
X12548658Y-16799984D01*
X12548658Y-16799984D02*
X12567705Y-16809508D01*
X12567705Y-16809508D02*
X12577229Y-16819031D01*
X12577229Y-16819031D02*
X12586753Y-16838079D01*
X12586753Y-16838079D02*
X12586753Y-16847603D01*
X12586753Y-16847603D02*
X12577229Y-16866650D01*
X12577229Y-16866650D02*
X12567705Y-16876174D01*
X12567705Y-16876174D02*
X12548658Y-16885698D01*
X12548658Y-16885698D02*
X12510562Y-16885698D01*
X12510562Y-16885698D02*
X12491515Y-16895222D01*
X12491515Y-16895222D02*
X12481991Y-16904746D01*
X12481991Y-16904746D02*
X12472467Y-16923793D01*
X12472467Y-16923793D02*
X12472467Y-16961889D01*
X12472467Y-16961889D02*
X12481991Y-16980936D01*
X12481991Y-16980936D02*
X12491515Y-16990460D01*
X12491515Y-16990460D02*
X12510562Y-16999984D01*
X12510562Y-16999984D02*
X12548658Y-16999984D01*
X12548658Y-16999984D02*
X12567705Y-16990460D01*
X12567705Y-16990460D02*
X12577229Y-16980936D01*
X12577229Y-16980936D02*
X12586753Y-16961889D01*
X12586753Y-16961889D02*
X12586753Y-16923793D01*
X12586753Y-16923793D02*
X12577229Y-16904746D01*
X12577229Y-16904746D02*
X12567705Y-16895222D01*
X12567705Y-16895222D02*
X12548658Y-16885698D01*
X12710562Y-16799984D02*
X12729610Y-16799984D01*
X12729610Y-16799984D02*
X12748658Y-16809508D01*
X12748658Y-16809508D02*
X12758182Y-16819031D01*
X12758182Y-16819031D02*
X12767705Y-16838079D01*
X12767705Y-16838079D02*
X12777229Y-16876174D01*
X12777229Y-16876174D02*
X12777229Y-16923793D01*
X12777229Y-16923793D02*
X12767705Y-16961889D01*
X12767705Y-16961889D02*
X12758182Y-16980936D01*
X12758182Y-16980936D02*
X12748658Y-16990460D01*
X12748658Y-16990460D02*
X12729610Y-16999984D01*
X12729610Y-16999984D02*
X12710562Y-16999984D01*
X12710562Y-16999984D02*
X12691515Y-16990460D01*
X12691515Y-16990460D02*
X12681991Y-16980936D01*
X12681991Y-16980936D02*
X12672467Y-16961889D01*
X12672467Y-16961889D02*
X12662943Y-16923793D01*
X12662943Y-16923793D02*
X12662943Y-16876174D01*
X12662943Y-16876174D02*
X12672467Y-16838079D01*
X12672467Y-16838079D02*
X12681991Y-16819031D01*
X12681991Y-16819031D02*
X12691515Y-16809508D01*
X12691515Y-16809508D02*
X12710562Y-16799984D01*
X12901039Y-16799984D02*
X12920086Y-16799984D01*
X12920086Y-16799984D02*
X12939134Y-16809508D01*
X12939134Y-16809508D02*
X12948658Y-16819031D01*
X12948658Y-16819031D02*
X12958182Y-16838079D01*
X12958182Y-16838079D02*
X12967705Y-16876174D01*
X12967705Y-16876174D02*
X12967705Y-16923793D01*
X12967705Y-16923793D02*
X12958182Y-16961889D01*
X12958182Y-16961889D02*
X12948658Y-16980936D01*
X12948658Y-16980936D02*
X12939134Y-16990460D01*
X12939134Y-16990460D02*
X12920086Y-16999984D01*
X12920086Y-16999984D02*
X12901039Y-16999984D01*
X12901039Y-16999984D02*
X12881991Y-16990460D01*
X12881991Y-16990460D02*
X12872467Y-16980936D01*
X12872467Y-16980936D02*
X12862943Y-16961889D01*
X12862943Y-16961889D02*
X12853420Y-16923793D01*
X12853420Y-16923793D02*
X12853420Y-16876174D01*
X12853420Y-16876174D02*
X12862943Y-16838079D01*
X12862943Y-16838079D02*
X12872467Y-16819031D01*
X12872467Y-16819031D02*
X12881991Y-16809508D01*
X12881991Y-16809508D02*
X12901039Y-16799984D01*
X13053420Y-16999984D02*
X13053420Y-16866650D01*
X13053420Y-16885698D02*
X13062943Y-16876174D01*
X13062943Y-16876174D02*
X13081991Y-16866650D01*
X13081991Y-16866650D02*
X13110563Y-16866650D01*
X13110563Y-16866650D02*
X13129610Y-16876174D01*
X13129610Y-16876174D02*
X13139134Y-16895222D01*
X13139134Y-16895222D02*
X13139134Y-16999984D01*
X13139134Y-16895222D02*
X13148658Y-16876174D01*
X13148658Y-16876174D02*
X13167705Y-16866650D01*
X13167705Y-16866650D02*
X13196277Y-16866650D01*
X13196277Y-16866650D02*
X13215324Y-16876174D01*
X13215324Y-16876174D02*
X13224848Y-16895222D01*
X13224848Y-16895222D02*
X13224848Y-16999984D01*
X13320086Y-16999984D02*
X13320086Y-16866650D01*
X13320086Y-16885698D02*
X13329610Y-16876174D01*
X13329610Y-16876174D02*
X13348658Y-16866650D01*
X13348658Y-16866650D02*
X13377229Y-16866650D01*
X13377229Y-16866650D02*
X13396277Y-16876174D01*
X13396277Y-16876174D02*
X13405801Y-16895222D01*
X13405801Y-16895222D02*
X13405801Y-16999984D01*
X13405801Y-16895222D02*
X13415324Y-16876174D01*
X13415324Y-16876174D02*
X13434372Y-16866650D01*
X13434372Y-16866650D02*
X13462943Y-16866650D01*
X13462943Y-16866650D02*
X13481991Y-16876174D01*
X13481991Y-16876174D02*
X13491515Y-16895222D01*
X13491515Y-16895222D02*
X13491515Y-16999984D01*
X13881991Y-16790460D02*
X13710563Y-17047603D01*
X14139134Y-16799984D02*
X14158182Y-16799984D01*
X14158182Y-16799984D02*
X14177229Y-16809508D01*
X14177229Y-16809508D02*
X14186753Y-16819031D01*
X14186753Y-16819031D02*
X14196277Y-16838079D01*
X14196277Y-16838079D02*
X14205801Y-16876174D01*
X14205801Y-16876174D02*
X14205801Y-16923793D01*
X14205801Y-16923793D02*
X14196277Y-16961889D01*
X14196277Y-16961889D02*
X14186753Y-16980936D01*
X14186753Y-16980936D02*
X14177229Y-16990460D01*
X14177229Y-16990460D02*
X14158182Y-16999984D01*
X14158182Y-16999984D02*
X14139134Y-16999984D01*
X14139134Y-16999984D02*
X14120086Y-16990460D01*
X14120086Y-16990460D02*
X14110563Y-16980936D01*
X14110563Y-16980936D02*
X14101039Y-16961889D01*
X14101039Y-16961889D02*
X14091515Y-16923793D01*
X14091515Y-16923793D02*
X14091515Y-16876174D01*
X14091515Y-16876174D02*
X14101039Y-16838079D01*
X14101039Y-16838079D02*
X14110563Y-16819031D01*
X14110563Y-16819031D02*
X14120086Y-16809508D01*
X14120086Y-16809508D02*
X14139134Y-16799984D01*
X14291515Y-16980936D02*
X14301039Y-16990460D01*
X14301039Y-16990460D02*
X14291515Y-16999984D01*
X14291515Y-16999984D02*
X14281991Y-16990460D01*
X14281991Y-16990460D02*
X14291515Y-16980936D01*
X14291515Y-16980936D02*
X14291515Y-16999984D01*
X14424848Y-16799984D02*
X14443896Y-16799984D01*
X14443896Y-16799984D02*
X14462944Y-16809508D01*
X14462944Y-16809508D02*
X14472467Y-16819031D01*
X14472467Y-16819031D02*
X14481991Y-16838079D01*
X14481991Y-16838079D02*
X14491515Y-16876174D01*
X14491515Y-16876174D02*
X14491515Y-16923793D01*
X14491515Y-16923793D02*
X14481991Y-16961889D01*
X14481991Y-16961889D02*
X14472467Y-16980936D01*
X14472467Y-16980936D02*
X14462944Y-16990460D01*
X14462944Y-16990460D02*
X14443896Y-16999984D01*
X14443896Y-16999984D02*
X14424848Y-16999984D01*
X14424848Y-16999984D02*
X14405801Y-16990460D01*
X14405801Y-16990460D02*
X14396277Y-16980936D01*
X14396277Y-16980936D02*
X14386753Y-16961889D01*
X14386753Y-16961889D02*
X14377229Y-16923793D01*
X14377229Y-16923793D02*
X14377229Y-16876174D01*
X14377229Y-16876174D02*
X14386753Y-16838079D01*
X14386753Y-16838079D02*
X14396277Y-16819031D01*
X14396277Y-16819031D02*
X14405801Y-16809508D01*
X14405801Y-16809508D02*
X14424848Y-16799984D01*
X14558182Y-16799984D02*
X14681991Y-16799984D01*
X14681991Y-16799984D02*
X14615325Y-16876174D01*
X14615325Y-16876174D02*
X14643896Y-16876174D01*
X14643896Y-16876174D02*
X14662944Y-16885698D01*
X14662944Y-16885698D02*
X14672467Y-16895222D01*
X14672467Y-16895222D02*
X14681991Y-16914270D01*
X14681991Y-16914270D02*
X14681991Y-16961889D01*
X14681991Y-16961889D02*
X14672467Y-16980936D01*
X14672467Y-16980936D02*
X14662944Y-16990460D01*
X14662944Y-16990460D02*
X14643896Y-16999984D01*
X14643896Y-16999984D02*
X14586753Y-16999984D01*
X14586753Y-16999984D02*
X14567706Y-16990460D01*
X14567706Y-16990460D02*
X14558182Y-16980936D01*
X14872467Y-16999984D02*
X14758182Y-16999984D01*
X14815325Y-16999984D02*
X14815325Y-16799984D01*
X14815325Y-16799984D02*
X14796277Y-16828555D01*
X14796277Y-16828555D02*
X14777229Y-16847603D01*
X14777229Y-16847603D02*
X14758182Y-16857127D01*
X15053420Y-16799984D02*
X14958182Y-16799984D01*
X14958182Y-16799984D02*
X14948658Y-16895222D01*
X14948658Y-16895222D02*
X14958182Y-16885698D01*
X14958182Y-16885698D02*
X14977229Y-16876174D01*
X14977229Y-16876174D02*
X15024848Y-16876174D01*
X15024848Y-16876174D02*
X15043896Y-16885698D01*
X15043896Y-16885698D02*
X15053420Y-16895222D01*
X15053420Y-16895222D02*
X15062944Y-16914270D01*
X15062944Y-16914270D02*
X15062944Y-16961889D01*
X15062944Y-16961889D02*
X15053420Y-16980936D01*
X15053420Y-16980936D02*
X15043896Y-16990460D01*
X15043896Y-16990460D02*
X15024848Y-16999984D01*
X15024848Y-16999984D02*
X14977229Y-16999984D01*
X14977229Y-16999984D02*
X14958182Y-16990460D01*
X14958182Y-16990460D02*
X14948658Y-16980936D01*
X15139134Y-16799984D02*
X15139134Y-16838079D01*
X15215325Y-16799984D02*
X15215325Y-16838079D01*
X15510563Y-17076174D02*
X15501039Y-17066650D01*
X15501039Y-17066650D02*
X15481991Y-17038079D01*
X15481991Y-17038079D02*
X15472468Y-17019031D01*
X15472468Y-17019031D02*
X15462944Y-16990460D01*
X15462944Y-16990460D02*
X15453420Y-16942841D01*
X15453420Y-16942841D02*
X15453420Y-16904746D01*
X15453420Y-16904746D02*
X15462944Y-16857127D01*
X15462944Y-16857127D02*
X15472468Y-16828555D01*
X15472468Y-16828555D02*
X15481991Y-16809508D01*
X15481991Y-16809508D02*
X15501039Y-16780936D01*
X15501039Y-16780936D02*
X15510563Y-16771412D01*
X15691515Y-16999984D02*
X15577229Y-16999984D01*
X15634372Y-16999984D02*
X15634372Y-16799984D01*
X15634372Y-16799984D02*
X15615325Y-16828555D01*
X15615325Y-16828555D02*
X15596277Y-16847603D01*
X15596277Y-16847603D02*
X15577229Y-16857127D01*
X15862944Y-16799984D02*
X15824848Y-16799984D01*
X15824848Y-16799984D02*
X15805801Y-16809508D01*
X15805801Y-16809508D02*
X15796277Y-16819031D01*
X15796277Y-16819031D02*
X15777229Y-16847603D01*
X15777229Y-16847603D02*
X15767706Y-16885698D01*
X15767706Y-16885698D02*
X15767706Y-16961889D01*
X15767706Y-16961889D02*
X15777229Y-16980936D01*
X15777229Y-16980936D02*
X15786753Y-16990460D01*
X15786753Y-16990460D02*
X15805801Y-16999984D01*
X15805801Y-16999984D02*
X15843896Y-16999984D01*
X15843896Y-16999984D02*
X15862944Y-16990460D01*
X15862944Y-16990460D02*
X15872468Y-16980936D01*
X15872468Y-16980936D02*
X15881991Y-16961889D01*
X15881991Y-16961889D02*
X15881991Y-16914270D01*
X15881991Y-16914270D02*
X15872468Y-16895222D01*
X15872468Y-16895222D02*
X15862944Y-16885698D01*
X15862944Y-16885698D02*
X15843896Y-16876174D01*
X15843896Y-16876174D02*
X15805801Y-16876174D01*
X15805801Y-16876174D02*
X15786753Y-16885698D01*
X15786753Y-16885698D02*
X15777229Y-16895222D01*
X15777229Y-16895222D02*
X15767706Y-16914270D01*
X16120087Y-16999984D02*
X16120087Y-16799984D01*
X16205801Y-16999984D02*
X16205801Y-16895222D01*
X16205801Y-16895222D02*
X16196277Y-16876174D01*
X16196277Y-16876174D02*
X16177230Y-16866650D01*
X16177230Y-16866650D02*
X16148658Y-16866650D01*
X16148658Y-16866650D02*
X16129610Y-16876174D01*
X16129610Y-16876174D02*
X16120087Y-16885698D01*
X16329610Y-16999984D02*
X16310563Y-16990460D01*
X16310563Y-16990460D02*
X16301039Y-16980936D01*
X16301039Y-16980936D02*
X16291515Y-16961889D01*
X16291515Y-16961889D02*
X16291515Y-16904746D01*
X16291515Y-16904746D02*
X16301039Y-16885698D01*
X16301039Y-16885698D02*
X16310563Y-16876174D01*
X16310563Y-16876174D02*
X16329610Y-16866650D01*
X16329610Y-16866650D02*
X16358182Y-16866650D01*
X16358182Y-16866650D02*
X16377230Y-16876174D01*
X16377230Y-16876174D02*
X16386753Y-16885698D01*
X16386753Y-16885698D02*
X16396277Y-16904746D01*
X16396277Y-16904746D02*
X16396277Y-16961889D01*
X16396277Y-16961889D02*
X16386753Y-16980936D01*
X16386753Y-16980936D02*
X16377230Y-16990460D01*
X16377230Y-16990460D02*
X16358182Y-16999984D01*
X16358182Y-16999984D02*
X16329610Y-16999984D01*
X16510563Y-16999984D02*
X16491515Y-16990460D01*
X16491515Y-16990460D02*
X16481991Y-16971412D01*
X16481991Y-16971412D02*
X16481991Y-16799984D01*
X16662944Y-16990460D02*
X16643896Y-16999984D01*
X16643896Y-16999984D02*
X16605801Y-16999984D01*
X16605801Y-16999984D02*
X16586753Y-16990460D01*
X16586753Y-16990460D02*
X16577230Y-16971412D01*
X16577230Y-16971412D02*
X16577230Y-16895222D01*
X16577230Y-16895222D02*
X16586753Y-16876174D01*
X16586753Y-16876174D02*
X16605801Y-16866650D01*
X16605801Y-16866650D02*
X16643896Y-16866650D01*
X16643896Y-16866650D02*
X16662944Y-16876174D01*
X16662944Y-16876174D02*
X16672468Y-16895222D01*
X16672468Y-16895222D02*
X16672468Y-16914270D01*
X16672468Y-16914270D02*
X16577230Y-16933317D01*
X16748658Y-16990460D02*
X16767706Y-16999984D01*
X16767706Y-16999984D02*
X16805801Y-16999984D01*
X16805801Y-16999984D02*
X16824849Y-16990460D01*
X16824849Y-16990460D02*
X16834373Y-16971412D01*
X16834373Y-16971412D02*
X16834373Y-16961889D01*
X16834373Y-16961889D02*
X16824849Y-16942841D01*
X16824849Y-16942841D02*
X16805801Y-16933317D01*
X16805801Y-16933317D02*
X16777230Y-16933317D01*
X16777230Y-16933317D02*
X16758182Y-16923793D01*
X16758182Y-16923793D02*
X16748658Y-16904746D01*
X16748658Y-16904746D02*
X16748658Y-16895222D01*
X16748658Y-16895222D02*
X16758182Y-16876174D01*
X16758182Y-16876174D02*
X16777230Y-16866650D01*
X16777230Y-16866650D02*
X16805801Y-16866650D01*
X16805801Y-16866650D02*
X16824849Y-16876174D01*
X16901039Y-17076174D02*
X16910563Y-17066650D01*
X16910563Y-17066650D02*
X16929611Y-17038079D01*
X16929611Y-17038079D02*
X16939134Y-17019031D01*
X16939134Y-17019031D02*
X16948658Y-16990460D01*
X16948658Y-16990460D02*
X16958182Y-16942841D01*
X16958182Y-16942841D02*
X16958182Y-16904746D01*
X16958182Y-16904746D02*
X16948658Y-16857127D01*
X16948658Y-16857127D02*
X16939134Y-16828555D01*
X16939134Y-16828555D02*
X16929611Y-16809508D01*
X16929611Y-16809508D02*
X16910563Y-16780936D01*
X16910563Y-16780936D02*
X16901039Y-16771412D01*
D12*
X11885500Y-17122500D02*
X11885500Y-17222500D01*
X11835500Y-17172500D02*
X11935500Y-17172500D01*
D11*
X12301039Y-17263984D02*
X12186753Y-17263984D01*
X12243896Y-17263984D02*
X12243896Y-17063984D01*
X12243896Y-17063984D02*
X12224848Y-17092555D01*
X12224848Y-17092555D02*
X12205801Y-17111603D01*
X12205801Y-17111603D02*
X12186753Y-17121127D01*
X12386753Y-17244936D02*
X12396277Y-17254460D01*
X12396277Y-17254460D02*
X12386753Y-17263984D01*
X12386753Y-17263984D02*
X12377229Y-17254460D01*
X12377229Y-17254460D02*
X12386753Y-17244936D01*
X12386753Y-17244936D02*
X12386753Y-17263984D01*
X12520086Y-17063984D02*
X12539134Y-17063984D01*
X12539134Y-17063984D02*
X12558182Y-17073508D01*
X12558182Y-17073508D02*
X12567705Y-17083031D01*
X12567705Y-17083031D02*
X12577229Y-17102079D01*
X12577229Y-17102079D02*
X12586753Y-17140174D01*
X12586753Y-17140174D02*
X12586753Y-17187793D01*
X12586753Y-17187793D02*
X12577229Y-17225889D01*
X12577229Y-17225889D02*
X12567705Y-17244936D01*
X12567705Y-17244936D02*
X12558182Y-17254460D01*
X12558182Y-17254460D02*
X12539134Y-17263984D01*
X12539134Y-17263984D02*
X12520086Y-17263984D01*
X12520086Y-17263984D02*
X12501039Y-17254460D01*
X12501039Y-17254460D02*
X12491515Y-17244936D01*
X12491515Y-17244936D02*
X12481991Y-17225889D01*
X12481991Y-17225889D02*
X12472467Y-17187793D01*
X12472467Y-17187793D02*
X12472467Y-17140174D01*
X12472467Y-17140174D02*
X12481991Y-17102079D01*
X12481991Y-17102079D02*
X12491515Y-17083031D01*
X12491515Y-17083031D02*
X12501039Y-17073508D01*
X12501039Y-17073508D02*
X12520086Y-17063984D01*
X12710562Y-17063984D02*
X12729610Y-17063984D01*
X12729610Y-17063984D02*
X12748658Y-17073508D01*
X12748658Y-17073508D02*
X12758182Y-17083031D01*
X12758182Y-17083031D02*
X12767705Y-17102079D01*
X12767705Y-17102079D02*
X12777229Y-17140174D01*
X12777229Y-17140174D02*
X12777229Y-17187793D01*
X12777229Y-17187793D02*
X12767705Y-17225889D01*
X12767705Y-17225889D02*
X12758182Y-17244936D01*
X12758182Y-17244936D02*
X12748658Y-17254460D01*
X12748658Y-17254460D02*
X12729610Y-17263984D01*
X12729610Y-17263984D02*
X12710562Y-17263984D01*
X12710562Y-17263984D02*
X12691515Y-17254460D01*
X12691515Y-17254460D02*
X12681991Y-17244936D01*
X12681991Y-17244936D02*
X12672467Y-17225889D01*
X12672467Y-17225889D02*
X12662943Y-17187793D01*
X12662943Y-17187793D02*
X12662943Y-17140174D01*
X12662943Y-17140174D02*
X12672467Y-17102079D01*
X12672467Y-17102079D02*
X12681991Y-17083031D01*
X12681991Y-17083031D02*
X12691515Y-17073508D01*
X12691515Y-17073508D02*
X12710562Y-17063984D01*
X12901039Y-17063984D02*
X12920086Y-17063984D01*
X12920086Y-17063984D02*
X12939134Y-17073508D01*
X12939134Y-17073508D02*
X12948658Y-17083031D01*
X12948658Y-17083031D02*
X12958182Y-17102079D01*
X12958182Y-17102079D02*
X12967705Y-17140174D01*
X12967705Y-17140174D02*
X12967705Y-17187793D01*
X12967705Y-17187793D02*
X12958182Y-17225889D01*
X12958182Y-17225889D02*
X12948658Y-17244936D01*
X12948658Y-17244936D02*
X12939134Y-17254460D01*
X12939134Y-17254460D02*
X12920086Y-17263984D01*
X12920086Y-17263984D02*
X12901039Y-17263984D01*
X12901039Y-17263984D02*
X12881991Y-17254460D01*
X12881991Y-17254460D02*
X12872467Y-17244936D01*
X12872467Y-17244936D02*
X12862943Y-17225889D01*
X12862943Y-17225889D02*
X12853420Y-17187793D01*
X12853420Y-17187793D02*
X12853420Y-17140174D01*
X12853420Y-17140174D02*
X12862943Y-17102079D01*
X12862943Y-17102079D02*
X12872467Y-17083031D01*
X12872467Y-17083031D02*
X12881991Y-17073508D01*
X12881991Y-17073508D02*
X12901039Y-17063984D01*
X13053420Y-17263984D02*
X13053420Y-17130650D01*
X13053420Y-17149698D02*
X13062943Y-17140174D01*
X13062943Y-17140174D02*
X13081991Y-17130650D01*
X13081991Y-17130650D02*
X13110563Y-17130650D01*
X13110563Y-17130650D02*
X13129610Y-17140174D01*
X13129610Y-17140174D02*
X13139134Y-17159222D01*
X13139134Y-17159222D02*
X13139134Y-17263984D01*
X13139134Y-17159222D02*
X13148658Y-17140174D01*
X13148658Y-17140174D02*
X13167705Y-17130650D01*
X13167705Y-17130650D02*
X13196277Y-17130650D01*
X13196277Y-17130650D02*
X13215324Y-17140174D01*
X13215324Y-17140174D02*
X13224848Y-17159222D01*
X13224848Y-17159222D02*
X13224848Y-17263984D01*
X13320086Y-17263984D02*
X13320086Y-17130650D01*
X13320086Y-17149698D02*
X13329610Y-17140174D01*
X13329610Y-17140174D02*
X13348658Y-17130650D01*
X13348658Y-17130650D02*
X13377229Y-17130650D01*
X13377229Y-17130650D02*
X13396277Y-17140174D01*
X13396277Y-17140174D02*
X13405801Y-17159222D01*
X13405801Y-17159222D02*
X13405801Y-17263984D01*
X13405801Y-17159222D02*
X13415324Y-17140174D01*
X13415324Y-17140174D02*
X13434372Y-17130650D01*
X13434372Y-17130650D02*
X13462943Y-17130650D01*
X13462943Y-17130650D02*
X13481991Y-17140174D01*
X13481991Y-17140174D02*
X13491515Y-17159222D01*
X13491515Y-17159222D02*
X13491515Y-17263984D01*
X13881991Y-17054460D02*
X13710563Y-17311603D01*
X14139134Y-17063984D02*
X14158182Y-17063984D01*
X14158182Y-17063984D02*
X14177229Y-17073508D01*
X14177229Y-17073508D02*
X14186753Y-17083031D01*
X14186753Y-17083031D02*
X14196277Y-17102079D01*
X14196277Y-17102079D02*
X14205801Y-17140174D01*
X14205801Y-17140174D02*
X14205801Y-17187793D01*
X14205801Y-17187793D02*
X14196277Y-17225889D01*
X14196277Y-17225889D02*
X14186753Y-17244936D01*
X14186753Y-17244936D02*
X14177229Y-17254460D01*
X14177229Y-17254460D02*
X14158182Y-17263984D01*
X14158182Y-17263984D02*
X14139134Y-17263984D01*
X14139134Y-17263984D02*
X14120086Y-17254460D01*
X14120086Y-17254460D02*
X14110563Y-17244936D01*
X14110563Y-17244936D02*
X14101039Y-17225889D01*
X14101039Y-17225889D02*
X14091515Y-17187793D01*
X14091515Y-17187793D02*
X14091515Y-17140174D01*
X14091515Y-17140174D02*
X14101039Y-17102079D01*
X14101039Y-17102079D02*
X14110563Y-17083031D01*
X14110563Y-17083031D02*
X14120086Y-17073508D01*
X14120086Y-17073508D02*
X14139134Y-17063984D01*
X14291515Y-17244936D02*
X14301039Y-17254460D01*
X14301039Y-17254460D02*
X14291515Y-17263984D01*
X14291515Y-17263984D02*
X14281991Y-17254460D01*
X14281991Y-17254460D02*
X14291515Y-17244936D01*
X14291515Y-17244936D02*
X14291515Y-17263984D01*
X14424848Y-17063984D02*
X14443896Y-17063984D01*
X14443896Y-17063984D02*
X14462944Y-17073508D01*
X14462944Y-17073508D02*
X14472467Y-17083031D01*
X14472467Y-17083031D02*
X14481991Y-17102079D01*
X14481991Y-17102079D02*
X14491515Y-17140174D01*
X14491515Y-17140174D02*
X14491515Y-17187793D01*
X14491515Y-17187793D02*
X14481991Y-17225889D01*
X14481991Y-17225889D02*
X14472467Y-17244936D01*
X14472467Y-17244936D02*
X14462944Y-17254460D01*
X14462944Y-17254460D02*
X14443896Y-17263984D01*
X14443896Y-17263984D02*
X14424848Y-17263984D01*
X14424848Y-17263984D02*
X14405801Y-17254460D01*
X14405801Y-17254460D02*
X14396277Y-17244936D01*
X14396277Y-17244936D02*
X14386753Y-17225889D01*
X14386753Y-17225889D02*
X14377229Y-17187793D01*
X14377229Y-17187793D02*
X14377229Y-17140174D01*
X14377229Y-17140174D02*
X14386753Y-17102079D01*
X14386753Y-17102079D02*
X14396277Y-17083031D01*
X14396277Y-17083031D02*
X14405801Y-17073508D01*
X14405801Y-17073508D02*
X14424848Y-17063984D01*
X14558182Y-17063984D02*
X14681991Y-17063984D01*
X14681991Y-17063984D02*
X14615325Y-17140174D01*
X14615325Y-17140174D02*
X14643896Y-17140174D01*
X14643896Y-17140174D02*
X14662944Y-17149698D01*
X14662944Y-17149698D02*
X14672467Y-17159222D01*
X14672467Y-17159222D02*
X14681991Y-17178270D01*
X14681991Y-17178270D02*
X14681991Y-17225889D01*
X14681991Y-17225889D02*
X14672467Y-17244936D01*
X14672467Y-17244936D02*
X14662944Y-17254460D01*
X14662944Y-17254460D02*
X14643896Y-17263984D01*
X14643896Y-17263984D02*
X14586753Y-17263984D01*
X14586753Y-17263984D02*
X14567706Y-17254460D01*
X14567706Y-17254460D02*
X14558182Y-17244936D01*
X14777229Y-17263984D02*
X14815325Y-17263984D01*
X14815325Y-17263984D02*
X14834372Y-17254460D01*
X14834372Y-17254460D02*
X14843896Y-17244936D01*
X14843896Y-17244936D02*
X14862944Y-17216365D01*
X14862944Y-17216365D02*
X14872467Y-17178270D01*
X14872467Y-17178270D02*
X14872467Y-17102079D01*
X14872467Y-17102079D02*
X14862944Y-17083031D01*
X14862944Y-17083031D02*
X14853420Y-17073508D01*
X14853420Y-17073508D02*
X14834372Y-17063984D01*
X14834372Y-17063984D02*
X14796277Y-17063984D01*
X14796277Y-17063984D02*
X14777229Y-17073508D01*
X14777229Y-17073508D02*
X14767706Y-17083031D01*
X14767706Y-17083031D02*
X14758182Y-17102079D01*
X14758182Y-17102079D02*
X14758182Y-17149698D01*
X14758182Y-17149698D02*
X14767706Y-17168746D01*
X14767706Y-17168746D02*
X14777229Y-17178270D01*
X14777229Y-17178270D02*
X14796277Y-17187793D01*
X14796277Y-17187793D02*
X14834372Y-17187793D01*
X14834372Y-17187793D02*
X14853420Y-17178270D01*
X14853420Y-17178270D02*
X14862944Y-17168746D01*
X14862944Y-17168746D02*
X14872467Y-17149698D01*
X15043896Y-17130650D02*
X15043896Y-17263984D01*
X14996277Y-17054460D02*
X14948658Y-17197317D01*
X14948658Y-17197317D02*
X15072467Y-17197317D01*
X15139134Y-17063984D02*
X15139134Y-17102079D01*
X15215325Y-17063984D02*
X15215325Y-17102079D01*
X15510563Y-17340174D02*
X15501039Y-17330650D01*
X15501039Y-17330650D02*
X15481991Y-17302079D01*
X15481991Y-17302079D02*
X15472468Y-17283031D01*
X15472468Y-17283031D02*
X15462944Y-17254460D01*
X15462944Y-17254460D02*
X15453420Y-17206841D01*
X15453420Y-17206841D02*
X15453420Y-17168746D01*
X15453420Y-17168746D02*
X15462944Y-17121127D01*
X15462944Y-17121127D02*
X15472468Y-17092555D01*
X15472468Y-17092555D02*
X15481991Y-17073508D01*
X15481991Y-17073508D02*
X15501039Y-17044936D01*
X15501039Y-17044936D02*
X15510563Y-17035412D01*
X15672468Y-17130650D02*
X15672468Y-17263984D01*
X15624848Y-17054460D02*
X15577229Y-17197317D01*
X15577229Y-17197317D02*
X15701039Y-17197317D01*
X15929610Y-17263984D02*
X15929610Y-17063984D01*
X16015325Y-17263984D02*
X16015325Y-17159222D01*
X16015325Y-17159222D02*
X16005801Y-17140174D01*
X16005801Y-17140174D02*
X15986753Y-17130650D01*
X15986753Y-17130650D02*
X15958182Y-17130650D01*
X15958182Y-17130650D02*
X15939134Y-17140174D01*
X15939134Y-17140174D02*
X15929610Y-17149698D01*
X16139134Y-17263984D02*
X16120087Y-17254460D01*
X16120087Y-17254460D02*
X16110563Y-17244936D01*
X16110563Y-17244936D02*
X16101039Y-17225889D01*
X16101039Y-17225889D02*
X16101039Y-17168746D01*
X16101039Y-17168746D02*
X16110563Y-17149698D01*
X16110563Y-17149698D02*
X16120087Y-17140174D01*
X16120087Y-17140174D02*
X16139134Y-17130650D01*
X16139134Y-17130650D02*
X16167706Y-17130650D01*
X16167706Y-17130650D02*
X16186753Y-17140174D01*
X16186753Y-17140174D02*
X16196277Y-17149698D01*
X16196277Y-17149698D02*
X16205801Y-17168746D01*
X16205801Y-17168746D02*
X16205801Y-17225889D01*
X16205801Y-17225889D02*
X16196277Y-17244936D01*
X16196277Y-17244936D02*
X16186753Y-17254460D01*
X16186753Y-17254460D02*
X16167706Y-17263984D01*
X16167706Y-17263984D02*
X16139134Y-17263984D01*
X16320087Y-17263984D02*
X16301039Y-17254460D01*
X16301039Y-17254460D02*
X16291515Y-17235412D01*
X16291515Y-17235412D02*
X16291515Y-17063984D01*
X16472468Y-17254460D02*
X16453420Y-17263984D01*
X16453420Y-17263984D02*
X16415325Y-17263984D01*
X16415325Y-17263984D02*
X16396277Y-17254460D01*
X16396277Y-17254460D02*
X16386753Y-17235412D01*
X16386753Y-17235412D02*
X16386753Y-17159222D01*
X16386753Y-17159222D02*
X16396277Y-17140174D01*
X16396277Y-17140174D02*
X16415325Y-17130650D01*
X16415325Y-17130650D02*
X16453420Y-17130650D01*
X16453420Y-17130650D02*
X16472468Y-17140174D01*
X16472468Y-17140174D02*
X16481991Y-17159222D01*
X16481991Y-17159222D02*
X16481991Y-17178270D01*
X16481991Y-17178270D02*
X16386753Y-17197317D01*
X16558182Y-17254460D02*
X16577230Y-17263984D01*
X16577230Y-17263984D02*
X16615325Y-17263984D01*
X16615325Y-17263984D02*
X16634372Y-17254460D01*
X16634372Y-17254460D02*
X16643896Y-17235412D01*
X16643896Y-17235412D02*
X16643896Y-17225889D01*
X16643896Y-17225889D02*
X16634372Y-17206841D01*
X16634372Y-17206841D02*
X16615325Y-17197317D01*
X16615325Y-17197317D02*
X16586753Y-17197317D01*
X16586753Y-17197317D02*
X16567706Y-17187793D01*
X16567706Y-17187793D02*
X16558182Y-17168746D01*
X16558182Y-17168746D02*
X16558182Y-17159222D01*
X16558182Y-17159222D02*
X16567706Y-17140174D01*
X16567706Y-17140174D02*
X16586753Y-17130650D01*
X16586753Y-17130650D02*
X16615325Y-17130650D01*
X16615325Y-17130650D02*
X16634372Y-17140174D01*
X16710563Y-17340174D02*
X16720087Y-17330650D01*
X16720087Y-17330650D02*
X16739134Y-17302079D01*
X16739134Y-17302079D02*
X16748658Y-17283031D01*
X16748658Y-17283031D02*
X16758182Y-17254460D01*
X16758182Y-17254460D02*
X16767706Y-17206841D01*
X16767706Y-17206841D02*
X16767706Y-17168746D01*
X16767706Y-17168746D02*
X16758182Y-17121127D01*
X16758182Y-17121127D02*
X16748658Y-17092555D01*
X16748658Y-17092555D02*
X16739134Y-17073508D01*
X16739134Y-17073508D02*
X16720087Y-17044936D01*
X16720087Y-17044936D02*
X16710563Y-17035412D01*
D13*
X11920563Y-17472563D02*
X11920563Y-17400437D01*
X11848437Y-17400437D01*
X11848437Y-17472563D01*
X11920563Y-17472563D01*
D11*
X12301039Y-17527984D02*
X12186753Y-17527984D01*
X12243896Y-17527984D02*
X12243896Y-17327984D01*
X12243896Y-17327984D02*
X12224848Y-17356555D01*
X12224848Y-17356555D02*
X12205801Y-17375603D01*
X12205801Y-17375603D02*
X12186753Y-17385127D01*
X12386753Y-17508936D02*
X12396277Y-17518460D01*
X12396277Y-17518460D02*
X12386753Y-17527984D01*
X12386753Y-17527984D02*
X12377229Y-17518460D01*
X12377229Y-17518460D02*
X12386753Y-17508936D01*
X12386753Y-17508936D02*
X12386753Y-17527984D01*
X12520086Y-17327984D02*
X12539134Y-17327984D01*
X12539134Y-17327984D02*
X12558182Y-17337508D01*
X12558182Y-17337508D02*
X12567705Y-17347031D01*
X12567705Y-17347031D02*
X12577229Y-17366079D01*
X12577229Y-17366079D02*
X12586753Y-17404174D01*
X12586753Y-17404174D02*
X12586753Y-17451793D01*
X12586753Y-17451793D02*
X12577229Y-17489889D01*
X12577229Y-17489889D02*
X12567705Y-17508936D01*
X12567705Y-17508936D02*
X12558182Y-17518460D01*
X12558182Y-17518460D02*
X12539134Y-17527984D01*
X12539134Y-17527984D02*
X12520086Y-17527984D01*
X12520086Y-17527984D02*
X12501039Y-17518460D01*
X12501039Y-17518460D02*
X12491515Y-17508936D01*
X12491515Y-17508936D02*
X12481991Y-17489889D01*
X12481991Y-17489889D02*
X12472467Y-17451793D01*
X12472467Y-17451793D02*
X12472467Y-17404174D01*
X12472467Y-17404174D02*
X12481991Y-17366079D01*
X12481991Y-17366079D02*
X12491515Y-17347031D01*
X12491515Y-17347031D02*
X12501039Y-17337508D01*
X12501039Y-17337508D02*
X12520086Y-17327984D01*
X12662943Y-17347031D02*
X12672467Y-17337508D01*
X12672467Y-17337508D02*
X12691515Y-17327984D01*
X12691515Y-17327984D02*
X12739134Y-17327984D01*
X12739134Y-17327984D02*
X12758182Y-17337508D01*
X12758182Y-17337508D02*
X12767705Y-17347031D01*
X12767705Y-17347031D02*
X12777229Y-17366079D01*
X12777229Y-17366079D02*
X12777229Y-17385127D01*
X12777229Y-17385127D02*
X12767705Y-17413698D01*
X12767705Y-17413698D02*
X12653420Y-17527984D01*
X12653420Y-17527984D02*
X12777229Y-17527984D01*
X12901039Y-17327984D02*
X12920086Y-17327984D01*
X12920086Y-17327984D02*
X12939134Y-17337508D01*
X12939134Y-17337508D02*
X12948658Y-17347031D01*
X12948658Y-17347031D02*
X12958182Y-17366079D01*
X12958182Y-17366079D02*
X12967705Y-17404174D01*
X12967705Y-17404174D02*
X12967705Y-17451793D01*
X12967705Y-17451793D02*
X12958182Y-17489889D01*
X12958182Y-17489889D02*
X12948658Y-17508936D01*
X12948658Y-17508936D02*
X12939134Y-17518460D01*
X12939134Y-17518460D02*
X12920086Y-17527984D01*
X12920086Y-17527984D02*
X12901039Y-17527984D01*
X12901039Y-17527984D02*
X12881991Y-17518460D01*
X12881991Y-17518460D02*
X12872467Y-17508936D01*
X12872467Y-17508936D02*
X12862943Y-17489889D01*
X12862943Y-17489889D02*
X12853420Y-17451793D01*
X12853420Y-17451793D02*
X12853420Y-17404174D01*
X12853420Y-17404174D02*
X12862943Y-17366079D01*
X12862943Y-17366079D02*
X12872467Y-17347031D01*
X12872467Y-17347031D02*
X12881991Y-17337508D01*
X12881991Y-17337508D02*
X12901039Y-17327984D01*
X13053420Y-17527984D02*
X13053420Y-17394650D01*
X13053420Y-17413698D02*
X13062943Y-17404174D01*
X13062943Y-17404174D02*
X13081991Y-17394650D01*
X13081991Y-17394650D02*
X13110563Y-17394650D01*
X13110563Y-17394650D02*
X13129610Y-17404174D01*
X13129610Y-17404174D02*
X13139134Y-17423222D01*
X13139134Y-17423222D02*
X13139134Y-17527984D01*
X13139134Y-17423222D02*
X13148658Y-17404174D01*
X13148658Y-17404174D02*
X13167705Y-17394650D01*
X13167705Y-17394650D02*
X13196277Y-17394650D01*
X13196277Y-17394650D02*
X13215324Y-17404174D01*
X13215324Y-17404174D02*
X13224848Y-17423222D01*
X13224848Y-17423222D02*
X13224848Y-17527984D01*
X13320086Y-17527984D02*
X13320086Y-17394650D01*
X13320086Y-17413698D02*
X13329610Y-17404174D01*
X13329610Y-17404174D02*
X13348658Y-17394650D01*
X13348658Y-17394650D02*
X13377229Y-17394650D01*
X13377229Y-17394650D02*
X13396277Y-17404174D01*
X13396277Y-17404174D02*
X13405801Y-17423222D01*
X13405801Y-17423222D02*
X13405801Y-17527984D01*
X13405801Y-17423222D02*
X13415324Y-17404174D01*
X13415324Y-17404174D02*
X13434372Y-17394650D01*
X13434372Y-17394650D02*
X13462943Y-17394650D01*
X13462943Y-17394650D02*
X13481991Y-17404174D01*
X13481991Y-17404174D02*
X13491515Y-17423222D01*
X13491515Y-17423222D02*
X13491515Y-17527984D01*
X13881991Y-17318460D02*
X13710563Y-17575603D01*
X14139134Y-17327984D02*
X14158182Y-17327984D01*
X14158182Y-17327984D02*
X14177229Y-17337508D01*
X14177229Y-17337508D02*
X14186753Y-17347031D01*
X14186753Y-17347031D02*
X14196277Y-17366079D01*
X14196277Y-17366079D02*
X14205801Y-17404174D01*
X14205801Y-17404174D02*
X14205801Y-17451793D01*
X14205801Y-17451793D02*
X14196277Y-17489889D01*
X14196277Y-17489889D02*
X14186753Y-17508936D01*
X14186753Y-17508936D02*
X14177229Y-17518460D01*
X14177229Y-17518460D02*
X14158182Y-17527984D01*
X14158182Y-17527984D02*
X14139134Y-17527984D01*
X14139134Y-17527984D02*
X14120086Y-17518460D01*
X14120086Y-17518460D02*
X14110563Y-17508936D01*
X14110563Y-17508936D02*
X14101039Y-17489889D01*
X14101039Y-17489889D02*
X14091515Y-17451793D01*
X14091515Y-17451793D02*
X14091515Y-17404174D01*
X14091515Y-17404174D02*
X14101039Y-17366079D01*
X14101039Y-17366079D02*
X14110563Y-17347031D01*
X14110563Y-17347031D02*
X14120086Y-17337508D01*
X14120086Y-17337508D02*
X14139134Y-17327984D01*
X14291515Y-17508936D02*
X14301039Y-17518460D01*
X14301039Y-17518460D02*
X14291515Y-17527984D01*
X14291515Y-17527984D02*
X14281991Y-17518460D01*
X14281991Y-17518460D02*
X14291515Y-17508936D01*
X14291515Y-17508936D02*
X14291515Y-17527984D01*
X14424848Y-17327984D02*
X14443896Y-17327984D01*
X14443896Y-17327984D02*
X14462944Y-17337508D01*
X14462944Y-17337508D02*
X14472467Y-17347031D01*
X14472467Y-17347031D02*
X14481991Y-17366079D01*
X14481991Y-17366079D02*
X14491515Y-17404174D01*
X14491515Y-17404174D02*
X14491515Y-17451793D01*
X14491515Y-17451793D02*
X14481991Y-17489889D01*
X14481991Y-17489889D02*
X14472467Y-17508936D01*
X14472467Y-17508936D02*
X14462944Y-17518460D01*
X14462944Y-17518460D02*
X14443896Y-17527984D01*
X14443896Y-17527984D02*
X14424848Y-17527984D01*
X14424848Y-17527984D02*
X14405801Y-17518460D01*
X14405801Y-17518460D02*
X14396277Y-17508936D01*
X14396277Y-17508936D02*
X14386753Y-17489889D01*
X14386753Y-17489889D02*
X14377229Y-17451793D01*
X14377229Y-17451793D02*
X14377229Y-17404174D01*
X14377229Y-17404174D02*
X14386753Y-17366079D01*
X14386753Y-17366079D02*
X14396277Y-17347031D01*
X14396277Y-17347031D02*
X14405801Y-17337508D01*
X14405801Y-17337508D02*
X14424848Y-17327984D01*
X14662944Y-17394650D02*
X14662944Y-17527984D01*
X14615325Y-17318460D02*
X14567706Y-17461317D01*
X14567706Y-17461317D02*
X14691515Y-17461317D01*
X14805801Y-17327984D02*
X14824848Y-17327984D01*
X14824848Y-17327984D02*
X14843896Y-17337508D01*
X14843896Y-17337508D02*
X14853420Y-17347031D01*
X14853420Y-17347031D02*
X14862944Y-17366079D01*
X14862944Y-17366079D02*
X14872467Y-17404174D01*
X14872467Y-17404174D02*
X14872467Y-17451793D01*
X14872467Y-17451793D02*
X14862944Y-17489889D01*
X14862944Y-17489889D02*
X14853420Y-17508936D01*
X14853420Y-17508936D02*
X14843896Y-17518460D01*
X14843896Y-17518460D02*
X14824848Y-17527984D01*
X14824848Y-17527984D02*
X14805801Y-17527984D01*
X14805801Y-17527984D02*
X14786753Y-17518460D01*
X14786753Y-17518460D02*
X14777229Y-17508936D01*
X14777229Y-17508936D02*
X14767706Y-17489889D01*
X14767706Y-17489889D02*
X14758182Y-17451793D01*
X14758182Y-17451793D02*
X14758182Y-17404174D01*
X14758182Y-17404174D02*
X14767706Y-17366079D01*
X14767706Y-17366079D02*
X14777229Y-17347031D01*
X14777229Y-17347031D02*
X14786753Y-17337508D01*
X14786753Y-17337508D02*
X14805801Y-17327984D01*
X14948658Y-17347031D02*
X14958182Y-17337508D01*
X14958182Y-17337508D02*
X14977229Y-17327984D01*
X14977229Y-17327984D02*
X15024848Y-17327984D01*
X15024848Y-17327984D02*
X15043896Y-17337508D01*
X15043896Y-17337508D02*
X15053420Y-17347031D01*
X15053420Y-17347031D02*
X15062944Y-17366079D01*
X15062944Y-17366079D02*
X15062944Y-17385127D01*
X15062944Y-17385127D02*
X15053420Y-17413698D01*
X15053420Y-17413698D02*
X14939134Y-17527984D01*
X14939134Y-17527984D02*
X15062944Y-17527984D01*
X15139134Y-17327984D02*
X15139134Y-17366079D01*
X15215325Y-17327984D02*
X15215325Y-17366079D01*
X15510563Y-17604174D02*
X15501039Y-17594650D01*
X15501039Y-17594650D02*
X15481991Y-17566079D01*
X15481991Y-17566079D02*
X15472468Y-17547031D01*
X15472468Y-17547031D02*
X15462944Y-17518460D01*
X15462944Y-17518460D02*
X15453420Y-17470841D01*
X15453420Y-17470841D02*
X15453420Y-17432746D01*
X15453420Y-17432746D02*
X15462944Y-17385127D01*
X15462944Y-17385127D02*
X15472468Y-17356555D01*
X15472468Y-17356555D02*
X15481991Y-17337508D01*
X15481991Y-17337508D02*
X15501039Y-17308936D01*
X15501039Y-17308936D02*
X15510563Y-17299412D01*
X15672468Y-17394650D02*
X15672468Y-17527984D01*
X15624848Y-17318460D02*
X15577229Y-17461317D01*
X15577229Y-17461317D02*
X15701039Y-17461317D01*
X15815325Y-17327984D02*
X15834372Y-17327984D01*
X15834372Y-17327984D02*
X15853420Y-17337508D01*
X15853420Y-17337508D02*
X15862944Y-17347031D01*
X15862944Y-17347031D02*
X15872468Y-17366079D01*
X15872468Y-17366079D02*
X15881991Y-17404174D01*
X15881991Y-17404174D02*
X15881991Y-17451793D01*
X15881991Y-17451793D02*
X15872468Y-17489889D01*
X15872468Y-17489889D02*
X15862944Y-17508936D01*
X15862944Y-17508936D02*
X15853420Y-17518460D01*
X15853420Y-17518460D02*
X15834372Y-17527984D01*
X15834372Y-17527984D02*
X15815325Y-17527984D01*
X15815325Y-17527984D02*
X15796277Y-17518460D01*
X15796277Y-17518460D02*
X15786753Y-17508936D01*
X15786753Y-17508936D02*
X15777229Y-17489889D01*
X15777229Y-17489889D02*
X15767706Y-17451793D01*
X15767706Y-17451793D02*
X15767706Y-17404174D01*
X15767706Y-17404174D02*
X15777229Y-17366079D01*
X15777229Y-17366079D02*
X15786753Y-17347031D01*
X15786753Y-17347031D02*
X15796277Y-17337508D01*
X15796277Y-17337508D02*
X15815325Y-17327984D01*
X16120087Y-17527984D02*
X16120087Y-17327984D01*
X16205801Y-17527984D02*
X16205801Y-17423222D01*
X16205801Y-17423222D02*
X16196277Y-17404174D01*
X16196277Y-17404174D02*
X16177230Y-17394650D01*
X16177230Y-17394650D02*
X16148658Y-17394650D01*
X16148658Y-17394650D02*
X16129610Y-17404174D01*
X16129610Y-17404174D02*
X16120087Y-17413698D01*
X16329610Y-17527984D02*
X16310563Y-17518460D01*
X16310563Y-17518460D02*
X16301039Y-17508936D01*
X16301039Y-17508936D02*
X16291515Y-17489889D01*
X16291515Y-17489889D02*
X16291515Y-17432746D01*
X16291515Y-17432746D02*
X16301039Y-17413698D01*
X16301039Y-17413698D02*
X16310563Y-17404174D01*
X16310563Y-17404174D02*
X16329610Y-17394650D01*
X16329610Y-17394650D02*
X16358182Y-17394650D01*
X16358182Y-17394650D02*
X16377230Y-17404174D01*
X16377230Y-17404174D02*
X16386753Y-17413698D01*
X16386753Y-17413698D02*
X16396277Y-17432746D01*
X16396277Y-17432746D02*
X16396277Y-17489889D01*
X16396277Y-17489889D02*
X16386753Y-17508936D01*
X16386753Y-17508936D02*
X16377230Y-17518460D01*
X16377230Y-17518460D02*
X16358182Y-17527984D01*
X16358182Y-17527984D02*
X16329610Y-17527984D01*
X16510563Y-17527984D02*
X16491515Y-17518460D01*
X16491515Y-17518460D02*
X16481991Y-17499412D01*
X16481991Y-17499412D02*
X16481991Y-17327984D01*
X16662944Y-17518460D02*
X16643896Y-17527984D01*
X16643896Y-17527984D02*
X16605801Y-17527984D01*
X16605801Y-17527984D02*
X16586753Y-17518460D01*
X16586753Y-17518460D02*
X16577230Y-17499412D01*
X16577230Y-17499412D02*
X16577230Y-17423222D01*
X16577230Y-17423222D02*
X16586753Y-17404174D01*
X16586753Y-17404174D02*
X16605801Y-17394650D01*
X16605801Y-17394650D02*
X16643896Y-17394650D01*
X16643896Y-17394650D02*
X16662944Y-17404174D01*
X16662944Y-17404174D02*
X16672468Y-17423222D01*
X16672468Y-17423222D02*
X16672468Y-17442270D01*
X16672468Y-17442270D02*
X16577230Y-17461317D01*
X16748658Y-17518460D02*
X16767706Y-17527984D01*
X16767706Y-17527984D02*
X16805801Y-17527984D01*
X16805801Y-17527984D02*
X16824849Y-17518460D01*
X16824849Y-17518460D02*
X16834373Y-17499412D01*
X16834373Y-17499412D02*
X16834373Y-17489889D01*
X16834373Y-17489889D02*
X16824849Y-17470841D01*
X16824849Y-17470841D02*
X16805801Y-17461317D01*
X16805801Y-17461317D02*
X16777230Y-17461317D01*
X16777230Y-17461317D02*
X16758182Y-17451793D01*
X16758182Y-17451793D02*
X16748658Y-17432746D01*
X16748658Y-17432746D02*
X16748658Y-17423222D01*
X16748658Y-17423222D02*
X16758182Y-17404174D01*
X16758182Y-17404174D02*
X16777230Y-17394650D01*
X16777230Y-17394650D02*
X16805801Y-17394650D01*
X16805801Y-17394650D02*
X16824849Y-17404174D01*
X16901039Y-17604174D02*
X16910563Y-17594650D01*
X16910563Y-17594650D02*
X16929611Y-17566079D01*
X16929611Y-17566079D02*
X16939134Y-17547031D01*
X16939134Y-17547031D02*
X16948658Y-17518460D01*
X16948658Y-17518460D02*
X16958182Y-17470841D01*
X16958182Y-17470841D02*
X16958182Y-17432746D01*
X16958182Y-17432746D02*
X16948658Y-17385127D01*
X16948658Y-17385127D02*
X16939134Y-17356555D01*
X16939134Y-17356555D02*
X16929611Y-17337508D01*
X16929611Y-17337508D02*
X16910563Y-17308936D01*
X16910563Y-17308936D02*
X16901039Y-17299412D01*
M02*
