M48
; DRILL file {KiCad 9.0.1} date 2025-12-26T13:14:09+0900
; FORMAT={3:3/ absolute / metric / suppress leading zeros}
; #@! TF.CreationDate,2025-12-26T13:14:09+09:00
; #@! TF.GenerationSoftware,Kicad,Pcbnew,9.0.1
; #@! TF.FileFunction,MixedPlating,1,2
FMAT,2
METRIC,TZ
; #@! TA.AperFunction,Plated,PTH,ViaDrill
T1C0.400
; #@! TA.AperFunction,Plated,PTH,ComponentDrill
T2C0.800
; #@! TA.AperFunction,Plated,PTH,ComponentDrill
T3C1.000
; #@! TA.AperFunction,Plated,PTH,ComponentDrill
T4C1.020
%
G90
G05
T1
X137160Y-91440
X137160Y-99060
T2
X124460Y-93980
X124460Y-104140
X129540Y-93980
X129540Y-104140
X135895Y-95250
X135895Y-97790
X135895Y-100330
X135895Y-102870
X143515Y-95250
X143515Y-97790
X143515Y-100330
X143515Y-102870
X147320Y-93980
X147320Y-104140
X154940Y-93980
X154940Y-104140
T3
X135950Y-85835
X138450Y-85835
X140950Y-85835
X143450Y-85835
T4
X131055Y-109220
X131055Y-111760
X131055Y-114300
X131055Y-116840
X131055Y-119380
X131055Y-121920
X131055Y-124460
X131055Y-127000
X131055Y-129540
X131055Y-132080
X131055Y-134620
X131055Y-137160
X131055Y-139700
X131055Y-142240
X131055Y-144780
X131055Y-147320
X131055Y-149860
X131055Y-152400
X131055Y-154940
X131055Y-157480
X148835Y-109220
X148835Y-111760
X148835Y-114300
X148835Y-116840
X148835Y-119380
X148835Y-121920
X148835Y-124460
X148835Y-127000
X148835Y-129540
X148835Y-132080
X148835Y-134620
X148835Y-137160
X148835Y-139700
X148835Y-142240
X148835Y-144780
X148835Y-147320
X148835Y-149860
X148835Y-152400
X148835Y-154940
X148835Y-157480
M30
