%TF.GenerationSoftware,KiCad,Pcbnew,9.0.1*%
%TF.CreationDate,2025-11-12T09:35:43+09:00*%
%TF.ProjectId,RasPi+MultiPlexer,52617350-692b-44d7-956c-7469506c6578,rev?*%
%TF.SameCoordinates,Original*%
%TF.FileFunction,Drillmap*%
%TF.FilePolarity,Positive*%
%FSLAX45Y45*%
G04 Gerber Fmt 4.5, Leading zero omitted, Abs format (unit mm)*
G04 Created by KiCad (PCBNEW 9.0.1) date 2025-11-12 09:35:43*
%MOMM*%
%LPD*%
G01*
G04 APERTURE LIST*
%ADD10C,0.050000*%
%ADD11C,0.200000*%
%ADD12C,0.100000*%
%ADD13C,0.102000*%
G04 APERTURE END LIST*
D10*
X8128000Y-4064000D02*
X16256000Y-4064000D01*
X16256000Y-17780000D01*
X8128000Y-17780000D01*
X8128000Y-4064000D01*
D11*
D12*
X8367000Y-6843000D02*
X8397000Y-6873000D01*
X8397000Y-6843000D02*
X8367000Y-6873000D01*
X8367000Y-8621000D02*
X8397000Y-8651000D01*
X8397000Y-8621000D02*
X8367000Y-8651000D01*
X8621000Y-7605000D02*
X8651000Y-7635000D01*
X8651000Y-7605000D02*
X8621000Y-7635000D01*
X9129000Y-8621000D02*
X9159000Y-8651000D01*
X9159000Y-8621000D02*
X9129000Y-8651000D01*
X9383000Y-6589000D02*
X9413000Y-6619000D01*
X9413000Y-6589000D02*
X9383000Y-6619000D01*
X10145000Y-12431000D02*
X10175000Y-12461000D01*
X10175000Y-12431000D02*
X10145000Y-12461000D01*
X10653000Y-11669000D02*
X10683000Y-11699000D01*
X10683000Y-11669000D02*
X10653000Y-11699000D01*
X11669000Y-6589000D02*
X11699000Y-6619000D01*
X11699000Y-6589000D02*
X11669000Y-6619000D01*
X11669000Y-8113000D02*
X11699000Y-8143000D01*
X11699000Y-8113000D02*
X11669000Y-8143000D01*
X11923000Y-6335000D02*
X11953000Y-6365000D01*
X11953000Y-6335000D02*
X11923000Y-6365000D01*
X11923000Y-9129000D02*
X11953000Y-9159000D01*
X11953000Y-9129000D02*
X11923000Y-9159000D01*
X13955000Y-6081000D02*
X13985000Y-6111000D01*
X13985000Y-6081000D02*
X13955000Y-6111000D01*
X13955000Y-7351000D02*
X13985000Y-7381000D01*
X13985000Y-7351000D02*
X13955000Y-7381000D01*
X14209000Y-5827000D02*
X14239000Y-5857000D01*
X14239000Y-5827000D02*
X14209000Y-5857000D01*
X14209000Y-7351000D02*
X14239000Y-7381000D01*
X14239000Y-7351000D02*
X14209000Y-7381000D01*
X11850500Y-10795000D02*
G75*
G02*
X11770500Y-10795000I-40000J0D01*
G01*
X11770500Y-10795000D02*
G75*
G02*
X11850500Y-10795000I40000J0D01*
G01*
X11850500Y-11049000D02*
G75*
G02*
X11770500Y-11049000I-40000J0D01*
G01*
X11770500Y-11049000D02*
G75*
G02*
X11850500Y-11049000I40000J0D01*
G01*
X11850500Y-11303000D02*
G75*
G02*
X11770500Y-11303000I-40000J0D01*
G01*
X11770500Y-11303000D02*
G75*
G02*
X11850500Y-11303000I40000J0D01*
G01*
X11850500Y-11557000D02*
G75*
G02*
X11770500Y-11557000I-40000J0D01*
G01*
X11770500Y-11557000D02*
G75*
G02*
X11850500Y-11557000I40000J0D01*
G01*
X12612500Y-10795000D02*
G75*
G02*
X12532500Y-10795000I-40000J0D01*
G01*
X12532500Y-10795000D02*
G75*
G02*
X12612500Y-10795000I40000J0D01*
G01*
X12612500Y-11049000D02*
G75*
G02*
X12532500Y-11049000I-40000J0D01*
G01*
X12532500Y-11049000D02*
G75*
G02*
X12612500Y-11049000I40000J0D01*
G01*
X12612500Y-11303000D02*
G75*
G02*
X12532500Y-11303000I-40000J0D01*
G01*
X12532500Y-11303000D02*
G75*
G02*
X12612500Y-11303000I40000J0D01*
G01*
X12612500Y-11557000D02*
G75*
G02*
X12532500Y-11557000I-40000J0D01*
G01*
X12532500Y-11557000D02*
G75*
G02*
X12612500Y-11557000I40000J0D01*
G01*
X9584000Y-8201000D02*
X9584000Y-8301000D01*
X9534000Y-8251000D02*
X9634000Y-8251000D01*
X9584000Y-8455000D02*
X9584000Y-8555000D01*
X9534000Y-8505000D02*
X9634000Y-8505000D01*
X9584000Y-8709000D02*
X9584000Y-8809000D01*
X9534000Y-8759000D02*
X9634000Y-8759000D01*
X9584000Y-8963000D02*
X9584000Y-9063000D01*
X9534000Y-9013000D02*
X9634000Y-9013000D01*
X11314000Y-6950000D02*
X11314000Y-7050000D01*
X11264000Y-7000000D02*
X11364000Y-7000000D01*
X11314000Y-7204000D02*
X11314000Y-7304000D01*
X11264000Y-7254000D02*
X11364000Y-7254000D01*
X11314000Y-7458000D02*
X11314000Y-7558000D01*
X11264000Y-7508000D02*
X11364000Y-7508000D01*
X11314000Y-7712000D02*
X11314000Y-7812000D01*
X11264000Y-7762000D02*
X11364000Y-7762000D01*
X11314000Y-7966000D02*
X11314000Y-8066000D01*
X11264000Y-8016000D02*
X11364000Y-8016000D01*
X11314000Y-8220000D02*
X11314000Y-8320000D01*
X11264000Y-8270000D02*
X11364000Y-8270000D01*
X11314000Y-8474000D02*
X11314000Y-8574000D01*
X11264000Y-8524000D02*
X11364000Y-8524000D01*
X11314000Y-8728000D02*
X11314000Y-8828000D01*
X11264000Y-8778000D02*
X11364000Y-8778000D01*
X11314000Y-8982000D02*
X11314000Y-9082000D01*
X11264000Y-9032000D02*
X11364000Y-9032000D01*
X11314000Y-9236000D02*
X11314000Y-9336000D01*
X11264000Y-9286000D02*
X11364000Y-9286000D01*
X11314000Y-9490000D02*
X11314000Y-9590000D01*
X11264000Y-9540000D02*
X11364000Y-9540000D01*
X11314000Y-9744000D02*
X11314000Y-9844000D01*
X11264000Y-9794000D02*
X11364000Y-9794000D01*
X11815000Y-5724000D02*
X11815000Y-5824000D01*
X11765000Y-5774000D02*
X11865000Y-5774000D01*
X12069000Y-5724000D02*
X12069000Y-5824000D01*
X12019000Y-5774000D02*
X12119000Y-5774000D01*
X12323000Y-5724000D02*
X12323000Y-5824000D01*
X12273000Y-5774000D02*
X12373000Y-5774000D01*
X12577000Y-5724000D02*
X12577000Y-5824000D01*
X12527000Y-5774000D02*
X12627000Y-5774000D01*
X13092000Y-6950000D02*
X13092000Y-7050000D01*
X13042000Y-7000000D02*
X13142000Y-7000000D01*
X13092000Y-7204000D02*
X13092000Y-7304000D01*
X13042000Y-7254000D02*
X13142000Y-7254000D01*
X13092000Y-7458000D02*
X13092000Y-7558000D01*
X13042000Y-7508000D02*
X13142000Y-7508000D01*
X13092000Y-7712000D02*
X13092000Y-7812000D01*
X13042000Y-7762000D02*
X13142000Y-7762000D01*
X13092000Y-7966000D02*
X13092000Y-8066000D01*
X13042000Y-8016000D02*
X13142000Y-8016000D01*
X13092000Y-8220000D02*
X13092000Y-8320000D01*
X13042000Y-8270000D02*
X13142000Y-8270000D01*
X13092000Y-8474000D02*
X13092000Y-8574000D01*
X13042000Y-8524000D02*
X13142000Y-8524000D01*
X13092000Y-8728000D02*
X13092000Y-8828000D01*
X13042000Y-8778000D02*
X13142000Y-8778000D01*
X13092000Y-8982000D02*
X13092000Y-9082000D01*
X13042000Y-9032000D02*
X13142000Y-9032000D01*
X13092000Y-9236000D02*
X13092000Y-9336000D01*
X13042000Y-9286000D02*
X13142000Y-9286000D01*
X13092000Y-9490000D02*
X13092000Y-9590000D01*
X13042000Y-9540000D02*
X13142000Y-9540000D01*
X13092000Y-9744000D02*
X13092000Y-9844000D01*
X13042000Y-9794000D02*
X13142000Y-9794000D01*
X14800000Y-8209000D02*
X14800000Y-8309000D01*
X14750000Y-8259000D02*
X14850000Y-8259000D01*
X14800000Y-8463000D02*
X14800000Y-8563000D01*
X14750000Y-8513000D02*
X14850000Y-8513000D01*
X14800000Y-8717000D02*
X14800000Y-8817000D01*
X14750000Y-8767000D02*
X14850000Y-8767000D01*
X14800000Y-8971000D02*
X14800000Y-9071000D01*
X14750000Y-9021000D02*
X14850000Y-9021000D01*
D13*
X11339063Y-12355063D02*
X11339063Y-12282937D01*
X11266937Y-12282937D01*
X11266937Y-12355063D01*
X11339063Y-12355063D01*
X11339063Y-12609063D02*
X11339063Y-12536937D01*
X11266937Y-12536937D01*
X11266937Y-12609063D01*
X11339063Y-12609063D01*
X11339063Y-12863063D02*
X11339063Y-12790937D01*
X11266937Y-12790937D01*
X11266937Y-12863063D01*
X11339063Y-12863063D01*
X11339063Y-13117063D02*
X11339063Y-13044937D01*
X11266937Y-13044937D01*
X11266937Y-13117063D01*
X11339063Y-13117063D01*
X11339063Y-13371063D02*
X11339063Y-13298937D01*
X11266937Y-13298937D01*
X11266937Y-13371063D01*
X11339063Y-13371063D01*
X11339063Y-13625063D02*
X11339063Y-13552937D01*
X11266937Y-13552937D01*
X11266937Y-13625063D01*
X11339063Y-13625063D01*
X11339063Y-13879063D02*
X11339063Y-13806937D01*
X11266937Y-13806937D01*
X11266937Y-13879063D01*
X11339063Y-13879063D01*
X11339063Y-14133063D02*
X11339063Y-14060937D01*
X11266937Y-14060937D01*
X11266937Y-14133063D01*
X11339063Y-14133063D01*
X11339063Y-14387063D02*
X11339063Y-14314937D01*
X11266937Y-14314937D01*
X11266937Y-14387063D01*
X11339063Y-14387063D01*
X11339063Y-14641063D02*
X11339063Y-14568937D01*
X11266937Y-14568937D01*
X11266937Y-14641063D01*
X11339063Y-14641063D01*
X11339063Y-14895063D02*
X11339063Y-14822937D01*
X11266937Y-14822937D01*
X11266937Y-14895063D01*
X11339063Y-14895063D01*
X11339063Y-15149063D02*
X11339063Y-15076937D01*
X11266937Y-15076937D01*
X11266937Y-15149063D01*
X11339063Y-15149063D01*
X11339063Y-15403063D02*
X11339063Y-15330937D01*
X11266937Y-15330937D01*
X11266937Y-15403063D01*
X11339063Y-15403063D01*
X11339063Y-15657063D02*
X11339063Y-15584937D01*
X11266937Y-15584937D01*
X11266937Y-15657063D01*
X11339063Y-15657063D01*
X11339063Y-15911063D02*
X11339063Y-15838937D01*
X11266937Y-15838937D01*
X11266937Y-15911063D01*
X11339063Y-15911063D01*
X11339063Y-16165063D02*
X11339063Y-16092937D01*
X11266937Y-16092937D01*
X11266937Y-16165063D01*
X11339063Y-16165063D01*
X11339063Y-16419063D02*
X11339063Y-16346937D01*
X11266937Y-16346937D01*
X11266937Y-16419063D01*
X11339063Y-16419063D01*
X11339063Y-16673063D02*
X11339063Y-16600937D01*
X11266937Y-16600937D01*
X11266937Y-16673063D01*
X11339063Y-16673063D01*
X11339063Y-16927063D02*
X11339063Y-16854937D01*
X11266937Y-16854937D01*
X11266937Y-16927063D01*
X11339063Y-16927063D01*
X11339063Y-17181063D02*
X11339063Y-17108937D01*
X11266937Y-17108937D01*
X11266937Y-17181063D01*
X11339063Y-17181063D01*
X13117063Y-12355063D02*
X13117063Y-12282937D01*
X13044937Y-12282937D01*
X13044937Y-12355063D01*
X13117063Y-12355063D01*
X13117063Y-12609063D02*
X13117063Y-12536937D01*
X13044937Y-12536937D01*
X13044937Y-12609063D01*
X13117063Y-12609063D01*
X13117063Y-12863063D02*
X13117063Y-12790937D01*
X13044937Y-12790937D01*
X13044937Y-12863063D01*
X13117063Y-12863063D01*
X13117063Y-13117063D02*
X13117063Y-13044937D01*
X13044937Y-13044937D01*
X13044937Y-13117063D01*
X13117063Y-13117063D01*
X13117063Y-13371063D02*
X13117063Y-13298937D01*
X13044937Y-13298937D01*
X13044937Y-13371063D01*
X13117063Y-13371063D01*
X13117063Y-13625063D02*
X13117063Y-13552937D01*
X13044937Y-13552937D01*
X13044937Y-13625063D01*
X13117063Y-13625063D01*
X13117063Y-13879063D02*
X13117063Y-13806937D01*
X13044937Y-13806937D01*
X13044937Y-13879063D01*
X13117063Y-13879063D01*
X13117063Y-14133063D02*
X13117063Y-14060937D01*
X13044937Y-14060937D01*
X13044937Y-14133063D01*
X13117063Y-14133063D01*
X13117063Y-14387063D02*
X13117063Y-14314937D01*
X13044937Y-14314937D01*
X13044937Y-14387063D01*
X13117063Y-14387063D01*
X13117063Y-14641063D02*
X13117063Y-14568937D01*
X13044937Y-14568937D01*
X13044937Y-14641063D01*
X13117063Y-14641063D01*
X13117063Y-14895063D02*
X13117063Y-14822937D01*
X13044937Y-14822937D01*
X13044937Y-14895063D01*
X13117063Y-14895063D01*
X13117063Y-15149063D02*
X13117063Y-15076937D01*
X13044937Y-15076937D01*
X13044937Y-15149063D01*
X13117063Y-15149063D01*
X13117063Y-15403063D02*
X13117063Y-15330937D01*
X13044937Y-15330937D01*
X13044937Y-15403063D01*
X13117063Y-15403063D01*
X13117063Y-15657063D02*
X13117063Y-15584937D01*
X13044937Y-15584937D01*
X13044937Y-15657063D01*
X13117063Y-15657063D01*
X13117063Y-15911063D02*
X13117063Y-15838937D01*
X13044937Y-15838937D01*
X13044937Y-15911063D01*
X13117063Y-15911063D01*
X13117063Y-16165063D02*
X13117063Y-16092937D01*
X13044937Y-16092937D01*
X13044937Y-16165063D01*
X13117063Y-16165063D01*
X13117063Y-16419063D02*
X13117063Y-16346937D01*
X13044937Y-16346937D01*
X13044937Y-16419063D01*
X13117063Y-16419063D01*
X13117063Y-16673063D02*
X13117063Y-16600937D01*
X13044937Y-16600937D01*
X13044937Y-16673063D01*
X13117063Y-16673063D01*
X13117063Y-16927063D02*
X13117063Y-16854937D01*
X13044937Y-16854937D01*
X13044937Y-16927063D01*
X13117063Y-16927063D01*
X13117063Y-17181063D02*
X13117063Y-17108937D01*
X13044937Y-17108937D01*
X13044937Y-17181063D01*
X13117063Y-17181063D01*
D11*
X8386277Y-18093984D02*
X8386277Y-17893984D01*
X8386277Y-17893984D02*
X8433896Y-17893984D01*
X8433896Y-17893984D02*
X8462467Y-17903508D01*
X8462467Y-17903508D02*
X8481515Y-17922555D01*
X8481515Y-17922555D02*
X8491039Y-17941603D01*
X8491039Y-17941603D02*
X8500563Y-17979698D01*
X8500563Y-17979698D02*
X8500563Y-18008270D01*
X8500563Y-18008270D02*
X8491039Y-18046365D01*
X8491039Y-18046365D02*
X8481515Y-18065412D01*
X8481515Y-18065412D02*
X8462467Y-18084460D01*
X8462467Y-18084460D02*
X8433896Y-18093984D01*
X8433896Y-18093984D02*
X8386277Y-18093984D01*
X8586277Y-18093984D02*
X8586277Y-17960650D01*
X8586277Y-17998746D02*
X8595801Y-17979698D01*
X8595801Y-17979698D02*
X8605324Y-17970174D01*
X8605324Y-17970174D02*
X8624372Y-17960650D01*
X8624372Y-17960650D02*
X8643420Y-17960650D01*
X8710086Y-18093984D02*
X8710086Y-17960650D01*
X8710086Y-17893984D02*
X8700563Y-17903508D01*
X8700563Y-17903508D02*
X8710086Y-17913031D01*
X8710086Y-17913031D02*
X8719610Y-17903508D01*
X8719610Y-17903508D02*
X8710086Y-17893984D01*
X8710086Y-17893984D02*
X8710086Y-17913031D01*
X8833896Y-18093984D02*
X8814848Y-18084460D01*
X8814848Y-18084460D02*
X8805324Y-18065412D01*
X8805324Y-18065412D02*
X8805324Y-17893984D01*
X8938658Y-18093984D02*
X8919610Y-18084460D01*
X8919610Y-18084460D02*
X8910086Y-18065412D01*
X8910086Y-18065412D02*
X8910086Y-17893984D01*
X9167229Y-18093984D02*
X9167229Y-17893984D01*
X9167229Y-17893984D02*
X9233896Y-18036841D01*
X9233896Y-18036841D02*
X9300563Y-17893984D01*
X9300563Y-17893984D02*
X9300563Y-18093984D01*
X9481515Y-18093984D02*
X9481515Y-17989222D01*
X9481515Y-17989222D02*
X9471991Y-17970174D01*
X9471991Y-17970174D02*
X9452944Y-17960650D01*
X9452944Y-17960650D02*
X9414848Y-17960650D01*
X9414848Y-17960650D02*
X9395801Y-17970174D01*
X9481515Y-18084460D02*
X9462467Y-18093984D01*
X9462467Y-18093984D02*
X9414848Y-18093984D01*
X9414848Y-18093984D02*
X9395801Y-18084460D01*
X9395801Y-18084460D02*
X9386277Y-18065412D01*
X9386277Y-18065412D02*
X9386277Y-18046365D01*
X9386277Y-18046365D02*
X9395801Y-18027317D01*
X9395801Y-18027317D02*
X9414848Y-18017793D01*
X9414848Y-18017793D02*
X9462467Y-18017793D01*
X9462467Y-18017793D02*
X9481515Y-18008270D01*
X9576753Y-17960650D02*
X9576753Y-18160650D01*
X9576753Y-17970174D02*
X9595801Y-17960650D01*
X9595801Y-17960650D02*
X9633896Y-17960650D01*
X9633896Y-17960650D02*
X9652944Y-17970174D01*
X9652944Y-17970174D02*
X9662467Y-17979698D01*
X9662467Y-17979698D02*
X9671991Y-17998746D01*
X9671991Y-17998746D02*
X9671991Y-18055889D01*
X9671991Y-18055889D02*
X9662467Y-18074936D01*
X9662467Y-18074936D02*
X9652944Y-18084460D01*
X9652944Y-18084460D02*
X9633896Y-18093984D01*
X9633896Y-18093984D02*
X9595801Y-18093984D01*
X9595801Y-18093984D02*
X9576753Y-18084460D01*
X9757705Y-18074936D02*
X9767229Y-18084460D01*
X9767229Y-18084460D02*
X9757705Y-18093984D01*
X9757705Y-18093984D02*
X9748182Y-18084460D01*
X9748182Y-18084460D02*
X9757705Y-18074936D01*
X9757705Y-18074936D02*
X9757705Y-18093984D01*
X9757705Y-17970174D02*
X9767229Y-17979698D01*
X9767229Y-17979698D02*
X9757705Y-17989222D01*
X9757705Y-17989222D02*
X9748182Y-17979698D01*
X9748182Y-17979698D02*
X9757705Y-17970174D01*
X9757705Y-17970174D02*
X9757705Y-17989222D01*
D12*
X8095500Y-18407500D02*
X8125500Y-18437500D01*
X8125500Y-18407500D02*
X8095500Y-18437500D01*
D11*
X8424372Y-18313984D02*
X8443420Y-18313984D01*
X8443420Y-18313984D02*
X8462467Y-18323508D01*
X8462467Y-18323508D02*
X8471991Y-18333031D01*
X8471991Y-18333031D02*
X8481515Y-18352079D01*
X8481515Y-18352079D02*
X8491039Y-18390174D01*
X8491039Y-18390174D02*
X8491039Y-18437793D01*
X8491039Y-18437793D02*
X8481515Y-18475889D01*
X8481515Y-18475889D02*
X8471991Y-18494936D01*
X8471991Y-18494936D02*
X8462467Y-18504460D01*
X8462467Y-18504460D02*
X8443420Y-18513984D01*
X8443420Y-18513984D02*
X8424372Y-18513984D01*
X8424372Y-18513984D02*
X8405324Y-18504460D01*
X8405324Y-18504460D02*
X8395801Y-18494936D01*
X8395801Y-18494936D02*
X8386277Y-18475889D01*
X8386277Y-18475889D02*
X8376753Y-18437793D01*
X8376753Y-18437793D02*
X8376753Y-18390174D01*
X8376753Y-18390174D02*
X8386277Y-18352079D01*
X8386277Y-18352079D02*
X8395801Y-18333031D01*
X8395801Y-18333031D02*
X8405324Y-18323508D01*
X8405324Y-18323508D02*
X8424372Y-18313984D01*
X8576753Y-18494936D02*
X8586277Y-18504460D01*
X8586277Y-18504460D02*
X8576753Y-18513984D01*
X8576753Y-18513984D02*
X8567229Y-18504460D01*
X8567229Y-18504460D02*
X8576753Y-18494936D01*
X8576753Y-18494936D02*
X8576753Y-18513984D01*
X8652944Y-18313984D02*
X8776753Y-18313984D01*
X8776753Y-18313984D02*
X8710086Y-18390174D01*
X8710086Y-18390174D02*
X8738658Y-18390174D01*
X8738658Y-18390174D02*
X8757705Y-18399698D01*
X8757705Y-18399698D02*
X8767229Y-18409222D01*
X8767229Y-18409222D02*
X8776753Y-18428270D01*
X8776753Y-18428270D02*
X8776753Y-18475889D01*
X8776753Y-18475889D02*
X8767229Y-18494936D01*
X8767229Y-18494936D02*
X8757705Y-18504460D01*
X8757705Y-18504460D02*
X8738658Y-18513984D01*
X8738658Y-18513984D02*
X8681515Y-18513984D01*
X8681515Y-18513984D02*
X8662467Y-18504460D01*
X8662467Y-18504460D02*
X8652944Y-18494936D01*
X8900563Y-18313984D02*
X8919610Y-18313984D01*
X8919610Y-18313984D02*
X8938658Y-18323508D01*
X8938658Y-18323508D02*
X8948182Y-18333031D01*
X8948182Y-18333031D02*
X8957705Y-18352079D01*
X8957705Y-18352079D02*
X8967229Y-18390174D01*
X8967229Y-18390174D02*
X8967229Y-18437793D01*
X8967229Y-18437793D02*
X8957705Y-18475889D01*
X8957705Y-18475889D02*
X8948182Y-18494936D01*
X8948182Y-18494936D02*
X8938658Y-18504460D01*
X8938658Y-18504460D02*
X8919610Y-18513984D01*
X8919610Y-18513984D02*
X8900563Y-18513984D01*
X8900563Y-18513984D02*
X8881515Y-18504460D01*
X8881515Y-18504460D02*
X8871991Y-18494936D01*
X8871991Y-18494936D02*
X8862467Y-18475889D01*
X8862467Y-18475889D02*
X8852944Y-18437793D01*
X8852944Y-18437793D02*
X8852944Y-18390174D01*
X8852944Y-18390174D02*
X8862467Y-18352079D01*
X8862467Y-18352079D02*
X8871991Y-18333031D01*
X8871991Y-18333031D02*
X8881515Y-18323508D01*
X8881515Y-18323508D02*
X8900563Y-18313984D01*
X9091039Y-18313984D02*
X9110086Y-18313984D01*
X9110086Y-18313984D02*
X9129134Y-18323508D01*
X9129134Y-18323508D02*
X9138658Y-18333031D01*
X9138658Y-18333031D02*
X9148182Y-18352079D01*
X9148182Y-18352079D02*
X9157705Y-18390174D01*
X9157705Y-18390174D02*
X9157705Y-18437793D01*
X9157705Y-18437793D02*
X9148182Y-18475889D01*
X9148182Y-18475889D02*
X9138658Y-18494936D01*
X9138658Y-18494936D02*
X9129134Y-18504460D01*
X9129134Y-18504460D02*
X9110086Y-18513984D01*
X9110086Y-18513984D02*
X9091039Y-18513984D01*
X9091039Y-18513984D02*
X9071991Y-18504460D01*
X9071991Y-18504460D02*
X9062467Y-18494936D01*
X9062467Y-18494936D02*
X9052944Y-18475889D01*
X9052944Y-18475889D02*
X9043420Y-18437793D01*
X9043420Y-18437793D02*
X9043420Y-18390174D01*
X9043420Y-18390174D02*
X9052944Y-18352079D01*
X9052944Y-18352079D02*
X9062467Y-18333031D01*
X9062467Y-18333031D02*
X9071991Y-18323508D01*
X9071991Y-18323508D02*
X9091039Y-18313984D01*
X9243420Y-18513984D02*
X9243420Y-18380650D01*
X9243420Y-18399698D02*
X9252944Y-18390174D01*
X9252944Y-18390174D02*
X9271991Y-18380650D01*
X9271991Y-18380650D02*
X9300563Y-18380650D01*
X9300563Y-18380650D02*
X9319610Y-18390174D01*
X9319610Y-18390174D02*
X9329134Y-18409222D01*
X9329134Y-18409222D02*
X9329134Y-18513984D01*
X9329134Y-18409222D02*
X9338658Y-18390174D01*
X9338658Y-18390174D02*
X9357705Y-18380650D01*
X9357705Y-18380650D02*
X9386277Y-18380650D01*
X9386277Y-18380650D02*
X9405325Y-18390174D01*
X9405325Y-18390174D02*
X9414848Y-18409222D01*
X9414848Y-18409222D02*
X9414848Y-18513984D01*
X9510086Y-18513984D02*
X9510086Y-18380650D01*
X9510086Y-18399698D02*
X9519610Y-18390174D01*
X9519610Y-18390174D02*
X9538658Y-18380650D01*
X9538658Y-18380650D02*
X9567229Y-18380650D01*
X9567229Y-18380650D02*
X9586277Y-18390174D01*
X9586277Y-18390174D02*
X9595801Y-18409222D01*
X9595801Y-18409222D02*
X9595801Y-18513984D01*
X9595801Y-18409222D02*
X9605325Y-18390174D01*
X9605325Y-18390174D02*
X9624372Y-18380650D01*
X9624372Y-18380650D02*
X9652944Y-18380650D01*
X9652944Y-18380650D02*
X9671991Y-18390174D01*
X9671991Y-18390174D02*
X9681515Y-18409222D01*
X9681515Y-18409222D02*
X9681515Y-18513984D01*
X10071991Y-18304460D02*
X9900563Y-18561603D01*
X10329134Y-18313984D02*
X10348182Y-18313984D01*
X10348182Y-18313984D02*
X10367229Y-18323508D01*
X10367229Y-18323508D02*
X10376753Y-18333031D01*
X10376753Y-18333031D02*
X10386277Y-18352079D01*
X10386277Y-18352079D02*
X10395801Y-18390174D01*
X10395801Y-18390174D02*
X10395801Y-18437793D01*
X10395801Y-18437793D02*
X10386277Y-18475889D01*
X10386277Y-18475889D02*
X10376753Y-18494936D01*
X10376753Y-18494936D02*
X10367229Y-18504460D01*
X10367229Y-18504460D02*
X10348182Y-18513984D01*
X10348182Y-18513984D02*
X10329134Y-18513984D01*
X10329134Y-18513984D02*
X10310087Y-18504460D01*
X10310087Y-18504460D02*
X10300563Y-18494936D01*
X10300563Y-18494936D02*
X10291039Y-18475889D01*
X10291039Y-18475889D02*
X10281515Y-18437793D01*
X10281515Y-18437793D02*
X10281515Y-18390174D01*
X10281515Y-18390174D02*
X10291039Y-18352079D01*
X10291039Y-18352079D02*
X10300563Y-18333031D01*
X10300563Y-18333031D02*
X10310087Y-18323508D01*
X10310087Y-18323508D02*
X10329134Y-18313984D01*
X10481515Y-18494936D02*
X10491039Y-18504460D01*
X10491039Y-18504460D02*
X10481515Y-18513984D01*
X10481515Y-18513984D02*
X10471991Y-18504460D01*
X10471991Y-18504460D02*
X10481515Y-18494936D01*
X10481515Y-18494936D02*
X10481515Y-18513984D01*
X10614848Y-18313984D02*
X10633896Y-18313984D01*
X10633896Y-18313984D02*
X10652944Y-18323508D01*
X10652944Y-18323508D02*
X10662468Y-18333031D01*
X10662468Y-18333031D02*
X10671991Y-18352079D01*
X10671991Y-18352079D02*
X10681515Y-18390174D01*
X10681515Y-18390174D02*
X10681515Y-18437793D01*
X10681515Y-18437793D02*
X10671991Y-18475889D01*
X10671991Y-18475889D02*
X10662468Y-18494936D01*
X10662468Y-18494936D02*
X10652944Y-18504460D01*
X10652944Y-18504460D02*
X10633896Y-18513984D01*
X10633896Y-18513984D02*
X10614848Y-18513984D01*
X10614848Y-18513984D02*
X10595801Y-18504460D01*
X10595801Y-18504460D02*
X10586277Y-18494936D01*
X10586277Y-18494936D02*
X10576753Y-18475889D01*
X10576753Y-18475889D02*
X10567229Y-18437793D01*
X10567229Y-18437793D02*
X10567229Y-18390174D01*
X10567229Y-18390174D02*
X10576753Y-18352079D01*
X10576753Y-18352079D02*
X10586277Y-18333031D01*
X10586277Y-18333031D02*
X10595801Y-18323508D01*
X10595801Y-18323508D02*
X10614848Y-18313984D01*
X10871991Y-18513984D02*
X10757706Y-18513984D01*
X10814848Y-18513984D02*
X10814848Y-18313984D01*
X10814848Y-18313984D02*
X10795801Y-18342555D01*
X10795801Y-18342555D02*
X10776753Y-18361603D01*
X10776753Y-18361603D02*
X10757706Y-18371127D01*
X11062468Y-18513984D02*
X10948182Y-18513984D01*
X11005325Y-18513984D02*
X11005325Y-18313984D01*
X11005325Y-18313984D02*
X10986277Y-18342555D01*
X10986277Y-18342555D02*
X10967229Y-18361603D01*
X10967229Y-18361603D02*
X10948182Y-18371127D01*
X11176753Y-18399698D02*
X11157706Y-18390174D01*
X11157706Y-18390174D02*
X11148182Y-18380650D01*
X11148182Y-18380650D02*
X11138658Y-18361603D01*
X11138658Y-18361603D02*
X11138658Y-18352079D01*
X11138658Y-18352079D02*
X11148182Y-18333031D01*
X11148182Y-18333031D02*
X11157706Y-18323508D01*
X11157706Y-18323508D02*
X11176753Y-18313984D01*
X11176753Y-18313984D02*
X11214848Y-18313984D01*
X11214848Y-18313984D02*
X11233896Y-18323508D01*
X11233896Y-18323508D02*
X11243420Y-18333031D01*
X11243420Y-18333031D02*
X11252944Y-18352079D01*
X11252944Y-18352079D02*
X11252944Y-18361603D01*
X11252944Y-18361603D02*
X11243420Y-18380650D01*
X11243420Y-18380650D02*
X11233896Y-18390174D01*
X11233896Y-18390174D02*
X11214848Y-18399698D01*
X11214848Y-18399698D02*
X11176753Y-18399698D01*
X11176753Y-18399698D02*
X11157706Y-18409222D01*
X11157706Y-18409222D02*
X11148182Y-18418746D01*
X11148182Y-18418746D02*
X11138658Y-18437793D01*
X11138658Y-18437793D02*
X11138658Y-18475889D01*
X11138658Y-18475889D02*
X11148182Y-18494936D01*
X11148182Y-18494936D02*
X11157706Y-18504460D01*
X11157706Y-18504460D02*
X11176753Y-18513984D01*
X11176753Y-18513984D02*
X11214848Y-18513984D01*
X11214848Y-18513984D02*
X11233896Y-18504460D01*
X11233896Y-18504460D02*
X11243420Y-18494936D01*
X11243420Y-18494936D02*
X11252944Y-18475889D01*
X11252944Y-18475889D02*
X11252944Y-18437793D01*
X11252944Y-18437793D02*
X11243420Y-18418746D01*
X11243420Y-18418746D02*
X11233896Y-18409222D01*
X11233896Y-18409222D02*
X11214848Y-18399698D01*
X11329134Y-18313984D02*
X11329134Y-18352079D01*
X11405325Y-18313984D02*
X11405325Y-18352079D01*
X11700563Y-18590174D02*
X11691039Y-18580650D01*
X11691039Y-18580650D02*
X11671991Y-18552079D01*
X11671991Y-18552079D02*
X11662468Y-18533031D01*
X11662468Y-18533031D02*
X11652944Y-18504460D01*
X11652944Y-18504460D02*
X11643420Y-18456841D01*
X11643420Y-18456841D02*
X11643420Y-18418746D01*
X11643420Y-18418746D02*
X11652944Y-18371127D01*
X11652944Y-18371127D02*
X11662468Y-18342555D01*
X11662468Y-18342555D02*
X11671991Y-18323508D01*
X11671991Y-18323508D02*
X11691039Y-18294936D01*
X11691039Y-18294936D02*
X11700563Y-18285412D01*
X11881515Y-18513984D02*
X11767229Y-18513984D01*
X11824372Y-18513984D02*
X11824372Y-18313984D01*
X11824372Y-18313984D02*
X11805325Y-18342555D01*
X11805325Y-18342555D02*
X11786277Y-18361603D01*
X11786277Y-18361603D02*
X11767229Y-18371127D01*
X12062468Y-18313984D02*
X11967229Y-18313984D01*
X11967229Y-18313984D02*
X11957706Y-18409222D01*
X11957706Y-18409222D02*
X11967229Y-18399698D01*
X11967229Y-18399698D02*
X11986277Y-18390174D01*
X11986277Y-18390174D02*
X12033896Y-18390174D01*
X12033896Y-18390174D02*
X12052944Y-18399698D01*
X12052944Y-18399698D02*
X12062468Y-18409222D01*
X12062468Y-18409222D02*
X12071991Y-18428270D01*
X12071991Y-18428270D02*
X12071991Y-18475889D01*
X12071991Y-18475889D02*
X12062468Y-18494936D01*
X12062468Y-18494936D02*
X12052944Y-18504460D01*
X12052944Y-18504460D02*
X12033896Y-18513984D01*
X12033896Y-18513984D02*
X11986277Y-18513984D01*
X11986277Y-18513984D02*
X11967229Y-18504460D01*
X11967229Y-18504460D02*
X11957706Y-18494936D01*
X12310087Y-18513984D02*
X12310087Y-18313984D01*
X12395801Y-18513984D02*
X12395801Y-18409222D01*
X12395801Y-18409222D02*
X12386277Y-18390174D01*
X12386277Y-18390174D02*
X12367230Y-18380650D01*
X12367230Y-18380650D02*
X12338658Y-18380650D01*
X12338658Y-18380650D02*
X12319610Y-18390174D01*
X12319610Y-18390174D02*
X12310087Y-18399698D01*
X12519610Y-18513984D02*
X12500563Y-18504460D01*
X12500563Y-18504460D02*
X12491039Y-18494936D01*
X12491039Y-18494936D02*
X12481515Y-18475889D01*
X12481515Y-18475889D02*
X12481515Y-18418746D01*
X12481515Y-18418746D02*
X12491039Y-18399698D01*
X12491039Y-18399698D02*
X12500563Y-18390174D01*
X12500563Y-18390174D02*
X12519610Y-18380650D01*
X12519610Y-18380650D02*
X12548182Y-18380650D01*
X12548182Y-18380650D02*
X12567230Y-18390174D01*
X12567230Y-18390174D02*
X12576753Y-18399698D01*
X12576753Y-18399698D02*
X12586277Y-18418746D01*
X12586277Y-18418746D02*
X12586277Y-18475889D01*
X12586277Y-18475889D02*
X12576753Y-18494936D01*
X12576753Y-18494936D02*
X12567230Y-18504460D01*
X12567230Y-18504460D02*
X12548182Y-18513984D01*
X12548182Y-18513984D02*
X12519610Y-18513984D01*
X12700563Y-18513984D02*
X12681515Y-18504460D01*
X12681515Y-18504460D02*
X12671991Y-18485412D01*
X12671991Y-18485412D02*
X12671991Y-18313984D01*
X12852944Y-18504460D02*
X12833896Y-18513984D01*
X12833896Y-18513984D02*
X12795801Y-18513984D01*
X12795801Y-18513984D02*
X12776753Y-18504460D01*
X12776753Y-18504460D02*
X12767230Y-18485412D01*
X12767230Y-18485412D02*
X12767230Y-18409222D01*
X12767230Y-18409222D02*
X12776753Y-18390174D01*
X12776753Y-18390174D02*
X12795801Y-18380650D01*
X12795801Y-18380650D02*
X12833896Y-18380650D01*
X12833896Y-18380650D02*
X12852944Y-18390174D01*
X12852944Y-18390174D02*
X12862468Y-18409222D01*
X12862468Y-18409222D02*
X12862468Y-18428270D01*
X12862468Y-18428270D02*
X12767230Y-18447317D01*
X12938658Y-18504460D02*
X12957706Y-18513984D01*
X12957706Y-18513984D02*
X12995801Y-18513984D01*
X12995801Y-18513984D02*
X13014849Y-18504460D01*
X13014849Y-18504460D02*
X13024372Y-18485412D01*
X13024372Y-18485412D02*
X13024372Y-18475889D01*
X13024372Y-18475889D02*
X13014849Y-18456841D01*
X13014849Y-18456841D02*
X12995801Y-18447317D01*
X12995801Y-18447317D02*
X12967230Y-18447317D01*
X12967230Y-18447317D02*
X12948182Y-18437793D01*
X12948182Y-18437793D02*
X12938658Y-18418746D01*
X12938658Y-18418746D02*
X12938658Y-18409222D01*
X12938658Y-18409222D02*
X12948182Y-18390174D01*
X12948182Y-18390174D02*
X12967230Y-18380650D01*
X12967230Y-18380650D02*
X12995801Y-18380650D01*
X12995801Y-18380650D02*
X13014849Y-18390174D01*
X13091039Y-18590174D02*
X13100563Y-18580650D01*
X13100563Y-18580650D02*
X13119611Y-18552079D01*
X13119611Y-18552079D02*
X13129134Y-18533031D01*
X13129134Y-18533031D02*
X13138658Y-18504460D01*
X13138658Y-18504460D02*
X13148182Y-18456841D01*
X13148182Y-18456841D02*
X13148182Y-18418746D01*
X13148182Y-18418746D02*
X13138658Y-18371127D01*
X13138658Y-18371127D02*
X13129134Y-18342555D01*
X13129134Y-18342555D02*
X13119611Y-18323508D01*
X13119611Y-18323508D02*
X13100563Y-18294936D01*
X13100563Y-18294936D02*
X13091039Y-18285412D01*
D12*
X8125500Y-18686500D02*
G75*
G02*
X8045500Y-18686500I-40000J0D01*
G01*
X8045500Y-18686500D02*
G75*
G02*
X8125500Y-18686500I40000J0D01*
G01*
D11*
X8424372Y-18577984D02*
X8443420Y-18577984D01*
X8443420Y-18577984D02*
X8462467Y-18587508D01*
X8462467Y-18587508D02*
X8471991Y-18597031D01*
X8471991Y-18597031D02*
X8481515Y-18616079D01*
X8481515Y-18616079D02*
X8491039Y-18654174D01*
X8491039Y-18654174D02*
X8491039Y-18701793D01*
X8491039Y-18701793D02*
X8481515Y-18739889D01*
X8481515Y-18739889D02*
X8471991Y-18758936D01*
X8471991Y-18758936D02*
X8462467Y-18768460D01*
X8462467Y-18768460D02*
X8443420Y-18777984D01*
X8443420Y-18777984D02*
X8424372Y-18777984D01*
X8424372Y-18777984D02*
X8405324Y-18768460D01*
X8405324Y-18768460D02*
X8395801Y-18758936D01*
X8395801Y-18758936D02*
X8386277Y-18739889D01*
X8386277Y-18739889D02*
X8376753Y-18701793D01*
X8376753Y-18701793D02*
X8376753Y-18654174D01*
X8376753Y-18654174D02*
X8386277Y-18616079D01*
X8386277Y-18616079D02*
X8395801Y-18597031D01*
X8395801Y-18597031D02*
X8405324Y-18587508D01*
X8405324Y-18587508D02*
X8424372Y-18577984D01*
X8576753Y-18758936D02*
X8586277Y-18768460D01*
X8586277Y-18768460D02*
X8576753Y-18777984D01*
X8576753Y-18777984D02*
X8567229Y-18768460D01*
X8567229Y-18768460D02*
X8576753Y-18758936D01*
X8576753Y-18758936D02*
X8576753Y-18777984D01*
X8700563Y-18663698D02*
X8681515Y-18654174D01*
X8681515Y-18654174D02*
X8671991Y-18644650D01*
X8671991Y-18644650D02*
X8662467Y-18625603D01*
X8662467Y-18625603D02*
X8662467Y-18616079D01*
X8662467Y-18616079D02*
X8671991Y-18597031D01*
X8671991Y-18597031D02*
X8681515Y-18587508D01*
X8681515Y-18587508D02*
X8700563Y-18577984D01*
X8700563Y-18577984D02*
X8738658Y-18577984D01*
X8738658Y-18577984D02*
X8757705Y-18587508D01*
X8757705Y-18587508D02*
X8767229Y-18597031D01*
X8767229Y-18597031D02*
X8776753Y-18616079D01*
X8776753Y-18616079D02*
X8776753Y-18625603D01*
X8776753Y-18625603D02*
X8767229Y-18644650D01*
X8767229Y-18644650D02*
X8757705Y-18654174D01*
X8757705Y-18654174D02*
X8738658Y-18663698D01*
X8738658Y-18663698D02*
X8700563Y-18663698D01*
X8700563Y-18663698D02*
X8681515Y-18673222D01*
X8681515Y-18673222D02*
X8671991Y-18682746D01*
X8671991Y-18682746D02*
X8662467Y-18701793D01*
X8662467Y-18701793D02*
X8662467Y-18739889D01*
X8662467Y-18739889D02*
X8671991Y-18758936D01*
X8671991Y-18758936D02*
X8681515Y-18768460D01*
X8681515Y-18768460D02*
X8700563Y-18777984D01*
X8700563Y-18777984D02*
X8738658Y-18777984D01*
X8738658Y-18777984D02*
X8757705Y-18768460D01*
X8757705Y-18768460D02*
X8767229Y-18758936D01*
X8767229Y-18758936D02*
X8776753Y-18739889D01*
X8776753Y-18739889D02*
X8776753Y-18701793D01*
X8776753Y-18701793D02*
X8767229Y-18682746D01*
X8767229Y-18682746D02*
X8757705Y-18673222D01*
X8757705Y-18673222D02*
X8738658Y-18663698D01*
X8900563Y-18577984D02*
X8919610Y-18577984D01*
X8919610Y-18577984D02*
X8938658Y-18587508D01*
X8938658Y-18587508D02*
X8948182Y-18597031D01*
X8948182Y-18597031D02*
X8957705Y-18616079D01*
X8957705Y-18616079D02*
X8967229Y-18654174D01*
X8967229Y-18654174D02*
X8967229Y-18701793D01*
X8967229Y-18701793D02*
X8957705Y-18739889D01*
X8957705Y-18739889D02*
X8948182Y-18758936D01*
X8948182Y-18758936D02*
X8938658Y-18768460D01*
X8938658Y-18768460D02*
X8919610Y-18777984D01*
X8919610Y-18777984D02*
X8900563Y-18777984D01*
X8900563Y-18777984D02*
X8881515Y-18768460D01*
X8881515Y-18768460D02*
X8871991Y-18758936D01*
X8871991Y-18758936D02*
X8862467Y-18739889D01*
X8862467Y-18739889D02*
X8852944Y-18701793D01*
X8852944Y-18701793D02*
X8852944Y-18654174D01*
X8852944Y-18654174D02*
X8862467Y-18616079D01*
X8862467Y-18616079D02*
X8871991Y-18597031D01*
X8871991Y-18597031D02*
X8881515Y-18587508D01*
X8881515Y-18587508D02*
X8900563Y-18577984D01*
X9091039Y-18577984D02*
X9110086Y-18577984D01*
X9110086Y-18577984D02*
X9129134Y-18587508D01*
X9129134Y-18587508D02*
X9138658Y-18597031D01*
X9138658Y-18597031D02*
X9148182Y-18616079D01*
X9148182Y-18616079D02*
X9157705Y-18654174D01*
X9157705Y-18654174D02*
X9157705Y-18701793D01*
X9157705Y-18701793D02*
X9148182Y-18739889D01*
X9148182Y-18739889D02*
X9138658Y-18758936D01*
X9138658Y-18758936D02*
X9129134Y-18768460D01*
X9129134Y-18768460D02*
X9110086Y-18777984D01*
X9110086Y-18777984D02*
X9091039Y-18777984D01*
X9091039Y-18777984D02*
X9071991Y-18768460D01*
X9071991Y-18768460D02*
X9062467Y-18758936D01*
X9062467Y-18758936D02*
X9052944Y-18739889D01*
X9052944Y-18739889D02*
X9043420Y-18701793D01*
X9043420Y-18701793D02*
X9043420Y-18654174D01*
X9043420Y-18654174D02*
X9052944Y-18616079D01*
X9052944Y-18616079D02*
X9062467Y-18597031D01*
X9062467Y-18597031D02*
X9071991Y-18587508D01*
X9071991Y-18587508D02*
X9091039Y-18577984D01*
X9243420Y-18777984D02*
X9243420Y-18644650D01*
X9243420Y-18663698D02*
X9252944Y-18654174D01*
X9252944Y-18654174D02*
X9271991Y-18644650D01*
X9271991Y-18644650D02*
X9300563Y-18644650D01*
X9300563Y-18644650D02*
X9319610Y-18654174D01*
X9319610Y-18654174D02*
X9329134Y-18673222D01*
X9329134Y-18673222D02*
X9329134Y-18777984D01*
X9329134Y-18673222D02*
X9338658Y-18654174D01*
X9338658Y-18654174D02*
X9357705Y-18644650D01*
X9357705Y-18644650D02*
X9386277Y-18644650D01*
X9386277Y-18644650D02*
X9405325Y-18654174D01*
X9405325Y-18654174D02*
X9414848Y-18673222D01*
X9414848Y-18673222D02*
X9414848Y-18777984D01*
X9510086Y-18777984D02*
X9510086Y-18644650D01*
X9510086Y-18663698D02*
X9519610Y-18654174D01*
X9519610Y-18654174D02*
X9538658Y-18644650D01*
X9538658Y-18644650D02*
X9567229Y-18644650D01*
X9567229Y-18644650D02*
X9586277Y-18654174D01*
X9586277Y-18654174D02*
X9595801Y-18673222D01*
X9595801Y-18673222D02*
X9595801Y-18777984D01*
X9595801Y-18673222D02*
X9605325Y-18654174D01*
X9605325Y-18654174D02*
X9624372Y-18644650D01*
X9624372Y-18644650D02*
X9652944Y-18644650D01*
X9652944Y-18644650D02*
X9671991Y-18654174D01*
X9671991Y-18654174D02*
X9681515Y-18673222D01*
X9681515Y-18673222D02*
X9681515Y-18777984D01*
X10071991Y-18568460D02*
X9900563Y-18825603D01*
X10329134Y-18577984D02*
X10348182Y-18577984D01*
X10348182Y-18577984D02*
X10367229Y-18587508D01*
X10367229Y-18587508D02*
X10376753Y-18597031D01*
X10376753Y-18597031D02*
X10386277Y-18616079D01*
X10386277Y-18616079D02*
X10395801Y-18654174D01*
X10395801Y-18654174D02*
X10395801Y-18701793D01*
X10395801Y-18701793D02*
X10386277Y-18739889D01*
X10386277Y-18739889D02*
X10376753Y-18758936D01*
X10376753Y-18758936D02*
X10367229Y-18768460D01*
X10367229Y-18768460D02*
X10348182Y-18777984D01*
X10348182Y-18777984D02*
X10329134Y-18777984D01*
X10329134Y-18777984D02*
X10310087Y-18768460D01*
X10310087Y-18768460D02*
X10300563Y-18758936D01*
X10300563Y-18758936D02*
X10291039Y-18739889D01*
X10291039Y-18739889D02*
X10281515Y-18701793D01*
X10281515Y-18701793D02*
X10281515Y-18654174D01*
X10281515Y-18654174D02*
X10291039Y-18616079D01*
X10291039Y-18616079D02*
X10300563Y-18597031D01*
X10300563Y-18597031D02*
X10310087Y-18587508D01*
X10310087Y-18587508D02*
X10329134Y-18577984D01*
X10481515Y-18758936D02*
X10491039Y-18768460D01*
X10491039Y-18768460D02*
X10481515Y-18777984D01*
X10481515Y-18777984D02*
X10471991Y-18768460D01*
X10471991Y-18768460D02*
X10481515Y-18758936D01*
X10481515Y-18758936D02*
X10481515Y-18777984D01*
X10614848Y-18577984D02*
X10633896Y-18577984D01*
X10633896Y-18577984D02*
X10652944Y-18587508D01*
X10652944Y-18587508D02*
X10662468Y-18597031D01*
X10662468Y-18597031D02*
X10671991Y-18616079D01*
X10671991Y-18616079D02*
X10681515Y-18654174D01*
X10681515Y-18654174D02*
X10681515Y-18701793D01*
X10681515Y-18701793D02*
X10671991Y-18739889D01*
X10671991Y-18739889D02*
X10662468Y-18758936D01*
X10662468Y-18758936D02*
X10652944Y-18768460D01*
X10652944Y-18768460D02*
X10633896Y-18777984D01*
X10633896Y-18777984D02*
X10614848Y-18777984D01*
X10614848Y-18777984D02*
X10595801Y-18768460D01*
X10595801Y-18768460D02*
X10586277Y-18758936D01*
X10586277Y-18758936D02*
X10576753Y-18739889D01*
X10576753Y-18739889D02*
X10567229Y-18701793D01*
X10567229Y-18701793D02*
X10567229Y-18654174D01*
X10567229Y-18654174D02*
X10576753Y-18616079D01*
X10576753Y-18616079D02*
X10586277Y-18597031D01*
X10586277Y-18597031D02*
X10595801Y-18587508D01*
X10595801Y-18587508D02*
X10614848Y-18577984D01*
X10748182Y-18577984D02*
X10871991Y-18577984D01*
X10871991Y-18577984D02*
X10805325Y-18654174D01*
X10805325Y-18654174D02*
X10833896Y-18654174D01*
X10833896Y-18654174D02*
X10852944Y-18663698D01*
X10852944Y-18663698D02*
X10862468Y-18673222D01*
X10862468Y-18673222D02*
X10871991Y-18692270D01*
X10871991Y-18692270D02*
X10871991Y-18739889D01*
X10871991Y-18739889D02*
X10862468Y-18758936D01*
X10862468Y-18758936D02*
X10852944Y-18768460D01*
X10852944Y-18768460D02*
X10833896Y-18777984D01*
X10833896Y-18777984D02*
X10776753Y-18777984D01*
X10776753Y-18777984D02*
X10757706Y-18768460D01*
X10757706Y-18768460D02*
X10748182Y-18758936D01*
X11062468Y-18777984D02*
X10948182Y-18777984D01*
X11005325Y-18777984D02*
X11005325Y-18577984D01*
X11005325Y-18577984D02*
X10986277Y-18606555D01*
X10986277Y-18606555D02*
X10967229Y-18625603D01*
X10967229Y-18625603D02*
X10948182Y-18635127D01*
X11243420Y-18577984D02*
X11148182Y-18577984D01*
X11148182Y-18577984D02*
X11138658Y-18673222D01*
X11138658Y-18673222D02*
X11148182Y-18663698D01*
X11148182Y-18663698D02*
X11167229Y-18654174D01*
X11167229Y-18654174D02*
X11214848Y-18654174D01*
X11214848Y-18654174D02*
X11233896Y-18663698D01*
X11233896Y-18663698D02*
X11243420Y-18673222D01*
X11243420Y-18673222D02*
X11252944Y-18692270D01*
X11252944Y-18692270D02*
X11252944Y-18739889D01*
X11252944Y-18739889D02*
X11243420Y-18758936D01*
X11243420Y-18758936D02*
X11233896Y-18768460D01*
X11233896Y-18768460D02*
X11214848Y-18777984D01*
X11214848Y-18777984D02*
X11167229Y-18777984D01*
X11167229Y-18777984D02*
X11148182Y-18768460D01*
X11148182Y-18768460D02*
X11138658Y-18758936D01*
X11329134Y-18577984D02*
X11329134Y-18616079D01*
X11405325Y-18577984D02*
X11405325Y-18616079D01*
X11700563Y-18854174D02*
X11691039Y-18844650D01*
X11691039Y-18844650D02*
X11671991Y-18816079D01*
X11671991Y-18816079D02*
X11662468Y-18797031D01*
X11662468Y-18797031D02*
X11652944Y-18768460D01*
X11652944Y-18768460D02*
X11643420Y-18720841D01*
X11643420Y-18720841D02*
X11643420Y-18682746D01*
X11643420Y-18682746D02*
X11652944Y-18635127D01*
X11652944Y-18635127D02*
X11662468Y-18606555D01*
X11662468Y-18606555D02*
X11671991Y-18587508D01*
X11671991Y-18587508D02*
X11691039Y-18558936D01*
X11691039Y-18558936D02*
X11700563Y-18549412D01*
X11805325Y-18663698D02*
X11786277Y-18654174D01*
X11786277Y-18654174D02*
X11776753Y-18644650D01*
X11776753Y-18644650D02*
X11767229Y-18625603D01*
X11767229Y-18625603D02*
X11767229Y-18616079D01*
X11767229Y-18616079D02*
X11776753Y-18597031D01*
X11776753Y-18597031D02*
X11786277Y-18587508D01*
X11786277Y-18587508D02*
X11805325Y-18577984D01*
X11805325Y-18577984D02*
X11843420Y-18577984D01*
X11843420Y-18577984D02*
X11862468Y-18587508D01*
X11862468Y-18587508D02*
X11871991Y-18597031D01*
X11871991Y-18597031D02*
X11881515Y-18616079D01*
X11881515Y-18616079D02*
X11881515Y-18625603D01*
X11881515Y-18625603D02*
X11871991Y-18644650D01*
X11871991Y-18644650D02*
X11862468Y-18654174D01*
X11862468Y-18654174D02*
X11843420Y-18663698D01*
X11843420Y-18663698D02*
X11805325Y-18663698D01*
X11805325Y-18663698D02*
X11786277Y-18673222D01*
X11786277Y-18673222D02*
X11776753Y-18682746D01*
X11776753Y-18682746D02*
X11767229Y-18701793D01*
X11767229Y-18701793D02*
X11767229Y-18739889D01*
X11767229Y-18739889D02*
X11776753Y-18758936D01*
X11776753Y-18758936D02*
X11786277Y-18768460D01*
X11786277Y-18768460D02*
X11805325Y-18777984D01*
X11805325Y-18777984D02*
X11843420Y-18777984D01*
X11843420Y-18777984D02*
X11862468Y-18768460D01*
X11862468Y-18768460D02*
X11871991Y-18758936D01*
X11871991Y-18758936D02*
X11881515Y-18739889D01*
X11881515Y-18739889D02*
X11881515Y-18701793D01*
X11881515Y-18701793D02*
X11871991Y-18682746D01*
X11871991Y-18682746D02*
X11862468Y-18673222D01*
X11862468Y-18673222D02*
X11843420Y-18663698D01*
X12119610Y-18777984D02*
X12119610Y-18577984D01*
X12205325Y-18777984D02*
X12205325Y-18673222D01*
X12205325Y-18673222D02*
X12195801Y-18654174D01*
X12195801Y-18654174D02*
X12176753Y-18644650D01*
X12176753Y-18644650D02*
X12148182Y-18644650D01*
X12148182Y-18644650D02*
X12129134Y-18654174D01*
X12129134Y-18654174D02*
X12119610Y-18663698D01*
X12329134Y-18777984D02*
X12310087Y-18768460D01*
X12310087Y-18768460D02*
X12300563Y-18758936D01*
X12300563Y-18758936D02*
X12291039Y-18739889D01*
X12291039Y-18739889D02*
X12291039Y-18682746D01*
X12291039Y-18682746D02*
X12300563Y-18663698D01*
X12300563Y-18663698D02*
X12310087Y-18654174D01*
X12310087Y-18654174D02*
X12329134Y-18644650D01*
X12329134Y-18644650D02*
X12357706Y-18644650D01*
X12357706Y-18644650D02*
X12376753Y-18654174D01*
X12376753Y-18654174D02*
X12386277Y-18663698D01*
X12386277Y-18663698D02*
X12395801Y-18682746D01*
X12395801Y-18682746D02*
X12395801Y-18739889D01*
X12395801Y-18739889D02*
X12386277Y-18758936D01*
X12386277Y-18758936D02*
X12376753Y-18768460D01*
X12376753Y-18768460D02*
X12357706Y-18777984D01*
X12357706Y-18777984D02*
X12329134Y-18777984D01*
X12510087Y-18777984D02*
X12491039Y-18768460D01*
X12491039Y-18768460D02*
X12481515Y-18749412D01*
X12481515Y-18749412D02*
X12481515Y-18577984D01*
X12662468Y-18768460D02*
X12643420Y-18777984D01*
X12643420Y-18777984D02*
X12605325Y-18777984D01*
X12605325Y-18777984D02*
X12586277Y-18768460D01*
X12586277Y-18768460D02*
X12576753Y-18749412D01*
X12576753Y-18749412D02*
X12576753Y-18673222D01*
X12576753Y-18673222D02*
X12586277Y-18654174D01*
X12586277Y-18654174D02*
X12605325Y-18644650D01*
X12605325Y-18644650D02*
X12643420Y-18644650D01*
X12643420Y-18644650D02*
X12662468Y-18654174D01*
X12662468Y-18654174D02*
X12671991Y-18673222D01*
X12671991Y-18673222D02*
X12671991Y-18692270D01*
X12671991Y-18692270D02*
X12576753Y-18711317D01*
X12748182Y-18768460D02*
X12767230Y-18777984D01*
X12767230Y-18777984D02*
X12805325Y-18777984D01*
X12805325Y-18777984D02*
X12824372Y-18768460D01*
X12824372Y-18768460D02*
X12833896Y-18749412D01*
X12833896Y-18749412D02*
X12833896Y-18739889D01*
X12833896Y-18739889D02*
X12824372Y-18720841D01*
X12824372Y-18720841D02*
X12805325Y-18711317D01*
X12805325Y-18711317D02*
X12776753Y-18711317D01*
X12776753Y-18711317D02*
X12757706Y-18701793D01*
X12757706Y-18701793D02*
X12748182Y-18682746D01*
X12748182Y-18682746D02*
X12748182Y-18673222D01*
X12748182Y-18673222D02*
X12757706Y-18654174D01*
X12757706Y-18654174D02*
X12776753Y-18644650D01*
X12776753Y-18644650D02*
X12805325Y-18644650D01*
X12805325Y-18644650D02*
X12824372Y-18654174D01*
X12900563Y-18854174D02*
X12910087Y-18844650D01*
X12910087Y-18844650D02*
X12929134Y-18816079D01*
X12929134Y-18816079D02*
X12938658Y-18797031D01*
X12938658Y-18797031D02*
X12948182Y-18768460D01*
X12948182Y-18768460D02*
X12957706Y-18720841D01*
X12957706Y-18720841D02*
X12957706Y-18682746D01*
X12957706Y-18682746D02*
X12948182Y-18635127D01*
X12948182Y-18635127D02*
X12938658Y-18606555D01*
X12938658Y-18606555D02*
X12929134Y-18587508D01*
X12929134Y-18587508D02*
X12910087Y-18558936D01*
X12910087Y-18558936D02*
X12900563Y-18549412D01*
D12*
X8075500Y-18900500D02*
X8075500Y-19000500D01*
X8025500Y-18950500D02*
X8125500Y-18950500D01*
D11*
X8491039Y-19041984D02*
X8376753Y-19041984D01*
X8433896Y-19041984D02*
X8433896Y-18841984D01*
X8433896Y-18841984D02*
X8414848Y-18870555D01*
X8414848Y-18870555D02*
X8395801Y-18889603D01*
X8395801Y-18889603D02*
X8376753Y-18899127D01*
X8576753Y-19022936D02*
X8586277Y-19032460D01*
X8586277Y-19032460D02*
X8576753Y-19041984D01*
X8576753Y-19041984D02*
X8567229Y-19032460D01*
X8567229Y-19032460D02*
X8576753Y-19022936D01*
X8576753Y-19022936D02*
X8576753Y-19041984D01*
X8710086Y-18841984D02*
X8729134Y-18841984D01*
X8729134Y-18841984D02*
X8748182Y-18851508D01*
X8748182Y-18851508D02*
X8757705Y-18861031D01*
X8757705Y-18861031D02*
X8767229Y-18880079D01*
X8767229Y-18880079D02*
X8776753Y-18918174D01*
X8776753Y-18918174D02*
X8776753Y-18965793D01*
X8776753Y-18965793D02*
X8767229Y-19003889D01*
X8767229Y-19003889D02*
X8757705Y-19022936D01*
X8757705Y-19022936D02*
X8748182Y-19032460D01*
X8748182Y-19032460D02*
X8729134Y-19041984D01*
X8729134Y-19041984D02*
X8710086Y-19041984D01*
X8710086Y-19041984D02*
X8691039Y-19032460D01*
X8691039Y-19032460D02*
X8681515Y-19022936D01*
X8681515Y-19022936D02*
X8671991Y-19003889D01*
X8671991Y-19003889D02*
X8662467Y-18965793D01*
X8662467Y-18965793D02*
X8662467Y-18918174D01*
X8662467Y-18918174D02*
X8671991Y-18880079D01*
X8671991Y-18880079D02*
X8681515Y-18861031D01*
X8681515Y-18861031D02*
X8691039Y-18851508D01*
X8691039Y-18851508D02*
X8710086Y-18841984D01*
X8900563Y-18841984D02*
X8919610Y-18841984D01*
X8919610Y-18841984D02*
X8938658Y-18851508D01*
X8938658Y-18851508D02*
X8948182Y-18861031D01*
X8948182Y-18861031D02*
X8957705Y-18880079D01*
X8957705Y-18880079D02*
X8967229Y-18918174D01*
X8967229Y-18918174D02*
X8967229Y-18965793D01*
X8967229Y-18965793D02*
X8957705Y-19003889D01*
X8957705Y-19003889D02*
X8948182Y-19022936D01*
X8948182Y-19022936D02*
X8938658Y-19032460D01*
X8938658Y-19032460D02*
X8919610Y-19041984D01*
X8919610Y-19041984D02*
X8900563Y-19041984D01*
X8900563Y-19041984D02*
X8881515Y-19032460D01*
X8881515Y-19032460D02*
X8871991Y-19022936D01*
X8871991Y-19022936D02*
X8862467Y-19003889D01*
X8862467Y-19003889D02*
X8852944Y-18965793D01*
X8852944Y-18965793D02*
X8852944Y-18918174D01*
X8852944Y-18918174D02*
X8862467Y-18880079D01*
X8862467Y-18880079D02*
X8871991Y-18861031D01*
X8871991Y-18861031D02*
X8881515Y-18851508D01*
X8881515Y-18851508D02*
X8900563Y-18841984D01*
X9091039Y-18841984D02*
X9110086Y-18841984D01*
X9110086Y-18841984D02*
X9129134Y-18851508D01*
X9129134Y-18851508D02*
X9138658Y-18861031D01*
X9138658Y-18861031D02*
X9148182Y-18880079D01*
X9148182Y-18880079D02*
X9157705Y-18918174D01*
X9157705Y-18918174D02*
X9157705Y-18965793D01*
X9157705Y-18965793D02*
X9148182Y-19003889D01*
X9148182Y-19003889D02*
X9138658Y-19022936D01*
X9138658Y-19022936D02*
X9129134Y-19032460D01*
X9129134Y-19032460D02*
X9110086Y-19041984D01*
X9110086Y-19041984D02*
X9091039Y-19041984D01*
X9091039Y-19041984D02*
X9071991Y-19032460D01*
X9071991Y-19032460D02*
X9062467Y-19022936D01*
X9062467Y-19022936D02*
X9052944Y-19003889D01*
X9052944Y-19003889D02*
X9043420Y-18965793D01*
X9043420Y-18965793D02*
X9043420Y-18918174D01*
X9043420Y-18918174D02*
X9052944Y-18880079D01*
X9052944Y-18880079D02*
X9062467Y-18861031D01*
X9062467Y-18861031D02*
X9071991Y-18851508D01*
X9071991Y-18851508D02*
X9091039Y-18841984D01*
X9243420Y-19041984D02*
X9243420Y-18908650D01*
X9243420Y-18927698D02*
X9252944Y-18918174D01*
X9252944Y-18918174D02*
X9271991Y-18908650D01*
X9271991Y-18908650D02*
X9300563Y-18908650D01*
X9300563Y-18908650D02*
X9319610Y-18918174D01*
X9319610Y-18918174D02*
X9329134Y-18937222D01*
X9329134Y-18937222D02*
X9329134Y-19041984D01*
X9329134Y-18937222D02*
X9338658Y-18918174D01*
X9338658Y-18918174D02*
X9357705Y-18908650D01*
X9357705Y-18908650D02*
X9386277Y-18908650D01*
X9386277Y-18908650D02*
X9405325Y-18918174D01*
X9405325Y-18918174D02*
X9414848Y-18937222D01*
X9414848Y-18937222D02*
X9414848Y-19041984D01*
X9510086Y-19041984D02*
X9510086Y-18908650D01*
X9510086Y-18927698D02*
X9519610Y-18918174D01*
X9519610Y-18918174D02*
X9538658Y-18908650D01*
X9538658Y-18908650D02*
X9567229Y-18908650D01*
X9567229Y-18908650D02*
X9586277Y-18918174D01*
X9586277Y-18918174D02*
X9595801Y-18937222D01*
X9595801Y-18937222D02*
X9595801Y-19041984D01*
X9595801Y-18937222D02*
X9605325Y-18918174D01*
X9605325Y-18918174D02*
X9624372Y-18908650D01*
X9624372Y-18908650D02*
X9652944Y-18908650D01*
X9652944Y-18908650D02*
X9671991Y-18918174D01*
X9671991Y-18918174D02*
X9681515Y-18937222D01*
X9681515Y-18937222D02*
X9681515Y-19041984D01*
X10071991Y-18832460D02*
X9900563Y-19089603D01*
X10329134Y-18841984D02*
X10348182Y-18841984D01*
X10348182Y-18841984D02*
X10367229Y-18851508D01*
X10367229Y-18851508D02*
X10376753Y-18861031D01*
X10376753Y-18861031D02*
X10386277Y-18880079D01*
X10386277Y-18880079D02*
X10395801Y-18918174D01*
X10395801Y-18918174D02*
X10395801Y-18965793D01*
X10395801Y-18965793D02*
X10386277Y-19003889D01*
X10386277Y-19003889D02*
X10376753Y-19022936D01*
X10376753Y-19022936D02*
X10367229Y-19032460D01*
X10367229Y-19032460D02*
X10348182Y-19041984D01*
X10348182Y-19041984D02*
X10329134Y-19041984D01*
X10329134Y-19041984D02*
X10310087Y-19032460D01*
X10310087Y-19032460D02*
X10300563Y-19022936D01*
X10300563Y-19022936D02*
X10291039Y-19003889D01*
X10291039Y-19003889D02*
X10281515Y-18965793D01*
X10281515Y-18965793D02*
X10281515Y-18918174D01*
X10281515Y-18918174D02*
X10291039Y-18880079D01*
X10291039Y-18880079D02*
X10300563Y-18861031D01*
X10300563Y-18861031D02*
X10310087Y-18851508D01*
X10310087Y-18851508D02*
X10329134Y-18841984D01*
X10481515Y-19022936D02*
X10491039Y-19032460D01*
X10491039Y-19032460D02*
X10481515Y-19041984D01*
X10481515Y-19041984D02*
X10471991Y-19032460D01*
X10471991Y-19032460D02*
X10481515Y-19022936D01*
X10481515Y-19022936D02*
X10481515Y-19041984D01*
X10614848Y-18841984D02*
X10633896Y-18841984D01*
X10633896Y-18841984D02*
X10652944Y-18851508D01*
X10652944Y-18851508D02*
X10662468Y-18861031D01*
X10662468Y-18861031D02*
X10671991Y-18880079D01*
X10671991Y-18880079D02*
X10681515Y-18918174D01*
X10681515Y-18918174D02*
X10681515Y-18965793D01*
X10681515Y-18965793D02*
X10671991Y-19003889D01*
X10671991Y-19003889D02*
X10662468Y-19022936D01*
X10662468Y-19022936D02*
X10652944Y-19032460D01*
X10652944Y-19032460D02*
X10633896Y-19041984D01*
X10633896Y-19041984D02*
X10614848Y-19041984D01*
X10614848Y-19041984D02*
X10595801Y-19032460D01*
X10595801Y-19032460D02*
X10586277Y-19022936D01*
X10586277Y-19022936D02*
X10576753Y-19003889D01*
X10576753Y-19003889D02*
X10567229Y-18965793D01*
X10567229Y-18965793D02*
X10567229Y-18918174D01*
X10567229Y-18918174D02*
X10576753Y-18880079D01*
X10576753Y-18880079D02*
X10586277Y-18861031D01*
X10586277Y-18861031D02*
X10595801Y-18851508D01*
X10595801Y-18851508D02*
X10614848Y-18841984D01*
X10748182Y-18841984D02*
X10871991Y-18841984D01*
X10871991Y-18841984D02*
X10805325Y-18918174D01*
X10805325Y-18918174D02*
X10833896Y-18918174D01*
X10833896Y-18918174D02*
X10852944Y-18927698D01*
X10852944Y-18927698D02*
X10862468Y-18937222D01*
X10862468Y-18937222D02*
X10871991Y-18956270D01*
X10871991Y-18956270D02*
X10871991Y-19003889D01*
X10871991Y-19003889D02*
X10862468Y-19022936D01*
X10862468Y-19022936D02*
X10852944Y-19032460D01*
X10852944Y-19032460D02*
X10833896Y-19041984D01*
X10833896Y-19041984D02*
X10776753Y-19041984D01*
X10776753Y-19041984D02*
X10757706Y-19032460D01*
X10757706Y-19032460D02*
X10748182Y-19022936D01*
X10967229Y-19041984D02*
X11005325Y-19041984D01*
X11005325Y-19041984D02*
X11024372Y-19032460D01*
X11024372Y-19032460D02*
X11033896Y-19022936D01*
X11033896Y-19022936D02*
X11052944Y-18994365D01*
X11052944Y-18994365D02*
X11062468Y-18956270D01*
X11062468Y-18956270D02*
X11062468Y-18880079D01*
X11062468Y-18880079D02*
X11052944Y-18861031D01*
X11052944Y-18861031D02*
X11043420Y-18851508D01*
X11043420Y-18851508D02*
X11024372Y-18841984D01*
X11024372Y-18841984D02*
X10986277Y-18841984D01*
X10986277Y-18841984D02*
X10967229Y-18851508D01*
X10967229Y-18851508D02*
X10957706Y-18861031D01*
X10957706Y-18861031D02*
X10948182Y-18880079D01*
X10948182Y-18880079D02*
X10948182Y-18927698D01*
X10948182Y-18927698D02*
X10957706Y-18946746D01*
X10957706Y-18946746D02*
X10967229Y-18956270D01*
X10967229Y-18956270D02*
X10986277Y-18965793D01*
X10986277Y-18965793D02*
X11024372Y-18965793D01*
X11024372Y-18965793D02*
X11043420Y-18956270D01*
X11043420Y-18956270D02*
X11052944Y-18946746D01*
X11052944Y-18946746D02*
X11062468Y-18927698D01*
X11233896Y-18908650D02*
X11233896Y-19041984D01*
X11186277Y-18832460D02*
X11138658Y-18975317D01*
X11138658Y-18975317D02*
X11262467Y-18975317D01*
X11329134Y-18841984D02*
X11329134Y-18880079D01*
X11405325Y-18841984D02*
X11405325Y-18880079D01*
X11700563Y-19118174D02*
X11691039Y-19108650D01*
X11691039Y-19108650D02*
X11671991Y-19080079D01*
X11671991Y-19080079D02*
X11662468Y-19061031D01*
X11662468Y-19061031D02*
X11652944Y-19032460D01*
X11652944Y-19032460D02*
X11643420Y-18984841D01*
X11643420Y-18984841D02*
X11643420Y-18946746D01*
X11643420Y-18946746D02*
X11652944Y-18899127D01*
X11652944Y-18899127D02*
X11662468Y-18870555D01*
X11662468Y-18870555D02*
X11671991Y-18851508D01*
X11671991Y-18851508D02*
X11691039Y-18822936D01*
X11691039Y-18822936D02*
X11700563Y-18813412D01*
X11757706Y-18841984D02*
X11881515Y-18841984D01*
X11881515Y-18841984D02*
X11814848Y-18918174D01*
X11814848Y-18918174D02*
X11843420Y-18918174D01*
X11843420Y-18918174D02*
X11862468Y-18927698D01*
X11862468Y-18927698D02*
X11871991Y-18937222D01*
X11871991Y-18937222D02*
X11881515Y-18956270D01*
X11881515Y-18956270D02*
X11881515Y-19003889D01*
X11881515Y-19003889D02*
X11871991Y-19022936D01*
X11871991Y-19022936D02*
X11862468Y-19032460D01*
X11862468Y-19032460D02*
X11843420Y-19041984D01*
X11843420Y-19041984D02*
X11786277Y-19041984D01*
X11786277Y-19041984D02*
X11767229Y-19032460D01*
X11767229Y-19032460D02*
X11757706Y-19022936D01*
X12052944Y-18841984D02*
X12014848Y-18841984D01*
X12014848Y-18841984D02*
X11995801Y-18851508D01*
X11995801Y-18851508D02*
X11986277Y-18861031D01*
X11986277Y-18861031D02*
X11967229Y-18889603D01*
X11967229Y-18889603D02*
X11957706Y-18927698D01*
X11957706Y-18927698D02*
X11957706Y-19003889D01*
X11957706Y-19003889D02*
X11967229Y-19022936D01*
X11967229Y-19022936D02*
X11976753Y-19032460D01*
X11976753Y-19032460D02*
X11995801Y-19041984D01*
X11995801Y-19041984D02*
X12033896Y-19041984D01*
X12033896Y-19041984D02*
X12052944Y-19032460D01*
X12052944Y-19032460D02*
X12062468Y-19022936D01*
X12062468Y-19022936D02*
X12071991Y-19003889D01*
X12071991Y-19003889D02*
X12071991Y-18956270D01*
X12071991Y-18956270D02*
X12062468Y-18937222D01*
X12062468Y-18937222D02*
X12052944Y-18927698D01*
X12052944Y-18927698D02*
X12033896Y-18918174D01*
X12033896Y-18918174D02*
X11995801Y-18918174D01*
X11995801Y-18918174D02*
X11976753Y-18927698D01*
X11976753Y-18927698D02*
X11967229Y-18937222D01*
X11967229Y-18937222D02*
X11957706Y-18956270D01*
X12310087Y-19041984D02*
X12310087Y-18841984D01*
X12395801Y-19041984D02*
X12395801Y-18937222D01*
X12395801Y-18937222D02*
X12386277Y-18918174D01*
X12386277Y-18918174D02*
X12367230Y-18908650D01*
X12367230Y-18908650D02*
X12338658Y-18908650D01*
X12338658Y-18908650D02*
X12319610Y-18918174D01*
X12319610Y-18918174D02*
X12310087Y-18927698D01*
X12519610Y-19041984D02*
X12500563Y-19032460D01*
X12500563Y-19032460D02*
X12491039Y-19022936D01*
X12491039Y-19022936D02*
X12481515Y-19003889D01*
X12481515Y-19003889D02*
X12481515Y-18946746D01*
X12481515Y-18946746D02*
X12491039Y-18927698D01*
X12491039Y-18927698D02*
X12500563Y-18918174D01*
X12500563Y-18918174D02*
X12519610Y-18908650D01*
X12519610Y-18908650D02*
X12548182Y-18908650D01*
X12548182Y-18908650D02*
X12567230Y-18918174D01*
X12567230Y-18918174D02*
X12576753Y-18927698D01*
X12576753Y-18927698D02*
X12586277Y-18946746D01*
X12586277Y-18946746D02*
X12586277Y-19003889D01*
X12586277Y-19003889D02*
X12576753Y-19022936D01*
X12576753Y-19022936D02*
X12567230Y-19032460D01*
X12567230Y-19032460D02*
X12548182Y-19041984D01*
X12548182Y-19041984D02*
X12519610Y-19041984D01*
X12700563Y-19041984D02*
X12681515Y-19032460D01*
X12681515Y-19032460D02*
X12671991Y-19013412D01*
X12671991Y-19013412D02*
X12671991Y-18841984D01*
X12852944Y-19032460D02*
X12833896Y-19041984D01*
X12833896Y-19041984D02*
X12795801Y-19041984D01*
X12795801Y-19041984D02*
X12776753Y-19032460D01*
X12776753Y-19032460D02*
X12767230Y-19013412D01*
X12767230Y-19013412D02*
X12767230Y-18937222D01*
X12767230Y-18937222D02*
X12776753Y-18918174D01*
X12776753Y-18918174D02*
X12795801Y-18908650D01*
X12795801Y-18908650D02*
X12833896Y-18908650D01*
X12833896Y-18908650D02*
X12852944Y-18918174D01*
X12852944Y-18918174D02*
X12862468Y-18937222D01*
X12862468Y-18937222D02*
X12862468Y-18956270D01*
X12862468Y-18956270D02*
X12767230Y-18975317D01*
X12938658Y-19032460D02*
X12957706Y-19041984D01*
X12957706Y-19041984D02*
X12995801Y-19041984D01*
X12995801Y-19041984D02*
X13014849Y-19032460D01*
X13014849Y-19032460D02*
X13024372Y-19013412D01*
X13024372Y-19013412D02*
X13024372Y-19003889D01*
X13024372Y-19003889D02*
X13014849Y-18984841D01*
X13014849Y-18984841D02*
X12995801Y-18975317D01*
X12995801Y-18975317D02*
X12967230Y-18975317D01*
X12967230Y-18975317D02*
X12948182Y-18965793D01*
X12948182Y-18965793D02*
X12938658Y-18946746D01*
X12938658Y-18946746D02*
X12938658Y-18937222D01*
X12938658Y-18937222D02*
X12948182Y-18918174D01*
X12948182Y-18918174D02*
X12967230Y-18908650D01*
X12967230Y-18908650D02*
X12995801Y-18908650D01*
X12995801Y-18908650D02*
X13014849Y-18918174D01*
X13091039Y-19118174D02*
X13100563Y-19108650D01*
X13100563Y-19108650D02*
X13119611Y-19080079D01*
X13119611Y-19080079D02*
X13129134Y-19061031D01*
X13129134Y-19061031D02*
X13138658Y-19032460D01*
X13138658Y-19032460D02*
X13148182Y-18984841D01*
X13148182Y-18984841D02*
X13148182Y-18946746D01*
X13148182Y-18946746D02*
X13138658Y-18899127D01*
X13138658Y-18899127D02*
X13129134Y-18870555D01*
X13129134Y-18870555D02*
X13119611Y-18851508D01*
X13119611Y-18851508D02*
X13100563Y-18822936D01*
X13100563Y-18822936D02*
X13091039Y-18813412D01*
D13*
X8110563Y-19250563D02*
X8110563Y-19178437D01*
X8038437Y-19178437D01*
X8038437Y-19250563D01*
X8110563Y-19250563D01*
D11*
X8491039Y-19305984D02*
X8376753Y-19305984D01*
X8433896Y-19305984D02*
X8433896Y-19105984D01*
X8433896Y-19105984D02*
X8414848Y-19134555D01*
X8414848Y-19134555D02*
X8395801Y-19153603D01*
X8395801Y-19153603D02*
X8376753Y-19163127D01*
X8576753Y-19286936D02*
X8586277Y-19296460D01*
X8586277Y-19296460D02*
X8576753Y-19305984D01*
X8576753Y-19305984D02*
X8567229Y-19296460D01*
X8567229Y-19296460D02*
X8576753Y-19286936D01*
X8576753Y-19286936D02*
X8576753Y-19305984D01*
X8710086Y-19105984D02*
X8729134Y-19105984D01*
X8729134Y-19105984D02*
X8748182Y-19115508D01*
X8748182Y-19115508D02*
X8757705Y-19125031D01*
X8757705Y-19125031D02*
X8767229Y-19144079D01*
X8767229Y-19144079D02*
X8776753Y-19182174D01*
X8776753Y-19182174D02*
X8776753Y-19229793D01*
X8776753Y-19229793D02*
X8767229Y-19267889D01*
X8767229Y-19267889D02*
X8757705Y-19286936D01*
X8757705Y-19286936D02*
X8748182Y-19296460D01*
X8748182Y-19296460D02*
X8729134Y-19305984D01*
X8729134Y-19305984D02*
X8710086Y-19305984D01*
X8710086Y-19305984D02*
X8691039Y-19296460D01*
X8691039Y-19296460D02*
X8681515Y-19286936D01*
X8681515Y-19286936D02*
X8671991Y-19267889D01*
X8671991Y-19267889D02*
X8662467Y-19229793D01*
X8662467Y-19229793D02*
X8662467Y-19182174D01*
X8662467Y-19182174D02*
X8671991Y-19144079D01*
X8671991Y-19144079D02*
X8681515Y-19125031D01*
X8681515Y-19125031D02*
X8691039Y-19115508D01*
X8691039Y-19115508D02*
X8710086Y-19105984D01*
X8852944Y-19125031D02*
X8862467Y-19115508D01*
X8862467Y-19115508D02*
X8881515Y-19105984D01*
X8881515Y-19105984D02*
X8929134Y-19105984D01*
X8929134Y-19105984D02*
X8948182Y-19115508D01*
X8948182Y-19115508D02*
X8957705Y-19125031D01*
X8957705Y-19125031D02*
X8967229Y-19144079D01*
X8967229Y-19144079D02*
X8967229Y-19163127D01*
X8967229Y-19163127D02*
X8957705Y-19191698D01*
X8957705Y-19191698D02*
X8843420Y-19305984D01*
X8843420Y-19305984D02*
X8967229Y-19305984D01*
X9091039Y-19105984D02*
X9110086Y-19105984D01*
X9110086Y-19105984D02*
X9129134Y-19115508D01*
X9129134Y-19115508D02*
X9138658Y-19125031D01*
X9138658Y-19125031D02*
X9148182Y-19144079D01*
X9148182Y-19144079D02*
X9157705Y-19182174D01*
X9157705Y-19182174D02*
X9157705Y-19229793D01*
X9157705Y-19229793D02*
X9148182Y-19267889D01*
X9148182Y-19267889D02*
X9138658Y-19286936D01*
X9138658Y-19286936D02*
X9129134Y-19296460D01*
X9129134Y-19296460D02*
X9110086Y-19305984D01*
X9110086Y-19305984D02*
X9091039Y-19305984D01*
X9091039Y-19305984D02*
X9071991Y-19296460D01*
X9071991Y-19296460D02*
X9062467Y-19286936D01*
X9062467Y-19286936D02*
X9052944Y-19267889D01*
X9052944Y-19267889D02*
X9043420Y-19229793D01*
X9043420Y-19229793D02*
X9043420Y-19182174D01*
X9043420Y-19182174D02*
X9052944Y-19144079D01*
X9052944Y-19144079D02*
X9062467Y-19125031D01*
X9062467Y-19125031D02*
X9071991Y-19115508D01*
X9071991Y-19115508D02*
X9091039Y-19105984D01*
X9243420Y-19305984D02*
X9243420Y-19172650D01*
X9243420Y-19191698D02*
X9252944Y-19182174D01*
X9252944Y-19182174D02*
X9271991Y-19172650D01*
X9271991Y-19172650D02*
X9300563Y-19172650D01*
X9300563Y-19172650D02*
X9319610Y-19182174D01*
X9319610Y-19182174D02*
X9329134Y-19201222D01*
X9329134Y-19201222D02*
X9329134Y-19305984D01*
X9329134Y-19201222D02*
X9338658Y-19182174D01*
X9338658Y-19182174D02*
X9357705Y-19172650D01*
X9357705Y-19172650D02*
X9386277Y-19172650D01*
X9386277Y-19172650D02*
X9405325Y-19182174D01*
X9405325Y-19182174D02*
X9414848Y-19201222D01*
X9414848Y-19201222D02*
X9414848Y-19305984D01*
X9510086Y-19305984D02*
X9510086Y-19172650D01*
X9510086Y-19191698D02*
X9519610Y-19182174D01*
X9519610Y-19182174D02*
X9538658Y-19172650D01*
X9538658Y-19172650D02*
X9567229Y-19172650D01*
X9567229Y-19172650D02*
X9586277Y-19182174D01*
X9586277Y-19182174D02*
X9595801Y-19201222D01*
X9595801Y-19201222D02*
X9595801Y-19305984D01*
X9595801Y-19201222D02*
X9605325Y-19182174D01*
X9605325Y-19182174D02*
X9624372Y-19172650D01*
X9624372Y-19172650D02*
X9652944Y-19172650D01*
X9652944Y-19172650D02*
X9671991Y-19182174D01*
X9671991Y-19182174D02*
X9681515Y-19201222D01*
X9681515Y-19201222D02*
X9681515Y-19305984D01*
X10071991Y-19096460D02*
X9900563Y-19353603D01*
X10329134Y-19105984D02*
X10348182Y-19105984D01*
X10348182Y-19105984D02*
X10367229Y-19115508D01*
X10367229Y-19115508D02*
X10376753Y-19125031D01*
X10376753Y-19125031D02*
X10386277Y-19144079D01*
X10386277Y-19144079D02*
X10395801Y-19182174D01*
X10395801Y-19182174D02*
X10395801Y-19229793D01*
X10395801Y-19229793D02*
X10386277Y-19267889D01*
X10386277Y-19267889D02*
X10376753Y-19286936D01*
X10376753Y-19286936D02*
X10367229Y-19296460D01*
X10367229Y-19296460D02*
X10348182Y-19305984D01*
X10348182Y-19305984D02*
X10329134Y-19305984D01*
X10329134Y-19305984D02*
X10310087Y-19296460D01*
X10310087Y-19296460D02*
X10300563Y-19286936D01*
X10300563Y-19286936D02*
X10291039Y-19267889D01*
X10291039Y-19267889D02*
X10281515Y-19229793D01*
X10281515Y-19229793D02*
X10281515Y-19182174D01*
X10281515Y-19182174D02*
X10291039Y-19144079D01*
X10291039Y-19144079D02*
X10300563Y-19125031D01*
X10300563Y-19125031D02*
X10310087Y-19115508D01*
X10310087Y-19115508D02*
X10329134Y-19105984D01*
X10481515Y-19286936D02*
X10491039Y-19296460D01*
X10491039Y-19296460D02*
X10481515Y-19305984D01*
X10481515Y-19305984D02*
X10471991Y-19296460D01*
X10471991Y-19296460D02*
X10481515Y-19286936D01*
X10481515Y-19286936D02*
X10481515Y-19305984D01*
X10614848Y-19105984D02*
X10633896Y-19105984D01*
X10633896Y-19105984D02*
X10652944Y-19115508D01*
X10652944Y-19115508D02*
X10662468Y-19125031D01*
X10662468Y-19125031D02*
X10671991Y-19144079D01*
X10671991Y-19144079D02*
X10681515Y-19182174D01*
X10681515Y-19182174D02*
X10681515Y-19229793D01*
X10681515Y-19229793D02*
X10671991Y-19267889D01*
X10671991Y-19267889D02*
X10662468Y-19286936D01*
X10662468Y-19286936D02*
X10652944Y-19296460D01*
X10652944Y-19296460D02*
X10633896Y-19305984D01*
X10633896Y-19305984D02*
X10614848Y-19305984D01*
X10614848Y-19305984D02*
X10595801Y-19296460D01*
X10595801Y-19296460D02*
X10586277Y-19286936D01*
X10586277Y-19286936D02*
X10576753Y-19267889D01*
X10576753Y-19267889D02*
X10567229Y-19229793D01*
X10567229Y-19229793D02*
X10567229Y-19182174D01*
X10567229Y-19182174D02*
X10576753Y-19144079D01*
X10576753Y-19144079D02*
X10586277Y-19125031D01*
X10586277Y-19125031D02*
X10595801Y-19115508D01*
X10595801Y-19115508D02*
X10614848Y-19105984D01*
X10852944Y-19172650D02*
X10852944Y-19305984D01*
X10805325Y-19096460D02*
X10757706Y-19239317D01*
X10757706Y-19239317D02*
X10881515Y-19239317D01*
X10995801Y-19105984D02*
X11014849Y-19105984D01*
X11014849Y-19105984D02*
X11033896Y-19115508D01*
X11033896Y-19115508D02*
X11043420Y-19125031D01*
X11043420Y-19125031D02*
X11052944Y-19144079D01*
X11052944Y-19144079D02*
X11062468Y-19182174D01*
X11062468Y-19182174D02*
X11062468Y-19229793D01*
X11062468Y-19229793D02*
X11052944Y-19267889D01*
X11052944Y-19267889D02*
X11043420Y-19286936D01*
X11043420Y-19286936D02*
X11033896Y-19296460D01*
X11033896Y-19296460D02*
X11014849Y-19305984D01*
X11014849Y-19305984D02*
X10995801Y-19305984D01*
X10995801Y-19305984D02*
X10976753Y-19296460D01*
X10976753Y-19296460D02*
X10967229Y-19286936D01*
X10967229Y-19286936D02*
X10957706Y-19267889D01*
X10957706Y-19267889D02*
X10948182Y-19229793D01*
X10948182Y-19229793D02*
X10948182Y-19182174D01*
X10948182Y-19182174D02*
X10957706Y-19144079D01*
X10957706Y-19144079D02*
X10967229Y-19125031D01*
X10967229Y-19125031D02*
X10976753Y-19115508D01*
X10976753Y-19115508D02*
X10995801Y-19105984D01*
X11138658Y-19125031D02*
X11148182Y-19115508D01*
X11148182Y-19115508D02*
X11167229Y-19105984D01*
X11167229Y-19105984D02*
X11214848Y-19105984D01*
X11214848Y-19105984D02*
X11233896Y-19115508D01*
X11233896Y-19115508D02*
X11243420Y-19125031D01*
X11243420Y-19125031D02*
X11252944Y-19144079D01*
X11252944Y-19144079D02*
X11252944Y-19163127D01*
X11252944Y-19163127D02*
X11243420Y-19191698D01*
X11243420Y-19191698D02*
X11129134Y-19305984D01*
X11129134Y-19305984D02*
X11252944Y-19305984D01*
X11329134Y-19105984D02*
X11329134Y-19144079D01*
X11405325Y-19105984D02*
X11405325Y-19144079D01*
X11700563Y-19382174D02*
X11691039Y-19372650D01*
X11691039Y-19372650D02*
X11671991Y-19344079D01*
X11671991Y-19344079D02*
X11662468Y-19325031D01*
X11662468Y-19325031D02*
X11652944Y-19296460D01*
X11652944Y-19296460D02*
X11643420Y-19248841D01*
X11643420Y-19248841D02*
X11643420Y-19210746D01*
X11643420Y-19210746D02*
X11652944Y-19163127D01*
X11652944Y-19163127D02*
X11662468Y-19134555D01*
X11662468Y-19134555D02*
X11671991Y-19115508D01*
X11671991Y-19115508D02*
X11691039Y-19086936D01*
X11691039Y-19086936D02*
X11700563Y-19077412D01*
X11862468Y-19172650D02*
X11862468Y-19305984D01*
X11814848Y-19096460D02*
X11767229Y-19239317D01*
X11767229Y-19239317D02*
X11891039Y-19239317D01*
X12005325Y-19105984D02*
X12024372Y-19105984D01*
X12024372Y-19105984D02*
X12043420Y-19115508D01*
X12043420Y-19115508D02*
X12052944Y-19125031D01*
X12052944Y-19125031D02*
X12062468Y-19144079D01*
X12062468Y-19144079D02*
X12071991Y-19182174D01*
X12071991Y-19182174D02*
X12071991Y-19229793D01*
X12071991Y-19229793D02*
X12062468Y-19267889D01*
X12062468Y-19267889D02*
X12052944Y-19286936D01*
X12052944Y-19286936D02*
X12043420Y-19296460D01*
X12043420Y-19296460D02*
X12024372Y-19305984D01*
X12024372Y-19305984D02*
X12005325Y-19305984D01*
X12005325Y-19305984D02*
X11986277Y-19296460D01*
X11986277Y-19296460D02*
X11976753Y-19286936D01*
X11976753Y-19286936D02*
X11967229Y-19267889D01*
X11967229Y-19267889D02*
X11957706Y-19229793D01*
X11957706Y-19229793D02*
X11957706Y-19182174D01*
X11957706Y-19182174D02*
X11967229Y-19144079D01*
X11967229Y-19144079D02*
X11976753Y-19125031D01*
X11976753Y-19125031D02*
X11986277Y-19115508D01*
X11986277Y-19115508D02*
X12005325Y-19105984D01*
X12310087Y-19305984D02*
X12310087Y-19105984D01*
X12395801Y-19305984D02*
X12395801Y-19201222D01*
X12395801Y-19201222D02*
X12386277Y-19182174D01*
X12386277Y-19182174D02*
X12367230Y-19172650D01*
X12367230Y-19172650D02*
X12338658Y-19172650D01*
X12338658Y-19172650D02*
X12319610Y-19182174D01*
X12319610Y-19182174D02*
X12310087Y-19191698D01*
X12519610Y-19305984D02*
X12500563Y-19296460D01*
X12500563Y-19296460D02*
X12491039Y-19286936D01*
X12491039Y-19286936D02*
X12481515Y-19267889D01*
X12481515Y-19267889D02*
X12481515Y-19210746D01*
X12481515Y-19210746D02*
X12491039Y-19191698D01*
X12491039Y-19191698D02*
X12500563Y-19182174D01*
X12500563Y-19182174D02*
X12519610Y-19172650D01*
X12519610Y-19172650D02*
X12548182Y-19172650D01*
X12548182Y-19172650D02*
X12567230Y-19182174D01*
X12567230Y-19182174D02*
X12576753Y-19191698D01*
X12576753Y-19191698D02*
X12586277Y-19210746D01*
X12586277Y-19210746D02*
X12586277Y-19267889D01*
X12586277Y-19267889D02*
X12576753Y-19286936D01*
X12576753Y-19286936D02*
X12567230Y-19296460D01*
X12567230Y-19296460D02*
X12548182Y-19305984D01*
X12548182Y-19305984D02*
X12519610Y-19305984D01*
X12700563Y-19305984D02*
X12681515Y-19296460D01*
X12681515Y-19296460D02*
X12671991Y-19277412D01*
X12671991Y-19277412D02*
X12671991Y-19105984D01*
X12852944Y-19296460D02*
X12833896Y-19305984D01*
X12833896Y-19305984D02*
X12795801Y-19305984D01*
X12795801Y-19305984D02*
X12776753Y-19296460D01*
X12776753Y-19296460D02*
X12767230Y-19277412D01*
X12767230Y-19277412D02*
X12767230Y-19201222D01*
X12767230Y-19201222D02*
X12776753Y-19182174D01*
X12776753Y-19182174D02*
X12795801Y-19172650D01*
X12795801Y-19172650D02*
X12833896Y-19172650D01*
X12833896Y-19172650D02*
X12852944Y-19182174D01*
X12852944Y-19182174D02*
X12862468Y-19201222D01*
X12862468Y-19201222D02*
X12862468Y-19220270D01*
X12862468Y-19220270D02*
X12767230Y-19239317D01*
X12938658Y-19296460D02*
X12957706Y-19305984D01*
X12957706Y-19305984D02*
X12995801Y-19305984D01*
X12995801Y-19305984D02*
X13014849Y-19296460D01*
X13014849Y-19296460D02*
X13024372Y-19277412D01*
X13024372Y-19277412D02*
X13024372Y-19267889D01*
X13024372Y-19267889D02*
X13014849Y-19248841D01*
X13014849Y-19248841D02*
X12995801Y-19239317D01*
X12995801Y-19239317D02*
X12967230Y-19239317D01*
X12967230Y-19239317D02*
X12948182Y-19229793D01*
X12948182Y-19229793D02*
X12938658Y-19210746D01*
X12938658Y-19210746D02*
X12938658Y-19201222D01*
X12938658Y-19201222D02*
X12948182Y-19182174D01*
X12948182Y-19182174D02*
X12967230Y-19172650D01*
X12967230Y-19172650D02*
X12995801Y-19172650D01*
X12995801Y-19172650D02*
X13014849Y-19182174D01*
X13091039Y-19382174D02*
X13100563Y-19372650D01*
X13100563Y-19372650D02*
X13119611Y-19344079D01*
X13119611Y-19344079D02*
X13129134Y-19325031D01*
X13129134Y-19325031D02*
X13138658Y-19296460D01*
X13138658Y-19296460D02*
X13148182Y-19248841D01*
X13148182Y-19248841D02*
X13148182Y-19210746D01*
X13148182Y-19210746D02*
X13138658Y-19163127D01*
X13138658Y-19163127D02*
X13129134Y-19134555D01*
X13129134Y-19134555D02*
X13119611Y-19115508D01*
X13119611Y-19115508D02*
X13100563Y-19086936D01*
X13100563Y-19086936D02*
X13091039Y-19077412D01*
M02*
