%TF.GenerationSoftware,KiCad,Pcbnew,9.0.1*%
%TF.CreationDate,2025-11-12T09:35:23+09:00*%
%TF.ProjectId,RasPi+MultiPlexer,52617350-692b-44d7-956c-7469506c6578,rev?*%
%TF.SameCoordinates,Original*%
%TF.FileFunction,Legend,Top*%
%TF.FilePolarity,Positive*%
%FSLAX46Y46*%
G04 Gerber Fmt 4.6, Leading zero omitted, Abs format (unit mm)*
G04 Created by KiCad (PCBNEW 9.0.1) date 2025-11-12 09:35:23*
%MOMM*%
%LPD*%
G01*
G04 APERTURE LIST*
%ADD10C,0.150000*%
%ADD11C,0.120000*%
%ADD12C,0.100000*%
G04 APERTURE END LIST*
D10*
X121158095Y-146774819D02*
X121158095Y-147584342D01*
X121158095Y-147584342D02*
X121205714Y-147679580D01*
X121205714Y-147679580D02*
X121253333Y-147727200D01*
X121253333Y-147727200D02*
X121348571Y-147774819D01*
X121348571Y-147774819D02*
X121539047Y-147774819D01*
X121539047Y-147774819D02*
X121634285Y-147727200D01*
X121634285Y-147727200D02*
X121681904Y-147679580D01*
X121681904Y-147679580D02*
X121729523Y-147584342D01*
X121729523Y-147584342D02*
X121729523Y-146774819D01*
X122729523Y-147774819D02*
X122158095Y-147774819D01*
X122443809Y-147774819D02*
X122443809Y-146774819D01*
X122443809Y-146774819D02*
X122348571Y-146917676D01*
X122348571Y-146917676D02*
X122253333Y-147012914D01*
X122253333Y-147012914D02*
X122158095Y-147060533D01*
X134017998Y-138820868D02*
X133937185Y-138847805D01*
X133937185Y-138847805D02*
X133856373Y-138928618D01*
X133856373Y-138928618D02*
X133802498Y-139036367D01*
X133802498Y-139036367D02*
X133802498Y-139144117D01*
X133802498Y-139144117D02*
X133829436Y-139224929D01*
X133829436Y-139224929D02*
X133910248Y-139359616D01*
X133910248Y-139359616D02*
X133991060Y-139440428D01*
X133991060Y-139440428D02*
X134125747Y-139521241D01*
X134125747Y-139521241D02*
X134206560Y-139548178D01*
X134206560Y-139548178D02*
X134314309Y-139548178D01*
X134314309Y-139548178D02*
X134422059Y-139494303D01*
X134422059Y-139494303D02*
X134475934Y-139440428D01*
X134475934Y-139440428D02*
X134529808Y-139332679D01*
X134529808Y-139332679D02*
X134529808Y-139278804D01*
X134529808Y-139278804D02*
X134341247Y-139090242D01*
X134341247Y-139090242D02*
X134233497Y-139197992D01*
X134826120Y-139090242D02*
X134260434Y-138524557D01*
X134260434Y-138524557D02*
X134475934Y-138309057D01*
X134475934Y-138309057D02*
X134556746Y-138282120D01*
X134556746Y-138282120D02*
X134610621Y-138282120D01*
X134610621Y-138282120D02*
X134691433Y-138309057D01*
X134691433Y-138309057D02*
X134772245Y-138389870D01*
X134772245Y-138389870D02*
X134799182Y-138470682D01*
X134799182Y-138470682D02*
X134799182Y-138524557D01*
X134799182Y-138524557D02*
X134772245Y-138605369D01*
X134772245Y-138605369D02*
X134556746Y-138820868D01*
X135688117Y-138228245D02*
X135364868Y-138551494D01*
X135526492Y-138389870D02*
X134960807Y-137824184D01*
X134960807Y-137824184D02*
X134987744Y-137958871D01*
X134987744Y-137958871D02*
X134987744Y-138066621D01*
X134987744Y-138066621D02*
X134960807Y-138147433D01*
X135472618Y-137312373D02*
X135526492Y-137258499D01*
X135526492Y-137258499D02*
X135607305Y-137231561D01*
X135607305Y-137231561D02*
X135661179Y-137231561D01*
X135661179Y-137231561D02*
X135741992Y-137258499D01*
X135741992Y-137258499D02*
X135876679Y-137339311D01*
X135876679Y-137339311D02*
X136011366Y-137473998D01*
X136011366Y-137473998D02*
X136092178Y-137608685D01*
X136092178Y-137608685D02*
X136119115Y-137689497D01*
X136119115Y-137689497D02*
X136119115Y-137743372D01*
X136119115Y-137743372D02*
X136092178Y-137824184D01*
X136092178Y-137824184D02*
X136038303Y-137878059D01*
X136038303Y-137878059D02*
X135957491Y-137904996D01*
X135957491Y-137904996D02*
X135903616Y-137904996D01*
X135903616Y-137904996D02*
X135822804Y-137878059D01*
X135822804Y-137878059D02*
X135688117Y-137797247D01*
X135688117Y-137797247D02*
X135553430Y-137662560D01*
X135553430Y-137662560D02*
X135472618Y-137527873D01*
X135472618Y-137527873D02*
X135445680Y-137447060D01*
X135445680Y-137447060D02*
X135445680Y-137393186D01*
X135445680Y-137393186D02*
X135472618Y-137312373D01*
X106442407Y-165678584D02*
X106792593Y-165328398D01*
X106792593Y-165328398D02*
X106819531Y-165732459D01*
X106819531Y-165732459D02*
X106900343Y-165651646D01*
X106900343Y-165651646D02*
X106981155Y-165624709D01*
X106981155Y-165624709D02*
X107035030Y-165624709D01*
X107035030Y-165624709D02*
X107115842Y-165651646D01*
X107115842Y-165651646D02*
X107250529Y-165786333D01*
X107250529Y-165786333D02*
X107277467Y-165867146D01*
X107277467Y-165867146D02*
X107277467Y-165921020D01*
X107277467Y-165921020D02*
X107250529Y-166001833D01*
X107250529Y-166001833D02*
X107088905Y-166163457D01*
X107088905Y-166163457D02*
X107008093Y-166190394D01*
X107008093Y-166190394D02*
X106954218Y-166190394D01*
X106954218Y-165166773D02*
X107708465Y-165543897D01*
X107708465Y-165543897D02*
X107331342Y-164789649D01*
X107466028Y-164654963D02*
X107816215Y-164304776D01*
X107816215Y-164304776D02*
X107843152Y-164708837D01*
X107843152Y-164708837D02*
X107923964Y-164628025D01*
X107923964Y-164628025D02*
X108004776Y-164601088D01*
X108004776Y-164601088D02*
X108058651Y-164601088D01*
X108058651Y-164601088D02*
X108139464Y-164628025D01*
X108139464Y-164628025D02*
X108274151Y-164762712D01*
X108274151Y-164762712D02*
X108301088Y-164843524D01*
X108301088Y-164843524D02*
X108301088Y-164897399D01*
X108301088Y-164897399D02*
X108274151Y-164978211D01*
X108274151Y-164978211D02*
X108112526Y-165139836D01*
X108112526Y-165139836D02*
X108031714Y-165166773D01*
X108031714Y-165166773D02*
X107977839Y-165166773D01*
X108543525Y-164816587D02*
X108974523Y-164385588D01*
X108759024Y-163900715D02*
X108947586Y-163712153D01*
X109324709Y-163927652D02*
X109055335Y-164197026D01*
X109055335Y-164197026D02*
X108489650Y-163631341D01*
X108489650Y-163631341D02*
X108759024Y-163361967D01*
X109567146Y-163685215D02*
X109001461Y-163119530D01*
X109001461Y-163119530D02*
X109890395Y-163361967D01*
X109890395Y-163361967D02*
X109324710Y-162796281D01*
X133933372Y-148741494D02*
X133852560Y-148768431D01*
X133852560Y-148768431D02*
X133771748Y-148849243D01*
X133771748Y-148849243D02*
X133717873Y-148956993D01*
X133717873Y-148956993D02*
X133717873Y-149064742D01*
X133717873Y-149064742D02*
X133744810Y-149145555D01*
X133744810Y-149145555D02*
X133825623Y-149280242D01*
X133825623Y-149280242D02*
X133906435Y-149361054D01*
X133906435Y-149361054D02*
X134041122Y-149441866D01*
X134041122Y-149441866D02*
X134121934Y-149468803D01*
X134121934Y-149468803D02*
X134229684Y-149468803D01*
X134229684Y-149468803D02*
X134337433Y-149414929D01*
X134337433Y-149414929D02*
X134391308Y-149361054D01*
X134391308Y-149361054D02*
X134445183Y-149253304D01*
X134445183Y-149253304D02*
X134445183Y-149199429D01*
X134445183Y-149199429D02*
X134256621Y-149010868D01*
X134256621Y-149010868D02*
X134148871Y-149118617D01*
X134741494Y-149010868D02*
X134175809Y-148445182D01*
X134175809Y-148445182D02*
X134391308Y-148229683D01*
X134391308Y-148229683D02*
X134472120Y-148202746D01*
X134472120Y-148202746D02*
X134525995Y-148202746D01*
X134525995Y-148202746D02*
X134606807Y-148229683D01*
X134606807Y-148229683D02*
X134687619Y-148310495D01*
X134687619Y-148310495D02*
X134714557Y-148391307D01*
X134714557Y-148391307D02*
X134714557Y-148445182D01*
X134714557Y-148445182D02*
X134687619Y-148525994D01*
X134687619Y-148525994D02*
X134472120Y-148741494D01*
X134687619Y-147933372D02*
X135064743Y-147556248D01*
X135064743Y-147556248D02*
X135387992Y-148364370D01*
X106075064Y-161854049D02*
X106344438Y-161584675D01*
X106182813Y-162069549D02*
X105805690Y-161315301D01*
X105805690Y-161315301D02*
X106559937Y-161692425D01*
X106748499Y-161503863D02*
X106182813Y-160938178D01*
X106182813Y-160938178D02*
X106317500Y-160803491D01*
X106317500Y-160803491D02*
X106425250Y-160749616D01*
X106425250Y-160749616D02*
X106532999Y-160749616D01*
X106532999Y-160749616D02*
X106613812Y-160776553D01*
X106613812Y-160776553D02*
X106748499Y-160857366D01*
X106748499Y-160857366D02*
X106829311Y-160938178D01*
X106829311Y-160938178D02*
X106910123Y-161072865D01*
X106910123Y-161072865D02*
X106937060Y-161153677D01*
X106937060Y-161153677D02*
X106937060Y-161261427D01*
X106937060Y-161261427D02*
X106883186Y-161369176D01*
X106883186Y-161369176D02*
X106748499Y-161503863D01*
X107583558Y-160561054D02*
X107583558Y-160614929D01*
X107583558Y-160614929D02*
X107529683Y-160722679D01*
X107529683Y-160722679D02*
X107475808Y-160776553D01*
X107475808Y-160776553D02*
X107368059Y-160830428D01*
X107368059Y-160830428D02*
X107260309Y-160830428D01*
X107260309Y-160830428D02*
X107179497Y-160803491D01*
X107179497Y-160803491D02*
X107044810Y-160722679D01*
X107044810Y-160722679D02*
X106963998Y-160641866D01*
X106963998Y-160641866D02*
X106883186Y-160507179D01*
X106883186Y-160507179D02*
X106856248Y-160426367D01*
X106856248Y-160426367D02*
X106856248Y-160318618D01*
X106856248Y-160318618D02*
X106910123Y-160210868D01*
X106910123Y-160210868D02*
X106963998Y-160156993D01*
X106963998Y-160156993D02*
X107071747Y-160103118D01*
X107071747Y-160103118D02*
X107125622Y-160103118D01*
X107799057Y-160561054D02*
X108230056Y-160130056D01*
X107664370Y-159456621D02*
X108418618Y-159833744D01*
X108418618Y-159833744D02*
X108041494Y-159079497D01*
X109118990Y-159133372D02*
X108661054Y-159052560D01*
X108795741Y-159456621D02*
X108230056Y-158890935D01*
X108230056Y-158890935D02*
X108445555Y-158675436D01*
X108445555Y-158675436D02*
X108526367Y-158648499D01*
X108526367Y-158648499D02*
X108580242Y-158648499D01*
X108580242Y-158648499D02*
X108661054Y-158675436D01*
X108661054Y-158675436D02*
X108741866Y-158756248D01*
X108741866Y-158756248D02*
X108768804Y-158837061D01*
X108768804Y-158837061D02*
X108768804Y-158890935D01*
X108768804Y-158890935D02*
X108741866Y-158971748D01*
X108741866Y-158971748D02*
X108526367Y-159187247D01*
X109065115Y-158594624D02*
X109253677Y-158406062D01*
X109630800Y-158621561D02*
X109361426Y-158890935D01*
X109361426Y-158890935D02*
X108795741Y-158325250D01*
X108795741Y-158325250D02*
X109065115Y-158055876D01*
X109765488Y-157894251D02*
X109576926Y-158082813D01*
X109873237Y-158379125D02*
X109307552Y-157813439D01*
X109307552Y-157813439D02*
X109576926Y-157544065D01*
X108406435Y-166518431D02*
X108325623Y-166545368D01*
X108325623Y-166545368D02*
X108244811Y-166626180D01*
X108244811Y-166626180D02*
X108190936Y-166733930D01*
X108190936Y-166733930D02*
X108190936Y-166841680D01*
X108190936Y-166841680D02*
X108217873Y-166922492D01*
X108217873Y-166922492D02*
X108298685Y-167057179D01*
X108298685Y-167057179D02*
X108379498Y-167137991D01*
X108379498Y-167137991D02*
X108514185Y-167218803D01*
X108514185Y-167218803D02*
X108594997Y-167245741D01*
X108594997Y-167245741D02*
X108702746Y-167245741D01*
X108702746Y-167245741D02*
X108810496Y-167191866D01*
X108810496Y-167191866D02*
X108864371Y-167137991D01*
X108864371Y-167137991D02*
X108918246Y-167030241D01*
X108918246Y-167030241D02*
X108918246Y-166976367D01*
X108918246Y-166976367D02*
X108729684Y-166787805D01*
X108729684Y-166787805D02*
X108621934Y-166895554D01*
X109214557Y-166787805D02*
X108648872Y-166222119D01*
X108648872Y-166222119D02*
X109537806Y-166464556D01*
X109537806Y-166464556D02*
X108972120Y-165898871D01*
X109807180Y-166195182D02*
X109241494Y-165629497D01*
X109241494Y-165629497D02*
X109376181Y-165494810D01*
X109376181Y-165494810D02*
X109483931Y-165440935D01*
X109483931Y-165440935D02*
X109591680Y-165440935D01*
X109591680Y-165440935D02*
X109672493Y-165467872D01*
X109672493Y-165467872D02*
X109807180Y-165548685D01*
X109807180Y-165548685D02*
X109887992Y-165629497D01*
X109887992Y-165629497D02*
X109968804Y-165764184D01*
X109968804Y-165764184D02*
X109995741Y-165844996D01*
X109995741Y-165844996D02*
X109995741Y-165952746D01*
X109995741Y-165952746D02*
X109941867Y-166060495D01*
X109941867Y-166060495D02*
X109807180Y-166195182D01*
X107909998Y-156854868D02*
X107829185Y-156881805D01*
X107829185Y-156881805D02*
X107748373Y-156962618D01*
X107748373Y-156962618D02*
X107694498Y-157070367D01*
X107694498Y-157070367D02*
X107694498Y-157178117D01*
X107694498Y-157178117D02*
X107721436Y-157258929D01*
X107721436Y-157258929D02*
X107802248Y-157393616D01*
X107802248Y-157393616D02*
X107883060Y-157474428D01*
X107883060Y-157474428D02*
X108017747Y-157555241D01*
X108017747Y-157555241D02*
X108098560Y-157582178D01*
X108098560Y-157582178D02*
X108206309Y-157582178D01*
X108206309Y-157582178D02*
X108314059Y-157528303D01*
X108314059Y-157528303D02*
X108367934Y-157474428D01*
X108367934Y-157474428D02*
X108421808Y-157366679D01*
X108421808Y-157366679D02*
X108421808Y-157312804D01*
X108421808Y-157312804D02*
X108233247Y-157124242D01*
X108233247Y-157124242D02*
X108125497Y-157231992D01*
X108718120Y-157124242D02*
X108152434Y-156558557D01*
X108152434Y-156558557D02*
X108367934Y-156343057D01*
X108367934Y-156343057D02*
X108448746Y-156316120D01*
X108448746Y-156316120D02*
X108502621Y-156316120D01*
X108502621Y-156316120D02*
X108583433Y-156343057D01*
X108583433Y-156343057D02*
X108664245Y-156423870D01*
X108664245Y-156423870D02*
X108691182Y-156504682D01*
X108691182Y-156504682D02*
X108691182Y-156558557D01*
X108691182Y-156558557D02*
X108664245Y-156639369D01*
X108664245Y-156639369D02*
X108448746Y-156854868D01*
X108745057Y-156073683D02*
X108745057Y-156019809D01*
X108745057Y-156019809D02*
X108771995Y-155938996D01*
X108771995Y-155938996D02*
X108906682Y-155804309D01*
X108906682Y-155804309D02*
X108987494Y-155777372D01*
X108987494Y-155777372D02*
X109041369Y-155777372D01*
X109041369Y-155777372D02*
X109122181Y-155804309D01*
X109122181Y-155804309D02*
X109176056Y-155858184D01*
X109176056Y-155858184D02*
X109229930Y-155965934D01*
X109229930Y-155965934D02*
X109229930Y-156612431D01*
X109229930Y-156612431D02*
X109580117Y-156262245D01*
X109580117Y-155615747D02*
X109499305Y-155642685D01*
X109499305Y-155642685D02*
X109445430Y-155642685D01*
X109445430Y-155642685D02*
X109364618Y-155615747D01*
X109364618Y-155615747D02*
X109337680Y-155588810D01*
X109337680Y-155588810D02*
X109310743Y-155507998D01*
X109310743Y-155507998D02*
X109310743Y-155454123D01*
X109310743Y-155454123D02*
X109337680Y-155373311D01*
X109337680Y-155373311D02*
X109445430Y-155265561D01*
X109445430Y-155265561D02*
X109526242Y-155238624D01*
X109526242Y-155238624D02*
X109580117Y-155238624D01*
X109580117Y-155238624D02*
X109660929Y-155265561D01*
X109660929Y-155265561D02*
X109687866Y-155292499D01*
X109687866Y-155292499D02*
X109714804Y-155373311D01*
X109714804Y-155373311D02*
X109714804Y-155427186D01*
X109714804Y-155427186D02*
X109687866Y-155507998D01*
X109687866Y-155507998D02*
X109580117Y-155615747D01*
X109580117Y-155615747D02*
X109553179Y-155696560D01*
X109553179Y-155696560D02*
X109553179Y-155750434D01*
X109553179Y-155750434D02*
X109580117Y-155831247D01*
X109580117Y-155831247D02*
X109687866Y-155938996D01*
X109687866Y-155938996D02*
X109768679Y-155965934D01*
X109768679Y-155965934D02*
X109822553Y-155965934D01*
X109822553Y-155965934D02*
X109903366Y-155938996D01*
X109903366Y-155938996D02*
X110011115Y-155831247D01*
X110011115Y-155831247D02*
X110038053Y-155750434D01*
X110038053Y-155750434D02*
X110038053Y-155696560D01*
X110038053Y-155696560D02*
X110011115Y-155615747D01*
X110011115Y-155615747D02*
X109903366Y-155507998D01*
X109903366Y-155507998D02*
X109822553Y-155481060D01*
X109822553Y-155481060D02*
X109768679Y-155481060D01*
X109768679Y-155481060D02*
X109687866Y-155507998D01*
X107909998Y-151510868D02*
X107829185Y-151537805D01*
X107829185Y-151537805D02*
X107748373Y-151618618D01*
X107748373Y-151618618D02*
X107694498Y-151726367D01*
X107694498Y-151726367D02*
X107694498Y-151834117D01*
X107694498Y-151834117D02*
X107721436Y-151914929D01*
X107721436Y-151914929D02*
X107802248Y-152049616D01*
X107802248Y-152049616D02*
X107883060Y-152130428D01*
X107883060Y-152130428D02*
X108017747Y-152211241D01*
X108017747Y-152211241D02*
X108098560Y-152238178D01*
X108098560Y-152238178D02*
X108206309Y-152238178D01*
X108206309Y-152238178D02*
X108314059Y-152184303D01*
X108314059Y-152184303D02*
X108367934Y-152130428D01*
X108367934Y-152130428D02*
X108421808Y-152022679D01*
X108421808Y-152022679D02*
X108421808Y-151968804D01*
X108421808Y-151968804D02*
X108233247Y-151780242D01*
X108233247Y-151780242D02*
X108125497Y-151887992D01*
X108718120Y-151780242D02*
X108152434Y-151214557D01*
X108152434Y-151214557D02*
X108367934Y-150999057D01*
X108367934Y-150999057D02*
X108448746Y-150972120D01*
X108448746Y-150972120D02*
X108502621Y-150972120D01*
X108502621Y-150972120D02*
X108583433Y-150999057D01*
X108583433Y-150999057D02*
X108664245Y-151079870D01*
X108664245Y-151079870D02*
X108691182Y-151160682D01*
X108691182Y-151160682D02*
X108691182Y-151214557D01*
X108691182Y-151214557D02*
X108664245Y-151295369D01*
X108664245Y-151295369D02*
X108448746Y-151510868D01*
X108745057Y-150729683D02*
X108745057Y-150675809D01*
X108745057Y-150675809D02*
X108771995Y-150594996D01*
X108771995Y-150594996D02*
X108906682Y-150460309D01*
X108906682Y-150460309D02*
X108987494Y-150433372D01*
X108987494Y-150433372D02*
X109041369Y-150433372D01*
X109041369Y-150433372D02*
X109122181Y-150460309D01*
X109122181Y-150460309D02*
X109176056Y-150514184D01*
X109176056Y-150514184D02*
X109229930Y-150621934D01*
X109229930Y-150621934D02*
X109229930Y-151268431D01*
X109229930Y-151268431D02*
X109580117Y-150918245D01*
X109202993Y-150163998D02*
X109580117Y-149786874D01*
X109580117Y-149786874D02*
X109903366Y-150594996D01*
X107909998Y-136280868D02*
X107829185Y-136307805D01*
X107829185Y-136307805D02*
X107748373Y-136388618D01*
X107748373Y-136388618D02*
X107694498Y-136496367D01*
X107694498Y-136496367D02*
X107694498Y-136604117D01*
X107694498Y-136604117D02*
X107721436Y-136684929D01*
X107721436Y-136684929D02*
X107802248Y-136819616D01*
X107802248Y-136819616D02*
X107883060Y-136900428D01*
X107883060Y-136900428D02*
X108017747Y-136981241D01*
X108017747Y-136981241D02*
X108098560Y-137008178D01*
X108098560Y-137008178D02*
X108206309Y-137008178D01*
X108206309Y-137008178D02*
X108314059Y-136954303D01*
X108314059Y-136954303D02*
X108367934Y-136900428D01*
X108367934Y-136900428D02*
X108421808Y-136792679D01*
X108421808Y-136792679D02*
X108421808Y-136738804D01*
X108421808Y-136738804D02*
X108233247Y-136550242D01*
X108233247Y-136550242D02*
X108125497Y-136657992D01*
X108718120Y-136550242D02*
X108152434Y-135984557D01*
X108152434Y-135984557D02*
X108367934Y-135769057D01*
X108367934Y-135769057D02*
X108448746Y-135742120D01*
X108448746Y-135742120D02*
X108502621Y-135742120D01*
X108502621Y-135742120D02*
X108583433Y-135769057D01*
X108583433Y-135769057D02*
X108664245Y-135849870D01*
X108664245Y-135849870D02*
X108691182Y-135930682D01*
X108691182Y-135930682D02*
X108691182Y-135984557D01*
X108691182Y-135984557D02*
X108664245Y-136065369D01*
X108664245Y-136065369D02*
X108448746Y-136280868D01*
X108745057Y-135499683D02*
X108745057Y-135445809D01*
X108745057Y-135445809D02*
X108771995Y-135364996D01*
X108771995Y-135364996D02*
X108906682Y-135230309D01*
X108906682Y-135230309D02*
X108987494Y-135203372D01*
X108987494Y-135203372D02*
X109041369Y-135203372D01*
X109041369Y-135203372D02*
X109122181Y-135230309D01*
X109122181Y-135230309D02*
X109176056Y-135284184D01*
X109176056Y-135284184D02*
X109229930Y-135391934D01*
X109229930Y-135391934D02*
X109229930Y-136038431D01*
X109229930Y-136038431D02*
X109580117Y-135688245D01*
X109364618Y-134772373D02*
X109418492Y-134718499D01*
X109418492Y-134718499D02*
X109499305Y-134691561D01*
X109499305Y-134691561D02*
X109553179Y-134691561D01*
X109553179Y-134691561D02*
X109633992Y-134718499D01*
X109633992Y-134718499D02*
X109768679Y-134799311D01*
X109768679Y-134799311D02*
X109903366Y-134933998D01*
X109903366Y-134933998D02*
X109984178Y-135068685D01*
X109984178Y-135068685D02*
X110011115Y-135149497D01*
X110011115Y-135149497D02*
X110011115Y-135203372D01*
X110011115Y-135203372D02*
X109984178Y-135284184D01*
X109984178Y-135284184D02*
X109930303Y-135338059D01*
X109930303Y-135338059D02*
X109849491Y-135364996D01*
X109849491Y-135364996D02*
X109795616Y-135364996D01*
X109795616Y-135364996D02*
X109714804Y-135338059D01*
X109714804Y-135338059D02*
X109580117Y-135257247D01*
X109580117Y-135257247D02*
X109445430Y-135122560D01*
X109445430Y-135122560D02*
X109364618Y-134987873D01*
X109364618Y-134987873D02*
X109337680Y-134907060D01*
X109337680Y-134907060D02*
X109337680Y-134853186D01*
X109337680Y-134853186D02*
X109364618Y-134772373D01*
X107909998Y-126120868D02*
X107829185Y-126147805D01*
X107829185Y-126147805D02*
X107748373Y-126228618D01*
X107748373Y-126228618D02*
X107694498Y-126336367D01*
X107694498Y-126336367D02*
X107694498Y-126444117D01*
X107694498Y-126444117D02*
X107721436Y-126524929D01*
X107721436Y-126524929D02*
X107802248Y-126659616D01*
X107802248Y-126659616D02*
X107883060Y-126740428D01*
X107883060Y-126740428D02*
X108017747Y-126821241D01*
X108017747Y-126821241D02*
X108098560Y-126848178D01*
X108098560Y-126848178D02*
X108206309Y-126848178D01*
X108206309Y-126848178D02*
X108314059Y-126794303D01*
X108314059Y-126794303D02*
X108367934Y-126740428D01*
X108367934Y-126740428D02*
X108421808Y-126632679D01*
X108421808Y-126632679D02*
X108421808Y-126578804D01*
X108421808Y-126578804D02*
X108233247Y-126390242D01*
X108233247Y-126390242D02*
X108125497Y-126497992D01*
X108718120Y-126390242D02*
X108152434Y-125824557D01*
X108152434Y-125824557D02*
X108367934Y-125609057D01*
X108367934Y-125609057D02*
X108448746Y-125582120D01*
X108448746Y-125582120D02*
X108502621Y-125582120D01*
X108502621Y-125582120D02*
X108583433Y-125609057D01*
X108583433Y-125609057D02*
X108664245Y-125689870D01*
X108664245Y-125689870D02*
X108691182Y-125770682D01*
X108691182Y-125770682D02*
X108691182Y-125824557D01*
X108691182Y-125824557D02*
X108664245Y-125905369D01*
X108664245Y-125905369D02*
X108448746Y-126120868D01*
X109580117Y-125528245D02*
X109256868Y-125851494D01*
X109418492Y-125689870D02*
X108852807Y-125124184D01*
X108852807Y-125124184D02*
X108879744Y-125258871D01*
X108879744Y-125258871D02*
X108879744Y-125366621D01*
X108879744Y-125366621D02*
X108852807Y-125447433D01*
X109202993Y-124773998D02*
X109580117Y-124396874D01*
X109580117Y-124396874D02*
X109903366Y-125204996D01*
X134033372Y-151251494D02*
X133952560Y-151278431D01*
X133952560Y-151278431D02*
X133871748Y-151359243D01*
X133871748Y-151359243D02*
X133817873Y-151466993D01*
X133817873Y-151466993D02*
X133817873Y-151574742D01*
X133817873Y-151574742D02*
X133844810Y-151655555D01*
X133844810Y-151655555D02*
X133925623Y-151790242D01*
X133925623Y-151790242D02*
X134006435Y-151871054D01*
X134006435Y-151871054D02*
X134141122Y-151951866D01*
X134141122Y-151951866D02*
X134221934Y-151978803D01*
X134221934Y-151978803D02*
X134329684Y-151978803D01*
X134329684Y-151978803D02*
X134437433Y-151924929D01*
X134437433Y-151924929D02*
X134491308Y-151871054D01*
X134491308Y-151871054D02*
X134545183Y-151763304D01*
X134545183Y-151763304D02*
X134545183Y-151709429D01*
X134545183Y-151709429D02*
X134356621Y-151520868D01*
X134356621Y-151520868D02*
X134248871Y-151628617D01*
X134841494Y-151520868D02*
X134275809Y-150955182D01*
X134275809Y-150955182D02*
X134491308Y-150739683D01*
X134491308Y-150739683D02*
X134572120Y-150712746D01*
X134572120Y-150712746D02*
X134625995Y-150712746D01*
X134625995Y-150712746D02*
X134706807Y-150739683D01*
X134706807Y-150739683D02*
X134787619Y-150820495D01*
X134787619Y-150820495D02*
X134814557Y-150901307D01*
X134814557Y-150901307D02*
X134814557Y-150955182D01*
X134814557Y-150955182D02*
X134787619Y-151035994D01*
X134787619Y-151035994D02*
X134572120Y-151251494D01*
X135083931Y-150147060D02*
X134976181Y-150254810D01*
X134976181Y-150254810D02*
X134949244Y-150335622D01*
X134949244Y-150335622D02*
X134949244Y-150389497D01*
X134949244Y-150389497D02*
X134976181Y-150524184D01*
X134976181Y-150524184D02*
X135056993Y-150658871D01*
X135056993Y-150658871D02*
X135272493Y-150874370D01*
X135272493Y-150874370D02*
X135353305Y-150901307D01*
X135353305Y-150901307D02*
X135407180Y-150901307D01*
X135407180Y-150901307D02*
X135487992Y-150874370D01*
X135487992Y-150874370D02*
X135595741Y-150766620D01*
X135595741Y-150766620D02*
X135622679Y-150685808D01*
X135622679Y-150685808D02*
X135622679Y-150631933D01*
X135622679Y-150631933D02*
X135595741Y-150551121D01*
X135595741Y-150551121D02*
X135461054Y-150416434D01*
X135461054Y-150416434D02*
X135380242Y-150389497D01*
X135380242Y-150389497D02*
X135326367Y-150389497D01*
X135326367Y-150389497D02*
X135245555Y-150416434D01*
X135245555Y-150416434D02*
X135137806Y-150524184D01*
X135137806Y-150524184D02*
X135110868Y-150604996D01*
X135110868Y-150604996D02*
X135110868Y-150658871D01*
X135110868Y-150658871D02*
X135137806Y-150739683D01*
X108010123Y-161610868D02*
X108360309Y-161260682D01*
X108360309Y-161260682D02*
X108387247Y-161664743D01*
X108387247Y-161664743D02*
X108468059Y-161583931D01*
X108468059Y-161583931D02*
X108548871Y-161556993D01*
X108548871Y-161556993D02*
X108602746Y-161556993D01*
X108602746Y-161556993D02*
X108683558Y-161583931D01*
X108683558Y-161583931D02*
X108818245Y-161718618D01*
X108818245Y-161718618D02*
X108845182Y-161799430D01*
X108845182Y-161799430D02*
X108845182Y-161853305D01*
X108845182Y-161853305D02*
X108818245Y-161934117D01*
X108818245Y-161934117D02*
X108656621Y-162095741D01*
X108656621Y-162095741D02*
X108575808Y-162122679D01*
X108575808Y-162122679D02*
X108521934Y-162122679D01*
X108521934Y-161099057D02*
X109276181Y-161476181D01*
X109276181Y-161476181D02*
X108899057Y-160721934D01*
X109033744Y-160587247D02*
X109383930Y-160237061D01*
X109383930Y-160237061D02*
X109410868Y-160641122D01*
X109410868Y-160641122D02*
X109491680Y-160560309D01*
X109491680Y-160560309D02*
X109572492Y-160533372D01*
X109572492Y-160533372D02*
X109626367Y-160533372D01*
X109626367Y-160533372D02*
X109707179Y-160560309D01*
X109707179Y-160560309D02*
X109841866Y-160694996D01*
X109841866Y-160694996D02*
X109868804Y-160775809D01*
X109868804Y-160775809D02*
X109868804Y-160829683D01*
X109868804Y-160829683D02*
X109841866Y-160910496D01*
X109841866Y-160910496D02*
X109680242Y-161072120D01*
X109680242Y-161072120D02*
X109599430Y-161099057D01*
X109599430Y-161099057D02*
X109545555Y-161099057D01*
X107909998Y-123580868D02*
X107829185Y-123607805D01*
X107829185Y-123607805D02*
X107748373Y-123688618D01*
X107748373Y-123688618D02*
X107694498Y-123796367D01*
X107694498Y-123796367D02*
X107694498Y-123904117D01*
X107694498Y-123904117D02*
X107721436Y-123984929D01*
X107721436Y-123984929D02*
X107802248Y-124119616D01*
X107802248Y-124119616D02*
X107883060Y-124200428D01*
X107883060Y-124200428D02*
X108017747Y-124281241D01*
X108017747Y-124281241D02*
X108098560Y-124308178D01*
X108098560Y-124308178D02*
X108206309Y-124308178D01*
X108206309Y-124308178D02*
X108314059Y-124254303D01*
X108314059Y-124254303D02*
X108367934Y-124200428D01*
X108367934Y-124200428D02*
X108421808Y-124092679D01*
X108421808Y-124092679D02*
X108421808Y-124038804D01*
X108421808Y-124038804D02*
X108233247Y-123850242D01*
X108233247Y-123850242D02*
X108125497Y-123957992D01*
X108718120Y-123850242D02*
X108152434Y-123284557D01*
X108152434Y-123284557D02*
X108367934Y-123069057D01*
X108367934Y-123069057D02*
X108448746Y-123042120D01*
X108448746Y-123042120D02*
X108502621Y-123042120D01*
X108502621Y-123042120D02*
X108583433Y-123069057D01*
X108583433Y-123069057D02*
X108664245Y-123149870D01*
X108664245Y-123149870D02*
X108691182Y-123230682D01*
X108691182Y-123230682D02*
X108691182Y-123284557D01*
X108691182Y-123284557D02*
X108664245Y-123365369D01*
X108664245Y-123365369D02*
X108448746Y-123580868D01*
X109580117Y-122988245D02*
X109256868Y-123311494D01*
X109418492Y-123149870D02*
X108852807Y-122584184D01*
X108852807Y-122584184D02*
X108879744Y-122718871D01*
X108879744Y-122718871D02*
X108879744Y-122826621D01*
X108879744Y-122826621D02*
X108852807Y-122907433D01*
X109499305Y-121937686D02*
X109391555Y-122045436D01*
X109391555Y-122045436D02*
X109364618Y-122126248D01*
X109364618Y-122126248D02*
X109364618Y-122180123D01*
X109364618Y-122180123D02*
X109391555Y-122314810D01*
X109391555Y-122314810D02*
X109472367Y-122449497D01*
X109472367Y-122449497D02*
X109687866Y-122664996D01*
X109687866Y-122664996D02*
X109768679Y-122691934D01*
X109768679Y-122691934D02*
X109822553Y-122691934D01*
X109822553Y-122691934D02*
X109903366Y-122664996D01*
X109903366Y-122664996D02*
X110011115Y-122557247D01*
X110011115Y-122557247D02*
X110038053Y-122476434D01*
X110038053Y-122476434D02*
X110038053Y-122422560D01*
X110038053Y-122422560D02*
X110011115Y-122341747D01*
X110011115Y-122341747D02*
X109876428Y-122207060D01*
X109876428Y-122207060D02*
X109795616Y-122180123D01*
X109795616Y-122180123D02*
X109741741Y-122180123D01*
X109741741Y-122180123D02*
X109660929Y-122207060D01*
X109660929Y-122207060D02*
X109553179Y-122314810D01*
X109553179Y-122314810D02*
X109526242Y-122395622D01*
X109526242Y-122395622D02*
X109526242Y-122449497D01*
X109526242Y-122449497D02*
X109553179Y-122530309D01*
X108406435Y-128418431D02*
X108325623Y-128445368D01*
X108325623Y-128445368D02*
X108244811Y-128526180D01*
X108244811Y-128526180D02*
X108190936Y-128633930D01*
X108190936Y-128633930D02*
X108190936Y-128741680D01*
X108190936Y-128741680D02*
X108217873Y-128822492D01*
X108217873Y-128822492D02*
X108298685Y-128957179D01*
X108298685Y-128957179D02*
X108379498Y-129037991D01*
X108379498Y-129037991D02*
X108514185Y-129118803D01*
X108514185Y-129118803D02*
X108594997Y-129145741D01*
X108594997Y-129145741D02*
X108702746Y-129145741D01*
X108702746Y-129145741D02*
X108810496Y-129091866D01*
X108810496Y-129091866D02*
X108864371Y-129037991D01*
X108864371Y-129037991D02*
X108918246Y-128930241D01*
X108918246Y-128930241D02*
X108918246Y-128876367D01*
X108918246Y-128876367D02*
X108729684Y-128687805D01*
X108729684Y-128687805D02*
X108621934Y-128795554D01*
X109214557Y-128687805D02*
X108648872Y-128122119D01*
X108648872Y-128122119D02*
X109537806Y-128364556D01*
X109537806Y-128364556D02*
X108972120Y-127798871D01*
X109807180Y-128095182D02*
X109241494Y-127529497D01*
X109241494Y-127529497D02*
X109376181Y-127394810D01*
X109376181Y-127394810D02*
X109483931Y-127340935D01*
X109483931Y-127340935D02*
X109591680Y-127340935D01*
X109591680Y-127340935D02*
X109672493Y-127367872D01*
X109672493Y-127367872D02*
X109807180Y-127448685D01*
X109807180Y-127448685D02*
X109887992Y-127529497D01*
X109887992Y-127529497D02*
X109968804Y-127664184D01*
X109968804Y-127664184D02*
X109995741Y-127744996D01*
X109995741Y-127744996D02*
X109995741Y-127852746D01*
X109995741Y-127852746D02*
X109941867Y-127960495D01*
X109941867Y-127960495D02*
X109807180Y-128095182D01*
X134017998Y-131200868D02*
X133937185Y-131227805D01*
X133937185Y-131227805D02*
X133856373Y-131308618D01*
X133856373Y-131308618D02*
X133802498Y-131416367D01*
X133802498Y-131416367D02*
X133802498Y-131524117D01*
X133802498Y-131524117D02*
X133829436Y-131604929D01*
X133829436Y-131604929D02*
X133910248Y-131739616D01*
X133910248Y-131739616D02*
X133991060Y-131820428D01*
X133991060Y-131820428D02*
X134125747Y-131901241D01*
X134125747Y-131901241D02*
X134206560Y-131928178D01*
X134206560Y-131928178D02*
X134314309Y-131928178D01*
X134314309Y-131928178D02*
X134422059Y-131874303D01*
X134422059Y-131874303D02*
X134475934Y-131820428D01*
X134475934Y-131820428D02*
X134529808Y-131712679D01*
X134529808Y-131712679D02*
X134529808Y-131658804D01*
X134529808Y-131658804D02*
X134341247Y-131470242D01*
X134341247Y-131470242D02*
X134233497Y-131577992D01*
X134826120Y-131470242D02*
X134260434Y-130904557D01*
X134260434Y-130904557D02*
X134475934Y-130689057D01*
X134475934Y-130689057D02*
X134556746Y-130662120D01*
X134556746Y-130662120D02*
X134610621Y-130662120D01*
X134610621Y-130662120D02*
X134691433Y-130689057D01*
X134691433Y-130689057D02*
X134772245Y-130769870D01*
X134772245Y-130769870D02*
X134799182Y-130850682D01*
X134799182Y-130850682D02*
X134799182Y-130904557D01*
X134799182Y-130904557D02*
X134772245Y-130985369D01*
X134772245Y-130985369D02*
X134556746Y-131200868D01*
X135688117Y-130608245D02*
X135364868Y-130931494D01*
X135526492Y-130769870D02*
X134960807Y-130204184D01*
X134960807Y-130204184D02*
X134987744Y-130338871D01*
X134987744Y-130338871D02*
X134987744Y-130446621D01*
X134987744Y-130446621D02*
X134960807Y-130527433D01*
X135310993Y-129853998D02*
X135661179Y-129503812D01*
X135661179Y-129503812D02*
X135688117Y-129907873D01*
X135688117Y-129907873D02*
X135768929Y-129827060D01*
X135768929Y-129827060D02*
X135849741Y-129800123D01*
X135849741Y-129800123D02*
X135903616Y-129800123D01*
X135903616Y-129800123D02*
X135984428Y-129827060D01*
X135984428Y-129827060D02*
X136119115Y-129961747D01*
X136119115Y-129961747D02*
X136146053Y-130042560D01*
X136146053Y-130042560D02*
X136146053Y-130096434D01*
X136146053Y-130096434D02*
X136119115Y-130177247D01*
X136119115Y-130177247D02*
X135957491Y-130338871D01*
X135957491Y-130338871D02*
X135876679Y-130365808D01*
X135876679Y-130365808D02*
X135822804Y-130365808D01*
X134006435Y-153818431D02*
X133925623Y-153845368D01*
X133925623Y-153845368D02*
X133844811Y-153926180D01*
X133844811Y-153926180D02*
X133790936Y-154033930D01*
X133790936Y-154033930D02*
X133790936Y-154141680D01*
X133790936Y-154141680D02*
X133817873Y-154222492D01*
X133817873Y-154222492D02*
X133898685Y-154357179D01*
X133898685Y-154357179D02*
X133979498Y-154437991D01*
X133979498Y-154437991D02*
X134114185Y-154518803D01*
X134114185Y-154518803D02*
X134194997Y-154545741D01*
X134194997Y-154545741D02*
X134302746Y-154545741D01*
X134302746Y-154545741D02*
X134410496Y-154491866D01*
X134410496Y-154491866D02*
X134464371Y-154437991D01*
X134464371Y-154437991D02*
X134518246Y-154330241D01*
X134518246Y-154330241D02*
X134518246Y-154276367D01*
X134518246Y-154276367D02*
X134329684Y-154087805D01*
X134329684Y-154087805D02*
X134221934Y-154195554D01*
X134814557Y-154087805D02*
X134248872Y-153522119D01*
X134248872Y-153522119D02*
X135137806Y-153764556D01*
X135137806Y-153764556D02*
X134572120Y-153198871D01*
X135407180Y-153495182D02*
X134841494Y-152929497D01*
X134841494Y-152929497D02*
X134976181Y-152794810D01*
X134976181Y-152794810D02*
X135083931Y-152740935D01*
X135083931Y-152740935D02*
X135191680Y-152740935D01*
X135191680Y-152740935D02*
X135272493Y-152767872D01*
X135272493Y-152767872D02*
X135407180Y-152848685D01*
X135407180Y-152848685D02*
X135487992Y-152929497D01*
X135487992Y-152929497D02*
X135568804Y-153064184D01*
X135568804Y-153064184D02*
X135595741Y-153144996D01*
X135595741Y-153144996D02*
X135595741Y-153252746D01*
X135595741Y-153252746D02*
X135541867Y-153360495D01*
X135541867Y-153360495D02*
X135407180Y-153495182D01*
X134163998Y-136280868D02*
X134083185Y-136307805D01*
X134083185Y-136307805D02*
X134002373Y-136388618D01*
X134002373Y-136388618D02*
X133948498Y-136496367D01*
X133948498Y-136496367D02*
X133948498Y-136604117D01*
X133948498Y-136604117D02*
X133975436Y-136684929D01*
X133975436Y-136684929D02*
X134056248Y-136819616D01*
X134056248Y-136819616D02*
X134137060Y-136900428D01*
X134137060Y-136900428D02*
X134271747Y-136981241D01*
X134271747Y-136981241D02*
X134352560Y-137008178D01*
X134352560Y-137008178D02*
X134460309Y-137008178D01*
X134460309Y-137008178D02*
X134568059Y-136954303D01*
X134568059Y-136954303D02*
X134621934Y-136900428D01*
X134621934Y-136900428D02*
X134675808Y-136792679D01*
X134675808Y-136792679D02*
X134675808Y-136738804D01*
X134675808Y-136738804D02*
X134487247Y-136550242D01*
X134487247Y-136550242D02*
X134379497Y-136657992D01*
X134972120Y-136550242D02*
X134406434Y-135984557D01*
X134406434Y-135984557D02*
X134621934Y-135769057D01*
X134621934Y-135769057D02*
X134702746Y-135742120D01*
X134702746Y-135742120D02*
X134756621Y-135742120D01*
X134756621Y-135742120D02*
X134837433Y-135769057D01*
X134837433Y-135769057D02*
X134918245Y-135849870D01*
X134918245Y-135849870D02*
X134945182Y-135930682D01*
X134945182Y-135930682D02*
X134945182Y-135984557D01*
X134945182Y-135984557D02*
X134918245Y-136065369D01*
X134918245Y-136065369D02*
X134702746Y-136280868D01*
X135834117Y-135688245D02*
X135510868Y-136011494D01*
X135672492Y-135849870D02*
X135106807Y-135284184D01*
X135106807Y-135284184D02*
X135133744Y-135418871D01*
X135133744Y-135418871D02*
X135133744Y-135526621D01*
X135133744Y-135526621D02*
X135106807Y-135607433D01*
X136372865Y-135149497D02*
X136049616Y-135472746D01*
X136211240Y-135311121D02*
X135645555Y-134745436D01*
X135645555Y-134745436D02*
X135672492Y-134880123D01*
X135672492Y-134880123D02*
X135672492Y-134987873D01*
X135672492Y-134987873D02*
X135645555Y-135068685D01*
X134017998Y-123580868D02*
X133937185Y-123607805D01*
X133937185Y-123607805D02*
X133856373Y-123688618D01*
X133856373Y-123688618D02*
X133802498Y-123796367D01*
X133802498Y-123796367D02*
X133802498Y-123904117D01*
X133802498Y-123904117D02*
X133829436Y-123984929D01*
X133829436Y-123984929D02*
X133910248Y-124119616D01*
X133910248Y-124119616D02*
X133991060Y-124200428D01*
X133991060Y-124200428D02*
X134125747Y-124281241D01*
X134125747Y-124281241D02*
X134206560Y-124308178D01*
X134206560Y-124308178D02*
X134314309Y-124308178D01*
X134314309Y-124308178D02*
X134422059Y-124254303D01*
X134422059Y-124254303D02*
X134475934Y-124200428D01*
X134475934Y-124200428D02*
X134529808Y-124092679D01*
X134529808Y-124092679D02*
X134529808Y-124038804D01*
X134529808Y-124038804D02*
X134341247Y-123850242D01*
X134341247Y-123850242D02*
X134233497Y-123957992D01*
X134826120Y-123850242D02*
X134260434Y-123284557D01*
X134260434Y-123284557D02*
X134475934Y-123069057D01*
X134475934Y-123069057D02*
X134556746Y-123042120D01*
X134556746Y-123042120D02*
X134610621Y-123042120D01*
X134610621Y-123042120D02*
X134691433Y-123069057D01*
X134691433Y-123069057D02*
X134772245Y-123149870D01*
X134772245Y-123149870D02*
X134799182Y-123230682D01*
X134799182Y-123230682D02*
X134799182Y-123284557D01*
X134799182Y-123284557D02*
X134772245Y-123365369D01*
X134772245Y-123365369D02*
X134556746Y-123580868D01*
X135688117Y-122988245D02*
X135364868Y-123311494D01*
X135526492Y-123149870D02*
X134960807Y-122584184D01*
X134960807Y-122584184D02*
X134987744Y-122718871D01*
X134987744Y-122718871D02*
X134987744Y-122826621D01*
X134987744Y-122826621D02*
X134960807Y-122907433D01*
X135634242Y-121910749D02*
X135364868Y-122180123D01*
X135364868Y-122180123D02*
X135607305Y-122476434D01*
X135607305Y-122476434D02*
X135607305Y-122422560D01*
X135607305Y-122422560D02*
X135634242Y-122341747D01*
X135634242Y-122341747D02*
X135768929Y-122207060D01*
X135768929Y-122207060D02*
X135849741Y-122180123D01*
X135849741Y-122180123D02*
X135903616Y-122180123D01*
X135903616Y-122180123D02*
X135984428Y-122207060D01*
X135984428Y-122207060D02*
X136119115Y-122341747D01*
X136119115Y-122341747D02*
X136146053Y-122422560D01*
X136146053Y-122422560D02*
X136146053Y-122476434D01*
X136146053Y-122476434D02*
X136119115Y-122557247D01*
X136119115Y-122557247D02*
X135984428Y-122691934D01*
X135984428Y-122691934D02*
X135903616Y-122718871D01*
X135903616Y-122718871D02*
X135849741Y-122718871D01*
X108406435Y-141118431D02*
X108325623Y-141145368D01*
X108325623Y-141145368D02*
X108244811Y-141226180D01*
X108244811Y-141226180D02*
X108190936Y-141333930D01*
X108190936Y-141333930D02*
X108190936Y-141441680D01*
X108190936Y-141441680D02*
X108217873Y-141522492D01*
X108217873Y-141522492D02*
X108298685Y-141657179D01*
X108298685Y-141657179D02*
X108379498Y-141737991D01*
X108379498Y-141737991D02*
X108514185Y-141818803D01*
X108514185Y-141818803D02*
X108594997Y-141845741D01*
X108594997Y-141845741D02*
X108702746Y-141845741D01*
X108702746Y-141845741D02*
X108810496Y-141791866D01*
X108810496Y-141791866D02*
X108864371Y-141737991D01*
X108864371Y-141737991D02*
X108918246Y-141630241D01*
X108918246Y-141630241D02*
X108918246Y-141576367D01*
X108918246Y-141576367D02*
X108729684Y-141387805D01*
X108729684Y-141387805D02*
X108621934Y-141495554D01*
X109214557Y-141387805D02*
X108648872Y-140822119D01*
X108648872Y-140822119D02*
X109537806Y-141064556D01*
X109537806Y-141064556D02*
X108972120Y-140498871D01*
X109807180Y-140795182D02*
X109241494Y-140229497D01*
X109241494Y-140229497D02*
X109376181Y-140094810D01*
X109376181Y-140094810D02*
X109483931Y-140040935D01*
X109483931Y-140040935D02*
X109591680Y-140040935D01*
X109591680Y-140040935D02*
X109672493Y-140067872D01*
X109672493Y-140067872D02*
X109807180Y-140148685D01*
X109807180Y-140148685D02*
X109887992Y-140229497D01*
X109887992Y-140229497D02*
X109968804Y-140364184D01*
X109968804Y-140364184D02*
X109995741Y-140444996D01*
X109995741Y-140444996D02*
X109995741Y-140552746D01*
X109995741Y-140552746D02*
X109941867Y-140660495D01*
X109941867Y-140660495D02*
X109807180Y-140795182D01*
X107909998Y-138810868D02*
X107829185Y-138837805D01*
X107829185Y-138837805D02*
X107748373Y-138918618D01*
X107748373Y-138918618D02*
X107694498Y-139026367D01*
X107694498Y-139026367D02*
X107694498Y-139134117D01*
X107694498Y-139134117D02*
X107721436Y-139214929D01*
X107721436Y-139214929D02*
X107802248Y-139349616D01*
X107802248Y-139349616D02*
X107883060Y-139430428D01*
X107883060Y-139430428D02*
X108017747Y-139511241D01*
X108017747Y-139511241D02*
X108098560Y-139538178D01*
X108098560Y-139538178D02*
X108206309Y-139538178D01*
X108206309Y-139538178D02*
X108314059Y-139484303D01*
X108314059Y-139484303D02*
X108367934Y-139430428D01*
X108367934Y-139430428D02*
X108421808Y-139322679D01*
X108421808Y-139322679D02*
X108421808Y-139268804D01*
X108421808Y-139268804D02*
X108233247Y-139080242D01*
X108233247Y-139080242D02*
X108125497Y-139187992D01*
X108718120Y-139080242D02*
X108152434Y-138514557D01*
X108152434Y-138514557D02*
X108367934Y-138299057D01*
X108367934Y-138299057D02*
X108448746Y-138272120D01*
X108448746Y-138272120D02*
X108502621Y-138272120D01*
X108502621Y-138272120D02*
X108583433Y-138299057D01*
X108583433Y-138299057D02*
X108664245Y-138379870D01*
X108664245Y-138379870D02*
X108691182Y-138460682D01*
X108691182Y-138460682D02*
X108691182Y-138514557D01*
X108691182Y-138514557D02*
X108664245Y-138595369D01*
X108664245Y-138595369D02*
X108448746Y-138810868D01*
X108745057Y-138029683D02*
X108745057Y-137975809D01*
X108745057Y-137975809D02*
X108771995Y-137894996D01*
X108771995Y-137894996D02*
X108906682Y-137760309D01*
X108906682Y-137760309D02*
X108987494Y-137733372D01*
X108987494Y-137733372D02*
X109041369Y-137733372D01*
X109041369Y-137733372D02*
X109122181Y-137760309D01*
X109122181Y-137760309D02*
X109176056Y-137814184D01*
X109176056Y-137814184D02*
X109229930Y-137921934D01*
X109229930Y-137921934D02*
X109229930Y-138568431D01*
X109229930Y-138568431D02*
X109580117Y-138218245D01*
X110118865Y-137679497D02*
X109795616Y-138002746D01*
X109957240Y-137841121D02*
X109391555Y-137275436D01*
X109391555Y-137275436D02*
X109418492Y-137410123D01*
X109418492Y-137410123D02*
X109418492Y-137517873D01*
X109418492Y-137517873D02*
X109391555Y-137598685D01*
X107909998Y-131200868D02*
X107829185Y-131227805D01*
X107829185Y-131227805D02*
X107748373Y-131308618D01*
X107748373Y-131308618D02*
X107694498Y-131416367D01*
X107694498Y-131416367D02*
X107694498Y-131524117D01*
X107694498Y-131524117D02*
X107721436Y-131604929D01*
X107721436Y-131604929D02*
X107802248Y-131739616D01*
X107802248Y-131739616D02*
X107883060Y-131820428D01*
X107883060Y-131820428D02*
X108017747Y-131901241D01*
X108017747Y-131901241D02*
X108098560Y-131928178D01*
X108098560Y-131928178D02*
X108206309Y-131928178D01*
X108206309Y-131928178D02*
X108314059Y-131874303D01*
X108314059Y-131874303D02*
X108367934Y-131820428D01*
X108367934Y-131820428D02*
X108421808Y-131712679D01*
X108421808Y-131712679D02*
X108421808Y-131658804D01*
X108421808Y-131658804D02*
X108233247Y-131470242D01*
X108233247Y-131470242D02*
X108125497Y-131577992D01*
X108718120Y-131470242D02*
X108152434Y-130904557D01*
X108152434Y-130904557D02*
X108367934Y-130689057D01*
X108367934Y-130689057D02*
X108448746Y-130662120D01*
X108448746Y-130662120D02*
X108502621Y-130662120D01*
X108502621Y-130662120D02*
X108583433Y-130689057D01*
X108583433Y-130689057D02*
X108664245Y-130769870D01*
X108664245Y-130769870D02*
X108691182Y-130850682D01*
X108691182Y-130850682D02*
X108691182Y-130904557D01*
X108691182Y-130904557D02*
X108664245Y-130985369D01*
X108664245Y-130985369D02*
X108448746Y-131200868D01*
X109580117Y-130608245D02*
X109256868Y-130931494D01*
X109418492Y-130769870D02*
X108852807Y-130204184D01*
X108852807Y-130204184D02*
X108879744Y-130338871D01*
X108879744Y-130338871D02*
X108879744Y-130446621D01*
X108879744Y-130446621D02*
X108852807Y-130527433D01*
X109580117Y-129961747D02*
X109499305Y-129988685D01*
X109499305Y-129988685D02*
X109445430Y-129988685D01*
X109445430Y-129988685D02*
X109364618Y-129961747D01*
X109364618Y-129961747D02*
X109337680Y-129934810D01*
X109337680Y-129934810D02*
X109310743Y-129853998D01*
X109310743Y-129853998D02*
X109310743Y-129800123D01*
X109310743Y-129800123D02*
X109337680Y-129719311D01*
X109337680Y-129719311D02*
X109445430Y-129611561D01*
X109445430Y-129611561D02*
X109526242Y-129584624D01*
X109526242Y-129584624D02*
X109580117Y-129584624D01*
X109580117Y-129584624D02*
X109660929Y-129611561D01*
X109660929Y-129611561D02*
X109687866Y-129638499D01*
X109687866Y-129638499D02*
X109714804Y-129719311D01*
X109714804Y-129719311D02*
X109714804Y-129773186D01*
X109714804Y-129773186D02*
X109687866Y-129853998D01*
X109687866Y-129853998D02*
X109580117Y-129961747D01*
X109580117Y-129961747D02*
X109553179Y-130042560D01*
X109553179Y-130042560D02*
X109553179Y-130096434D01*
X109553179Y-130096434D02*
X109580117Y-130177247D01*
X109580117Y-130177247D02*
X109687866Y-130284996D01*
X109687866Y-130284996D02*
X109768679Y-130311934D01*
X109768679Y-130311934D02*
X109822553Y-130311934D01*
X109822553Y-130311934D02*
X109903366Y-130284996D01*
X109903366Y-130284996D02*
X110011115Y-130177247D01*
X110011115Y-130177247D02*
X110038053Y-130096434D01*
X110038053Y-130096434D02*
X110038053Y-130042560D01*
X110038053Y-130042560D02*
X110011115Y-129961747D01*
X110011115Y-129961747D02*
X109903366Y-129853998D01*
X109903366Y-129853998D02*
X109822553Y-129827060D01*
X109822553Y-129827060D02*
X109768679Y-129827060D01*
X109768679Y-129827060D02*
X109687866Y-129853998D01*
X107909998Y-133740868D02*
X107829185Y-133767805D01*
X107829185Y-133767805D02*
X107748373Y-133848618D01*
X107748373Y-133848618D02*
X107694498Y-133956367D01*
X107694498Y-133956367D02*
X107694498Y-134064117D01*
X107694498Y-134064117D02*
X107721436Y-134144929D01*
X107721436Y-134144929D02*
X107802248Y-134279616D01*
X107802248Y-134279616D02*
X107883060Y-134360428D01*
X107883060Y-134360428D02*
X108017747Y-134441241D01*
X108017747Y-134441241D02*
X108098560Y-134468178D01*
X108098560Y-134468178D02*
X108206309Y-134468178D01*
X108206309Y-134468178D02*
X108314059Y-134414303D01*
X108314059Y-134414303D02*
X108367934Y-134360428D01*
X108367934Y-134360428D02*
X108421808Y-134252679D01*
X108421808Y-134252679D02*
X108421808Y-134198804D01*
X108421808Y-134198804D02*
X108233247Y-134010242D01*
X108233247Y-134010242D02*
X108125497Y-134117992D01*
X108718120Y-134010242D02*
X108152434Y-133444557D01*
X108152434Y-133444557D02*
X108367934Y-133229057D01*
X108367934Y-133229057D02*
X108448746Y-133202120D01*
X108448746Y-133202120D02*
X108502621Y-133202120D01*
X108502621Y-133202120D02*
X108583433Y-133229057D01*
X108583433Y-133229057D02*
X108664245Y-133309870D01*
X108664245Y-133309870D02*
X108691182Y-133390682D01*
X108691182Y-133390682D02*
X108691182Y-133444557D01*
X108691182Y-133444557D02*
X108664245Y-133525369D01*
X108664245Y-133525369D02*
X108448746Y-133740868D01*
X109580117Y-133148245D02*
X109256868Y-133471494D01*
X109418492Y-133309870D02*
X108852807Y-132744184D01*
X108852807Y-132744184D02*
X108879744Y-132878871D01*
X108879744Y-132878871D02*
X108879744Y-132986621D01*
X108879744Y-132986621D02*
X108852807Y-133067433D01*
X109849491Y-132878871D02*
X109957240Y-132771121D01*
X109957240Y-132771121D02*
X109984178Y-132690309D01*
X109984178Y-132690309D02*
X109984178Y-132636434D01*
X109984178Y-132636434D02*
X109957240Y-132501747D01*
X109957240Y-132501747D02*
X109876428Y-132367060D01*
X109876428Y-132367060D02*
X109660929Y-132151561D01*
X109660929Y-132151561D02*
X109580117Y-132124624D01*
X109580117Y-132124624D02*
X109526242Y-132124624D01*
X109526242Y-132124624D02*
X109445430Y-132151561D01*
X109445430Y-132151561D02*
X109337680Y-132259311D01*
X109337680Y-132259311D02*
X109310743Y-132340123D01*
X109310743Y-132340123D02*
X109310743Y-132393998D01*
X109310743Y-132393998D02*
X109337680Y-132474810D01*
X109337680Y-132474810D02*
X109472367Y-132609497D01*
X109472367Y-132609497D02*
X109553179Y-132636434D01*
X109553179Y-132636434D02*
X109607054Y-132636434D01*
X109607054Y-132636434D02*
X109687866Y-132609497D01*
X109687866Y-132609497D02*
X109795616Y-132501747D01*
X109795616Y-132501747D02*
X109822553Y-132420935D01*
X109822553Y-132420935D02*
X109822553Y-132367060D01*
X109822553Y-132367060D02*
X109795616Y-132286248D01*
X107440749Y-169570242D02*
X108194996Y-169947366D01*
X108194996Y-169947366D02*
X107817873Y-169193118D01*
X108518245Y-169570242D02*
X108625995Y-169516367D01*
X108625995Y-169516367D02*
X108760682Y-169381680D01*
X108760682Y-169381680D02*
X108787619Y-169300868D01*
X108787619Y-169300868D02*
X108787619Y-169246993D01*
X108787619Y-169246993D02*
X108760682Y-169166181D01*
X108760682Y-169166181D02*
X108706807Y-169112306D01*
X108706807Y-169112306D02*
X108625995Y-169085369D01*
X108625995Y-169085369D02*
X108572120Y-169085369D01*
X108572120Y-169085369D02*
X108491308Y-169112306D01*
X108491308Y-169112306D02*
X108356621Y-169193118D01*
X108356621Y-169193118D02*
X108275808Y-169220056D01*
X108275808Y-169220056D02*
X108221934Y-169220056D01*
X108221934Y-169220056D02*
X108141121Y-169193118D01*
X108141121Y-169193118D02*
X108087247Y-169139244D01*
X108087247Y-169139244D02*
X108060309Y-169058431D01*
X108060309Y-169058431D02*
X108060309Y-169004557D01*
X108060309Y-169004557D02*
X108087247Y-168923744D01*
X108087247Y-168923744D02*
X108221934Y-168789057D01*
X108221934Y-168789057D02*
X108329683Y-168735183D01*
X108949244Y-168654370D02*
X109218618Y-168923744D01*
X108464370Y-168546621D02*
X108949244Y-168654370D01*
X108949244Y-168654370D02*
X108841494Y-168169497D01*
X109541866Y-168546621D02*
X109649616Y-168492746D01*
X109649616Y-168492746D02*
X109784303Y-168358059D01*
X109784303Y-168358059D02*
X109811240Y-168277247D01*
X109811240Y-168277247D02*
X109811240Y-168223372D01*
X109811240Y-168223372D02*
X109784303Y-168142560D01*
X109784303Y-168142560D02*
X109730428Y-168088685D01*
X109730428Y-168088685D02*
X109649616Y-168061748D01*
X109649616Y-168061748D02*
X109595741Y-168061748D01*
X109595741Y-168061748D02*
X109514929Y-168088685D01*
X109514929Y-168088685D02*
X109380242Y-168169497D01*
X109380242Y-168169497D02*
X109299430Y-168196435D01*
X109299430Y-168196435D02*
X109245555Y-168196435D01*
X109245555Y-168196435D02*
X109164743Y-168169497D01*
X109164743Y-168169497D02*
X109110868Y-168115622D01*
X109110868Y-168115622D02*
X109083930Y-168034810D01*
X109083930Y-168034810D02*
X109083930Y-167980935D01*
X109083930Y-167980935D02*
X109110868Y-167900123D01*
X109110868Y-167900123D02*
X109245555Y-167765436D01*
X109245555Y-167765436D02*
X109353304Y-167711561D01*
X134133372Y-163951494D02*
X134052560Y-163978431D01*
X134052560Y-163978431D02*
X133971748Y-164059243D01*
X133971748Y-164059243D02*
X133917873Y-164166993D01*
X133917873Y-164166993D02*
X133917873Y-164274742D01*
X133917873Y-164274742D02*
X133944810Y-164355555D01*
X133944810Y-164355555D02*
X134025623Y-164490242D01*
X134025623Y-164490242D02*
X134106435Y-164571054D01*
X134106435Y-164571054D02*
X134241122Y-164651866D01*
X134241122Y-164651866D02*
X134321934Y-164678803D01*
X134321934Y-164678803D02*
X134429684Y-164678803D01*
X134429684Y-164678803D02*
X134537433Y-164624929D01*
X134537433Y-164624929D02*
X134591308Y-164571054D01*
X134591308Y-164571054D02*
X134645183Y-164463304D01*
X134645183Y-164463304D02*
X134645183Y-164409429D01*
X134645183Y-164409429D02*
X134456621Y-164220868D01*
X134456621Y-164220868D02*
X134348871Y-164328617D01*
X134941494Y-164220868D02*
X134375809Y-163655182D01*
X134375809Y-163655182D02*
X134591308Y-163439683D01*
X134591308Y-163439683D02*
X134672120Y-163412746D01*
X134672120Y-163412746D02*
X134725995Y-163412746D01*
X134725995Y-163412746D02*
X134806807Y-163439683D01*
X134806807Y-163439683D02*
X134887619Y-163520495D01*
X134887619Y-163520495D02*
X134914557Y-163601307D01*
X134914557Y-163601307D02*
X134914557Y-163655182D01*
X134914557Y-163655182D02*
X134887619Y-163735994D01*
X134887619Y-163735994D02*
X134672120Y-163951494D01*
X134968432Y-163170309D02*
X134968432Y-163116434D01*
X134968432Y-163116434D02*
X134995369Y-163035622D01*
X134995369Y-163035622D02*
X135130056Y-162900935D01*
X135130056Y-162900935D02*
X135210868Y-162873998D01*
X135210868Y-162873998D02*
X135264743Y-162873998D01*
X135264743Y-162873998D02*
X135345555Y-162900935D01*
X135345555Y-162900935D02*
X135399430Y-162954810D01*
X135399430Y-162954810D02*
X135453305Y-163062559D01*
X135453305Y-163062559D02*
X135453305Y-163709057D01*
X135453305Y-163709057D02*
X135803491Y-163358871D01*
X134033372Y-171571494D02*
X133952560Y-171598431D01*
X133952560Y-171598431D02*
X133871748Y-171679243D01*
X133871748Y-171679243D02*
X133817873Y-171786993D01*
X133817873Y-171786993D02*
X133817873Y-171894742D01*
X133817873Y-171894742D02*
X133844810Y-171975555D01*
X133844810Y-171975555D02*
X133925623Y-172110242D01*
X133925623Y-172110242D02*
X134006435Y-172191054D01*
X134006435Y-172191054D02*
X134141122Y-172271866D01*
X134141122Y-172271866D02*
X134221934Y-172298803D01*
X134221934Y-172298803D02*
X134329684Y-172298803D01*
X134329684Y-172298803D02*
X134437433Y-172244929D01*
X134437433Y-172244929D02*
X134491308Y-172191054D01*
X134491308Y-172191054D02*
X134545183Y-172083304D01*
X134545183Y-172083304D02*
X134545183Y-172029429D01*
X134545183Y-172029429D02*
X134356621Y-171840868D01*
X134356621Y-171840868D02*
X134248871Y-171948617D01*
X134841494Y-171840868D02*
X134275809Y-171275182D01*
X134275809Y-171275182D02*
X134491308Y-171059683D01*
X134491308Y-171059683D02*
X134572120Y-171032746D01*
X134572120Y-171032746D02*
X134625995Y-171032746D01*
X134625995Y-171032746D02*
X134706807Y-171059683D01*
X134706807Y-171059683D02*
X134787619Y-171140495D01*
X134787619Y-171140495D02*
X134814557Y-171221307D01*
X134814557Y-171221307D02*
X134814557Y-171275182D01*
X134814557Y-171275182D02*
X134787619Y-171355994D01*
X134787619Y-171355994D02*
X134572120Y-171571494D01*
X134949244Y-170601747D02*
X135003119Y-170547872D01*
X135003119Y-170547872D02*
X135083931Y-170520935D01*
X135083931Y-170520935D02*
X135137806Y-170520935D01*
X135137806Y-170520935D02*
X135218618Y-170547872D01*
X135218618Y-170547872D02*
X135353305Y-170628685D01*
X135353305Y-170628685D02*
X135487992Y-170763372D01*
X135487992Y-170763372D02*
X135568804Y-170898059D01*
X135568804Y-170898059D02*
X135595741Y-170978871D01*
X135595741Y-170978871D02*
X135595741Y-171032746D01*
X135595741Y-171032746D02*
X135568804Y-171113558D01*
X135568804Y-171113558D02*
X135514929Y-171167433D01*
X135514929Y-171167433D02*
X135434117Y-171194370D01*
X135434117Y-171194370D02*
X135380242Y-171194370D01*
X135380242Y-171194370D02*
X135299430Y-171167433D01*
X135299430Y-171167433D02*
X135164743Y-171086620D01*
X135164743Y-171086620D02*
X135030056Y-170951933D01*
X135030056Y-170951933D02*
X134949244Y-170817246D01*
X134949244Y-170817246D02*
X134922306Y-170736434D01*
X134922306Y-170736434D02*
X134922306Y-170682559D01*
X134922306Y-170682559D02*
X134949244Y-170601747D01*
X134033372Y-161411494D02*
X133952560Y-161438431D01*
X133952560Y-161438431D02*
X133871748Y-161519243D01*
X133871748Y-161519243D02*
X133817873Y-161626993D01*
X133817873Y-161626993D02*
X133817873Y-161734742D01*
X133817873Y-161734742D02*
X133844810Y-161815555D01*
X133844810Y-161815555D02*
X133925623Y-161950242D01*
X133925623Y-161950242D02*
X134006435Y-162031054D01*
X134006435Y-162031054D02*
X134141122Y-162111866D01*
X134141122Y-162111866D02*
X134221934Y-162138803D01*
X134221934Y-162138803D02*
X134329684Y-162138803D01*
X134329684Y-162138803D02*
X134437433Y-162084929D01*
X134437433Y-162084929D02*
X134491308Y-162031054D01*
X134491308Y-162031054D02*
X134545183Y-161923304D01*
X134545183Y-161923304D02*
X134545183Y-161869429D01*
X134545183Y-161869429D02*
X134356621Y-161680868D01*
X134356621Y-161680868D02*
X134248871Y-161788617D01*
X134841494Y-161680868D02*
X134275809Y-161115182D01*
X134275809Y-161115182D02*
X134491308Y-160899683D01*
X134491308Y-160899683D02*
X134572120Y-160872746D01*
X134572120Y-160872746D02*
X134625995Y-160872746D01*
X134625995Y-160872746D02*
X134706807Y-160899683D01*
X134706807Y-160899683D02*
X134787619Y-160980495D01*
X134787619Y-160980495D02*
X134814557Y-161061307D01*
X134814557Y-161061307D02*
X134814557Y-161115182D01*
X134814557Y-161115182D02*
X134787619Y-161195994D01*
X134787619Y-161195994D02*
X134572120Y-161411494D01*
X134787619Y-160603372D02*
X135137806Y-160253185D01*
X135137806Y-160253185D02*
X135164743Y-160657246D01*
X135164743Y-160657246D02*
X135245555Y-160576434D01*
X135245555Y-160576434D02*
X135326367Y-160549497D01*
X135326367Y-160549497D02*
X135380242Y-160549497D01*
X135380242Y-160549497D02*
X135461054Y-160576434D01*
X135461054Y-160576434D02*
X135595741Y-160711121D01*
X135595741Y-160711121D02*
X135622679Y-160791933D01*
X135622679Y-160791933D02*
X135622679Y-160845808D01*
X135622679Y-160845808D02*
X135595741Y-160926620D01*
X135595741Y-160926620D02*
X135434117Y-161088245D01*
X135434117Y-161088245D02*
X135353305Y-161115182D01*
X135353305Y-161115182D02*
X135299430Y-161115182D01*
X107909998Y-148980868D02*
X107829185Y-149007805D01*
X107829185Y-149007805D02*
X107748373Y-149088618D01*
X107748373Y-149088618D02*
X107694498Y-149196367D01*
X107694498Y-149196367D02*
X107694498Y-149304117D01*
X107694498Y-149304117D02*
X107721436Y-149384929D01*
X107721436Y-149384929D02*
X107802248Y-149519616D01*
X107802248Y-149519616D02*
X107883060Y-149600428D01*
X107883060Y-149600428D02*
X108017747Y-149681241D01*
X108017747Y-149681241D02*
X108098560Y-149708178D01*
X108098560Y-149708178D02*
X108206309Y-149708178D01*
X108206309Y-149708178D02*
X108314059Y-149654303D01*
X108314059Y-149654303D02*
X108367934Y-149600428D01*
X108367934Y-149600428D02*
X108421808Y-149492679D01*
X108421808Y-149492679D02*
X108421808Y-149438804D01*
X108421808Y-149438804D02*
X108233247Y-149250242D01*
X108233247Y-149250242D02*
X108125497Y-149357992D01*
X108718120Y-149250242D02*
X108152434Y-148684557D01*
X108152434Y-148684557D02*
X108367934Y-148469057D01*
X108367934Y-148469057D02*
X108448746Y-148442120D01*
X108448746Y-148442120D02*
X108502621Y-148442120D01*
X108502621Y-148442120D02*
X108583433Y-148469057D01*
X108583433Y-148469057D02*
X108664245Y-148549870D01*
X108664245Y-148549870D02*
X108691182Y-148630682D01*
X108691182Y-148630682D02*
X108691182Y-148684557D01*
X108691182Y-148684557D02*
X108664245Y-148765369D01*
X108664245Y-148765369D02*
X108448746Y-148980868D01*
X108745057Y-148199683D02*
X108745057Y-148145809D01*
X108745057Y-148145809D02*
X108771995Y-148064996D01*
X108771995Y-148064996D02*
X108906682Y-147930309D01*
X108906682Y-147930309D02*
X108987494Y-147903372D01*
X108987494Y-147903372D02*
X109041369Y-147903372D01*
X109041369Y-147903372D02*
X109122181Y-147930309D01*
X109122181Y-147930309D02*
X109176056Y-147984184D01*
X109176056Y-147984184D02*
X109229930Y-148091934D01*
X109229930Y-148091934D02*
X109229930Y-148738431D01*
X109229930Y-148738431D02*
X109580117Y-148388245D01*
X109499305Y-147337686D02*
X109391555Y-147445436D01*
X109391555Y-147445436D02*
X109364618Y-147526248D01*
X109364618Y-147526248D02*
X109364618Y-147580123D01*
X109364618Y-147580123D02*
X109391555Y-147714810D01*
X109391555Y-147714810D02*
X109472367Y-147849497D01*
X109472367Y-147849497D02*
X109687866Y-148064996D01*
X109687866Y-148064996D02*
X109768679Y-148091934D01*
X109768679Y-148091934D02*
X109822553Y-148091934D01*
X109822553Y-148091934D02*
X109903366Y-148064996D01*
X109903366Y-148064996D02*
X110011115Y-147957247D01*
X110011115Y-147957247D02*
X110038053Y-147876434D01*
X110038053Y-147876434D02*
X110038053Y-147822560D01*
X110038053Y-147822560D02*
X110011115Y-147741747D01*
X110011115Y-147741747D02*
X109876428Y-147607060D01*
X109876428Y-147607060D02*
X109795616Y-147580123D01*
X109795616Y-147580123D02*
X109741741Y-147580123D01*
X109741741Y-147580123D02*
X109660929Y-147607060D01*
X109660929Y-147607060D02*
X109553179Y-147714810D01*
X109553179Y-147714810D02*
X109526242Y-147795622D01*
X109526242Y-147795622D02*
X109526242Y-147849497D01*
X109526242Y-147849497D02*
X109553179Y-147930309D01*
X134133372Y-169041494D02*
X134052560Y-169068431D01*
X134052560Y-169068431D02*
X133971748Y-169149243D01*
X133971748Y-169149243D02*
X133917873Y-169256993D01*
X133917873Y-169256993D02*
X133917873Y-169364742D01*
X133917873Y-169364742D02*
X133944810Y-169445555D01*
X133944810Y-169445555D02*
X134025623Y-169580242D01*
X134025623Y-169580242D02*
X134106435Y-169661054D01*
X134106435Y-169661054D02*
X134241122Y-169741866D01*
X134241122Y-169741866D02*
X134321934Y-169768803D01*
X134321934Y-169768803D02*
X134429684Y-169768803D01*
X134429684Y-169768803D02*
X134537433Y-169714929D01*
X134537433Y-169714929D02*
X134591308Y-169661054D01*
X134591308Y-169661054D02*
X134645183Y-169553304D01*
X134645183Y-169553304D02*
X134645183Y-169499429D01*
X134645183Y-169499429D02*
X134456621Y-169310868D01*
X134456621Y-169310868D02*
X134348871Y-169418617D01*
X134941494Y-169310868D02*
X134375809Y-168745182D01*
X134375809Y-168745182D02*
X134591308Y-168529683D01*
X134591308Y-168529683D02*
X134672120Y-168502746D01*
X134672120Y-168502746D02*
X134725995Y-168502746D01*
X134725995Y-168502746D02*
X134806807Y-168529683D01*
X134806807Y-168529683D02*
X134887619Y-168610495D01*
X134887619Y-168610495D02*
X134914557Y-168691307D01*
X134914557Y-168691307D02*
X134914557Y-168745182D01*
X134914557Y-168745182D02*
X134887619Y-168825994D01*
X134887619Y-168825994D02*
X134672120Y-169041494D01*
X135803491Y-168448871D02*
X135480242Y-168772120D01*
X135641867Y-168610495D02*
X135076181Y-168044810D01*
X135076181Y-168044810D02*
X135103119Y-168179497D01*
X135103119Y-168179497D02*
X135103119Y-168287246D01*
X135103119Y-168287246D02*
X135076181Y-168368059D01*
X134033372Y-146171494D02*
X133952560Y-146198431D01*
X133952560Y-146198431D02*
X133871748Y-146279243D01*
X133871748Y-146279243D02*
X133817873Y-146386993D01*
X133817873Y-146386993D02*
X133817873Y-146494742D01*
X133817873Y-146494742D02*
X133844810Y-146575555D01*
X133844810Y-146575555D02*
X133925623Y-146710242D01*
X133925623Y-146710242D02*
X134006435Y-146791054D01*
X134006435Y-146791054D02*
X134141122Y-146871866D01*
X134141122Y-146871866D02*
X134221934Y-146898803D01*
X134221934Y-146898803D02*
X134329684Y-146898803D01*
X134329684Y-146898803D02*
X134437433Y-146844929D01*
X134437433Y-146844929D02*
X134491308Y-146791054D01*
X134491308Y-146791054D02*
X134545183Y-146683304D01*
X134545183Y-146683304D02*
X134545183Y-146629429D01*
X134545183Y-146629429D02*
X134356621Y-146440868D01*
X134356621Y-146440868D02*
X134248871Y-146548617D01*
X134841494Y-146440868D02*
X134275809Y-145875182D01*
X134275809Y-145875182D02*
X134491308Y-145659683D01*
X134491308Y-145659683D02*
X134572120Y-145632746D01*
X134572120Y-145632746D02*
X134625995Y-145632746D01*
X134625995Y-145632746D02*
X134706807Y-145659683D01*
X134706807Y-145659683D02*
X134787619Y-145740495D01*
X134787619Y-145740495D02*
X134814557Y-145821307D01*
X134814557Y-145821307D02*
X134814557Y-145875182D01*
X134814557Y-145875182D02*
X134787619Y-145955994D01*
X134787619Y-145955994D02*
X134572120Y-146171494D01*
X135164743Y-145471121D02*
X135083931Y-145498059D01*
X135083931Y-145498059D02*
X135030056Y-145498059D01*
X135030056Y-145498059D02*
X134949244Y-145471121D01*
X134949244Y-145471121D02*
X134922306Y-145444184D01*
X134922306Y-145444184D02*
X134895369Y-145363372D01*
X134895369Y-145363372D02*
X134895369Y-145309497D01*
X134895369Y-145309497D02*
X134922306Y-145228685D01*
X134922306Y-145228685D02*
X135030056Y-145120935D01*
X135030056Y-145120935D02*
X135110868Y-145093998D01*
X135110868Y-145093998D02*
X135164743Y-145093998D01*
X135164743Y-145093998D02*
X135245555Y-145120935D01*
X135245555Y-145120935D02*
X135272493Y-145147872D01*
X135272493Y-145147872D02*
X135299430Y-145228685D01*
X135299430Y-145228685D02*
X135299430Y-145282559D01*
X135299430Y-145282559D02*
X135272493Y-145363372D01*
X135272493Y-145363372D02*
X135164743Y-145471121D01*
X135164743Y-145471121D02*
X135137806Y-145551933D01*
X135137806Y-145551933D02*
X135137806Y-145605808D01*
X135137806Y-145605808D02*
X135164743Y-145686620D01*
X135164743Y-145686620D02*
X135272493Y-145794370D01*
X135272493Y-145794370D02*
X135353305Y-145821307D01*
X135353305Y-145821307D02*
X135407180Y-145821307D01*
X135407180Y-145821307D02*
X135487992Y-145794370D01*
X135487992Y-145794370D02*
X135595741Y-145686620D01*
X135595741Y-145686620D02*
X135622679Y-145605808D01*
X135622679Y-145605808D02*
X135622679Y-145551933D01*
X135622679Y-145551933D02*
X135595741Y-145471121D01*
X135595741Y-145471121D02*
X135487992Y-145363372D01*
X135487992Y-145363372D02*
X135407180Y-145336434D01*
X135407180Y-145336434D02*
X135353305Y-145336434D01*
X135353305Y-145336434D02*
X135272493Y-145363372D01*
X134006435Y-128418431D02*
X133925623Y-128445368D01*
X133925623Y-128445368D02*
X133844811Y-128526180D01*
X133844811Y-128526180D02*
X133790936Y-128633930D01*
X133790936Y-128633930D02*
X133790936Y-128741680D01*
X133790936Y-128741680D02*
X133817873Y-128822492D01*
X133817873Y-128822492D02*
X133898685Y-128957179D01*
X133898685Y-128957179D02*
X133979498Y-129037991D01*
X133979498Y-129037991D02*
X134114185Y-129118803D01*
X134114185Y-129118803D02*
X134194997Y-129145741D01*
X134194997Y-129145741D02*
X134302746Y-129145741D01*
X134302746Y-129145741D02*
X134410496Y-129091866D01*
X134410496Y-129091866D02*
X134464371Y-129037991D01*
X134464371Y-129037991D02*
X134518246Y-128930241D01*
X134518246Y-128930241D02*
X134518246Y-128876367D01*
X134518246Y-128876367D02*
X134329684Y-128687805D01*
X134329684Y-128687805D02*
X134221934Y-128795554D01*
X134814557Y-128687805D02*
X134248872Y-128122119D01*
X134248872Y-128122119D02*
X135137806Y-128364556D01*
X135137806Y-128364556D02*
X134572120Y-127798871D01*
X135407180Y-128095182D02*
X134841494Y-127529497D01*
X134841494Y-127529497D02*
X134976181Y-127394810D01*
X134976181Y-127394810D02*
X135083931Y-127340935D01*
X135083931Y-127340935D02*
X135191680Y-127340935D01*
X135191680Y-127340935D02*
X135272493Y-127367872D01*
X135272493Y-127367872D02*
X135407180Y-127448685D01*
X135407180Y-127448685D02*
X135487992Y-127529497D01*
X135487992Y-127529497D02*
X135568804Y-127664184D01*
X135568804Y-127664184D02*
X135595741Y-127744996D01*
X135595741Y-127744996D02*
X135595741Y-127852746D01*
X135595741Y-127852746D02*
X135541867Y-127960495D01*
X135541867Y-127960495D02*
X135407180Y-128095182D01*
X134033372Y-156331494D02*
X133952560Y-156358431D01*
X133952560Y-156358431D02*
X133871748Y-156439243D01*
X133871748Y-156439243D02*
X133817873Y-156546993D01*
X133817873Y-156546993D02*
X133817873Y-156654742D01*
X133817873Y-156654742D02*
X133844810Y-156735555D01*
X133844810Y-156735555D02*
X133925623Y-156870242D01*
X133925623Y-156870242D02*
X134006435Y-156951054D01*
X134006435Y-156951054D02*
X134141122Y-157031866D01*
X134141122Y-157031866D02*
X134221934Y-157058803D01*
X134221934Y-157058803D02*
X134329684Y-157058803D01*
X134329684Y-157058803D02*
X134437433Y-157004929D01*
X134437433Y-157004929D02*
X134491308Y-156951054D01*
X134491308Y-156951054D02*
X134545183Y-156843304D01*
X134545183Y-156843304D02*
X134545183Y-156789429D01*
X134545183Y-156789429D02*
X134356621Y-156600868D01*
X134356621Y-156600868D02*
X134248871Y-156708617D01*
X134841494Y-156600868D02*
X134275809Y-156035182D01*
X134275809Y-156035182D02*
X134491308Y-155819683D01*
X134491308Y-155819683D02*
X134572120Y-155792746D01*
X134572120Y-155792746D02*
X134625995Y-155792746D01*
X134625995Y-155792746D02*
X134706807Y-155819683D01*
X134706807Y-155819683D02*
X134787619Y-155900495D01*
X134787619Y-155900495D02*
X134814557Y-155981307D01*
X134814557Y-155981307D02*
X134814557Y-156035182D01*
X134814557Y-156035182D02*
X134787619Y-156115994D01*
X134787619Y-156115994D02*
X134572120Y-156331494D01*
X135110868Y-155200123D02*
X134841494Y-155469497D01*
X134841494Y-155469497D02*
X135083931Y-155765808D01*
X135083931Y-155765808D02*
X135083931Y-155711933D01*
X135083931Y-155711933D02*
X135110868Y-155631121D01*
X135110868Y-155631121D02*
X135245555Y-155496434D01*
X135245555Y-155496434D02*
X135326367Y-155469497D01*
X135326367Y-155469497D02*
X135380242Y-155469497D01*
X135380242Y-155469497D02*
X135461054Y-155496434D01*
X135461054Y-155496434D02*
X135595741Y-155631121D01*
X135595741Y-155631121D02*
X135622679Y-155711933D01*
X135622679Y-155711933D02*
X135622679Y-155765808D01*
X135622679Y-155765808D02*
X135595741Y-155846620D01*
X135595741Y-155846620D02*
X135461054Y-155981307D01*
X135461054Y-155981307D02*
X135380242Y-156008245D01*
X135380242Y-156008245D02*
X135326367Y-156008245D01*
X134163998Y-133740868D02*
X134083185Y-133767805D01*
X134083185Y-133767805D02*
X134002373Y-133848618D01*
X134002373Y-133848618D02*
X133948498Y-133956367D01*
X133948498Y-133956367D02*
X133948498Y-134064117D01*
X133948498Y-134064117D02*
X133975436Y-134144929D01*
X133975436Y-134144929D02*
X134056248Y-134279616D01*
X134056248Y-134279616D02*
X134137060Y-134360428D01*
X134137060Y-134360428D02*
X134271747Y-134441241D01*
X134271747Y-134441241D02*
X134352560Y-134468178D01*
X134352560Y-134468178D02*
X134460309Y-134468178D01*
X134460309Y-134468178D02*
X134568059Y-134414303D01*
X134568059Y-134414303D02*
X134621934Y-134360428D01*
X134621934Y-134360428D02*
X134675808Y-134252679D01*
X134675808Y-134252679D02*
X134675808Y-134198804D01*
X134675808Y-134198804D02*
X134487247Y-134010242D01*
X134487247Y-134010242D02*
X134379497Y-134117992D01*
X134972120Y-134010242D02*
X134406434Y-133444557D01*
X134406434Y-133444557D02*
X134621934Y-133229057D01*
X134621934Y-133229057D02*
X134702746Y-133202120D01*
X134702746Y-133202120D02*
X134756621Y-133202120D01*
X134756621Y-133202120D02*
X134837433Y-133229057D01*
X134837433Y-133229057D02*
X134918245Y-133309870D01*
X134918245Y-133309870D02*
X134945182Y-133390682D01*
X134945182Y-133390682D02*
X134945182Y-133444557D01*
X134945182Y-133444557D02*
X134918245Y-133525369D01*
X134918245Y-133525369D02*
X134702746Y-133740868D01*
X135834117Y-133148245D02*
X135510868Y-133471494D01*
X135672492Y-133309870D02*
X135106807Y-132744184D01*
X135106807Y-132744184D02*
X135133744Y-132878871D01*
X135133744Y-132878871D02*
X135133744Y-132986621D01*
X135133744Y-132986621D02*
X135106807Y-133067433D01*
X135537805Y-132420935D02*
X135537805Y-132367060D01*
X135537805Y-132367060D02*
X135564743Y-132286248D01*
X135564743Y-132286248D02*
X135699430Y-132151561D01*
X135699430Y-132151561D02*
X135780242Y-132124624D01*
X135780242Y-132124624D02*
X135834117Y-132124624D01*
X135834117Y-132124624D02*
X135914929Y-132151561D01*
X135914929Y-132151561D02*
X135968804Y-132205436D01*
X135968804Y-132205436D02*
X136022679Y-132313186D01*
X136022679Y-132313186D02*
X136022679Y-132959683D01*
X136022679Y-132959683D02*
X136372865Y-132609497D01*
X134033372Y-158871494D02*
X133952560Y-158898431D01*
X133952560Y-158898431D02*
X133871748Y-158979243D01*
X133871748Y-158979243D02*
X133817873Y-159086993D01*
X133817873Y-159086993D02*
X133817873Y-159194742D01*
X133817873Y-159194742D02*
X133844810Y-159275555D01*
X133844810Y-159275555D02*
X133925623Y-159410242D01*
X133925623Y-159410242D02*
X134006435Y-159491054D01*
X134006435Y-159491054D02*
X134141122Y-159571866D01*
X134141122Y-159571866D02*
X134221934Y-159598803D01*
X134221934Y-159598803D02*
X134329684Y-159598803D01*
X134329684Y-159598803D02*
X134437433Y-159544929D01*
X134437433Y-159544929D02*
X134491308Y-159491054D01*
X134491308Y-159491054D02*
X134545183Y-159383304D01*
X134545183Y-159383304D02*
X134545183Y-159329429D01*
X134545183Y-159329429D02*
X134356621Y-159140868D01*
X134356621Y-159140868D02*
X134248871Y-159248617D01*
X134841494Y-159140868D02*
X134275809Y-158575182D01*
X134275809Y-158575182D02*
X134491308Y-158359683D01*
X134491308Y-158359683D02*
X134572120Y-158332746D01*
X134572120Y-158332746D02*
X134625995Y-158332746D01*
X134625995Y-158332746D02*
X134706807Y-158359683D01*
X134706807Y-158359683D02*
X134787619Y-158440495D01*
X134787619Y-158440495D02*
X134814557Y-158521307D01*
X134814557Y-158521307D02*
X134814557Y-158575182D01*
X134814557Y-158575182D02*
X134787619Y-158655994D01*
X134787619Y-158655994D02*
X134572120Y-158871494D01*
X135272493Y-157955622D02*
X135649616Y-158332746D01*
X134922306Y-157874810D02*
X135191680Y-158413558D01*
X135191680Y-158413558D02*
X135541867Y-158063372D01*
X108758651Y-146723710D02*
X108300716Y-146642898D01*
X108435403Y-147046959D02*
X107869717Y-146481274D01*
X107869717Y-146481274D02*
X108085216Y-146265775D01*
X108085216Y-146265775D02*
X108166029Y-146238837D01*
X108166029Y-146238837D02*
X108219903Y-146238837D01*
X108219903Y-146238837D02*
X108300716Y-146265775D01*
X108300716Y-146265775D02*
X108381528Y-146346587D01*
X108381528Y-146346587D02*
X108408465Y-146427399D01*
X108408465Y-146427399D02*
X108408465Y-146481274D01*
X108408465Y-146481274D02*
X108381528Y-146562086D01*
X108381528Y-146562086D02*
X108166029Y-146777585D01*
X108435403Y-145915588D02*
X108893338Y-146373524D01*
X108893338Y-146373524D02*
X108974151Y-146400462D01*
X108974151Y-146400462D02*
X109028025Y-146400462D01*
X109028025Y-146400462D02*
X109108838Y-146373524D01*
X109108838Y-146373524D02*
X109216587Y-146265775D01*
X109216587Y-146265775D02*
X109243525Y-146184962D01*
X109243525Y-146184962D02*
X109243525Y-146131088D01*
X109243525Y-146131088D02*
X109216587Y-146050275D01*
X109216587Y-146050275D02*
X108758651Y-145592340D01*
X109593711Y-145888651D02*
X109028025Y-145322966D01*
X109028025Y-145322966D02*
X109916959Y-145565402D01*
X109916959Y-145565402D02*
X109351274Y-144999717D01*
X107273406Y-172247585D02*
X108027653Y-172624709D01*
X108027653Y-172624709D02*
X107650529Y-171870462D01*
X108297027Y-171762712D02*
X108404776Y-171708838D01*
X108404776Y-171708838D02*
X108458651Y-171708838D01*
X108458651Y-171708838D02*
X108539463Y-171735775D01*
X108539463Y-171735775D02*
X108620276Y-171816587D01*
X108620276Y-171816587D02*
X108647213Y-171897399D01*
X108647213Y-171897399D02*
X108647213Y-171951274D01*
X108647213Y-171951274D02*
X108620276Y-172032086D01*
X108620276Y-172032086D02*
X108404776Y-172247586D01*
X108404776Y-172247586D02*
X107839091Y-171681900D01*
X107839091Y-171681900D02*
X108027653Y-171493338D01*
X108027653Y-171493338D02*
X108108465Y-171466401D01*
X108108465Y-171466401D02*
X108162340Y-171466401D01*
X108162340Y-171466401D02*
X108243152Y-171493338D01*
X108243152Y-171493338D02*
X108297027Y-171547213D01*
X108297027Y-171547213D02*
X108323964Y-171628025D01*
X108323964Y-171628025D02*
X108323964Y-171681900D01*
X108323964Y-171681900D02*
X108297027Y-171762712D01*
X108297027Y-171762712D02*
X108108465Y-171951274D01*
X108404776Y-171116215D02*
X108862712Y-171574151D01*
X108862712Y-171574151D02*
X108943524Y-171601088D01*
X108943524Y-171601088D02*
X108997399Y-171601088D01*
X108997399Y-171601088D02*
X109078211Y-171574151D01*
X109078211Y-171574151D02*
X109185961Y-171466401D01*
X109185961Y-171466401D02*
X109212898Y-171385589D01*
X109212898Y-171385589D02*
X109212898Y-171331714D01*
X109212898Y-171331714D02*
X109185961Y-171250902D01*
X109185961Y-171250902D02*
X108728025Y-170792966D01*
X109509210Y-171089277D02*
X109616959Y-171035403D01*
X109616959Y-171035403D02*
X109751646Y-170900716D01*
X109751646Y-170900716D02*
X109778584Y-170819903D01*
X109778584Y-170819903D02*
X109778584Y-170766029D01*
X109778584Y-170766029D02*
X109751646Y-170685216D01*
X109751646Y-170685216D02*
X109697771Y-170631342D01*
X109697771Y-170631342D02*
X109616959Y-170604404D01*
X109616959Y-170604404D02*
X109563084Y-170604404D01*
X109563084Y-170604404D02*
X109482272Y-170631342D01*
X109482272Y-170631342D02*
X109347585Y-170712154D01*
X109347585Y-170712154D02*
X109266773Y-170739091D01*
X109266773Y-170739091D02*
X109212898Y-170739091D01*
X109212898Y-170739091D02*
X109132086Y-170712154D01*
X109132086Y-170712154D02*
X109078211Y-170658279D01*
X109078211Y-170658279D02*
X109051274Y-170577467D01*
X109051274Y-170577467D02*
X109051274Y-170523592D01*
X109051274Y-170523592D02*
X109078211Y-170442780D01*
X109078211Y-170442780D02*
X109212898Y-170308093D01*
X109212898Y-170308093D02*
X109320648Y-170254218D01*
X134063998Y-126120868D02*
X133983185Y-126147805D01*
X133983185Y-126147805D02*
X133902373Y-126228618D01*
X133902373Y-126228618D02*
X133848498Y-126336367D01*
X133848498Y-126336367D02*
X133848498Y-126444117D01*
X133848498Y-126444117D02*
X133875436Y-126524929D01*
X133875436Y-126524929D02*
X133956248Y-126659616D01*
X133956248Y-126659616D02*
X134037060Y-126740428D01*
X134037060Y-126740428D02*
X134171747Y-126821241D01*
X134171747Y-126821241D02*
X134252560Y-126848178D01*
X134252560Y-126848178D02*
X134360309Y-126848178D01*
X134360309Y-126848178D02*
X134468059Y-126794303D01*
X134468059Y-126794303D02*
X134521934Y-126740428D01*
X134521934Y-126740428D02*
X134575808Y-126632679D01*
X134575808Y-126632679D02*
X134575808Y-126578804D01*
X134575808Y-126578804D02*
X134387247Y-126390242D01*
X134387247Y-126390242D02*
X134279497Y-126497992D01*
X134872120Y-126390242D02*
X134306434Y-125824557D01*
X134306434Y-125824557D02*
X134521934Y-125609057D01*
X134521934Y-125609057D02*
X134602746Y-125582120D01*
X134602746Y-125582120D02*
X134656621Y-125582120D01*
X134656621Y-125582120D02*
X134737433Y-125609057D01*
X134737433Y-125609057D02*
X134818245Y-125689870D01*
X134818245Y-125689870D02*
X134845182Y-125770682D01*
X134845182Y-125770682D02*
X134845182Y-125824557D01*
X134845182Y-125824557D02*
X134818245Y-125905369D01*
X134818245Y-125905369D02*
X134602746Y-126120868D01*
X135734117Y-125528245D02*
X135410868Y-125851494D01*
X135572492Y-125689870D02*
X135006807Y-125124184D01*
X135006807Y-125124184D02*
X135033744Y-125258871D01*
X135033744Y-125258871D02*
X135033744Y-125366621D01*
X135033744Y-125366621D02*
X135006807Y-125447433D01*
X135841866Y-124666248D02*
X136218990Y-125043372D01*
X135491680Y-124585436D02*
X135761054Y-125124184D01*
X135761054Y-125124184D02*
X136111240Y-124773998D01*
X107909998Y-143900868D02*
X107829185Y-143927805D01*
X107829185Y-143927805D02*
X107748373Y-144008618D01*
X107748373Y-144008618D02*
X107694498Y-144116367D01*
X107694498Y-144116367D02*
X107694498Y-144224117D01*
X107694498Y-144224117D02*
X107721436Y-144304929D01*
X107721436Y-144304929D02*
X107802248Y-144439616D01*
X107802248Y-144439616D02*
X107883060Y-144520428D01*
X107883060Y-144520428D02*
X108017747Y-144601241D01*
X108017747Y-144601241D02*
X108098560Y-144628178D01*
X108098560Y-144628178D02*
X108206309Y-144628178D01*
X108206309Y-144628178D02*
X108314059Y-144574303D01*
X108314059Y-144574303D02*
X108367934Y-144520428D01*
X108367934Y-144520428D02*
X108421808Y-144412679D01*
X108421808Y-144412679D02*
X108421808Y-144358804D01*
X108421808Y-144358804D02*
X108233247Y-144170242D01*
X108233247Y-144170242D02*
X108125497Y-144277992D01*
X108718120Y-144170242D02*
X108152434Y-143604557D01*
X108152434Y-143604557D02*
X108367934Y-143389057D01*
X108367934Y-143389057D02*
X108448746Y-143362120D01*
X108448746Y-143362120D02*
X108502621Y-143362120D01*
X108502621Y-143362120D02*
X108583433Y-143389057D01*
X108583433Y-143389057D02*
X108664245Y-143469870D01*
X108664245Y-143469870D02*
X108691182Y-143550682D01*
X108691182Y-143550682D02*
X108691182Y-143604557D01*
X108691182Y-143604557D02*
X108664245Y-143685369D01*
X108664245Y-143685369D02*
X108448746Y-143900868D01*
X108745057Y-143119683D02*
X108745057Y-143065809D01*
X108745057Y-143065809D02*
X108771995Y-142984996D01*
X108771995Y-142984996D02*
X108906682Y-142850309D01*
X108906682Y-142850309D02*
X108987494Y-142823372D01*
X108987494Y-142823372D02*
X109041369Y-142823372D01*
X109041369Y-142823372D02*
X109122181Y-142850309D01*
X109122181Y-142850309D02*
X109176056Y-142904184D01*
X109176056Y-142904184D02*
X109229930Y-143011934D01*
X109229930Y-143011934D02*
X109229930Y-143658431D01*
X109229930Y-143658431D02*
X109580117Y-143308245D01*
X109283805Y-142580935D02*
X109283805Y-142527060D01*
X109283805Y-142527060D02*
X109310743Y-142446248D01*
X109310743Y-142446248D02*
X109445430Y-142311561D01*
X109445430Y-142311561D02*
X109526242Y-142284624D01*
X109526242Y-142284624D02*
X109580117Y-142284624D01*
X109580117Y-142284624D02*
X109660929Y-142311561D01*
X109660929Y-142311561D02*
X109714804Y-142365436D01*
X109714804Y-142365436D02*
X109768679Y-142473186D01*
X109768679Y-142473186D02*
X109768679Y-143119683D01*
X109768679Y-143119683D02*
X110118865Y-142769497D01*
X134033372Y-143631494D02*
X133952560Y-143658431D01*
X133952560Y-143658431D02*
X133871748Y-143739243D01*
X133871748Y-143739243D02*
X133817873Y-143846993D01*
X133817873Y-143846993D02*
X133817873Y-143954742D01*
X133817873Y-143954742D02*
X133844810Y-144035555D01*
X133844810Y-144035555D02*
X133925623Y-144170242D01*
X133925623Y-144170242D02*
X134006435Y-144251054D01*
X134006435Y-144251054D02*
X134141122Y-144331866D01*
X134141122Y-144331866D02*
X134221934Y-144358803D01*
X134221934Y-144358803D02*
X134329684Y-144358803D01*
X134329684Y-144358803D02*
X134437433Y-144304929D01*
X134437433Y-144304929D02*
X134491308Y-144251054D01*
X134491308Y-144251054D02*
X134545183Y-144143304D01*
X134545183Y-144143304D02*
X134545183Y-144089429D01*
X134545183Y-144089429D02*
X134356621Y-143900868D01*
X134356621Y-143900868D02*
X134248871Y-144008617D01*
X134841494Y-143900868D02*
X134275809Y-143335182D01*
X134275809Y-143335182D02*
X134491308Y-143119683D01*
X134491308Y-143119683D02*
X134572120Y-143092746D01*
X134572120Y-143092746D02*
X134625995Y-143092746D01*
X134625995Y-143092746D02*
X134706807Y-143119683D01*
X134706807Y-143119683D02*
X134787619Y-143200495D01*
X134787619Y-143200495D02*
X134814557Y-143281307D01*
X134814557Y-143281307D02*
X134814557Y-143335182D01*
X134814557Y-143335182D02*
X134787619Y-143415994D01*
X134787619Y-143415994D02*
X134572120Y-143631494D01*
X135434117Y-143308245D02*
X135541867Y-143200495D01*
X135541867Y-143200495D02*
X135568804Y-143119683D01*
X135568804Y-143119683D02*
X135568804Y-143065808D01*
X135568804Y-143065808D02*
X135541867Y-142931121D01*
X135541867Y-142931121D02*
X135461054Y-142796434D01*
X135461054Y-142796434D02*
X135245555Y-142580935D01*
X135245555Y-142580935D02*
X135164743Y-142553998D01*
X135164743Y-142553998D02*
X135110868Y-142553998D01*
X135110868Y-142553998D02*
X135030056Y-142580935D01*
X135030056Y-142580935D02*
X134922306Y-142688685D01*
X134922306Y-142688685D02*
X134895369Y-142769497D01*
X134895369Y-142769497D02*
X134895369Y-142823372D01*
X134895369Y-142823372D02*
X134922306Y-142904184D01*
X134922306Y-142904184D02*
X135056993Y-143038871D01*
X135056993Y-143038871D02*
X135137806Y-143065808D01*
X135137806Y-143065808D02*
X135191680Y-143065808D01*
X135191680Y-143065808D02*
X135272493Y-143038871D01*
X135272493Y-143038871D02*
X135380242Y-142931121D01*
X135380242Y-142931121D02*
X135407180Y-142850309D01*
X135407180Y-142850309D02*
X135407180Y-142796434D01*
X135407180Y-142796434D02*
X135380242Y-142715622D01*
X134006435Y-141118431D02*
X133925623Y-141145368D01*
X133925623Y-141145368D02*
X133844811Y-141226180D01*
X133844811Y-141226180D02*
X133790936Y-141333930D01*
X133790936Y-141333930D02*
X133790936Y-141441680D01*
X133790936Y-141441680D02*
X133817873Y-141522492D01*
X133817873Y-141522492D02*
X133898685Y-141657179D01*
X133898685Y-141657179D02*
X133979498Y-141737991D01*
X133979498Y-141737991D02*
X134114185Y-141818803D01*
X134114185Y-141818803D02*
X134194997Y-141845741D01*
X134194997Y-141845741D02*
X134302746Y-141845741D01*
X134302746Y-141845741D02*
X134410496Y-141791866D01*
X134410496Y-141791866D02*
X134464371Y-141737991D01*
X134464371Y-141737991D02*
X134518246Y-141630241D01*
X134518246Y-141630241D02*
X134518246Y-141576367D01*
X134518246Y-141576367D02*
X134329684Y-141387805D01*
X134329684Y-141387805D02*
X134221934Y-141495554D01*
X134814557Y-141387805D02*
X134248872Y-140822119D01*
X134248872Y-140822119D02*
X135137806Y-141064556D01*
X135137806Y-141064556D02*
X134572120Y-140498871D01*
X135407180Y-140795182D02*
X134841494Y-140229497D01*
X134841494Y-140229497D02*
X134976181Y-140094810D01*
X134976181Y-140094810D02*
X135083931Y-140040935D01*
X135083931Y-140040935D02*
X135191680Y-140040935D01*
X135191680Y-140040935D02*
X135272493Y-140067872D01*
X135272493Y-140067872D02*
X135407180Y-140148685D01*
X135407180Y-140148685D02*
X135487992Y-140229497D01*
X135487992Y-140229497D02*
X135568804Y-140364184D01*
X135568804Y-140364184D02*
X135595741Y-140444996D01*
X135595741Y-140444996D02*
X135595741Y-140552746D01*
X135595741Y-140552746D02*
X135541867Y-140660495D01*
X135541867Y-140660495D02*
X135407180Y-140795182D01*
X134006435Y-166518431D02*
X133925623Y-166545368D01*
X133925623Y-166545368D02*
X133844811Y-166626180D01*
X133844811Y-166626180D02*
X133790936Y-166733930D01*
X133790936Y-166733930D02*
X133790936Y-166841680D01*
X133790936Y-166841680D02*
X133817873Y-166922492D01*
X133817873Y-166922492D02*
X133898685Y-167057179D01*
X133898685Y-167057179D02*
X133979498Y-167137991D01*
X133979498Y-167137991D02*
X134114185Y-167218803D01*
X134114185Y-167218803D02*
X134194997Y-167245741D01*
X134194997Y-167245741D02*
X134302746Y-167245741D01*
X134302746Y-167245741D02*
X134410496Y-167191866D01*
X134410496Y-167191866D02*
X134464371Y-167137991D01*
X134464371Y-167137991D02*
X134518246Y-167030241D01*
X134518246Y-167030241D02*
X134518246Y-166976367D01*
X134518246Y-166976367D02*
X134329684Y-166787805D01*
X134329684Y-166787805D02*
X134221934Y-166895554D01*
X134814557Y-166787805D02*
X134248872Y-166222119D01*
X134248872Y-166222119D02*
X135137806Y-166464556D01*
X135137806Y-166464556D02*
X134572120Y-165898871D01*
X135407180Y-166195182D02*
X134841494Y-165629497D01*
X134841494Y-165629497D02*
X134976181Y-165494810D01*
X134976181Y-165494810D02*
X135083931Y-165440935D01*
X135083931Y-165440935D02*
X135191680Y-165440935D01*
X135191680Y-165440935D02*
X135272493Y-165467872D01*
X135272493Y-165467872D02*
X135407180Y-165548685D01*
X135407180Y-165548685D02*
X135487992Y-165629497D01*
X135487992Y-165629497D02*
X135568804Y-165764184D01*
X135568804Y-165764184D02*
X135595741Y-165844996D01*
X135595741Y-165844996D02*
X135595741Y-165952746D01*
X135595741Y-165952746D02*
X135541867Y-166060495D01*
X135541867Y-166060495D02*
X135407180Y-166195182D01*
X107963873Y-154761240D02*
X108233247Y-154491866D01*
X108071623Y-154976739D02*
X107694499Y-154222492D01*
X107694499Y-154222492D02*
X108448746Y-154599615D01*
X108394871Y-153575994D02*
X108314059Y-153602932D01*
X108314059Y-153602932D02*
X108233247Y-153683744D01*
X108233247Y-153683744D02*
X108179372Y-153791494D01*
X108179372Y-153791494D02*
X108179372Y-153899243D01*
X108179372Y-153899243D02*
X108206310Y-153980055D01*
X108206310Y-153980055D02*
X108287122Y-154114742D01*
X108287122Y-154114742D02*
X108367934Y-154195555D01*
X108367934Y-154195555D02*
X108502621Y-154276367D01*
X108502621Y-154276367D02*
X108583433Y-154303304D01*
X108583433Y-154303304D02*
X108691183Y-154303304D01*
X108691183Y-154303304D02*
X108798932Y-154249429D01*
X108798932Y-154249429D02*
X108852807Y-154195555D01*
X108852807Y-154195555D02*
X108906682Y-154087805D01*
X108906682Y-154087805D02*
X108906682Y-154033930D01*
X108906682Y-154033930D02*
X108718120Y-153845368D01*
X108718120Y-153845368D02*
X108610371Y-153953118D01*
X109202993Y-153845368D02*
X108637308Y-153279683D01*
X108637308Y-153279683D02*
X109526242Y-153522120D01*
X109526242Y-153522120D02*
X108960557Y-152956434D01*
X109795616Y-153252746D02*
X109229931Y-152687060D01*
X109229931Y-152687060D02*
X109364618Y-152552373D01*
X109364618Y-152552373D02*
X109472367Y-152498498D01*
X109472367Y-152498498D02*
X109580117Y-152498498D01*
X109580117Y-152498498D02*
X109660929Y-152525436D01*
X109660929Y-152525436D02*
X109795616Y-152606248D01*
X109795616Y-152606248D02*
X109876428Y-152687060D01*
X109876428Y-152687060D02*
X109957241Y-152821747D01*
X109957241Y-152821747D02*
X109984178Y-152902560D01*
X109984178Y-152902560D02*
X109984178Y-153010309D01*
X109984178Y-153010309D02*
X109930303Y-153118059D01*
X109930303Y-153118059D02*
X109795616Y-153252746D01*
D11*
%TO.C,J3*%
X116820000Y-47650000D02*
X116820000Y-56280000D01*
X117790000Y-56280000D02*
X117790000Y-56690000D01*
X118510000Y-56280000D02*
X118510000Y-56690000D01*
X119420000Y-47650000D02*
X119420000Y-56280000D01*
X120330000Y-56280000D02*
X120330000Y-56690000D01*
X121050000Y-56280000D02*
X121050000Y-56690000D01*
X121960000Y-47650000D02*
X121960000Y-56280000D01*
X122870000Y-56280000D02*
X122870000Y-56690000D01*
X123590000Y-56280000D02*
X123590000Y-56690000D01*
X124500000Y-47650000D02*
X124500000Y-56280000D01*
X124618100Y-47650000D02*
X124618100Y-56280000D01*
X124736195Y-47650000D02*
X124736195Y-56280000D01*
X124854290Y-47650000D02*
X124854290Y-56280000D01*
X124972385Y-47650000D02*
X124972385Y-56280000D01*
X125090480Y-47650000D02*
X125090480Y-56280000D01*
X125208575Y-47650000D02*
X125208575Y-56280000D01*
X125326670Y-47650000D02*
X125326670Y-56280000D01*
X125410000Y-56280000D02*
X125410000Y-56630000D01*
X125444765Y-47650000D02*
X125444765Y-56280000D01*
X125562860Y-47650000D02*
X125562860Y-56280000D01*
X125680955Y-47650000D02*
X125680955Y-56280000D01*
X125799050Y-47650000D02*
X125799050Y-56280000D01*
X125917145Y-47650000D02*
X125917145Y-56280000D01*
X126035240Y-47650000D02*
X126035240Y-56280000D01*
X126130000Y-56280000D02*
X126130000Y-56630000D01*
X126153335Y-47650000D02*
X126153335Y-56280000D01*
X126271430Y-47650000D02*
X126271430Y-56280000D01*
X126389525Y-47650000D02*
X126389525Y-56280000D01*
X126507620Y-47650000D02*
X126507620Y-56280000D01*
X126625715Y-47650000D02*
X126625715Y-56280000D01*
X126743810Y-47650000D02*
X126743810Y-56280000D01*
X126861905Y-47650000D02*
X126861905Y-56280000D01*
X126980000Y-47650000D02*
X126980000Y-56280000D01*
X127100000Y-47650000D02*
X116820000Y-47650000D01*
X127100000Y-47650000D02*
X127100000Y-56280000D01*
X127100000Y-56280000D02*
X116820000Y-56280000D01*
X127100000Y-57740000D02*
X127100000Y-58850000D01*
X127100000Y-58850000D02*
X125770000Y-58850000D01*
%TO.C,J2*%
X85750000Y-81180000D02*
X85750000Y-91460000D01*
X85750000Y-81180000D02*
X94380000Y-81180000D01*
X85750000Y-81300000D02*
X94380000Y-81300000D01*
X85750000Y-81418095D02*
X94380000Y-81418095D01*
X85750000Y-81536190D02*
X94380000Y-81536190D01*
X85750000Y-81654285D02*
X94380000Y-81654285D01*
X85750000Y-81772380D02*
X94380000Y-81772380D01*
X85750000Y-81890475D02*
X94380000Y-81890475D01*
X85750000Y-82008570D02*
X94380000Y-82008570D01*
X85750000Y-82126665D02*
X94380000Y-82126665D01*
X85750000Y-82244760D02*
X94380000Y-82244760D01*
X85750000Y-82362855D02*
X94380000Y-82362855D01*
X85750000Y-82480950D02*
X94380000Y-82480950D01*
X85750000Y-82599045D02*
X94380000Y-82599045D01*
X85750000Y-82717140D02*
X94380000Y-82717140D01*
X85750000Y-82835235D02*
X94380000Y-82835235D01*
X85750000Y-82953330D02*
X94380000Y-82953330D01*
X85750000Y-83071425D02*
X94380000Y-83071425D01*
X85750000Y-83189520D02*
X94380000Y-83189520D01*
X85750000Y-83307615D02*
X94380000Y-83307615D01*
X85750000Y-83425710D02*
X94380000Y-83425710D01*
X85750000Y-83543805D02*
X94380000Y-83543805D01*
X85750000Y-83661900D02*
X94380000Y-83661900D01*
X85750000Y-83780000D02*
X94380000Y-83780000D01*
X85750000Y-86320000D02*
X94380000Y-86320000D01*
X85750000Y-88860000D02*
X94380000Y-88860000D01*
X85750000Y-91460000D02*
X94380000Y-91460000D01*
X94380000Y-81180000D02*
X94380000Y-91460000D01*
X94380000Y-82150000D02*
X94730000Y-82150000D01*
X94380000Y-82870000D02*
X94730000Y-82870000D01*
X94380000Y-84690000D02*
X94790000Y-84690000D01*
X94380000Y-85410000D02*
X94790000Y-85410000D01*
X94380000Y-87230000D02*
X94790000Y-87230000D01*
X94380000Y-87950000D02*
X94790000Y-87950000D01*
X94380000Y-89770000D02*
X94790000Y-89770000D01*
X94380000Y-90490000D02*
X94790000Y-90490000D01*
X95840000Y-81180000D02*
X96950000Y-81180000D01*
X96950000Y-81180000D02*
X96950000Y-82510000D01*
%TO.C,U2*%
D12*
X111170000Y-67820000D02*
X132670000Y-67820000D01*
X132670000Y-99820000D01*
X111170000Y-99820000D01*
X111170000Y-67820000D01*
D11*
%TO.C,U4*%
X119265000Y-106620000D02*
X119265000Y-116900000D01*
X119265000Y-116900000D02*
X120915000Y-116900000D01*
X122915000Y-116900000D02*
X124565000Y-116900000D01*
X124565000Y-106620000D02*
X119265000Y-106620000D01*
X124565000Y-116900000D02*
X124565000Y-106620000D01*
X120915000Y-116900000D02*
G75*
G02*
X122915000Y-116900000I1000000J0D01*
G01*
%TO.C,U1*%
X111420000Y-121820000D02*
X118220000Y-121820000D01*
X111420000Y-124620000D02*
X111420000Y-124220000D01*
X111420000Y-127220000D02*
X111420000Y-126820000D01*
X111420000Y-129720000D02*
X111420000Y-129320000D01*
X111420000Y-132220000D02*
X111420000Y-131820000D01*
X111420000Y-134820000D02*
X111420000Y-134420000D01*
X111420000Y-137320000D02*
X111420000Y-136920000D01*
X111420000Y-139920000D02*
X111420000Y-139520000D01*
X111420000Y-142420000D02*
X111420000Y-142020000D01*
X111420000Y-145020000D02*
X111420000Y-144620000D01*
X111420000Y-147520000D02*
X111420000Y-147120000D01*
X111420000Y-150020000D02*
X111420000Y-149620000D01*
X111420000Y-152620000D02*
X111420000Y-152220000D01*
X111420000Y-155120000D02*
X111420000Y-154720000D01*
X111420000Y-157720000D02*
X111420000Y-157320000D01*
X111420000Y-160220000D02*
X111420000Y-159820000D01*
X111420000Y-162720000D02*
X111420000Y-162320000D01*
X111420000Y-165320000D02*
X111420000Y-164920000D01*
X111420000Y-167820000D02*
X111420000Y-167420000D01*
X111420000Y-170420000D02*
X111420000Y-170020000D01*
X111420000Y-172820000D02*
X111420000Y-172520000D01*
X120820000Y-121820000D02*
X120420000Y-121820000D01*
X123420000Y-121820000D02*
X123020000Y-121820000D01*
X125620000Y-121820000D02*
X132420000Y-121820000D01*
X129413000Y-170153000D02*
X129413000Y-172820000D01*
X132420000Y-124620000D02*
X132420000Y-124220000D01*
X132420000Y-127220000D02*
X132420000Y-126820000D01*
X132420000Y-129720000D02*
X132420000Y-129320000D01*
X132420000Y-132220000D02*
X132420000Y-131820000D01*
X132420000Y-134820000D02*
X132420000Y-134420000D01*
X132420000Y-137320000D02*
X132420000Y-136920000D01*
X132420000Y-139920000D02*
X132420000Y-139520000D01*
X132420000Y-142420000D02*
X132420000Y-142020000D01*
X132420000Y-145020000D02*
X132420000Y-144620000D01*
X132420000Y-147520000D02*
X132420000Y-147120000D01*
X132420000Y-150020000D02*
X132420000Y-149620000D01*
X132420000Y-152620000D02*
X132420000Y-152220000D01*
X132420000Y-155120000D02*
X132420000Y-154720000D01*
X132420000Y-157720000D02*
X132420000Y-157320000D01*
X132420000Y-160220000D02*
X132420000Y-159820000D01*
X132420000Y-162720000D02*
X132420000Y-162320000D01*
X132420000Y-165320000D02*
X132420000Y-164920000D01*
X132420000Y-167820000D02*
X132420000Y-167420000D01*
X132420000Y-170153000D02*
X129413000Y-170153000D01*
X132420000Y-170420000D02*
X132420000Y-170020000D01*
X132420000Y-172820000D02*
X111420000Y-172820000D01*
X132420000Y-172820000D02*
X132420000Y-172520000D01*
D12*
X125620000Y-172220000D02*
X118220000Y-172220000D01*
X118220000Y-167520000D01*
X125620000Y-167520000D01*
X125620000Y-172220000D01*
D11*
%TO.C,J1*%
X146890000Y-91540000D02*
X146890000Y-90210000D01*
X148000000Y-91540000D02*
X146890000Y-91540000D01*
X149460000Y-82230000D02*
X149050000Y-82230000D01*
X149460000Y-82950000D02*
X149050000Y-82950000D01*
X149460000Y-84770000D02*
X149050000Y-84770000D01*
X149460000Y-85490000D02*
X149050000Y-85490000D01*
X149460000Y-87310000D02*
X149050000Y-87310000D01*
X149460000Y-88030000D02*
X149050000Y-88030000D01*
X149460000Y-89850000D02*
X149110000Y-89850000D01*
X149460000Y-90570000D02*
X149110000Y-90570000D01*
X149460000Y-91540000D02*
X149460000Y-81260000D01*
X158090000Y-81260000D02*
X149460000Y-81260000D01*
X158090000Y-83860000D02*
X149460000Y-83860000D01*
X158090000Y-86400000D02*
X149460000Y-86400000D01*
X158090000Y-88940000D02*
X149460000Y-88940000D01*
X158090000Y-89058100D02*
X149460000Y-89058100D01*
X158090000Y-89176195D02*
X149460000Y-89176195D01*
X158090000Y-89294290D02*
X149460000Y-89294290D01*
X158090000Y-89412385D02*
X149460000Y-89412385D01*
X158090000Y-89530480D02*
X149460000Y-89530480D01*
X158090000Y-89648575D02*
X149460000Y-89648575D01*
X158090000Y-89766670D02*
X149460000Y-89766670D01*
X158090000Y-89884765D02*
X149460000Y-89884765D01*
X158090000Y-90002860D02*
X149460000Y-90002860D01*
X158090000Y-90120955D02*
X149460000Y-90120955D01*
X158090000Y-90239050D02*
X149460000Y-90239050D01*
X158090000Y-90357145D02*
X149460000Y-90357145D01*
X158090000Y-90475240D02*
X149460000Y-90475240D01*
X158090000Y-90593335D02*
X149460000Y-90593335D01*
X158090000Y-90711430D02*
X149460000Y-90711430D01*
X158090000Y-90829525D02*
X149460000Y-90829525D01*
X158090000Y-90947620D02*
X149460000Y-90947620D01*
X158090000Y-91065715D02*
X149460000Y-91065715D01*
X158090000Y-91183810D02*
X149460000Y-91183810D01*
X158090000Y-91301905D02*
X149460000Y-91301905D01*
X158090000Y-91420000D02*
X149460000Y-91420000D01*
X158090000Y-91540000D02*
X149460000Y-91540000D01*
X158090000Y-91540000D02*
X158090000Y-81260000D01*
%TD*%
M02*
