M48
; DRILL file {KiCad 9.0.1} date 2025-11-12T09:35:43+0900
; FORMAT={3:3/ absolute / metric / suppress leading zeros}
; #@! TF.CreationDate,2025-11-12T09:35:43+09:00
; #@! TF.GenerationSoftware,Kicad,Pcbnew,9.0.1
; #@! TF.FileFunction,MixedPlating,1,2
FMAT,2
METRIC,TZ
; #@! TA.AperFunction,Plated,PTH,ViaDrill
T1C0.300
; #@! TA.AperFunction,Plated,PTH,ComponentDrill
T2C0.800
; #@! TA.AperFunction,Plated,PTH,ComponentDrill
T3C1.000
; #@! TA.AperFunction,Plated,PTH,ComponentDrill
T4C1.020
%
G90
G05
T1
X83820Y-68580
X83820Y-86360
X86360Y-76200
X91440Y-86360
X93980Y-66040
X101600Y-124460
X106680Y-116840
X116840Y-66040
X116840Y-81280
X119380Y-63500
X119380Y-91440
X139700Y-60960
X139700Y-73660
X142240Y-58420
X142240Y-73660
T2
X118105Y-107950
X118105Y-110490
X118105Y-113030
X118105Y-115570
X125725Y-107950
X125725Y-110490
X125725Y-113030
X125725Y-115570
T3
X95840Y-82510
X95840Y-85050
X95840Y-87590
X95840Y-90130
X113140Y-70000
X113140Y-72540
X113140Y-75080
X113140Y-77620
X113140Y-80160
X113140Y-82700
X113140Y-85240
X113140Y-87780
X113140Y-90320
X113140Y-92860
X113140Y-95400
X113140Y-97940
X118150Y-57740
X120690Y-57740
X123230Y-57740
X125770Y-57740
X130920Y-70000
X130920Y-72540
X130920Y-75080
X130920Y-77620
X130920Y-80160
X130920Y-82700
X130920Y-85240
X130920Y-87780
X130920Y-90320
X130920Y-92860
X130920Y-95400
X130920Y-97940
X148000Y-82590
X148000Y-85130
X148000Y-87670
X148000Y-90210
T4
X113030Y-123190
X113030Y-125730
X113030Y-128270
X113030Y-130810
X113030Y-133350
X113030Y-135890
X113030Y-138430
X113030Y-140970
X113030Y-143510
X113030Y-146050
X113030Y-148590
X113030Y-151130
X113030Y-153670
X113030Y-156210
X113030Y-158750
X113030Y-161290
X113030Y-163830
X113030Y-166370
X113030Y-168910
X113030Y-171450
X130810Y-123190
X130810Y-125730
X130810Y-128270
X130810Y-130810
X130810Y-133350
X130810Y-135890
X130810Y-138430
X130810Y-140970
X130810Y-143510
X130810Y-146050
X130810Y-148590
X130810Y-151130
X130810Y-153670
X130810Y-156210
X130810Y-158750
X130810Y-161290
X130810Y-163830
X130810Y-166370
X130810Y-168910
X130810Y-171450
M30
