M48
; DRILL file {KiCad 9.0.1} date 2025-11-17T19:53:54+0900
; FORMAT={3:3/ absolute / metric / suppress leading zeros}
; #@! TF.CreationDate,2025-11-17T19:53:54+09:00
; #@! TF.GenerationSoftware,Kicad,Pcbnew,9.0.1
; #@! TF.FileFunction,MixedPlating,1,2
FMAT,2
METRIC,TZ
; #@! TA.AperFunction,Plated,PTH,ViaDrill
T1C0.300
; #@! TA.AperFunction,Plated,PTH,ComponentDrill
T2C0.700
; #@! TA.AperFunction,Plated,PTH,ComponentDrill
T3C0.800
; #@! TA.AperFunction,Plated,PTH,ComponentDrill
T4C0.950
; #@! TA.AperFunction,Plated,PTH,ComponentDrill
T5C1.000
; #@! TA.AperFunction,Plated,PTH,ComponentDrill
T6C1.020
%
G90
G05
T1
X76200Y-78740
X76200Y-94020
X78740Y-93980
X83820Y-119380
X86360Y-73660
X91440Y-66040
X91440Y-73660
X91440Y-109220
X101600Y-73660
X109220Y-101600
X114300Y-119380
X114300Y-121920
X116840Y-71120
X119380Y-71120
X119380Y-86360
X119380Y-104140
X127000Y-66040
X127000Y-68580
X127000Y-86360
X127000Y-157480
X127000Y-160020
X129540Y-119380
X129540Y-121920
X133350Y-97790
X137160Y-63500
X137160Y-93980
X142240Y-73660
X147320Y-76200
X147320Y-88900
T2
X80010Y-71120
X80010Y-76200
X80010Y-88020
X80010Y-91440
X87630Y-71120
X87630Y-76200
X87630Y-88020
X87630Y-91440
X93980Y-111760
X93980Y-116840
X101600Y-111760
X101600Y-116840
X105410Y-65515
X105410Y-68665
X113030Y-65515
X113030Y-68665
X132080Y-158970
X132080Y-162120
X133350Y-80670
X133350Y-83820
X133350Y-86970
X133350Y-90120
X139700Y-158970
X139700Y-162120
X140970Y-80670
X140970Y-83820
X140970Y-86970
X140970Y-90120
T3
X106680Y-107800
X106680Y-110340
X106680Y-112880
X106680Y-115420
X114300Y-107800
X114300Y-110340
X114300Y-112880
X114300Y-115420
T4
X70595Y-72450
X70595Y-74950
X70595Y-77450
X70595Y-79950
X71120Y-89020
X71120Y-91520
X71120Y-94020
X71120Y-96520
X105470Y-55355
X107970Y-55355
X110470Y-55355
X112970Y-55355
X152400Y-89020
X152400Y-91520
X152400Y-94020
X152400Y-96520
X152440Y-72240
X152440Y-74740
X152440Y-77240
X152440Y-79740
T5
X96520Y-76200
X96520Y-93980
X99060Y-76200
X99060Y-93980
X101600Y-76200
X101600Y-93980
X104140Y-76200
X104140Y-93980
X106680Y-76200
X106680Y-93980
X109220Y-76200
X109220Y-93980
X111760Y-76200
X111760Y-93980
X114300Y-76200
X114300Y-93980
X116840Y-76200
X116840Y-93980
X119380Y-76200
X119380Y-93980
X121920Y-76200
X121920Y-93980
X124460Y-76200
X124460Y-93980
T6
X102535Y-125580
X102535Y-128120
X102535Y-130660
X102535Y-133200
X102535Y-135740
X102535Y-138280
X102535Y-140820
X102535Y-143360
X102535Y-145900
X102535Y-148440
X102535Y-150980
X102535Y-153520
X102535Y-156060
X102535Y-158600
X102535Y-161140
X102535Y-163680
X102535Y-166220
X102535Y-168760
X102535Y-171300
X102535Y-173840
X120315Y-125580
X120315Y-128120
X120315Y-130660
X120315Y-133200
X120315Y-135740
X120315Y-138280
X120315Y-140820
X120315Y-143360
X120315Y-145900
X120315Y-148440
X120315Y-150980
X120315Y-153520
X120315Y-156060
X120315Y-158600
X120315Y-161140
X120315Y-163680
X120315Y-166220
X120315Y-168760
X120315Y-171300
X120315Y-173840
M30
