%TF.GenerationSoftware,KiCad,Pcbnew,9.0.1*%
%TF.CreationDate,2025-11-17T19:53:31+09:00*%
%TF.ProjectId,RasPiMulti9jiku6,52617350-694d-4756-9c74-69396a696b75,rev?*%
%TF.SameCoordinates,Original*%
%TF.FileFunction,Copper,L1,Top*%
%TF.FilePolarity,Positive*%
%FSLAX46Y46*%
G04 Gerber Fmt 4.6, Leading zero omitted, Abs format (unit mm)*
G04 Created by KiCad (PCBNEW 9.0.1) date 2025-11-17 19:53:31*
%MOMM*%
%LPD*%
G01*
G04 APERTURE LIST*
G04 Aperture macros list*
%AMRoundRect*
0 Rectangle with rounded corners*
0 $1 Rounding radius*
0 $2 $3 $4 $5 $6 $7 $8 $9 X,Y pos of 4 corners*
0 Add a 4 corners polygon primitive as box body*
4,1,4,$2,$3,$4,$5,$6,$7,$8,$9,$2,$3,0*
0 Add four circle primitives for the rounded corners*
1,1,$1+$1,$2,$3*
1,1,$1+$1,$4,$5*
1,1,$1+$1,$6,$7*
1,1,$1+$1,$8,$9*
0 Add four rect primitives between the rounded corners*
20,1,$1+$1,$2,$3,$4,$5,0*
20,1,$1+$1,$4,$5,$6,$7,0*
20,1,$1+$1,$6,$7,$8,$9,0*
20,1,$1+$1,$8,$9,$2,$3,0*%
G04 Aperture macros list end*
%TA.AperFunction,ComponentPad*%
%ADD10C,1.400000*%
%TD*%
%TA.AperFunction,ComponentPad*%
%ADD11O,1.400000X1.400000*%
%TD*%
%TA.AperFunction,ComponentPad*%
%ADD12O,1.700000X1.700000*%
%TD*%
%TA.AperFunction,ComponentPad*%
%ADD13R,1.700000X1.700000*%
%TD*%
%TA.AperFunction,ComponentPad*%
%ADD14RoundRect,0.250000X0.725000X-0.600000X0.725000X0.600000X-0.725000X0.600000X-0.725000X-0.600000X0*%
%TD*%
%TA.AperFunction,ComponentPad*%
%ADD15O,1.950000X1.700000*%
%TD*%
%TA.AperFunction,ComponentPad*%
%ADD16RoundRect,0.250000X-0.600000X-0.725000X0.600000X-0.725000X0.600000X0.725000X-0.600000X0.725000X0*%
%TD*%
%TA.AperFunction,ComponentPad*%
%ADD17O,1.700000X1.950000*%
%TD*%
%TA.AperFunction,ComponentPad*%
%ADD18RoundRect,0.250000X-0.725000X0.600000X-0.725000X-0.600000X0.725000X-0.600000X0.725000X0.600000X0*%
%TD*%
%TA.AperFunction,ComponentPad*%
%ADD19RoundRect,0.250000X-0.550000X-0.550000X0.550000X-0.550000X0.550000X0.550000X-0.550000X0.550000X0*%
%TD*%
%TA.AperFunction,ComponentPad*%
%ADD20C,1.600000*%
%TD*%
%TA.AperFunction,ComponentPad*%
%ADD21C,1.905000*%
%TD*%
%TA.AperFunction,ViaPad*%
%ADD22C,0.800000*%
%TD*%
%TA.AperFunction,Conductor*%
%ADD23C,0.300000*%
%TD*%
G04 APERTURE END LIST*
D10*
%TO.P,R4,1*%
%TO.N,VCC*%
X93980000Y-111760000D03*
D11*
%TO.P,R4,2*%
%TO.N,SD1*%
X101600000Y-111760000D03*
%TD*%
D10*
%TO.P,R8,1*%
%TO.N,VCC*%
X133350000Y-90120000D03*
D11*
%TO.P,R8,2*%
%TO.N,SC4*%
X140970000Y-90120000D03*
%TD*%
D12*
%TO.P,U1,1,GPIO0*%
%TO.N,unconnected-(U1-GPIO0-Pad1)*%
X120315000Y-173840000D03*
%TO.P,U1,2,GPIO1*%
%TO.N,unconnected-(U1-GPIO1-Pad2)*%
X120315000Y-171300000D03*
D13*
%TO.P,U1,3,GND*%
%TO.N,unconnected-(U1-GND-Pad3)*%
X120315000Y-168760000D03*
D12*
%TO.P,U1,4,GPIO2*%
%TO.N,unconnected-(U1-GPIO2-Pad4)*%
X120315000Y-166220000D03*
%TO.P,U1,5,GPIO3*%
%TO.N,unconnected-(U1-GPIO3-Pad5)*%
X120315000Y-163680000D03*
%TO.P,U1,6,GPIO4*%
%TO.N,SDA*%
X120315000Y-161140000D03*
%TO.P,U1,7,GPIO5*%
%TO.N,SCL*%
X120315000Y-158600000D03*
D13*
%TO.P,U1,8,GND*%
%TO.N,unconnected-(U1-GND-Pad8)*%
X120315000Y-156060000D03*
D12*
%TO.P,U1,9,GPIO6*%
%TO.N,unconnected-(U1-GPIO6-Pad9)*%
X120315000Y-153520000D03*
%TO.P,U1,10,GPIO7*%
%TO.N,unconnected-(U1-GPIO7-Pad10)*%
X120315000Y-150980000D03*
%TO.P,U1,11,GPIO8*%
%TO.N,unconnected-(U1-GPIO8-Pad11)*%
X120315000Y-148440000D03*
%TO.P,U1,12,GPIO9*%
%TO.N,unconnected-(U1-GPIO9-Pad12)*%
X120315000Y-145900000D03*
D13*
%TO.P,U1,13,GND*%
%TO.N,unconnected-(U1-GND-Pad13)*%
X120315000Y-143360000D03*
D12*
%TO.P,U1,14,GPIO10*%
%TO.N,unconnected-(U1-GPIO10-Pad14)*%
X120315000Y-140820000D03*
%TO.P,U1,15,GPIO11*%
%TO.N,unconnected-(U1-GPIO11-Pad15)*%
X120315000Y-138280000D03*
%TO.P,U1,16,GPIO12*%
%TO.N,unconnected-(U1-GPIO12-Pad16)*%
X120315000Y-135740000D03*
%TO.P,U1,17,GPIO13*%
%TO.N,unconnected-(U1-GPIO13-Pad17)*%
X120315000Y-133200000D03*
D13*
%TO.P,U1,18,GND*%
%TO.N,unconnected-(U1-GND-Pad18)*%
X120315000Y-130660000D03*
D12*
%TO.P,U1,19,GPIO14*%
%TO.N,unconnected-(U1-GPIO14-Pad19)*%
X120315000Y-128120000D03*
%TO.P,U1,20,GPIO15*%
%TO.N,unconnected-(U1-GPIO15-Pad20)*%
X120315000Y-125580000D03*
%TO.P,U1,21,GPIO16*%
%TO.N,unconnected-(U1-GPIO16-Pad21)*%
X102535000Y-125580000D03*
%TO.P,U1,22,GPIO17*%
%TO.N,unconnected-(U1-GPIO17-Pad22)*%
X102535000Y-128120000D03*
D13*
%TO.P,U1,23,GND*%
%TO.N,unconnected-(U1-GND-Pad23)*%
X102535000Y-130660000D03*
D12*
%TO.P,U1,24,GPIO18*%
%TO.N,unconnected-(U1-GPIO18-Pad24)*%
X102535000Y-133200000D03*
%TO.P,U1,25,GPIO19*%
%TO.N,unconnected-(U1-GPIO19-Pad25)*%
X102535000Y-135740000D03*
%TO.P,U1,26,GPIO20*%
%TO.N,unconnected-(U1-GPIO20-Pad26)*%
X102535000Y-138280000D03*
%TO.P,U1,27,GPIO21*%
%TO.N,unconnected-(U1-GPIO21-Pad27)*%
X102535000Y-140820000D03*
D13*
%TO.P,U1,28,GND*%
%TO.N,unconnected-(U1-GND-Pad28)*%
X102535000Y-143360000D03*
D12*
%TO.P,U1,29,GPIO22*%
%TO.N,unconnected-(U1-GPIO22-Pad29)*%
X102535000Y-145900000D03*
%TO.P,U1,30,RUN*%
%TO.N,unconnected-(U1-RUN-Pad30)*%
X102535000Y-148440000D03*
%TO.P,U1,31,GPIO26_ADC0*%
%TO.N,unconnected-(U1-GPIO26_ADC0-Pad31)*%
X102535000Y-150980000D03*
%TO.P,U1,32,GPIO27_ADC1*%
%TO.N,unconnected-(U1-GPIO27_ADC1-Pad32)*%
X102535000Y-153520000D03*
D13*
%TO.P,U1,33,AGND*%
%TO.N,GND*%
X102535000Y-156060000D03*
D12*
%TO.P,U1,34,GPIO28_ADC2*%
%TO.N,unconnected-(U1-GPIO28_ADC2-Pad34)*%
X102535000Y-158600000D03*
%TO.P,U1,35,ADC_VREF*%
%TO.N,unconnected-(U1-ADC_VREF-Pad35)*%
X102535000Y-161140000D03*
%TO.P,U1,36,3V3*%
%TO.N,VCC*%
X102535000Y-163680000D03*
%TO.P,U1,37,3V3_EN*%
%TO.N,unconnected-(U1-3V3_EN-Pad37)*%
X102535000Y-166220000D03*
D13*
%TO.P,U1,38,GND*%
%TO.N,unconnected-(U1-GND-Pad38)*%
X102535000Y-168760000D03*
D12*
%TO.P,U1,39,VSYS*%
%TO.N,unconnected-(U1-VSYS-Pad39)*%
X102535000Y-171300000D03*
%TO.P,U1,40,VBUS*%
%TO.N,unconnected-(U1-VBUS-Pad40)*%
X102535000Y-173840000D03*
%TD*%
D10*
%TO.P,R3,1*%
%TO.N,VCC*%
X93980000Y-116840000D03*
D11*
%TO.P,R3,2*%
%TO.N,SC1*%
X101600000Y-116840000D03*
%TD*%
D10*
%TO.P,R10,1*%
%TO.N,VCC*%
X87630000Y-71120000D03*
D11*
%TO.P,R10,2*%
%TO.N,SC5*%
X80010000Y-71120000D03*
%TD*%
D14*
%TO.P,J6,1,Pin_1*%
%TO.N,VCC*%
X71120000Y-96520000D03*
D15*
%TO.P,J6,2,Pin_2*%
%TO.N,GND*%
X71120000Y-94020000D03*
%TO.P,J6,3,Pin_3*%
%TO.N,SD6*%
X71120000Y-91520000D03*
%TO.P,J6,4,Pin_4*%
%TO.N,SC6*%
X71120000Y-89020000D03*
%TD*%
D14*
%TO.P,J5,1,Pin_1*%
%TO.N,VCC*%
X70595000Y-79950000D03*
D15*
%TO.P,J5,2,Pin_2*%
%TO.N,GND*%
X70595000Y-77450000D03*
%TO.P,J5,3,Pin_3*%
%TO.N,SD5*%
X70595000Y-74950000D03*
%TO.P,J5,4,Pin_4*%
%TO.N,SC5*%
X70595000Y-72450000D03*
%TD*%
D10*
%TO.P,R11,1*%
%TO.N,VCC*%
X87630000Y-91440000D03*
D11*
%TO.P,R11,2*%
%TO.N,SD6*%
X80010000Y-91440000D03*
%TD*%
D10*
%TO.P,R2,1*%
%TO.N,VCC*%
X139700000Y-158970000D03*
D11*
%TO.P,R2,2*%
%TO.N,SCL*%
X132080000Y-158970000D03*
%TD*%
D10*
%TO.P,R12,1*%
%TO.N,VCC*%
X87630000Y-88020000D03*
D11*
%TO.P,R12,2*%
%TO.N,SC6*%
X80010000Y-88020000D03*
%TD*%
D16*
%TO.P,J2,1,Pin_1*%
%TO.N,VCC*%
X105470000Y-55355000D03*
D17*
%TO.P,J2,2,Pin_2*%
%TO.N,GND*%
X107970000Y-55355000D03*
%TO.P,J2,3,Pin_3*%
%TO.N,SD2*%
X110470000Y-55355000D03*
%TO.P,J2,4,Pin_4*%
%TO.N,SC2*%
X112970000Y-55355000D03*
%TD*%
D10*
%TO.P,R9,1*%
%TO.N,VCC*%
X87630000Y-76200000D03*
D11*
%TO.P,R9,2*%
%TO.N,SD5*%
X80010000Y-76200000D03*
%TD*%
D10*
%TO.P,R6,1*%
%TO.N,VCC*%
X133350000Y-83820000D03*
D11*
%TO.P,R6,2*%
%TO.N,SC3*%
X140970000Y-83820000D03*
%TD*%
D10*
%TO.P,R13,1*%
%TO.N,VCC*%
X105410000Y-65515000D03*
D11*
%TO.P,R13,2*%
%TO.N,SD2*%
X113030000Y-65515000D03*
%TD*%
D10*
%TO.P,R14,1*%
%TO.N,VCC*%
X105410000Y-68665000D03*
D11*
%TO.P,R14,2*%
%TO.N,SC2*%
X113030000Y-68665000D03*
%TD*%
D18*
%TO.P,J4,1,Pin_1*%
%TO.N,VCC*%
X152400000Y-89020000D03*
D15*
%TO.P,J4,2,Pin_2*%
%TO.N,GND*%
X152400000Y-91520000D03*
%TO.P,J4,3,Pin_3*%
%TO.N,SD4*%
X152400000Y-94020000D03*
%TO.P,J4,4,Pin_4*%
%TO.N,SC4*%
X152400000Y-96520000D03*
%TD*%
D10*
%TO.P,R7,1*%
%TO.N,VCC*%
X133350000Y-86970000D03*
D11*
%TO.P,R7,2*%
%TO.N,SD4*%
X140970000Y-86970000D03*
%TD*%
D10*
%TO.P,R1,1*%
%TO.N,VCC*%
X139700000Y-162120000D03*
D11*
%TO.P,R1,2*%
%TO.N,SDA*%
X132080000Y-162120000D03*
%TD*%
D10*
%TO.P,R5,1*%
%TO.N,VCC*%
X133350000Y-80670000D03*
D11*
%TO.P,R5,2*%
%TO.N,SD3*%
X140970000Y-80670000D03*
%TD*%
D19*
%TO.P,U4,1,Vin*%
%TO.N,VCC*%
X106680000Y-107800000D03*
D20*
%TO.P,U4,2,GND*%
%TO.N,GND*%
X106680000Y-110340000D03*
%TO.P,U4,3,SDA*%
%TO.N,SD1*%
X106680000Y-112880000D03*
%TO.P,U4,4,SCL*%
%TO.N,SC1*%
X106680000Y-115420000D03*
%TO.P,U4,5,Vout*%
%TO.N,unconnected-(U4-Vout-Pad5)*%
X114300000Y-115420000D03*
%TO.P,U4,6,GND*%
%TO.N,unconnected-(U4-GND-Pad6)*%
X114300000Y-112880000D03*
%TO.P,U4,7,INT*%
%TO.N,unconnected-(U4-INT-Pad7)*%
X114300000Y-110340000D03*
%TO.P,U4,8,RST*%
%TO.N,unconnected-(U4-RST-Pad8)*%
X114300000Y-107800000D03*
%TD*%
D18*
%TO.P,J3,1,Pin_1*%
%TO.N,VCC*%
X152440000Y-72240000D03*
D15*
%TO.P,J3,2,Pin_2*%
%TO.N,GND*%
X152440000Y-74740000D03*
%TO.P,J3,3,Pin_3*%
%TO.N,SD3*%
X152440000Y-77240000D03*
%TO.P,J3,4,Pin_4*%
%TO.N,SC3*%
X152440000Y-79740000D03*
%TD*%
D21*
%TO.P,U2,1,A0*%
%TO.N,GND*%
X109220000Y-93980000D03*
%TO.P,U2,2,A1*%
X111760000Y-93980000D03*
%TO.P,U2,3,RST*%
%TO.N,unconnected-(U2-RST-Pad3)*%
X106680000Y-93980000D03*
%TO.P,U2,4,SD0*%
%TO.N,unconnected-(U2-SD0-Pad4)*%
X116840000Y-93980000D03*
%TO.P,U2,5,SC0*%
%TO.N,unconnected-(U2-SC0-Pad5)*%
X119380000Y-93980000D03*
%TO.P,U2,6,SD1*%
%TO.N,SD1*%
X121920000Y-93980000D03*
%TO.P,U2,7,SC1*%
%TO.N,SC1*%
X124460000Y-93980000D03*
%TO.P,U2,8,SD2*%
%TO.N,SD2*%
X124460000Y-76200000D03*
%TO.P,U2,9,SC2*%
%TO.N,SC2*%
X121920000Y-76200000D03*
%TO.P,U2,10,SD3*%
%TO.N,SD3*%
X119380000Y-76200000D03*
%TO.P,U2,11,SC3*%
%TO.N,SC3*%
X116840000Y-76200000D03*
%TO.P,U2,12,GND*%
%TO.N,GND*%
X99060000Y-93980000D03*
%TO.P,U2,13,SD4*%
%TO.N,SD4*%
X114300000Y-76200000D03*
%TO.P,U2,14,SC4*%
%TO.N,SC4*%
X111760000Y-76200000D03*
%TO.P,U2,15,SD5*%
%TO.N,SD5*%
X109220000Y-76200000D03*
%TO.P,U2,16,SC5*%
%TO.N,SC5*%
X106680000Y-76200000D03*
%TO.P,U2,17,SD6*%
%TO.N,SD6*%
X104140000Y-76200000D03*
%TO.P,U2,18,SC6*%
%TO.N,SC6*%
X101600000Y-76200000D03*
%TO.P,U2,19,SD7*%
%TO.N,unconnected-(U2-SD7-Pad19)*%
X99060000Y-76200000D03*
%TO.P,U2,20,SC7*%
%TO.N,unconnected-(U2-SC7-Pad20)*%
X96520000Y-76200000D03*
%TO.P,U2,21,A2*%
%TO.N,GND*%
X114300000Y-93980000D03*
%TO.P,U2,22,SCL*%
%TO.N,SCL*%
X104140000Y-93980000D03*
%TO.P,U2,23,SDA*%
%TO.N,SDA*%
X101600000Y-93980000D03*
%TO.P,U2,24,VIN*%
%TO.N,VCC*%
X96520000Y-93980000D03*
%TD*%
D22*
%TO.N,SC5*%
X91440000Y-66040000D03*
X101600000Y-73660000D03*
%TO.N,SD3*%
X119380000Y-71120000D03*
X127000000Y-68580000D03*
%TO.N,SC3*%
X116840000Y-71120000D03*
X127000000Y-66040000D03*
%TO.N,GND*%
X137160000Y-63500000D03*
X147320000Y-88900000D03*
X76200000Y-78740000D03*
X76200000Y-94020000D03*
X91440000Y-109220000D03*
X83820000Y-119380000D03*
X142240000Y-73660000D03*
X147320000Y-76200000D03*
X78740000Y-93980000D03*
%TO.N,VCC*%
X127000000Y-86360000D03*
X119380000Y-86360000D03*
%TO.N,SC4*%
X137160000Y-93980000D03*
X133350000Y-97790000D03*
%TO.N,SD5*%
X91440000Y-73660000D03*
X86360000Y-73660000D03*
%TO.N,SDA*%
X127000000Y-157480000D03*
X109220000Y-101600000D03*
X119380000Y-104140000D03*
X127000000Y-160020000D03*
%TO.N,SC1*%
X129540000Y-121920000D03*
X114300000Y-121920000D03*
%TO.N,SD1*%
X114300000Y-119380000D03*
X129540000Y-119380000D03*
%TD*%
D23*
%TO.N,SC5*%
X93980000Y-66040000D02*
X91440000Y-66040000D01*
X101600000Y-73660000D02*
X93980000Y-66040000D01*
%TO.N,SD3*%
X121920000Y-68580000D02*
X119380000Y-71120000D01*
X127000000Y-68580000D02*
X121920000Y-68580000D01*
%TO.N,SC3*%
X116840000Y-68580000D02*
X116840000Y-71120000D01*
X127000000Y-66040000D02*
X119380000Y-66040000D01*
X119380000Y-66040000D02*
X116840000Y-68580000D01*
%TO.N,GND*%
X139700000Y-71120000D02*
X142240000Y-73660000D01*
X90170000Y-105410000D02*
X90170000Y-110490000D01*
X139700000Y-66040000D02*
X139700000Y-71120000D01*
X147320000Y-76200000D02*
X147320000Y-88900000D01*
X83820000Y-116840000D02*
X90170000Y-110490000D01*
X137160000Y-63500000D02*
X139700000Y-66040000D01*
X78740000Y-93980000D02*
X90170000Y-105410000D01*
X90170000Y-110490000D02*
X91440000Y-109220000D01*
X83820000Y-119380000D02*
X83820000Y-116840000D01*
X76200000Y-78740000D02*
X76200000Y-94020000D01*
%TO.N,VCC*%
X119380000Y-86360000D02*
X127000000Y-86360000D01*
%TO.N,SC4*%
X134338927Y-97790000D02*
X133350000Y-97790000D01*
X137160000Y-93980000D02*
X137160000Y-94968927D01*
X137160000Y-94968927D02*
X134338927Y-97790000D01*
%TO.N,SD5*%
X86360000Y-73660000D02*
X91440000Y-73660000D01*
%TO.N,SDA*%
X127000000Y-157480000D02*
X127000000Y-160020000D01*
X109220000Y-101600000D02*
X111760000Y-104140000D01*
X111760000Y-104140000D02*
X119380000Y-104140000D01*
%TO.N,SC1*%
X129540000Y-121920000D02*
X114300000Y-121920000D01*
%TO.N,SD1*%
X114300000Y-119380000D02*
X129540000Y-119380000D01*
%TD*%
%TA.AperFunction,Conductor*%
%TO.N,GND*%
G36*
X167082539Y-46240185D02*
G01*
X167128294Y-46292989D01*
X167139500Y-46344500D01*
X167139500Y-184795500D01*
X167119815Y-184862539D01*
X167067011Y-184908294D01*
X167015500Y-184919500D01*
X59044500Y-184919500D01*
X58977461Y-184899815D01*
X58931706Y-184847011D01*
X58920500Y-184795500D01*
X58920500Y-125473713D01*
X101184500Y-125473713D01*
X101184500Y-125686286D01*
X101217753Y-125896239D01*
X101283444Y-126098414D01*
X101379951Y-126287820D01*
X101504890Y-126459786D01*
X101655213Y-126610109D01*
X101827182Y-126735050D01*
X101835946Y-126739516D01*
X101886742Y-126787491D01*
X101903536Y-126855312D01*
X101880998Y-126921447D01*
X101835946Y-126960484D01*
X101827182Y-126964949D01*
X101655213Y-127089890D01*
X101504890Y-127240213D01*
X101379951Y-127412179D01*
X101283444Y-127601585D01*
X101217753Y-127803760D01*
X101184500Y-128013713D01*
X101184500Y-128226286D01*
X101217753Y-128436239D01*
X101283444Y-128638414D01*
X101379951Y-128827820D01*
X101504890Y-128999786D01*
X101618430Y-129113326D01*
X101651915Y-129174649D01*
X101646931Y-129244341D01*
X101605059Y-129300274D01*
X101574083Y-129317189D01*
X101442669Y-129366203D01*
X101442664Y-129366206D01*
X101327455Y-129452452D01*
X101327452Y-129452455D01*
X101241206Y-129567664D01*
X101241202Y-129567671D01*
X101190908Y-129702517D01*
X101184501Y-129762116D01*
X101184501Y-129762123D01*
X101184500Y-129762135D01*
X101184500Y-131557870D01*
X101184501Y-131557876D01*
X101190908Y-131617483D01*
X101241202Y-131752328D01*
X101241206Y-131752335D01*
X101327452Y-131867544D01*
X101327455Y-131867547D01*
X101442664Y-131953793D01*
X101442671Y-131953797D01*
X101574082Y-132002810D01*
X101630016Y-132044681D01*
X101654433Y-132110145D01*
X101639582Y-132178418D01*
X101618431Y-132206673D01*
X101504889Y-132320215D01*
X101379951Y-132492179D01*
X101283444Y-132681585D01*
X101217753Y-132883760D01*
X101184500Y-133093713D01*
X101184500Y-133306286D01*
X101217753Y-133516239D01*
X101283444Y-133718414D01*
X101379951Y-133907820D01*
X101504890Y-134079786D01*
X101655213Y-134230109D01*
X101827182Y-134355050D01*
X101835946Y-134359516D01*
X101886742Y-134407491D01*
X101903536Y-134475312D01*
X101880998Y-134541447D01*
X101835946Y-134580484D01*
X101827182Y-134584949D01*
X101655213Y-134709890D01*
X101504890Y-134860213D01*
X101379951Y-135032179D01*
X101283444Y-135221585D01*
X101217753Y-135423760D01*
X101184500Y-135633713D01*
X101184500Y-135846286D01*
X101217753Y-136056239D01*
X101283444Y-136258414D01*
X101379951Y-136447820D01*
X101504890Y-136619786D01*
X101655213Y-136770109D01*
X101827182Y-136895050D01*
X101835946Y-136899516D01*
X101886742Y-136947491D01*
X101903536Y-137015312D01*
X101880998Y-137081447D01*
X101835946Y-137120484D01*
X101827182Y-137124949D01*
X101655213Y-137249890D01*
X101504890Y-137400213D01*
X101379951Y-137572179D01*
X101283444Y-137761585D01*
X101217753Y-137963760D01*
X101184500Y-138173713D01*
X101184500Y-138386286D01*
X101217753Y-138596239D01*
X101283444Y-138798414D01*
X101379951Y-138987820D01*
X101504890Y-139159786D01*
X101655213Y-139310109D01*
X101827182Y-139435050D01*
X101835946Y-139439516D01*
X101886742Y-139487491D01*
X101903536Y-139555312D01*
X101880998Y-139621447D01*
X101835946Y-139660484D01*
X101827182Y-139664949D01*
X101655213Y-139789890D01*
X101504890Y-139940213D01*
X101379951Y-140112179D01*
X101283444Y-140301585D01*
X101217753Y-140503760D01*
X101184500Y-140713713D01*
X101184500Y-140926286D01*
X101217753Y-141136239D01*
X101283444Y-141338414D01*
X101379951Y-141527820D01*
X101504890Y-141699786D01*
X101618430Y-141813326D01*
X101651915Y-141874649D01*
X101646931Y-141944341D01*
X101605059Y-142000274D01*
X101574083Y-142017189D01*
X101442669Y-142066203D01*
X101442664Y-142066206D01*
X101327455Y-142152452D01*
X101327452Y-142152455D01*
X101241206Y-142267664D01*
X101241202Y-142267671D01*
X101190908Y-142402517D01*
X101184501Y-142462116D01*
X101184501Y-142462123D01*
X101184500Y-142462135D01*
X101184500Y-144257870D01*
X101184501Y-144257876D01*
X101190908Y-144317483D01*
X101241202Y-144452328D01*
X101241206Y-144452335D01*
X101327452Y-144567544D01*
X101327455Y-144567547D01*
X101442664Y-144653793D01*
X101442671Y-144653797D01*
X101574082Y-144702810D01*
X101630016Y-144744681D01*
X101654433Y-144810145D01*
X101639582Y-144878418D01*
X101618431Y-144906673D01*
X101504889Y-145020215D01*
X101379951Y-145192179D01*
X101283444Y-145381585D01*
X101217753Y-145583760D01*
X101184500Y-145793713D01*
X101184500Y-146006286D01*
X101217753Y-146216239D01*
X101283444Y-146418414D01*
X101379951Y-146607820D01*
X101504890Y-146779786D01*
X101655213Y-146930109D01*
X101827182Y-147055050D01*
X101835946Y-147059516D01*
X101886742Y-147107491D01*
X101903536Y-147175312D01*
X101880998Y-147241447D01*
X101835946Y-147280484D01*
X101827182Y-147284949D01*
X101655213Y-147409890D01*
X101504890Y-147560213D01*
X101379951Y-147732179D01*
X101283444Y-147921585D01*
X101217753Y-148123760D01*
X101184500Y-148333713D01*
X101184500Y-148546286D01*
X101217753Y-148756239D01*
X101283444Y-148958414D01*
X101379951Y-149147820D01*
X101504890Y-149319786D01*
X101655213Y-149470109D01*
X101827182Y-149595050D01*
X101835946Y-149599516D01*
X101886742Y-149647491D01*
X101903536Y-149715312D01*
X101880998Y-149781447D01*
X101835946Y-149820484D01*
X101827182Y-149824949D01*
X101655213Y-149949890D01*
X101504890Y-150100213D01*
X101379951Y-150272179D01*
X101283444Y-150461585D01*
X101217753Y-150663760D01*
X101184500Y-150873713D01*
X101184500Y-151086286D01*
X101217753Y-151296239D01*
X101283444Y-151498414D01*
X101379951Y-151687820D01*
X101504890Y-151859786D01*
X101655213Y-152010109D01*
X101827182Y-152135050D01*
X101835946Y-152139516D01*
X101886742Y-152187491D01*
X101903536Y-152255312D01*
X101880998Y-152321447D01*
X101835946Y-152360484D01*
X101827182Y-152364949D01*
X101655213Y-152489890D01*
X101504890Y-152640213D01*
X101379951Y-152812179D01*
X101283444Y-153001585D01*
X101217753Y-153203760D01*
X101184500Y-153413713D01*
X101184500Y-153626286D01*
X101217753Y-153836239D01*
X101283444Y-154038414D01*
X101379951Y-154227820D01*
X101504890Y-154399786D01*
X101618818Y-154513714D01*
X101652303Y-154575037D01*
X101647319Y-154644729D01*
X101605447Y-154700662D01*
X101574471Y-154717577D01*
X101442912Y-154766646D01*
X101442906Y-154766649D01*
X101327812Y-154852809D01*
X101327809Y-154852812D01*
X101241649Y-154967906D01*
X101241645Y-154967913D01*
X101191403Y-155102620D01*
X101191401Y-155102627D01*
X101185000Y-155162155D01*
X101185000Y-155810000D01*
X102090440Y-155810000D01*
X102059755Y-155863147D01*
X102025000Y-155992857D01*
X102025000Y-156127143D01*
X102059755Y-156256853D01*
X102090440Y-156310000D01*
X101185000Y-156310000D01*
X101185000Y-156957844D01*
X101191401Y-157017372D01*
X101191403Y-157017379D01*
X101241645Y-157152086D01*
X101241649Y-157152093D01*
X101327809Y-157267187D01*
X101327812Y-157267190D01*
X101442906Y-157353350D01*
X101442913Y-157353354D01*
X101574470Y-157402422D01*
X101630404Y-157444293D01*
X101654821Y-157509758D01*
X101639969Y-157578031D01*
X101618819Y-157606285D01*
X101504889Y-157720215D01*
X101379951Y-157892179D01*
X101283444Y-158081585D01*
X101217753Y-158283760D01*
X101208719Y-158340800D01*
X101184500Y-158493713D01*
X101184500Y-158706287D01*
X101217754Y-158916243D01*
X101265921Y-159064486D01*
X101283444Y-159118414D01*
X101379951Y-159307820D01*
X101504890Y-159479786D01*
X101655213Y-159630109D01*
X101827182Y-159755050D01*
X101835946Y-159759516D01*
X101886742Y-159807491D01*
X101903536Y-159875312D01*
X101880998Y-159941447D01*
X101835946Y-159980484D01*
X101827182Y-159984949D01*
X101655213Y-160109890D01*
X101504890Y-160260213D01*
X101379951Y-160432179D01*
X101283444Y-160621585D01*
X101217753Y-160823760D01*
X101202431Y-160920499D01*
X101184500Y-161033713D01*
X101184500Y-161246287D01*
X101217754Y-161456243D01*
X101228982Y-161490800D01*
X101283444Y-161658414D01*
X101379951Y-161847820D01*
X101504890Y-162019786D01*
X101655213Y-162170109D01*
X101827182Y-162295050D01*
X101835946Y-162299516D01*
X101886742Y-162347491D01*
X101903536Y-162415312D01*
X101880998Y-162481447D01*
X101835946Y-162520484D01*
X101827182Y-162524949D01*
X101655213Y-162649890D01*
X101504890Y-162800213D01*
X101379951Y-162972179D01*
X101283444Y-163161585D01*
X101217753Y-163363760D01*
X101184500Y-163573713D01*
X101184500Y-163786286D01*
X101217753Y-163996239D01*
X101283444Y-164198414D01*
X101379951Y-164387820D01*
X101504890Y-164559786D01*
X101655213Y-164710109D01*
X101827182Y-164835050D01*
X101835946Y-164839516D01*
X101886742Y-164887491D01*
X101903536Y-164955312D01*
X101880998Y-165021447D01*
X101835946Y-165060484D01*
X101827182Y-165064949D01*
X101655213Y-165189890D01*
X101504890Y-165340213D01*
X101379951Y-165512179D01*
X101283444Y-165701585D01*
X101217753Y-165903760D01*
X101184500Y-166113713D01*
X101184500Y-166326286D01*
X101217753Y-166536239D01*
X101283444Y-166738414D01*
X101379951Y-166927820D01*
X101504890Y-167099786D01*
X101618430Y-167213326D01*
X101651915Y-167274649D01*
X101646931Y-167344341D01*
X101605059Y-167400274D01*
X101574083Y-167417189D01*
X101442669Y-167466203D01*
X101442664Y-167466206D01*
X101327455Y-167552452D01*
X101327452Y-167552455D01*
X101241206Y-167667664D01*
X101241202Y-167667671D01*
X101190908Y-167802517D01*
X101184501Y-167862116D01*
X101184501Y-167862123D01*
X101184500Y-167862135D01*
X101184500Y-169657870D01*
X101184501Y-169657876D01*
X101190908Y-169717483D01*
X101241202Y-169852328D01*
X101241206Y-169852335D01*
X101327452Y-169967544D01*
X101327455Y-169967547D01*
X101442664Y-170053793D01*
X101442671Y-170053797D01*
X101574082Y-170102810D01*
X101630016Y-170144681D01*
X101654433Y-170210145D01*
X101639582Y-170278418D01*
X101618431Y-170306673D01*
X101504889Y-170420215D01*
X101379951Y-170592179D01*
X101283444Y-170781585D01*
X101217753Y-170983760D01*
X101184500Y-171193713D01*
X101184500Y-171406286D01*
X101217753Y-171616239D01*
X101283444Y-171818414D01*
X101379951Y-172007820D01*
X101504890Y-172179786D01*
X101655213Y-172330109D01*
X101827182Y-172455050D01*
X101835946Y-172459516D01*
X101886742Y-172507491D01*
X101903536Y-172575312D01*
X101880998Y-172641447D01*
X101835946Y-172680484D01*
X101827182Y-172684949D01*
X101655213Y-172809890D01*
X101504890Y-172960213D01*
X101379951Y-173132179D01*
X101283444Y-173321585D01*
X101217753Y-173523760D01*
X101184500Y-173733713D01*
X101184500Y-173946286D01*
X101217753Y-174156239D01*
X101283444Y-174358414D01*
X101379951Y-174547820D01*
X101504890Y-174719786D01*
X101655213Y-174870109D01*
X101827179Y-174995048D01*
X101827181Y-174995049D01*
X101827184Y-174995051D01*
X102016588Y-175091557D01*
X102218757Y-175157246D01*
X102428713Y-175190500D01*
X102428714Y-175190500D01*
X102641286Y-175190500D01*
X102641287Y-175190500D01*
X102851243Y-175157246D01*
X103053412Y-175091557D01*
X103242816Y-174995051D01*
X103264789Y-174979086D01*
X103414786Y-174870109D01*
X103414788Y-174870106D01*
X103414792Y-174870104D01*
X103565104Y-174719792D01*
X103565106Y-174719788D01*
X103565109Y-174719786D01*
X103690048Y-174547820D01*
X103690047Y-174547820D01*
X103690051Y-174547816D01*
X103786557Y-174358412D01*
X103852246Y-174156243D01*
X103885500Y-173946287D01*
X103885500Y-173733713D01*
X103852246Y-173523757D01*
X103786557Y-173321588D01*
X103690051Y-173132184D01*
X103690049Y-173132181D01*
X103690048Y-173132179D01*
X103565109Y-172960213D01*
X103414786Y-172809890D01*
X103242820Y-172684951D01*
X103242115Y-172684591D01*
X103234054Y-172680485D01*
X103183259Y-172632512D01*
X103166463Y-172564692D01*
X103188999Y-172498556D01*
X103234054Y-172459515D01*
X103242816Y-172455051D01*
X103264789Y-172439086D01*
X103414786Y-172330109D01*
X103414788Y-172330106D01*
X103414792Y-172330104D01*
X103565104Y-172179792D01*
X103565106Y-172179788D01*
X103565109Y-172179786D01*
X103690048Y-172007820D01*
X103690047Y-172007820D01*
X103690051Y-172007816D01*
X103786557Y-171818412D01*
X103852246Y-171616243D01*
X103885500Y-171406287D01*
X103885500Y-171193713D01*
X103852246Y-170983757D01*
X103786557Y-170781588D01*
X103690051Y-170592184D01*
X103690049Y-170592181D01*
X103690048Y-170592179D01*
X103565109Y-170420213D01*
X103451569Y-170306673D01*
X103418084Y-170245350D01*
X103423068Y-170175658D01*
X103464940Y-170119725D01*
X103495915Y-170102810D01*
X103627331Y-170053796D01*
X103742546Y-169967546D01*
X103828796Y-169852331D01*
X103879091Y-169717483D01*
X103885500Y-169657873D01*
X103885499Y-167862128D01*
X103879091Y-167802517D01*
X103828796Y-167667669D01*
X103828795Y-167667668D01*
X103828793Y-167667664D01*
X103742547Y-167552455D01*
X103742544Y-167552452D01*
X103627335Y-167466206D01*
X103627328Y-167466202D01*
X103495917Y-167417189D01*
X103439983Y-167375318D01*
X103415566Y-167309853D01*
X103430418Y-167241580D01*
X103451563Y-167213332D01*
X103565104Y-167099792D01*
X103690051Y-166927816D01*
X103786557Y-166738412D01*
X103852246Y-166536243D01*
X103885500Y-166326287D01*
X103885500Y-166113713D01*
X103852246Y-165903757D01*
X103786557Y-165701588D01*
X103690051Y-165512184D01*
X103690049Y-165512181D01*
X103690048Y-165512179D01*
X103565109Y-165340213D01*
X103414786Y-165189890D01*
X103242820Y-165064951D01*
X103242115Y-165064591D01*
X103234054Y-165060485D01*
X103183259Y-165012512D01*
X103166463Y-164944692D01*
X103188999Y-164878556D01*
X103234054Y-164839515D01*
X103242816Y-164835051D01*
X103264789Y-164819086D01*
X103414786Y-164710109D01*
X103414788Y-164710106D01*
X103414792Y-164710104D01*
X103565104Y-164559792D01*
X103565106Y-164559788D01*
X103565109Y-164559786D01*
X103690048Y-164387820D01*
X103690047Y-164387820D01*
X103690051Y-164387816D01*
X103786557Y-164198412D01*
X103852246Y-163996243D01*
X103885500Y-163786287D01*
X103885500Y-163573713D01*
X103852246Y-163363757D01*
X103786557Y-163161588D01*
X103690051Y-162972184D01*
X103690049Y-162972181D01*
X103690048Y-162972179D01*
X103565109Y-162800213D01*
X103414786Y-162649890D01*
X103242820Y-162524951D01*
X103242115Y-162524591D01*
X103234054Y-162520485D01*
X103183259Y-162472512D01*
X103166463Y-162404692D01*
X103188999Y-162338556D01*
X103234054Y-162299515D01*
X103242816Y-162295051D01*
X103264789Y-162279086D01*
X103414786Y-162170109D01*
X103414788Y-162170106D01*
X103414792Y-162170104D01*
X103565104Y-162019792D01*
X103565106Y-162019788D01*
X103565109Y-162019786D01*
X103690048Y-161847820D01*
X103690049Y-161847819D01*
X103690051Y-161847816D01*
X103786557Y-161658412D01*
X103852246Y-161456243D01*
X103885500Y-161246287D01*
X103885500Y-161033713D01*
X103852246Y-160823757D01*
X103786557Y-160621588D01*
X103690051Y-160432184D01*
X103690049Y-160432181D01*
X103690048Y-160432179D01*
X103565109Y-160260213D01*
X103414786Y-160109890D01*
X103242820Y-159984951D01*
X103242115Y-159984591D01*
X103234054Y-159980485D01*
X103183259Y-159932512D01*
X103166463Y-159864692D01*
X103188999Y-159798556D01*
X103234054Y-159759515D01*
X103242816Y-159755051D01*
X103264789Y-159739086D01*
X103414786Y-159630109D01*
X103414788Y-159630106D01*
X103414792Y-159630104D01*
X103565104Y-159479792D01*
X103565106Y-159479788D01*
X103565109Y-159479786D01*
X103690048Y-159307820D01*
X103690047Y-159307820D01*
X103690051Y-159307816D01*
X103786557Y-159118412D01*
X103852246Y-158916243D01*
X103885500Y-158706287D01*
X103885500Y-158493713D01*
X103852246Y-158283757D01*
X103786557Y-158081588D01*
X103690051Y-157892184D01*
X103690049Y-157892181D01*
X103690048Y-157892179D01*
X103565109Y-157720213D01*
X103451181Y-157606285D01*
X103417696Y-157544962D01*
X103422680Y-157475270D01*
X103464552Y-157419337D01*
X103495529Y-157402422D01*
X103627086Y-157353354D01*
X103627093Y-157353350D01*
X103742187Y-157267190D01*
X103742190Y-157267187D01*
X103828350Y-157152093D01*
X103828354Y-157152086D01*
X103878596Y-157017379D01*
X103878598Y-157017372D01*
X103884999Y-156957844D01*
X103885000Y-156957827D01*
X103885000Y-156310000D01*
X102979560Y-156310000D01*
X103010245Y-156256853D01*
X103045000Y-156127143D01*
X103045000Y-155992857D01*
X103010245Y-155863147D01*
X102979560Y-155810000D01*
X103885000Y-155810000D01*
X103885000Y-155162172D01*
X103884999Y-155162155D01*
X103878598Y-155102627D01*
X103878596Y-155102620D01*
X103828354Y-154967913D01*
X103828350Y-154967906D01*
X103742190Y-154852812D01*
X103742187Y-154852809D01*
X103627093Y-154766649D01*
X103627088Y-154766646D01*
X103495528Y-154717577D01*
X103439595Y-154675705D01*
X103415178Y-154610241D01*
X103430030Y-154541968D01*
X103451175Y-154513720D01*
X103565104Y-154399792D01*
X103690051Y-154227816D01*
X103786557Y-154038412D01*
X103852246Y-153836243D01*
X103885500Y-153626287D01*
X103885500Y-153413713D01*
X103852246Y-153203757D01*
X103786557Y-153001588D01*
X103690051Y-152812184D01*
X103690049Y-152812181D01*
X103690048Y-152812179D01*
X103565109Y-152640213D01*
X103414786Y-152489890D01*
X103242820Y-152364951D01*
X103242115Y-152364591D01*
X103234054Y-152360485D01*
X103183259Y-152312512D01*
X103166463Y-152244692D01*
X103188999Y-152178556D01*
X103234054Y-152139515D01*
X103242816Y-152135051D01*
X103264789Y-152119086D01*
X103414786Y-152010109D01*
X103414788Y-152010106D01*
X103414792Y-152010104D01*
X103565104Y-151859792D01*
X103565106Y-151859788D01*
X103565109Y-151859786D01*
X103690048Y-151687820D01*
X103690047Y-151687820D01*
X103690051Y-151687816D01*
X103786557Y-151498412D01*
X103852246Y-151296243D01*
X103885500Y-151086287D01*
X103885500Y-150873713D01*
X103852246Y-150663757D01*
X103786557Y-150461588D01*
X103690051Y-150272184D01*
X103690049Y-150272181D01*
X103690048Y-150272179D01*
X103565109Y-150100213D01*
X103414786Y-149949890D01*
X103242820Y-149824951D01*
X103242115Y-149824591D01*
X103234054Y-149820485D01*
X103183259Y-149772512D01*
X103166463Y-149704692D01*
X103188999Y-149638556D01*
X103234054Y-149599515D01*
X103242816Y-149595051D01*
X103264789Y-149579086D01*
X103414786Y-149470109D01*
X103414788Y-149470106D01*
X103414792Y-149470104D01*
X103565104Y-149319792D01*
X103565106Y-149319788D01*
X103565109Y-149319786D01*
X103690048Y-149147820D01*
X103690047Y-149147820D01*
X103690051Y-149147816D01*
X103786557Y-148958412D01*
X103852246Y-148756243D01*
X103885500Y-148546287D01*
X103885500Y-148333713D01*
X103852246Y-148123757D01*
X103786557Y-147921588D01*
X103690051Y-147732184D01*
X103690049Y-147732181D01*
X103690048Y-147732179D01*
X103565109Y-147560213D01*
X103414786Y-147409890D01*
X103242820Y-147284951D01*
X103242115Y-147284591D01*
X103234054Y-147280485D01*
X103183259Y-147232512D01*
X103166463Y-147164692D01*
X103188999Y-147098556D01*
X103234054Y-147059515D01*
X103242816Y-147055051D01*
X103264789Y-147039086D01*
X103414786Y-146930109D01*
X103414788Y-146930106D01*
X103414792Y-146930104D01*
X103565104Y-146779792D01*
X103565106Y-146779788D01*
X103565109Y-146779786D01*
X103690048Y-146607820D01*
X103690047Y-146607820D01*
X103690051Y-146607816D01*
X103786557Y-146418412D01*
X103852246Y-146216243D01*
X103885500Y-146006287D01*
X103885500Y-145793713D01*
X103852246Y-145583757D01*
X103786557Y-145381588D01*
X103690051Y-145192184D01*
X103690049Y-145192181D01*
X103690048Y-145192179D01*
X103565109Y-145020213D01*
X103451569Y-144906673D01*
X103418084Y-144845350D01*
X103423068Y-144775658D01*
X103464940Y-144719725D01*
X103495915Y-144702810D01*
X103627331Y-144653796D01*
X103742546Y-144567546D01*
X103828796Y-144452331D01*
X103879091Y-144317483D01*
X103885500Y-144257873D01*
X103885499Y-142462128D01*
X103879091Y-142402517D01*
X103828796Y-142267669D01*
X103828795Y-142267668D01*
X103828793Y-142267664D01*
X103742547Y-142152455D01*
X103742544Y-142152452D01*
X103627335Y-142066206D01*
X103627328Y-142066202D01*
X103495917Y-142017189D01*
X103439983Y-141975318D01*
X103415566Y-141909853D01*
X103430418Y-141841580D01*
X103451563Y-141813332D01*
X103565104Y-141699792D01*
X103690051Y-141527816D01*
X103786557Y-141338412D01*
X103852246Y-141136243D01*
X103885500Y-140926287D01*
X103885500Y-140713713D01*
X103852246Y-140503757D01*
X103786557Y-140301588D01*
X103690051Y-140112184D01*
X103690049Y-140112181D01*
X103690048Y-140112179D01*
X103565109Y-139940213D01*
X103414786Y-139789890D01*
X103242820Y-139664951D01*
X103242115Y-139664591D01*
X103234054Y-139660485D01*
X103183259Y-139612512D01*
X103166463Y-139544692D01*
X103188999Y-139478556D01*
X103234054Y-139439515D01*
X103242816Y-139435051D01*
X103264789Y-139419086D01*
X103414786Y-139310109D01*
X103414788Y-139310106D01*
X103414792Y-139310104D01*
X103565104Y-139159792D01*
X103565106Y-139159788D01*
X103565109Y-139159786D01*
X103690048Y-138987820D01*
X103690047Y-138987820D01*
X103690051Y-138987816D01*
X103786557Y-138798412D01*
X103852246Y-138596243D01*
X103885500Y-138386287D01*
X103885500Y-138173713D01*
X103852246Y-137963757D01*
X103786557Y-137761588D01*
X103690051Y-137572184D01*
X103690049Y-137572181D01*
X103690048Y-137572179D01*
X103565109Y-137400213D01*
X103414786Y-137249890D01*
X103242820Y-137124951D01*
X103242115Y-137124591D01*
X103234054Y-137120485D01*
X103183259Y-137072512D01*
X103166463Y-137004692D01*
X103188999Y-136938556D01*
X103234054Y-136899515D01*
X103242816Y-136895051D01*
X103264789Y-136879086D01*
X103414786Y-136770109D01*
X103414788Y-136770106D01*
X103414792Y-136770104D01*
X103565104Y-136619792D01*
X103565106Y-136619788D01*
X103565109Y-136619786D01*
X103690048Y-136447820D01*
X103690047Y-136447820D01*
X103690051Y-136447816D01*
X103786557Y-136258412D01*
X103852246Y-136056243D01*
X103885500Y-135846287D01*
X103885500Y-135633713D01*
X103852246Y-135423757D01*
X103786557Y-135221588D01*
X103690051Y-135032184D01*
X103690049Y-135032181D01*
X103690048Y-135032179D01*
X103565109Y-134860213D01*
X103414786Y-134709890D01*
X103242820Y-134584951D01*
X103242115Y-134584591D01*
X103234054Y-134580485D01*
X103183259Y-134532512D01*
X103166463Y-134464692D01*
X103188999Y-134398556D01*
X103234054Y-134359515D01*
X103242816Y-134355051D01*
X103264789Y-134339086D01*
X103414786Y-134230109D01*
X103414788Y-134230106D01*
X103414792Y-134230104D01*
X103565104Y-134079792D01*
X103565106Y-134079788D01*
X103565109Y-134079786D01*
X103690048Y-133907820D01*
X103690047Y-133907820D01*
X103690051Y-133907816D01*
X103786557Y-133718412D01*
X103852246Y-133516243D01*
X103885500Y-133306287D01*
X103885500Y-133093713D01*
X103852246Y-132883757D01*
X103786557Y-132681588D01*
X103690051Y-132492184D01*
X103690049Y-132492181D01*
X103690048Y-132492179D01*
X103565109Y-132320213D01*
X103451569Y-132206673D01*
X103418084Y-132145350D01*
X103423068Y-132075658D01*
X103464940Y-132019725D01*
X103495915Y-132002810D01*
X103627331Y-131953796D01*
X103742546Y-131867546D01*
X103828796Y-131752331D01*
X103879091Y-131617483D01*
X103885500Y-131557873D01*
X103885499Y-129762128D01*
X103879091Y-129702517D01*
X103828796Y-129567669D01*
X103828795Y-129567668D01*
X103828793Y-129567664D01*
X103742547Y-129452455D01*
X103742544Y-129452452D01*
X103627335Y-129366206D01*
X103627328Y-129366202D01*
X103495917Y-129317189D01*
X103439983Y-129275318D01*
X103415566Y-129209853D01*
X103430418Y-129141580D01*
X103451563Y-129113332D01*
X103565104Y-128999792D01*
X103690051Y-128827816D01*
X103786557Y-128638412D01*
X103852246Y-128436243D01*
X103885500Y-128226287D01*
X103885500Y-128013713D01*
X103852246Y-127803757D01*
X103786557Y-127601588D01*
X103690051Y-127412184D01*
X103690049Y-127412181D01*
X103690048Y-127412179D01*
X103565109Y-127240213D01*
X103414786Y-127089890D01*
X103242820Y-126964951D01*
X103242115Y-126964591D01*
X103234054Y-126960485D01*
X103183259Y-126912512D01*
X103166463Y-126844692D01*
X103188999Y-126778556D01*
X103234054Y-126739515D01*
X103242816Y-126735051D01*
X103264789Y-126719086D01*
X103414786Y-126610109D01*
X103414788Y-126610106D01*
X103414792Y-126610104D01*
X103565104Y-126459792D01*
X103565106Y-126459788D01*
X103565109Y-126459786D01*
X103690048Y-126287820D01*
X103690047Y-126287820D01*
X103690051Y-126287816D01*
X103786557Y-126098412D01*
X103852246Y-125896243D01*
X103885500Y-125686287D01*
X103885500Y-125473713D01*
X118964500Y-125473713D01*
X118964500Y-125686286D01*
X118997753Y-125896239D01*
X119063444Y-126098414D01*
X119159951Y-126287820D01*
X119284890Y-126459786D01*
X119435213Y-126610109D01*
X119607182Y-126735050D01*
X119615946Y-126739516D01*
X119666742Y-126787491D01*
X119683536Y-126855312D01*
X119660998Y-126921447D01*
X119615946Y-126960484D01*
X119607182Y-126964949D01*
X119435213Y-127089890D01*
X119284890Y-127240213D01*
X119159951Y-127412179D01*
X119063444Y-127601585D01*
X118997753Y-127803760D01*
X118964500Y-128013713D01*
X118964500Y-128226286D01*
X118997753Y-128436239D01*
X119063444Y-128638414D01*
X119159951Y-128827820D01*
X119284890Y-128999786D01*
X119398430Y-129113326D01*
X119431915Y-129174649D01*
X119426931Y-129244341D01*
X119385059Y-129300274D01*
X119354083Y-129317189D01*
X119222669Y-129366203D01*
X119222664Y-129366206D01*
X119107455Y-129452452D01*
X119107452Y-129452455D01*
X119021206Y-129567664D01*
X119021202Y-129567671D01*
X118970908Y-129702517D01*
X118964501Y-129762116D01*
X118964501Y-129762123D01*
X118964500Y-129762135D01*
X118964500Y-131557870D01*
X118964501Y-131557876D01*
X118970908Y-131617483D01*
X119021202Y-131752328D01*
X119021206Y-131752335D01*
X119107452Y-131867544D01*
X119107455Y-131867547D01*
X119222664Y-131953793D01*
X119222671Y-131953797D01*
X119354082Y-132002810D01*
X119410016Y-132044681D01*
X119434433Y-132110145D01*
X119419582Y-132178418D01*
X119398431Y-132206673D01*
X119284889Y-132320215D01*
X119159951Y-132492179D01*
X119063444Y-132681585D01*
X118997753Y-132883760D01*
X118964500Y-133093713D01*
X118964500Y-133306286D01*
X118997753Y-133516239D01*
X119063444Y-133718414D01*
X119159951Y-133907820D01*
X119284890Y-134079786D01*
X119435213Y-134230109D01*
X119607182Y-134355050D01*
X119615946Y-134359516D01*
X119666742Y-134407491D01*
X119683536Y-134475312D01*
X119660998Y-134541447D01*
X119615946Y-134580484D01*
X119607182Y-134584949D01*
X119435213Y-134709890D01*
X119284890Y-134860213D01*
X119159951Y-135032179D01*
X119063444Y-135221585D01*
X118997753Y-135423760D01*
X118964500Y-135633713D01*
X118964500Y-135846286D01*
X118997753Y-136056239D01*
X119063444Y-136258414D01*
X119159951Y-136447820D01*
X119284890Y-136619786D01*
X119435213Y-136770109D01*
X119607182Y-136895050D01*
X119615946Y-136899516D01*
X119666742Y-136947491D01*
X119683536Y-137015312D01*
X119660998Y-137081447D01*
X119615946Y-137120484D01*
X119607182Y-137124949D01*
X119435213Y-137249890D01*
X119284890Y-137400213D01*
X119159951Y-137572179D01*
X119063444Y-137761585D01*
X118997753Y-137963760D01*
X118964500Y-138173713D01*
X118964500Y-138386286D01*
X118997753Y-138596239D01*
X119063444Y-138798414D01*
X119159951Y-138987820D01*
X119284890Y-139159786D01*
X119435213Y-139310109D01*
X119607182Y-139435050D01*
X119615946Y-139439516D01*
X119666742Y-139487491D01*
X119683536Y-139555312D01*
X119660998Y-139621447D01*
X119615946Y-139660484D01*
X119607182Y-139664949D01*
X119435213Y-139789890D01*
X119284890Y-139940213D01*
X119159951Y-140112179D01*
X119063444Y-140301585D01*
X118997753Y-140503760D01*
X118964500Y-140713713D01*
X118964500Y-140926286D01*
X118997753Y-141136239D01*
X119063444Y-141338414D01*
X119159951Y-141527820D01*
X119284890Y-141699786D01*
X119398430Y-141813326D01*
X119431915Y-141874649D01*
X119426931Y-141944341D01*
X119385059Y-142000274D01*
X119354083Y-142017189D01*
X119222669Y-142066203D01*
X119222664Y-142066206D01*
X119107455Y-142152452D01*
X119107452Y-142152455D01*
X119021206Y-142267664D01*
X119021202Y-142267671D01*
X118970908Y-142402517D01*
X118964501Y-142462116D01*
X118964501Y-142462123D01*
X118964500Y-142462135D01*
X118964500Y-144257870D01*
X118964501Y-144257876D01*
X118970908Y-144317483D01*
X119021202Y-144452328D01*
X119021206Y-144452335D01*
X119107452Y-144567544D01*
X119107455Y-144567547D01*
X119222664Y-144653793D01*
X119222671Y-144653797D01*
X119354082Y-144702810D01*
X119410016Y-144744681D01*
X119434433Y-144810145D01*
X119419582Y-144878418D01*
X119398431Y-144906673D01*
X119284889Y-145020215D01*
X119159951Y-145192179D01*
X119063444Y-145381585D01*
X118997753Y-145583760D01*
X118964500Y-145793713D01*
X118964500Y-146006286D01*
X118997753Y-146216239D01*
X119063444Y-146418414D01*
X119159951Y-146607820D01*
X119284890Y-146779786D01*
X119435213Y-146930109D01*
X119607182Y-147055050D01*
X119615946Y-147059516D01*
X119666742Y-147107491D01*
X119683536Y-147175312D01*
X119660998Y-147241447D01*
X119615946Y-147280484D01*
X119607182Y-147284949D01*
X119435213Y-147409890D01*
X119284890Y-147560213D01*
X119159951Y-147732179D01*
X119063444Y-147921585D01*
X118997753Y-148123760D01*
X118964500Y-148333713D01*
X118964500Y-148546286D01*
X118997753Y-148756239D01*
X119063444Y-148958414D01*
X119159951Y-149147820D01*
X119284890Y-149319786D01*
X119435213Y-149470109D01*
X119607182Y-149595050D01*
X119615946Y-149599516D01*
X119666742Y-149647491D01*
X119683536Y-149715312D01*
X119660998Y-149781447D01*
X119615946Y-149820484D01*
X119607182Y-149824949D01*
X119435213Y-149949890D01*
X119284890Y-150100213D01*
X119159951Y-150272179D01*
X119063444Y-150461585D01*
X118997753Y-150663760D01*
X118964500Y-150873713D01*
X118964500Y-151086286D01*
X118997753Y-151296239D01*
X119063444Y-151498414D01*
X119159951Y-151687820D01*
X119284890Y-151859786D01*
X119435213Y-152010109D01*
X119607182Y-152135050D01*
X119615946Y-152139516D01*
X119666742Y-152187491D01*
X119683536Y-152255312D01*
X119660998Y-152321447D01*
X119615946Y-152360484D01*
X119607182Y-152364949D01*
X119435213Y-152489890D01*
X119284890Y-152640213D01*
X119159951Y-152812179D01*
X119063444Y-153001585D01*
X118997753Y-153203760D01*
X118964500Y-153413713D01*
X118964500Y-153626286D01*
X118997753Y-153836239D01*
X119063444Y-154038414D01*
X119159951Y-154227820D01*
X119284890Y-154399786D01*
X119398430Y-154513326D01*
X119431915Y-154574649D01*
X119426931Y-154644341D01*
X119385059Y-154700274D01*
X119354083Y-154717189D01*
X119222669Y-154766203D01*
X119222664Y-154766206D01*
X119107455Y-154852452D01*
X119107452Y-154852455D01*
X119021206Y-154967664D01*
X119021202Y-154967671D01*
X118970908Y-155102517D01*
X118964501Y-155162116D01*
X118964501Y-155162123D01*
X118964500Y-155162135D01*
X118964500Y-156957870D01*
X118964501Y-156957876D01*
X118970908Y-157017483D01*
X119021202Y-157152328D01*
X119021206Y-157152335D01*
X119107452Y-157267544D01*
X119107455Y-157267547D01*
X119222664Y-157353793D01*
X119222671Y-157353797D01*
X119354082Y-157402810D01*
X119410016Y-157444681D01*
X119434433Y-157510145D01*
X119419582Y-157578418D01*
X119398431Y-157606673D01*
X119284889Y-157720215D01*
X119159951Y-157892179D01*
X119063444Y-158081585D01*
X118997753Y-158283760D01*
X118988719Y-158340800D01*
X118964500Y-158493713D01*
X118964500Y-158706287D01*
X118997754Y-158916243D01*
X119045921Y-159064486D01*
X119063444Y-159118414D01*
X119159951Y-159307820D01*
X119284890Y-159479786D01*
X119435213Y-159630109D01*
X119607182Y-159755050D01*
X119615946Y-159759516D01*
X119666742Y-159807491D01*
X119683536Y-159875312D01*
X119660998Y-159941447D01*
X119615946Y-159980484D01*
X119607182Y-159984949D01*
X119435213Y-160109890D01*
X119284890Y-160260213D01*
X119159951Y-160432179D01*
X119063444Y-160621585D01*
X118997753Y-160823760D01*
X118982431Y-160920499D01*
X118964500Y-161033713D01*
X118964500Y-161246287D01*
X118997754Y-161456243D01*
X119008982Y-161490800D01*
X119063444Y-161658414D01*
X119159951Y-161847820D01*
X119284890Y-162019786D01*
X119435213Y-162170109D01*
X119607182Y-162295050D01*
X119615946Y-162299516D01*
X119666742Y-162347491D01*
X119683536Y-162415312D01*
X119660998Y-162481447D01*
X119615946Y-162520484D01*
X119607182Y-162524949D01*
X119435213Y-162649890D01*
X119284890Y-162800213D01*
X119159951Y-162972179D01*
X119063444Y-163161585D01*
X118997753Y-163363760D01*
X118964500Y-163573713D01*
X118964500Y-163786286D01*
X118997753Y-163996239D01*
X119063444Y-164198414D01*
X119159951Y-164387820D01*
X119284890Y-164559786D01*
X119435213Y-164710109D01*
X119607182Y-164835050D01*
X119615946Y-164839516D01*
X119666742Y-164887491D01*
X119683536Y-164955312D01*
X119660998Y-165021447D01*
X119615946Y-165060484D01*
X119607182Y-165064949D01*
X119435213Y-165189890D01*
X119284890Y-165340213D01*
X119159951Y-165512179D01*
X119063444Y-165701585D01*
X118997753Y-165903760D01*
X118964500Y-166113713D01*
X118964500Y-166326286D01*
X118997753Y-166536239D01*
X119063444Y-166738414D01*
X119159951Y-166927820D01*
X119284890Y-167099786D01*
X119398430Y-167213326D01*
X119431915Y-167274649D01*
X119426931Y-167344341D01*
X119385059Y-167400274D01*
X119354083Y-167417189D01*
X119222669Y-167466203D01*
X119222664Y-167466206D01*
X119107455Y-167552452D01*
X119107452Y-167552455D01*
X119021206Y-167667664D01*
X119021202Y-167667671D01*
X118970908Y-167802517D01*
X118964501Y-167862116D01*
X118964501Y-167862123D01*
X118964500Y-167862135D01*
X118964500Y-169657870D01*
X118964501Y-169657876D01*
X118970908Y-169717483D01*
X119021202Y-169852328D01*
X119021206Y-169852335D01*
X119107452Y-169967544D01*
X119107455Y-169967547D01*
X119222664Y-170053793D01*
X119222671Y-170053797D01*
X119354082Y-170102810D01*
X119410016Y-170144681D01*
X119434433Y-170210145D01*
X119419582Y-170278418D01*
X119398431Y-170306673D01*
X119284889Y-170420215D01*
X119159951Y-170592179D01*
X119063444Y-170781585D01*
X118997753Y-170983760D01*
X118964500Y-171193713D01*
X118964500Y-171406286D01*
X118997753Y-171616239D01*
X119063444Y-171818414D01*
X119159951Y-172007820D01*
X119284890Y-172179786D01*
X119435213Y-172330109D01*
X119607182Y-172455050D01*
X119615946Y-172459516D01*
X119666742Y-172507491D01*
X119683536Y-172575312D01*
X119660998Y-172641447D01*
X119615946Y-172680484D01*
X119607182Y-172684949D01*
X119435213Y-172809890D01*
X119284890Y-172960213D01*
X119159951Y-173132179D01*
X119063444Y-173321585D01*
X118997753Y-173523760D01*
X118964500Y-173733713D01*
X118964500Y-173946286D01*
X118997753Y-174156239D01*
X119063444Y-174358414D01*
X119159951Y-174547820D01*
X119284890Y-174719786D01*
X119435213Y-174870109D01*
X119607179Y-174995048D01*
X119607181Y-174995049D01*
X119607184Y-174995051D01*
X119796588Y-175091557D01*
X119998757Y-175157246D01*
X120208713Y-175190500D01*
X120208714Y-175190500D01*
X120421286Y-175190500D01*
X120421287Y-175190500D01*
X120631243Y-175157246D01*
X120833412Y-175091557D01*
X121022816Y-174995051D01*
X121044789Y-174979086D01*
X121194786Y-174870109D01*
X121194788Y-174870106D01*
X121194792Y-174870104D01*
X121345104Y-174719792D01*
X121345106Y-174719788D01*
X121345109Y-174719786D01*
X121470048Y-174547820D01*
X121470047Y-174547820D01*
X121470051Y-174547816D01*
X121566557Y-174358412D01*
X121632246Y-174156243D01*
X121665500Y-173946287D01*
X121665500Y-173733713D01*
X121632246Y-173523757D01*
X121566557Y-173321588D01*
X121470051Y-173132184D01*
X121470049Y-173132181D01*
X121470048Y-173132179D01*
X121345109Y-172960213D01*
X121194786Y-172809890D01*
X121022820Y-172684951D01*
X121022115Y-172684591D01*
X121014054Y-172680485D01*
X120963259Y-172632512D01*
X120946463Y-172564692D01*
X120968999Y-172498556D01*
X121014054Y-172459515D01*
X121022816Y-172455051D01*
X121044789Y-172439086D01*
X121194786Y-172330109D01*
X121194788Y-172330106D01*
X121194792Y-172330104D01*
X121345104Y-172179792D01*
X121345106Y-172179788D01*
X121345109Y-172179786D01*
X121470048Y-172007820D01*
X121470047Y-172007820D01*
X121470051Y-172007816D01*
X121566557Y-171818412D01*
X121632246Y-171616243D01*
X121665500Y-171406287D01*
X121665500Y-171193713D01*
X121632246Y-170983757D01*
X121566557Y-170781588D01*
X121470051Y-170592184D01*
X121470049Y-170592181D01*
X121470048Y-170592179D01*
X121345109Y-170420213D01*
X121231569Y-170306673D01*
X121198084Y-170245350D01*
X121203068Y-170175658D01*
X121244940Y-170119725D01*
X121275915Y-170102810D01*
X121407331Y-170053796D01*
X121522546Y-169967546D01*
X121608796Y-169852331D01*
X121659091Y-169717483D01*
X121665500Y-169657873D01*
X121665499Y-167862128D01*
X121659091Y-167802517D01*
X121608796Y-167667669D01*
X121608795Y-167667668D01*
X121608793Y-167667664D01*
X121522547Y-167552455D01*
X121522544Y-167552452D01*
X121407335Y-167466206D01*
X121407328Y-167466202D01*
X121275917Y-167417189D01*
X121219983Y-167375318D01*
X121195566Y-167309853D01*
X121210418Y-167241580D01*
X121231563Y-167213332D01*
X121345104Y-167099792D01*
X121470051Y-166927816D01*
X121566557Y-166738412D01*
X121632246Y-166536243D01*
X121665500Y-166326287D01*
X121665500Y-166113713D01*
X121632246Y-165903757D01*
X121566557Y-165701588D01*
X121470051Y-165512184D01*
X121470049Y-165512181D01*
X121470048Y-165512179D01*
X121345109Y-165340213D01*
X121194786Y-165189890D01*
X121022820Y-165064951D01*
X121022115Y-165064591D01*
X121014054Y-165060485D01*
X120963259Y-165012512D01*
X120946463Y-164944692D01*
X120968999Y-164878556D01*
X121014054Y-164839515D01*
X121022816Y-164835051D01*
X121044789Y-164819086D01*
X121194786Y-164710109D01*
X121194788Y-164710106D01*
X121194792Y-164710104D01*
X121345104Y-164559792D01*
X121345106Y-164559788D01*
X121345109Y-164559786D01*
X121470048Y-164387820D01*
X121470047Y-164387820D01*
X121470051Y-164387816D01*
X121566557Y-164198412D01*
X121632246Y-163996243D01*
X121665500Y-163786287D01*
X121665500Y-163573713D01*
X121632246Y-163363757D01*
X121566557Y-163161588D01*
X121470051Y-162972184D01*
X121470049Y-162972181D01*
X121470048Y-162972179D01*
X121345109Y-162800213D01*
X121194786Y-162649890D01*
X121022820Y-162524951D01*
X121022115Y-162524591D01*
X121014054Y-162520485D01*
X120963259Y-162472512D01*
X120946463Y-162404692D01*
X120968999Y-162338556D01*
X121014054Y-162299515D01*
X121022816Y-162295051D01*
X121044789Y-162279086D01*
X121194786Y-162170109D01*
X121194788Y-162170106D01*
X121194792Y-162170104D01*
X121339383Y-162025513D01*
X130879500Y-162025513D01*
X130879500Y-162214486D01*
X130909059Y-162401118D01*
X130967454Y-162580836D01*
X131053240Y-162749199D01*
X131164310Y-162902073D01*
X131297927Y-163035690D01*
X131450801Y-163146760D01*
X131479897Y-163161585D01*
X131619163Y-163232545D01*
X131619165Y-163232545D01*
X131619168Y-163232547D01*
X131715497Y-163263846D01*
X131798881Y-163290940D01*
X131985514Y-163320500D01*
X131985519Y-163320500D01*
X132174486Y-163320500D01*
X132361118Y-163290940D01*
X132540832Y-163232547D01*
X132709199Y-163146760D01*
X132862073Y-163035690D01*
X132995690Y-162902073D01*
X133106760Y-162749199D01*
X133192547Y-162580832D01*
X133250940Y-162401118D01*
X133267032Y-162299516D01*
X133280500Y-162214486D01*
X133280500Y-162025513D01*
X138499500Y-162025513D01*
X138499500Y-162214486D01*
X138529059Y-162401118D01*
X138587454Y-162580836D01*
X138673240Y-162749199D01*
X138784310Y-162902073D01*
X138917927Y-163035690D01*
X139070801Y-163146760D01*
X139099897Y-163161585D01*
X139239163Y-163232545D01*
X139239165Y-163232545D01*
X139239168Y-163232547D01*
X139335497Y-163263846D01*
X139418881Y-163290940D01*
X139605514Y-163320500D01*
X139605519Y-163320500D01*
X139794486Y-163320500D01*
X139981118Y-163290940D01*
X140160832Y-163232547D01*
X140329199Y-163146760D01*
X140482073Y-163035690D01*
X140615690Y-162902073D01*
X140726760Y-162749199D01*
X140812547Y-162580832D01*
X140870940Y-162401118D01*
X140887032Y-162299516D01*
X140900500Y-162214486D01*
X140900500Y-162025513D01*
X140870940Y-161838881D01*
X140812545Y-161659163D01*
X140726759Y-161490800D01*
X140615690Y-161337927D01*
X140482073Y-161204310D01*
X140329199Y-161093240D01*
X140160836Y-161007454D01*
X139981118Y-160949059D01*
X139794486Y-160919500D01*
X139794481Y-160919500D01*
X139605519Y-160919500D01*
X139605514Y-160919500D01*
X139418881Y-160949059D01*
X139239163Y-161007454D01*
X139070800Y-161093240D01*
X138983579Y-161156610D01*
X138917927Y-161204310D01*
X138917925Y-161204312D01*
X138917924Y-161204312D01*
X138784312Y-161337924D01*
X138784312Y-161337925D01*
X138784310Y-161337927D01*
X138736610Y-161403579D01*
X138673240Y-161490800D01*
X138587454Y-161659163D01*
X138529059Y-161838881D01*
X138499500Y-162025513D01*
X133280500Y-162025513D01*
X133250940Y-161838881D01*
X133192545Y-161659163D01*
X133106759Y-161490800D01*
X132995690Y-161337927D01*
X132862073Y-161204310D01*
X132709199Y-161093240D01*
X132540836Y-161007454D01*
X132361118Y-160949059D01*
X132174486Y-160919500D01*
X132174481Y-160919500D01*
X131985519Y-160919500D01*
X131985514Y-160919500D01*
X131798881Y-160949059D01*
X131619163Y-161007454D01*
X131450800Y-161093240D01*
X131363579Y-161156610D01*
X131297927Y-161204310D01*
X131297925Y-161204312D01*
X131297924Y-161204312D01*
X131164312Y-161337924D01*
X131164312Y-161337925D01*
X131164310Y-161337927D01*
X131116610Y-161403579D01*
X131053240Y-161490800D01*
X130967454Y-161659163D01*
X130909059Y-161838881D01*
X130879500Y-162025513D01*
X121339383Y-162025513D01*
X121345104Y-162019792D01*
X121470051Y-161847816D01*
X121566557Y-161658412D01*
X121632246Y-161456243D01*
X121665500Y-161246287D01*
X121665500Y-161033713D01*
X121632246Y-160823757D01*
X121566557Y-160621588D01*
X121470051Y-160432184D01*
X121470049Y-160432181D01*
X121470048Y-160432179D01*
X121345109Y-160260213D01*
X121194786Y-160109890D01*
X121022820Y-159984951D01*
X121022115Y-159984591D01*
X121014054Y-159980485D01*
X120963259Y-159932512D01*
X120946463Y-159864692D01*
X120968999Y-159798556D01*
X121014054Y-159759515D01*
X121022816Y-159755051D01*
X121044789Y-159739086D01*
X121194786Y-159630109D01*
X121194788Y-159630106D01*
X121194792Y-159630104D01*
X121345104Y-159479792D01*
X121345106Y-159479788D01*
X121345109Y-159479786D01*
X121470048Y-159307820D01*
X121470047Y-159307820D01*
X121470051Y-159307816D01*
X121566557Y-159118412D01*
X121632246Y-158916243D01*
X121665500Y-158706287D01*
X121665500Y-158493713D01*
X121632246Y-158283757D01*
X121566557Y-158081588D01*
X121470051Y-157892184D01*
X121470049Y-157892181D01*
X121470048Y-157892179D01*
X121345109Y-157720213D01*
X121231569Y-157606673D01*
X121198084Y-157545350D01*
X121203068Y-157475658D01*
X121244940Y-157419725D01*
X121275915Y-157402810D01*
X121306765Y-157391304D01*
X126099500Y-157391304D01*
X126099500Y-157568695D01*
X126134103Y-157742658D01*
X126134106Y-157742667D01*
X126201983Y-157906540D01*
X126201990Y-157906553D01*
X126300534Y-158054033D01*
X126300535Y-158054034D01*
X126300536Y-158054035D01*
X126313180Y-158066679D01*
X126346665Y-158127999D01*
X126349500Y-158154361D01*
X126349500Y-159345638D01*
X126329815Y-159412677D01*
X126313181Y-159433319D01*
X126300538Y-159445961D01*
X126300535Y-159445965D01*
X126201990Y-159593446D01*
X126201983Y-159593459D01*
X126134106Y-159757332D01*
X126134103Y-159757341D01*
X126099500Y-159931304D01*
X126099500Y-160108695D01*
X126134103Y-160282658D01*
X126134106Y-160282667D01*
X126201983Y-160446540D01*
X126201990Y-160446553D01*
X126300535Y-160594034D01*
X126300538Y-160594038D01*
X126425961Y-160719461D01*
X126425965Y-160719464D01*
X126573446Y-160818009D01*
X126573459Y-160818016D01*
X126696363Y-160868923D01*
X126737334Y-160885894D01*
X126737336Y-160885894D01*
X126737341Y-160885896D01*
X126911304Y-160920499D01*
X126911307Y-160920500D01*
X126911309Y-160920500D01*
X127088693Y-160920500D01*
X127088694Y-160920499D01*
X127146682Y-160908964D01*
X127262658Y-160885896D01*
X127262661Y-160885894D01*
X127262666Y-160885894D01*
X127426547Y-160818013D01*
X127574035Y-160719464D01*
X127699464Y-160594035D01*
X127798013Y-160446547D01*
X127865894Y-160282666D01*
X127870361Y-160260213D01*
X127900260Y-160109896D01*
X127900500Y-160108691D01*
X127900500Y-159931309D01*
X127900500Y-159931306D01*
X127900499Y-159931304D01*
X127865896Y-159757341D01*
X127865893Y-159757332D01*
X127798016Y-159593459D01*
X127798009Y-159593446D01*
X127699464Y-159445965D01*
X127699461Y-159445961D01*
X127686819Y-159433319D01*
X127653334Y-159371996D01*
X127650500Y-159345638D01*
X127650500Y-158875513D01*
X130879500Y-158875513D01*
X130879500Y-159064486D01*
X130909059Y-159251118D01*
X130967454Y-159430836D01*
X130992399Y-159479792D01*
X131053240Y-159599199D01*
X131164310Y-159752073D01*
X131297927Y-159885690D01*
X131450801Y-159996760D01*
X131530347Y-160037290D01*
X131619163Y-160082545D01*
X131619165Y-160082545D01*
X131619168Y-160082547D01*
X131699637Y-160108693D01*
X131798881Y-160140940D01*
X131985514Y-160170500D01*
X131985519Y-160170500D01*
X132174486Y-160170500D01*
X132361118Y-160140940D01*
X132540832Y-160082547D01*
X132709199Y-159996760D01*
X132862073Y-159885690D01*
X132995690Y-159752073D01*
X133106760Y-159599199D01*
X133192547Y-159430832D01*
X133250940Y-159251118D01*
X133280500Y-159064486D01*
X133280500Y-158875513D01*
X138499500Y-158875513D01*
X138499500Y-159064486D01*
X138529059Y-159251118D01*
X138587454Y-159430836D01*
X138612399Y-159479792D01*
X138673240Y-159599199D01*
X138784310Y-159752073D01*
X138917927Y-159885690D01*
X139070801Y-159996760D01*
X139150347Y-160037290D01*
X139239163Y-160082545D01*
X139239165Y-160082545D01*
X139239168Y-160082547D01*
X139319637Y-160108693D01*
X139418881Y-160140940D01*
X139605514Y-160170500D01*
X139605519Y-160170500D01*
X139794486Y-160170500D01*
X139981118Y-160140940D01*
X140160832Y-160082547D01*
X140329199Y-159996760D01*
X140482073Y-159885690D01*
X140615690Y-159752073D01*
X140726760Y-159599199D01*
X140812547Y-159430832D01*
X140870940Y-159251118D01*
X140900500Y-159064486D01*
X140900500Y-158875513D01*
X140870940Y-158688881D01*
X140812545Y-158509163D01*
X140726759Y-158340800D01*
X140615690Y-158187927D01*
X140482073Y-158054310D01*
X140329199Y-157943240D01*
X140160836Y-157857454D01*
X139981118Y-157799059D01*
X139794486Y-157769500D01*
X139794481Y-157769500D01*
X139605519Y-157769500D01*
X139605514Y-157769500D01*
X139418881Y-157799059D01*
X139239163Y-157857454D01*
X139070800Y-157943240D01*
X138983579Y-158006610D01*
X138917927Y-158054310D01*
X138917925Y-158054312D01*
X138917924Y-158054312D01*
X138784312Y-158187924D01*
X138784312Y-158187925D01*
X138784310Y-158187927D01*
X138736610Y-158253579D01*
X138673240Y-158340800D01*
X138587454Y-158509163D01*
X138529059Y-158688881D01*
X138499500Y-158875513D01*
X133280500Y-158875513D01*
X133250940Y-158688881D01*
X133192545Y-158509163D01*
X133106759Y-158340800D01*
X132995690Y-158187927D01*
X132862073Y-158054310D01*
X132709199Y-157943240D01*
X132540836Y-157857454D01*
X132361118Y-157799059D01*
X132174486Y-157769500D01*
X132174481Y-157769500D01*
X131985519Y-157769500D01*
X131985514Y-157769500D01*
X131798881Y-157799059D01*
X131619163Y-157857454D01*
X131450800Y-157943240D01*
X131363579Y-158006610D01*
X131297927Y-158054310D01*
X131297925Y-158054312D01*
X131297924Y-158054312D01*
X131164312Y-158187924D01*
X131164312Y-158187925D01*
X131164310Y-158187927D01*
X131116610Y-158253579D01*
X131053240Y-158340800D01*
X130967454Y-158509163D01*
X130909059Y-158688881D01*
X130879500Y-158875513D01*
X127650500Y-158875513D01*
X127650500Y-158154361D01*
X127670185Y-158087322D01*
X127686816Y-158066682D01*
X127699464Y-158054035D01*
X127798013Y-157906547D01*
X127865894Y-157742666D01*
X127870361Y-157720213D01*
X127900499Y-157568695D01*
X127900500Y-157568693D01*
X127900500Y-157391306D01*
X127900499Y-157391304D01*
X127865896Y-157217341D01*
X127865893Y-157217332D01*
X127798016Y-157053459D01*
X127798006Y-157053441D01*
X127699464Y-156905965D01*
X127699461Y-156905961D01*
X127574038Y-156780538D01*
X127574034Y-156780535D01*
X127426553Y-156681990D01*
X127426540Y-156681983D01*
X127262667Y-156614106D01*
X127262658Y-156614103D01*
X127088694Y-156579500D01*
X127088691Y-156579500D01*
X126911309Y-156579500D01*
X126911306Y-156579500D01*
X126737341Y-156614103D01*
X126737332Y-156614106D01*
X126573459Y-156681983D01*
X126573446Y-156681990D01*
X126425965Y-156780535D01*
X126425961Y-156780538D01*
X126300538Y-156905961D01*
X126300535Y-156905965D01*
X126201994Y-157053441D01*
X126201983Y-157053459D01*
X126134106Y-157217332D01*
X126134103Y-157217341D01*
X126099500Y-157391304D01*
X121306765Y-157391304D01*
X121407331Y-157353796D01*
X121522546Y-157267546D01*
X121608796Y-157152331D01*
X121659091Y-157017483D01*
X121665500Y-156957873D01*
X121665499Y-155162128D01*
X121659091Y-155102517D01*
X121608884Y-154967906D01*
X121608797Y-154967671D01*
X121608793Y-154967664D01*
X121522547Y-154852455D01*
X121522544Y-154852452D01*
X121407335Y-154766206D01*
X121407328Y-154766202D01*
X121275917Y-154717189D01*
X121219983Y-154675318D01*
X121195566Y-154609853D01*
X121210418Y-154541580D01*
X121231563Y-154513332D01*
X121345104Y-154399792D01*
X121470051Y-154227816D01*
X121566557Y-154038412D01*
X121632246Y-153836243D01*
X121665500Y-153626287D01*
X121665500Y-153413713D01*
X121632246Y-153203757D01*
X121566557Y-153001588D01*
X121470051Y-152812184D01*
X121470049Y-152812181D01*
X121470048Y-152812179D01*
X121345109Y-152640213D01*
X121194786Y-152489890D01*
X121022820Y-152364951D01*
X121022115Y-152364591D01*
X121014054Y-152360485D01*
X120963259Y-152312512D01*
X120946463Y-152244692D01*
X120968999Y-152178556D01*
X121014054Y-152139515D01*
X121022816Y-152135051D01*
X121044789Y-152119086D01*
X121194786Y-152010109D01*
X121194788Y-152010106D01*
X121194792Y-152010104D01*
X121345104Y-151859792D01*
X121345106Y-151859788D01*
X121345109Y-151859786D01*
X121470048Y-151687820D01*
X121470047Y-151687820D01*
X121470051Y-151687816D01*
X121566557Y-151498412D01*
X121632246Y-151296243D01*
X121665500Y-151086287D01*
X121665500Y-150873713D01*
X121632246Y-150663757D01*
X121566557Y-150461588D01*
X121470051Y-150272184D01*
X121470049Y-150272181D01*
X121470048Y-150272179D01*
X121345109Y-150100213D01*
X121194786Y-149949890D01*
X121022820Y-149824951D01*
X121022115Y-149824591D01*
X121014054Y-149820485D01*
X120963259Y-149772512D01*
X120946463Y-149704692D01*
X120968999Y-149638556D01*
X121014054Y-149599515D01*
X121022816Y-149595051D01*
X121044789Y-149579086D01*
X121194786Y-149470109D01*
X121194788Y-149470106D01*
X121194792Y-149470104D01*
X121345104Y-149319792D01*
X121345106Y-149319788D01*
X121345109Y-149319786D01*
X121470048Y-149147820D01*
X121470047Y-149147820D01*
X121470051Y-149147816D01*
X121566557Y-148958412D01*
X121632246Y-148756243D01*
X121665500Y-148546287D01*
X121665500Y-148333713D01*
X121632246Y-148123757D01*
X121566557Y-147921588D01*
X121470051Y-147732184D01*
X121470049Y-147732181D01*
X121470048Y-147732179D01*
X121345109Y-147560213D01*
X121194786Y-147409890D01*
X121022820Y-147284951D01*
X121022115Y-147284591D01*
X121014054Y-147280485D01*
X120963259Y-147232512D01*
X120946463Y-147164692D01*
X120968999Y-147098556D01*
X121014054Y-147059515D01*
X121022816Y-147055051D01*
X121044789Y-147039086D01*
X121194786Y-146930109D01*
X121194788Y-146930106D01*
X121194792Y-146930104D01*
X121345104Y-146779792D01*
X121345106Y-146779788D01*
X121345109Y-146779786D01*
X121470048Y-146607820D01*
X121470047Y-146607820D01*
X121470051Y-146607816D01*
X121566557Y-146418412D01*
X121632246Y-146216243D01*
X121665500Y-146006287D01*
X121665500Y-145793713D01*
X121632246Y-145583757D01*
X121566557Y-145381588D01*
X121470051Y-145192184D01*
X121470049Y-145192181D01*
X121470048Y-145192179D01*
X121345109Y-145020213D01*
X121231569Y-144906673D01*
X121198084Y-144845350D01*
X121203068Y-144775658D01*
X121244940Y-144719725D01*
X121275915Y-144702810D01*
X121407331Y-144653796D01*
X121522546Y-144567546D01*
X121608796Y-144452331D01*
X121659091Y-144317483D01*
X121665500Y-144257873D01*
X121665499Y-142462128D01*
X121659091Y-142402517D01*
X121608796Y-142267669D01*
X121608795Y-142267668D01*
X121608793Y-142267664D01*
X121522547Y-142152455D01*
X121522544Y-142152452D01*
X121407335Y-142066206D01*
X121407328Y-142066202D01*
X121275917Y-142017189D01*
X121219983Y-141975318D01*
X121195566Y-141909853D01*
X121210418Y-141841580D01*
X121231563Y-141813332D01*
X121345104Y-141699792D01*
X121470051Y-141527816D01*
X121566557Y-141338412D01*
X121632246Y-141136243D01*
X121665500Y-140926287D01*
X121665500Y-140713713D01*
X121632246Y-140503757D01*
X121566557Y-140301588D01*
X121470051Y-140112184D01*
X121470049Y-140112181D01*
X121470048Y-140112179D01*
X121345109Y-139940213D01*
X121194786Y-139789890D01*
X121022820Y-139664951D01*
X121022115Y-139664591D01*
X121014054Y-139660485D01*
X120963259Y-139612512D01*
X120946463Y-139544692D01*
X120968999Y-139478556D01*
X121014054Y-139439515D01*
X121022816Y-139435051D01*
X121044789Y-139419086D01*
X121194786Y-139310109D01*
X121194788Y-139310106D01*
X121194792Y-139310104D01*
X121345104Y-139159792D01*
X121345106Y-139159788D01*
X121345109Y-139159786D01*
X121470048Y-138987820D01*
X121470047Y-138987820D01*
X121470051Y-138987816D01*
X121566557Y-138798412D01*
X121632246Y-138596243D01*
X121665500Y-138386287D01*
X121665500Y-138173713D01*
X121632246Y-137963757D01*
X121566557Y-137761588D01*
X121470051Y-137572184D01*
X121470049Y-137572181D01*
X121470048Y-137572179D01*
X121345109Y-137400213D01*
X121194786Y-137249890D01*
X121022820Y-137124951D01*
X121022115Y-137124591D01*
X121014054Y-137120485D01*
X120963259Y-137072512D01*
X120946463Y-137004692D01*
X120968999Y-136938556D01*
X121014054Y-136899515D01*
X121022816Y-136895051D01*
X121044789Y-136879086D01*
X121194786Y-136770109D01*
X121194788Y-136770106D01*
X121194792Y-136770104D01*
X121345104Y-136619792D01*
X121345106Y-136619788D01*
X121345109Y-136619786D01*
X121470048Y-136447820D01*
X121470047Y-136447820D01*
X121470051Y-136447816D01*
X121566557Y-136258412D01*
X121632246Y-136056243D01*
X121665500Y-135846287D01*
X121665500Y-135633713D01*
X121632246Y-135423757D01*
X121566557Y-135221588D01*
X121470051Y-135032184D01*
X121470049Y-135032181D01*
X121470048Y-135032179D01*
X121345109Y-134860213D01*
X121194786Y-134709890D01*
X121022820Y-134584951D01*
X121022115Y-134584591D01*
X121014054Y-134580485D01*
X120963259Y-134532512D01*
X120946463Y-134464692D01*
X120968999Y-134398556D01*
X121014054Y-134359515D01*
X121022816Y-134355051D01*
X121044789Y-134339086D01*
X121194786Y-134230109D01*
X121194788Y-134230106D01*
X121194792Y-134230104D01*
X121345104Y-134079792D01*
X121345106Y-134079788D01*
X121345109Y-134079786D01*
X121470048Y-133907820D01*
X121470047Y-133907820D01*
X121470051Y-133907816D01*
X121566557Y-133718412D01*
X121632246Y-133516243D01*
X121665500Y-133306287D01*
X121665500Y-133093713D01*
X121632246Y-132883757D01*
X121566557Y-132681588D01*
X121470051Y-132492184D01*
X121470049Y-132492181D01*
X121470048Y-132492179D01*
X121345109Y-132320213D01*
X121231569Y-132206673D01*
X121198084Y-132145350D01*
X121203068Y-132075658D01*
X121244940Y-132019725D01*
X121275915Y-132002810D01*
X121407331Y-131953796D01*
X121522546Y-131867546D01*
X121608796Y-131752331D01*
X121659091Y-131617483D01*
X121665500Y-131557873D01*
X121665499Y-129762128D01*
X121659091Y-129702517D01*
X121608796Y-129567669D01*
X121608795Y-129567668D01*
X121608793Y-129567664D01*
X121522547Y-129452455D01*
X121522544Y-129452452D01*
X121407335Y-129366206D01*
X121407328Y-129366202D01*
X121275917Y-129317189D01*
X121219983Y-129275318D01*
X121195566Y-129209853D01*
X121210418Y-129141580D01*
X121231563Y-129113332D01*
X121345104Y-128999792D01*
X121470051Y-128827816D01*
X121566557Y-128638412D01*
X121632246Y-128436243D01*
X121665500Y-128226287D01*
X121665500Y-128013713D01*
X121632246Y-127803757D01*
X121566557Y-127601588D01*
X121470051Y-127412184D01*
X121470049Y-127412181D01*
X121470048Y-127412179D01*
X121345109Y-127240213D01*
X121194786Y-127089890D01*
X121022820Y-126964951D01*
X121022115Y-126964591D01*
X121014054Y-126960485D01*
X120963259Y-126912512D01*
X120946463Y-126844692D01*
X120968999Y-126778556D01*
X121014054Y-126739515D01*
X121022816Y-126735051D01*
X121044789Y-126719086D01*
X121194786Y-126610109D01*
X121194788Y-126610106D01*
X121194792Y-126610104D01*
X121345104Y-126459792D01*
X121345106Y-126459788D01*
X121345109Y-126459786D01*
X121470048Y-126287820D01*
X121470047Y-126287820D01*
X121470051Y-126287816D01*
X121566557Y-126098412D01*
X121632246Y-125896243D01*
X121665500Y-125686287D01*
X121665500Y-125473713D01*
X121632246Y-125263757D01*
X121566557Y-125061588D01*
X121470051Y-124872184D01*
X121470049Y-124872181D01*
X121470048Y-124872179D01*
X121345109Y-124700213D01*
X121194786Y-124549890D01*
X121022820Y-124424951D01*
X120833414Y-124328444D01*
X120833413Y-124328443D01*
X120833412Y-124328443D01*
X120631243Y-124262754D01*
X120631241Y-124262753D01*
X120631240Y-124262753D01*
X120469957Y-124237208D01*
X120421287Y-124229500D01*
X120208713Y-124229500D01*
X120160042Y-124237208D01*
X119998760Y-124262753D01*
X119796585Y-124328444D01*
X119607179Y-124424951D01*
X119435213Y-124549890D01*
X119284890Y-124700213D01*
X119159951Y-124872179D01*
X119063444Y-125061585D01*
X118997753Y-125263760D01*
X118964500Y-125473713D01*
X103885500Y-125473713D01*
X103852246Y-125263757D01*
X103786557Y-125061588D01*
X103690051Y-124872184D01*
X103690049Y-124872181D01*
X103690048Y-124872179D01*
X103565109Y-124700213D01*
X103414786Y-124549890D01*
X103242820Y-124424951D01*
X103053414Y-124328444D01*
X103053413Y-124328443D01*
X103053412Y-124328443D01*
X102851243Y-124262754D01*
X102851241Y-124262753D01*
X102851240Y-124262753D01*
X102689957Y-124237208D01*
X102641287Y-124229500D01*
X102428713Y-124229500D01*
X102380042Y-124237208D01*
X102218760Y-124262753D01*
X102016585Y-124328444D01*
X101827179Y-124424951D01*
X101655213Y-124549890D01*
X101504890Y-124700213D01*
X101379951Y-124872179D01*
X101283444Y-125061585D01*
X101217753Y-125263760D01*
X101184500Y-125473713D01*
X58920500Y-125473713D01*
X58920500Y-121831304D01*
X113399500Y-121831304D01*
X113399500Y-122008695D01*
X113434103Y-122182658D01*
X113434106Y-122182667D01*
X113501983Y-122346540D01*
X113501990Y-122346553D01*
X113600535Y-122494034D01*
X113600538Y-122494038D01*
X113725961Y-122619461D01*
X113725965Y-122619464D01*
X113873446Y-122718009D01*
X113873459Y-122718016D01*
X113996363Y-122768923D01*
X114037334Y-122785894D01*
X114037336Y-122785894D01*
X114037341Y-122785896D01*
X114211304Y-122820499D01*
X114211307Y-122820500D01*
X114211309Y-122820500D01*
X114388693Y-122820500D01*
X114388694Y-122820499D01*
X114446682Y-122808964D01*
X114562658Y-122785896D01*
X114562661Y-122785894D01*
X114562666Y-122785894D01*
X114726547Y-122718013D01*
X114874035Y-122619464D01*
X114874038Y-122619461D01*
X114886681Y-122606819D01*
X114948004Y-122573334D01*
X114974362Y-122570500D01*
X128865638Y-122570500D01*
X128932677Y-122590185D01*
X128953319Y-122606819D01*
X128965961Y-122619461D01*
X128965965Y-122619464D01*
X129113446Y-122718009D01*
X129113459Y-122718016D01*
X129236363Y-122768923D01*
X129277334Y-122785894D01*
X129277336Y-122785894D01*
X129277341Y-122785896D01*
X129451304Y-122820499D01*
X129451307Y-122820500D01*
X129451309Y-122820500D01*
X129628693Y-122820500D01*
X129628694Y-122820499D01*
X129686682Y-122808964D01*
X129802658Y-122785896D01*
X129802661Y-122785894D01*
X129802666Y-122785894D01*
X129966547Y-122718013D01*
X130114035Y-122619464D01*
X130239464Y-122494035D01*
X130338013Y-122346547D01*
X130405894Y-122182666D01*
X130440500Y-122008691D01*
X130440500Y-121831309D01*
X130440500Y-121831306D01*
X130440499Y-121831304D01*
X130405896Y-121657341D01*
X130405893Y-121657332D01*
X130338016Y-121493459D01*
X130338009Y-121493446D01*
X130239464Y-121345965D01*
X130239461Y-121345961D01*
X130114038Y-121220538D01*
X130114034Y-121220535D01*
X129966553Y-121121990D01*
X129966540Y-121121983D01*
X129802667Y-121054106D01*
X129802658Y-121054103D01*
X129628694Y-121019500D01*
X129628691Y-121019500D01*
X129451309Y-121019500D01*
X129451306Y-121019500D01*
X129277341Y-121054103D01*
X129277332Y-121054106D01*
X129113459Y-121121983D01*
X129113446Y-121121990D01*
X128965965Y-121220535D01*
X128965961Y-121220538D01*
X128953319Y-121233181D01*
X128891996Y-121266666D01*
X128865638Y-121269500D01*
X114974362Y-121269500D01*
X114907323Y-121249815D01*
X114886681Y-121233181D01*
X114874038Y-121220538D01*
X114874034Y-121220535D01*
X114726553Y-121121990D01*
X114726540Y-121121983D01*
X114562667Y-121054106D01*
X114562658Y-121054103D01*
X114388694Y-121019500D01*
X114388691Y-121019500D01*
X114211309Y-121019500D01*
X114211306Y-121019500D01*
X114037341Y-121054103D01*
X114037332Y-121054106D01*
X113873459Y-121121983D01*
X113873446Y-121121990D01*
X113725965Y-121220535D01*
X113725961Y-121220538D01*
X113600538Y-121345961D01*
X113600535Y-121345965D01*
X113501990Y-121493446D01*
X113501983Y-121493459D01*
X113434106Y-121657332D01*
X113434103Y-121657341D01*
X113399500Y-121831304D01*
X58920500Y-121831304D01*
X58920500Y-119291304D01*
X113399500Y-119291304D01*
X113399500Y-119468695D01*
X113434103Y-119642658D01*
X113434106Y-119642667D01*
X113501983Y-119806540D01*
X113501990Y-119806553D01*
X113600535Y-119954034D01*
X113600538Y-119954038D01*
X113725961Y-120079461D01*
X113725965Y-120079464D01*
X113873446Y-120178009D01*
X113873459Y-120178016D01*
X113996363Y-120228923D01*
X114037334Y-120245894D01*
X114037336Y-120245894D01*
X114037341Y-120245896D01*
X114211304Y-120280499D01*
X114211307Y-120280500D01*
X114211309Y-120280500D01*
X114388693Y-120280500D01*
X114388694Y-120280499D01*
X114446682Y-120268964D01*
X114562658Y-120245896D01*
X114562661Y-120245894D01*
X114562666Y-120245894D01*
X114726547Y-120178013D01*
X114874035Y-120079464D01*
X114874038Y-120079461D01*
X114886681Y-120066819D01*
X114948004Y-120033334D01*
X114974362Y-120030500D01*
X128865638Y-120030500D01*
X128932677Y-120050185D01*
X128953319Y-120066819D01*
X128965961Y-120079461D01*
X128965965Y-120079464D01*
X129113446Y-120178009D01*
X129113459Y-120178016D01*
X129236363Y-120228923D01*
X129277334Y-120245894D01*
X129277336Y-120245894D01*
X129277341Y-120245896D01*
X129451304Y-120280499D01*
X129451307Y-120280500D01*
X129451309Y-120280500D01*
X129628693Y-120280500D01*
X129628694Y-120280499D01*
X129686682Y-120268964D01*
X129802658Y-120245896D01*
X129802661Y-120245894D01*
X129802666Y-120245894D01*
X129966547Y-120178013D01*
X130114035Y-120079464D01*
X130239464Y-119954035D01*
X130338013Y-119806547D01*
X130405894Y-119642666D01*
X130440500Y-119468691D01*
X130440500Y-119291309D01*
X130440500Y-119291306D01*
X130440499Y-119291304D01*
X130405896Y-119117341D01*
X130405893Y-119117332D01*
X130338016Y-118953459D01*
X130338009Y-118953446D01*
X130239464Y-118805965D01*
X130239461Y-118805961D01*
X130114038Y-118680538D01*
X130114034Y-118680535D01*
X129966553Y-118581990D01*
X129966540Y-118581983D01*
X129802667Y-118514106D01*
X129802658Y-118514103D01*
X129628694Y-118479500D01*
X129628691Y-118479500D01*
X129451309Y-118479500D01*
X129451306Y-118479500D01*
X129277341Y-118514103D01*
X129277332Y-118514106D01*
X129113459Y-118581983D01*
X129113446Y-118581990D01*
X128965965Y-118680535D01*
X128965961Y-118680538D01*
X128953319Y-118693181D01*
X128891996Y-118726666D01*
X128865638Y-118729500D01*
X114974362Y-118729500D01*
X114907323Y-118709815D01*
X114886681Y-118693181D01*
X114874038Y-118680538D01*
X114874034Y-118680535D01*
X114726553Y-118581990D01*
X114726540Y-118581983D01*
X114562667Y-118514106D01*
X114562658Y-118514103D01*
X114388694Y-118479500D01*
X114388691Y-118479500D01*
X114211309Y-118479500D01*
X114211306Y-118479500D01*
X114037341Y-118514103D01*
X114037332Y-118514106D01*
X113873459Y-118581983D01*
X113873446Y-118581990D01*
X113725965Y-118680535D01*
X113725961Y-118680538D01*
X113600538Y-118805961D01*
X113600535Y-118805965D01*
X113501990Y-118953446D01*
X113501983Y-118953459D01*
X113434106Y-119117332D01*
X113434103Y-119117341D01*
X113399500Y-119291304D01*
X58920500Y-119291304D01*
X58920500Y-116745513D01*
X92779500Y-116745513D01*
X92779500Y-116934486D01*
X92809059Y-117121118D01*
X92867454Y-117300836D01*
X92953240Y-117469199D01*
X93064310Y-117622073D01*
X93197927Y-117755690D01*
X93350801Y-117866760D01*
X93430347Y-117907290D01*
X93519163Y-117952545D01*
X93519165Y-117952545D01*
X93519168Y-117952547D01*
X93615497Y-117983846D01*
X93698881Y-118010940D01*
X93885514Y-118040500D01*
X93885519Y-118040500D01*
X94074486Y-118040500D01*
X94261118Y-118010940D01*
X94440832Y-117952547D01*
X94609199Y-117866760D01*
X94762073Y-117755690D01*
X94895690Y-117622073D01*
X95006760Y-117469199D01*
X95092547Y-117300832D01*
X95150940Y-117121118D01*
X95180500Y-116934486D01*
X95180500Y-116745513D01*
X100399500Y-116745513D01*
X100399500Y-116934486D01*
X100429059Y-117121118D01*
X100487454Y-117300836D01*
X100573240Y-117469199D01*
X100684310Y-117622073D01*
X100817927Y-117755690D01*
X100970801Y-117866760D01*
X101050347Y-117907290D01*
X101139163Y-117952545D01*
X101139165Y-117952545D01*
X101139168Y-117952547D01*
X101235497Y-117983846D01*
X101318881Y-118010940D01*
X101505514Y-118040500D01*
X101505519Y-118040500D01*
X101694486Y-118040500D01*
X101881118Y-118010940D01*
X102060832Y-117952547D01*
X102229199Y-117866760D01*
X102382073Y-117755690D01*
X102515690Y-117622073D01*
X102626760Y-117469199D01*
X102712547Y-117300832D01*
X102770940Y-117121118D01*
X102800500Y-116934486D01*
X102800500Y-116745513D01*
X102770940Y-116558881D01*
X102712545Y-116379163D01*
X102626759Y-116210800D01*
X102515690Y-116057927D01*
X102382073Y-115924310D01*
X102229199Y-115813240D01*
X102060836Y-115727454D01*
X101881118Y-115669059D01*
X101694486Y-115639500D01*
X101694481Y-115639500D01*
X101505519Y-115639500D01*
X101505514Y-115639500D01*
X101318881Y-115669059D01*
X101139163Y-115727454D01*
X100970800Y-115813240D01*
X100883579Y-115876610D01*
X100817927Y-115924310D01*
X100817925Y-115924312D01*
X100817924Y-115924312D01*
X100684312Y-116057924D01*
X100684312Y-116057925D01*
X100684310Y-116057927D01*
X100652572Y-116101610D01*
X100573240Y-116210800D01*
X100487454Y-116379163D01*
X100429059Y-116558881D01*
X100399500Y-116745513D01*
X95180500Y-116745513D01*
X95150940Y-116558881D01*
X95092545Y-116379163D01*
X95006759Y-116210800D01*
X94895690Y-116057927D01*
X94762073Y-115924310D01*
X94609199Y-115813240D01*
X94440836Y-115727454D01*
X94261118Y-115669059D01*
X94074486Y-115639500D01*
X94074481Y-115639500D01*
X93885519Y-115639500D01*
X93885514Y-115639500D01*
X93698881Y-115669059D01*
X93519163Y-115727454D01*
X93350800Y-115813240D01*
X93263579Y-115876610D01*
X93197927Y-115924310D01*
X93197925Y-115924312D01*
X93197924Y-115924312D01*
X93064312Y-116057924D01*
X93064312Y-116057925D01*
X93064310Y-116057927D01*
X93032572Y-116101610D01*
X92953240Y-116210800D01*
X92867454Y-116379163D01*
X92809059Y-116558881D01*
X92779500Y-116745513D01*
X58920500Y-116745513D01*
X58920500Y-111665513D01*
X92779500Y-111665513D01*
X92779500Y-111854486D01*
X92809059Y-112041118D01*
X92867454Y-112220836D01*
X92948948Y-112380776D01*
X92953240Y-112389199D01*
X93064310Y-112542073D01*
X93197927Y-112675690D01*
X93350801Y-112786760D01*
X93430347Y-112827290D01*
X93519163Y-112872545D01*
X93519165Y-112872545D01*
X93519168Y-112872547D01*
X93615497Y-112903846D01*
X93698881Y-112930940D01*
X93885514Y-112960500D01*
X93885519Y-112960500D01*
X94074486Y-112960500D01*
X94261118Y-112930940D01*
X94440832Y-112872547D01*
X94609199Y-112786760D01*
X94762073Y-112675690D01*
X94895690Y-112542073D01*
X95006760Y-112389199D01*
X95092547Y-112220832D01*
X95150940Y-112041118D01*
X95175187Y-111888028D01*
X95180500Y-111854486D01*
X95180500Y-111665513D01*
X100399500Y-111665513D01*
X100399500Y-111854486D01*
X100429059Y-112041118D01*
X100487454Y-112220836D01*
X100568948Y-112380776D01*
X100573240Y-112389199D01*
X100684310Y-112542073D01*
X100817927Y-112675690D01*
X100970801Y-112786760D01*
X101050347Y-112827290D01*
X101139163Y-112872545D01*
X101139165Y-112872545D01*
X101139168Y-112872547D01*
X101235497Y-112903846D01*
X101318881Y-112930940D01*
X101505514Y-112960500D01*
X101505519Y-112960500D01*
X101694486Y-112960500D01*
X101881118Y-112930940D01*
X102060832Y-112872547D01*
X102229199Y-112786760D01*
X102382073Y-112675690D01*
X102515690Y-112542073D01*
X102626760Y-112389199D01*
X102712547Y-112220832D01*
X102770940Y-112041118D01*
X102795187Y-111888028D01*
X102800500Y-111854486D01*
X102800500Y-111665513D01*
X102770940Y-111478881D01*
X102712545Y-111299163D01*
X102626759Y-111130800D01*
X102579622Y-111065922D01*
X102515690Y-110977927D01*
X102382073Y-110844310D01*
X102229199Y-110733240D01*
X102060836Y-110647454D01*
X101881118Y-110589059D01*
X101694486Y-110559500D01*
X101694481Y-110559500D01*
X101505519Y-110559500D01*
X101505514Y-110559500D01*
X101318881Y-110589059D01*
X101139163Y-110647454D01*
X100970800Y-110733240D01*
X100883579Y-110796610D01*
X100817927Y-110844310D01*
X100817925Y-110844312D01*
X100817924Y-110844312D01*
X100684312Y-110977924D01*
X100684312Y-110977925D01*
X100684310Y-110977927D01*
X100652762Y-111021349D01*
X100573240Y-111130800D01*
X100487454Y-111299163D01*
X100429059Y-111478881D01*
X100399500Y-111665513D01*
X95180500Y-111665513D01*
X95150940Y-111478881D01*
X95092545Y-111299163D01*
X95006759Y-111130800D01*
X94959622Y-111065922D01*
X94895690Y-110977927D01*
X94762073Y-110844310D01*
X94609199Y-110733240D01*
X94440836Y-110647454D01*
X94261118Y-110589059D01*
X94074486Y-110559500D01*
X94074481Y-110559500D01*
X93885519Y-110559500D01*
X93885514Y-110559500D01*
X93698881Y-110589059D01*
X93519163Y-110647454D01*
X93350800Y-110733240D01*
X93263579Y-110796610D01*
X93197927Y-110844310D01*
X93197925Y-110844312D01*
X93197924Y-110844312D01*
X93064312Y-110977924D01*
X93064312Y-110977925D01*
X93064310Y-110977927D01*
X93032762Y-111021349D01*
X92953240Y-111130800D01*
X92867454Y-111299163D01*
X92809059Y-111478881D01*
X92779500Y-111665513D01*
X58920500Y-111665513D01*
X58920500Y-107199983D01*
X105379500Y-107199983D01*
X105379500Y-108400001D01*
X105379501Y-108400018D01*
X105390000Y-108502796D01*
X105390001Y-108502799D01*
X105437856Y-108647213D01*
X105445186Y-108669334D01*
X105537288Y-108818656D01*
X105661344Y-108942712D01*
X105810666Y-109034814D01*
X105893152Y-109062147D01*
X105950597Y-109101920D01*
X105977420Y-109166436D01*
X105965105Y-109235212D01*
X105955143Y-109246975D01*
X105954077Y-109260524D01*
X106633554Y-109940000D01*
X106627339Y-109940000D01*
X106525606Y-109967259D01*
X106434394Y-110019920D01*
X106359920Y-110094394D01*
X106307259Y-110185606D01*
X106280000Y-110287339D01*
X106280000Y-110293553D01*
X105600524Y-109614077D01*
X105600523Y-109614077D01*
X105568143Y-109658644D01*
X105475244Y-109840968D01*
X105412009Y-110035582D01*
X105380000Y-110237682D01*
X105380000Y-110442317D01*
X105412009Y-110644417D01*
X105475244Y-110839031D01*
X105568141Y-111021350D01*
X105568147Y-111021359D01*
X105600523Y-111065921D01*
X105600524Y-111065922D01*
X106280000Y-110386446D01*
X106280000Y-110392661D01*
X106307259Y-110494394D01*
X106359920Y-110585606D01*
X106434394Y-110660080D01*
X106525606Y-110712741D01*
X106627339Y-110740000D01*
X106633553Y-110740000D01*
X105954076Y-111419474D01*
X105998652Y-111451861D01*
X106091628Y-111499234D01*
X106142425Y-111547208D01*
X106159220Y-111615029D01*
X106136683Y-111681164D01*
X106091630Y-111720203D01*
X105998388Y-111767713D01*
X105832786Y-111888028D01*
X105688028Y-112032786D01*
X105567715Y-112198386D01*
X105474781Y-112380776D01*
X105411522Y-112575465D01*
X105379500Y-112777648D01*
X105379500Y-112982351D01*
X105411522Y-113184534D01*
X105474781Y-113379223D01*
X105567715Y-113561613D01*
X105688028Y-113727213D01*
X105832786Y-113871971D01*
X105987749Y-113984556D01*
X105998390Y-113992287D01*
X106089840Y-114038883D01*
X106091080Y-114039515D01*
X106141876Y-114087490D01*
X106158671Y-114155311D01*
X106136134Y-114221446D01*
X106091080Y-114260485D01*
X105998386Y-114307715D01*
X105832786Y-114428028D01*
X105688028Y-114572786D01*
X105567715Y-114738386D01*
X105474781Y-114920776D01*
X105411522Y-115115465D01*
X105379500Y-115317648D01*
X105379500Y-115522351D01*
X105411522Y-115724534D01*
X105474781Y-115919223D01*
X105567715Y-116101613D01*
X105688028Y-116267213D01*
X105832786Y-116411971D01*
X105987749Y-116524556D01*
X105998390Y-116532287D01*
X106114607Y-116591503D01*
X106180776Y-116625218D01*
X106180778Y-116625218D01*
X106180781Y-116625220D01*
X106285137Y-116659127D01*
X106375465Y-116688477D01*
X106476557Y-116704488D01*
X106577648Y-116720500D01*
X106577649Y-116720500D01*
X106782351Y-116720500D01*
X106782352Y-116720500D01*
X106984534Y-116688477D01*
X107179219Y-116625220D01*
X107361610Y-116532287D01*
X107454590Y-116464732D01*
X107527213Y-116411971D01*
X107527215Y-116411968D01*
X107527219Y-116411966D01*
X107671966Y-116267219D01*
X107671968Y-116267215D01*
X107671971Y-116267213D01*
X107724732Y-116194590D01*
X107792287Y-116101610D01*
X107885220Y-115919219D01*
X107948477Y-115724534D01*
X107980500Y-115522352D01*
X107980500Y-115317648D01*
X107948477Y-115115466D01*
X107885220Y-114920781D01*
X107885218Y-114920778D01*
X107885218Y-114920776D01*
X107851503Y-114854607D01*
X107792287Y-114738390D01*
X107784556Y-114727749D01*
X107671971Y-114572786D01*
X107527213Y-114428028D01*
X107361614Y-114307715D01*
X107355006Y-114304348D01*
X107268917Y-114260483D01*
X107218123Y-114212511D01*
X107201328Y-114144690D01*
X107223865Y-114078555D01*
X107268917Y-114039516D01*
X107361610Y-113992287D01*
X107382770Y-113976913D01*
X107527213Y-113871971D01*
X107527215Y-113871968D01*
X107527219Y-113871966D01*
X107671966Y-113727219D01*
X107671968Y-113727215D01*
X107671971Y-113727213D01*
X107724732Y-113654590D01*
X107792287Y-113561610D01*
X107885220Y-113379219D01*
X107948477Y-113184534D01*
X107980500Y-112982352D01*
X107980500Y-112777648D01*
X107948477Y-112575466D01*
X107885220Y-112380781D01*
X107885218Y-112380778D01*
X107885218Y-112380776D01*
X107851503Y-112314607D01*
X107792287Y-112198390D01*
X107784556Y-112187749D01*
X107671971Y-112032786D01*
X107527213Y-111888028D01*
X107361611Y-111767713D01*
X107268369Y-111720203D01*
X107217574Y-111672229D01*
X107200779Y-111604407D01*
X107223317Y-111538273D01*
X107268371Y-111499234D01*
X107361346Y-111451861D01*
X107361347Y-111451861D01*
X107405921Y-111419474D01*
X106726447Y-110740000D01*
X106732661Y-110740000D01*
X106834394Y-110712741D01*
X106925606Y-110660080D01*
X107000080Y-110585606D01*
X107052741Y-110494394D01*
X107080000Y-110392661D01*
X107080000Y-110386448D01*
X107759474Y-111065922D01*
X107759474Y-111065921D01*
X107791859Y-111021349D01*
X107884755Y-110839031D01*
X107947990Y-110644417D01*
X107980000Y-110442317D01*
X107980000Y-110237682D01*
X107947990Y-110035582D01*
X107884755Y-109840968D01*
X107791859Y-109658650D01*
X107759474Y-109614077D01*
X107759474Y-109614076D01*
X107080000Y-110293551D01*
X107080000Y-110287339D01*
X107052741Y-110185606D01*
X107000080Y-110094394D01*
X106925606Y-110019920D01*
X106834394Y-109967259D01*
X106732661Y-109940000D01*
X106726446Y-109940000D01*
X107405922Y-109260524D01*
X107404570Y-109243349D01*
X107390299Y-109224842D01*
X107384320Y-109155229D01*
X107416925Y-109093433D01*
X107466845Y-109062148D01*
X107549334Y-109034814D01*
X107698656Y-108942712D01*
X107822712Y-108818656D01*
X107914814Y-108669334D01*
X107969999Y-108502797D01*
X107980500Y-108400009D01*
X107980499Y-107697648D01*
X112999500Y-107697648D01*
X112999500Y-107902351D01*
X113031522Y-108104534D01*
X113094781Y-108299223D01*
X113187715Y-108481613D01*
X113308028Y-108647213D01*
X113452786Y-108791971D01*
X113607749Y-108904556D01*
X113618390Y-108912287D01*
X113709840Y-108958883D01*
X113711080Y-108959515D01*
X113761876Y-109007490D01*
X113778671Y-109075311D01*
X113756134Y-109141446D01*
X113711080Y-109180485D01*
X113618386Y-109227715D01*
X113452786Y-109348028D01*
X113308028Y-109492786D01*
X113187715Y-109658386D01*
X113094781Y-109840776D01*
X113031522Y-110035465D01*
X112999500Y-110237648D01*
X112999500Y-110442351D01*
X113031522Y-110644534D01*
X113094781Y-110839223D01*
X113158691Y-110964653D01*
X113187585Y-111021359D01*
X113187715Y-111021613D01*
X113308028Y-111187213D01*
X113452786Y-111331971D01*
X113573226Y-111419474D01*
X113618390Y-111452287D01*
X113670584Y-111478881D01*
X113711080Y-111499515D01*
X113761876Y-111547490D01*
X113778671Y-111615311D01*
X113756134Y-111681446D01*
X113711080Y-111720485D01*
X113618386Y-111767715D01*
X113452786Y-111888028D01*
X113308028Y-112032786D01*
X113187715Y-112198386D01*
X113094781Y-112380776D01*
X113031522Y-112575465D01*
X112999500Y-112777648D01*
X112999500Y-112982351D01*
X113031522Y-113184534D01*
X113094781Y-113379223D01*
X113187715Y-113561613D01*
X113308028Y-113727213D01*
X113452786Y-113871971D01*
X113607749Y-113984556D01*
X113618390Y-113992287D01*
X113709840Y-114038883D01*
X113711080Y-114039515D01*
X113761876Y-114087490D01*
X113778671Y-114155311D01*
X113756134Y-114221446D01*
X113711080Y-114260485D01*
X113618386Y-114307715D01*
X113452786Y-114428028D01*
X113308028Y-114572786D01*
X113187715Y-114738386D01*
X113094781Y-114920776D01*
X113031522Y-115115465D01*
X112999500Y-115317648D01*
X112999500Y-115522351D01*
X113031522Y-115724534D01*
X113094781Y-115919223D01*
X113187715Y-116101613D01*
X113308028Y-116267213D01*
X113452786Y-116411971D01*
X113607749Y-116524556D01*
X113618390Y-116532287D01*
X113734607Y-116591503D01*
X113800776Y-116625218D01*
X113800778Y-116625218D01*
X113800781Y-116625220D01*
X113905137Y-116659127D01*
X113995465Y-116688477D01*
X114096557Y-116704488D01*
X114197648Y-116720500D01*
X114197649Y-116720500D01*
X114402351Y-116720500D01*
X114402352Y-116720500D01*
X114604534Y-116688477D01*
X114799219Y-116625220D01*
X114981610Y-116532287D01*
X115074590Y-116464732D01*
X115147213Y-116411971D01*
X115147215Y-116411968D01*
X115147219Y-116411966D01*
X115291966Y-116267219D01*
X115291968Y-116267215D01*
X115291971Y-116267213D01*
X115344732Y-116194590D01*
X115412287Y-116101610D01*
X115505220Y-115919219D01*
X115568477Y-115724534D01*
X115600500Y-115522352D01*
X115600500Y-115317648D01*
X115568477Y-115115466D01*
X115505220Y-114920781D01*
X115505218Y-114920778D01*
X115505218Y-114920776D01*
X115471503Y-114854607D01*
X115412287Y-114738390D01*
X115404556Y-114727749D01*
X115291971Y-114572786D01*
X115147213Y-114428028D01*
X114981614Y-114307715D01*
X114975006Y-114304348D01*
X114888917Y-114260483D01*
X114838123Y-114212511D01*
X114821328Y-114144690D01*
X114843865Y-114078555D01*
X114888917Y-114039516D01*
X114981610Y-113992287D01*
X115002770Y-113976913D01*
X115147213Y-113871971D01*
X115147215Y-113871968D01*
X115147219Y-113871966D01*
X115291966Y-113727219D01*
X115291968Y-113727215D01*
X115291971Y-113727213D01*
X115344732Y-113654590D01*
X115412287Y-113561610D01*
X115505220Y-113379219D01*
X115568477Y-113184534D01*
X115600500Y-112982352D01*
X115600500Y-112777648D01*
X115568477Y-112575466D01*
X115505220Y-112380781D01*
X115505218Y-112380778D01*
X115505218Y-112380776D01*
X115471503Y-112314607D01*
X115412287Y-112198390D01*
X115404556Y-112187749D01*
X115291971Y-112032786D01*
X115147213Y-111888028D01*
X114981614Y-111767715D01*
X114975006Y-111764348D01*
X114888917Y-111720483D01*
X114838123Y-111672511D01*
X114821328Y-111604690D01*
X114843865Y-111538555D01*
X114888917Y-111499516D01*
X114981610Y-111452287D01*
X115026774Y-111419474D01*
X115147213Y-111331971D01*
X115147215Y-111331968D01*
X115147219Y-111331966D01*
X115291966Y-111187219D01*
X115291968Y-111187215D01*
X115291971Y-111187213D01*
X115344732Y-111114590D01*
X115412287Y-111021610D01*
X115505220Y-110839219D01*
X115568477Y-110644534D01*
X115600500Y-110442352D01*
X115600500Y-110237648D01*
X115592257Y-110185606D01*
X115568477Y-110035465D01*
X115537458Y-109940000D01*
X115505220Y-109840781D01*
X115505218Y-109840778D01*
X115505218Y-109840776D01*
X115412419Y-109658650D01*
X115412287Y-109658390D01*
X115380092Y-109614077D01*
X115291971Y-109492786D01*
X115147213Y-109348028D01*
X114981614Y-109227715D01*
X114975006Y-109224348D01*
X114888917Y-109180483D01*
X114838123Y-109132511D01*
X114821328Y-109064690D01*
X114843865Y-108998555D01*
X114888917Y-108959516D01*
X114981610Y-108912287D01*
X115110482Y-108818657D01*
X115147213Y-108791971D01*
X115147215Y-108791968D01*
X115147219Y-108791966D01*
X115291966Y-108647219D01*
X115291968Y-108647215D01*
X115291971Y-108647213D01*
X115396892Y-108502799D01*
X115412287Y-108481610D01*
X115505220Y-108299219D01*
X115568477Y-108104534D01*
X115600500Y-107902352D01*
X115600500Y-107697648D01*
X115568477Y-107495466D01*
X115505220Y-107300781D01*
X115505218Y-107300778D01*
X115505218Y-107300776D01*
X115453865Y-107199991D01*
X115412287Y-107118390D01*
X115396892Y-107097200D01*
X115291971Y-106952786D01*
X115147213Y-106808028D01*
X114981613Y-106687715D01*
X114981612Y-106687714D01*
X114981610Y-106687713D01*
X114921898Y-106657288D01*
X114799223Y-106594781D01*
X114604534Y-106531522D01*
X114429995Y-106503878D01*
X114402352Y-106499500D01*
X114197648Y-106499500D01*
X114173329Y-106503351D01*
X113995465Y-106531522D01*
X113800776Y-106594781D01*
X113618386Y-106687715D01*
X113452786Y-106808028D01*
X113308028Y-106952786D01*
X113187715Y-107118386D01*
X113094781Y-107300776D01*
X113031522Y-107495465D01*
X112999500Y-107697648D01*
X107980499Y-107697648D01*
X107980499Y-107199992D01*
X107969999Y-107097203D01*
X107914814Y-106930666D01*
X107822712Y-106781344D01*
X107698656Y-106657288D01*
X107549334Y-106565186D01*
X107382797Y-106510001D01*
X107382795Y-106510000D01*
X107280010Y-106499500D01*
X106079998Y-106499500D01*
X106079981Y-106499501D01*
X105977203Y-106510000D01*
X105977200Y-106510001D01*
X105810668Y-106565185D01*
X105810663Y-106565187D01*
X105661342Y-106657289D01*
X105537289Y-106781342D01*
X105445187Y-106930663D01*
X105445186Y-106930666D01*
X105390001Y-107097203D01*
X105390001Y-107097204D01*
X105390000Y-107097204D01*
X105379500Y-107199983D01*
X58920500Y-107199983D01*
X58920500Y-101511304D01*
X108319500Y-101511304D01*
X108319500Y-101688695D01*
X108354103Y-101862658D01*
X108354106Y-101862667D01*
X108421983Y-102026540D01*
X108421990Y-102026553D01*
X108520535Y-102174034D01*
X108520538Y-102174038D01*
X108645961Y-102299461D01*
X108645965Y-102299464D01*
X108793446Y-102398009D01*
X108793459Y-102398016D01*
X108916363Y-102448923D01*
X108957334Y-102465894D01*
X108957336Y-102465894D01*
X108957341Y-102465896D01*
X109131304Y-102500499D01*
X109131307Y-102500500D01*
X109131309Y-102500500D01*
X109149192Y-102500500D01*
X109216231Y-102520185D01*
X109236873Y-102536819D01*
X111345326Y-104645273D01*
X111345327Y-104645274D01*
X111345330Y-104645276D01*
X111448236Y-104714035D01*
X111451871Y-104716464D01*
X111451872Y-104716464D01*
X111451873Y-104716465D01*
X111570256Y-104765501D01*
X111570260Y-104765501D01*
X111570261Y-104765502D01*
X111695928Y-104790500D01*
X111695931Y-104790500D01*
X118705638Y-104790500D01*
X118772677Y-104810185D01*
X118793319Y-104826819D01*
X118805961Y-104839461D01*
X118805965Y-104839464D01*
X118953446Y-104938009D01*
X118953459Y-104938016D01*
X119076363Y-104988923D01*
X119117334Y-105005894D01*
X119117336Y-105005894D01*
X119117341Y-105005896D01*
X119291304Y-105040499D01*
X119291307Y-105040500D01*
X119291309Y-105040500D01*
X119468693Y-105040500D01*
X119468694Y-105040499D01*
X119526682Y-105028964D01*
X119642658Y-105005896D01*
X119642661Y-105005894D01*
X119642666Y-105005894D01*
X119806547Y-104938013D01*
X119954035Y-104839464D01*
X120079464Y-104714035D01*
X120178013Y-104566547D01*
X120245894Y-104402666D01*
X120280500Y-104228691D01*
X120280500Y-104051309D01*
X120280500Y-104051306D01*
X120280499Y-104051304D01*
X120245896Y-103877341D01*
X120245893Y-103877332D01*
X120178016Y-103713459D01*
X120178009Y-103713446D01*
X120079464Y-103565965D01*
X120079461Y-103565961D01*
X119954038Y-103440538D01*
X119954034Y-103440535D01*
X119806553Y-103341990D01*
X119806540Y-103341983D01*
X119642667Y-103274106D01*
X119642658Y-103274103D01*
X119468694Y-103239500D01*
X119468691Y-103239500D01*
X119291309Y-103239500D01*
X119291306Y-103239500D01*
X119117341Y-103274103D01*
X119117332Y-103274106D01*
X118953459Y-103341983D01*
X118953446Y-103341990D01*
X118805965Y-103440535D01*
X118805961Y-103440538D01*
X118793319Y-103453181D01*
X118731996Y-103486666D01*
X118705638Y-103489500D01*
X112080808Y-103489500D01*
X112013769Y-103469815D01*
X111993127Y-103453181D01*
X110156819Y-101616873D01*
X110123334Y-101555550D01*
X110120500Y-101529192D01*
X110120500Y-101511306D01*
X110120499Y-101511304D01*
X110085896Y-101337341D01*
X110085893Y-101337332D01*
X110018016Y-101173459D01*
X110018009Y-101173446D01*
X109919464Y-101025965D01*
X109919461Y-101025961D01*
X109794038Y-100900538D01*
X109794034Y-100900535D01*
X109646553Y-100801990D01*
X109646540Y-100801983D01*
X109482667Y-100734106D01*
X109482658Y-100734103D01*
X109308694Y-100699500D01*
X109308691Y-100699500D01*
X109131309Y-100699500D01*
X109131306Y-100699500D01*
X108957341Y-100734103D01*
X108957332Y-100734106D01*
X108793459Y-100801983D01*
X108793446Y-100801990D01*
X108645965Y-100900535D01*
X108645961Y-100900538D01*
X108520538Y-101025961D01*
X108520535Y-101025965D01*
X108421990Y-101173446D01*
X108421983Y-101173459D01*
X108354106Y-101337332D01*
X108354103Y-101337341D01*
X108319500Y-101511304D01*
X58920500Y-101511304D01*
X58920500Y-88913713D01*
X69644500Y-88913713D01*
X69644500Y-89126287D01*
X69677754Y-89336243D01*
X69727973Y-89490801D01*
X69743444Y-89538414D01*
X69839951Y-89727820D01*
X69964890Y-89899786D01*
X70115209Y-90050105D01*
X70115214Y-90050109D01*
X70279793Y-90169682D01*
X70322459Y-90225011D01*
X70328438Y-90294625D01*
X70295833Y-90356420D01*
X70279793Y-90370318D01*
X70115214Y-90489890D01*
X70115209Y-90489894D01*
X69964890Y-90640213D01*
X69839951Y-90812179D01*
X69743444Y-91001585D01*
X69677753Y-91203760D01*
X69655302Y-91345513D01*
X69644500Y-91413713D01*
X69644500Y-91626287D01*
X69677754Y-91836243D01*
X69698740Y-91900832D01*
X69743444Y-92038414D01*
X69839951Y-92227820D01*
X69964890Y-92399786D01*
X70115209Y-92550105D01*
X70115214Y-92550109D01*
X70280218Y-92669991D01*
X70322884Y-92725320D01*
X70328863Y-92794934D01*
X70296258Y-92856729D01*
X70280218Y-92870627D01*
X70115540Y-92990272D01*
X70115535Y-92990276D01*
X69965276Y-93140535D01*
X69965272Y-93140540D01*
X69840379Y-93312442D01*
X69743904Y-93501782D01*
X69678242Y-93703870D01*
X69678242Y-93703873D01*
X69667769Y-93770000D01*
X70715854Y-93770000D01*
X70677370Y-93836657D01*
X70645000Y-93957465D01*
X70645000Y-94082535D01*
X70677370Y-94203343D01*
X70715854Y-94270000D01*
X69667769Y-94270000D01*
X69678242Y-94336126D01*
X69678242Y-94336129D01*
X69743904Y-94538217D01*
X69840379Y-94727557D01*
X69965272Y-94899459D01*
X69965276Y-94899464D01*
X70104143Y-95038331D01*
X70137628Y-95099654D01*
X70132644Y-95169346D01*
X70090772Y-95225279D01*
X70081559Y-95231551D01*
X69926342Y-95327289D01*
X69802289Y-95451342D01*
X69710187Y-95600663D01*
X69710186Y-95600666D01*
X69655001Y-95767203D01*
X69655001Y-95767204D01*
X69655000Y-95767204D01*
X69644500Y-95869983D01*
X69644500Y-97170001D01*
X69644501Y-97170018D01*
X69655000Y-97272796D01*
X69655001Y-97272799D01*
X69685039Y-97363446D01*
X69710186Y-97439334D01*
X69802288Y-97588656D01*
X69926344Y-97712712D01*
X70075666Y-97804814D01*
X70242203Y-97859999D01*
X70344991Y-97870500D01*
X71895008Y-97870499D01*
X71997797Y-97859999D01*
X72164334Y-97804814D01*
X72313656Y-97712712D01*
X72325064Y-97701304D01*
X132449500Y-97701304D01*
X132449500Y-97878695D01*
X132484103Y-98052658D01*
X132484106Y-98052667D01*
X132551983Y-98216540D01*
X132551990Y-98216553D01*
X132650532Y-98364030D01*
X132650537Y-98364037D01*
X132775961Y-98489461D01*
X132775965Y-98489464D01*
X132923446Y-98588009D01*
X132923459Y-98588016D01*
X133046363Y-98638923D01*
X133087334Y-98655894D01*
X133087336Y-98655894D01*
X133087341Y-98655896D01*
X133261304Y-98690499D01*
X133261307Y-98690500D01*
X133261309Y-98690500D01*
X133438693Y-98690500D01*
X133438694Y-98690499D01*
X133496682Y-98678964D01*
X133612658Y-98655896D01*
X133612661Y-98655894D01*
X133612666Y-98655894D01*
X133776547Y-98588013D01*
X133924035Y-98489464D01*
X133924038Y-98489461D01*
X133936681Y-98476819D01*
X133998004Y-98443334D01*
X134024362Y-98440500D01*
X134402998Y-98440500D01*
X134487542Y-98423682D01*
X134528671Y-98415501D01*
X134647054Y-98366465D01*
X134649763Y-98364654D01*
X134650699Y-98364030D01*
X134685918Y-98340497D01*
X134753596Y-98295277D01*
X137665277Y-95383596D01*
X137736465Y-95277054D01*
X137739387Y-95270000D01*
X137767241Y-95202755D01*
X137767241Y-95202754D01*
X137775183Y-95183580D01*
X137785501Y-95158671D01*
X137799502Y-95088286D01*
X137810500Y-95032998D01*
X137810500Y-94654361D01*
X137830185Y-94587322D01*
X137846816Y-94566682D01*
X137859464Y-94554035D01*
X137958013Y-94406547D01*
X137960686Y-94400095D01*
X137968968Y-94380099D01*
X138025894Y-94242666D01*
X138060500Y-94068691D01*
X138060500Y-93891309D01*
X138060500Y-93891306D01*
X138060499Y-93891304D01*
X138025896Y-93717341D01*
X138025893Y-93717332D01*
X138020271Y-93703760D01*
X137993758Y-93639750D01*
X137958016Y-93553459D01*
X137958009Y-93553446D01*
X137859464Y-93405965D01*
X137859461Y-93405961D01*
X137734038Y-93280538D01*
X137734034Y-93280535D01*
X137586553Y-93181990D01*
X137586540Y-93181983D01*
X137422667Y-93114106D01*
X137422658Y-93114103D01*
X137248694Y-93079500D01*
X137248691Y-93079500D01*
X137071309Y-93079500D01*
X137071306Y-93079500D01*
X136897341Y-93114103D01*
X136897332Y-93114106D01*
X136733459Y-93181983D01*
X136733446Y-93181990D01*
X136585965Y-93280535D01*
X136585961Y-93280538D01*
X136460538Y-93405961D01*
X136460535Y-93405965D01*
X136361990Y-93553446D01*
X136361983Y-93553459D01*
X136294106Y-93717332D01*
X136294103Y-93717341D01*
X136259500Y-93891304D01*
X136259500Y-94068695D01*
X136294103Y-94242658D01*
X136294106Y-94242667D01*
X136361983Y-94406540D01*
X136361990Y-94406553D01*
X136460535Y-94554034D01*
X136460538Y-94554038D01*
X136470059Y-94563559D01*
X136503544Y-94624882D01*
X136498560Y-94694574D01*
X136470059Y-94738921D01*
X134108921Y-97100059D01*
X134047598Y-97133544D01*
X133977906Y-97128560D01*
X133933559Y-97100059D01*
X133924038Y-97090538D01*
X133924034Y-97090535D01*
X133776553Y-96991990D01*
X133776540Y-96991983D01*
X133612667Y-96924106D01*
X133612658Y-96924103D01*
X133438694Y-96889500D01*
X133438691Y-96889500D01*
X133261309Y-96889500D01*
X133261306Y-96889500D01*
X133087341Y-96924103D01*
X133087332Y-96924106D01*
X132923459Y-96991983D01*
X132923446Y-96991990D01*
X132775965Y-97090535D01*
X132775961Y-97090538D01*
X132650538Y-97215961D01*
X132650535Y-97215965D01*
X132551990Y-97363446D01*
X132551983Y-97363459D01*
X132484106Y-97527332D01*
X132484103Y-97527341D01*
X132449500Y-97701304D01*
X72325064Y-97701304D01*
X72437712Y-97588656D01*
X72529814Y-97439334D01*
X72584999Y-97272797D01*
X72595500Y-97170009D01*
X72595499Y-95869992D01*
X72584999Y-95767203D01*
X72529814Y-95600666D01*
X72437712Y-95451344D01*
X72313656Y-95327288D01*
X72164334Y-95235186D01*
X72164332Y-95235185D01*
X72158440Y-95231551D01*
X72111716Y-95179603D01*
X72100493Y-95110641D01*
X72128337Y-95046558D01*
X72135856Y-95038330D01*
X72274728Y-94899458D01*
X72399620Y-94727557D01*
X72496095Y-94538217D01*
X72561757Y-94336129D01*
X72561757Y-94336126D01*
X72572231Y-94270000D01*
X71524146Y-94270000D01*
X71562630Y-94203343D01*
X71595000Y-94082535D01*
X71595000Y-93957465D01*
X71570397Y-93865646D01*
X95067000Y-93865646D01*
X95067000Y-94094353D01*
X95102778Y-94320246D01*
X95102778Y-94320249D01*
X95173450Y-94537755D01*
X95181747Y-94554038D01*
X95277283Y-94741538D01*
X95411714Y-94926566D01*
X95573434Y-95088286D01*
X95758462Y-95222717D01*
X95899590Y-95294625D01*
X95962244Y-95326549D01*
X96179751Y-95397221D01*
X96179752Y-95397221D01*
X96179755Y-95397222D01*
X96405646Y-95433000D01*
X96405647Y-95433000D01*
X96634353Y-95433000D01*
X96634354Y-95433000D01*
X96860245Y-95397222D01*
X96860248Y-95397221D01*
X96860249Y-95397221D01*
X97077755Y-95326549D01*
X97077755Y-95326548D01*
X97077758Y-95326548D01*
X97281538Y-95222717D01*
X97466566Y-95088286D01*
X97628286Y-94926566D01*
X97689991Y-94841635D01*
X97745321Y-94798970D01*
X97814934Y-94792991D01*
X97854290Y-94813756D01*
X97871347Y-94815099D01*
X98577037Y-94109409D01*
X98594075Y-94172993D01*
X98659901Y-94287007D01*
X98752993Y-94380099D01*
X98867007Y-94445925D01*
X98930590Y-94462962D01*
X98224899Y-95168651D01*
X98298725Y-95222288D01*
X98298731Y-95222292D01*
X98502431Y-95326082D01*
X98719875Y-95396734D01*
X98945687Y-95432500D01*
X99174313Y-95432500D01*
X99400124Y-95396734D01*
X99400125Y-95396734D01*
X99617568Y-95326082D01*
X99821276Y-95222288D01*
X99895098Y-95168651D01*
X99189409Y-94462962D01*
X99252993Y-94445925D01*
X99367007Y-94380099D01*
X99460099Y-94287007D01*
X99525925Y-94172993D01*
X99542962Y-94109410D01*
X100248651Y-94815099D01*
X100265503Y-94813772D01*
X100284699Y-94798970D01*
X100354312Y-94792989D01*
X100416107Y-94825594D01*
X100430007Y-94841634D01*
X100430317Y-94842061D01*
X100491714Y-94926566D01*
X100653434Y-95088286D01*
X100838462Y-95222717D01*
X100979590Y-95294625D01*
X101042244Y-95326549D01*
X101259751Y-95397221D01*
X101259752Y-95397221D01*
X101259755Y-95397222D01*
X101485646Y-95433000D01*
X101485647Y-95433000D01*
X101714353Y-95433000D01*
X101714354Y-95433000D01*
X101940245Y-95397222D01*
X101940248Y-95397221D01*
X101940249Y-95397221D01*
X102157755Y-95326549D01*
X102157755Y-95326548D01*
X102157758Y-95326548D01*
X102361538Y-95222717D01*
X102546566Y-95088286D01*
X102708286Y-94926566D01*
X102769683Y-94842059D01*
X102825012Y-94799396D01*
X102894625Y-94793417D01*
X102956420Y-94826023D01*
X102970314Y-94842056D01*
X103031714Y-94926566D01*
X103193434Y-95088286D01*
X103378462Y-95222717D01*
X103519590Y-95294625D01*
X103582244Y-95326549D01*
X103799751Y-95397221D01*
X103799752Y-95397221D01*
X103799755Y-95397222D01*
X104025646Y-95433000D01*
X104025647Y-95433000D01*
X104254353Y-95433000D01*
X104254354Y-95433000D01*
X104480245Y-95397222D01*
X104480248Y-95397221D01*
X104480249Y-95397221D01*
X104697755Y-95326549D01*
X104697755Y-95326548D01*
X104697758Y-95326548D01*
X104901538Y-95222717D01*
X105086566Y-95088286D01*
X105248286Y-94926566D01*
X105309683Y-94842059D01*
X105365012Y-94799396D01*
X105434625Y-94793417D01*
X105496420Y-94826023D01*
X105510314Y-94842056D01*
X105571714Y-94926566D01*
X105733434Y-95088286D01*
X105918462Y-95222717D01*
X106059590Y-95294625D01*
X106122244Y-95326549D01*
X106339751Y-95397221D01*
X106339752Y-95397221D01*
X106339755Y-95397222D01*
X106565646Y-95433000D01*
X106565647Y-95433000D01*
X106794353Y-95433000D01*
X106794354Y-95433000D01*
X107020245Y-95397222D01*
X107020248Y-95397221D01*
X107020249Y-95397221D01*
X107237755Y-95326549D01*
X107237755Y-95326548D01*
X107237758Y-95326548D01*
X107441538Y-95222717D01*
X107626566Y-95088286D01*
X107788286Y-94926566D01*
X107849991Y-94841635D01*
X107905321Y-94798970D01*
X107974934Y-94792991D01*
X108014290Y-94813756D01*
X108031347Y-94815099D01*
X108737037Y-94109409D01*
X108754075Y-94172993D01*
X108819901Y-94287007D01*
X108912993Y-94380099D01*
X109027007Y-94445925D01*
X109090590Y-94462962D01*
X108384899Y-95168651D01*
X108458725Y-95222288D01*
X108458731Y-95222292D01*
X108662431Y-95326082D01*
X108879875Y-95396734D01*
X109105687Y-95432500D01*
X109334313Y-95432500D01*
X109560124Y-95396734D01*
X109560125Y-95396734D01*
X109777568Y-95326082D01*
X109981276Y-95222288D01*
X110055098Y-95168651D01*
X109349409Y-94462962D01*
X109412993Y-94445925D01*
X109527007Y-94380099D01*
X109620099Y-94287007D01*
X109685925Y-94172993D01*
X109702962Y-94109410D01*
X110408651Y-94815099D01*
X110425232Y-94813794D01*
X110445010Y-94798543D01*
X110514624Y-94792564D01*
X110554877Y-94813802D01*
X110571347Y-94815099D01*
X111277037Y-94109409D01*
X111294075Y-94172993D01*
X111359901Y-94287007D01*
X111452993Y-94380099D01*
X111567007Y-94445925D01*
X111630590Y-94462962D01*
X110924899Y-95168651D01*
X110998725Y-95222288D01*
X110998731Y-95222292D01*
X111202431Y-95326082D01*
X111419875Y-95396734D01*
X111645687Y-95432500D01*
X111874313Y-95432500D01*
X112100124Y-95396734D01*
X112100125Y-95396734D01*
X112317568Y-95326082D01*
X112521276Y-95222288D01*
X112595098Y-95168651D01*
X111889409Y-94462962D01*
X111952993Y-94445925D01*
X112067007Y-94380099D01*
X112160099Y-94287007D01*
X112225925Y-94172993D01*
X112242962Y-94109410D01*
X112948651Y-94815099D01*
X112965232Y-94813794D01*
X112985010Y-94798543D01*
X113054624Y-94792564D01*
X113094877Y-94813802D01*
X113111347Y-94815099D01*
X113817037Y-94109409D01*
X113834075Y-94172993D01*
X113899901Y-94287007D01*
X113992993Y-94380099D01*
X114107007Y-94445925D01*
X114170590Y-94462962D01*
X113464899Y-95168651D01*
X113538725Y-95222288D01*
X113538731Y-95222292D01*
X113742431Y-95326082D01*
X113959875Y-95396734D01*
X114185687Y-95432500D01*
X114414313Y-95432500D01*
X114640124Y-95396734D01*
X114640125Y-95396734D01*
X114857568Y-95326082D01*
X115061276Y-95222288D01*
X115135098Y-95168651D01*
X114429409Y-94462962D01*
X114492993Y-94445925D01*
X114607007Y-94380099D01*
X114700099Y-94287007D01*
X114765925Y-94172993D01*
X114782962Y-94109410D01*
X115488651Y-94815099D01*
X115505503Y-94813772D01*
X115524699Y-94798970D01*
X115594312Y-94792989D01*
X115656107Y-94825594D01*
X115670007Y-94841634D01*
X115670317Y-94842061D01*
X115731714Y-94926566D01*
X115893434Y-95088286D01*
X116078462Y-95222717D01*
X116219590Y-95294625D01*
X116282244Y-95326549D01*
X116499751Y-95397221D01*
X116499752Y-95397221D01*
X116499755Y-95397222D01*
X116725646Y-95433000D01*
X116725647Y-95433000D01*
X116954353Y-95433000D01*
X116954354Y-95433000D01*
X117180245Y-95397222D01*
X117180248Y-95397221D01*
X117180249Y-95397221D01*
X117397755Y-95326549D01*
X117397755Y-95326548D01*
X117397758Y-95326548D01*
X117601538Y-95222717D01*
X117786566Y-95088286D01*
X117948286Y-94926566D01*
X118009683Y-94842059D01*
X118065012Y-94799396D01*
X118134625Y-94793417D01*
X118196420Y-94826023D01*
X118210314Y-94842056D01*
X118271714Y-94926566D01*
X118433434Y-95088286D01*
X118618462Y-95222717D01*
X118759590Y-95294625D01*
X118822244Y-95326549D01*
X119039751Y-95397221D01*
X119039752Y-95397221D01*
X119039755Y-95397222D01*
X119265646Y-95433000D01*
X119265647Y-95433000D01*
X119494353Y-95433000D01*
X119494354Y-95433000D01*
X119720245Y-95397222D01*
X119720248Y-95397221D01*
X119720249Y-95397221D01*
X119937755Y-95326549D01*
X119937755Y-95326548D01*
X119937758Y-95326548D01*
X120141538Y-95222717D01*
X120326566Y-95088286D01*
X120488286Y-94926566D01*
X120549683Y-94842059D01*
X120605012Y-94799396D01*
X120674625Y-94793417D01*
X120736420Y-94826023D01*
X120750314Y-94842056D01*
X120811714Y-94926566D01*
X120973434Y-95088286D01*
X121158462Y-95222717D01*
X121299590Y-95294625D01*
X121362244Y-95326549D01*
X121579751Y-95397221D01*
X121579752Y-95397221D01*
X121579755Y-95397222D01*
X121805646Y-95433000D01*
X121805647Y-95433000D01*
X122034353Y-95433000D01*
X122034354Y-95433000D01*
X122260245Y-95397222D01*
X122260248Y-95397221D01*
X122260249Y-95397221D01*
X122477755Y-95326549D01*
X122477755Y-95326548D01*
X122477758Y-95326548D01*
X122681538Y-95222717D01*
X122866566Y-95088286D01*
X123028286Y-94926566D01*
X123089683Y-94842059D01*
X123145012Y-94799396D01*
X123214625Y-94793417D01*
X123276420Y-94826023D01*
X123290314Y-94842056D01*
X123351714Y-94926566D01*
X123513434Y-95088286D01*
X123698462Y-95222717D01*
X123839590Y-95294625D01*
X123902244Y-95326549D01*
X124119751Y-95397221D01*
X124119752Y-95397221D01*
X124119755Y-95397222D01*
X124345646Y-95433000D01*
X124345647Y-95433000D01*
X124574353Y-95433000D01*
X124574354Y-95433000D01*
X124800245Y-95397222D01*
X124800248Y-95397221D01*
X124800249Y-95397221D01*
X125017755Y-95326549D01*
X125017755Y-95326548D01*
X125017758Y-95326548D01*
X125221538Y-95222717D01*
X125406566Y-95088286D01*
X125568286Y-94926566D01*
X125702717Y-94741538D01*
X125806548Y-94537758D01*
X125825315Y-94480000D01*
X125877221Y-94320249D01*
X125877221Y-94320248D01*
X125877222Y-94320245D01*
X125913000Y-94094354D01*
X125913000Y-93865646D01*
X125877222Y-93639755D01*
X125877221Y-93639751D01*
X125877221Y-93639750D01*
X125806549Y-93422244D01*
X125750602Y-93312442D01*
X125702717Y-93218462D01*
X125568286Y-93033434D01*
X125406566Y-92871714D01*
X125221538Y-92737283D01*
X125198059Y-92725320D01*
X125017755Y-92633450D01*
X124800248Y-92562778D01*
X124630826Y-92535944D01*
X124574354Y-92527000D01*
X124345646Y-92527000D01*
X124270349Y-92538926D01*
X124119753Y-92562778D01*
X124119750Y-92562778D01*
X123902244Y-92633450D01*
X123698461Y-92737283D01*
X123624051Y-92791346D01*
X123513434Y-92871714D01*
X123513432Y-92871716D01*
X123513431Y-92871716D01*
X123351715Y-93033432D01*
X123290318Y-93117938D01*
X123234987Y-93160603D01*
X123165374Y-93166582D01*
X123103579Y-93133976D01*
X123089682Y-93117938D01*
X123028288Y-93033437D01*
X123028286Y-93033434D01*
X122866566Y-92871714D01*
X122681538Y-92737283D01*
X122658059Y-92725320D01*
X122477755Y-92633450D01*
X122260248Y-92562778D01*
X122090826Y-92535944D01*
X122034354Y-92527000D01*
X121805646Y-92527000D01*
X121730349Y-92538926D01*
X121579753Y-92562778D01*
X121579750Y-92562778D01*
X121362244Y-92633450D01*
X121158461Y-92737283D01*
X121084051Y-92791346D01*
X120973434Y-92871714D01*
X120973432Y-92871716D01*
X120973431Y-92871716D01*
X120811715Y-93033432D01*
X120750318Y-93117938D01*
X120694987Y-93160603D01*
X120625374Y-93166582D01*
X120563579Y-93133976D01*
X120549682Y-93117938D01*
X120488288Y-93033437D01*
X120488286Y-93033434D01*
X120326566Y-92871714D01*
X120141538Y-92737283D01*
X120118059Y-92725320D01*
X119937755Y-92633450D01*
X119720248Y-92562778D01*
X119550826Y-92535944D01*
X119494354Y-92527000D01*
X119265646Y-92527000D01*
X119190349Y-92538926D01*
X119039753Y-92562778D01*
X119039750Y-92562778D01*
X118822244Y-92633450D01*
X118618461Y-92737283D01*
X118544051Y-92791346D01*
X118433434Y-92871714D01*
X118433432Y-92871716D01*
X118433431Y-92871716D01*
X118271715Y-93033432D01*
X118210318Y-93117938D01*
X118154987Y-93160603D01*
X118085374Y-93166582D01*
X118023579Y-93133976D01*
X118009682Y-93117938D01*
X117948288Y-93033437D01*
X117948286Y-93033434D01*
X117786566Y-92871714D01*
X117601538Y-92737283D01*
X117578059Y-92725320D01*
X117397755Y-92633450D01*
X117180248Y-92562778D01*
X117010826Y-92535944D01*
X116954354Y-92527000D01*
X116725646Y-92527000D01*
X116650349Y-92538926D01*
X116499753Y-92562778D01*
X116499750Y-92562778D01*
X116282244Y-92633450D01*
X116078461Y-92737283D01*
X116004051Y-92791346D01*
X115893434Y-92871714D01*
X115893432Y-92871716D01*
X115893431Y-92871716D01*
X115731716Y-93033431D01*
X115731709Y-93033440D01*
X115670007Y-93118364D01*
X115614677Y-93161030D01*
X115545063Y-93167008D01*
X115505710Y-93146242D01*
X115488651Y-93144899D01*
X114782962Y-93850589D01*
X114765925Y-93787007D01*
X114700099Y-93672993D01*
X114607007Y-93579901D01*
X114492993Y-93514075D01*
X114429408Y-93497037D01*
X115135099Y-92791347D01*
X115061276Y-92737711D01*
X114857568Y-92633917D01*
X114640124Y-92563265D01*
X114414313Y-92527500D01*
X114185687Y-92527500D01*
X113959875Y-92563265D01*
X113959874Y-92563265D01*
X113742431Y-92633917D01*
X113538719Y-92737713D01*
X113464900Y-92791346D01*
X113464899Y-92791347D01*
X114170590Y-93497037D01*
X114107007Y-93514075D01*
X113992993Y-93579901D01*
X113899901Y-93672993D01*
X113834075Y-93787007D01*
X113817037Y-93850590D01*
X113111347Y-93144899D01*
X113094762Y-93146205D01*
X113074986Y-93161455D01*
X113005372Y-93167433D01*
X112965126Y-93146196D01*
X112948651Y-93144899D01*
X112242962Y-93850589D01*
X112225925Y-93787007D01*
X112160099Y-93672993D01*
X112067007Y-93579901D01*
X111952993Y-93514075D01*
X111889408Y-93497037D01*
X112595099Y-92791347D01*
X112521276Y-92737711D01*
X112317568Y-92633917D01*
X112100124Y-92563265D01*
X111874313Y-92527500D01*
X111645687Y-92527500D01*
X111419875Y-92563265D01*
X111419874Y-92563265D01*
X111202431Y-92633917D01*
X110998719Y-92737713D01*
X110924900Y-92791346D01*
X110924899Y-92791347D01*
X111630590Y-93497037D01*
X111567007Y-93514075D01*
X111452993Y-93579901D01*
X111359901Y-93672993D01*
X111294075Y-93787007D01*
X111277037Y-93850590D01*
X110571347Y-93144899D01*
X110554762Y-93146205D01*
X110534986Y-93161455D01*
X110465372Y-93167433D01*
X110425126Y-93146196D01*
X110408651Y-93144899D01*
X109702962Y-93850589D01*
X109685925Y-93787007D01*
X109620099Y-93672993D01*
X109527007Y-93579901D01*
X109412993Y-93514075D01*
X109349408Y-93497037D01*
X110055099Y-92791347D01*
X109981276Y-92737711D01*
X109777568Y-92633917D01*
X109560124Y-92563265D01*
X109334313Y-92527500D01*
X109105687Y-92527500D01*
X108879875Y-92563265D01*
X108879874Y-92563265D01*
X108662431Y-92633917D01*
X108458719Y-92737713D01*
X108384900Y-92791346D01*
X108384899Y-92791347D01*
X109090590Y-93497037D01*
X109027007Y-93514075D01*
X108912993Y-93579901D01*
X108819901Y-93672993D01*
X108754075Y-93787007D01*
X108737037Y-93850590D01*
X108031347Y-93144899D01*
X108014490Y-93146226D01*
X107995293Y-93161029D01*
X107925679Y-93167007D01*
X107863885Y-93134399D01*
X107849990Y-93118362D01*
X107788288Y-93033437D01*
X107788283Y-93033431D01*
X107626568Y-92871716D01*
X107626566Y-92871714D01*
X107441538Y-92737283D01*
X107418059Y-92725320D01*
X107237755Y-92633450D01*
X107020248Y-92562778D01*
X106850826Y-92535944D01*
X106794354Y-92527000D01*
X106565646Y-92527000D01*
X106490349Y-92538926D01*
X106339753Y-92562778D01*
X106339750Y-92562778D01*
X106122244Y-92633450D01*
X105918461Y-92737283D01*
X105844051Y-92791346D01*
X105733434Y-92871714D01*
X105733432Y-92871716D01*
X105733431Y-92871716D01*
X105571715Y-93033432D01*
X105510318Y-93117938D01*
X105454987Y-93160603D01*
X105385374Y-93166582D01*
X105323579Y-93133976D01*
X105309682Y-93117938D01*
X105248288Y-93033437D01*
X105248286Y-93033434D01*
X105086566Y-92871714D01*
X104901538Y-92737283D01*
X104878059Y-92725320D01*
X104697755Y-92633450D01*
X104480248Y-92562778D01*
X104310826Y-92535944D01*
X104254354Y-92527000D01*
X104025646Y-92527000D01*
X103950349Y-92538926D01*
X103799753Y-92562778D01*
X103799750Y-92562778D01*
X103582244Y-92633450D01*
X103378461Y-92737283D01*
X103304051Y-92791346D01*
X103193434Y-92871714D01*
X103193432Y-92871716D01*
X103193431Y-92871716D01*
X103031715Y-93033432D01*
X102970318Y-93117938D01*
X102914987Y-93160603D01*
X102845374Y-93166582D01*
X102783579Y-93133976D01*
X102769682Y-93117938D01*
X102708288Y-93033437D01*
X102708286Y-93033434D01*
X102546566Y-92871714D01*
X102361538Y-92737283D01*
X102338059Y-92725320D01*
X102157755Y-92633450D01*
X101940248Y-92562778D01*
X101770826Y-92535944D01*
X101714354Y-92527000D01*
X101485646Y-92527000D01*
X101410349Y-92538926D01*
X101259753Y-92562778D01*
X101259750Y-92562778D01*
X101042244Y-92633450D01*
X100838461Y-92737283D01*
X100764051Y-92791346D01*
X100653434Y-92871714D01*
X100653432Y-92871716D01*
X100653431Y-92871716D01*
X100491716Y-93033431D01*
X100491709Y-93033440D01*
X100430007Y-93118364D01*
X100374677Y-93161030D01*
X100305063Y-93167008D01*
X100265710Y-93146242D01*
X100248651Y-93144899D01*
X99542962Y-93850589D01*
X99525925Y-93787007D01*
X99460099Y-93672993D01*
X99367007Y-93579901D01*
X99252993Y-93514075D01*
X99189408Y-93497037D01*
X99895099Y-92791347D01*
X99821276Y-92737711D01*
X99617568Y-92633917D01*
X99400124Y-92563265D01*
X99174313Y-92527500D01*
X98945687Y-92527500D01*
X98719875Y-92563265D01*
X98719874Y-92563265D01*
X98502431Y-92633917D01*
X98298719Y-92737713D01*
X98224900Y-92791346D01*
X98224899Y-92791347D01*
X98930590Y-93497037D01*
X98867007Y-93514075D01*
X98752993Y-93579901D01*
X98659901Y-93672993D01*
X98594075Y-93787007D01*
X98577037Y-93850590D01*
X97871347Y-93144899D01*
X97854490Y-93146226D01*
X97835293Y-93161029D01*
X97765679Y-93167007D01*
X97703885Y-93134399D01*
X97689990Y-93118362D01*
X97628288Y-93033437D01*
X97628283Y-93033431D01*
X97466568Y-92871716D01*
X97466566Y-92871714D01*
X97281538Y-92737283D01*
X97258059Y-92725320D01*
X97077755Y-92633450D01*
X96860248Y-92562778D01*
X96690826Y-92535944D01*
X96634354Y-92527000D01*
X96405646Y-92527000D01*
X96330349Y-92538926D01*
X96179753Y-92562778D01*
X96179750Y-92562778D01*
X95962244Y-92633450D01*
X95758461Y-92737283D01*
X95684051Y-92791346D01*
X95573434Y-92871714D01*
X95573432Y-92871716D01*
X95573431Y-92871716D01*
X95411716Y-93033431D01*
X95411716Y-93033432D01*
X95411714Y-93033434D01*
X95411712Y-93033437D01*
X95277283Y-93218461D01*
X95173450Y-93422244D01*
X95102778Y-93639750D01*
X95102778Y-93639753D01*
X95067000Y-93865646D01*
X71570397Y-93865646D01*
X71562630Y-93836657D01*
X71524146Y-93770000D01*
X72572231Y-93770000D01*
X72561757Y-93703873D01*
X72561757Y-93703870D01*
X72496095Y-93501782D01*
X72399620Y-93312442D01*
X72274727Y-93140540D01*
X72274723Y-93140535D01*
X72124464Y-92990276D01*
X72124459Y-92990272D01*
X71959781Y-92870627D01*
X71917115Y-92815297D01*
X71911136Y-92745684D01*
X71943741Y-92683889D01*
X71959776Y-92669994D01*
X72124792Y-92550104D01*
X72275104Y-92399792D01*
X72275106Y-92399788D01*
X72275109Y-92399786D01*
X72400048Y-92227820D01*
X72400047Y-92227820D01*
X72400051Y-92227816D01*
X72496557Y-92038412D01*
X72562246Y-91836243D01*
X72595500Y-91626287D01*
X72595500Y-91413713D01*
X72584698Y-91345513D01*
X78809500Y-91345513D01*
X78809500Y-91534486D01*
X78839059Y-91721118D01*
X78897454Y-91900836D01*
X78967454Y-92038217D01*
X78983240Y-92069199D01*
X79094310Y-92222073D01*
X79227927Y-92355690D01*
X79380801Y-92466760D01*
X79460347Y-92507290D01*
X79549163Y-92552545D01*
X79549165Y-92552545D01*
X79549168Y-92552547D01*
X79645497Y-92583846D01*
X79728881Y-92610940D01*
X79915514Y-92640500D01*
X79915519Y-92640500D01*
X80104486Y-92640500D01*
X80291118Y-92610940D01*
X80470832Y-92552547D01*
X80639199Y-92466760D01*
X80792073Y-92355690D01*
X80925690Y-92222073D01*
X81036760Y-92069199D01*
X81122547Y-91900832D01*
X81180940Y-91721118D01*
X81195960Y-91626286D01*
X81210500Y-91534486D01*
X81210500Y-91345513D01*
X86429500Y-91345513D01*
X86429500Y-91534486D01*
X86459059Y-91721118D01*
X86517454Y-91900836D01*
X86587454Y-92038217D01*
X86603240Y-92069199D01*
X86714310Y-92222073D01*
X86847927Y-92355690D01*
X87000801Y-92466760D01*
X87080347Y-92507290D01*
X87169163Y-92552545D01*
X87169165Y-92552545D01*
X87169168Y-92552547D01*
X87265497Y-92583846D01*
X87348881Y-92610940D01*
X87535514Y-92640500D01*
X87535519Y-92640500D01*
X87724486Y-92640500D01*
X87911118Y-92610940D01*
X88090832Y-92552547D01*
X88259199Y-92466760D01*
X88412073Y-92355690D01*
X88545690Y-92222073D01*
X88656760Y-92069199D01*
X88742547Y-91900832D01*
X88800940Y-91721118D01*
X88815960Y-91626286D01*
X88830500Y-91534486D01*
X88830500Y-91345513D01*
X88800940Y-91158881D01*
X88760911Y-91035687D01*
X88742547Y-90979168D01*
X88742545Y-90979165D01*
X88742545Y-90979163D01*
X88657596Y-90812442D01*
X88656760Y-90810801D01*
X88545690Y-90657927D01*
X88412073Y-90524310D01*
X88259199Y-90413240D01*
X88235408Y-90401118D01*
X88090836Y-90327454D01*
X87911118Y-90269059D01*
X87724486Y-90239500D01*
X87724481Y-90239500D01*
X87535519Y-90239500D01*
X87535514Y-90239500D01*
X87348881Y-90269059D01*
X87169163Y-90327454D01*
X87000800Y-90413240D01*
X86963494Y-90440345D01*
X86847927Y-90524310D01*
X86847925Y-90524312D01*
X86847924Y-90524312D01*
X86714312Y-90657924D01*
X86714312Y-90657925D01*
X86714310Y-90657927D01*
X86666610Y-90723579D01*
X86603240Y-90810800D01*
X86517454Y-90979163D01*
X86459059Y-91158881D01*
X86429500Y-91345513D01*
X81210500Y-91345513D01*
X81180940Y-91158881D01*
X81140911Y-91035687D01*
X81122547Y-90979168D01*
X81122545Y-90979165D01*
X81122545Y-90979163D01*
X81037596Y-90812442D01*
X81036760Y-90810801D01*
X80925690Y-90657927D01*
X80792073Y-90524310D01*
X80639199Y-90413240D01*
X80615408Y-90401118D01*
X80470836Y-90327454D01*
X80291118Y-90269059D01*
X80104486Y-90239500D01*
X80104481Y-90239500D01*
X79915519Y-90239500D01*
X79915514Y-90239500D01*
X79728881Y-90269059D01*
X79549163Y-90327454D01*
X79380800Y-90413240D01*
X79343494Y-90440345D01*
X79227927Y-90524310D01*
X79227925Y-90524312D01*
X79227924Y-90524312D01*
X79094312Y-90657924D01*
X79094312Y-90657925D01*
X79094310Y-90657927D01*
X79046610Y-90723579D01*
X78983240Y-90810800D01*
X78897454Y-90979163D01*
X78839059Y-91158881D01*
X78809500Y-91345513D01*
X72584698Y-91345513D01*
X72583295Y-91336657D01*
X72566806Y-91232547D01*
X72562246Y-91203757D01*
X72496557Y-91001588D01*
X72400051Y-90812184D01*
X72400049Y-90812181D01*
X72400048Y-90812179D01*
X72275109Y-90640213D01*
X72124792Y-90489896D01*
X72056590Y-90440345D01*
X71960204Y-90370316D01*
X71917540Y-90314989D01*
X71911561Y-90245376D01*
X71944166Y-90183580D01*
X71960199Y-90169686D01*
X72124792Y-90050104D01*
X72149383Y-90025513D01*
X132149500Y-90025513D01*
X132149500Y-90214486D01*
X132179059Y-90401118D01*
X132237454Y-90580836D01*
X132323240Y-90749199D01*
X132434310Y-90902073D01*
X132567927Y-91035690D01*
X132720801Y-91146760D01*
X132800347Y-91187290D01*
X132889163Y-91232545D01*
X132889165Y-91232545D01*
X132889168Y-91232547D01*
X132985497Y-91263846D01*
X133068881Y-91290940D01*
X133255514Y-91320500D01*
X133255519Y-91320500D01*
X133444486Y-91320500D01*
X133631118Y-91290940D01*
X133810832Y-91232547D01*
X133979199Y-91146760D01*
X134132073Y-91035690D01*
X134265690Y-90902073D01*
X134376760Y-90749199D01*
X134462547Y-90580832D01*
X134520940Y-90401118D01*
X134527453Y-90359999D01*
X134550500Y-90214486D01*
X134550500Y-90025513D01*
X139769500Y-90025513D01*
X139769500Y-90214486D01*
X139799059Y-90401118D01*
X139857454Y-90580836D01*
X139943240Y-90749199D01*
X140054310Y-90902073D01*
X140187927Y-91035690D01*
X140340801Y-91146760D01*
X140420347Y-91187290D01*
X140509163Y-91232545D01*
X140509165Y-91232545D01*
X140509168Y-91232547D01*
X140605497Y-91263846D01*
X140688881Y-91290940D01*
X140875514Y-91320500D01*
X140875519Y-91320500D01*
X141064486Y-91320500D01*
X141251118Y-91290940D01*
X141430832Y-91232547D01*
X141599199Y-91146760D01*
X141752073Y-91035690D01*
X141885690Y-90902073D01*
X141996760Y-90749199D01*
X142082547Y-90580832D01*
X142140940Y-90401118D01*
X142147453Y-90359999D01*
X142170500Y-90214486D01*
X142170500Y-90025513D01*
X142140940Y-89838881D01*
X142113846Y-89755497D01*
X142082547Y-89659168D01*
X142082545Y-89659165D01*
X142082545Y-89659163D01*
X141996759Y-89490800D01*
X141885690Y-89337927D01*
X141752073Y-89204310D01*
X141599199Y-89093240D01*
X141430836Y-89007454D01*
X141251118Y-88949059D01*
X141064486Y-88919500D01*
X141064481Y-88919500D01*
X140875519Y-88919500D01*
X140875514Y-88919500D01*
X140688881Y-88949059D01*
X140509163Y-89007454D01*
X140340800Y-89093240D01*
X140253579Y-89156610D01*
X140187927Y-89204310D01*
X140187925Y-89204312D01*
X140187924Y-89204312D01*
X140054312Y-89337924D01*
X140054312Y-89337925D01*
X140054310Y-89337927D01*
X140006610Y-89403579D01*
X139943240Y-89490800D01*
X139857454Y-89659163D01*
X139799059Y-89838881D01*
X139769500Y-90025513D01*
X134550500Y-90025513D01*
X134520940Y-89838881D01*
X134493846Y-89755497D01*
X134462547Y-89659168D01*
X134462545Y-89659165D01*
X134462545Y-89659163D01*
X134376759Y-89490800D01*
X134265690Y-89337927D01*
X134132073Y-89204310D01*
X133979199Y-89093240D01*
X133810836Y-89007454D01*
X133631118Y-88949059D01*
X133444486Y-88919500D01*
X133444481Y-88919500D01*
X133255519Y-88919500D01*
X133255514Y-88919500D01*
X133068881Y-88949059D01*
X132889163Y-89007454D01*
X132720800Y-89093240D01*
X132633579Y-89156610D01*
X132567927Y-89204310D01*
X132567925Y-89204312D01*
X132567924Y-89204312D01*
X132434312Y-89337924D01*
X132434312Y-89337925D01*
X132434310Y-89337927D01*
X132386610Y-89403579D01*
X132323240Y-89490800D01*
X132237454Y-89659163D01*
X132179059Y-89838881D01*
X132149500Y-90025513D01*
X72149383Y-90025513D01*
X72275104Y-89899792D01*
X72275106Y-89899788D01*
X72275109Y-89899786D01*
X72400048Y-89727820D01*
X72400047Y-89727820D01*
X72400051Y-89727816D01*
X72496557Y-89538412D01*
X72562246Y-89336243D01*
X72595500Y-89126287D01*
X72595500Y-88913713D01*
X72562246Y-88703757D01*
X72496557Y-88501588D01*
X72400051Y-88312184D01*
X72400049Y-88312181D01*
X72400048Y-88312179D01*
X72275109Y-88140213D01*
X72124786Y-87989890D01*
X72036178Y-87925513D01*
X78809500Y-87925513D01*
X78809500Y-88114486D01*
X78839059Y-88301118D01*
X78897454Y-88480836D01*
X78983240Y-88649199D01*
X79094310Y-88802073D01*
X79227927Y-88935690D01*
X79380801Y-89046760D01*
X79460347Y-89087290D01*
X79549163Y-89132545D01*
X79549165Y-89132545D01*
X79549168Y-89132547D01*
X79645497Y-89163846D01*
X79728881Y-89190940D01*
X79915514Y-89220500D01*
X79915519Y-89220500D01*
X80104486Y-89220500D01*
X80291118Y-89190940D01*
X80470832Y-89132547D01*
X80639199Y-89046760D01*
X80792073Y-88935690D01*
X80925690Y-88802073D01*
X81036760Y-88649199D01*
X81122547Y-88480832D01*
X81180940Y-88301118D01*
X81210500Y-88114486D01*
X81210500Y-87925513D01*
X86429500Y-87925513D01*
X86429500Y-88114486D01*
X86459059Y-88301118D01*
X86517454Y-88480836D01*
X86603240Y-88649199D01*
X86714310Y-88802073D01*
X86847927Y-88935690D01*
X87000801Y-89046760D01*
X87080347Y-89087290D01*
X87169163Y-89132545D01*
X87169165Y-89132545D01*
X87169168Y-89132547D01*
X87265497Y-89163846D01*
X87348881Y-89190940D01*
X87535514Y-89220500D01*
X87535519Y-89220500D01*
X87724486Y-89220500D01*
X87911118Y-89190940D01*
X88090832Y-89132547D01*
X88259199Y-89046760D01*
X88412073Y-88935690D01*
X88545690Y-88802073D01*
X88656760Y-88649199D01*
X88742547Y-88480832D01*
X88778564Y-88369983D01*
X150924500Y-88369983D01*
X150924500Y-89670001D01*
X150924501Y-89670018D01*
X150935000Y-89772796D01*
X150935001Y-89772799D01*
X150956899Y-89838881D01*
X150990186Y-89939334D01*
X151058508Y-90050103D01*
X151082289Y-90088657D01*
X151206344Y-90212712D01*
X151361558Y-90308448D01*
X151408283Y-90360396D01*
X151419506Y-90429358D01*
X151391663Y-90493441D01*
X151384144Y-90501668D01*
X151245271Y-90640541D01*
X151120379Y-90812442D01*
X151023904Y-91001782D01*
X150958242Y-91203870D01*
X150958242Y-91203873D01*
X150947769Y-91270000D01*
X151995854Y-91270000D01*
X151957370Y-91336657D01*
X151925000Y-91457465D01*
X151925000Y-91582535D01*
X151957370Y-91703343D01*
X151995854Y-91770000D01*
X150947769Y-91770000D01*
X150958242Y-91836126D01*
X150958242Y-91836129D01*
X151023904Y-92038217D01*
X151120379Y-92227557D01*
X151245272Y-92399459D01*
X151245276Y-92399464D01*
X151395535Y-92549723D01*
X151395540Y-92549727D01*
X151560218Y-92669372D01*
X151602884Y-92724701D01*
X151608863Y-92794315D01*
X151576258Y-92856110D01*
X151560218Y-92870008D01*
X151395214Y-92989890D01*
X151395209Y-92989894D01*
X151244890Y-93140213D01*
X151119951Y-93312179D01*
X151023444Y-93501585D01*
X150957753Y-93703760D01*
X150924500Y-93913713D01*
X150924500Y-94126286D01*
X150955220Y-94320249D01*
X150957754Y-94336243D01*
X150980599Y-94406553D01*
X151023444Y-94538414D01*
X151119951Y-94727820D01*
X151244890Y-94899786D01*
X151395209Y-95050105D01*
X151395214Y-95050109D01*
X151559793Y-95169682D01*
X151602459Y-95225011D01*
X151608438Y-95294625D01*
X151575833Y-95356420D01*
X151559793Y-95370318D01*
X151395214Y-95489890D01*
X151395209Y-95489894D01*
X151244890Y-95640213D01*
X151119951Y-95812179D01*
X151023444Y-96001585D01*
X150957753Y-96203760D01*
X150924500Y-96413713D01*
X150924500Y-96626287D01*
X150957754Y-96836243D01*
X151008357Y-96991983D01*
X151023444Y-97038414D01*
X151119951Y-97227820D01*
X151244890Y-97399786D01*
X151395213Y-97550109D01*
X151567179Y-97675048D01*
X151567181Y-97675049D01*
X151567184Y-97675051D01*
X151756588Y-97771557D01*
X151958757Y-97837246D01*
X152168713Y-97870500D01*
X152168714Y-97870500D01*
X152631286Y-97870500D01*
X152631287Y-97870500D01*
X152841243Y-97837246D01*
X153043412Y-97771557D01*
X153232816Y-97675051D01*
X153325743Y-97607536D01*
X153404786Y-97550109D01*
X153404788Y-97550106D01*
X153404792Y-97550104D01*
X153555104Y-97399792D01*
X153555106Y-97399788D01*
X153555109Y-97399786D01*
X153680048Y-97227820D01*
X153680047Y-97227820D01*
X153680051Y-97227816D01*
X153776557Y-97038412D01*
X153842246Y-96836243D01*
X153875500Y-96626287D01*
X153875500Y-96413713D01*
X153842246Y-96203757D01*
X153776557Y-96001588D01*
X153680051Y-95812184D01*
X153680049Y-95812181D01*
X153680048Y-95812179D01*
X153555109Y-95640213D01*
X153404792Y-95489896D01*
X153351729Y-95451344D01*
X153240204Y-95370316D01*
X153197540Y-95314989D01*
X153191561Y-95245376D01*
X153224166Y-95183580D01*
X153240199Y-95169686D01*
X153404792Y-95050104D01*
X153555104Y-94899792D01*
X153555106Y-94899788D01*
X153555109Y-94899786D01*
X153680048Y-94727820D01*
X153680047Y-94727820D01*
X153680051Y-94727816D01*
X153776557Y-94538412D01*
X153842246Y-94336243D01*
X153875500Y-94126287D01*
X153875500Y-93913713D01*
X153842246Y-93703757D01*
X153776557Y-93501588D01*
X153680051Y-93312184D01*
X153680049Y-93312181D01*
X153680048Y-93312179D01*
X153555109Y-93140213D01*
X153404790Y-92989894D01*
X153404785Y-92989890D01*
X153239781Y-92870008D01*
X153197115Y-92814678D01*
X153191136Y-92745065D01*
X153223741Y-92683270D01*
X153239781Y-92669371D01*
X153404466Y-92549721D01*
X153554723Y-92399464D01*
X153554727Y-92399459D01*
X153679620Y-92227557D01*
X153776095Y-92038217D01*
X153841757Y-91836129D01*
X153841757Y-91836126D01*
X153852231Y-91770000D01*
X152804146Y-91770000D01*
X152842630Y-91703343D01*
X152875000Y-91582535D01*
X152875000Y-91457465D01*
X152842630Y-91336657D01*
X152804146Y-91270000D01*
X153852231Y-91270000D01*
X153841757Y-91203873D01*
X153841757Y-91203870D01*
X153776095Y-91001782D01*
X153679620Y-90812442D01*
X153554727Y-90640540D01*
X153554723Y-90640535D01*
X153415856Y-90501668D01*
X153382371Y-90440345D01*
X153387355Y-90370653D01*
X153429227Y-90314720D01*
X153438441Y-90308448D01*
X153444331Y-90304814D01*
X153444334Y-90304814D01*
X153593656Y-90212712D01*
X153717712Y-90088656D01*
X153809814Y-89939334D01*
X153864999Y-89772797D01*
X153875500Y-89670009D01*
X153875499Y-88369992D01*
X153864999Y-88267203D01*
X153809814Y-88100666D01*
X153717712Y-87951344D01*
X153593656Y-87827288D01*
X153471714Y-87752074D01*
X153444336Y-87735187D01*
X153444331Y-87735185D01*
X153442862Y-87734698D01*
X153277797Y-87680001D01*
X153277795Y-87680000D01*
X153175010Y-87669500D01*
X151624998Y-87669500D01*
X151624981Y-87669501D01*
X151522203Y-87680000D01*
X151522200Y-87680001D01*
X151355668Y-87735185D01*
X151355663Y-87735187D01*
X151206342Y-87827289D01*
X151082289Y-87951342D01*
X150990187Y-88100663D01*
X150990186Y-88100666D01*
X150935001Y-88267203D01*
X150935001Y-88267204D01*
X150935000Y-88267204D01*
X150924500Y-88369983D01*
X88778564Y-88369983D01*
X88792039Y-88328513D01*
X88800938Y-88301125D01*
X88800938Y-88301123D01*
X88800940Y-88301118D01*
X88821628Y-88170500D01*
X88830500Y-88114486D01*
X88830500Y-87925513D01*
X88800940Y-87738881D01*
X88742545Y-87559163D01*
X88656759Y-87390800D01*
X88545690Y-87237927D01*
X88412073Y-87104310D01*
X88259199Y-86993240D01*
X88090836Y-86907454D01*
X87911118Y-86849059D01*
X87724486Y-86819500D01*
X87724481Y-86819500D01*
X87535519Y-86819500D01*
X87535514Y-86819500D01*
X87348881Y-86849059D01*
X87169163Y-86907454D01*
X87000800Y-86993240D01*
X86927056Y-87046819D01*
X86847927Y-87104310D01*
X86847925Y-87104312D01*
X86847924Y-87104312D01*
X86714312Y-87237924D01*
X86714312Y-87237925D01*
X86714310Y-87237927D01*
X86697910Y-87260500D01*
X86603240Y-87390800D01*
X86517454Y-87559163D01*
X86459059Y-87738881D01*
X86429500Y-87925513D01*
X81210500Y-87925513D01*
X81180940Y-87738881D01*
X81122545Y-87559163D01*
X81036759Y-87390800D01*
X80925690Y-87237927D01*
X80792073Y-87104310D01*
X80639199Y-86993240D01*
X80470836Y-86907454D01*
X80291118Y-86849059D01*
X80104486Y-86819500D01*
X80104481Y-86819500D01*
X79915519Y-86819500D01*
X79915514Y-86819500D01*
X79728881Y-86849059D01*
X79549163Y-86907454D01*
X79380800Y-86993240D01*
X79307056Y-87046819D01*
X79227927Y-87104310D01*
X79227925Y-87104312D01*
X79227924Y-87104312D01*
X79094312Y-87237924D01*
X79094312Y-87237925D01*
X79094310Y-87237927D01*
X79077910Y-87260500D01*
X78983240Y-87390800D01*
X78897454Y-87559163D01*
X78839059Y-87738881D01*
X78809500Y-87925513D01*
X72036178Y-87925513D01*
X71952820Y-87864951D01*
X71763414Y-87768444D01*
X71763413Y-87768443D01*
X71763412Y-87768443D01*
X71561243Y-87702754D01*
X71561241Y-87702753D01*
X71561240Y-87702753D01*
X71399957Y-87677208D01*
X71351287Y-87669500D01*
X70888713Y-87669500D01*
X70840042Y-87677208D01*
X70678760Y-87702753D01*
X70476585Y-87768444D01*
X70287179Y-87864951D01*
X70115213Y-87989890D01*
X69964890Y-88140213D01*
X69839951Y-88312179D01*
X69743444Y-88501585D01*
X69677753Y-88703760D01*
X69662182Y-88802073D01*
X69644500Y-88913713D01*
X58920500Y-88913713D01*
X58920500Y-86271304D01*
X118479500Y-86271304D01*
X118479500Y-86448695D01*
X118514103Y-86622658D01*
X118514106Y-86622667D01*
X118581983Y-86786540D01*
X118581990Y-86786553D01*
X118680535Y-86934034D01*
X118680538Y-86934038D01*
X118805961Y-87059461D01*
X118805965Y-87059464D01*
X118953446Y-87158009D01*
X118953459Y-87158016D01*
X119076363Y-87208923D01*
X119117334Y-87225894D01*
X119117336Y-87225894D01*
X119117341Y-87225896D01*
X119291304Y-87260499D01*
X119291307Y-87260500D01*
X119291309Y-87260500D01*
X119468693Y-87260500D01*
X119468694Y-87260499D01*
X119526682Y-87248964D01*
X119642658Y-87225896D01*
X119642661Y-87225894D01*
X119642666Y-87225894D01*
X119806547Y-87158013D01*
X119954035Y-87059464D01*
X119954038Y-87059461D01*
X119966681Y-87046819D01*
X120028004Y-87013334D01*
X120054362Y-87010500D01*
X126325638Y-87010500D01*
X126392677Y-87030185D01*
X126413319Y-87046819D01*
X126425961Y-87059461D01*
X126425965Y-87059464D01*
X126573446Y-87158009D01*
X126573459Y-87158016D01*
X126696363Y-87208923D01*
X126737334Y-87225894D01*
X126737336Y-87225894D01*
X126737341Y-87225896D01*
X126911304Y-87260499D01*
X126911307Y-87260500D01*
X126911309Y-87260500D01*
X127088693Y-87260500D01*
X127088694Y-87260499D01*
X127146682Y-87248964D01*
X127262658Y-87225896D01*
X127262661Y-87225894D01*
X127262666Y-87225894D01*
X127426547Y-87158013D01*
X127574035Y-87059464D01*
X127699464Y-86934035D01*
X127738568Y-86875513D01*
X132149500Y-86875513D01*
X132149500Y-87064486D01*
X132179059Y-87251118D01*
X132237454Y-87430836D01*
X132302843Y-87559168D01*
X132323240Y-87599199D01*
X132434310Y-87752073D01*
X132567927Y-87885690D01*
X132720801Y-87996760D01*
X132800347Y-88037290D01*
X132889163Y-88082545D01*
X132889165Y-88082545D01*
X132889168Y-88082547D01*
X132985497Y-88113846D01*
X133068881Y-88140940D01*
X133255514Y-88170500D01*
X133255519Y-88170500D01*
X133444486Y-88170500D01*
X133631118Y-88140940D01*
X133633371Y-88140208D01*
X133810832Y-88082547D01*
X133979199Y-87996760D01*
X134132073Y-87885690D01*
X134265690Y-87752073D01*
X134376760Y-87599199D01*
X134462547Y-87430832D01*
X134520940Y-87251118D01*
X134535686Y-87158016D01*
X134550500Y-87064486D01*
X134550500Y-86875513D01*
X139769500Y-86875513D01*
X139769500Y-87064486D01*
X139799059Y-87251118D01*
X139857454Y-87430836D01*
X139922843Y-87559168D01*
X139943240Y-87599199D01*
X140054310Y-87752073D01*
X140187927Y-87885690D01*
X140340801Y-87996760D01*
X140420347Y-88037290D01*
X140509163Y-88082545D01*
X140509165Y-88082545D01*
X140509168Y-88082547D01*
X140605497Y-88113846D01*
X140688881Y-88140940D01*
X140875514Y-88170500D01*
X140875519Y-88170500D01*
X141064486Y-88170500D01*
X141251118Y-88140940D01*
X141253371Y-88140208D01*
X141430832Y-88082547D01*
X141599199Y-87996760D01*
X141752073Y-87885690D01*
X141885690Y-87752073D01*
X141996760Y-87599199D01*
X142082547Y-87430832D01*
X142140940Y-87251118D01*
X142155686Y-87158016D01*
X142170500Y-87064486D01*
X142170500Y-86875513D01*
X142140940Y-86688881D01*
X142082545Y-86509163D01*
X141996759Y-86340800D01*
X141885690Y-86187927D01*
X141752073Y-86054310D01*
X141599199Y-85943240D01*
X141579977Y-85933446D01*
X141430836Y-85857454D01*
X141251118Y-85799059D01*
X141064486Y-85769500D01*
X141064481Y-85769500D01*
X140875519Y-85769500D01*
X140875514Y-85769500D01*
X140688881Y-85799059D01*
X140509163Y-85857454D01*
X140340800Y-85943240D01*
X140253579Y-86006610D01*
X140187927Y-86054310D01*
X140187925Y-86054312D01*
X140187924Y-86054312D01*
X140054312Y-86187924D01*
X140054312Y-86187925D01*
X140054310Y-86187927D01*
X140006610Y-86253579D01*
X139943240Y-86340800D01*
X139857454Y-86509163D01*
X139799059Y-86688881D01*
X139769500Y-86875513D01*
X134550500Y-86875513D01*
X134520940Y-86688881D01*
X134462545Y-86509163D01*
X134376759Y-86340800D01*
X134265690Y-86187927D01*
X134132073Y-86054310D01*
X133979199Y-85943240D01*
X133959977Y-85933446D01*
X133810836Y-85857454D01*
X133631118Y-85799059D01*
X133444486Y-85769500D01*
X133444481Y-85769500D01*
X133255519Y-85769500D01*
X133255514Y-85769500D01*
X133068881Y-85799059D01*
X132889163Y-85857454D01*
X132720800Y-85943240D01*
X132633579Y-86006610D01*
X132567927Y-86054310D01*
X132567925Y-86054312D01*
X132567924Y-86054312D01*
X132434312Y-86187924D01*
X132434312Y-86187925D01*
X132434310Y-86187927D01*
X132386610Y-86253579D01*
X132323240Y-86340800D01*
X132237454Y-86509163D01*
X132179059Y-86688881D01*
X132149500Y-86875513D01*
X127738568Y-86875513D01*
X127756244Y-86849059D01*
X127787851Y-86801756D01*
X127787851Y-86801755D01*
X127798008Y-86786555D01*
X127798009Y-86786552D01*
X127798013Y-86786547D01*
X127865894Y-86622666D01*
X127900500Y-86448691D01*
X127900500Y-86271309D01*
X127900500Y-86271306D01*
X127900499Y-86271304D01*
X127865896Y-86097341D01*
X127865893Y-86097332D01*
X127798016Y-85933459D01*
X127798009Y-85933446D01*
X127699464Y-85785965D01*
X127699461Y-85785961D01*
X127574038Y-85660538D01*
X127574034Y-85660535D01*
X127426553Y-85561990D01*
X127426540Y-85561983D01*
X127262667Y-85494106D01*
X127262658Y-85494103D01*
X127088694Y-85459500D01*
X127088691Y-85459500D01*
X126911309Y-85459500D01*
X126911306Y-85459500D01*
X126737341Y-85494103D01*
X126737332Y-85494106D01*
X126573459Y-85561983D01*
X126573446Y-85561990D01*
X126425965Y-85660535D01*
X126425961Y-85660538D01*
X126413319Y-85673181D01*
X126351996Y-85706666D01*
X126325638Y-85709500D01*
X120054362Y-85709500D01*
X119987323Y-85689815D01*
X119966681Y-85673181D01*
X119954038Y-85660538D01*
X119954034Y-85660535D01*
X119806553Y-85561990D01*
X119806540Y-85561983D01*
X119642667Y-85494106D01*
X119642658Y-85494103D01*
X119468694Y-85459500D01*
X119468691Y-85459500D01*
X119291309Y-85459500D01*
X119291306Y-85459500D01*
X119117341Y-85494103D01*
X119117332Y-85494106D01*
X118953459Y-85561983D01*
X118953446Y-85561990D01*
X118805965Y-85660535D01*
X118805961Y-85660538D01*
X118680538Y-85785961D01*
X118680535Y-85785965D01*
X118581990Y-85933446D01*
X118581983Y-85933459D01*
X118514106Y-86097332D01*
X118514103Y-86097341D01*
X118479500Y-86271304D01*
X58920500Y-86271304D01*
X58920500Y-83725513D01*
X132149500Y-83725513D01*
X132149500Y-83914486D01*
X132179059Y-84101118D01*
X132237454Y-84280836D01*
X132323240Y-84449199D01*
X132434310Y-84602073D01*
X132567927Y-84735690D01*
X132720801Y-84846760D01*
X132800347Y-84887290D01*
X132889163Y-84932545D01*
X132889165Y-84932545D01*
X132889168Y-84932547D01*
X132985497Y-84963846D01*
X133068881Y-84990940D01*
X133255514Y-85020500D01*
X133255519Y-85020500D01*
X133444486Y-85020500D01*
X133631118Y-84990940D01*
X133810832Y-84932547D01*
X133979199Y-84846760D01*
X134132073Y-84735690D01*
X134265690Y-84602073D01*
X134376760Y-84449199D01*
X134462547Y-84280832D01*
X134520940Y-84101118D01*
X134550500Y-83914486D01*
X134550500Y-83725513D01*
X139769500Y-83725513D01*
X139769500Y-83914486D01*
X139799059Y-84101118D01*
X139857454Y-84280836D01*
X139943240Y-84449199D01*
X140054310Y-84602073D01*
X140187927Y-84735690D01*
X140340801Y-84846760D01*
X140420347Y-84887290D01*
X140509163Y-84932545D01*
X140509165Y-84932545D01*
X140509168Y-84932547D01*
X140605497Y-84963846D01*
X140688881Y-84990940D01*
X140875514Y-85020500D01*
X140875519Y-85020500D01*
X141064486Y-85020500D01*
X141251118Y-84990940D01*
X141430832Y-84932547D01*
X141599199Y-84846760D01*
X141752073Y-84735690D01*
X141885690Y-84602073D01*
X141996760Y-84449199D01*
X142082547Y-84280832D01*
X142140940Y-84101118D01*
X142170500Y-83914486D01*
X142170500Y-83725513D01*
X142140940Y-83538881D01*
X142082545Y-83359163D01*
X141996759Y-83190800D01*
X141885690Y-83037927D01*
X141752073Y-82904310D01*
X141599199Y-82793240D01*
X141430836Y-82707454D01*
X141251118Y-82649059D01*
X141064486Y-82619500D01*
X141064481Y-82619500D01*
X140875519Y-82619500D01*
X140875514Y-82619500D01*
X140688881Y-82649059D01*
X140509163Y-82707454D01*
X140340800Y-82793240D01*
X140253579Y-82856610D01*
X140187927Y-82904310D01*
X140187925Y-82904312D01*
X140187924Y-82904312D01*
X140054312Y-83037924D01*
X140054312Y-83037925D01*
X140054310Y-83037927D01*
X140006610Y-83103579D01*
X139943240Y-83190800D01*
X139857454Y-83359163D01*
X139799059Y-83538881D01*
X139769500Y-83725513D01*
X134550500Y-83725513D01*
X134520940Y-83538881D01*
X134462545Y-83359163D01*
X134376759Y-83190800D01*
X134265690Y-83037927D01*
X134132073Y-82904310D01*
X133979199Y-82793240D01*
X133810836Y-82707454D01*
X133631118Y-82649059D01*
X133444486Y-82619500D01*
X133444481Y-82619500D01*
X133255519Y-82619500D01*
X133255514Y-82619500D01*
X133068881Y-82649059D01*
X132889163Y-82707454D01*
X132720800Y-82793240D01*
X132633579Y-82856610D01*
X132567927Y-82904310D01*
X132567925Y-82904312D01*
X132567924Y-82904312D01*
X132434312Y-83037924D01*
X132434312Y-83037925D01*
X132434310Y-83037927D01*
X132386610Y-83103579D01*
X132323240Y-83190800D01*
X132237454Y-83359163D01*
X132179059Y-83538881D01*
X132149500Y-83725513D01*
X58920500Y-83725513D01*
X58920500Y-72343713D01*
X69119500Y-72343713D01*
X69119500Y-72556286D01*
X69145933Y-72723181D01*
X69152754Y-72766243D01*
X69192970Y-72890016D01*
X69218444Y-72968414D01*
X69314951Y-73157820D01*
X69439890Y-73329786D01*
X69590209Y-73480105D01*
X69590214Y-73480109D01*
X69754793Y-73599682D01*
X69797459Y-73655011D01*
X69803438Y-73724625D01*
X69770833Y-73786420D01*
X69754793Y-73800318D01*
X69590214Y-73919890D01*
X69590209Y-73919894D01*
X69439890Y-74070213D01*
X69314951Y-74242179D01*
X69218444Y-74431585D01*
X69152753Y-74633760D01*
X69134955Y-74746135D01*
X69119500Y-74843713D01*
X69119500Y-75056287D01*
X69129534Y-75119644D01*
X69151482Y-75258217D01*
X69152754Y-75266243D01*
X69208711Y-75438461D01*
X69218444Y-75468414D01*
X69314951Y-75657820D01*
X69439890Y-75829786D01*
X69590209Y-75980105D01*
X69590214Y-75980109D01*
X69755218Y-76099991D01*
X69797884Y-76155320D01*
X69803863Y-76224934D01*
X69771258Y-76286729D01*
X69755218Y-76300627D01*
X69590540Y-76420272D01*
X69590535Y-76420276D01*
X69440276Y-76570535D01*
X69440272Y-76570540D01*
X69315379Y-76742442D01*
X69218904Y-76931782D01*
X69153242Y-77133870D01*
X69153242Y-77133873D01*
X69142769Y-77200000D01*
X70190854Y-77200000D01*
X70152370Y-77266657D01*
X70120000Y-77387465D01*
X70120000Y-77512535D01*
X70152370Y-77633343D01*
X70190854Y-77700000D01*
X69142769Y-77700000D01*
X69153242Y-77766126D01*
X69153242Y-77766129D01*
X69218904Y-77968217D01*
X69315379Y-78157557D01*
X69440272Y-78329459D01*
X69440276Y-78329464D01*
X69579143Y-78468331D01*
X69612628Y-78529654D01*
X69607644Y-78599346D01*
X69565772Y-78655279D01*
X69556559Y-78661551D01*
X69401342Y-78757289D01*
X69277289Y-78881342D01*
X69185187Y-79030663D01*
X69185185Y-79030668D01*
X69184683Y-79032184D01*
X69130001Y-79197203D01*
X69130001Y-79197204D01*
X69130000Y-79197204D01*
X69119500Y-79299983D01*
X69119500Y-80600001D01*
X69119501Y-80600018D01*
X69130000Y-80702796D01*
X69130001Y-80702799D01*
X69152304Y-80770104D01*
X69185186Y-80869334D01*
X69277288Y-81018656D01*
X69401344Y-81142712D01*
X69550666Y-81234814D01*
X69717203Y-81289999D01*
X69819991Y-81300500D01*
X71370008Y-81300499D01*
X71472797Y-81289999D01*
X71639334Y-81234814D01*
X71788656Y-81142712D01*
X71912712Y-81018656D01*
X72004814Y-80869334D01*
X72059999Y-80702797D01*
X72070500Y-80600009D01*
X72070500Y-80575513D01*
X132149500Y-80575513D01*
X132149500Y-80764486D01*
X132179059Y-80951118D01*
X132237454Y-81130836D01*
X132290433Y-81234812D01*
X132323240Y-81299199D01*
X132434310Y-81452073D01*
X132567927Y-81585690D01*
X132720801Y-81696760D01*
X132800347Y-81737290D01*
X132889163Y-81782545D01*
X132889165Y-81782545D01*
X132889168Y-81782547D01*
X132985497Y-81813846D01*
X133068881Y-81840940D01*
X133255514Y-81870500D01*
X133255519Y-81870500D01*
X133444486Y-81870500D01*
X133631118Y-81840940D01*
X133810832Y-81782547D01*
X133979199Y-81696760D01*
X134132073Y-81585690D01*
X134265690Y-81452073D01*
X134376760Y-81299199D01*
X134462547Y-81130832D01*
X134520940Y-80951118D01*
X134529820Y-80895051D01*
X134550500Y-80764486D01*
X134550500Y-80575513D01*
X139769500Y-80575513D01*
X139769500Y-80764486D01*
X139799059Y-80951118D01*
X139857454Y-81130836D01*
X139910433Y-81234812D01*
X139943240Y-81299199D01*
X140054310Y-81452073D01*
X140187927Y-81585690D01*
X140340801Y-81696760D01*
X140420347Y-81737290D01*
X140509163Y-81782545D01*
X140509165Y-81782545D01*
X140509168Y-81782547D01*
X140605497Y-81813846D01*
X140688881Y-81840940D01*
X140875514Y-81870500D01*
X140875519Y-81870500D01*
X141064486Y-81870500D01*
X141251118Y-81840940D01*
X141430832Y-81782547D01*
X141599199Y-81696760D01*
X141752073Y-81585690D01*
X141885690Y-81452073D01*
X141996760Y-81299199D01*
X142082547Y-81130832D01*
X142140940Y-80951118D01*
X142149820Y-80895051D01*
X142170500Y-80764486D01*
X142170500Y-80575513D01*
X142140940Y-80388881D01*
X142082545Y-80209163D01*
X141996759Y-80040800D01*
X141885690Y-79887927D01*
X141752073Y-79754310D01*
X141599199Y-79643240D01*
X141580501Y-79633713D01*
X141430836Y-79557454D01*
X141251118Y-79499059D01*
X141064486Y-79469500D01*
X141064481Y-79469500D01*
X140875519Y-79469500D01*
X140875514Y-79469500D01*
X140688881Y-79499059D01*
X140509163Y-79557454D01*
X140340800Y-79643240D01*
X140253579Y-79706610D01*
X140187927Y-79754310D01*
X140187925Y-79754312D01*
X140187924Y-79754312D01*
X140054312Y-79887924D01*
X140054312Y-79887925D01*
X140054310Y-79887927D01*
X140006610Y-79953579D01*
X139943240Y-80040800D01*
X139857454Y-80209163D01*
X139799059Y-80388881D01*
X139769500Y-80575513D01*
X134550500Y-80575513D01*
X134520940Y-80388881D01*
X134462545Y-80209163D01*
X134376759Y-80040800D01*
X134265690Y-79887927D01*
X134132073Y-79754310D01*
X133979199Y-79643240D01*
X133960501Y-79633713D01*
X133810836Y-79557454D01*
X133631118Y-79499059D01*
X133444486Y-79469500D01*
X133444481Y-79469500D01*
X133255519Y-79469500D01*
X133255514Y-79469500D01*
X133068881Y-79499059D01*
X132889163Y-79557454D01*
X132720800Y-79643240D01*
X132633579Y-79706610D01*
X132567927Y-79754310D01*
X132567925Y-79754312D01*
X132567924Y-79754312D01*
X132434312Y-79887924D01*
X132434312Y-79887925D01*
X132434310Y-79887927D01*
X132386610Y-79953579D01*
X132323240Y-80040800D01*
X132237454Y-80209163D01*
X132179059Y-80388881D01*
X132149500Y-80575513D01*
X72070500Y-80575513D01*
X72070499Y-79299992D01*
X72059999Y-79197203D01*
X72004814Y-79030666D01*
X71912712Y-78881344D01*
X71788656Y-78757288D01*
X71639334Y-78665186D01*
X71639332Y-78665185D01*
X71633440Y-78661551D01*
X71586716Y-78609603D01*
X71575493Y-78540641D01*
X71603337Y-78476558D01*
X71610856Y-78468330D01*
X71749728Y-78329458D01*
X71874620Y-78157557D01*
X71971095Y-77968217D01*
X72036757Y-77766129D01*
X72036757Y-77766126D01*
X72047231Y-77700000D01*
X70999146Y-77700000D01*
X71037630Y-77633343D01*
X71070000Y-77512535D01*
X71070000Y-77387465D01*
X71037630Y-77266657D01*
X70999146Y-77200000D01*
X72047231Y-77200000D01*
X72036757Y-77133873D01*
X72036757Y-77133870D01*
X71971095Y-76931782D01*
X71874620Y-76742442D01*
X71749727Y-76570540D01*
X71749723Y-76570535D01*
X71599464Y-76420276D01*
X71599459Y-76420272D01*
X71434781Y-76300627D01*
X71417604Y-76278351D01*
X71397996Y-76258175D01*
X71396552Y-76251051D01*
X71392115Y-76245297D01*
X71389707Y-76217269D01*
X71384121Y-76189697D01*
X71386757Y-76182924D01*
X71386136Y-76175684D01*
X71399265Y-76150801D01*
X71409471Y-76124588D01*
X71416911Y-76117357D01*
X71418741Y-76113889D01*
X71428407Y-76105513D01*
X78809500Y-76105513D01*
X78809500Y-76294486D01*
X78839059Y-76481118D01*
X78897454Y-76660836D01*
X78946839Y-76757758D01*
X78983240Y-76829199D01*
X79094310Y-76982073D01*
X79227927Y-77115690D01*
X79380801Y-77226760D01*
X79459104Y-77266657D01*
X79549163Y-77312545D01*
X79549165Y-77312545D01*
X79549168Y-77312547D01*
X79645497Y-77343846D01*
X79728881Y-77370940D01*
X79915514Y-77400500D01*
X79915519Y-77400500D01*
X80104486Y-77400500D01*
X80291118Y-77370940D01*
X80470832Y-77312547D01*
X80639199Y-77226760D01*
X80792073Y-77115690D01*
X80925690Y-76982073D01*
X81036760Y-76829199D01*
X81122547Y-76660832D01*
X81180940Y-76481118D01*
X81210500Y-76294486D01*
X81210500Y-76105513D01*
X86429500Y-76105513D01*
X86429500Y-76294486D01*
X86459059Y-76481118D01*
X86517454Y-76660836D01*
X86566839Y-76757758D01*
X86603240Y-76829199D01*
X86714310Y-76982073D01*
X86847927Y-77115690D01*
X87000801Y-77226760D01*
X87079104Y-77266657D01*
X87169163Y-77312545D01*
X87169165Y-77312545D01*
X87169168Y-77312547D01*
X87265497Y-77343846D01*
X87348881Y-77370940D01*
X87535514Y-77400500D01*
X87535519Y-77400500D01*
X87724486Y-77400500D01*
X87911118Y-77370940D01*
X88090832Y-77312547D01*
X88259199Y-77226760D01*
X88412073Y-77115690D01*
X88545690Y-76982073D01*
X88656760Y-76829199D01*
X88742547Y-76660832D01*
X88800940Y-76481118D01*
X88830500Y-76294486D01*
X88830500Y-76105513D01*
X88800940Y-75918881D01*
X88742545Y-75739163D01*
X88656759Y-75570800D01*
X88545690Y-75417927D01*
X88412073Y-75284310D01*
X88259199Y-75173240D01*
X88090836Y-75087454D01*
X87911118Y-75029059D01*
X87724486Y-74999500D01*
X87724481Y-74999500D01*
X87535519Y-74999500D01*
X87535514Y-74999500D01*
X87348881Y-75029059D01*
X87169163Y-75087454D01*
X87000800Y-75173240D01*
X86913579Y-75236610D01*
X86847927Y-75284310D01*
X86847925Y-75284312D01*
X86847924Y-75284312D01*
X86714312Y-75417924D01*
X86714312Y-75417925D01*
X86714310Y-75417927D01*
X86677630Y-75468412D01*
X86603240Y-75570800D01*
X86517454Y-75739163D01*
X86459059Y-75918881D01*
X86429500Y-76105513D01*
X81210500Y-76105513D01*
X81180940Y-75918881D01*
X81122545Y-75739163D01*
X81036759Y-75570800D01*
X80925690Y-75417927D01*
X80792073Y-75284310D01*
X80639199Y-75173240D01*
X80470836Y-75087454D01*
X80291118Y-75029059D01*
X80104486Y-74999500D01*
X80104481Y-74999500D01*
X79915519Y-74999500D01*
X79915514Y-74999500D01*
X79728881Y-75029059D01*
X79549163Y-75087454D01*
X79380800Y-75173240D01*
X79293579Y-75236610D01*
X79227927Y-75284310D01*
X79227925Y-75284312D01*
X79227924Y-75284312D01*
X79094312Y-75417924D01*
X79094312Y-75417925D01*
X79094310Y-75417927D01*
X79057630Y-75468412D01*
X78983240Y-75570800D01*
X78897454Y-75739163D01*
X78839059Y-75918881D01*
X78809500Y-76105513D01*
X71428407Y-76105513D01*
X71434776Y-76099994D01*
X71571956Y-76000328D01*
X71571958Y-76000327D01*
X71599785Y-75980109D01*
X71599783Y-75980109D01*
X71599792Y-75980104D01*
X71750104Y-75829792D01*
X71750106Y-75829788D01*
X71750109Y-75829786D01*
X71875048Y-75657820D01*
X71875047Y-75657820D01*
X71875051Y-75657816D01*
X71971557Y-75468412D01*
X72037246Y-75266243D01*
X72070500Y-75056287D01*
X72070500Y-74843713D01*
X72037246Y-74633757D01*
X71971557Y-74431588D01*
X71875051Y-74242184D01*
X71875049Y-74242181D01*
X71875048Y-74242179D01*
X71750109Y-74070213D01*
X71599792Y-73919896D01*
X71518096Y-73860541D01*
X71435204Y-73800316D01*
X71418364Y-73778478D01*
X71398961Y-73758879D01*
X71397331Y-73751202D01*
X71392540Y-73744989D01*
X71390180Y-73717511D01*
X71384453Y-73690532D01*
X71387232Y-73683193D01*
X71386561Y-73675376D01*
X71399430Y-73650984D01*
X71409199Y-73625191D01*
X71417159Y-73617382D01*
X71419166Y-73613580D01*
X71434281Y-73600360D01*
X71434706Y-73600044D01*
X71474264Y-73571304D01*
X85459500Y-73571304D01*
X85459500Y-73748695D01*
X85494103Y-73922658D01*
X85494106Y-73922667D01*
X85561983Y-74086540D01*
X85561990Y-74086553D01*
X85660535Y-74234034D01*
X85660538Y-74234038D01*
X85785961Y-74359461D01*
X85785965Y-74359464D01*
X85933446Y-74458009D01*
X85933459Y-74458016D01*
X86010677Y-74490000D01*
X86097334Y-74525894D01*
X86097336Y-74525894D01*
X86097341Y-74525896D01*
X86271304Y-74560499D01*
X86271307Y-74560500D01*
X86271309Y-74560500D01*
X86448693Y-74560500D01*
X86448694Y-74560499D01*
X86506682Y-74548964D01*
X86622658Y-74525896D01*
X86622661Y-74525894D01*
X86622666Y-74525894D01*
X86786547Y-74458013D01*
X86934035Y-74359464D01*
X86934038Y-74359461D01*
X86946681Y-74346819D01*
X87008004Y-74313334D01*
X87034362Y-74310500D01*
X90765638Y-74310500D01*
X90832677Y-74330185D01*
X90853319Y-74346819D01*
X90865961Y-74359461D01*
X90865965Y-74359464D01*
X91013446Y-74458009D01*
X91013459Y-74458016D01*
X91090677Y-74490000D01*
X91177334Y-74525894D01*
X91177336Y-74525894D01*
X91177341Y-74525896D01*
X91351304Y-74560499D01*
X91351307Y-74560500D01*
X91351309Y-74560500D01*
X91528693Y-74560500D01*
X91528694Y-74560499D01*
X91586682Y-74548964D01*
X91702658Y-74525896D01*
X91702661Y-74525894D01*
X91702666Y-74525894D01*
X91866547Y-74458013D01*
X92014035Y-74359464D01*
X92139464Y-74234035D01*
X92238013Y-74086547D01*
X92305894Y-73922666D01*
X92306446Y-73919894D01*
X92338473Y-73758879D01*
X92340500Y-73748691D01*
X92340500Y-73571309D01*
X92340500Y-73571306D01*
X92340499Y-73571304D01*
X92305896Y-73397341D01*
X92305893Y-73397332D01*
X92238016Y-73233459D01*
X92238009Y-73233446D01*
X92139464Y-73085965D01*
X92139461Y-73085961D01*
X92014038Y-72960538D01*
X92014034Y-72960535D01*
X91866553Y-72861990D01*
X91866540Y-72861983D01*
X91702667Y-72794106D01*
X91702658Y-72794103D01*
X91528694Y-72759500D01*
X91528691Y-72759500D01*
X91351309Y-72759500D01*
X91351306Y-72759500D01*
X91177341Y-72794103D01*
X91177332Y-72794106D01*
X91013459Y-72861983D01*
X91013446Y-72861990D01*
X90865965Y-72960535D01*
X90865961Y-72960538D01*
X90853319Y-72973181D01*
X90791996Y-73006666D01*
X90765638Y-73009500D01*
X87034362Y-73009500D01*
X86967323Y-72989815D01*
X86946681Y-72973181D01*
X86934038Y-72960538D01*
X86934034Y-72960535D01*
X86786553Y-72861990D01*
X86786540Y-72861983D01*
X86622667Y-72794106D01*
X86622658Y-72794103D01*
X86448694Y-72759500D01*
X86448691Y-72759500D01*
X86271309Y-72759500D01*
X86271306Y-72759500D01*
X86097341Y-72794103D01*
X86097332Y-72794106D01*
X85933459Y-72861983D01*
X85933446Y-72861990D01*
X85785965Y-72960535D01*
X85785961Y-72960538D01*
X85660538Y-73085961D01*
X85660535Y-73085965D01*
X85561990Y-73233446D01*
X85561983Y-73233459D01*
X85494106Y-73397332D01*
X85494103Y-73397341D01*
X85459500Y-73571304D01*
X71474264Y-73571304D01*
X71599792Y-73480104D01*
X71750104Y-73329792D01*
X71750106Y-73329788D01*
X71750109Y-73329786D01*
X71875048Y-73157820D01*
X71875047Y-73157820D01*
X71875051Y-73157816D01*
X71971557Y-72968412D01*
X72037246Y-72766243D01*
X72070500Y-72556287D01*
X72070500Y-72343713D01*
X72037246Y-72133757D01*
X71971557Y-71931588D01*
X71875051Y-71742184D01*
X71875049Y-71742181D01*
X71875048Y-71742179D01*
X71750109Y-71570213D01*
X71599786Y-71419890D01*
X71427820Y-71294951D01*
X71238414Y-71198444D01*
X71238413Y-71198443D01*
X71238412Y-71198443D01*
X71036243Y-71132754D01*
X70826287Y-71099500D01*
X70363713Y-71099500D01*
X70315042Y-71107208D01*
X70153760Y-71132753D01*
X69951585Y-71198444D01*
X69762179Y-71294951D01*
X69590213Y-71419890D01*
X69439890Y-71570213D01*
X69314951Y-71742179D01*
X69218444Y-71931585D01*
X69152753Y-72133760D01*
X69119500Y-72343713D01*
X58920500Y-72343713D01*
X58920500Y-71025513D01*
X78809500Y-71025513D01*
X78809500Y-71214486D01*
X78839059Y-71401118D01*
X78897454Y-71580836D01*
X78955134Y-71694038D01*
X78983240Y-71749199D01*
X79094310Y-71902073D01*
X79227927Y-72035690D01*
X79380801Y-72146760D01*
X79460347Y-72187290D01*
X79549163Y-72232545D01*
X79549165Y-72232545D01*
X79549168Y-72232547D01*
X79645497Y-72263846D01*
X79728881Y-72290940D01*
X79915514Y-72320500D01*
X79915519Y-72320500D01*
X80104486Y-72320500D01*
X80291118Y-72290940D01*
X80470832Y-72232547D01*
X80639199Y-72146760D01*
X80792073Y-72035690D01*
X80925690Y-71902073D01*
X81036760Y-71749199D01*
X81122547Y-71580832D01*
X81180940Y-71401118D01*
X81183862Y-71382667D01*
X81210500Y-71214486D01*
X81210500Y-71025513D01*
X86429500Y-71025513D01*
X86429500Y-71214486D01*
X86459059Y-71401118D01*
X86517454Y-71580836D01*
X86575134Y-71694038D01*
X86603240Y-71749199D01*
X86714310Y-71902073D01*
X86847927Y-72035690D01*
X87000801Y-72146760D01*
X87080347Y-72187290D01*
X87169163Y-72232545D01*
X87169165Y-72232545D01*
X87169168Y-72232547D01*
X87265497Y-72263846D01*
X87348881Y-72290940D01*
X87535514Y-72320500D01*
X87535519Y-72320500D01*
X87724486Y-72320500D01*
X87911118Y-72290940D01*
X88090832Y-72232547D01*
X88259199Y-72146760D01*
X88412073Y-72035690D01*
X88545690Y-71902073D01*
X88656760Y-71749199D01*
X88742547Y-71580832D01*
X88800940Y-71401118D01*
X88803862Y-71382667D01*
X88830500Y-71214486D01*
X88830500Y-71025513D01*
X88800940Y-70838881D01*
X88753687Y-70693453D01*
X88742547Y-70659168D01*
X88742545Y-70659165D01*
X88742545Y-70659163D01*
X88656759Y-70490800D01*
X88643097Y-70471996D01*
X88545690Y-70337927D01*
X88412073Y-70204310D01*
X88259199Y-70093240D01*
X88090836Y-70007454D01*
X87911118Y-69949059D01*
X87724486Y-69919500D01*
X87724481Y-69919500D01*
X87535519Y-69919500D01*
X87535514Y-69919500D01*
X87348881Y-69949059D01*
X87169163Y-70007454D01*
X87000800Y-70093240D01*
X86913579Y-70156610D01*
X86847927Y-70204310D01*
X86847925Y-70204312D01*
X86847924Y-70204312D01*
X86714312Y-70337924D01*
X86714312Y-70337925D01*
X86714310Y-70337927D01*
X86666610Y-70403579D01*
X86603240Y-70490800D01*
X86517454Y-70659163D01*
X86459059Y-70838881D01*
X86429500Y-71025513D01*
X81210500Y-71025513D01*
X81180940Y-70838881D01*
X81133687Y-70693453D01*
X81122547Y-70659168D01*
X81122545Y-70659165D01*
X81122545Y-70659163D01*
X81036759Y-70490800D01*
X81023097Y-70471996D01*
X80925690Y-70337927D01*
X80792073Y-70204310D01*
X80639199Y-70093240D01*
X80470836Y-70007454D01*
X80291118Y-69949059D01*
X80104486Y-69919500D01*
X80104481Y-69919500D01*
X79915519Y-69919500D01*
X79915514Y-69919500D01*
X79728881Y-69949059D01*
X79549163Y-70007454D01*
X79380800Y-70093240D01*
X79293579Y-70156610D01*
X79227927Y-70204310D01*
X79227925Y-70204312D01*
X79227924Y-70204312D01*
X79094312Y-70337924D01*
X79094312Y-70337925D01*
X79094310Y-70337927D01*
X79046610Y-70403579D01*
X78983240Y-70490800D01*
X78897454Y-70659163D01*
X78839059Y-70838881D01*
X78809500Y-71025513D01*
X58920500Y-71025513D01*
X58920500Y-65951304D01*
X90539500Y-65951304D01*
X90539500Y-66128695D01*
X90574103Y-66302658D01*
X90574106Y-66302667D01*
X90641983Y-66466540D01*
X90641990Y-66466553D01*
X90740535Y-66614034D01*
X90740538Y-66614038D01*
X90865961Y-66739461D01*
X90865965Y-66739464D01*
X91013446Y-66838009D01*
X91013459Y-66838016D01*
X91136363Y-66888923D01*
X91177334Y-66905894D01*
X91177336Y-66905894D01*
X91177341Y-66905896D01*
X91351304Y-66940499D01*
X91351307Y-66940500D01*
X91351309Y-66940500D01*
X91528693Y-66940500D01*
X91528694Y-66940499D01*
X91586682Y-66928964D01*
X91702658Y-66905896D01*
X91702661Y-66905894D01*
X91702666Y-66905894D01*
X91866547Y-66838013D01*
X92014035Y-66739464D01*
X92014038Y-66739461D01*
X92026681Y-66726819D01*
X92088004Y-66693334D01*
X92114362Y-66690500D01*
X93659192Y-66690500D01*
X93726231Y-66710185D01*
X93746873Y-66726819D01*
X100663181Y-73643127D01*
X100696666Y-73704450D01*
X100699500Y-73730808D01*
X100699500Y-73748695D01*
X100734103Y-73922658D01*
X100734106Y-73922667D01*
X100801983Y-74086540D01*
X100801990Y-74086553D01*
X100900535Y-74234034D01*
X100900538Y-74234038D01*
X101025961Y-74359461D01*
X101025965Y-74359464D01*
X101173446Y-74458009D01*
X101173459Y-74458016D01*
X101250106Y-74489763D01*
X101337334Y-74525894D01*
X101340867Y-74526596D01*
X101342547Y-74527475D01*
X101343169Y-74527664D01*
X101343133Y-74527781D01*
X101402779Y-74558977D01*
X101437358Y-74619690D01*
X101433622Y-74689460D01*
X101392760Y-74746135D01*
X101336082Y-74770688D01*
X101259752Y-74782778D01*
X101259750Y-74782778D01*
X101042244Y-74853450D01*
X100838461Y-74957283D01*
X100780355Y-74999500D01*
X100653434Y-75091714D01*
X100653432Y-75091716D01*
X100653431Y-75091716D01*
X100491715Y-75253432D01*
X100430318Y-75337938D01*
X100374987Y-75380603D01*
X100305374Y-75386582D01*
X100243579Y-75353976D01*
X100229682Y-75337938D01*
X100190720Y-75284312D01*
X100168286Y-75253434D01*
X100006566Y-75091714D01*
X99821538Y-74957283D01*
X99754927Y-74923343D01*
X99617755Y-74853450D01*
X99400248Y-74782778D01*
X99230826Y-74755944D01*
X99174354Y-74747000D01*
X98945646Y-74747000D01*
X98870349Y-74758926D01*
X98719753Y-74782778D01*
X98719750Y-74782778D01*
X98502244Y-74853450D01*
X98298461Y-74957283D01*
X98240355Y-74999500D01*
X98113434Y-75091714D01*
X98113432Y-75091716D01*
X98113431Y-75091716D01*
X97951715Y-75253432D01*
X97890318Y-75337938D01*
X97834987Y-75380603D01*
X97765374Y-75386582D01*
X97703579Y-75353976D01*
X97689682Y-75337938D01*
X97650720Y-75284312D01*
X97628286Y-75253434D01*
X97466566Y-75091714D01*
X97281538Y-74957283D01*
X97214927Y-74923343D01*
X97077755Y-74853450D01*
X96860248Y-74782778D01*
X96690826Y-74755944D01*
X96634354Y-74747000D01*
X96405646Y-74747000D01*
X96330349Y-74758926D01*
X96179753Y-74782778D01*
X96179750Y-74782778D01*
X95962244Y-74853450D01*
X95758461Y-74957283D01*
X95700355Y-74999500D01*
X95573434Y-75091714D01*
X95573432Y-75091716D01*
X95573431Y-75091716D01*
X95411716Y-75253431D01*
X95411716Y-75253432D01*
X95411714Y-75253434D01*
X95389280Y-75284312D01*
X95277283Y-75438461D01*
X95173450Y-75642244D01*
X95102778Y-75859750D01*
X95102778Y-75859753D01*
X95080513Y-76000327D01*
X95067000Y-76085646D01*
X95067000Y-76314354D01*
X95083776Y-76420272D01*
X95102778Y-76540246D01*
X95102778Y-76540249D01*
X95173450Y-76757755D01*
X95173452Y-76757758D01*
X95277283Y-76961538D01*
X95411714Y-77146566D01*
X95573434Y-77308286D01*
X95758462Y-77442717D01*
X95895488Y-77512535D01*
X95962244Y-77546549D01*
X96179751Y-77617221D01*
X96179752Y-77617221D01*
X96179755Y-77617222D01*
X96405646Y-77653000D01*
X96405647Y-77653000D01*
X96634353Y-77653000D01*
X96634354Y-77653000D01*
X96860245Y-77617222D01*
X96860248Y-77617221D01*
X96860249Y-77617221D01*
X97077755Y-77546549D01*
X97077755Y-77546548D01*
X97077758Y-77546548D01*
X97281538Y-77442717D01*
X97466566Y-77308286D01*
X97628286Y-77146566D01*
X97689683Y-77062059D01*
X97745012Y-77019396D01*
X97814625Y-77013417D01*
X97876420Y-77046023D01*
X97890314Y-77062056D01*
X97951714Y-77146566D01*
X98113434Y-77308286D01*
X98298462Y-77442717D01*
X98435488Y-77512535D01*
X98502244Y-77546549D01*
X98719751Y-77617221D01*
X98719752Y-77617221D01*
X98719755Y-77617222D01*
X98945646Y-77653000D01*
X98945647Y-77653000D01*
X99174353Y-77653000D01*
X99174354Y-77653000D01*
X99400245Y-77617222D01*
X99400248Y-77617221D01*
X99400249Y-77617221D01*
X99617755Y-77546549D01*
X99617755Y-77546548D01*
X99617758Y-77546548D01*
X99821538Y-77442717D01*
X100006566Y-77308286D01*
X100168286Y-77146566D01*
X100229683Y-77062059D01*
X100285012Y-77019396D01*
X100354625Y-77013417D01*
X100416420Y-77046023D01*
X100430314Y-77062056D01*
X100491714Y-77146566D01*
X100653434Y-77308286D01*
X100838462Y-77442717D01*
X100975488Y-77512535D01*
X101042244Y-77546549D01*
X101259751Y-77617221D01*
X101259752Y-77617221D01*
X101259755Y-77617222D01*
X101485646Y-77653000D01*
X101485647Y-77653000D01*
X101714353Y-77653000D01*
X101714354Y-77653000D01*
X101940245Y-77617222D01*
X101940248Y-77617221D01*
X101940249Y-77617221D01*
X102157755Y-77546549D01*
X102157755Y-77546548D01*
X102157758Y-77546548D01*
X102361538Y-77442717D01*
X102546566Y-77308286D01*
X102708286Y-77146566D01*
X102769683Y-77062059D01*
X102825012Y-77019396D01*
X102894625Y-77013417D01*
X102956420Y-77046023D01*
X102970314Y-77062056D01*
X103031714Y-77146566D01*
X103193434Y-77308286D01*
X103378462Y-77442717D01*
X103515488Y-77512535D01*
X103582244Y-77546549D01*
X103799751Y-77617221D01*
X103799752Y-77617221D01*
X103799755Y-77617222D01*
X104025646Y-77653000D01*
X104025647Y-77653000D01*
X104254353Y-77653000D01*
X104254354Y-77653000D01*
X104480245Y-77617222D01*
X104480248Y-77617221D01*
X104480249Y-77617221D01*
X104697755Y-77546549D01*
X104697755Y-77546548D01*
X104697758Y-77546548D01*
X104901538Y-77442717D01*
X105086566Y-77308286D01*
X105248286Y-77146566D01*
X105309683Y-77062059D01*
X105365012Y-77019396D01*
X105434625Y-77013417D01*
X105496420Y-77046023D01*
X105510314Y-77062056D01*
X105571714Y-77146566D01*
X105733434Y-77308286D01*
X105918462Y-77442717D01*
X106055488Y-77512535D01*
X106122244Y-77546549D01*
X106339751Y-77617221D01*
X106339752Y-77617221D01*
X106339755Y-77617222D01*
X106565646Y-77653000D01*
X106565647Y-77653000D01*
X106794353Y-77653000D01*
X106794354Y-77653000D01*
X107020245Y-77617222D01*
X107020248Y-77617221D01*
X107020249Y-77617221D01*
X107237755Y-77546549D01*
X107237755Y-77546548D01*
X107237758Y-77546548D01*
X107441538Y-77442717D01*
X107626566Y-77308286D01*
X107788286Y-77146566D01*
X107849683Y-77062059D01*
X107905012Y-77019396D01*
X107974625Y-77013417D01*
X108036420Y-77046023D01*
X108050314Y-77062056D01*
X108111714Y-77146566D01*
X108273434Y-77308286D01*
X108458462Y-77442717D01*
X108595488Y-77512535D01*
X108662244Y-77546549D01*
X108879751Y-77617221D01*
X108879752Y-77617221D01*
X108879755Y-77617222D01*
X109105646Y-77653000D01*
X109105647Y-77653000D01*
X109334353Y-77653000D01*
X109334354Y-77653000D01*
X109560245Y-77617222D01*
X109560248Y-77617221D01*
X109560249Y-77617221D01*
X109777755Y-77546549D01*
X109777755Y-77546548D01*
X109777758Y-77546548D01*
X109981538Y-77442717D01*
X110166566Y-77308286D01*
X110328286Y-77146566D01*
X110389683Y-77062059D01*
X110445012Y-77019396D01*
X110514625Y-77013417D01*
X110576420Y-77046023D01*
X110590314Y-77062056D01*
X110651714Y-77146566D01*
X110813434Y-77308286D01*
X110998462Y-77442717D01*
X111135488Y-77512535D01*
X111202244Y-77546549D01*
X111419751Y-77617221D01*
X111419752Y-77617221D01*
X111419755Y-77617222D01*
X111645646Y-77653000D01*
X111645647Y-77653000D01*
X111874353Y-77653000D01*
X111874354Y-77653000D01*
X112100245Y-77617222D01*
X112100248Y-77617221D01*
X112100249Y-77617221D01*
X112317755Y-77546549D01*
X112317755Y-77546548D01*
X112317758Y-77546548D01*
X112521538Y-77442717D01*
X112706566Y-77308286D01*
X112868286Y-77146566D01*
X112929683Y-77062059D01*
X112985012Y-77019396D01*
X113054625Y-77013417D01*
X113116420Y-77046023D01*
X113130314Y-77062056D01*
X113191714Y-77146566D01*
X113353434Y-77308286D01*
X113538462Y-77442717D01*
X113675488Y-77512535D01*
X113742244Y-77546549D01*
X113959751Y-77617221D01*
X113959752Y-77617221D01*
X113959755Y-77617222D01*
X114185646Y-77653000D01*
X114185647Y-77653000D01*
X114414353Y-77653000D01*
X114414354Y-77653000D01*
X114640245Y-77617222D01*
X114640248Y-77617221D01*
X114640249Y-77617221D01*
X114857755Y-77546549D01*
X114857755Y-77546548D01*
X114857758Y-77546548D01*
X115061538Y-77442717D01*
X115246566Y-77308286D01*
X115408286Y-77146566D01*
X115469683Y-77062059D01*
X115525012Y-77019396D01*
X115594625Y-77013417D01*
X115656420Y-77046023D01*
X115670314Y-77062056D01*
X115731714Y-77146566D01*
X115893434Y-77308286D01*
X116078462Y-77442717D01*
X116215488Y-77512535D01*
X116282244Y-77546549D01*
X116499751Y-77617221D01*
X116499752Y-77617221D01*
X116499755Y-77617222D01*
X116725646Y-77653000D01*
X116725647Y-77653000D01*
X116954353Y-77653000D01*
X116954354Y-77653000D01*
X117180245Y-77617222D01*
X117180248Y-77617221D01*
X117180249Y-77617221D01*
X117397755Y-77546549D01*
X117397755Y-77546548D01*
X117397758Y-77546548D01*
X117601538Y-77442717D01*
X117786566Y-77308286D01*
X117948286Y-77146566D01*
X118009683Y-77062059D01*
X118065012Y-77019396D01*
X118134625Y-77013417D01*
X118196420Y-77046023D01*
X118210314Y-77062056D01*
X118271714Y-77146566D01*
X118433434Y-77308286D01*
X118618462Y-77442717D01*
X118755488Y-77512535D01*
X118822244Y-77546549D01*
X119039751Y-77617221D01*
X119039752Y-77617221D01*
X119039755Y-77617222D01*
X119265646Y-77653000D01*
X119265647Y-77653000D01*
X119494353Y-77653000D01*
X119494354Y-77653000D01*
X119720245Y-77617222D01*
X119720248Y-77617221D01*
X119720249Y-77617221D01*
X119937755Y-77546549D01*
X119937755Y-77546548D01*
X119937758Y-77546548D01*
X120141538Y-77442717D01*
X120326566Y-77308286D01*
X120488286Y-77146566D01*
X120549683Y-77062059D01*
X120605012Y-77019396D01*
X120674625Y-77013417D01*
X120736420Y-77046023D01*
X120750314Y-77062056D01*
X120811714Y-77146566D01*
X120973434Y-77308286D01*
X121158462Y-77442717D01*
X121295488Y-77512535D01*
X121362244Y-77546549D01*
X121579751Y-77617221D01*
X121579752Y-77617221D01*
X121579755Y-77617222D01*
X121805646Y-77653000D01*
X121805647Y-77653000D01*
X122034353Y-77653000D01*
X122034354Y-77653000D01*
X122260245Y-77617222D01*
X122260248Y-77617221D01*
X122260249Y-77617221D01*
X122477755Y-77546549D01*
X122477755Y-77546548D01*
X122477758Y-77546548D01*
X122681538Y-77442717D01*
X122866566Y-77308286D01*
X123028286Y-77146566D01*
X123089683Y-77062059D01*
X123145012Y-77019396D01*
X123214625Y-77013417D01*
X123276420Y-77046023D01*
X123290314Y-77062056D01*
X123351714Y-77146566D01*
X123513434Y-77308286D01*
X123698462Y-77442717D01*
X123835488Y-77512535D01*
X123902244Y-77546549D01*
X124119751Y-77617221D01*
X124119752Y-77617221D01*
X124119755Y-77617222D01*
X124345646Y-77653000D01*
X124345647Y-77653000D01*
X124574353Y-77653000D01*
X124574354Y-77653000D01*
X124800245Y-77617222D01*
X124800248Y-77617221D01*
X124800249Y-77617221D01*
X125017755Y-77546549D01*
X125017755Y-77546548D01*
X125017758Y-77546548D01*
X125221538Y-77442717D01*
X125406566Y-77308286D01*
X125568286Y-77146566D01*
X125702717Y-76961538D01*
X125806548Y-76757758D01*
X125877222Y-76540245D01*
X125913000Y-76314354D01*
X125913000Y-76085646D01*
X125877222Y-75859755D01*
X125877221Y-75859751D01*
X125877221Y-75859750D01*
X125806549Y-75642244D01*
X125770147Y-75570801D01*
X125702717Y-75438462D01*
X125568286Y-75253434D01*
X125406566Y-75091714D01*
X125221538Y-74957283D01*
X125154927Y-74923343D01*
X125017755Y-74853450D01*
X124800248Y-74782778D01*
X124630826Y-74755944D01*
X124574354Y-74747000D01*
X124345646Y-74747000D01*
X124270349Y-74758926D01*
X124119753Y-74782778D01*
X124119750Y-74782778D01*
X123902244Y-74853450D01*
X123698461Y-74957283D01*
X123640355Y-74999500D01*
X123513434Y-75091714D01*
X123513432Y-75091716D01*
X123513431Y-75091716D01*
X123351715Y-75253432D01*
X123290318Y-75337938D01*
X123234987Y-75380603D01*
X123165374Y-75386582D01*
X123103579Y-75353976D01*
X123089682Y-75337938D01*
X123050720Y-75284312D01*
X123028286Y-75253434D01*
X122866566Y-75091714D01*
X122681538Y-74957283D01*
X122614927Y-74923343D01*
X122477755Y-74853450D01*
X122260248Y-74782778D01*
X122090826Y-74755944D01*
X122034354Y-74747000D01*
X121805646Y-74747000D01*
X121730349Y-74758926D01*
X121579753Y-74782778D01*
X121579750Y-74782778D01*
X121362244Y-74853450D01*
X121158461Y-74957283D01*
X121100355Y-74999500D01*
X120973434Y-75091714D01*
X120973432Y-75091716D01*
X120973431Y-75091716D01*
X120811715Y-75253432D01*
X120750318Y-75337938D01*
X120694987Y-75380603D01*
X120625374Y-75386582D01*
X120563579Y-75353976D01*
X120549682Y-75337938D01*
X120510720Y-75284312D01*
X120488286Y-75253434D01*
X120326566Y-75091714D01*
X120141538Y-74957283D01*
X120074927Y-74923343D01*
X119937755Y-74853450D01*
X119720248Y-74782778D01*
X119550826Y-74755944D01*
X119494354Y-74747000D01*
X119265646Y-74747000D01*
X119190349Y-74758926D01*
X119039753Y-74782778D01*
X119039750Y-74782778D01*
X118822244Y-74853450D01*
X118618461Y-74957283D01*
X118560355Y-74999500D01*
X118433434Y-75091714D01*
X118433432Y-75091716D01*
X118433431Y-75091716D01*
X118271715Y-75253432D01*
X118210318Y-75337938D01*
X118154987Y-75380603D01*
X118085374Y-75386582D01*
X118023579Y-75353976D01*
X118009682Y-75337938D01*
X117970720Y-75284312D01*
X117948286Y-75253434D01*
X117786566Y-75091714D01*
X117601538Y-74957283D01*
X117534927Y-74923343D01*
X117397755Y-74853450D01*
X117180248Y-74782778D01*
X117010826Y-74755944D01*
X116954354Y-74747000D01*
X116725646Y-74747000D01*
X116650349Y-74758926D01*
X116499753Y-74782778D01*
X116499750Y-74782778D01*
X116282244Y-74853450D01*
X116078461Y-74957283D01*
X116020355Y-74999500D01*
X115893434Y-75091714D01*
X115893432Y-75091716D01*
X115893431Y-75091716D01*
X115731715Y-75253432D01*
X115670318Y-75337938D01*
X115614987Y-75380603D01*
X115545374Y-75386582D01*
X115483579Y-75353976D01*
X115469682Y-75337938D01*
X115430720Y-75284312D01*
X115408286Y-75253434D01*
X115246566Y-75091714D01*
X115061538Y-74957283D01*
X114994927Y-74923343D01*
X114857755Y-74853450D01*
X114640248Y-74782778D01*
X114470826Y-74755944D01*
X114414354Y-74747000D01*
X114185646Y-74747000D01*
X114110349Y-74758926D01*
X113959753Y-74782778D01*
X113959750Y-74782778D01*
X113742244Y-74853450D01*
X113538461Y-74957283D01*
X113480355Y-74999500D01*
X113353434Y-75091714D01*
X113353432Y-75091716D01*
X113353431Y-75091716D01*
X113191715Y-75253432D01*
X113130318Y-75337938D01*
X113074987Y-75380603D01*
X113005374Y-75386582D01*
X112943579Y-75353976D01*
X112929682Y-75337938D01*
X112890720Y-75284312D01*
X112868286Y-75253434D01*
X112706566Y-75091714D01*
X112521538Y-74957283D01*
X112454927Y-74923343D01*
X112317755Y-74853450D01*
X112100248Y-74782778D01*
X111930826Y-74755944D01*
X111874354Y-74747000D01*
X111645646Y-74747000D01*
X111570349Y-74758926D01*
X111419753Y-74782778D01*
X111419750Y-74782778D01*
X111202244Y-74853450D01*
X110998461Y-74957283D01*
X110940355Y-74999500D01*
X110813434Y-75091714D01*
X110813432Y-75091716D01*
X110813431Y-75091716D01*
X110651715Y-75253432D01*
X110590318Y-75337938D01*
X110534987Y-75380603D01*
X110465374Y-75386582D01*
X110403579Y-75353976D01*
X110389682Y-75337938D01*
X110350720Y-75284312D01*
X110328286Y-75253434D01*
X110166566Y-75091714D01*
X109981538Y-74957283D01*
X109914927Y-74923343D01*
X109777755Y-74853450D01*
X109560248Y-74782778D01*
X109390826Y-74755944D01*
X109334354Y-74747000D01*
X109105646Y-74747000D01*
X109030349Y-74758926D01*
X108879753Y-74782778D01*
X108879750Y-74782778D01*
X108662244Y-74853450D01*
X108458461Y-74957283D01*
X108400355Y-74999500D01*
X108273434Y-75091714D01*
X108273432Y-75091716D01*
X108273431Y-75091716D01*
X108111715Y-75253432D01*
X108050318Y-75337938D01*
X107994987Y-75380603D01*
X107925374Y-75386582D01*
X107863579Y-75353976D01*
X107849682Y-75337938D01*
X107810720Y-75284312D01*
X107788286Y-75253434D01*
X107626566Y-75091714D01*
X107441538Y-74957283D01*
X107374927Y-74923343D01*
X107237755Y-74853450D01*
X107020248Y-74782778D01*
X106850826Y-74755944D01*
X106794354Y-74747000D01*
X106565646Y-74747000D01*
X106490349Y-74758926D01*
X106339753Y-74782778D01*
X106339750Y-74782778D01*
X106122244Y-74853450D01*
X105918461Y-74957283D01*
X105860355Y-74999500D01*
X105733434Y-75091714D01*
X105733432Y-75091716D01*
X105733431Y-75091716D01*
X105571715Y-75253432D01*
X105510318Y-75337938D01*
X105454987Y-75380603D01*
X105385374Y-75386582D01*
X105323579Y-75353976D01*
X105309682Y-75337938D01*
X105270720Y-75284312D01*
X105248286Y-75253434D01*
X105086566Y-75091714D01*
X104901538Y-74957283D01*
X104834927Y-74923343D01*
X104697755Y-74853450D01*
X104480248Y-74782778D01*
X104310826Y-74755944D01*
X104254354Y-74747000D01*
X104025646Y-74747000D01*
X103950349Y-74758926D01*
X103799753Y-74782778D01*
X103799750Y-74782778D01*
X103582244Y-74853450D01*
X103378461Y-74957283D01*
X103320355Y-74999500D01*
X103193434Y-75091714D01*
X103193432Y-75091716D01*
X103193431Y-75091716D01*
X103031715Y-75253432D01*
X102970318Y-75337938D01*
X102914987Y-75380603D01*
X102845374Y-75386582D01*
X102783579Y-75353976D01*
X102769682Y-75337938D01*
X102730720Y-75284312D01*
X102708286Y-75253434D01*
X102546566Y-75091714D01*
X102361538Y-74957283D01*
X102294927Y-74923343D01*
X102157755Y-74853450D01*
X101940248Y-74782778D01*
X101863917Y-74770688D01*
X101800782Y-74740758D01*
X101763852Y-74681446D01*
X101764850Y-74611584D01*
X101803461Y-74553351D01*
X101856841Y-74527698D01*
X101856831Y-74527664D01*
X101857052Y-74527596D01*
X101859133Y-74526596D01*
X101862666Y-74525894D01*
X102026547Y-74458013D01*
X102174035Y-74359464D01*
X102299464Y-74234035D01*
X102398013Y-74086547D01*
X102465894Y-73922666D01*
X102466446Y-73919894D01*
X102498473Y-73758879D01*
X102500500Y-73748691D01*
X102500500Y-73571309D01*
X102500500Y-73571306D01*
X102500499Y-73571304D01*
X102465896Y-73397341D01*
X102465893Y-73397332D01*
X102398016Y-73233459D01*
X102398009Y-73233446D01*
X102299464Y-73085965D01*
X102299461Y-73085961D01*
X102174038Y-72960538D01*
X102174034Y-72960535D01*
X102026553Y-72861990D01*
X102026540Y-72861983D01*
X101862667Y-72794106D01*
X101862658Y-72794103D01*
X101688694Y-72759500D01*
X101688691Y-72759500D01*
X101670808Y-72759500D01*
X101603769Y-72739815D01*
X101583127Y-72723181D01*
X99972844Y-71112898D01*
X99891250Y-71031304D01*
X115939500Y-71031304D01*
X115939500Y-71208695D01*
X115974103Y-71382658D01*
X115974106Y-71382667D01*
X116041983Y-71546540D01*
X116041990Y-71546553D01*
X116140535Y-71694034D01*
X116140538Y-71694038D01*
X116265961Y-71819461D01*
X116265965Y-71819464D01*
X116413446Y-71918009D01*
X116413459Y-71918016D01*
X116536363Y-71968923D01*
X116577334Y-71985894D01*
X116577336Y-71985894D01*
X116577341Y-71985896D01*
X116751304Y-72020499D01*
X116751307Y-72020500D01*
X116751309Y-72020500D01*
X116928693Y-72020500D01*
X116928694Y-72020499D01*
X116986682Y-72008964D01*
X117102658Y-71985896D01*
X117102661Y-71985894D01*
X117102666Y-71985894D01*
X117266547Y-71918013D01*
X117414035Y-71819464D01*
X117539464Y-71694035D01*
X117638013Y-71546547D01*
X117705894Y-71382666D01*
X117740500Y-71208691D01*
X117740500Y-71031309D01*
X117740500Y-71031306D01*
X117740499Y-71031304D01*
X118479500Y-71031304D01*
X118479500Y-71208695D01*
X118514103Y-71382658D01*
X118514106Y-71382667D01*
X118581983Y-71546540D01*
X118581990Y-71546553D01*
X118680535Y-71694034D01*
X118680538Y-71694038D01*
X118805961Y-71819461D01*
X118805965Y-71819464D01*
X118953446Y-71918009D01*
X118953459Y-71918016D01*
X119076363Y-71968923D01*
X119117334Y-71985894D01*
X119117336Y-71985894D01*
X119117341Y-71985896D01*
X119291304Y-72020499D01*
X119291307Y-72020500D01*
X119291309Y-72020500D01*
X119468693Y-72020500D01*
X119468694Y-72020499D01*
X119526682Y-72008964D01*
X119642658Y-71985896D01*
X119642661Y-71985894D01*
X119642666Y-71985894D01*
X119806547Y-71918013D01*
X119954035Y-71819464D01*
X120079464Y-71694035D01*
X120148990Y-71589983D01*
X150964500Y-71589983D01*
X150964500Y-72890001D01*
X150964501Y-72890018D01*
X150975000Y-72992796D01*
X150975001Y-72992799D01*
X151030185Y-73159331D01*
X151030187Y-73159336D01*
X151122289Y-73308657D01*
X151246344Y-73432712D01*
X151401558Y-73528448D01*
X151448283Y-73580396D01*
X151459506Y-73649358D01*
X151431663Y-73713441D01*
X151424144Y-73721668D01*
X151285271Y-73860541D01*
X151160379Y-74032442D01*
X151063904Y-74221782D01*
X150998242Y-74423870D01*
X150998242Y-74423873D01*
X150987769Y-74490000D01*
X152035854Y-74490000D01*
X151997370Y-74556657D01*
X151965000Y-74677465D01*
X151965000Y-74802535D01*
X151997370Y-74923343D01*
X152035854Y-74990000D01*
X150987769Y-74990000D01*
X150998242Y-75056126D01*
X150998242Y-75056129D01*
X151063904Y-75258217D01*
X151160379Y-75447557D01*
X151285272Y-75619459D01*
X151285276Y-75619464D01*
X151435535Y-75769723D01*
X151435540Y-75769727D01*
X151600218Y-75889372D01*
X151642884Y-75944701D01*
X151648863Y-76014315D01*
X151616258Y-76076110D01*
X151600218Y-76090008D01*
X151435214Y-76209890D01*
X151435209Y-76209894D01*
X151284890Y-76360213D01*
X151159951Y-76532179D01*
X151063444Y-76721585D01*
X150997753Y-76923760D01*
X150964500Y-77133713D01*
X150964500Y-77346286D01*
X150996218Y-77546549D01*
X150997754Y-77556243D01*
X151029192Y-77653000D01*
X151063444Y-77758414D01*
X151159951Y-77947820D01*
X151284890Y-78119786D01*
X151435209Y-78270105D01*
X151435214Y-78270109D01*
X151599793Y-78389682D01*
X151642459Y-78445011D01*
X151648438Y-78514625D01*
X151615833Y-78576420D01*
X151599793Y-78590318D01*
X151435214Y-78709890D01*
X151435209Y-78709894D01*
X151284890Y-78860213D01*
X151159951Y-79032179D01*
X151063444Y-79221585D01*
X150997753Y-79423760D01*
X150964500Y-79633713D01*
X150964500Y-79846286D01*
X150997753Y-80056239D01*
X151063444Y-80258414D01*
X151159951Y-80447820D01*
X151284890Y-80619786D01*
X151435213Y-80770109D01*
X151607179Y-80895048D01*
X151607181Y-80895049D01*
X151607184Y-80895051D01*
X151796588Y-80991557D01*
X151998757Y-81057246D01*
X152208713Y-81090500D01*
X152208714Y-81090500D01*
X152671286Y-81090500D01*
X152671287Y-81090500D01*
X152881243Y-81057246D01*
X153083412Y-80991557D01*
X153272816Y-80895051D01*
X153308217Y-80869331D01*
X153444786Y-80770109D01*
X153444788Y-80770106D01*
X153444792Y-80770104D01*
X153595104Y-80619792D01*
X153595106Y-80619788D01*
X153595109Y-80619786D01*
X153720048Y-80447820D01*
X153720047Y-80447820D01*
X153720051Y-80447816D01*
X153816557Y-80258412D01*
X153882246Y-80056243D01*
X153915500Y-79846287D01*
X153915500Y-79633713D01*
X153882246Y-79423757D01*
X153816557Y-79221588D01*
X153720051Y-79032184D01*
X153720049Y-79032181D01*
X153720048Y-79032179D01*
X153595109Y-78860213D01*
X153444792Y-78709896D01*
X153444784Y-78709890D01*
X153280204Y-78590316D01*
X153237540Y-78534989D01*
X153231561Y-78465376D01*
X153264166Y-78403580D01*
X153280199Y-78389686D01*
X153444792Y-78270104D01*
X153595104Y-78119792D01*
X153595106Y-78119788D01*
X153595109Y-78119786D01*
X153720048Y-77947820D01*
X153720047Y-77947820D01*
X153720051Y-77947816D01*
X153816557Y-77758412D01*
X153882246Y-77556243D01*
X153915500Y-77346287D01*
X153915500Y-77133713D01*
X153882246Y-76923757D01*
X153816557Y-76721588D01*
X153720051Y-76532184D01*
X153720049Y-76532181D01*
X153720048Y-76532179D01*
X153595109Y-76360213D01*
X153444790Y-76209894D01*
X153444785Y-76209890D01*
X153279781Y-76090008D01*
X153237115Y-76034678D01*
X153231136Y-75965065D01*
X153263741Y-75903270D01*
X153279781Y-75889371D01*
X153444466Y-75769721D01*
X153594723Y-75619464D01*
X153594727Y-75619459D01*
X153719620Y-75447557D01*
X153816095Y-75258217D01*
X153881757Y-75056129D01*
X153881757Y-75056126D01*
X153892231Y-74990000D01*
X152844146Y-74990000D01*
X152882630Y-74923343D01*
X152915000Y-74802535D01*
X152915000Y-74677465D01*
X152882630Y-74556657D01*
X152844146Y-74490000D01*
X153892231Y-74490000D01*
X153881757Y-74423873D01*
X153881757Y-74423870D01*
X153816095Y-74221782D01*
X153719620Y-74032442D01*
X153594727Y-73860540D01*
X153594723Y-73860535D01*
X153455856Y-73721668D01*
X153422371Y-73660345D01*
X153427355Y-73590653D01*
X153469227Y-73534720D01*
X153478441Y-73528448D01*
X153484331Y-73524814D01*
X153484334Y-73524814D01*
X153633656Y-73432712D01*
X153757712Y-73308656D01*
X153849814Y-73159334D01*
X153904999Y-72992797D01*
X153915500Y-72890009D01*
X153915499Y-71589992D01*
X153910329Y-71539385D01*
X153904999Y-71487203D01*
X153904998Y-71487200D01*
X153849814Y-71320666D01*
X153757712Y-71171344D01*
X153633656Y-71047288D01*
X153484334Y-70955186D01*
X153317797Y-70900001D01*
X153317795Y-70900000D01*
X153215010Y-70889500D01*
X151664998Y-70889500D01*
X151664981Y-70889501D01*
X151562203Y-70900000D01*
X151562200Y-70900001D01*
X151395668Y-70955185D01*
X151395663Y-70955187D01*
X151246342Y-71047289D01*
X151122289Y-71171342D01*
X151030187Y-71320663D01*
X151030186Y-71320666D01*
X150975001Y-71487203D01*
X150975001Y-71487204D01*
X150975000Y-71487204D01*
X150964500Y-71589983D01*
X120148990Y-71589983D01*
X120178013Y-71546547D01*
X120245894Y-71382666D01*
X120280500Y-71208691D01*
X120280500Y-71190808D01*
X120300185Y-71123769D01*
X120316819Y-71103127D01*
X122153127Y-69266819D01*
X122214450Y-69233334D01*
X122240808Y-69230500D01*
X126325638Y-69230500D01*
X126392677Y-69250185D01*
X126413319Y-69266819D01*
X126425961Y-69279461D01*
X126425965Y-69279464D01*
X126573446Y-69378009D01*
X126573459Y-69378016D01*
X126696363Y-69428923D01*
X126737334Y-69445894D01*
X126737336Y-69445894D01*
X126737341Y-69445896D01*
X126911304Y-69480499D01*
X126911307Y-69480500D01*
X126911309Y-69480500D01*
X127088693Y-69480500D01*
X127088694Y-69480499D01*
X127146682Y-69468964D01*
X127262658Y-69445896D01*
X127262661Y-69445894D01*
X127262666Y-69445894D01*
X127426547Y-69378013D01*
X127574035Y-69279464D01*
X127699464Y-69154035D01*
X127798013Y-69006547D01*
X127865894Y-68842666D01*
X127900500Y-68668691D01*
X127900500Y-68491309D01*
X127900500Y-68491306D01*
X127900499Y-68491304D01*
X127865896Y-68317341D01*
X127865893Y-68317332D01*
X127798016Y-68153459D01*
X127798009Y-68153446D01*
X127699464Y-68005965D01*
X127699461Y-68005961D01*
X127574038Y-67880538D01*
X127574034Y-67880535D01*
X127426553Y-67781990D01*
X127426540Y-67781983D01*
X127262667Y-67714106D01*
X127262658Y-67714103D01*
X127088694Y-67679500D01*
X127088691Y-67679500D01*
X126911309Y-67679500D01*
X126911306Y-67679500D01*
X126737341Y-67714103D01*
X126737332Y-67714106D01*
X126573459Y-67781983D01*
X126573446Y-67781990D01*
X126425965Y-67880535D01*
X126425961Y-67880538D01*
X126413319Y-67893181D01*
X126351996Y-67926666D01*
X126325638Y-67929500D01*
X121855929Y-67929500D01*
X121730261Y-67954497D01*
X121730255Y-67954499D01*
X121611870Y-68003535D01*
X121505331Y-68074722D01*
X121505324Y-68074728D01*
X119396873Y-70183181D01*
X119335550Y-70216666D01*
X119309192Y-70219500D01*
X119291306Y-70219500D01*
X119117341Y-70254103D01*
X119117332Y-70254106D01*
X118953459Y-70321983D01*
X118953446Y-70321990D01*
X118805965Y-70420535D01*
X118805961Y-70420538D01*
X118680538Y-70545961D01*
X118680535Y-70545965D01*
X118581990Y-70693446D01*
X118581983Y-70693459D01*
X118514106Y-70857332D01*
X118514103Y-70857341D01*
X118479500Y-71031304D01*
X117740499Y-71031304D01*
X117705896Y-70857341D01*
X117705893Y-70857332D01*
X117638016Y-70693459D01*
X117638009Y-70693446D01*
X117539464Y-70545965D01*
X117539461Y-70545961D01*
X117526819Y-70533319D01*
X117493334Y-70471996D01*
X117490500Y-70445638D01*
X117490500Y-68900808D01*
X117510185Y-68833769D01*
X117526819Y-68813127D01*
X119613127Y-66726819D01*
X119674450Y-66693334D01*
X119700808Y-66690500D01*
X126325638Y-66690500D01*
X126392677Y-66710185D01*
X126413319Y-66726819D01*
X126425961Y-66739461D01*
X126425965Y-66739464D01*
X126573446Y-66838009D01*
X126573459Y-66838016D01*
X126696363Y-66888923D01*
X126737334Y-66905894D01*
X126737336Y-66905894D01*
X126737341Y-66905896D01*
X126911304Y-66940499D01*
X126911307Y-66940500D01*
X126911309Y-66940500D01*
X127088693Y-66940500D01*
X127088694Y-66940499D01*
X127146682Y-66928964D01*
X127262658Y-66905896D01*
X127262661Y-66905894D01*
X127262666Y-66905894D01*
X127426547Y-66838013D01*
X127574035Y-66739464D01*
X127699464Y-66614035D01*
X127798013Y-66466547D01*
X127865894Y-66302666D01*
X127867007Y-66297075D01*
X127900499Y-66128695D01*
X127900500Y-66128693D01*
X127900500Y-65951306D01*
X127900499Y-65951304D01*
X127865896Y-65777341D01*
X127865893Y-65777332D01*
X127798016Y-65613459D01*
X127798009Y-65613446D01*
X127699464Y-65465965D01*
X127699461Y-65465961D01*
X127574038Y-65340538D01*
X127574034Y-65340535D01*
X127426553Y-65241990D01*
X127426540Y-65241983D01*
X127262667Y-65174106D01*
X127262658Y-65174103D01*
X127088694Y-65139500D01*
X127088691Y-65139500D01*
X126911309Y-65139500D01*
X126911306Y-65139500D01*
X126737341Y-65174103D01*
X126737332Y-65174106D01*
X126573459Y-65241983D01*
X126573446Y-65241990D01*
X126425965Y-65340535D01*
X126425961Y-65340538D01*
X126413319Y-65353181D01*
X126351996Y-65386666D01*
X126325638Y-65389500D01*
X119315929Y-65389500D01*
X119190261Y-65414497D01*
X119190255Y-65414499D01*
X119071870Y-65463535D01*
X118965331Y-65534722D01*
X118965324Y-65534728D01*
X116334726Y-68165326D01*
X116334723Y-68165331D01*
X116270040Y-68262137D01*
X116270039Y-68262137D01*
X116263535Y-68271871D01*
X116214499Y-68390255D01*
X116214497Y-68390261D01*
X116189500Y-68515928D01*
X116189500Y-70445638D01*
X116169815Y-70512677D01*
X116153181Y-70533319D01*
X116140538Y-70545961D01*
X116140535Y-70545965D01*
X116041990Y-70693446D01*
X116041983Y-70693459D01*
X115974106Y-70857332D01*
X115974103Y-70857341D01*
X115939500Y-71031304D01*
X99891250Y-71031304D01*
X97513275Y-68653328D01*
X97430460Y-68570513D01*
X104209500Y-68570513D01*
X104209500Y-68759486D01*
X104239059Y-68946118D01*
X104297454Y-69125836D01*
X104360814Y-69250185D01*
X104383240Y-69294199D01*
X104494310Y-69447073D01*
X104627927Y-69580690D01*
X104780801Y-69691760D01*
X104860347Y-69732290D01*
X104949163Y-69777545D01*
X104949165Y-69777545D01*
X104949168Y-69777547D01*
X105045497Y-69808846D01*
X105128881Y-69835940D01*
X105315514Y-69865500D01*
X105315519Y-69865500D01*
X105504486Y-69865500D01*
X105691118Y-69835940D01*
X105870832Y-69777547D01*
X106039199Y-69691760D01*
X106192073Y-69580690D01*
X106325690Y-69447073D01*
X106436760Y-69294199D01*
X106522547Y-69125832D01*
X106580940Y-68946118D01*
X106588116Y-68900808D01*
X106610500Y-68759486D01*
X106610500Y-68570513D01*
X111829500Y-68570513D01*
X111829500Y-68759486D01*
X111859059Y-68946118D01*
X111917454Y-69125836D01*
X111980814Y-69250185D01*
X112003240Y-69294199D01*
X112114310Y-69447073D01*
X112247927Y-69580690D01*
X112400801Y-69691760D01*
X112480347Y-69732290D01*
X112569163Y-69777545D01*
X112569165Y-69777545D01*
X112569168Y-69777547D01*
X112665497Y-69808846D01*
X112748881Y-69835940D01*
X112935514Y-69865500D01*
X112935519Y-69865500D01*
X113124486Y-69865500D01*
X113311118Y-69835940D01*
X113490832Y-69777547D01*
X113659199Y-69691760D01*
X113812073Y-69580690D01*
X113945690Y-69447073D01*
X114056760Y-69294199D01*
X114142547Y-69125832D01*
X114200940Y-68946118D01*
X114208116Y-68900808D01*
X114230500Y-68759486D01*
X114230500Y-68570513D01*
X114200940Y-68383881D01*
X114142545Y-68204163D01*
X114056759Y-68035800D01*
X113945690Y-67882927D01*
X113812073Y-67749310D01*
X113659199Y-67638240D01*
X113490836Y-67552454D01*
X113311118Y-67494059D01*
X113124486Y-67464500D01*
X113124481Y-67464500D01*
X112935519Y-67464500D01*
X112935514Y-67464500D01*
X112748881Y-67494059D01*
X112569163Y-67552454D01*
X112400800Y-67638240D01*
X112313579Y-67701610D01*
X112247927Y-67749310D01*
X112247925Y-67749312D01*
X112247924Y-67749312D01*
X112114312Y-67882924D01*
X112114312Y-67882925D01*
X112114310Y-67882927D01*
X112106860Y-67893181D01*
X112003240Y-68035800D01*
X111917454Y-68204163D01*
X111859059Y-68383881D01*
X111829500Y-68570513D01*
X106610500Y-68570513D01*
X106580940Y-68383881D01*
X106522545Y-68204163D01*
X106436759Y-68035800D01*
X106325690Y-67882927D01*
X106192073Y-67749310D01*
X106039199Y-67638240D01*
X105870836Y-67552454D01*
X105691118Y-67494059D01*
X105504486Y-67464500D01*
X105504481Y-67464500D01*
X105315519Y-67464500D01*
X105315514Y-67464500D01*
X105128881Y-67494059D01*
X104949163Y-67552454D01*
X104780800Y-67638240D01*
X104693579Y-67701610D01*
X104627927Y-67749310D01*
X104627925Y-67749312D01*
X104627924Y-67749312D01*
X104494312Y-67882924D01*
X104494312Y-67882925D01*
X104494310Y-67882927D01*
X104486860Y-67893181D01*
X104383240Y-68035800D01*
X104297454Y-68204163D01*
X104239059Y-68383881D01*
X104209500Y-68570513D01*
X97430460Y-68570513D01*
X94394674Y-65534727D01*
X94394670Y-65534724D01*
X94394669Y-65534723D01*
X94370760Y-65518748D01*
X94370760Y-65518747D01*
X94288128Y-65463535D01*
X94288129Y-65463535D01*
X94184263Y-65420513D01*
X104209500Y-65420513D01*
X104209500Y-65609486D01*
X104239059Y-65796118D01*
X104297454Y-65975836D01*
X104375338Y-66128691D01*
X104383240Y-66144199D01*
X104494310Y-66297073D01*
X104627927Y-66430690D01*
X104780801Y-66541760D01*
X104860347Y-66582290D01*
X104949163Y-66627545D01*
X104949165Y-66627545D01*
X104949168Y-66627547D01*
X105045497Y-66658846D01*
X105128881Y-66685940D01*
X105315514Y-66715500D01*
X105315519Y-66715500D01*
X105504486Y-66715500D01*
X105691118Y-66685940D01*
X105870832Y-66627547D01*
X106039199Y-66541760D01*
X106192073Y-66430690D01*
X106325690Y-66297073D01*
X106436760Y-66144199D01*
X106522547Y-65975832D01*
X106580940Y-65796118D01*
X106583915Y-65777332D01*
X106610500Y-65609486D01*
X106610500Y-65420513D01*
X111829500Y-65420513D01*
X111829500Y-65609486D01*
X111859059Y-65796118D01*
X111917454Y-65975836D01*
X111995338Y-66128691D01*
X112003240Y-66144199D01*
X112114310Y-66297073D01*
X112247927Y-66430690D01*
X112400801Y-66541760D01*
X112480347Y-66582290D01*
X112569163Y-66627545D01*
X112569165Y-66627545D01*
X112569168Y-66627547D01*
X112665497Y-66658846D01*
X112748881Y-66685940D01*
X112935514Y-66715500D01*
X112935519Y-66715500D01*
X113124486Y-66715500D01*
X113311118Y-66685940D01*
X113490832Y-66627547D01*
X113659199Y-66541760D01*
X113812073Y-66430690D01*
X113945690Y-66297073D01*
X114056760Y-66144199D01*
X114142547Y-65975832D01*
X114200940Y-65796118D01*
X114203915Y-65777332D01*
X114230500Y-65609486D01*
X114230500Y-65420513D01*
X114200940Y-65233881D01*
X114142545Y-65054163D01*
X114056759Y-64885800D01*
X113945690Y-64732927D01*
X113812073Y-64599310D01*
X113659199Y-64488240D01*
X113490836Y-64402454D01*
X113311118Y-64344059D01*
X113124486Y-64314500D01*
X113124481Y-64314500D01*
X112935519Y-64314500D01*
X112935514Y-64314500D01*
X112748881Y-64344059D01*
X112569163Y-64402454D01*
X112400800Y-64488240D01*
X112313579Y-64551610D01*
X112247927Y-64599310D01*
X112247925Y-64599312D01*
X112247924Y-64599312D01*
X112114312Y-64732924D01*
X112114312Y-64732925D01*
X112114310Y-64732927D01*
X112066610Y-64798579D01*
X112003240Y-64885800D01*
X111917454Y-65054163D01*
X111859059Y-65233881D01*
X111829500Y-65420513D01*
X106610500Y-65420513D01*
X106580940Y-65233881D01*
X106522545Y-65054163D01*
X106436759Y-64885800D01*
X106325690Y-64732927D01*
X106192073Y-64599310D01*
X106039199Y-64488240D01*
X105870836Y-64402454D01*
X105691118Y-64344059D01*
X105504486Y-64314500D01*
X105504481Y-64314500D01*
X105315519Y-64314500D01*
X105315514Y-64314500D01*
X105128881Y-64344059D01*
X104949163Y-64402454D01*
X104780800Y-64488240D01*
X104693579Y-64551610D01*
X104627927Y-64599310D01*
X104627925Y-64599312D01*
X104627924Y-64599312D01*
X104494312Y-64732924D01*
X104494312Y-64732925D01*
X104494310Y-64732927D01*
X104446610Y-64798579D01*
X104383240Y-64885800D01*
X104297454Y-65054163D01*
X104239059Y-65233881D01*
X104209500Y-65420513D01*
X94184263Y-65420513D01*
X94169744Y-65414499D01*
X94169738Y-65414497D01*
X94044071Y-65389500D01*
X94044069Y-65389500D01*
X92114362Y-65389500D01*
X92047323Y-65369815D01*
X92026681Y-65353181D01*
X92014038Y-65340538D01*
X92014034Y-65340535D01*
X91866553Y-65241990D01*
X91866540Y-65241983D01*
X91702667Y-65174106D01*
X91702658Y-65174103D01*
X91528694Y-65139500D01*
X91528691Y-65139500D01*
X91351309Y-65139500D01*
X91351306Y-65139500D01*
X91177341Y-65174103D01*
X91177332Y-65174106D01*
X91013459Y-65241983D01*
X91013446Y-65241990D01*
X90865965Y-65340535D01*
X90865961Y-65340538D01*
X90740538Y-65465961D01*
X90740535Y-65465965D01*
X90641990Y-65613446D01*
X90641983Y-65613459D01*
X90574106Y-65777332D01*
X90574103Y-65777341D01*
X90539500Y-65951304D01*
X58920500Y-65951304D01*
X58920500Y-54579983D01*
X104119500Y-54579983D01*
X104119500Y-56130001D01*
X104119501Y-56130018D01*
X104130000Y-56232796D01*
X104130001Y-56232799D01*
X104164031Y-56335493D01*
X104185186Y-56399334D01*
X104277288Y-56548656D01*
X104401344Y-56672712D01*
X104550666Y-56764814D01*
X104717203Y-56819999D01*
X104819991Y-56830500D01*
X106120008Y-56830499D01*
X106222797Y-56819999D01*
X106389334Y-56764814D01*
X106538656Y-56672712D01*
X106662712Y-56548656D01*
X106754814Y-56399334D01*
X106754814Y-56399331D01*
X106758448Y-56393441D01*
X106810395Y-56346716D01*
X106879358Y-56335493D01*
X106943440Y-56363336D01*
X106951668Y-56370856D01*
X107090535Y-56509723D01*
X107090540Y-56509727D01*
X107262442Y-56634620D01*
X107451782Y-56731095D01*
X107653871Y-56796757D01*
X107720000Y-56807231D01*
X107720000Y-55759145D01*
X107786657Y-55797630D01*
X107907465Y-55830000D01*
X108032535Y-55830000D01*
X108153343Y-55797630D01*
X108220000Y-55759145D01*
X108220000Y-56807230D01*
X108286126Y-56796757D01*
X108286129Y-56796757D01*
X108488217Y-56731095D01*
X108677557Y-56634620D01*
X108849459Y-56509727D01*
X108849464Y-56509723D01*
X108999721Y-56359466D01*
X109119371Y-56194781D01*
X109174701Y-56152115D01*
X109244314Y-56146136D01*
X109306110Y-56178741D01*
X109320008Y-56194781D01*
X109439890Y-56359785D01*
X109439894Y-56359790D01*
X109590213Y-56510109D01*
X109762179Y-56635048D01*
X109762181Y-56635049D01*
X109762184Y-56635051D01*
X109951588Y-56731557D01*
X110153757Y-56797246D01*
X110363713Y-56830500D01*
X110363714Y-56830500D01*
X110576286Y-56830500D01*
X110576287Y-56830500D01*
X110786243Y-56797246D01*
X110988412Y-56731557D01*
X111177816Y-56635051D01*
X111199789Y-56619086D01*
X111349786Y-56510109D01*
X111349788Y-56510106D01*
X111349792Y-56510104D01*
X111500104Y-56359792D01*
X111619683Y-56195204D01*
X111675011Y-56152540D01*
X111744624Y-56146561D01*
X111806420Y-56179166D01*
X111820313Y-56195199D01*
X111922242Y-56335493D01*
X111939896Y-56359792D01*
X112090213Y-56510109D01*
X112262179Y-56635048D01*
X112262181Y-56635049D01*
X112262184Y-56635051D01*
X112451588Y-56731557D01*
X112653757Y-56797246D01*
X112863713Y-56830500D01*
X112863714Y-56830500D01*
X113076286Y-56830500D01*
X113076287Y-56830500D01*
X113286243Y-56797246D01*
X113488412Y-56731557D01*
X113677816Y-56635051D01*
X113699789Y-56619086D01*
X113849786Y-56510109D01*
X113849788Y-56510106D01*
X113849792Y-56510104D01*
X114000104Y-56359792D01*
X114000106Y-56359788D01*
X114000109Y-56359786D01*
X114125048Y-56187820D01*
X114125047Y-56187820D01*
X114125051Y-56187816D01*
X114221557Y-55998412D01*
X114287246Y-55796243D01*
X114320500Y-55586287D01*
X114320500Y-55123713D01*
X114287246Y-54913757D01*
X114221557Y-54711588D01*
X114125051Y-54522184D01*
X114125049Y-54522181D01*
X114125048Y-54522179D01*
X114000109Y-54350213D01*
X113849786Y-54199890D01*
X113677820Y-54074951D01*
X113488414Y-53978444D01*
X113488413Y-53978443D01*
X113488412Y-53978443D01*
X113286243Y-53912754D01*
X113286241Y-53912753D01*
X113286240Y-53912753D01*
X113124957Y-53887208D01*
X113076287Y-53879500D01*
X112863713Y-53879500D01*
X112815042Y-53887208D01*
X112653760Y-53912753D01*
X112451585Y-53978444D01*
X112262179Y-54074951D01*
X112090213Y-54199890D01*
X111939894Y-54350209D01*
X111939890Y-54350214D01*
X111820318Y-54514793D01*
X111764989Y-54557459D01*
X111695375Y-54563438D01*
X111633580Y-54530833D01*
X111619682Y-54514793D01*
X111500109Y-54350214D01*
X111500105Y-54350209D01*
X111349786Y-54199890D01*
X111177820Y-54074951D01*
X110988414Y-53978444D01*
X110988413Y-53978443D01*
X110988412Y-53978443D01*
X110786243Y-53912754D01*
X110786241Y-53912753D01*
X110786240Y-53912753D01*
X110624957Y-53887208D01*
X110576287Y-53879500D01*
X110363713Y-53879500D01*
X110315042Y-53887208D01*
X110153760Y-53912753D01*
X109951585Y-53978444D01*
X109762179Y-54074951D01*
X109590213Y-54199890D01*
X109439894Y-54350209D01*
X109439890Y-54350214D01*
X109320008Y-54515218D01*
X109264678Y-54557884D01*
X109195065Y-54563863D01*
X109133270Y-54531257D01*
X109119372Y-54515218D01*
X108999727Y-54350540D01*
X108999723Y-54350535D01*
X108849464Y-54200276D01*
X108849459Y-54200272D01*
X108677557Y-54075379D01*
X108488215Y-53978903D01*
X108286124Y-53913241D01*
X108220000Y-53902768D01*
X108220000Y-54950854D01*
X108153343Y-54912370D01*
X108032535Y-54880000D01*
X107907465Y-54880000D01*
X107786657Y-54912370D01*
X107720000Y-54950854D01*
X107720000Y-53902768D01*
X107719999Y-53902768D01*
X107653875Y-53913241D01*
X107451784Y-53978903D01*
X107262442Y-54075379D01*
X107090541Y-54200271D01*
X106951668Y-54339144D01*
X106890345Y-54372628D01*
X106820653Y-54367644D01*
X106764720Y-54325772D01*
X106758448Y-54316558D01*
X106662712Y-54161344D01*
X106538657Y-54037289D01*
X106538656Y-54037288D01*
X106389334Y-53945186D01*
X106222797Y-53890001D01*
X106222795Y-53890000D01*
X106120010Y-53879500D01*
X104819998Y-53879500D01*
X104819981Y-53879501D01*
X104717203Y-53890000D01*
X104717200Y-53890001D01*
X104550668Y-53945185D01*
X104550663Y-53945187D01*
X104401342Y-54037289D01*
X104277289Y-54161342D01*
X104185187Y-54310663D01*
X104185185Y-54310668D01*
X104180180Y-54325772D01*
X104130001Y-54477203D01*
X104130001Y-54477204D01*
X104130000Y-54477204D01*
X104119500Y-54579983D01*
X58920500Y-54579983D01*
X58920500Y-46344500D01*
X58940185Y-46277461D01*
X58992989Y-46231706D01*
X59044500Y-46220500D01*
X167015500Y-46220500D01*
X167082539Y-46240185D01*
G37*
%TD.AperFunction*%
%TD*%
M02*
