%TF.GenerationSoftware,KiCad,Pcbnew,9.0.1*%
%TF.CreationDate,2025-11-17T19:53:54+09:00*%
%TF.ProjectId,RasPiMulti9jiku6,52617350-694d-4756-9c74-69396a696b75,rev?*%
%TF.SameCoordinates,Original*%
%TF.FileFunction,Drillmap*%
%TF.FilePolarity,Positive*%
%FSLAX45Y45*%
G04 Gerber Fmt 4.5, Leading zero omitted, Abs format (unit mm)*
G04 Created by KiCad (PCBNEW 9.0.1) date 2025-11-17 19:53:54*
%MOMM*%
%LPD*%
G01*
G04 APERTURE LIST*
%ADD10C,0.050000*%
%ADD11C,0.200000*%
%ADD12C,0.100000*%
%ADD13C,0.102000*%
G04 APERTURE END LIST*
D10*
X5842000Y-4572000D02*
X16764000Y-4572000D01*
X16764000Y-18542000D01*
X5842000Y-18542000D01*
X5842000Y-4572000D01*
D11*
D12*
X7605000Y-7859000D02*
X7635000Y-7889000D01*
X7635000Y-7859000D02*
X7605000Y-7889000D01*
X7605000Y-9387000D02*
X7635000Y-9417000D01*
X7635000Y-9387000D02*
X7605000Y-9417000D01*
X7859000Y-9383000D02*
X7889000Y-9413000D01*
X7889000Y-9383000D02*
X7859000Y-9413000D01*
X8367000Y-11923000D02*
X8397000Y-11953000D01*
X8397000Y-11923000D02*
X8367000Y-11953000D01*
X8621000Y-7351000D02*
X8651000Y-7381000D01*
X8651000Y-7351000D02*
X8621000Y-7381000D01*
X9129000Y-6589000D02*
X9159000Y-6619000D01*
X9159000Y-6589000D02*
X9129000Y-6619000D01*
X9129000Y-7351000D02*
X9159000Y-7381000D01*
X9159000Y-7351000D02*
X9129000Y-7381000D01*
X9129000Y-10907000D02*
X9159000Y-10937000D01*
X9159000Y-10907000D02*
X9129000Y-10937000D01*
X10145000Y-7351000D02*
X10175000Y-7381000D01*
X10175000Y-7351000D02*
X10145000Y-7381000D01*
X10907000Y-10145000D02*
X10937000Y-10175000D01*
X10937000Y-10145000D02*
X10907000Y-10175000D01*
X11415000Y-11923000D02*
X11445000Y-11953000D01*
X11445000Y-11923000D02*
X11415000Y-11953000D01*
X11415000Y-12177000D02*
X11445000Y-12207000D01*
X11445000Y-12177000D02*
X11415000Y-12207000D01*
X11669000Y-7097000D02*
X11699000Y-7127000D01*
X11699000Y-7097000D02*
X11669000Y-7127000D01*
X11923000Y-7097000D02*
X11953000Y-7127000D01*
X11953000Y-7097000D02*
X11923000Y-7127000D01*
X11923000Y-8621000D02*
X11953000Y-8651000D01*
X11953000Y-8621000D02*
X11923000Y-8651000D01*
X11923000Y-10399000D02*
X11953000Y-10429000D01*
X11953000Y-10399000D02*
X11923000Y-10429000D01*
X12685000Y-6589000D02*
X12715000Y-6619000D01*
X12715000Y-6589000D02*
X12685000Y-6619000D01*
X12685000Y-6843000D02*
X12715000Y-6873000D01*
X12715000Y-6843000D02*
X12685000Y-6873000D01*
X12685000Y-8621000D02*
X12715000Y-8651000D01*
X12715000Y-8621000D02*
X12685000Y-8651000D01*
X12685000Y-15733000D02*
X12715000Y-15763000D01*
X12715000Y-15733000D02*
X12685000Y-15763000D01*
X12685000Y-15987000D02*
X12715000Y-16017000D01*
X12715000Y-15987000D02*
X12685000Y-16017000D01*
X12939000Y-11923000D02*
X12969000Y-11953000D01*
X12969000Y-11923000D02*
X12939000Y-11953000D01*
X12939000Y-12177000D02*
X12969000Y-12207000D01*
X12969000Y-12177000D02*
X12939000Y-12207000D01*
X13320000Y-9764000D02*
X13350000Y-9794000D01*
X13350000Y-9764000D02*
X13320000Y-9794000D01*
X13701000Y-6335000D02*
X13731000Y-6365000D01*
X13731000Y-6335000D02*
X13701000Y-6365000D01*
X13701000Y-9383000D02*
X13731000Y-9413000D01*
X13731000Y-9383000D02*
X13701000Y-9413000D01*
X14209000Y-7351000D02*
X14239000Y-7381000D01*
X14239000Y-7351000D02*
X14209000Y-7381000D01*
X14717000Y-7605000D02*
X14747000Y-7635000D01*
X14747000Y-7605000D02*
X14717000Y-7635000D01*
X14717000Y-8875000D02*
X14747000Y-8905000D01*
X14747000Y-8875000D02*
X14717000Y-8905000D01*
X8036000Y-7112000D02*
G75*
G02*
X7966000Y-7112000I-35000J0D01*
G01*
X7966000Y-7112000D02*
G75*
G02*
X8036000Y-7112000I35000J0D01*
G01*
X8036000Y-7620000D02*
G75*
G02*
X7966000Y-7620000I-35000J0D01*
G01*
X7966000Y-7620000D02*
G75*
G02*
X8036000Y-7620000I35000J0D01*
G01*
X8036000Y-8802000D02*
G75*
G02*
X7966000Y-8802000I-35000J0D01*
G01*
X7966000Y-8802000D02*
G75*
G02*
X8036000Y-8802000I35000J0D01*
G01*
X8036000Y-9144000D02*
G75*
G02*
X7966000Y-9144000I-35000J0D01*
G01*
X7966000Y-9144000D02*
G75*
G02*
X8036000Y-9144000I35000J0D01*
G01*
X8798000Y-7112000D02*
G75*
G02*
X8728000Y-7112000I-35000J0D01*
G01*
X8728000Y-7112000D02*
G75*
G02*
X8798000Y-7112000I35000J0D01*
G01*
X8798000Y-7620000D02*
G75*
G02*
X8728000Y-7620000I-35000J0D01*
G01*
X8728000Y-7620000D02*
G75*
G02*
X8798000Y-7620000I35000J0D01*
G01*
X8798000Y-8802000D02*
G75*
G02*
X8728000Y-8802000I-35000J0D01*
G01*
X8728000Y-8802000D02*
G75*
G02*
X8798000Y-8802000I35000J0D01*
G01*
X8798000Y-9144000D02*
G75*
G02*
X8728000Y-9144000I-35000J0D01*
G01*
X8728000Y-9144000D02*
G75*
G02*
X8798000Y-9144000I35000J0D01*
G01*
X9433000Y-11176000D02*
G75*
G02*
X9363000Y-11176000I-35000J0D01*
G01*
X9363000Y-11176000D02*
G75*
G02*
X9433000Y-11176000I35000J0D01*
G01*
X9433000Y-11684000D02*
G75*
G02*
X9363000Y-11684000I-35000J0D01*
G01*
X9363000Y-11684000D02*
G75*
G02*
X9433000Y-11684000I35000J0D01*
G01*
X10195000Y-11176000D02*
G75*
G02*
X10125000Y-11176000I-35000J0D01*
G01*
X10125000Y-11176000D02*
G75*
G02*
X10195000Y-11176000I35000J0D01*
G01*
X10195000Y-11684000D02*
G75*
G02*
X10125000Y-11684000I-35000J0D01*
G01*
X10125000Y-11684000D02*
G75*
G02*
X10195000Y-11684000I35000J0D01*
G01*
X10576000Y-6551500D02*
G75*
G02*
X10506000Y-6551500I-35000J0D01*
G01*
X10506000Y-6551500D02*
G75*
G02*
X10576000Y-6551500I35000J0D01*
G01*
X10576000Y-6866500D02*
G75*
G02*
X10506000Y-6866500I-35000J0D01*
G01*
X10506000Y-6866500D02*
G75*
G02*
X10576000Y-6866500I35000J0D01*
G01*
X11338000Y-6551500D02*
G75*
G02*
X11268000Y-6551500I-35000J0D01*
G01*
X11268000Y-6551500D02*
G75*
G02*
X11338000Y-6551500I35000J0D01*
G01*
X11338000Y-6866500D02*
G75*
G02*
X11268000Y-6866500I-35000J0D01*
G01*
X11268000Y-6866500D02*
G75*
G02*
X11338000Y-6866500I35000J0D01*
G01*
X13243000Y-15897000D02*
G75*
G02*
X13173000Y-15897000I-35000J0D01*
G01*
X13173000Y-15897000D02*
G75*
G02*
X13243000Y-15897000I35000J0D01*
G01*
X13243000Y-16212000D02*
G75*
G02*
X13173000Y-16212000I-35000J0D01*
G01*
X13173000Y-16212000D02*
G75*
G02*
X13243000Y-16212000I35000J0D01*
G01*
X13370000Y-8067000D02*
G75*
G02*
X13300000Y-8067000I-35000J0D01*
G01*
X13300000Y-8067000D02*
G75*
G02*
X13370000Y-8067000I35000J0D01*
G01*
X13370000Y-8382000D02*
G75*
G02*
X13300000Y-8382000I-35000J0D01*
G01*
X13300000Y-8382000D02*
G75*
G02*
X13370000Y-8382000I35000J0D01*
G01*
X13370000Y-8697000D02*
G75*
G02*
X13300000Y-8697000I-35000J0D01*
G01*
X13300000Y-8697000D02*
G75*
G02*
X13370000Y-8697000I35000J0D01*
G01*
X13370000Y-9012000D02*
G75*
G02*
X13300000Y-9012000I-35000J0D01*
G01*
X13300000Y-9012000D02*
G75*
G02*
X13370000Y-9012000I35000J0D01*
G01*
X14005000Y-15897000D02*
G75*
G02*
X13935000Y-15897000I-35000J0D01*
G01*
X13935000Y-15897000D02*
G75*
G02*
X14005000Y-15897000I35000J0D01*
G01*
X14005000Y-16212000D02*
G75*
G02*
X13935000Y-16212000I-35000J0D01*
G01*
X13935000Y-16212000D02*
G75*
G02*
X14005000Y-16212000I35000J0D01*
G01*
X14132000Y-8067000D02*
G75*
G02*
X14062000Y-8067000I-35000J0D01*
G01*
X14062000Y-8067000D02*
G75*
G02*
X14132000Y-8067000I35000J0D01*
G01*
X14132000Y-8382000D02*
G75*
G02*
X14062000Y-8382000I-35000J0D01*
G01*
X14062000Y-8382000D02*
G75*
G02*
X14132000Y-8382000I35000J0D01*
G01*
X14132000Y-8697000D02*
G75*
G02*
X14062000Y-8697000I-35000J0D01*
G01*
X14062000Y-8697000D02*
G75*
G02*
X14132000Y-8697000I35000J0D01*
G01*
X14132000Y-9012000D02*
G75*
G02*
X14062000Y-9012000I-35000J0D01*
G01*
X14062000Y-9012000D02*
G75*
G02*
X14132000Y-9012000I35000J0D01*
G01*
X10668000Y-10740000D02*
X10668000Y-10820000D01*
X10628000Y-10780000D02*
X10708000Y-10780000D01*
X10668000Y-10994000D02*
X10668000Y-11074000D01*
X10628000Y-11034000D02*
X10708000Y-11034000D01*
X10668000Y-11248000D02*
X10668000Y-11328000D01*
X10628000Y-11288000D02*
X10708000Y-11288000D01*
X10668000Y-11502000D02*
X10668000Y-11582000D01*
X10628000Y-11542000D02*
X10708000Y-11542000D01*
X11430000Y-10740000D02*
X11430000Y-10820000D01*
X11390000Y-10780000D02*
X11470000Y-10780000D01*
X11430000Y-10994000D02*
X11430000Y-11074000D01*
X11390000Y-11034000D02*
X11470000Y-11034000D01*
X11430000Y-11248000D02*
X11430000Y-11328000D01*
X11390000Y-11288000D02*
X11470000Y-11288000D01*
X11430000Y-11502000D02*
X11430000Y-11582000D01*
X11390000Y-11542000D02*
X11470000Y-11542000D01*
X7093088Y-7278588D02*
X7093088Y-7211412D01*
X7025912Y-7211412D01*
X7025912Y-7278588D01*
X7093088Y-7278588D01*
X7093088Y-7528588D02*
X7093088Y-7461412D01*
X7025912Y-7461412D01*
X7025912Y-7528588D01*
X7093088Y-7528588D01*
X7093088Y-7778588D02*
X7093088Y-7711412D01*
X7025912Y-7711412D01*
X7025912Y-7778588D01*
X7093088Y-7778588D01*
X7093088Y-8028588D02*
X7093088Y-7961412D01*
X7025912Y-7961412D01*
X7025912Y-8028588D01*
X7093088Y-8028588D01*
X7145588Y-8935588D02*
X7145588Y-8868412D01*
X7078412Y-8868412D01*
X7078412Y-8935588D01*
X7145588Y-8935588D01*
X7145588Y-9185588D02*
X7145588Y-9118412D01*
X7078412Y-9118412D01*
X7078412Y-9185588D01*
X7145588Y-9185588D01*
X7145588Y-9435588D02*
X7145588Y-9368412D01*
X7078412Y-9368412D01*
X7078412Y-9435588D01*
X7145588Y-9435588D01*
X7145588Y-9685588D02*
X7145588Y-9618412D01*
X7078412Y-9618412D01*
X7078412Y-9685588D01*
X7145588Y-9685588D01*
X10580588Y-5569088D02*
X10580588Y-5501912D01*
X10513412Y-5501912D01*
X10513412Y-5569088D01*
X10580588Y-5569088D01*
X10830588Y-5569088D02*
X10830588Y-5501912D01*
X10763412Y-5501912D01*
X10763412Y-5569088D01*
X10830588Y-5569088D01*
X11080588Y-5569088D02*
X11080588Y-5501912D01*
X11013412Y-5501912D01*
X11013412Y-5569088D01*
X11080588Y-5569088D01*
X11330588Y-5569088D02*
X11330588Y-5501912D01*
X11263412Y-5501912D01*
X11263412Y-5569088D01*
X11330588Y-5569088D01*
X15273588Y-8935588D02*
X15273588Y-8868412D01*
X15206412Y-8868412D01*
X15206412Y-8935588D01*
X15273588Y-8935588D01*
X15273588Y-9185588D02*
X15273588Y-9118412D01*
X15206412Y-9118412D01*
X15206412Y-9185588D01*
X15273588Y-9185588D01*
X15273588Y-9435588D02*
X15273588Y-9368412D01*
X15206412Y-9368412D01*
X15206412Y-9435588D01*
X15273588Y-9435588D01*
X15273588Y-9685588D02*
X15273588Y-9618412D01*
X15206412Y-9618412D01*
X15206412Y-9685588D01*
X15273588Y-9685588D01*
X15277588Y-7257588D02*
X15277588Y-7190412D01*
X15210412Y-7190412D01*
X15210412Y-7257588D01*
X15277588Y-7257588D01*
X15277588Y-7507588D02*
X15277588Y-7440412D01*
X15210412Y-7440412D01*
X15210412Y-7507588D01*
X15277588Y-7507588D01*
X15277588Y-7757588D02*
X15277588Y-7690412D01*
X15210412Y-7690412D01*
X15210412Y-7757588D01*
X15277588Y-7757588D01*
X15277588Y-8007588D02*
X15277588Y-7940412D01*
X15210412Y-7940412D01*
X15210412Y-8007588D01*
X15277588Y-8007588D01*
X9652000Y-7670000D02*
X9702000Y-7620000D01*
X9652000Y-7570000D01*
X9602000Y-7620000D01*
X9652000Y-7670000D01*
X9652000Y-9448000D02*
X9702000Y-9398000D01*
X9652000Y-9348000D01*
X9602000Y-9398000D01*
X9652000Y-9448000D01*
X9906000Y-7670000D02*
X9956000Y-7620000D01*
X9906000Y-7570000D01*
X9856000Y-7620000D01*
X9906000Y-7670000D01*
X9906000Y-9448000D02*
X9956000Y-9398000D01*
X9906000Y-9348000D01*
X9856000Y-9398000D01*
X9906000Y-9448000D01*
X10160000Y-7670000D02*
X10210000Y-7620000D01*
X10160000Y-7570000D01*
X10110000Y-7620000D01*
X10160000Y-7670000D01*
X10160000Y-9448000D02*
X10210000Y-9398000D01*
X10160000Y-9348000D01*
X10110000Y-9398000D01*
X10160000Y-9448000D01*
X10414000Y-7670000D02*
X10464000Y-7620000D01*
X10414000Y-7570000D01*
X10364000Y-7620000D01*
X10414000Y-7670000D01*
X10414000Y-9448000D02*
X10464000Y-9398000D01*
X10414000Y-9348000D01*
X10364000Y-9398000D01*
X10414000Y-9448000D01*
X10668000Y-7670000D02*
X10718000Y-7620000D01*
X10668000Y-7570000D01*
X10618000Y-7620000D01*
X10668000Y-7670000D01*
X10668000Y-9448000D02*
X10718000Y-9398000D01*
X10668000Y-9348000D01*
X10618000Y-9398000D01*
X10668000Y-9448000D01*
X10922000Y-7670000D02*
X10972000Y-7620000D01*
X10922000Y-7570000D01*
X10872000Y-7620000D01*
X10922000Y-7670000D01*
X10922000Y-9448000D02*
X10972000Y-9398000D01*
X10922000Y-9348000D01*
X10872000Y-9398000D01*
X10922000Y-9448000D01*
X11176000Y-7670000D02*
X11226000Y-7620000D01*
X11176000Y-7570000D01*
X11126000Y-7620000D01*
X11176000Y-7670000D01*
X11176000Y-9448000D02*
X11226000Y-9398000D01*
X11176000Y-9348000D01*
X11126000Y-9398000D01*
X11176000Y-9448000D01*
X11430000Y-7670000D02*
X11480000Y-7620000D01*
X11430000Y-7570000D01*
X11380000Y-7620000D01*
X11430000Y-7670000D01*
X11430000Y-9448000D02*
X11480000Y-9398000D01*
X11430000Y-9348000D01*
X11380000Y-9398000D01*
X11430000Y-9448000D01*
X11684000Y-7670000D02*
X11734000Y-7620000D01*
X11684000Y-7570000D01*
X11634000Y-7620000D01*
X11684000Y-7670000D01*
X11684000Y-9448000D02*
X11734000Y-9398000D01*
X11684000Y-9348000D01*
X11634000Y-9398000D01*
X11684000Y-9448000D01*
X11938000Y-7670000D02*
X11988000Y-7620000D01*
X11938000Y-7570000D01*
X11888000Y-7620000D01*
X11938000Y-7670000D01*
X11938000Y-9448000D02*
X11988000Y-9398000D01*
X11938000Y-9348000D01*
X11888000Y-9398000D01*
X11938000Y-9448000D01*
X12192000Y-7670000D02*
X12242000Y-7620000D01*
X12192000Y-7570000D01*
X12142000Y-7620000D01*
X12192000Y-7670000D01*
X12192000Y-9448000D02*
X12242000Y-9398000D01*
X12192000Y-9348000D01*
X12142000Y-9398000D01*
X12192000Y-9448000D01*
X12446000Y-7670000D02*
X12496000Y-7620000D01*
X12446000Y-7570000D01*
X12396000Y-7620000D01*
X12446000Y-7670000D01*
X12446000Y-9448000D02*
X12496000Y-9398000D01*
X12446000Y-9348000D01*
X12396000Y-9398000D01*
X12446000Y-9448000D01*
D13*
X10202500Y-12507000D02*
X10304500Y-12609000D01*
X10304500Y-12507000D02*
X10202500Y-12609000D01*
X10304500Y-12558000D02*
G75*
G02*
X10202500Y-12558000I-51000J0D01*
G01*
X10202500Y-12558000D02*
G75*
G02*
X10304500Y-12558000I51000J0D01*
G01*
X10202500Y-12761000D02*
X10304500Y-12863000D01*
X10304500Y-12761000D02*
X10202500Y-12863000D01*
X10304500Y-12812000D02*
G75*
G02*
X10202500Y-12812000I-51000J0D01*
G01*
X10202500Y-12812000D02*
G75*
G02*
X10304500Y-12812000I51000J0D01*
G01*
X10202500Y-13015000D02*
X10304500Y-13117000D01*
X10304500Y-13015000D02*
X10202500Y-13117000D01*
X10304500Y-13066000D02*
G75*
G02*
X10202500Y-13066000I-51000J0D01*
G01*
X10202500Y-13066000D02*
G75*
G02*
X10304500Y-13066000I51000J0D01*
G01*
X10202500Y-13269000D02*
X10304500Y-13371000D01*
X10304500Y-13269000D02*
X10202500Y-13371000D01*
X10304500Y-13320000D02*
G75*
G02*
X10202500Y-13320000I-51000J0D01*
G01*
X10202500Y-13320000D02*
G75*
G02*
X10304500Y-13320000I51000J0D01*
G01*
X10202500Y-13523000D02*
X10304500Y-13625000D01*
X10304500Y-13523000D02*
X10202500Y-13625000D01*
X10304500Y-13574000D02*
G75*
G02*
X10202500Y-13574000I-51000J0D01*
G01*
X10202500Y-13574000D02*
G75*
G02*
X10304500Y-13574000I51000J0D01*
G01*
X10202500Y-13777000D02*
X10304500Y-13879000D01*
X10304500Y-13777000D02*
X10202500Y-13879000D01*
X10304500Y-13828000D02*
G75*
G02*
X10202500Y-13828000I-51000J0D01*
G01*
X10202500Y-13828000D02*
G75*
G02*
X10304500Y-13828000I51000J0D01*
G01*
X10202500Y-14031000D02*
X10304500Y-14133000D01*
X10304500Y-14031000D02*
X10202500Y-14133000D01*
X10304500Y-14082000D02*
G75*
G02*
X10202500Y-14082000I-51000J0D01*
G01*
X10202500Y-14082000D02*
G75*
G02*
X10304500Y-14082000I51000J0D01*
G01*
X10202500Y-14285000D02*
X10304500Y-14387000D01*
X10304500Y-14285000D02*
X10202500Y-14387000D01*
X10304500Y-14336000D02*
G75*
G02*
X10202500Y-14336000I-51000J0D01*
G01*
X10202500Y-14336000D02*
G75*
G02*
X10304500Y-14336000I51000J0D01*
G01*
X10202500Y-14539000D02*
X10304500Y-14641000D01*
X10304500Y-14539000D02*
X10202500Y-14641000D01*
X10304500Y-14590000D02*
G75*
G02*
X10202500Y-14590000I-51000J0D01*
G01*
X10202500Y-14590000D02*
G75*
G02*
X10304500Y-14590000I51000J0D01*
G01*
X10202500Y-14793000D02*
X10304500Y-14895000D01*
X10304500Y-14793000D02*
X10202500Y-14895000D01*
X10304500Y-14844000D02*
G75*
G02*
X10202500Y-14844000I-51000J0D01*
G01*
X10202500Y-14844000D02*
G75*
G02*
X10304500Y-14844000I51000J0D01*
G01*
X10202500Y-15047000D02*
X10304500Y-15149000D01*
X10304500Y-15047000D02*
X10202500Y-15149000D01*
X10304500Y-15098000D02*
G75*
G02*
X10202500Y-15098000I-51000J0D01*
G01*
X10202500Y-15098000D02*
G75*
G02*
X10304500Y-15098000I51000J0D01*
G01*
X10202500Y-15301000D02*
X10304500Y-15403000D01*
X10304500Y-15301000D02*
X10202500Y-15403000D01*
X10304500Y-15352000D02*
G75*
G02*
X10202500Y-15352000I-51000J0D01*
G01*
X10202500Y-15352000D02*
G75*
G02*
X10304500Y-15352000I51000J0D01*
G01*
X10202500Y-15555000D02*
X10304500Y-15657000D01*
X10304500Y-15555000D02*
X10202500Y-15657000D01*
X10304500Y-15606000D02*
G75*
G02*
X10202500Y-15606000I-51000J0D01*
G01*
X10202500Y-15606000D02*
G75*
G02*
X10304500Y-15606000I51000J0D01*
G01*
X10202500Y-15809000D02*
X10304500Y-15911000D01*
X10304500Y-15809000D02*
X10202500Y-15911000D01*
X10304500Y-15860000D02*
G75*
G02*
X10202500Y-15860000I-51000J0D01*
G01*
X10202500Y-15860000D02*
G75*
G02*
X10304500Y-15860000I51000J0D01*
G01*
X10202500Y-16063000D02*
X10304500Y-16165000D01*
X10304500Y-16063000D02*
X10202500Y-16165000D01*
X10304500Y-16114000D02*
G75*
G02*
X10202500Y-16114000I-51000J0D01*
G01*
X10202500Y-16114000D02*
G75*
G02*
X10304500Y-16114000I51000J0D01*
G01*
X10202500Y-16317000D02*
X10304500Y-16419000D01*
X10304500Y-16317000D02*
X10202500Y-16419000D01*
X10304500Y-16368000D02*
G75*
G02*
X10202500Y-16368000I-51000J0D01*
G01*
X10202500Y-16368000D02*
G75*
G02*
X10304500Y-16368000I51000J0D01*
G01*
X10202500Y-16571000D02*
X10304500Y-16673000D01*
X10304500Y-16571000D02*
X10202500Y-16673000D01*
X10304500Y-16622000D02*
G75*
G02*
X10202500Y-16622000I-51000J0D01*
G01*
X10202500Y-16622000D02*
G75*
G02*
X10304500Y-16622000I51000J0D01*
G01*
X10202500Y-16825000D02*
X10304500Y-16927000D01*
X10304500Y-16825000D02*
X10202500Y-16927000D01*
X10304500Y-16876000D02*
G75*
G02*
X10202500Y-16876000I-51000J0D01*
G01*
X10202500Y-16876000D02*
G75*
G02*
X10304500Y-16876000I51000J0D01*
G01*
X10202500Y-17079000D02*
X10304500Y-17181000D01*
X10304500Y-17079000D02*
X10202500Y-17181000D01*
X10304500Y-17130000D02*
G75*
G02*
X10202500Y-17130000I-51000J0D01*
G01*
X10202500Y-17130000D02*
G75*
G02*
X10304500Y-17130000I51000J0D01*
G01*
X10202500Y-17333000D02*
X10304500Y-17435000D01*
X10304500Y-17333000D02*
X10202500Y-17435000D01*
X10304500Y-17384000D02*
G75*
G02*
X10202500Y-17384000I-51000J0D01*
G01*
X10202500Y-17384000D02*
G75*
G02*
X10304500Y-17384000I51000J0D01*
G01*
X11980500Y-12507000D02*
X12082500Y-12609000D01*
X12082500Y-12507000D02*
X11980500Y-12609000D01*
X12082500Y-12558000D02*
G75*
G02*
X11980500Y-12558000I-51000J0D01*
G01*
X11980500Y-12558000D02*
G75*
G02*
X12082500Y-12558000I51000J0D01*
G01*
X11980500Y-12761000D02*
X12082500Y-12863000D01*
X12082500Y-12761000D02*
X11980500Y-12863000D01*
X12082500Y-12812000D02*
G75*
G02*
X11980500Y-12812000I-51000J0D01*
G01*
X11980500Y-12812000D02*
G75*
G02*
X12082500Y-12812000I51000J0D01*
G01*
X11980500Y-13015000D02*
X12082500Y-13117000D01*
X12082500Y-13015000D02*
X11980500Y-13117000D01*
X12082500Y-13066000D02*
G75*
G02*
X11980500Y-13066000I-51000J0D01*
G01*
X11980500Y-13066000D02*
G75*
G02*
X12082500Y-13066000I51000J0D01*
G01*
X11980500Y-13269000D02*
X12082500Y-13371000D01*
X12082500Y-13269000D02*
X11980500Y-13371000D01*
X12082500Y-13320000D02*
G75*
G02*
X11980500Y-13320000I-51000J0D01*
G01*
X11980500Y-13320000D02*
G75*
G02*
X12082500Y-13320000I51000J0D01*
G01*
X11980500Y-13523000D02*
X12082500Y-13625000D01*
X12082500Y-13523000D02*
X11980500Y-13625000D01*
X12082500Y-13574000D02*
G75*
G02*
X11980500Y-13574000I-51000J0D01*
G01*
X11980500Y-13574000D02*
G75*
G02*
X12082500Y-13574000I51000J0D01*
G01*
X11980500Y-13777000D02*
X12082500Y-13879000D01*
X12082500Y-13777000D02*
X11980500Y-13879000D01*
X12082500Y-13828000D02*
G75*
G02*
X11980500Y-13828000I-51000J0D01*
G01*
X11980500Y-13828000D02*
G75*
G02*
X12082500Y-13828000I51000J0D01*
G01*
X11980500Y-14031000D02*
X12082500Y-14133000D01*
X12082500Y-14031000D02*
X11980500Y-14133000D01*
X12082500Y-14082000D02*
G75*
G02*
X11980500Y-14082000I-51000J0D01*
G01*
X11980500Y-14082000D02*
G75*
G02*
X12082500Y-14082000I51000J0D01*
G01*
X11980500Y-14285000D02*
X12082500Y-14387000D01*
X12082500Y-14285000D02*
X11980500Y-14387000D01*
X12082500Y-14336000D02*
G75*
G02*
X11980500Y-14336000I-51000J0D01*
G01*
X11980500Y-14336000D02*
G75*
G02*
X12082500Y-14336000I51000J0D01*
G01*
X11980500Y-14539000D02*
X12082500Y-14641000D01*
X12082500Y-14539000D02*
X11980500Y-14641000D01*
X12082500Y-14590000D02*
G75*
G02*
X11980500Y-14590000I-51000J0D01*
G01*
X11980500Y-14590000D02*
G75*
G02*
X12082500Y-14590000I51000J0D01*
G01*
X11980500Y-14793000D02*
X12082500Y-14895000D01*
X12082500Y-14793000D02*
X11980500Y-14895000D01*
X12082500Y-14844000D02*
G75*
G02*
X11980500Y-14844000I-51000J0D01*
G01*
X11980500Y-14844000D02*
G75*
G02*
X12082500Y-14844000I51000J0D01*
G01*
X11980500Y-15047000D02*
X12082500Y-15149000D01*
X12082500Y-15047000D02*
X11980500Y-15149000D01*
X12082500Y-15098000D02*
G75*
G02*
X11980500Y-15098000I-51000J0D01*
G01*
X11980500Y-15098000D02*
G75*
G02*
X12082500Y-15098000I51000J0D01*
G01*
X11980500Y-15301000D02*
X12082500Y-15403000D01*
X12082500Y-15301000D02*
X11980500Y-15403000D01*
X12082500Y-15352000D02*
G75*
G02*
X11980500Y-15352000I-51000J0D01*
G01*
X11980500Y-15352000D02*
G75*
G02*
X12082500Y-15352000I51000J0D01*
G01*
X11980500Y-15555000D02*
X12082500Y-15657000D01*
X12082500Y-15555000D02*
X11980500Y-15657000D01*
X12082500Y-15606000D02*
G75*
G02*
X11980500Y-15606000I-51000J0D01*
G01*
X11980500Y-15606000D02*
G75*
G02*
X12082500Y-15606000I51000J0D01*
G01*
X11980500Y-15809000D02*
X12082500Y-15911000D01*
X12082500Y-15809000D02*
X11980500Y-15911000D01*
X12082500Y-15860000D02*
G75*
G02*
X11980500Y-15860000I-51000J0D01*
G01*
X11980500Y-15860000D02*
G75*
G02*
X12082500Y-15860000I51000J0D01*
G01*
X11980500Y-16063000D02*
X12082500Y-16165000D01*
X12082500Y-16063000D02*
X11980500Y-16165000D01*
X12082500Y-16114000D02*
G75*
G02*
X11980500Y-16114000I-51000J0D01*
G01*
X11980500Y-16114000D02*
G75*
G02*
X12082500Y-16114000I51000J0D01*
G01*
X11980500Y-16317000D02*
X12082500Y-16419000D01*
X12082500Y-16317000D02*
X11980500Y-16419000D01*
X12082500Y-16368000D02*
G75*
G02*
X11980500Y-16368000I-51000J0D01*
G01*
X11980500Y-16368000D02*
G75*
G02*
X12082500Y-16368000I51000J0D01*
G01*
X11980500Y-16571000D02*
X12082500Y-16673000D01*
X12082500Y-16571000D02*
X11980500Y-16673000D01*
X12082500Y-16622000D02*
G75*
G02*
X11980500Y-16622000I-51000J0D01*
G01*
X11980500Y-16622000D02*
G75*
G02*
X12082500Y-16622000I51000J0D01*
G01*
X11980500Y-16825000D02*
X12082500Y-16927000D01*
X12082500Y-16825000D02*
X11980500Y-16927000D01*
X12082500Y-16876000D02*
G75*
G02*
X11980500Y-16876000I-51000J0D01*
G01*
X11980500Y-16876000D02*
G75*
G02*
X12082500Y-16876000I51000J0D01*
G01*
X11980500Y-17079000D02*
X12082500Y-17181000D01*
X12082500Y-17079000D02*
X11980500Y-17181000D01*
X12082500Y-17130000D02*
G75*
G02*
X11980500Y-17130000I-51000J0D01*
G01*
X11980500Y-17130000D02*
G75*
G02*
X12082500Y-17130000I51000J0D01*
G01*
X11980500Y-17333000D02*
X12082500Y-17435000D01*
X12082500Y-17333000D02*
X11980500Y-17435000D01*
X12082500Y-17384000D02*
G75*
G02*
X11980500Y-17384000I-51000J0D01*
G01*
X11980500Y-17384000D02*
G75*
G02*
X12082500Y-17384000I51000J0D01*
G01*
D11*
X6100277Y-18855984D02*
X6100277Y-18655984D01*
X6100277Y-18655984D02*
X6147896Y-18655984D01*
X6147896Y-18655984D02*
X6176467Y-18665508D01*
X6176467Y-18665508D02*
X6195515Y-18684555D01*
X6195515Y-18684555D02*
X6205039Y-18703603D01*
X6205039Y-18703603D02*
X6214562Y-18741698D01*
X6214562Y-18741698D02*
X6214562Y-18770270D01*
X6214562Y-18770270D02*
X6205039Y-18808365D01*
X6205039Y-18808365D02*
X6195515Y-18827412D01*
X6195515Y-18827412D02*
X6176467Y-18846460D01*
X6176467Y-18846460D02*
X6147896Y-18855984D01*
X6147896Y-18855984D02*
X6100277Y-18855984D01*
X6300277Y-18855984D02*
X6300277Y-18722650D01*
X6300277Y-18760746D02*
X6309801Y-18741698D01*
X6309801Y-18741698D02*
X6319324Y-18732174D01*
X6319324Y-18732174D02*
X6338372Y-18722650D01*
X6338372Y-18722650D02*
X6357420Y-18722650D01*
X6424086Y-18855984D02*
X6424086Y-18722650D01*
X6424086Y-18655984D02*
X6414562Y-18665508D01*
X6414562Y-18665508D02*
X6424086Y-18675031D01*
X6424086Y-18675031D02*
X6433610Y-18665508D01*
X6433610Y-18665508D02*
X6424086Y-18655984D01*
X6424086Y-18655984D02*
X6424086Y-18675031D01*
X6547896Y-18855984D02*
X6528848Y-18846460D01*
X6528848Y-18846460D02*
X6519324Y-18827412D01*
X6519324Y-18827412D02*
X6519324Y-18655984D01*
X6652658Y-18855984D02*
X6633610Y-18846460D01*
X6633610Y-18846460D02*
X6624086Y-18827412D01*
X6624086Y-18827412D02*
X6624086Y-18655984D01*
X6881229Y-18855984D02*
X6881229Y-18655984D01*
X6881229Y-18655984D02*
X6947896Y-18798841D01*
X6947896Y-18798841D02*
X7014562Y-18655984D01*
X7014562Y-18655984D02*
X7014562Y-18855984D01*
X7195515Y-18855984D02*
X7195515Y-18751222D01*
X7195515Y-18751222D02*
X7185991Y-18732174D01*
X7185991Y-18732174D02*
X7166943Y-18722650D01*
X7166943Y-18722650D02*
X7128848Y-18722650D01*
X7128848Y-18722650D02*
X7109801Y-18732174D01*
X7195515Y-18846460D02*
X7176467Y-18855984D01*
X7176467Y-18855984D02*
X7128848Y-18855984D01*
X7128848Y-18855984D02*
X7109801Y-18846460D01*
X7109801Y-18846460D02*
X7100277Y-18827412D01*
X7100277Y-18827412D02*
X7100277Y-18808365D01*
X7100277Y-18808365D02*
X7109801Y-18789317D01*
X7109801Y-18789317D02*
X7128848Y-18779793D01*
X7128848Y-18779793D02*
X7176467Y-18779793D01*
X7176467Y-18779793D02*
X7195515Y-18770270D01*
X7290753Y-18722650D02*
X7290753Y-18922650D01*
X7290753Y-18732174D02*
X7309801Y-18722650D01*
X7309801Y-18722650D02*
X7347896Y-18722650D01*
X7347896Y-18722650D02*
X7366943Y-18732174D01*
X7366943Y-18732174D02*
X7376467Y-18741698D01*
X7376467Y-18741698D02*
X7385991Y-18760746D01*
X7385991Y-18760746D02*
X7385991Y-18817889D01*
X7385991Y-18817889D02*
X7376467Y-18836936D01*
X7376467Y-18836936D02*
X7366943Y-18846460D01*
X7366943Y-18846460D02*
X7347896Y-18855984D01*
X7347896Y-18855984D02*
X7309801Y-18855984D01*
X7309801Y-18855984D02*
X7290753Y-18846460D01*
X7471705Y-18836936D02*
X7481229Y-18846460D01*
X7481229Y-18846460D02*
X7471705Y-18855984D01*
X7471705Y-18855984D02*
X7462182Y-18846460D01*
X7462182Y-18846460D02*
X7471705Y-18836936D01*
X7471705Y-18836936D02*
X7471705Y-18855984D01*
X7471705Y-18732174D02*
X7481229Y-18741698D01*
X7481229Y-18741698D02*
X7471705Y-18751222D01*
X7471705Y-18751222D02*
X7462182Y-18741698D01*
X7462182Y-18741698D02*
X7471705Y-18732174D01*
X7471705Y-18732174D02*
X7471705Y-18751222D01*
D12*
X5809500Y-19169500D02*
X5839500Y-19199500D01*
X5839500Y-19169500D02*
X5809500Y-19199500D01*
D11*
X6138372Y-19075984D02*
X6157420Y-19075984D01*
X6157420Y-19075984D02*
X6176467Y-19085508D01*
X6176467Y-19085508D02*
X6185991Y-19095031D01*
X6185991Y-19095031D02*
X6195515Y-19114079D01*
X6195515Y-19114079D02*
X6205039Y-19152174D01*
X6205039Y-19152174D02*
X6205039Y-19199793D01*
X6205039Y-19199793D02*
X6195515Y-19237889D01*
X6195515Y-19237889D02*
X6185991Y-19256936D01*
X6185991Y-19256936D02*
X6176467Y-19266460D01*
X6176467Y-19266460D02*
X6157420Y-19275984D01*
X6157420Y-19275984D02*
X6138372Y-19275984D01*
X6138372Y-19275984D02*
X6119324Y-19266460D01*
X6119324Y-19266460D02*
X6109801Y-19256936D01*
X6109801Y-19256936D02*
X6100277Y-19237889D01*
X6100277Y-19237889D02*
X6090753Y-19199793D01*
X6090753Y-19199793D02*
X6090753Y-19152174D01*
X6090753Y-19152174D02*
X6100277Y-19114079D01*
X6100277Y-19114079D02*
X6109801Y-19095031D01*
X6109801Y-19095031D02*
X6119324Y-19085508D01*
X6119324Y-19085508D02*
X6138372Y-19075984D01*
X6290753Y-19256936D02*
X6300277Y-19266460D01*
X6300277Y-19266460D02*
X6290753Y-19275984D01*
X6290753Y-19275984D02*
X6281229Y-19266460D01*
X6281229Y-19266460D02*
X6290753Y-19256936D01*
X6290753Y-19256936D02*
X6290753Y-19275984D01*
X6366943Y-19075984D02*
X6490753Y-19075984D01*
X6490753Y-19075984D02*
X6424086Y-19152174D01*
X6424086Y-19152174D02*
X6452658Y-19152174D01*
X6452658Y-19152174D02*
X6471705Y-19161698D01*
X6471705Y-19161698D02*
X6481229Y-19171222D01*
X6481229Y-19171222D02*
X6490753Y-19190270D01*
X6490753Y-19190270D02*
X6490753Y-19237889D01*
X6490753Y-19237889D02*
X6481229Y-19256936D01*
X6481229Y-19256936D02*
X6471705Y-19266460D01*
X6471705Y-19266460D02*
X6452658Y-19275984D01*
X6452658Y-19275984D02*
X6395515Y-19275984D01*
X6395515Y-19275984D02*
X6376467Y-19266460D01*
X6376467Y-19266460D02*
X6366943Y-19256936D01*
X6614562Y-19075984D02*
X6633610Y-19075984D01*
X6633610Y-19075984D02*
X6652658Y-19085508D01*
X6652658Y-19085508D02*
X6662182Y-19095031D01*
X6662182Y-19095031D02*
X6671705Y-19114079D01*
X6671705Y-19114079D02*
X6681229Y-19152174D01*
X6681229Y-19152174D02*
X6681229Y-19199793D01*
X6681229Y-19199793D02*
X6671705Y-19237889D01*
X6671705Y-19237889D02*
X6662182Y-19256936D01*
X6662182Y-19256936D02*
X6652658Y-19266460D01*
X6652658Y-19266460D02*
X6633610Y-19275984D01*
X6633610Y-19275984D02*
X6614562Y-19275984D01*
X6614562Y-19275984D02*
X6595515Y-19266460D01*
X6595515Y-19266460D02*
X6585991Y-19256936D01*
X6585991Y-19256936D02*
X6576467Y-19237889D01*
X6576467Y-19237889D02*
X6566943Y-19199793D01*
X6566943Y-19199793D02*
X6566943Y-19152174D01*
X6566943Y-19152174D02*
X6576467Y-19114079D01*
X6576467Y-19114079D02*
X6585991Y-19095031D01*
X6585991Y-19095031D02*
X6595515Y-19085508D01*
X6595515Y-19085508D02*
X6614562Y-19075984D01*
X6805039Y-19075984D02*
X6824086Y-19075984D01*
X6824086Y-19075984D02*
X6843134Y-19085508D01*
X6843134Y-19085508D02*
X6852658Y-19095031D01*
X6852658Y-19095031D02*
X6862182Y-19114079D01*
X6862182Y-19114079D02*
X6871705Y-19152174D01*
X6871705Y-19152174D02*
X6871705Y-19199793D01*
X6871705Y-19199793D02*
X6862182Y-19237889D01*
X6862182Y-19237889D02*
X6852658Y-19256936D01*
X6852658Y-19256936D02*
X6843134Y-19266460D01*
X6843134Y-19266460D02*
X6824086Y-19275984D01*
X6824086Y-19275984D02*
X6805039Y-19275984D01*
X6805039Y-19275984D02*
X6785991Y-19266460D01*
X6785991Y-19266460D02*
X6776467Y-19256936D01*
X6776467Y-19256936D02*
X6766943Y-19237889D01*
X6766943Y-19237889D02*
X6757420Y-19199793D01*
X6757420Y-19199793D02*
X6757420Y-19152174D01*
X6757420Y-19152174D02*
X6766943Y-19114079D01*
X6766943Y-19114079D02*
X6776467Y-19095031D01*
X6776467Y-19095031D02*
X6785991Y-19085508D01*
X6785991Y-19085508D02*
X6805039Y-19075984D01*
X6957420Y-19275984D02*
X6957420Y-19142650D01*
X6957420Y-19161698D02*
X6966943Y-19152174D01*
X6966943Y-19152174D02*
X6985991Y-19142650D01*
X6985991Y-19142650D02*
X7014563Y-19142650D01*
X7014563Y-19142650D02*
X7033610Y-19152174D01*
X7033610Y-19152174D02*
X7043134Y-19171222D01*
X7043134Y-19171222D02*
X7043134Y-19275984D01*
X7043134Y-19171222D02*
X7052658Y-19152174D01*
X7052658Y-19152174D02*
X7071705Y-19142650D01*
X7071705Y-19142650D02*
X7100277Y-19142650D01*
X7100277Y-19142650D02*
X7119324Y-19152174D01*
X7119324Y-19152174D02*
X7128848Y-19171222D01*
X7128848Y-19171222D02*
X7128848Y-19275984D01*
X7224086Y-19275984D02*
X7224086Y-19142650D01*
X7224086Y-19161698D02*
X7233610Y-19152174D01*
X7233610Y-19152174D02*
X7252658Y-19142650D01*
X7252658Y-19142650D02*
X7281229Y-19142650D01*
X7281229Y-19142650D02*
X7300277Y-19152174D01*
X7300277Y-19152174D02*
X7309801Y-19171222D01*
X7309801Y-19171222D02*
X7309801Y-19275984D01*
X7309801Y-19171222D02*
X7319324Y-19152174D01*
X7319324Y-19152174D02*
X7338372Y-19142650D01*
X7338372Y-19142650D02*
X7366943Y-19142650D01*
X7366943Y-19142650D02*
X7385991Y-19152174D01*
X7385991Y-19152174D02*
X7395515Y-19171222D01*
X7395515Y-19171222D02*
X7395515Y-19275984D01*
X7785991Y-19066460D02*
X7614563Y-19323603D01*
X8043134Y-19075984D02*
X8062182Y-19075984D01*
X8062182Y-19075984D02*
X8081229Y-19085508D01*
X8081229Y-19085508D02*
X8090753Y-19095031D01*
X8090753Y-19095031D02*
X8100277Y-19114079D01*
X8100277Y-19114079D02*
X8109801Y-19152174D01*
X8109801Y-19152174D02*
X8109801Y-19199793D01*
X8109801Y-19199793D02*
X8100277Y-19237889D01*
X8100277Y-19237889D02*
X8090753Y-19256936D01*
X8090753Y-19256936D02*
X8081229Y-19266460D01*
X8081229Y-19266460D02*
X8062182Y-19275984D01*
X8062182Y-19275984D02*
X8043134Y-19275984D01*
X8043134Y-19275984D02*
X8024086Y-19266460D01*
X8024086Y-19266460D02*
X8014563Y-19256936D01*
X8014563Y-19256936D02*
X8005039Y-19237889D01*
X8005039Y-19237889D02*
X7995515Y-19199793D01*
X7995515Y-19199793D02*
X7995515Y-19152174D01*
X7995515Y-19152174D02*
X8005039Y-19114079D01*
X8005039Y-19114079D02*
X8014563Y-19095031D01*
X8014563Y-19095031D02*
X8024086Y-19085508D01*
X8024086Y-19085508D02*
X8043134Y-19075984D01*
X8195515Y-19256936D02*
X8205039Y-19266460D01*
X8205039Y-19266460D02*
X8195515Y-19275984D01*
X8195515Y-19275984D02*
X8185991Y-19266460D01*
X8185991Y-19266460D02*
X8195515Y-19256936D01*
X8195515Y-19256936D02*
X8195515Y-19275984D01*
X8328848Y-19075984D02*
X8347896Y-19075984D01*
X8347896Y-19075984D02*
X8366944Y-19085508D01*
X8366944Y-19085508D02*
X8376467Y-19095031D01*
X8376467Y-19095031D02*
X8385991Y-19114079D01*
X8385991Y-19114079D02*
X8395515Y-19152174D01*
X8395515Y-19152174D02*
X8395515Y-19199793D01*
X8395515Y-19199793D02*
X8385991Y-19237889D01*
X8385991Y-19237889D02*
X8376467Y-19256936D01*
X8376467Y-19256936D02*
X8366944Y-19266460D01*
X8366944Y-19266460D02*
X8347896Y-19275984D01*
X8347896Y-19275984D02*
X8328848Y-19275984D01*
X8328848Y-19275984D02*
X8309801Y-19266460D01*
X8309801Y-19266460D02*
X8300277Y-19256936D01*
X8300277Y-19256936D02*
X8290753Y-19237889D01*
X8290753Y-19237889D02*
X8281229Y-19199793D01*
X8281229Y-19199793D02*
X8281229Y-19152174D01*
X8281229Y-19152174D02*
X8290753Y-19114079D01*
X8290753Y-19114079D02*
X8300277Y-19095031D01*
X8300277Y-19095031D02*
X8309801Y-19085508D01*
X8309801Y-19085508D02*
X8328848Y-19075984D01*
X8585991Y-19275984D02*
X8471706Y-19275984D01*
X8528848Y-19275984D02*
X8528848Y-19075984D01*
X8528848Y-19075984D02*
X8509801Y-19104555D01*
X8509801Y-19104555D02*
X8490753Y-19123603D01*
X8490753Y-19123603D02*
X8471706Y-19133127D01*
X8776468Y-19275984D02*
X8662182Y-19275984D01*
X8719325Y-19275984D02*
X8719325Y-19075984D01*
X8719325Y-19075984D02*
X8700277Y-19104555D01*
X8700277Y-19104555D02*
X8681229Y-19123603D01*
X8681229Y-19123603D02*
X8662182Y-19133127D01*
X8890753Y-19161698D02*
X8871706Y-19152174D01*
X8871706Y-19152174D02*
X8862182Y-19142650D01*
X8862182Y-19142650D02*
X8852658Y-19123603D01*
X8852658Y-19123603D02*
X8852658Y-19114079D01*
X8852658Y-19114079D02*
X8862182Y-19095031D01*
X8862182Y-19095031D02*
X8871706Y-19085508D01*
X8871706Y-19085508D02*
X8890753Y-19075984D01*
X8890753Y-19075984D02*
X8928849Y-19075984D01*
X8928849Y-19075984D02*
X8947896Y-19085508D01*
X8947896Y-19085508D02*
X8957420Y-19095031D01*
X8957420Y-19095031D02*
X8966944Y-19114079D01*
X8966944Y-19114079D02*
X8966944Y-19123603D01*
X8966944Y-19123603D02*
X8957420Y-19142650D01*
X8957420Y-19142650D02*
X8947896Y-19152174D01*
X8947896Y-19152174D02*
X8928849Y-19161698D01*
X8928849Y-19161698D02*
X8890753Y-19161698D01*
X8890753Y-19161698D02*
X8871706Y-19171222D01*
X8871706Y-19171222D02*
X8862182Y-19180746D01*
X8862182Y-19180746D02*
X8852658Y-19199793D01*
X8852658Y-19199793D02*
X8852658Y-19237889D01*
X8852658Y-19237889D02*
X8862182Y-19256936D01*
X8862182Y-19256936D02*
X8871706Y-19266460D01*
X8871706Y-19266460D02*
X8890753Y-19275984D01*
X8890753Y-19275984D02*
X8928849Y-19275984D01*
X8928849Y-19275984D02*
X8947896Y-19266460D01*
X8947896Y-19266460D02*
X8957420Y-19256936D01*
X8957420Y-19256936D02*
X8966944Y-19237889D01*
X8966944Y-19237889D02*
X8966944Y-19199793D01*
X8966944Y-19199793D02*
X8957420Y-19180746D01*
X8957420Y-19180746D02*
X8947896Y-19171222D01*
X8947896Y-19171222D02*
X8928849Y-19161698D01*
X9043134Y-19075984D02*
X9043134Y-19114079D01*
X9119325Y-19075984D02*
X9119325Y-19114079D01*
X9414563Y-19352174D02*
X9405039Y-19342650D01*
X9405039Y-19342650D02*
X9385991Y-19314079D01*
X9385991Y-19314079D02*
X9376468Y-19295031D01*
X9376468Y-19295031D02*
X9366944Y-19266460D01*
X9366944Y-19266460D02*
X9357420Y-19218841D01*
X9357420Y-19218841D02*
X9357420Y-19180746D01*
X9357420Y-19180746D02*
X9366944Y-19133127D01*
X9366944Y-19133127D02*
X9376468Y-19104555D01*
X9376468Y-19104555D02*
X9385991Y-19085508D01*
X9385991Y-19085508D02*
X9405039Y-19056936D01*
X9405039Y-19056936D02*
X9414563Y-19047412D01*
X9481230Y-19095031D02*
X9490753Y-19085508D01*
X9490753Y-19085508D02*
X9509801Y-19075984D01*
X9509801Y-19075984D02*
X9557420Y-19075984D01*
X9557420Y-19075984D02*
X9576468Y-19085508D01*
X9576468Y-19085508D02*
X9585991Y-19095031D01*
X9585991Y-19095031D02*
X9595515Y-19114079D01*
X9595515Y-19114079D02*
X9595515Y-19133127D01*
X9595515Y-19133127D02*
X9585991Y-19161698D01*
X9585991Y-19161698D02*
X9471706Y-19275984D01*
X9471706Y-19275984D02*
X9595515Y-19275984D01*
X9690753Y-19275984D02*
X9728849Y-19275984D01*
X9728849Y-19275984D02*
X9747896Y-19266460D01*
X9747896Y-19266460D02*
X9757420Y-19256936D01*
X9757420Y-19256936D02*
X9776468Y-19228365D01*
X9776468Y-19228365D02*
X9785991Y-19190270D01*
X9785991Y-19190270D02*
X9785991Y-19114079D01*
X9785991Y-19114079D02*
X9776468Y-19095031D01*
X9776468Y-19095031D02*
X9766944Y-19085508D01*
X9766944Y-19085508D02*
X9747896Y-19075984D01*
X9747896Y-19075984D02*
X9709801Y-19075984D01*
X9709801Y-19075984D02*
X9690753Y-19085508D01*
X9690753Y-19085508D02*
X9681230Y-19095031D01*
X9681230Y-19095031D02*
X9671706Y-19114079D01*
X9671706Y-19114079D02*
X9671706Y-19161698D01*
X9671706Y-19161698D02*
X9681230Y-19180746D01*
X9681230Y-19180746D02*
X9690753Y-19190270D01*
X9690753Y-19190270D02*
X9709801Y-19199793D01*
X9709801Y-19199793D02*
X9747896Y-19199793D01*
X9747896Y-19199793D02*
X9766944Y-19190270D01*
X9766944Y-19190270D02*
X9776468Y-19180746D01*
X9776468Y-19180746D02*
X9785991Y-19161698D01*
X10024087Y-19275984D02*
X10024087Y-19075984D01*
X10109801Y-19275984D02*
X10109801Y-19171222D01*
X10109801Y-19171222D02*
X10100277Y-19152174D01*
X10100277Y-19152174D02*
X10081230Y-19142650D01*
X10081230Y-19142650D02*
X10052658Y-19142650D01*
X10052658Y-19142650D02*
X10033611Y-19152174D01*
X10033611Y-19152174D02*
X10024087Y-19161698D01*
X10233611Y-19275984D02*
X10214563Y-19266460D01*
X10214563Y-19266460D02*
X10205039Y-19256936D01*
X10205039Y-19256936D02*
X10195515Y-19237889D01*
X10195515Y-19237889D02*
X10195515Y-19180746D01*
X10195515Y-19180746D02*
X10205039Y-19161698D01*
X10205039Y-19161698D02*
X10214563Y-19152174D01*
X10214563Y-19152174D02*
X10233611Y-19142650D01*
X10233611Y-19142650D02*
X10262182Y-19142650D01*
X10262182Y-19142650D02*
X10281230Y-19152174D01*
X10281230Y-19152174D02*
X10290753Y-19161698D01*
X10290753Y-19161698D02*
X10300277Y-19180746D01*
X10300277Y-19180746D02*
X10300277Y-19237889D01*
X10300277Y-19237889D02*
X10290753Y-19256936D01*
X10290753Y-19256936D02*
X10281230Y-19266460D01*
X10281230Y-19266460D02*
X10262182Y-19275984D01*
X10262182Y-19275984D02*
X10233611Y-19275984D01*
X10414563Y-19275984D02*
X10395515Y-19266460D01*
X10395515Y-19266460D02*
X10385992Y-19247412D01*
X10385992Y-19247412D02*
X10385992Y-19075984D01*
X10566944Y-19266460D02*
X10547896Y-19275984D01*
X10547896Y-19275984D02*
X10509801Y-19275984D01*
X10509801Y-19275984D02*
X10490753Y-19266460D01*
X10490753Y-19266460D02*
X10481230Y-19247412D01*
X10481230Y-19247412D02*
X10481230Y-19171222D01*
X10481230Y-19171222D02*
X10490753Y-19152174D01*
X10490753Y-19152174D02*
X10509801Y-19142650D01*
X10509801Y-19142650D02*
X10547896Y-19142650D01*
X10547896Y-19142650D02*
X10566944Y-19152174D01*
X10566944Y-19152174D02*
X10576468Y-19171222D01*
X10576468Y-19171222D02*
X10576468Y-19190270D01*
X10576468Y-19190270D02*
X10481230Y-19209317D01*
X10652658Y-19266460D02*
X10671706Y-19275984D01*
X10671706Y-19275984D02*
X10709801Y-19275984D01*
X10709801Y-19275984D02*
X10728849Y-19266460D01*
X10728849Y-19266460D02*
X10738373Y-19247412D01*
X10738373Y-19247412D02*
X10738373Y-19237889D01*
X10738373Y-19237889D02*
X10728849Y-19218841D01*
X10728849Y-19218841D02*
X10709801Y-19209317D01*
X10709801Y-19209317D02*
X10681230Y-19209317D01*
X10681230Y-19209317D02*
X10662182Y-19199793D01*
X10662182Y-19199793D02*
X10652658Y-19180746D01*
X10652658Y-19180746D02*
X10652658Y-19171222D01*
X10652658Y-19171222D02*
X10662182Y-19152174D01*
X10662182Y-19152174D02*
X10681230Y-19142650D01*
X10681230Y-19142650D02*
X10709801Y-19142650D01*
X10709801Y-19142650D02*
X10728849Y-19152174D01*
X10805039Y-19352174D02*
X10814563Y-19342650D01*
X10814563Y-19342650D02*
X10833611Y-19314079D01*
X10833611Y-19314079D02*
X10843134Y-19295031D01*
X10843134Y-19295031D02*
X10852658Y-19266460D01*
X10852658Y-19266460D02*
X10862182Y-19218841D01*
X10862182Y-19218841D02*
X10862182Y-19180746D01*
X10862182Y-19180746D02*
X10852658Y-19133127D01*
X10852658Y-19133127D02*
X10843134Y-19104555D01*
X10843134Y-19104555D02*
X10833611Y-19085508D01*
X10833611Y-19085508D02*
X10814563Y-19056936D01*
X10814563Y-19056936D02*
X10805039Y-19047412D01*
D12*
X5839500Y-19448500D02*
G75*
G02*
X5769500Y-19448500I-35000J0D01*
G01*
X5769500Y-19448500D02*
G75*
G02*
X5839500Y-19448500I35000J0D01*
G01*
D11*
X6138372Y-19339984D02*
X6157420Y-19339984D01*
X6157420Y-19339984D02*
X6176467Y-19349508D01*
X6176467Y-19349508D02*
X6185991Y-19359031D01*
X6185991Y-19359031D02*
X6195515Y-19378079D01*
X6195515Y-19378079D02*
X6205039Y-19416174D01*
X6205039Y-19416174D02*
X6205039Y-19463793D01*
X6205039Y-19463793D02*
X6195515Y-19501889D01*
X6195515Y-19501889D02*
X6185991Y-19520936D01*
X6185991Y-19520936D02*
X6176467Y-19530460D01*
X6176467Y-19530460D02*
X6157420Y-19539984D01*
X6157420Y-19539984D02*
X6138372Y-19539984D01*
X6138372Y-19539984D02*
X6119324Y-19530460D01*
X6119324Y-19530460D02*
X6109801Y-19520936D01*
X6109801Y-19520936D02*
X6100277Y-19501889D01*
X6100277Y-19501889D02*
X6090753Y-19463793D01*
X6090753Y-19463793D02*
X6090753Y-19416174D01*
X6090753Y-19416174D02*
X6100277Y-19378079D01*
X6100277Y-19378079D02*
X6109801Y-19359031D01*
X6109801Y-19359031D02*
X6119324Y-19349508D01*
X6119324Y-19349508D02*
X6138372Y-19339984D01*
X6290753Y-19520936D02*
X6300277Y-19530460D01*
X6300277Y-19530460D02*
X6290753Y-19539984D01*
X6290753Y-19539984D02*
X6281229Y-19530460D01*
X6281229Y-19530460D02*
X6290753Y-19520936D01*
X6290753Y-19520936D02*
X6290753Y-19539984D01*
X6366943Y-19339984D02*
X6500277Y-19339984D01*
X6500277Y-19339984D02*
X6414562Y-19539984D01*
X6614562Y-19339984D02*
X6633610Y-19339984D01*
X6633610Y-19339984D02*
X6652658Y-19349508D01*
X6652658Y-19349508D02*
X6662182Y-19359031D01*
X6662182Y-19359031D02*
X6671705Y-19378079D01*
X6671705Y-19378079D02*
X6681229Y-19416174D01*
X6681229Y-19416174D02*
X6681229Y-19463793D01*
X6681229Y-19463793D02*
X6671705Y-19501889D01*
X6671705Y-19501889D02*
X6662182Y-19520936D01*
X6662182Y-19520936D02*
X6652658Y-19530460D01*
X6652658Y-19530460D02*
X6633610Y-19539984D01*
X6633610Y-19539984D02*
X6614562Y-19539984D01*
X6614562Y-19539984D02*
X6595515Y-19530460D01*
X6595515Y-19530460D02*
X6585991Y-19520936D01*
X6585991Y-19520936D02*
X6576467Y-19501889D01*
X6576467Y-19501889D02*
X6566943Y-19463793D01*
X6566943Y-19463793D02*
X6566943Y-19416174D01*
X6566943Y-19416174D02*
X6576467Y-19378079D01*
X6576467Y-19378079D02*
X6585991Y-19359031D01*
X6585991Y-19359031D02*
X6595515Y-19349508D01*
X6595515Y-19349508D02*
X6614562Y-19339984D01*
X6805039Y-19339984D02*
X6824086Y-19339984D01*
X6824086Y-19339984D02*
X6843134Y-19349508D01*
X6843134Y-19349508D02*
X6852658Y-19359031D01*
X6852658Y-19359031D02*
X6862182Y-19378079D01*
X6862182Y-19378079D02*
X6871705Y-19416174D01*
X6871705Y-19416174D02*
X6871705Y-19463793D01*
X6871705Y-19463793D02*
X6862182Y-19501889D01*
X6862182Y-19501889D02*
X6852658Y-19520936D01*
X6852658Y-19520936D02*
X6843134Y-19530460D01*
X6843134Y-19530460D02*
X6824086Y-19539984D01*
X6824086Y-19539984D02*
X6805039Y-19539984D01*
X6805039Y-19539984D02*
X6785991Y-19530460D01*
X6785991Y-19530460D02*
X6776467Y-19520936D01*
X6776467Y-19520936D02*
X6766943Y-19501889D01*
X6766943Y-19501889D02*
X6757420Y-19463793D01*
X6757420Y-19463793D02*
X6757420Y-19416174D01*
X6757420Y-19416174D02*
X6766943Y-19378079D01*
X6766943Y-19378079D02*
X6776467Y-19359031D01*
X6776467Y-19359031D02*
X6785991Y-19349508D01*
X6785991Y-19349508D02*
X6805039Y-19339984D01*
X6957420Y-19539984D02*
X6957420Y-19406650D01*
X6957420Y-19425698D02*
X6966943Y-19416174D01*
X6966943Y-19416174D02*
X6985991Y-19406650D01*
X6985991Y-19406650D02*
X7014563Y-19406650D01*
X7014563Y-19406650D02*
X7033610Y-19416174D01*
X7033610Y-19416174D02*
X7043134Y-19435222D01*
X7043134Y-19435222D02*
X7043134Y-19539984D01*
X7043134Y-19435222D02*
X7052658Y-19416174D01*
X7052658Y-19416174D02*
X7071705Y-19406650D01*
X7071705Y-19406650D02*
X7100277Y-19406650D01*
X7100277Y-19406650D02*
X7119324Y-19416174D01*
X7119324Y-19416174D02*
X7128848Y-19435222D01*
X7128848Y-19435222D02*
X7128848Y-19539984D01*
X7224086Y-19539984D02*
X7224086Y-19406650D01*
X7224086Y-19425698D02*
X7233610Y-19416174D01*
X7233610Y-19416174D02*
X7252658Y-19406650D01*
X7252658Y-19406650D02*
X7281229Y-19406650D01*
X7281229Y-19406650D02*
X7300277Y-19416174D01*
X7300277Y-19416174D02*
X7309801Y-19435222D01*
X7309801Y-19435222D02*
X7309801Y-19539984D01*
X7309801Y-19435222D02*
X7319324Y-19416174D01*
X7319324Y-19416174D02*
X7338372Y-19406650D01*
X7338372Y-19406650D02*
X7366943Y-19406650D01*
X7366943Y-19406650D02*
X7385991Y-19416174D01*
X7385991Y-19416174D02*
X7395515Y-19435222D01*
X7395515Y-19435222D02*
X7395515Y-19539984D01*
X7785991Y-19330460D02*
X7614563Y-19587603D01*
X8043134Y-19339984D02*
X8062182Y-19339984D01*
X8062182Y-19339984D02*
X8081229Y-19349508D01*
X8081229Y-19349508D02*
X8090753Y-19359031D01*
X8090753Y-19359031D02*
X8100277Y-19378079D01*
X8100277Y-19378079D02*
X8109801Y-19416174D01*
X8109801Y-19416174D02*
X8109801Y-19463793D01*
X8109801Y-19463793D02*
X8100277Y-19501889D01*
X8100277Y-19501889D02*
X8090753Y-19520936D01*
X8090753Y-19520936D02*
X8081229Y-19530460D01*
X8081229Y-19530460D02*
X8062182Y-19539984D01*
X8062182Y-19539984D02*
X8043134Y-19539984D01*
X8043134Y-19539984D02*
X8024086Y-19530460D01*
X8024086Y-19530460D02*
X8014563Y-19520936D01*
X8014563Y-19520936D02*
X8005039Y-19501889D01*
X8005039Y-19501889D02*
X7995515Y-19463793D01*
X7995515Y-19463793D02*
X7995515Y-19416174D01*
X7995515Y-19416174D02*
X8005039Y-19378079D01*
X8005039Y-19378079D02*
X8014563Y-19359031D01*
X8014563Y-19359031D02*
X8024086Y-19349508D01*
X8024086Y-19349508D02*
X8043134Y-19339984D01*
X8195515Y-19520936D02*
X8205039Y-19530460D01*
X8205039Y-19530460D02*
X8195515Y-19539984D01*
X8195515Y-19539984D02*
X8185991Y-19530460D01*
X8185991Y-19530460D02*
X8195515Y-19520936D01*
X8195515Y-19520936D02*
X8195515Y-19539984D01*
X8328848Y-19339984D02*
X8347896Y-19339984D01*
X8347896Y-19339984D02*
X8366944Y-19349508D01*
X8366944Y-19349508D02*
X8376467Y-19359031D01*
X8376467Y-19359031D02*
X8385991Y-19378079D01*
X8385991Y-19378079D02*
X8395515Y-19416174D01*
X8395515Y-19416174D02*
X8395515Y-19463793D01*
X8395515Y-19463793D02*
X8385991Y-19501889D01*
X8385991Y-19501889D02*
X8376467Y-19520936D01*
X8376467Y-19520936D02*
X8366944Y-19530460D01*
X8366944Y-19530460D02*
X8347896Y-19539984D01*
X8347896Y-19539984D02*
X8328848Y-19539984D01*
X8328848Y-19539984D02*
X8309801Y-19530460D01*
X8309801Y-19530460D02*
X8300277Y-19520936D01*
X8300277Y-19520936D02*
X8290753Y-19501889D01*
X8290753Y-19501889D02*
X8281229Y-19463793D01*
X8281229Y-19463793D02*
X8281229Y-19416174D01*
X8281229Y-19416174D02*
X8290753Y-19378079D01*
X8290753Y-19378079D02*
X8300277Y-19359031D01*
X8300277Y-19359031D02*
X8309801Y-19349508D01*
X8309801Y-19349508D02*
X8328848Y-19339984D01*
X8471706Y-19359031D02*
X8481229Y-19349508D01*
X8481229Y-19349508D02*
X8500277Y-19339984D01*
X8500277Y-19339984D02*
X8547896Y-19339984D01*
X8547896Y-19339984D02*
X8566944Y-19349508D01*
X8566944Y-19349508D02*
X8576468Y-19359031D01*
X8576468Y-19359031D02*
X8585991Y-19378079D01*
X8585991Y-19378079D02*
X8585991Y-19397127D01*
X8585991Y-19397127D02*
X8576468Y-19425698D01*
X8576468Y-19425698D02*
X8462182Y-19539984D01*
X8462182Y-19539984D02*
X8585991Y-19539984D01*
X8652658Y-19339984D02*
X8785991Y-19339984D01*
X8785991Y-19339984D02*
X8700277Y-19539984D01*
X8947896Y-19339984D02*
X8909801Y-19339984D01*
X8909801Y-19339984D02*
X8890753Y-19349508D01*
X8890753Y-19349508D02*
X8881229Y-19359031D01*
X8881229Y-19359031D02*
X8862182Y-19387603D01*
X8862182Y-19387603D02*
X8852658Y-19425698D01*
X8852658Y-19425698D02*
X8852658Y-19501889D01*
X8852658Y-19501889D02*
X8862182Y-19520936D01*
X8862182Y-19520936D02*
X8871706Y-19530460D01*
X8871706Y-19530460D02*
X8890753Y-19539984D01*
X8890753Y-19539984D02*
X8928849Y-19539984D01*
X8928849Y-19539984D02*
X8947896Y-19530460D01*
X8947896Y-19530460D02*
X8957420Y-19520936D01*
X8957420Y-19520936D02*
X8966944Y-19501889D01*
X8966944Y-19501889D02*
X8966944Y-19454270D01*
X8966944Y-19454270D02*
X8957420Y-19435222D01*
X8957420Y-19435222D02*
X8947896Y-19425698D01*
X8947896Y-19425698D02*
X8928849Y-19416174D01*
X8928849Y-19416174D02*
X8890753Y-19416174D01*
X8890753Y-19416174D02*
X8871706Y-19425698D01*
X8871706Y-19425698D02*
X8862182Y-19435222D01*
X8862182Y-19435222D02*
X8852658Y-19454270D01*
X9043134Y-19339984D02*
X9043134Y-19378079D01*
X9119325Y-19339984D02*
X9119325Y-19378079D01*
X9414563Y-19616174D02*
X9405039Y-19606650D01*
X9405039Y-19606650D02*
X9385991Y-19578079D01*
X9385991Y-19578079D02*
X9376468Y-19559031D01*
X9376468Y-19559031D02*
X9366944Y-19530460D01*
X9366944Y-19530460D02*
X9357420Y-19482841D01*
X9357420Y-19482841D02*
X9357420Y-19444746D01*
X9357420Y-19444746D02*
X9366944Y-19397127D01*
X9366944Y-19397127D02*
X9376468Y-19368555D01*
X9376468Y-19368555D02*
X9385991Y-19349508D01*
X9385991Y-19349508D02*
X9405039Y-19320936D01*
X9405039Y-19320936D02*
X9414563Y-19311412D01*
X9481230Y-19359031D02*
X9490753Y-19349508D01*
X9490753Y-19349508D02*
X9509801Y-19339984D01*
X9509801Y-19339984D02*
X9557420Y-19339984D01*
X9557420Y-19339984D02*
X9576468Y-19349508D01*
X9576468Y-19349508D02*
X9585991Y-19359031D01*
X9585991Y-19359031D02*
X9595515Y-19378079D01*
X9595515Y-19378079D02*
X9595515Y-19397127D01*
X9595515Y-19397127D02*
X9585991Y-19425698D01*
X9585991Y-19425698D02*
X9471706Y-19539984D01*
X9471706Y-19539984D02*
X9595515Y-19539984D01*
X9709801Y-19425698D02*
X9690753Y-19416174D01*
X9690753Y-19416174D02*
X9681230Y-19406650D01*
X9681230Y-19406650D02*
X9671706Y-19387603D01*
X9671706Y-19387603D02*
X9671706Y-19378079D01*
X9671706Y-19378079D02*
X9681230Y-19359031D01*
X9681230Y-19359031D02*
X9690753Y-19349508D01*
X9690753Y-19349508D02*
X9709801Y-19339984D01*
X9709801Y-19339984D02*
X9747896Y-19339984D01*
X9747896Y-19339984D02*
X9766944Y-19349508D01*
X9766944Y-19349508D02*
X9776468Y-19359031D01*
X9776468Y-19359031D02*
X9785991Y-19378079D01*
X9785991Y-19378079D02*
X9785991Y-19387603D01*
X9785991Y-19387603D02*
X9776468Y-19406650D01*
X9776468Y-19406650D02*
X9766944Y-19416174D01*
X9766944Y-19416174D02*
X9747896Y-19425698D01*
X9747896Y-19425698D02*
X9709801Y-19425698D01*
X9709801Y-19425698D02*
X9690753Y-19435222D01*
X9690753Y-19435222D02*
X9681230Y-19444746D01*
X9681230Y-19444746D02*
X9671706Y-19463793D01*
X9671706Y-19463793D02*
X9671706Y-19501889D01*
X9671706Y-19501889D02*
X9681230Y-19520936D01*
X9681230Y-19520936D02*
X9690753Y-19530460D01*
X9690753Y-19530460D02*
X9709801Y-19539984D01*
X9709801Y-19539984D02*
X9747896Y-19539984D01*
X9747896Y-19539984D02*
X9766944Y-19530460D01*
X9766944Y-19530460D02*
X9776468Y-19520936D01*
X9776468Y-19520936D02*
X9785991Y-19501889D01*
X9785991Y-19501889D02*
X9785991Y-19463793D01*
X9785991Y-19463793D02*
X9776468Y-19444746D01*
X9776468Y-19444746D02*
X9766944Y-19435222D01*
X9766944Y-19435222D02*
X9747896Y-19425698D01*
X10024087Y-19539984D02*
X10024087Y-19339984D01*
X10109801Y-19539984D02*
X10109801Y-19435222D01*
X10109801Y-19435222D02*
X10100277Y-19416174D01*
X10100277Y-19416174D02*
X10081230Y-19406650D01*
X10081230Y-19406650D02*
X10052658Y-19406650D01*
X10052658Y-19406650D02*
X10033611Y-19416174D01*
X10033611Y-19416174D02*
X10024087Y-19425698D01*
X10233611Y-19539984D02*
X10214563Y-19530460D01*
X10214563Y-19530460D02*
X10205039Y-19520936D01*
X10205039Y-19520936D02*
X10195515Y-19501889D01*
X10195515Y-19501889D02*
X10195515Y-19444746D01*
X10195515Y-19444746D02*
X10205039Y-19425698D01*
X10205039Y-19425698D02*
X10214563Y-19416174D01*
X10214563Y-19416174D02*
X10233611Y-19406650D01*
X10233611Y-19406650D02*
X10262182Y-19406650D01*
X10262182Y-19406650D02*
X10281230Y-19416174D01*
X10281230Y-19416174D02*
X10290753Y-19425698D01*
X10290753Y-19425698D02*
X10300277Y-19444746D01*
X10300277Y-19444746D02*
X10300277Y-19501889D01*
X10300277Y-19501889D02*
X10290753Y-19520936D01*
X10290753Y-19520936D02*
X10281230Y-19530460D01*
X10281230Y-19530460D02*
X10262182Y-19539984D01*
X10262182Y-19539984D02*
X10233611Y-19539984D01*
X10414563Y-19539984D02*
X10395515Y-19530460D01*
X10395515Y-19530460D02*
X10385992Y-19511412D01*
X10385992Y-19511412D02*
X10385992Y-19339984D01*
X10566944Y-19530460D02*
X10547896Y-19539984D01*
X10547896Y-19539984D02*
X10509801Y-19539984D01*
X10509801Y-19539984D02*
X10490753Y-19530460D01*
X10490753Y-19530460D02*
X10481230Y-19511412D01*
X10481230Y-19511412D02*
X10481230Y-19435222D01*
X10481230Y-19435222D02*
X10490753Y-19416174D01*
X10490753Y-19416174D02*
X10509801Y-19406650D01*
X10509801Y-19406650D02*
X10547896Y-19406650D01*
X10547896Y-19406650D02*
X10566944Y-19416174D01*
X10566944Y-19416174D02*
X10576468Y-19435222D01*
X10576468Y-19435222D02*
X10576468Y-19454270D01*
X10576468Y-19454270D02*
X10481230Y-19473317D01*
X10652658Y-19530460D02*
X10671706Y-19539984D01*
X10671706Y-19539984D02*
X10709801Y-19539984D01*
X10709801Y-19539984D02*
X10728849Y-19530460D01*
X10728849Y-19530460D02*
X10738373Y-19511412D01*
X10738373Y-19511412D02*
X10738373Y-19501889D01*
X10738373Y-19501889D02*
X10728849Y-19482841D01*
X10728849Y-19482841D02*
X10709801Y-19473317D01*
X10709801Y-19473317D02*
X10681230Y-19473317D01*
X10681230Y-19473317D02*
X10662182Y-19463793D01*
X10662182Y-19463793D02*
X10652658Y-19444746D01*
X10652658Y-19444746D02*
X10652658Y-19435222D01*
X10652658Y-19435222D02*
X10662182Y-19416174D01*
X10662182Y-19416174D02*
X10681230Y-19406650D01*
X10681230Y-19406650D02*
X10709801Y-19406650D01*
X10709801Y-19406650D02*
X10728849Y-19416174D01*
X10805039Y-19616174D02*
X10814563Y-19606650D01*
X10814563Y-19606650D02*
X10833611Y-19578079D01*
X10833611Y-19578079D02*
X10843134Y-19559031D01*
X10843134Y-19559031D02*
X10852658Y-19530460D01*
X10852658Y-19530460D02*
X10862182Y-19482841D01*
X10862182Y-19482841D02*
X10862182Y-19444746D01*
X10862182Y-19444746D02*
X10852658Y-19397127D01*
X10852658Y-19397127D02*
X10843134Y-19368555D01*
X10843134Y-19368555D02*
X10833611Y-19349508D01*
X10833611Y-19349508D02*
X10814563Y-19320936D01*
X10814563Y-19320936D02*
X10805039Y-19311412D01*
D12*
X5799500Y-19672500D02*
X5799500Y-19752500D01*
X5759500Y-19712500D02*
X5839500Y-19712500D01*
D11*
X6138372Y-19603984D02*
X6157420Y-19603984D01*
X6157420Y-19603984D02*
X6176467Y-19613508D01*
X6176467Y-19613508D02*
X6185991Y-19623031D01*
X6185991Y-19623031D02*
X6195515Y-19642079D01*
X6195515Y-19642079D02*
X6205039Y-19680174D01*
X6205039Y-19680174D02*
X6205039Y-19727793D01*
X6205039Y-19727793D02*
X6195515Y-19765889D01*
X6195515Y-19765889D02*
X6185991Y-19784936D01*
X6185991Y-19784936D02*
X6176467Y-19794460D01*
X6176467Y-19794460D02*
X6157420Y-19803984D01*
X6157420Y-19803984D02*
X6138372Y-19803984D01*
X6138372Y-19803984D02*
X6119324Y-19794460D01*
X6119324Y-19794460D02*
X6109801Y-19784936D01*
X6109801Y-19784936D02*
X6100277Y-19765889D01*
X6100277Y-19765889D02*
X6090753Y-19727793D01*
X6090753Y-19727793D02*
X6090753Y-19680174D01*
X6090753Y-19680174D02*
X6100277Y-19642079D01*
X6100277Y-19642079D02*
X6109801Y-19623031D01*
X6109801Y-19623031D02*
X6119324Y-19613508D01*
X6119324Y-19613508D02*
X6138372Y-19603984D01*
X6290753Y-19784936D02*
X6300277Y-19794460D01*
X6300277Y-19794460D02*
X6290753Y-19803984D01*
X6290753Y-19803984D02*
X6281229Y-19794460D01*
X6281229Y-19794460D02*
X6290753Y-19784936D01*
X6290753Y-19784936D02*
X6290753Y-19803984D01*
X6414562Y-19689698D02*
X6395515Y-19680174D01*
X6395515Y-19680174D02*
X6385991Y-19670650D01*
X6385991Y-19670650D02*
X6376467Y-19651603D01*
X6376467Y-19651603D02*
X6376467Y-19642079D01*
X6376467Y-19642079D02*
X6385991Y-19623031D01*
X6385991Y-19623031D02*
X6395515Y-19613508D01*
X6395515Y-19613508D02*
X6414562Y-19603984D01*
X6414562Y-19603984D02*
X6452658Y-19603984D01*
X6452658Y-19603984D02*
X6471705Y-19613508D01*
X6471705Y-19613508D02*
X6481229Y-19623031D01*
X6481229Y-19623031D02*
X6490753Y-19642079D01*
X6490753Y-19642079D02*
X6490753Y-19651603D01*
X6490753Y-19651603D02*
X6481229Y-19670650D01*
X6481229Y-19670650D02*
X6471705Y-19680174D01*
X6471705Y-19680174D02*
X6452658Y-19689698D01*
X6452658Y-19689698D02*
X6414562Y-19689698D01*
X6414562Y-19689698D02*
X6395515Y-19699222D01*
X6395515Y-19699222D02*
X6385991Y-19708746D01*
X6385991Y-19708746D02*
X6376467Y-19727793D01*
X6376467Y-19727793D02*
X6376467Y-19765889D01*
X6376467Y-19765889D02*
X6385991Y-19784936D01*
X6385991Y-19784936D02*
X6395515Y-19794460D01*
X6395515Y-19794460D02*
X6414562Y-19803984D01*
X6414562Y-19803984D02*
X6452658Y-19803984D01*
X6452658Y-19803984D02*
X6471705Y-19794460D01*
X6471705Y-19794460D02*
X6481229Y-19784936D01*
X6481229Y-19784936D02*
X6490753Y-19765889D01*
X6490753Y-19765889D02*
X6490753Y-19727793D01*
X6490753Y-19727793D02*
X6481229Y-19708746D01*
X6481229Y-19708746D02*
X6471705Y-19699222D01*
X6471705Y-19699222D02*
X6452658Y-19689698D01*
X6614562Y-19603984D02*
X6633610Y-19603984D01*
X6633610Y-19603984D02*
X6652658Y-19613508D01*
X6652658Y-19613508D02*
X6662182Y-19623031D01*
X6662182Y-19623031D02*
X6671705Y-19642079D01*
X6671705Y-19642079D02*
X6681229Y-19680174D01*
X6681229Y-19680174D02*
X6681229Y-19727793D01*
X6681229Y-19727793D02*
X6671705Y-19765889D01*
X6671705Y-19765889D02*
X6662182Y-19784936D01*
X6662182Y-19784936D02*
X6652658Y-19794460D01*
X6652658Y-19794460D02*
X6633610Y-19803984D01*
X6633610Y-19803984D02*
X6614562Y-19803984D01*
X6614562Y-19803984D02*
X6595515Y-19794460D01*
X6595515Y-19794460D02*
X6585991Y-19784936D01*
X6585991Y-19784936D02*
X6576467Y-19765889D01*
X6576467Y-19765889D02*
X6566943Y-19727793D01*
X6566943Y-19727793D02*
X6566943Y-19680174D01*
X6566943Y-19680174D02*
X6576467Y-19642079D01*
X6576467Y-19642079D02*
X6585991Y-19623031D01*
X6585991Y-19623031D02*
X6595515Y-19613508D01*
X6595515Y-19613508D02*
X6614562Y-19603984D01*
X6805039Y-19603984D02*
X6824086Y-19603984D01*
X6824086Y-19603984D02*
X6843134Y-19613508D01*
X6843134Y-19613508D02*
X6852658Y-19623031D01*
X6852658Y-19623031D02*
X6862182Y-19642079D01*
X6862182Y-19642079D02*
X6871705Y-19680174D01*
X6871705Y-19680174D02*
X6871705Y-19727793D01*
X6871705Y-19727793D02*
X6862182Y-19765889D01*
X6862182Y-19765889D02*
X6852658Y-19784936D01*
X6852658Y-19784936D02*
X6843134Y-19794460D01*
X6843134Y-19794460D02*
X6824086Y-19803984D01*
X6824086Y-19803984D02*
X6805039Y-19803984D01*
X6805039Y-19803984D02*
X6785991Y-19794460D01*
X6785991Y-19794460D02*
X6776467Y-19784936D01*
X6776467Y-19784936D02*
X6766943Y-19765889D01*
X6766943Y-19765889D02*
X6757420Y-19727793D01*
X6757420Y-19727793D02*
X6757420Y-19680174D01*
X6757420Y-19680174D02*
X6766943Y-19642079D01*
X6766943Y-19642079D02*
X6776467Y-19623031D01*
X6776467Y-19623031D02*
X6785991Y-19613508D01*
X6785991Y-19613508D02*
X6805039Y-19603984D01*
X6957420Y-19803984D02*
X6957420Y-19670650D01*
X6957420Y-19689698D02*
X6966943Y-19680174D01*
X6966943Y-19680174D02*
X6985991Y-19670650D01*
X6985991Y-19670650D02*
X7014563Y-19670650D01*
X7014563Y-19670650D02*
X7033610Y-19680174D01*
X7033610Y-19680174D02*
X7043134Y-19699222D01*
X7043134Y-19699222D02*
X7043134Y-19803984D01*
X7043134Y-19699222D02*
X7052658Y-19680174D01*
X7052658Y-19680174D02*
X7071705Y-19670650D01*
X7071705Y-19670650D02*
X7100277Y-19670650D01*
X7100277Y-19670650D02*
X7119324Y-19680174D01*
X7119324Y-19680174D02*
X7128848Y-19699222D01*
X7128848Y-19699222D02*
X7128848Y-19803984D01*
X7224086Y-19803984D02*
X7224086Y-19670650D01*
X7224086Y-19689698D02*
X7233610Y-19680174D01*
X7233610Y-19680174D02*
X7252658Y-19670650D01*
X7252658Y-19670650D02*
X7281229Y-19670650D01*
X7281229Y-19670650D02*
X7300277Y-19680174D01*
X7300277Y-19680174D02*
X7309801Y-19699222D01*
X7309801Y-19699222D02*
X7309801Y-19803984D01*
X7309801Y-19699222D02*
X7319324Y-19680174D01*
X7319324Y-19680174D02*
X7338372Y-19670650D01*
X7338372Y-19670650D02*
X7366943Y-19670650D01*
X7366943Y-19670650D02*
X7385991Y-19680174D01*
X7385991Y-19680174D02*
X7395515Y-19699222D01*
X7395515Y-19699222D02*
X7395515Y-19803984D01*
X7785991Y-19594460D02*
X7614563Y-19851603D01*
X8043134Y-19603984D02*
X8062182Y-19603984D01*
X8062182Y-19603984D02*
X8081229Y-19613508D01*
X8081229Y-19613508D02*
X8090753Y-19623031D01*
X8090753Y-19623031D02*
X8100277Y-19642079D01*
X8100277Y-19642079D02*
X8109801Y-19680174D01*
X8109801Y-19680174D02*
X8109801Y-19727793D01*
X8109801Y-19727793D02*
X8100277Y-19765889D01*
X8100277Y-19765889D02*
X8090753Y-19784936D01*
X8090753Y-19784936D02*
X8081229Y-19794460D01*
X8081229Y-19794460D02*
X8062182Y-19803984D01*
X8062182Y-19803984D02*
X8043134Y-19803984D01*
X8043134Y-19803984D02*
X8024086Y-19794460D01*
X8024086Y-19794460D02*
X8014563Y-19784936D01*
X8014563Y-19784936D02*
X8005039Y-19765889D01*
X8005039Y-19765889D02*
X7995515Y-19727793D01*
X7995515Y-19727793D02*
X7995515Y-19680174D01*
X7995515Y-19680174D02*
X8005039Y-19642079D01*
X8005039Y-19642079D02*
X8014563Y-19623031D01*
X8014563Y-19623031D02*
X8024086Y-19613508D01*
X8024086Y-19613508D02*
X8043134Y-19603984D01*
X8195515Y-19784936D02*
X8205039Y-19794460D01*
X8205039Y-19794460D02*
X8195515Y-19803984D01*
X8195515Y-19803984D02*
X8185991Y-19794460D01*
X8185991Y-19794460D02*
X8195515Y-19784936D01*
X8195515Y-19784936D02*
X8195515Y-19803984D01*
X8328848Y-19603984D02*
X8347896Y-19603984D01*
X8347896Y-19603984D02*
X8366944Y-19613508D01*
X8366944Y-19613508D02*
X8376467Y-19623031D01*
X8376467Y-19623031D02*
X8385991Y-19642079D01*
X8385991Y-19642079D02*
X8395515Y-19680174D01*
X8395515Y-19680174D02*
X8395515Y-19727793D01*
X8395515Y-19727793D02*
X8385991Y-19765889D01*
X8385991Y-19765889D02*
X8376467Y-19784936D01*
X8376467Y-19784936D02*
X8366944Y-19794460D01*
X8366944Y-19794460D02*
X8347896Y-19803984D01*
X8347896Y-19803984D02*
X8328848Y-19803984D01*
X8328848Y-19803984D02*
X8309801Y-19794460D01*
X8309801Y-19794460D02*
X8300277Y-19784936D01*
X8300277Y-19784936D02*
X8290753Y-19765889D01*
X8290753Y-19765889D02*
X8281229Y-19727793D01*
X8281229Y-19727793D02*
X8281229Y-19680174D01*
X8281229Y-19680174D02*
X8290753Y-19642079D01*
X8290753Y-19642079D02*
X8300277Y-19623031D01*
X8300277Y-19623031D02*
X8309801Y-19613508D01*
X8309801Y-19613508D02*
X8328848Y-19603984D01*
X8462182Y-19603984D02*
X8585991Y-19603984D01*
X8585991Y-19603984D02*
X8519325Y-19680174D01*
X8519325Y-19680174D02*
X8547896Y-19680174D01*
X8547896Y-19680174D02*
X8566944Y-19689698D01*
X8566944Y-19689698D02*
X8576468Y-19699222D01*
X8576468Y-19699222D02*
X8585991Y-19718270D01*
X8585991Y-19718270D02*
X8585991Y-19765889D01*
X8585991Y-19765889D02*
X8576468Y-19784936D01*
X8576468Y-19784936D02*
X8566944Y-19794460D01*
X8566944Y-19794460D02*
X8547896Y-19803984D01*
X8547896Y-19803984D02*
X8490753Y-19803984D01*
X8490753Y-19803984D02*
X8471706Y-19794460D01*
X8471706Y-19794460D02*
X8462182Y-19784936D01*
X8776468Y-19803984D02*
X8662182Y-19803984D01*
X8719325Y-19803984D02*
X8719325Y-19603984D01*
X8719325Y-19603984D02*
X8700277Y-19632555D01*
X8700277Y-19632555D02*
X8681229Y-19651603D01*
X8681229Y-19651603D02*
X8662182Y-19661127D01*
X8957420Y-19603984D02*
X8862182Y-19603984D01*
X8862182Y-19603984D02*
X8852658Y-19699222D01*
X8852658Y-19699222D02*
X8862182Y-19689698D01*
X8862182Y-19689698D02*
X8881229Y-19680174D01*
X8881229Y-19680174D02*
X8928849Y-19680174D01*
X8928849Y-19680174D02*
X8947896Y-19689698D01*
X8947896Y-19689698D02*
X8957420Y-19699222D01*
X8957420Y-19699222D02*
X8966944Y-19718270D01*
X8966944Y-19718270D02*
X8966944Y-19765889D01*
X8966944Y-19765889D02*
X8957420Y-19784936D01*
X8957420Y-19784936D02*
X8947896Y-19794460D01*
X8947896Y-19794460D02*
X8928849Y-19803984D01*
X8928849Y-19803984D02*
X8881229Y-19803984D01*
X8881229Y-19803984D02*
X8862182Y-19794460D01*
X8862182Y-19794460D02*
X8852658Y-19784936D01*
X9043134Y-19603984D02*
X9043134Y-19642079D01*
X9119325Y-19603984D02*
X9119325Y-19642079D01*
X9414563Y-19880174D02*
X9405039Y-19870650D01*
X9405039Y-19870650D02*
X9385991Y-19842079D01*
X9385991Y-19842079D02*
X9376468Y-19823031D01*
X9376468Y-19823031D02*
X9366944Y-19794460D01*
X9366944Y-19794460D02*
X9357420Y-19746841D01*
X9357420Y-19746841D02*
X9357420Y-19708746D01*
X9357420Y-19708746D02*
X9366944Y-19661127D01*
X9366944Y-19661127D02*
X9376468Y-19632555D01*
X9376468Y-19632555D02*
X9385991Y-19613508D01*
X9385991Y-19613508D02*
X9405039Y-19584936D01*
X9405039Y-19584936D02*
X9414563Y-19575412D01*
X9519325Y-19689698D02*
X9500277Y-19680174D01*
X9500277Y-19680174D02*
X9490753Y-19670650D01*
X9490753Y-19670650D02*
X9481230Y-19651603D01*
X9481230Y-19651603D02*
X9481230Y-19642079D01*
X9481230Y-19642079D02*
X9490753Y-19623031D01*
X9490753Y-19623031D02*
X9500277Y-19613508D01*
X9500277Y-19613508D02*
X9519325Y-19603984D01*
X9519325Y-19603984D02*
X9557420Y-19603984D01*
X9557420Y-19603984D02*
X9576468Y-19613508D01*
X9576468Y-19613508D02*
X9585991Y-19623031D01*
X9585991Y-19623031D02*
X9595515Y-19642079D01*
X9595515Y-19642079D02*
X9595515Y-19651603D01*
X9595515Y-19651603D02*
X9585991Y-19670650D01*
X9585991Y-19670650D02*
X9576468Y-19680174D01*
X9576468Y-19680174D02*
X9557420Y-19689698D01*
X9557420Y-19689698D02*
X9519325Y-19689698D01*
X9519325Y-19689698D02*
X9500277Y-19699222D01*
X9500277Y-19699222D02*
X9490753Y-19708746D01*
X9490753Y-19708746D02*
X9481230Y-19727793D01*
X9481230Y-19727793D02*
X9481230Y-19765889D01*
X9481230Y-19765889D02*
X9490753Y-19784936D01*
X9490753Y-19784936D02*
X9500277Y-19794460D01*
X9500277Y-19794460D02*
X9519325Y-19803984D01*
X9519325Y-19803984D02*
X9557420Y-19803984D01*
X9557420Y-19803984D02*
X9576468Y-19794460D01*
X9576468Y-19794460D02*
X9585991Y-19784936D01*
X9585991Y-19784936D02*
X9595515Y-19765889D01*
X9595515Y-19765889D02*
X9595515Y-19727793D01*
X9595515Y-19727793D02*
X9585991Y-19708746D01*
X9585991Y-19708746D02*
X9576468Y-19699222D01*
X9576468Y-19699222D02*
X9557420Y-19689698D01*
X9833611Y-19803984D02*
X9833611Y-19603984D01*
X9919325Y-19803984D02*
X9919325Y-19699222D01*
X9919325Y-19699222D02*
X9909801Y-19680174D01*
X9909801Y-19680174D02*
X9890753Y-19670650D01*
X9890753Y-19670650D02*
X9862182Y-19670650D01*
X9862182Y-19670650D02*
X9843134Y-19680174D01*
X9843134Y-19680174D02*
X9833611Y-19689698D01*
X10043134Y-19803984D02*
X10024087Y-19794460D01*
X10024087Y-19794460D02*
X10014563Y-19784936D01*
X10014563Y-19784936D02*
X10005039Y-19765889D01*
X10005039Y-19765889D02*
X10005039Y-19708746D01*
X10005039Y-19708746D02*
X10014563Y-19689698D01*
X10014563Y-19689698D02*
X10024087Y-19680174D01*
X10024087Y-19680174D02*
X10043134Y-19670650D01*
X10043134Y-19670650D02*
X10071706Y-19670650D01*
X10071706Y-19670650D02*
X10090753Y-19680174D01*
X10090753Y-19680174D02*
X10100277Y-19689698D01*
X10100277Y-19689698D02*
X10109801Y-19708746D01*
X10109801Y-19708746D02*
X10109801Y-19765889D01*
X10109801Y-19765889D02*
X10100277Y-19784936D01*
X10100277Y-19784936D02*
X10090753Y-19794460D01*
X10090753Y-19794460D02*
X10071706Y-19803984D01*
X10071706Y-19803984D02*
X10043134Y-19803984D01*
X10224087Y-19803984D02*
X10205039Y-19794460D01*
X10205039Y-19794460D02*
X10195515Y-19775412D01*
X10195515Y-19775412D02*
X10195515Y-19603984D01*
X10376468Y-19794460D02*
X10357420Y-19803984D01*
X10357420Y-19803984D02*
X10319325Y-19803984D01*
X10319325Y-19803984D02*
X10300277Y-19794460D01*
X10300277Y-19794460D02*
X10290753Y-19775412D01*
X10290753Y-19775412D02*
X10290753Y-19699222D01*
X10290753Y-19699222D02*
X10300277Y-19680174D01*
X10300277Y-19680174D02*
X10319325Y-19670650D01*
X10319325Y-19670650D02*
X10357420Y-19670650D01*
X10357420Y-19670650D02*
X10376468Y-19680174D01*
X10376468Y-19680174D02*
X10385992Y-19699222D01*
X10385992Y-19699222D02*
X10385992Y-19718270D01*
X10385992Y-19718270D02*
X10290753Y-19737317D01*
X10462182Y-19794460D02*
X10481230Y-19803984D01*
X10481230Y-19803984D02*
X10519325Y-19803984D01*
X10519325Y-19803984D02*
X10538373Y-19794460D01*
X10538373Y-19794460D02*
X10547896Y-19775412D01*
X10547896Y-19775412D02*
X10547896Y-19765889D01*
X10547896Y-19765889D02*
X10538373Y-19746841D01*
X10538373Y-19746841D02*
X10519325Y-19737317D01*
X10519325Y-19737317D02*
X10490753Y-19737317D01*
X10490753Y-19737317D02*
X10471706Y-19727793D01*
X10471706Y-19727793D02*
X10462182Y-19708746D01*
X10462182Y-19708746D02*
X10462182Y-19699222D01*
X10462182Y-19699222D02*
X10471706Y-19680174D01*
X10471706Y-19680174D02*
X10490753Y-19670650D01*
X10490753Y-19670650D02*
X10519325Y-19670650D01*
X10519325Y-19670650D02*
X10538373Y-19680174D01*
X10614563Y-19880174D02*
X10624087Y-19870650D01*
X10624087Y-19870650D02*
X10643134Y-19842079D01*
X10643134Y-19842079D02*
X10652658Y-19823031D01*
X10652658Y-19823031D02*
X10662182Y-19794460D01*
X10662182Y-19794460D02*
X10671706Y-19746841D01*
X10671706Y-19746841D02*
X10671706Y-19708746D01*
X10671706Y-19708746D02*
X10662182Y-19661127D01*
X10662182Y-19661127D02*
X10652658Y-19632555D01*
X10652658Y-19632555D02*
X10643134Y-19613508D01*
X10643134Y-19613508D02*
X10624087Y-19584936D01*
X10624087Y-19584936D02*
X10614563Y-19575412D01*
D12*
X5825588Y-20010088D02*
X5825588Y-19942912D01*
X5758412Y-19942912D01*
X5758412Y-20010088D01*
X5825588Y-20010088D01*
D11*
X6138372Y-19867984D02*
X6157420Y-19867984D01*
X6157420Y-19867984D02*
X6176467Y-19877508D01*
X6176467Y-19877508D02*
X6185991Y-19887031D01*
X6185991Y-19887031D02*
X6195515Y-19906079D01*
X6195515Y-19906079D02*
X6205039Y-19944174D01*
X6205039Y-19944174D02*
X6205039Y-19991793D01*
X6205039Y-19991793D02*
X6195515Y-20029889D01*
X6195515Y-20029889D02*
X6185991Y-20048936D01*
X6185991Y-20048936D02*
X6176467Y-20058460D01*
X6176467Y-20058460D02*
X6157420Y-20067984D01*
X6157420Y-20067984D02*
X6138372Y-20067984D01*
X6138372Y-20067984D02*
X6119324Y-20058460D01*
X6119324Y-20058460D02*
X6109801Y-20048936D01*
X6109801Y-20048936D02*
X6100277Y-20029889D01*
X6100277Y-20029889D02*
X6090753Y-19991793D01*
X6090753Y-19991793D02*
X6090753Y-19944174D01*
X6090753Y-19944174D02*
X6100277Y-19906079D01*
X6100277Y-19906079D02*
X6109801Y-19887031D01*
X6109801Y-19887031D02*
X6119324Y-19877508D01*
X6119324Y-19877508D02*
X6138372Y-19867984D01*
X6290753Y-20048936D02*
X6300277Y-20058460D01*
X6300277Y-20058460D02*
X6290753Y-20067984D01*
X6290753Y-20067984D02*
X6281229Y-20058460D01*
X6281229Y-20058460D02*
X6290753Y-20048936D01*
X6290753Y-20048936D02*
X6290753Y-20067984D01*
X6395515Y-20067984D02*
X6433610Y-20067984D01*
X6433610Y-20067984D02*
X6452658Y-20058460D01*
X6452658Y-20058460D02*
X6462182Y-20048936D01*
X6462182Y-20048936D02*
X6481229Y-20020365D01*
X6481229Y-20020365D02*
X6490753Y-19982270D01*
X6490753Y-19982270D02*
X6490753Y-19906079D01*
X6490753Y-19906079D02*
X6481229Y-19887031D01*
X6481229Y-19887031D02*
X6471705Y-19877508D01*
X6471705Y-19877508D02*
X6452658Y-19867984D01*
X6452658Y-19867984D02*
X6414562Y-19867984D01*
X6414562Y-19867984D02*
X6395515Y-19877508D01*
X6395515Y-19877508D02*
X6385991Y-19887031D01*
X6385991Y-19887031D02*
X6376467Y-19906079D01*
X6376467Y-19906079D02*
X6376467Y-19953698D01*
X6376467Y-19953698D02*
X6385991Y-19972746D01*
X6385991Y-19972746D02*
X6395515Y-19982270D01*
X6395515Y-19982270D02*
X6414562Y-19991793D01*
X6414562Y-19991793D02*
X6452658Y-19991793D01*
X6452658Y-19991793D02*
X6471705Y-19982270D01*
X6471705Y-19982270D02*
X6481229Y-19972746D01*
X6481229Y-19972746D02*
X6490753Y-19953698D01*
X6671705Y-19867984D02*
X6576467Y-19867984D01*
X6576467Y-19867984D02*
X6566943Y-19963222D01*
X6566943Y-19963222D02*
X6576467Y-19953698D01*
X6576467Y-19953698D02*
X6595515Y-19944174D01*
X6595515Y-19944174D02*
X6643134Y-19944174D01*
X6643134Y-19944174D02*
X6662182Y-19953698D01*
X6662182Y-19953698D02*
X6671705Y-19963222D01*
X6671705Y-19963222D02*
X6681229Y-19982270D01*
X6681229Y-19982270D02*
X6681229Y-20029889D01*
X6681229Y-20029889D02*
X6671705Y-20048936D01*
X6671705Y-20048936D02*
X6662182Y-20058460D01*
X6662182Y-20058460D02*
X6643134Y-20067984D01*
X6643134Y-20067984D02*
X6595515Y-20067984D01*
X6595515Y-20067984D02*
X6576467Y-20058460D01*
X6576467Y-20058460D02*
X6566943Y-20048936D01*
X6805039Y-19867984D02*
X6824086Y-19867984D01*
X6824086Y-19867984D02*
X6843134Y-19877508D01*
X6843134Y-19877508D02*
X6852658Y-19887031D01*
X6852658Y-19887031D02*
X6862182Y-19906079D01*
X6862182Y-19906079D02*
X6871705Y-19944174D01*
X6871705Y-19944174D02*
X6871705Y-19991793D01*
X6871705Y-19991793D02*
X6862182Y-20029889D01*
X6862182Y-20029889D02*
X6852658Y-20048936D01*
X6852658Y-20048936D02*
X6843134Y-20058460D01*
X6843134Y-20058460D02*
X6824086Y-20067984D01*
X6824086Y-20067984D02*
X6805039Y-20067984D01*
X6805039Y-20067984D02*
X6785991Y-20058460D01*
X6785991Y-20058460D02*
X6776467Y-20048936D01*
X6776467Y-20048936D02*
X6766943Y-20029889D01*
X6766943Y-20029889D02*
X6757420Y-19991793D01*
X6757420Y-19991793D02*
X6757420Y-19944174D01*
X6757420Y-19944174D02*
X6766943Y-19906079D01*
X6766943Y-19906079D02*
X6776467Y-19887031D01*
X6776467Y-19887031D02*
X6785991Y-19877508D01*
X6785991Y-19877508D02*
X6805039Y-19867984D01*
X6957420Y-20067984D02*
X6957420Y-19934650D01*
X6957420Y-19953698D02*
X6966943Y-19944174D01*
X6966943Y-19944174D02*
X6985991Y-19934650D01*
X6985991Y-19934650D02*
X7014563Y-19934650D01*
X7014563Y-19934650D02*
X7033610Y-19944174D01*
X7033610Y-19944174D02*
X7043134Y-19963222D01*
X7043134Y-19963222D02*
X7043134Y-20067984D01*
X7043134Y-19963222D02*
X7052658Y-19944174D01*
X7052658Y-19944174D02*
X7071705Y-19934650D01*
X7071705Y-19934650D02*
X7100277Y-19934650D01*
X7100277Y-19934650D02*
X7119324Y-19944174D01*
X7119324Y-19944174D02*
X7128848Y-19963222D01*
X7128848Y-19963222D02*
X7128848Y-20067984D01*
X7224086Y-20067984D02*
X7224086Y-19934650D01*
X7224086Y-19953698D02*
X7233610Y-19944174D01*
X7233610Y-19944174D02*
X7252658Y-19934650D01*
X7252658Y-19934650D02*
X7281229Y-19934650D01*
X7281229Y-19934650D02*
X7300277Y-19944174D01*
X7300277Y-19944174D02*
X7309801Y-19963222D01*
X7309801Y-19963222D02*
X7309801Y-20067984D01*
X7309801Y-19963222D02*
X7319324Y-19944174D01*
X7319324Y-19944174D02*
X7338372Y-19934650D01*
X7338372Y-19934650D02*
X7366943Y-19934650D01*
X7366943Y-19934650D02*
X7385991Y-19944174D01*
X7385991Y-19944174D02*
X7395515Y-19963222D01*
X7395515Y-19963222D02*
X7395515Y-20067984D01*
X7785991Y-19858460D02*
X7614563Y-20115603D01*
X8043134Y-19867984D02*
X8062182Y-19867984D01*
X8062182Y-19867984D02*
X8081229Y-19877508D01*
X8081229Y-19877508D02*
X8090753Y-19887031D01*
X8090753Y-19887031D02*
X8100277Y-19906079D01*
X8100277Y-19906079D02*
X8109801Y-19944174D01*
X8109801Y-19944174D02*
X8109801Y-19991793D01*
X8109801Y-19991793D02*
X8100277Y-20029889D01*
X8100277Y-20029889D02*
X8090753Y-20048936D01*
X8090753Y-20048936D02*
X8081229Y-20058460D01*
X8081229Y-20058460D02*
X8062182Y-20067984D01*
X8062182Y-20067984D02*
X8043134Y-20067984D01*
X8043134Y-20067984D02*
X8024086Y-20058460D01*
X8024086Y-20058460D02*
X8014563Y-20048936D01*
X8014563Y-20048936D02*
X8005039Y-20029889D01*
X8005039Y-20029889D02*
X7995515Y-19991793D01*
X7995515Y-19991793D02*
X7995515Y-19944174D01*
X7995515Y-19944174D02*
X8005039Y-19906079D01*
X8005039Y-19906079D02*
X8014563Y-19887031D01*
X8014563Y-19887031D02*
X8024086Y-19877508D01*
X8024086Y-19877508D02*
X8043134Y-19867984D01*
X8195515Y-20048936D02*
X8205039Y-20058460D01*
X8205039Y-20058460D02*
X8195515Y-20067984D01*
X8195515Y-20067984D02*
X8185991Y-20058460D01*
X8185991Y-20058460D02*
X8195515Y-20048936D01*
X8195515Y-20048936D02*
X8195515Y-20067984D01*
X8328848Y-19867984D02*
X8347896Y-19867984D01*
X8347896Y-19867984D02*
X8366944Y-19877508D01*
X8366944Y-19877508D02*
X8376467Y-19887031D01*
X8376467Y-19887031D02*
X8385991Y-19906079D01*
X8385991Y-19906079D02*
X8395515Y-19944174D01*
X8395515Y-19944174D02*
X8395515Y-19991793D01*
X8395515Y-19991793D02*
X8385991Y-20029889D01*
X8385991Y-20029889D02*
X8376467Y-20048936D01*
X8376467Y-20048936D02*
X8366944Y-20058460D01*
X8366944Y-20058460D02*
X8347896Y-20067984D01*
X8347896Y-20067984D02*
X8328848Y-20067984D01*
X8328848Y-20067984D02*
X8309801Y-20058460D01*
X8309801Y-20058460D02*
X8300277Y-20048936D01*
X8300277Y-20048936D02*
X8290753Y-20029889D01*
X8290753Y-20029889D02*
X8281229Y-19991793D01*
X8281229Y-19991793D02*
X8281229Y-19944174D01*
X8281229Y-19944174D02*
X8290753Y-19906079D01*
X8290753Y-19906079D02*
X8300277Y-19887031D01*
X8300277Y-19887031D02*
X8309801Y-19877508D01*
X8309801Y-19877508D02*
X8328848Y-19867984D01*
X8462182Y-19867984D02*
X8585991Y-19867984D01*
X8585991Y-19867984D02*
X8519325Y-19944174D01*
X8519325Y-19944174D02*
X8547896Y-19944174D01*
X8547896Y-19944174D02*
X8566944Y-19953698D01*
X8566944Y-19953698D02*
X8576468Y-19963222D01*
X8576468Y-19963222D02*
X8585991Y-19982270D01*
X8585991Y-19982270D02*
X8585991Y-20029889D01*
X8585991Y-20029889D02*
X8576468Y-20048936D01*
X8576468Y-20048936D02*
X8566944Y-20058460D01*
X8566944Y-20058460D02*
X8547896Y-20067984D01*
X8547896Y-20067984D02*
X8490753Y-20067984D01*
X8490753Y-20067984D02*
X8471706Y-20058460D01*
X8471706Y-20058460D02*
X8462182Y-20048936D01*
X8652658Y-19867984D02*
X8785991Y-19867984D01*
X8785991Y-19867984D02*
X8700277Y-20067984D01*
X8947896Y-19934650D02*
X8947896Y-20067984D01*
X8900277Y-19858460D02*
X8852658Y-20001317D01*
X8852658Y-20001317D02*
X8976468Y-20001317D01*
X9043134Y-19867984D02*
X9043134Y-19906079D01*
X9119325Y-19867984D02*
X9119325Y-19906079D01*
X9414563Y-20144174D02*
X9405039Y-20134650D01*
X9405039Y-20134650D02*
X9385991Y-20106079D01*
X9385991Y-20106079D02*
X9376468Y-20087031D01*
X9376468Y-20087031D02*
X9366944Y-20058460D01*
X9366944Y-20058460D02*
X9357420Y-20010841D01*
X9357420Y-20010841D02*
X9357420Y-19972746D01*
X9357420Y-19972746D02*
X9366944Y-19925127D01*
X9366944Y-19925127D02*
X9376468Y-19896555D01*
X9376468Y-19896555D02*
X9385991Y-19877508D01*
X9385991Y-19877508D02*
X9405039Y-19848936D01*
X9405039Y-19848936D02*
X9414563Y-19839412D01*
X9481230Y-19887031D02*
X9490753Y-19877508D01*
X9490753Y-19877508D02*
X9509801Y-19867984D01*
X9509801Y-19867984D02*
X9557420Y-19867984D01*
X9557420Y-19867984D02*
X9576468Y-19877508D01*
X9576468Y-19877508D02*
X9585991Y-19887031D01*
X9585991Y-19887031D02*
X9595515Y-19906079D01*
X9595515Y-19906079D02*
X9595515Y-19925127D01*
X9595515Y-19925127D02*
X9585991Y-19953698D01*
X9585991Y-19953698D02*
X9471706Y-20067984D01*
X9471706Y-20067984D02*
X9595515Y-20067984D01*
X9719325Y-19867984D02*
X9738372Y-19867984D01*
X9738372Y-19867984D02*
X9757420Y-19877508D01*
X9757420Y-19877508D02*
X9766944Y-19887031D01*
X9766944Y-19887031D02*
X9776468Y-19906079D01*
X9776468Y-19906079D02*
X9785991Y-19944174D01*
X9785991Y-19944174D02*
X9785991Y-19991793D01*
X9785991Y-19991793D02*
X9776468Y-20029889D01*
X9776468Y-20029889D02*
X9766944Y-20048936D01*
X9766944Y-20048936D02*
X9757420Y-20058460D01*
X9757420Y-20058460D02*
X9738372Y-20067984D01*
X9738372Y-20067984D02*
X9719325Y-20067984D01*
X9719325Y-20067984D02*
X9700277Y-20058460D01*
X9700277Y-20058460D02*
X9690753Y-20048936D01*
X9690753Y-20048936D02*
X9681230Y-20029889D01*
X9681230Y-20029889D02*
X9671706Y-19991793D01*
X9671706Y-19991793D02*
X9671706Y-19944174D01*
X9671706Y-19944174D02*
X9681230Y-19906079D01*
X9681230Y-19906079D02*
X9690753Y-19887031D01*
X9690753Y-19887031D02*
X9700277Y-19877508D01*
X9700277Y-19877508D02*
X9719325Y-19867984D01*
X10024087Y-20067984D02*
X10024087Y-19867984D01*
X10109801Y-20067984D02*
X10109801Y-19963222D01*
X10109801Y-19963222D02*
X10100277Y-19944174D01*
X10100277Y-19944174D02*
X10081230Y-19934650D01*
X10081230Y-19934650D02*
X10052658Y-19934650D01*
X10052658Y-19934650D02*
X10033611Y-19944174D01*
X10033611Y-19944174D02*
X10024087Y-19953698D01*
X10233611Y-20067984D02*
X10214563Y-20058460D01*
X10214563Y-20058460D02*
X10205039Y-20048936D01*
X10205039Y-20048936D02*
X10195515Y-20029889D01*
X10195515Y-20029889D02*
X10195515Y-19972746D01*
X10195515Y-19972746D02*
X10205039Y-19953698D01*
X10205039Y-19953698D02*
X10214563Y-19944174D01*
X10214563Y-19944174D02*
X10233611Y-19934650D01*
X10233611Y-19934650D02*
X10262182Y-19934650D01*
X10262182Y-19934650D02*
X10281230Y-19944174D01*
X10281230Y-19944174D02*
X10290753Y-19953698D01*
X10290753Y-19953698D02*
X10300277Y-19972746D01*
X10300277Y-19972746D02*
X10300277Y-20029889D01*
X10300277Y-20029889D02*
X10290753Y-20048936D01*
X10290753Y-20048936D02*
X10281230Y-20058460D01*
X10281230Y-20058460D02*
X10262182Y-20067984D01*
X10262182Y-20067984D02*
X10233611Y-20067984D01*
X10414563Y-20067984D02*
X10395515Y-20058460D01*
X10395515Y-20058460D02*
X10385992Y-20039412D01*
X10385992Y-20039412D02*
X10385992Y-19867984D01*
X10566944Y-20058460D02*
X10547896Y-20067984D01*
X10547896Y-20067984D02*
X10509801Y-20067984D01*
X10509801Y-20067984D02*
X10490753Y-20058460D01*
X10490753Y-20058460D02*
X10481230Y-20039412D01*
X10481230Y-20039412D02*
X10481230Y-19963222D01*
X10481230Y-19963222D02*
X10490753Y-19944174D01*
X10490753Y-19944174D02*
X10509801Y-19934650D01*
X10509801Y-19934650D02*
X10547896Y-19934650D01*
X10547896Y-19934650D02*
X10566944Y-19944174D01*
X10566944Y-19944174D02*
X10576468Y-19963222D01*
X10576468Y-19963222D02*
X10576468Y-19982270D01*
X10576468Y-19982270D02*
X10481230Y-20001317D01*
X10652658Y-20058460D02*
X10671706Y-20067984D01*
X10671706Y-20067984D02*
X10709801Y-20067984D01*
X10709801Y-20067984D02*
X10728849Y-20058460D01*
X10728849Y-20058460D02*
X10738373Y-20039412D01*
X10738373Y-20039412D02*
X10738373Y-20029889D01*
X10738373Y-20029889D02*
X10728849Y-20010841D01*
X10728849Y-20010841D02*
X10709801Y-20001317D01*
X10709801Y-20001317D02*
X10681230Y-20001317D01*
X10681230Y-20001317D02*
X10662182Y-19991793D01*
X10662182Y-19991793D02*
X10652658Y-19972746D01*
X10652658Y-19972746D02*
X10652658Y-19963222D01*
X10652658Y-19963222D02*
X10662182Y-19944174D01*
X10662182Y-19944174D02*
X10681230Y-19934650D01*
X10681230Y-19934650D02*
X10709801Y-19934650D01*
X10709801Y-19934650D02*
X10728849Y-19944174D01*
X10805039Y-20144174D02*
X10814563Y-20134650D01*
X10814563Y-20134650D02*
X10833611Y-20106079D01*
X10833611Y-20106079D02*
X10843134Y-20087031D01*
X10843134Y-20087031D02*
X10852658Y-20058460D01*
X10852658Y-20058460D02*
X10862182Y-20010841D01*
X10862182Y-20010841D02*
X10862182Y-19972746D01*
X10862182Y-19972746D02*
X10852658Y-19925127D01*
X10852658Y-19925127D02*
X10843134Y-19896555D01*
X10843134Y-19896555D02*
X10833611Y-19877508D01*
X10833611Y-19877508D02*
X10814563Y-19848936D01*
X10814563Y-19848936D02*
X10805039Y-19839412D01*
D12*
X5789500Y-20290500D02*
X5839500Y-20240500D01*
X5789500Y-20190500D01*
X5739500Y-20240500D01*
X5789500Y-20290500D01*
D11*
X6205039Y-20331984D02*
X6090753Y-20331984D01*
X6147896Y-20331984D02*
X6147896Y-20131984D01*
X6147896Y-20131984D02*
X6128848Y-20160555D01*
X6128848Y-20160555D02*
X6109801Y-20179603D01*
X6109801Y-20179603D02*
X6090753Y-20189127D01*
X6290753Y-20312936D02*
X6300277Y-20322460D01*
X6300277Y-20322460D02*
X6290753Y-20331984D01*
X6290753Y-20331984D02*
X6281229Y-20322460D01*
X6281229Y-20322460D02*
X6290753Y-20312936D01*
X6290753Y-20312936D02*
X6290753Y-20331984D01*
X6424086Y-20131984D02*
X6443134Y-20131984D01*
X6443134Y-20131984D02*
X6462182Y-20141508D01*
X6462182Y-20141508D02*
X6471705Y-20151031D01*
X6471705Y-20151031D02*
X6481229Y-20170079D01*
X6481229Y-20170079D02*
X6490753Y-20208174D01*
X6490753Y-20208174D02*
X6490753Y-20255793D01*
X6490753Y-20255793D02*
X6481229Y-20293889D01*
X6481229Y-20293889D02*
X6471705Y-20312936D01*
X6471705Y-20312936D02*
X6462182Y-20322460D01*
X6462182Y-20322460D02*
X6443134Y-20331984D01*
X6443134Y-20331984D02*
X6424086Y-20331984D01*
X6424086Y-20331984D02*
X6405039Y-20322460D01*
X6405039Y-20322460D02*
X6395515Y-20312936D01*
X6395515Y-20312936D02*
X6385991Y-20293889D01*
X6385991Y-20293889D02*
X6376467Y-20255793D01*
X6376467Y-20255793D02*
X6376467Y-20208174D01*
X6376467Y-20208174D02*
X6385991Y-20170079D01*
X6385991Y-20170079D02*
X6395515Y-20151031D01*
X6395515Y-20151031D02*
X6405039Y-20141508D01*
X6405039Y-20141508D02*
X6424086Y-20131984D01*
X6614562Y-20131984D02*
X6633610Y-20131984D01*
X6633610Y-20131984D02*
X6652658Y-20141508D01*
X6652658Y-20141508D02*
X6662182Y-20151031D01*
X6662182Y-20151031D02*
X6671705Y-20170079D01*
X6671705Y-20170079D02*
X6681229Y-20208174D01*
X6681229Y-20208174D02*
X6681229Y-20255793D01*
X6681229Y-20255793D02*
X6671705Y-20293889D01*
X6671705Y-20293889D02*
X6662182Y-20312936D01*
X6662182Y-20312936D02*
X6652658Y-20322460D01*
X6652658Y-20322460D02*
X6633610Y-20331984D01*
X6633610Y-20331984D02*
X6614562Y-20331984D01*
X6614562Y-20331984D02*
X6595515Y-20322460D01*
X6595515Y-20322460D02*
X6585991Y-20312936D01*
X6585991Y-20312936D02*
X6576467Y-20293889D01*
X6576467Y-20293889D02*
X6566943Y-20255793D01*
X6566943Y-20255793D02*
X6566943Y-20208174D01*
X6566943Y-20208174D02*
X6576467Y-20170079D01*
X6576467Y-20170079D02*
X6585991Y-20151031D01*
X6585991Y-20151031D02*
X6595515Y-20141508D01*
X6595515Y-20141508D02*
X6614562Y-20131984D01*
X6805039Y-20131984D02*
X6824086Y-20131984D01*
X6824086Y-20131984D02*
X6843134Y-20141508D01*
X6843134Y-20141508D02*
X6852658Y-20151031D01*
X6852658Y-20151031D02*
X6862182Y-20170079D01*
X6862182Y-20170079D02*
X6871705Y-20208174D01*
X6871705Y-20208174D02*
X6871705Y-20255793D01*
X6871705Y-20255793D02*
X6862182Y-20293889D01*
X6862182Y-20293889D02*
X6852658Y-20312936D01*
X6852658Y-20312936D02*
X6843134Y-20322460D01*
X6843134Y-20322460D02*
X6824086Y-20331984D01*
X6824086Y-20331984D02*
X6805039Y-20331984D01*
X6805039Y-20331984D02*
X6785991Y-20322460D01*
X6785991Y-20322460D02*
X6776467Y-20312936D01*
X6776467Y-20312936D02*
X6766943Y-20293889D01*
X6766943Y-20293889D02*
X6757420Y-20255793D01*
X6757420Y-20255793D02*
X6757420Y-20208174D01*
X6757420Y-20208174D02*
X6766943Y-20170079D01*
X6766943Y-20170079D02*
X6776467Y-20151031D01*
X6776467Y-20151031D02*
X6785991Y-20141508D01*
X6785991Y-20141508D02*
X6805039Y-20131984D01*
X6957420Y-20331984D02*
X6957420Y-20198650D01*
X6957420Y-20217698D02*
X6966943Y-20208174D01*
X6966943Y-20208174D02*
X6985991Y-20198650D01*
X6985991Y-20198650D02*
X7014563Y-20198650D01*
X7014563Y-20198650D02*
X7033610Y-20208174D01*
X7033610Y-20208174D02*
X7043134Y-20227222D01*
X7043134Y-20227222D02*
X7043134Y-20331984D01*
X7043134Y-20227222D02*
X7052658Y-20208174D01*
X7052658Y-20208174D02*
X7071705Y-20198650D01*
X7071705Y-20198650D02*
X7100277Y-20198650D01*
X7100277Y-20198650D02*
X7119324Y-20208174D01*
X7119324Y-20208174D02*
X7128848Y-20227222D01*
X7128848Y-20227222D02*
X7128848Y-20331984D01*
X7224086Y-20331984D02*
X7224086Y-20198650D01*
X7224086Y-20217698D02*
X7233610Y-20208174D01*
X7233610Y-20208174D02*
X7252658Y-20198650D01*
X7252658Y-20198650D02*
X7281229Y-20198650D01*
X7281229Y-20198650D02*
X7300277Y-20208174D01*
X7300277Y-20208174D02*
X7309801Y-20227222D01*
X7309801Y-20227222D02*
X7309801Y-20331984D01*
X7309801Y-20227222D02*
X7319324Y-20208174D01*
X7319324Y-20208174D02*
X7338372Y-20198650D01*
X7338372Y-20198650D02*
X7366943Y-20198650D01*
X7366943Y-20198650D02*
X7385991Y-20208174D01*
X7385991Y-20208174D02*
X7395515Y-20227222D01*
X7395515Y-20227222D02*
X7395515Y-20331984D01*
X7785991Y-20122460D02*
X7614563Y-20379603D01*
X8043134Y-20131984D02*
X8062182Y-20131984D01*
X8062182Y-20131984D02*
X8081229Y-20141508D01*
X8081229Y-20141508D02*
X8090753Y-20151031D01*
X8090753Y-20151031D02*
X8100277Y-20170079D01*
X8100277Y-20170079D02*
X8109801Y-20208174D01*
X8109801Y-20208174D02*
X8109801Y-20255793D01*
X8109801Y-20255793D02*
X8100277Y-20293889D01*
X8100277Y-20293889D02*
X8090753Y-20312936D01*
X8090753Y-20312936D02*
X8081229Y-20322460D01*
X8081229Y-20322460D02*
X8062182Y-20331984D01*
X8062182Y-20331984D02*
X8043134Y-20331984D01*
X8043134Y-20331984D02*
X8024086Y-20322460D01*
X8024086Y-20322460D02*
X8014563Y-20312936D01*
X8014563Y-20312936D02*
X8005039Y-20293889D01*
X8005039Y-20293889D02*
X7995515Y-20255793D01*
X7995515Y-20255793D02*
X7995515Y-20208174D01*
X7995515Y-20208174D02*
X8005039Y-20170079D01*
X8005039Y-20170079D02*
X8014563Y-20151031D01*
X8014563Y-20151031D02*
X8024086Y-20141508D01*
X8024086Y-20141508D02*
X8043134Y-20131984D01*
X8195515Y-20312936D02*
X8205039Y-20322460D01*
X8205039Y-20322460D02*
X8195515Y-20331984D01*
X8195515Y-20331984D02*
X8185991Y-20322460D01*
X8185991Y-20322460D02*
X8195515Y-20312936D01*
X8195515Y-20312936D02*
X8195515Y-20331984D01*
X8328848Y-20131984D02*
X8347896Y-20131984D01*
X8347896Y-20131984D02*
X8366944Y-20141508D01*
X8366944Y-20141508D02*
X8376467Y-20151031D01*
X8376467Y-20151031D02*
X8385991Y-20170079D01*
X8385991Y-20170079D02*
X8395515Y-20208174D01*
X8395515Y-20208174D02*
X8395515Y-20255793D01*
X8395515Y-20255793D02*
X8385991Y-20293889D01*
X8385991Y-20293889D02*
X8376467Y-20312936D01*
X8376467Y-20312936D02*
X8366944Y-20322460D01*
X8366944Y-20322460D02*
X8347896Y-20331984D01*
X8347896Y-20331984D02*
X8328848Y-20331984D01*
X8328848Y-20331984D02*
X8309801Y-20322460D01*
X8309801Y-20322460D02*
X8300277Y-20312936D01*
X8300277Y-20312936D02*
X8290753Y-20293889D01*
X8290753Y-20293889D02*
X8281229Y-20255793D01*
X8281229Y-20255793D02*
X8281229Y-20208174D01*
X8281229Y-20208174D02*
X8290753Y-20170079D01*
X8290753Y-20170079D02*
X8300277Y-20151031D01*
X8300277Y-20151031D02*
X8309801Y-20141508D01*
X8309801Y-20141508D02*
X8328848Y-20131984D01*
X8462182Y-20131984D02*
X8585991Y-20131984D01*
X8585991Y-20131984D02*
X8519325Y-20208174D01*
X8519325Y-20208174D02*
X8547896Y-20208174D01*
X8547896Y-20208174D02*
X8566944Y-20217698D01*
X8566944Y-20217698D02*
X8576468Y-20227222D01*
X8576468Y-20227222D02*
X8585991Y-20246270D01*
X8585991Y-20246270D02*
X8585991Y-20293889D01*
X8585991Y-20293889D02*
X8576468Y-20312936D01*
X8576468Y-20312936D02*
X8566944Y-20322460D01*
X8566944Y-20322460D02*
X8547896Y-20331984D01*
X8547896Y-20331984D02*
X8490753Y-20331984D01*
X8490753Y-20331984D02*
X8471706Y-20322460D01*
X8471706Y-20322460D02*
X8462182Y-20312936D01*
X8681229Y-20331984D02*
X8719325Y-20331984D01*
X8719325Y-20331984D02*
X8738372Y-20322460D01*
X8738372Y-20322460D02*
X8747896Y-20312936D01*
X8747896Y-20312936D02*
X8766944Y-20284365D01*
X8766944Y-20284365D02*
X8776468Y-20246270D01*
X8776468Y-20246270D02*
X8776468Y-20170079D01*
X8776468Y-20170079D02*
X8766944Y-20151031D01*
X8766944Y-20151031D02*
X8757420Y-20141508D01*
X8757420Y-20141508D02*
X8738372Y-20131984D01*
X8738372Y-20131984D02*
X8700277Y-20131984D01*
X8700277Y-20131984D02*
X8681229Y-20141508D01*
X8681229Y-20141508D02*
X8671706Y-20151031D01*
X8671706Y-20151031D02*
X8662182Y-20170079D01*
X8662182Y-20170079D02*
X8662182Y-20217698D01*
X8662182Y-20217698D02*
X8671706Y-20236746D01*
X8671706Y-20236746D02*
X8681229Y-20246270D01*
X8681229Y-20246270D02*
X8700277Y-20255793D01*
X8700277Y-20255793D02*
X8738372Y-20255793D01*
X8738372Y-20255793D02*
X8757420Y-20246270D01*
X8757420Y-20246270D02*
X8766944Y-20236746D01*
X8766944Y-20236746D02*
X8776468Y-20217698D01*
X8947896Y-20198650D02*
X8947896Y-20331984D01*
X8900277Y-20122460D02*
X8852658Y-20265317D01*
X8852658Y-20265317D02*
X8976468Y-20265317D01*
X9043134Y-20131984D02*
X9043134Y-20170079D01*
X9119325Y-20131984D02*
X9119325Y-20170079D01*
X9414563Y-20408174D02*
X9405039Y-20398650D01*
X9405039Y-20398650D02*
X9385991Y-20370079D01*
X9385991Y-20370079D02*
X9376468Y-20351031D01*
X9376468Y-20351031D02*
X9366944Y-20322460D01*
X9366944Y-20322460D02*
X9357420Y-20274841D01*
X9357420Y-20274841D02*
X9357420Y-20236746D01*
X9357420Y-20236746D02*
X9366944Y-20189127D01*
X9366944Y-20189127D02*
X9376468Y-20160555D01*
X9376468Y-20160555D02*
X9385991Y-20141508D01*
X9385991Y-20141508D02*
X9405039Y-20112936D01*
X9405039Y-20112936D02*
X9414563Y-20103412D01*
X9481230Y-20151031D02*
X9490753Y-20141508D01*
X9490753Y-20141508D02*
X9509801Y-20131984D01*
X9509801Y-20131984D02*
X9557420Y-20131984D01*
X9557420Y-20131984D02*
X9576468Y-20141508D01*
X9576468Y-20141508D02*
X9585991Y-20151031D01*
X9585991Y-20151031D02*
X9595515Y-20170079D01*
X9595515Y-20170079D02*
X9595515Y-20189127D01*
X9595515Y-20189127D02*
X9585991Y-20217698D01*
X9585991Y-20217698D02*
X9471706Y-20331984D01*
X9471706Y-20331984D02*
X9595515Y-20331984D01*
X9766944Y-20198650D02*
X9766944Y-20331984D01*
X9719325Y-20122460D02*
X9671706Y-20265317D01*
X9671706Y-20265317D02*
X9795515Y-20265317D01*
X10024087Y-20331984D02*
X10024087Y-20131984D01*
X10109801Y-20331984D02*
X10109801Y-20227222D01*
X10109801Y-20227222D02*
X10100277Y-20208174D01*
X10100277Y-20208174D02*
X10081230Y-20198650D01*
X10081230Y-20198650D02*
X10052658Y-20198650D01*
X10052658Y-20198650D02*
X10033611Y-20208174D01*
X10033611Y-20208174D02*
X10024087Y-20217698D01*
X10233611Y-20331984D02*
X10214563Y-20322460D01*
X10214563Y-20322460D02*
X10205039Y-20312936D01*
X10205039Y-20312936D02*
X10195515Y-20293889D01*
X10195515Y-20293889D02*
X10195515Y-20236746D01*
X10195515Y-20236746D02*
X10205039Y-20217698D01*
X10205039Y-20217698D02*
X10214563Y-20208174D01*
X10214563Y-20208174D02*
X10233611Y-20198650D01*
X10233611Y-20198650D02*
X10262182Y-20198650D01*
X10262182Y-20198650D02*
X10281230Y-20208174D01*
X10281230Y-20208174D02*
X10290753Y-20217698D01*
X10290753Y-20217698D02*
X10300277Y-20236746D01*
X10300277Y-20236746D02*
X10300277Y-20293889D01*
X10300277Y-20293889D02*
X10290753Y-20312936D01*
X10290753Y-20312936D02*
X10281230Y-20322460D01*
X10281230Y-20322460D02*
X10262182Y-20331984D01*
X10262182Y-20331984D02*
X10233611Y-20331984D01*
X10414563Y-20331984D02*
X10395515Y-20322460D01*
X10395515Y-20322460D02*
X10385992Y-20303412D01*
X10385992Y-20303412D02*
X10385992Y-20131984D01*
X10566944Y-20322460D02*
X10547896Y-20331984D01*
X10547896Y-20331984D02*
X10509801Y-20331984D01*
X10509801Y-20331984D02*
X10490753Y-20322460D01*
X10490753Y-20322460D02*
X10481230Y-20303412D01*
X10481230Y-20303412D02*
X10481230Y-20227222D01*
X10481230Y-20227222D02*
X10490753Y-20208174D01*
X10490753Y-20208174D02*
X10509801Y-20198650D01*
X10509801Y-20198650D02*
X10547896Y-20198650D01*
X10547896Y-20198650D02*
X10566944Y-20208174D01*
X10566944Y-20208174D02*
X10576468Y-20227222D01*
X10576468Y-20227222D02*
X10576468Y-20246270D01*
X10576468Y-20246270D02*
X10481230Y-20265317D01*
X10652658Y-20322460D02*
X10671706Y-20331984D01*
X10671706Y-20331984D02*
X10709801Y-20331984D01*
X10709801Y-20331984D02*
X10728849Y-20322460D01*
X10728849Y-20322460D02*
X10738373Y-20303412D01*
X10738373Y-20303412D02*
X10738373Y-20293889D01*
X10738373Y-20293889D02*
X10728849Y-20274841D01*
X10728849Y-20274841D02*
X10709801Y-20265317D01*
X10709801Y-20265317D02*
X10681230Y-20265317D01*
X10681230Y-20265317D02*
X10662182Y-20255793D01*
X10662182Y-20255793D02*
X10652658Y-20236746D01*
X10652658Y-20236746D02*
X10652658Y-20227222D01*
X10652658Y-20227222D02*
X10662182Y-20208174D01*
X10662182Y-20208174D02*
X10681230Y-20198650D01*
X10681230Y-20198650D02*
X10709801Y-20198650D01*
X10709801Y-20198650D02*
X10728849Y-20208174D01*
X10805039Y-20408174D02*
X10814563Y-20398650D01*
X10814563Y-20398650D02*
X10833611Y-20370079D01*
X10833611Y-20370079D02*
X10843134Y-20351031D01*
X10843134Y-20351031D02*
X10852658Y-20322460D01*
X10852658Y-20322460D02*
X10862182Y-20274841D01*
X10862182Y-20274841D02*
X10862182Y-20236746D01*
X10862182Y-20236746D02*
X10852658Y-20189127D01*
X10852658Y-20189127D02*
X10843134Y-20160555D01*
X10843134Y-20160555D02*
X10833611Y-20141508D01*
X10833611Y-20141508D02*
X10814563Y-20112936D01*
X10814563Y-20112936D02*
X10805039Y-20103412D01*
D13*
X5737500Y-20453500D02*
X5839500Y-20555500D01*
X5839500Y-20453500D02*
X5737500Y-20555500D01*
X5839500Y-20504500D02*
G75*
G02*
X5737500Y-20504500I-51000J0D01*
G01*
X5737500Y-20504500D02*
G75*
G02*
X5839500Y-20504500I51000J0D01*
G01*
D11*
X6205039Y-20595984D02*
X6090753Y-20595984D01*
X6147896Y-20595984D02*
X6147896Y-20395984D01*
X6147896Y-20395984D02*
X6128848Y-20424555D01*
X6128848Y-20424555D02*
X6109801Y-20443603D01*
X6109801Y-20443603D02*
X6090753Y-20453127D01*
X6290753Y-20576936D02*
X6300277Y-20586460D01*
X6300277Y-20586460D02*
X6290753Y-20595984D01*
X6290753Y-20595984D02*
X6281229Y-20586460D01*
X6281229Y-20586460D02*
X6290753Y-20576936D01*
X6290753Y-20576936D02*
X6290753Y-20595984D01*
X6424086Y-20395984D02*
X6443134Y-20395984D01*
X6443134Y-20395984D02*
X6462182Y-20405508D01*
X6462182Y-20405508D02*
X6471705Y-20415031D01*
X6471705Y-20415031D02*
X6481229Y-20434079D01*
X6481229Y-20434079D02*
X6490753Y-20472174D01*
X6490753Y-20472174D02*
X6490753Y-20519793D01*
X6490753Y-20519793D02*
X6481229Y-20557889D01*
X6481229Y-20557889D02*
X6471705Y-20576936D01*
X6471705Y-20576936D02*
X6462182Y-20586460D01*
X6462182Y-20586460D02*
X6443134Y-20595984D01*
X6443134Y-20595984D02*
X6424086Y-20595984D01*
X6424086Y-20595984D02*
X6405039Y-20586460D01*
X6405039Y-20586460D02*
X6395515Y-20576936D01*
X6395515Y-20576936D02*
X6385991Y-20557889D01*
X6385991Y-20557889D02*
X6376467Y-20519793D01*
X6376467Y-20519793D02*
X6376467Y-20472174D01*
X6376467Y-20472174D02*
X6385991Y-20434079D01*
X6385991Y-20434079D02*
X6395515Y-20415031D01*
X6395515Y-20415031D02*
X6405039Y-20405508D01*
X6405039Y-20405508D02*
X6424086Y-20395984D01*
X6566943Y-20415031D02*
X6576467Y-20405508D01*
X6576467Y-20405508D02*
X6595515Y-20395984D01*
X6595515Y-20395984D02*
X6643134Y-20395984D01*
X6643134Y-20395984D02*
X6662182Y-20405508D01*
X6662182Y-20405508D02*
X6671705Y-20415031D01*
X6671705Y-20415031D02*
X6681229Y-20434079D01*
X6681229Y-20434079D02*
X6681229Y-20453127D01*
X6681229Y-20453127D02*
X6671705Y-20481698D01*
X6671705Y-20481698D02*
X6557420Y-20595984D01*
X6557420Y-20595984D02*
X6681229Y-20595984D01*
X6805039Y-20395984D02*
X6824086Y-20395984D01*
X6824086Y-20395984D02*
X6843134Y-20405508D01*
X6843134Y-20405508D02*
X6852658Y-20415031D01*
X6852658Y-20415031D02*
X6862182Y-20434079D01*
X6862182Y-20434079D02*
X6871705Y-20472174D01*
X6871705Y-20472174D02*
X6871705Y-20519793D01*
X6871705Y-20519793D02*
X6862182Y-20557889D01*
X6862182Y-20557889D02*
X6852658Y-20576936D01*
X6852658Y-20576936D02*
X6843134Y-20586460D01*
X6843134Y-20586460D02*
X6824086Y-20595984D01*
X6824086Y-20595984D02*
X6805039Y-20595984D01*
X6805039Y-20595984D02*
X6785991Y-20586460D01*
X6785991Y-20586460D02*
X6776467Y-20576936D01*
X6776467Y-20576936D02*
X6766943Y-20557889D01*
X6766943Y-20557889D02*
X6757420Y-20519793D01*
X6757420Y-20519793D02*
X6757420Y-20472174D01*
X6757420Y-20472174D02*
X6766943Y-20434079D01*
X6766943Y-20434079D02*
X6776467Y-20415031D01*
X6776467Y-20415031D02*
X6785991Y-20405508D01*
X6785991Y-20405508D02*
X6805039Y-20395984D01*
X6957420Y-20595984D02*
X6957420Y-20462650D01*
X6957420Y-20481698D02*
X6966943Y-20472174D01*
X6966943Y-20472174D02*
X6985991Y-20462650D01*
X6985991Y-20462650D02*
X7014563Y-20462650D01*
X7014563Y-20462650D02*
X7033610Y-20472174D01*
X7033610Y-20472174D02*
X7043134Y-20491222D01*
X7043134Y-20491222D02*
X7043134Y-20595984D01*
X7043134Y-20491222D02*
X7052658Y-20472174D01*
X7052658Y-20472174D02*
X7071705Y-20462650D01*
X7071705Y-20462650D02*
X7100277Y-20462650D01*
X7100277Y-20462650D02*
X7119324Y-20472174D01*
X7119324Y-20472174D02*
X7128848Y-20491222D01*
X7128848Y-20491222D02*
X7128848Y-20595984D01*
X7224086Y-20595984D02*
X7224086Y-20462650D01*
X7224086Y-20481698D02*
X7233610Y-20472174D01*
X7233610Y-20472174D02*
X7252658Y-20462650D01*
X7252658Y-20462650D02*
X7281229Y-20462650D01*
X7281229Y-20462650D02*
X7300277Y-20472174D01*
X7300277Y-20472174D02*
X7309801Y-20491222D01*
X7309801Y-20491222D02*
X7309801Y-20595984D01*
X7309801Y-20491222D02*
X7319324Y-20472174D01*
X7319324Y-20472174D02*
X7338372Y-20462650D01*
X7338372Y-20462650D02*
X7366943Y-20462650D01*
X7366943Y-20462650D02*
X7385991Y-20472174D01*
X7385991Y-20472174D02*
X7395515Y-20491222D01*
X7395515Y-20491222D02*
X7395515Y-20595984D01*
X7785991Y-20386460D02*
X7614563Y-20643603D01*
X8043134Y-20395984D02*
X8062182Y-20395984D01*
X8062182Y-20395984D02*
X8081229Y-20405508D01*
X8081229Y-20405508D02*
X8090753Y-20415031D01*
X8090753Y-20415031D02*
X8100277Y-20434079D01*
X8100277Y-20434079D02*
X8109801Y-20472174D01*
X8109801Y-20472174D02*
X8109801Y-20519793D01*
X8109801Y-20519793D02*
X8100277Y-20557889D01*
X8100277Y-20557889D02*
X8090753Y-20576936D01*
X8090753Y-20576936D02*
X8081229Y-20586460D01*
X8081229Y-20586460D02*
X8062182Y-20595984D01*
X8062182Y-20595984D02*
X8043134Y-20595984D01*
X8043134Y-20595984D02*
X8024086Y-20586460D01*
X8024086Y-20586460D02*
X8014563Y-20576936D01*
X8014563Y-20576936D02*
X8005039Y-20557889D01*
X8005039Y-20557889D02*
X7995515Y-20519793D01*
X7995515Y-20519793D02*
X7995515Y-20472174D01*
X7995515Y-20472174D02*
X8005039Y-20434079D01*
X8005039Y-20434079D02*
X8014563Y-20415031D01*
X8014563Y-20415031D02*
X8024086Y-20405508D01*
X8024086Y-20405508D02*
X8043134Y-20395984D01*
X8195515Y-20576936D02*
X8205039Y-20586460D01*
X8205039Y-20586460D02*
X8195515Y-20595984D01*
X8195515Y-20595984D02*
X8185991Y-20586460D01*
X8185991Y-20586460D02*
X8195515Y-20576936D01*
X8195515Y-20576936D02*
X8195515Y-20595984D01*
X8328848Y-20395984D02*
X8347896Y-20395984D01*
X8347896Y-20395984D02*
X8366944Y-20405508D01*
X8366944Y-20405508D02*
X8376467Y-20415031D01*
X8376467Y-20415031D02*
X8385991Y-20434079D01*
X8385991Y-20434079D02*
X8395515Y-20472174D01*
X8395515Y-20472174D02*
X8395515Y-20519793D01*
X8395515Y-20519793D02*
X8385991Y-20557889D01*
X8385991Y-20557889D02*
X8376467Y-20576936D01*
X8376467Y-20576936D02*
X8366944Y-20586460D01*
X8366944Y-20586460D02*
X8347896Y-20595984D01*
X8347896Y-20595984D02*
X8328848Y-20595984D01*
X8328848Y-20595984D02*
X8309801Y-20586460D01*
X8309801Y-20586460D02*
X8300277Y-20576936D01*
X8300277Y-20576936D02*
X8290753Y-20557889D01*
X8290753Y-20557889D02*
X8281229Y-20519793D01*
X8281229Y-20519793D02*
X8281229Y-20472174D01*
X8281229Y-20472174D02*
X8290753Y-20434079D01*
X8290753Y-20434079D02*
X8300277Y-20415031D01*
X8300277Y-20415031D02*
X8309801Y-20405508D01*
X8309801Y-20405508D02*
X8328848Y-20395984D01*
X8566944Y-20462650D02*
X8566944Y-20595984D01*
X8519325Y-20386460D02*
X8471706Y-20529317D01*
X8471706Y-20529317D02*
X8595515Y-20529317D01*
X8709801Y-20395984D02*
X8728849Y-20395984D01*
X8728849Y-20395984D02*
X8747896Y-20405508D01*
X8747896Y-20405508D02*
X8757420Y-20415031D01*
X8757420Y-20415031D02*
X8766944Y-20434079D01*
X8766944Y-20434079D02*
X8776468Y-20472174D01*
X8776468Y-20472174D02*
X8776468Y-20519793D01*
X8776468Y-20519793D02*
X8766944Y-20557889D01*
X8766944Y-20557889D02*
X8757420Y-20576936D01*
X8757420Y-20576936D02*
X8747896Y-20586460D01*
X8747896Y-20586460D02*
X8728849Y-20595984D01*
X8728849Y-20595984D02*
X8709801Y-20595984D01*
X8709801Y-20595984D02*
X8690753Y-20586460D01*
X8690753Y-20586460D02*
X8681229Y-20576936D01*
X8681229Y-20576936D02*
X8671706Y-20557889D01*
X8671706Y-20557889D02*
X8662182Y-20519793D01*
X8662182Y-20519793D02*
X8662182Y-20472174D01*
X8662182Y-20472174D02*
X8671706Y-20434079D01*
X8671706Y-20434079D02*
X8681229Y-20415031D01*
X8681229Y-20415031D02*
X8690753Y-20405508D01*
X8690753Y-20405508D02*
X8709801Y-20395984D01*
X8852658Y-20415031D02*
X8862182Y-20405508D01*
X8862182Y-20405508D02*
X8881229Y-20395984D01*
X8881229Y-20395984D02*
X8928849Y-20395984D01*
X8928849Y-20395984D02*
X8947896Y-20405508D01*
X8947896Y-20405508D02*
X8957420Y-20415031D01*
X8957420Y-20415031D02*
X8966944Y-20434079D01*
X8966944Y-20434079D02*
X8966944Y-20453127D01*
X8966944Y-20453127D02*
X8957420Y-20481698D01*
X8957420Y-20481698D02*
X8843134Y-20595984D01*
X8843134Y-20595984D02*
X8966944Y-20595984D01*
X9043134Y-20395984D02*
X9043134Y-20434079D01*
X9119325Y-20395984D02*
X9119325Y-20434079D01*
X9414563Y-20672174D02*
X9405039Y-20662650D01*
X9405039Y-20662650D02*
X9385991Y-20634079D01*
X9385991Y-20634079D02*
X9376468Y-20615031D01*
X9376468Y-20615031D02*
X9366944Y-20586460D01*
X9366944Y-20586460D02*
X9357420Y-20538841D01*
X9357420Y-20538841D02*
X9357420Y-20500746D01*
X9357420Y-20500746D02*
X9366944Y-20453127D01*
X9366944Y-20453127D02*
X9376468Y-20424555D01*
X9376468Y-20424555D02*
X9385991Y-20405508D01*
X9385991Y-20405508D02*
X9405039Y-20376936D01*
X9405039Y-20376936D02*
X9414563Y-20367412D01*
X9576468Y-20462650D02*
X9576468Y-20595984D01*
X9528849Y-20386460D02*
X9481230Y-20529317D01*
X9481230Y-20529317D02*
X9605039Y-20529317D01*
X9719325Y-20395984D02*
X9738372Y-20395984D01*
X9738372Y-20395984D02*
X9757420Y-20405508D01*
X9757420Y-20405508D02*
X9766944Y-20415031D01*
X9766944Y-20415031D02*
X9776468Y-20434079D01*
X9776468Y-20434079D02*
X9785991Y-20472174D01*
X9785991Y-20472174D02*
X9785991Y-20519793D01*
X9785991Y-20519793D02*
X9776468Y-20557889D01*
X9776468Y-20557889D02*
X9766944Y-20576936D01*
X9766944Y-20576936D02*
X9757420Y-20586460D01*
X9757420Y-20586460D02*
X9738372Y-20595984D01*
X9738372Y-20595984D02*
X9719325Y-20595984D01*
X9719325Y-20595984D02*
X9700277Y-20586460D01*
X9700277Y-20586460D02*
X9690753Y-20576936D01*
X9690753Y-20576936D02*
X9681230Y-20557889D01*
X9681230Y-20557889D02*
X9671706Y-20519793D01*
X9671706Y-20519793D02*
X9671706Y-20472174D01*
X9671706Y-20472174D02*
X9681230Y-20434079D01*
X9681230Y-20434079D02*
X9690753Y-20415031D01*
X9690753Y-20415031D02*
X9700277Y-20405508D01*
X9700277Y-20405508D02*
X9719325Y-20395984D01*
X10024087Y-20595984D02*
X10024087Y-20395984D01*
X10109801Y-20595984D02*
X10109801Y-20491222D01*
X10109801Y-20491222D02*
X10100277Y-20472174D01*
X10100277Y-20472174D02*
X10081230Y-20462650D01*
X10081230Y-20462650D02*
X10052658Y-20462650D01*
X10052658Y-20462650D02*
X10033611Y-20472174D01*
X10033611Y-20472174D02*
X10024087Y-20481698D01*
X10233611Y-20595984D02*
X10214563Y-20586460D01*
X10214563Y-20586460D02*
X10205039Y-20576936D01*
X10205039Y-20576936D02*
X10195515Y-20557889D01*
X10195515Y-20557889D02*
X10195515Y-20500746D01*
X10195515Y-20500746D02*
X10205039Y-20481698D01*
X10205039Y-20481698D02*
X10214563Y-20472174D01*
X10214563Y-20472174D02*
X10233611Y-20462650D01*
X10233611Y-20462650D02*
X10262182Y-20462650D01*
X10262182Y-20462650D02*
X10281230Y-20472174D01*
X10281230Y-20472174D02*
X10290753Y-20481698D01*
X10290753Y-20481698D02*
X10300277Y-20500746D01*
X10300277Y-20500746D02*
X10300277Y-20557889D01*
X10300277Y-20557889D02*
X10290753Y-20576936D01*
X10290753Y-20576936D02*
X10281230Y-20586460D01*
X10281230Y-20586460D02*
X10262182Y-20595984D01*
X10262182Y-20595984D02*
X10233611Y-20595984D01*
X10414563Y-20595984D02*
X10395515Y-20586460D01*
X10395515Y-20586460D02*
X10385992Y-20567412D01*
X10385992Y-20567412D02*
X10385992Y-20395984D01*
X10566944Y-20586460D02*
X10547896Y-20595984D01*
X10547896Y-20595984D02*
X10509801Y-20595984D01*
X10509801Y-20595984D02*
X10490753Y-20586460D01*
X10490753Y-20586460D02*
X10481230Y-20567412D01*
X10481230Y-20567412D02*
X10481230Y-20491222D01*
X10481230Y-20491222D02*
X10490753Y-20472174D01*
X10490753Y-20472174D02*
X10509801Y-20462650D01*
X10509801Y-20462650D02*
X10547896Y-20462650D01*
X10547896Y-20462650D02*
X10566944Y-20472174D01*
X10566944Y-20472174D02*
X10576468Y-20491222D01*
X10576468Y-20491222D02*
X10576468Y-20510270D01*
X10576468Y-20510270D02*
X10481230Y-20529317D01*
X10652658Y-20586460D02*
X10671706Y-20595984D01*
X10671706Y-20595984D02*
X10709801Y-20595984D01*
X10709801Y-20595984D02*
X10728849Y-20586460D01*
X10728849Y-20586460D02*
X10738373Y-20567412D01*
X10738373Y-20567412D02*
X10738373Y-20557889D01*
X10738373Y-20557889D02*
X10728849Y-20538841D01*
X10728849Y-20538841D02*
X10709801Y-20529317D01*
X10709801Y-20529317D02*
X10681230Y-20529317D01*
X10681230Y-20529317D02*
X10662182Y-20519793D01*
X10662182Y-20519793D02*
X10652658Y-20500746D01*
X10652658Y-20500746D02*
X10652658Y-20491222D01*
X10652658Y-20491222D02*
X10662182Y-20472174D01*
X10662182Y-20472174D02*
X10681230Y-20462650D01*
X10681230Y-20462650D02*
X10709801Y-20462650D01*
X10709801Y-20462650D02*
X10728849Y-20472174D01*
X10805039Y-20672174D02*
X10814563Y-20662650D01*
X10814563Y-20662650D02*
X10833611Y-20634079D01*
X10833611Y-20634079D02*
X10843134Y-20615031D01*
X10843134Y-20615031D02*
X10852658Y-20586460D01*
X10852658Y-20586460D02*
X10862182Y-20538841D01*
X10862182Y-20538841D02*
X10862182Y-20500746D01*
X10862182Y-20500746D02*
X10852658Y-20453127D01*
X10852658Y-20453127D02*
X10843134Y-20424555D01*
X10843134Y-20424555D02*
X10833611Y-20405508D01*
X10833611Y-20405508D02*
X10814563Y-20376936D01*
X10814563Y-20376936D02*
X10805039Y-20367412D01*
M02*
