%TF.GenerationSoftware,KiCad,Pcbnew,9.0.1*%
%TF.CreationDate,2025-11-26T15:32:07+09:00*%
%TF.ProjectId,BNO055only,424e4f30-3535-46f6-9e6c-792e6b696361,rev?*%
%TF.SameCoordinates,Original*%
%TF.FileFunction,Copper,L2,Bot*%
%TF.FilePolarity,Positive*%
%FSLAX46Y46*%
G04 Gerber Fmt 4.6, Leading zero omitted, Abs format (unit mm)*
G04 Created by KiCad (PCBNEW 9.0.1) date 2025-11-26 15:32:07*
%MOMM*%
%LPD*%
G01*
G04 APERTURE LIST*
G04 Aperture macros list*
%AMRoundRect*
0 Rectangle with rounded corners*
0 $1 Rounding radius*
0 $2 $3 $4 $5 $6 $7 $8 $9 X,Y pos of 4 corners*
0 Add a 4 corners polygon primitive as box body*
4,1,4,$2,$3,$4,$5,$6,$7,$8,$9,$2,$3,0*
0 Add four circle primitives for the rounded corners*
1,1,$1+$1,$2,$3*
1,1,$1+$1,$4,$5*
1,1,$1+$1,$6,$7*
1,1,$1+$1,$8,$9*
0 Add four rect primitives between the rounded corners*
20,1,$1+$1,$2,$3,$4,$5,0*
20,1,$1+$1,$4,$5,$6,$7,0*
20,1,$1+$1,$6,$7,$8,$9,0*
20,1,$1+$1,$8,$9,$2,$3,0*%
G04 Aperture macros list end*
%TA.AperFunction,ComponentPad*%
%ADD10C,1.600000*%
%TD*%
%TA.AperFunction,ComponentPad*%
%ADD11RoundRect,0.250000X-0.550000X-0.550000X0.550000X-0.550000X0.550000X0.550000X-0.550000X0.550000X0*%
%TD*%
%TA.AperFunction,ComponentPad*%
%ADD12RoundRect,0.264706X-0.635294X-0.710294X0.635294X-0.710294X0.635294X0.710294X-0.635294X0.710294X0*%
%TD*%
%TA.AperFunction,ComponentPad*%
%ADD13O,1.800000X1.950000*%
%TD*%
%TA.AperFunction,ViaPad*%
%ADD14C,0.800000*%
%TD*%
%TA.AperFunction,Conductor*%
%ADD15C,0.500000*%
%TD*%
G04 APERTURE END LIST*
D10*
%TO.P,U1,8,RST*%
%TO.N,unconnected-(U1-RST-Pad8)*%
X134685000Y-86360000D03*
%TO.P,U1,7,INT*%
%TO.N,unconnected-(U1-INT-Pad7)*%
X134685000Y-88900000D03*
%TO.P,U1,6,GND*%
%TO.N,unconnected-(U1-GND-Pad6)*%
X134685000Y-91440000D03*
%TO.P,U1,5,Vout*%
%TO.N,unconnected-(U1-Vout-Pad5)*%
X134685000Y-93980000D03*
%TO.P,U1,4,SCL*%
%TO.N,Net-(J1-Pin_4)*%
X127065000Y-93980000D03*
%TO.P,U1,3,SDA*%
%TO.N,Net-(J1-Pin_3)*%
X127065000Y-91440000D03*
%TO.P,U1,2,GND*%
%TO.N,GND*%
X127065000Y-88900000D03*
D11*
%TO.P,U1,1,Vin*%
%TO.N,VCC*%
X127065000Y-86360000D03*
%TD*%
D12*
%TO.P,J1,1,Pin_1*%
%TO.N,VCC*%
X127120000Y-99060000D03*
D13*
%TO.P,J1,2,Pin_2*%
%TO.N,GND*%
X129620000Y-99060000D03*
%TO.P,J1,3,Pin_3*%
%TO.N,Net-(J1-Pin_3)*%
X132120000Y-99060000D03*
%TO.P,J1,4,Pin_4*%
%TO.N,Net-(J1-Pin_4)*%
X134620000Y-99060000D03*
%TD*%
D14*
%TO.N,GND*%
X130870000Y-96520000D03*
X128330000Y-88900000D03*
%TD*%
D15*
%TO.N,GND*%
X130870000Y-97810000D02*
X129620000Y-99060000D01*
X130870000Y-96520000D02*
X130870000Y-97810000D01*
X127065000Y-88900000D02*
X128330000Y-88900000D01*
%TO.N,Net-(J1-Pin_3)*%
X134660000Y-101600000D02*
X132120000Y-99060000D01*
X135950000Y-101600000D02*
X134660000Y-101600000D01*
X137739000Y-99811000D02*
X135950000Y-101600000D01*
X137739000Y-85609000D02*
X137739000Y-99811000D01*
X135950000Y-83820000D02*
X137739000Y-85609000D01*
X133410000Y-83820000D02*
X135950000Y-83820000D01*
X130870000Y-86360000D02*
X133410000Y-83820000D01*
X130870000Y-88900000D02*
X130870000Y-86360000D01*
X128330000Y-91440000D02*
X130870000Y-88900000D01*
X127065000Y-91440000D02*
X128330000Y-91440000D01*
%TO.N,Net-(J1-Pin_4)*%
X134620000Y-97730000D02*
X134620000Y-99060000D01*
X130870000Y-93980000D02*
X134620000Y-97730000D01*
X127065000Y-93980000D02*
X130870000Y-93980000D01*
%TO.N,Net-(J1-Pin_3)*%
X132120000Y-98415000D02*
X132120000Y-99060000D01*
%TO.N,VCC*%
X127120000Y-97850000D02*
X127120000Y-99060000D01*
X124001000Y-94731000D02*
X127120000Y-97850000D01*
X124001000Y-88149000D02*
X124001000Y-94731000D01*
X125790000Y-86360000D02*
X124001000Y-88149000D01*
X127065000Y-86360000D02*
X125790000Y-86360000D01*
%TD*%
%TA.AperFunction,Conductor*%
%TO.N,GND*%
G36*
X125920833Y-87393047D02*
G01*
X125965180Y-87421548D01*
X126046344Y-87502712D01*
X126195666Y-87594814D01*
X126278152Y-87622147D01*
X126335597Y-87661920D01*
X126362420Y-87726436D01*
X126350105Y-87795212D01*
X126340143Y-87806975D01*
X126339077Y-87820524D01*
X127018554Y-88500000D01*
X127012339Y-88500000D01*
X126910606Y-88527259D01*
X126819394Y-88579920D01*
X126744920Y-88654394D01*
X126692259Y-88745606D01*
X126665000Y-88847339D01*
X126665000Y-88853553D01*
X125985524Y-88174077D01*
X125985523Y-88174077D01*
X125953143Y-88218644D01*
X125860244Y-88400968D01*
X125797009Y-88595582D01*
X125765000Y-88797682D01*
X125765000Y-89002317D01*
X125797009Y-89204417D01*
X125860244Y-89399031D01*
X125953141Y-89581350D01*
X125953147Y-89581359D01*
X125985523Y-89625921D01*
X125985524Y-89625922D01*
X126665000Y-88946446D01*
X126665000Y-88952661D01*
X126692259Y-89054394D01*
X126744920Y-89145606D01*
X126819394Y-89220080D01*
X126910606Y-89272741D01*
X127012339Y-89300000D01*
X127018553Y-89300000D01*
X126339076Y-89979474D01*
X126383652Y-90011861D01*
X126476628Y-90059234D01*
X126527425Y-90107208D01*
X126544220Y-90175029D01*
X126521683Y-90241164D01*
X126476630Y-90280203D01*
X126383388Y-90327713D01*
X126217786Y-90448028D01*
X126073028Y-90592786D01*
X125952715Y-90758386D01*
X125859781Y-90940776D01*
X125796522Y-91135465D01*
X125764500Y-91337648D01*
X125764500Y-91542351D01*
X125796522Y-91744534D01*
X125859781Y-91939223D01*
X125952715Y-92121613D01*
X126073028Y-92287213D01*
X126217786Y-92431971D01*
X126372749Y-92544556D01*
X126383390Y-92552287D01*
X126474840Y-92598883D01*
X126476080Y-92599515D01*
X126526876Y-92647490D01*
X126543671Y-92715311D01*
X126521134Y-92781446D01*
X126476080Y-92820485D01*
X126383386Y-92867715D01*
X126217786Y-92988028D01*
X126073028Y-93132786D01*
X125952715Y-93298386D01*
X125859781Y-93480776D01*
X125796522Y-93675465D01*
X125764500Y-93877648D01*
X125764500Y-94082351D01*
X125796522Y-94284534D01*
X125859781Y-94479223D01*
X125952715Y-94661613D01*
X126073028Y-94827213D01*
X126217786Y-94971971D01*
X126372749Y-95084556D01*
X126383390Y-95092287D01*
X126468646Y-95135727D01*
X126565776Y-95185218D01*
X126565778Y-95185218D01*
X126565781Y-95185220D01*
X126640249Y-95209416D01*
X126760465Y-95248477D01*
X126861557Y-95264488D01*
X126962648Y-95280500D01*
X126962649Y-95280500D01*
X127167351Y-95280500D01*
X127167352Y-95280500D01*
X127369534Y-95248477D01*
X127564219Y-95185220D01*
X127746610Y-95092287D01*
X127839590Y-95024732D01*
X127912213Y-94971971D01*
X127912215Y-94971968D01*
X127912219Y-94971966D01*
X128056966Y-94827219D01*
X128073169Y-94804918D01*
X128090100Y-94781615D01*
X128145429Y-94738949D01*
X128190418Y-94730500D01*
X130507770Y-94730500D01*
X130574809Y-94750185D01*
X130595451Y-94766819D01*
X133638831Y-97810199D01*
X133672316Y-97871522D01*
X133667332Y-97941214D01*
X133638832Y-97985561D01*
X133551751Y-98072642D01*
X133470318Y-98184727D01*
X133414989Y-98227393D01*
X133345375Y-98233372D01*
X133283580Y-98200767D01*
X133269682Y-98184727D01*
X133188247Y-98072641D01*
X133188243Y-98072636D01*
X133032363Y-97916756D01*
X133032358Y-97916752D01*
X132854025Y-97787187D01*
X132854024Y-97787186D01*
X132854022Y-97787185D01*
X132791096Y-97755122D01*
X132657606Y-97687104D01*
X132657603Y-97687103D01*
X132447952Y-97618985D01*
X132297804Y-97595204D01*
X132230222Y-97584500D01*
X132009778Y-97584500D01*
X131942196Y-97595204D01*
X131792047Y-97618985D01*
X131582396Y-97687103D01*
X131582393Y-97687104D01*
X131385974Y-97787187D01*
X131207641Y-97916752D01*
X131207636Y-97916756D01*
X131051756Y-98072636D01*
X131051752Y-98072641D01*
X130970008Y-98185153D01*
X130914678Y-98227819D01*
X130845065Y-98233798D01*
X130783270Y-98201192D01*
X130769372Y-98185153D01*
X130687862Y-98072964D01*
X130687857Y-98072958D01*
X130532041Y-97917142D01*
X130353760Y-97787613D01*
X130157410Y-97687567D01*
X129947836Y-97619473D01*
X129870000Y-97607144D01*
X129870000Y-98626988D01*
X129812993Y-98594075D01*
X129685826Y-98560000D01*
X129554174Y-98560000D01*
X129427007Y-98594075D01*
X129370000Y-98626988D01*
X129370000Y-97607144D01*
X129292164Y-97619473D01*
X129292161Y-97619473D01*
X129082589Y-97687567D01*
X128886239Y-97787613D01*
X128707962Y-97917139D01*
X128620673Y-98004428D01*
X128559349Y-98037912D01*
X128489658Y-98032928D01*
X128433724Y-97991056D01*
X128427458Y-97981850D01*
X128359620Y-97871867D01*
X128233133Y-97745380D01*
X128133824Y-97684126D01*
X128080887Y-97651474D01*
X128080882Y-97651472D01*
X127911086Y-97595207D01*
X127911071Y-97595204D01*
X127896700Y-97593736D01*
X127832009Y-97567338D01*
X127794746Y-97517831D01*
X127785087Y-97494512D01*
X127785086Y-97494511D01*
X127785084Y-97494505D01*
X127704905Y-97374509D01*
X127702954Y-97371588D01*
X127702953Y-97371587D01*
X127702951Y-97371584D01*
X127598416Y-97267049D01*
X124787819Y-94456451D01*
X124754334Y-94395128D01*
X124751500Y-94368770D01*
X124751500Y-88511229D01*
X124771185Y-88444190D01*
X124787814Y-88423552D01*
X125789820Y-87421546D01*
X125851141Y-87388063D01*
X125920833Y-87393047D01*
G37*
%TD.AperFunction*%
%TA.AperFunction,Conductor*%
G36*
X139142539Y-81800185D02*
G01*
X139188294Y-81852989D01*
X139199500Y-81904500D01*
X139199500Y-103515500D01*
X139179815Y-103582539D01*
X139127011Y-103628294D01*
X139075500Y-103639500D01*
X122544500Y-103639500D01*
X122477461Y-103619815D01*
X122431706Y-103567011D01*
X122420500Y-103515500D01*
X122420500Y-94804920D01*
X123250499Y-94804920D01*
X123279340Y-94949907D01*
X123279343Y-94949917D01*
X123335914Y-95086492D01*
X123368812Y-95135727D01*
X123368813Y-95135730D01*
X123418046Y-95209414D01*
X123418052Y-95209421D01*
X125892758Y-97684126D01*
X125926243Y-97745449D01*
X125921259Y-97815141D01*
X125892761Y-97859486D01*
X125880380Y-97871867D01*
X125786474Y-98024112D01*
X125786472Y-98024117D01*
X125730207Y-98193914D01*
X125730206Y-98193921D01*
X125719500Y-98298711D01*
X125719500Y-99821273D01*
X125719501Y-99821290D01*
X125730206Y-99926084D01*
X125730207Y-99926087D01*
X125786472Y-100095882D01*
X125786474Y-100095887D01*
X125798616Y-100115572D01*
X125880380Y-100248133D01*
X126006867Y-100374620D01*
X126159115Y-100468527D01*
X126328915Y-100524793D01*
X126433719Y-100535500D01*
X127806280Y-100535499D01*
X127806288Y-100535498D01*
X127806291Y-100535498D01*
X127863679Y-100529635D01*
X127911085Y-100524793D01*
X128080885Y-100468527D01*
X128233133Y-100374620D01*
X128359620Y-100248133D01*
X128427454Y-100138155D01*
X128479401Y-100091432D01*
X128548363Y-100080209D01*
X128612445Y-100108052D01*
X128620673Y-100115572D01*
X128707958Y-100202857D01*
X128886239Y-100332386D01*
X129082589Y-100432432D01*
X129292163Y-100500526D01*
X129369999Y-100512854D01*
X129370000Y-100512854D01*
X129370000Y-99493012D01*
X129427007Y-99525925D01*
X129554174Y-99560000D01*
X129685826Y-99560000D01*
X129812993Y-99525925D01*
X129870000Y-99493012D01*
X129870000Y-100512854D01*
X129947834Y-100500526D01*
X129947837Y-100500526D01*
X130157410Y-100432432D01*
X130353760Y-100332386D01*
X130532041Y-100202857D01*
X130687856Y-100047042D01*
X130769371Y-99934846D01*
X130824701Y-99892180D01*
X130894315Y-99886201D01*
X130956110Y-99918806D01*
X130970008Y-99934846D01*
X131051752Y-100047359D01*
X131207638Y-100203245D01*
X131326240Y-100289413D01*
X131385978Y-100332815D01*
X131514375Y-100398237D01*
X131582393Y-100432895D01*
X131582396Y-100432896D01*
X131687221Y-100466955D01*
X131792049Y-100501015D01*
X132009778Y-100535500D01*
X132009779Y-100535500D01*
X132230221Y-100535500D01*
X132230222Y-100535500D01*
X132430176Y-100503830D01*
X132499468Y-100512784D01*
X132537254Y-100538622D01*
X134077048Y-102078415D01*
X134077049Y-102078416D01*
X134181583Y-102182950D01*
X134181585Y-102182952D01*
X134304498Y-102265080D01*
X134304511Y-102265087D01*
X134441082Y-102321656D01*
X134441087Y-102321658D01*
X134441091Y-102321658D01*
X134441092Y-102321659D01*
X134586079Y-102350500D01*
X134586082Y-102350500D01*
X136023920Y-102350500D01*
X136121462Y-102331096D01*
X136168913Y-102321658D01*
X136305495Y-102265084D01*
X136354729Y-102232186D01*
X136428416Y-102182952D01*
X138321952Y-100289416D01*
X138379530Y-100203242D01*
X138404084Y-100166495D01*
X138460658Y-100029913D01*
X138470096Y-99982462D01*
X138489500Y-99884920D01*
X138489500Y-85535079D01*
X138460659Y-85390092D01*
X138460658Y-85390091D01*
X138460658Y-85390087D01*
X138404084Y-85253505D01*
X138371186Y-85204270D01*
X138371185Y-85204268D01*
X138321956Y-85130589D01*
X138321952Y-85130584D01*
X136428421Y-83237052D01*
X136428414Y-83237046D01*
X136354729Y-83187812D01*
X136354729Y-83187813D01*
X136305491Y-83154913D01*
X136168917Y-83098343D01*
X136168907Y-83098340D01*
X136023920Y-83069500D01*
X136023918Y-83069500D01*
X133336082Y-83069500D01*
X133336080Y-83069500D01*
X133191092Y-83098340D01*
X133191082Y-83098343D01*
X133054511Y-83154912D01*
X133054498Y-83154919D01*
X132931584Y-83237048D01*
X132931580Y-83237051D01*
X130287052Y-85881578D01*
X130287049Y-85881581D01*
X130252390Y-85933452D01*
X130252391Y-85933453D01*
X130204914Y-86004508D01*
X130148343Y-86141082D01*
X130148340Y-86141092D01*
X130119500Y-86286079D01*
X130119500Y-88537769D01*
X130099815Y-88604808D01*
X130083181Y-88625450D01*
X128174089Y-90534542D01*
X128112766Y-90568027D01*
X128043074Y-90563043D01*
X127998727Y-90534542D01*
X127912213Y-90448028D01*
X127746611Y-90327713D01*
X127653369Y-90280203D01*
X127602574Y-90232229D01*
X127585779Y-90164407D01*
X127608317Y-90098273D01*
X127653371Y-90059234D01*
X127746346Y-90011861D01*
X127746347Y-90011861D01*
X127790921Y-89979474D01*
X127111447Y-89300000D01*
X127117661Y-89300000D01*
X127219394Y-89272741D01*
X127310606Y-89220080D01*
X127385080Y-89145606D01*
X127437741Y-89054394D01*
X127465000Y-88952661D01*
X127465000Y-88946447D01*
X128144474Y-89625921D01*
X128176859Y-89581349D01*
X128269755Y-89399031D01*
X128332990Y-89204417D01*
X128365000Y-89002317D01*
X128365000Y-88797682D01*
X128332990Y-88595582D01*
X128269755Y-88400968D01*
X128176859Y-88218650D01*
X128144474Y-88174077D01*
X128144474Y-88174076D01*
X127465000Y-88853551D01*
X127465000Y-88847339D01*
X127437741Y-88745606D01*
X127385080Y-88654394D01*
X127310606Y-88579920D01*
X127219394Y-88527259D01*
X127117661Y-88500000D01*
X127111446Y-88500000D01*
X127790922Y-87820524D01*
X127789570Y-87803349D01*
X127775299Y-87784842D01*
X127769320Y-87715229D01*
X127801925Y-87653433D01*
X127851845Y-87622148D01*
X127934334Y-87594814D01*
X128083656Y-87502712D01*
X128207712Y-87378656D01*
X128299814Y-87229334D01*
X128354999Y-87062797D01*
X128365500Y-86960009D01*
X128365499Y-85759992D01*
X128354999Y-85657203D01*
X128299814Y-85490666D01*
X128207712Y-85341344D01*
X128083656Y-85217288D01*
X127934334Y-85125186D01*
X127767797Y-85070001D01*
X127767795Y-85070000D01*
X127665010Y-85059500D01*
X126464998Y-85059500D01*
X126464981Y-85059501D01*
X126362203Y-85070000D01*
X126362200Y-85070001D01*
X126195668Y-85125185D01*
X126195663Y-85125187D01*
X126046342Y-85217289D01*
X125922289Y-85341342D01*
X125830187Y-85490663D01*
X125830184Y-85490672D01*
X125818678Y-85525393D01*
X125778905Y-85582837D01*
X125721718Y-85606611D01*
X125722057Y-85608311D01*
X125571092Y-85638340D01*
X125571086Y-85638342D01*
X125434508Y-85694914D01*
X125434496Y-85694921D01*
X125385269Y-85727813D01*
X125311588Y-85777044D01*
X125311580Y-85777050D01*
X123418050Y-87670580D01*
X123418044Y-87670588D01*
X123368812Y-87744268D01*
X123368813Y-87744269D01*
X123335921Y-87793496D01*
X123335914Y-87793508D01*
X123279342Y-87930086D01*
X123279340Y-87930092D01*
X123250500Y-88075079D01*
X123250500Y-88075082D01*
X123250500Y-94804918D01*
X123250500Y-94804920D01*
X123250499Y-94804920D01*
X122420500Y-94804920D01*
X122420500Y-81904500D01*
X122440185Y-81837461D01*
X122492989Y-81791706D01*
X122544500Y-81780500D01*
X139075500Y-81780500D01*
X139142539Y-81800185D01*
G37*
%TD.AperFunction*%
%TD*%
M02*
