%TF.GenerationSoftware,KiCad,Pcbnew,9.0.1*%
%TF.CreationDate,2025-11-26T15:32:07+09:00*%
%TF.ProjectId,BNO055only,424e4f30-3535-46f6-9e6c-792e6b696361,rev?*%
%TF.SameCoordinates,Original*%
%TF.FileFunction,Legend,Top*%
%TF.FilePolarity,Positive*%
%FSLAX46Y46*%
G04 Gerber Fmt 4.6, Leading zero omitted, Abs format (unit mm)*
G04 Created by KiCad (PCBNEW 9.0.1) date 2025-11-26 15:32:07*
%MOMM*%
%LPD*%
G01*
G04 APERTURE LIST*
%ADD10C,0.120000*%
G04 APERTURE END LIST*
D10*
%TO.C,U1*%
X131875000Y-85030000D02*
G75*
G02*
X129875000Y-85030000I-1000000J0D01*
G01*
X133525000Y-95310000D02*
X133525000Y-85030000D01*
X133525000Y-85030000D02*
X131875000Y-85030000D01*
X129875000Y-85030000D02*
X128225000Y-85030000D01*
X128225000Y-95310000D02*
X133525000Y-95310000D01*
X128225000Y-85030000D02*
X128225000Y-95310000D01*
%TO.C,J1*%
X137180000Y-102570000D02*
X137180000Y-96600000D01*
X137180000Y-96600000D02*
X124560000Y-96600000D01*
X137170000Y-98860000D02*
X136420000Y-98860000D01*
X137170000Y-97360000D02*
X137170000Y-96610000D01*
X137170000Y-96610000D02*
X135370000Y-96610000D01*
X136420000Y-101810000D02*
X130870000Y-101810000D01*
X136420000Y-98860000D02*
X136420000Y-101810000D01*
X135370000Y-97360000D02*
X137170000Y-97360000D01*
X135370000Y-96610000D02*
X135370000Y-97360000D01*
X133870000Y-97360000D02*
X133870000Y-96610000D01*
X133870000Y-96610000D02*
X127870000Y-96610000D01*
X127870000Y-97360000D02*
X133870000Y-97360000D01*
X127870000Y-96610000D02*
X127870000Y-97360000D01*
X126370000Y-97360000D02*
X126370000Y-96610000D01*
X126370000Y-96610000D02*
X124570000Y-96610000D01*
X125520000Y-96310000D02*
X124270000Y-96310000D01*
X125320000Y-101810000D02*
X130870000Y-101810000D01*
X125320000Y-98860000D02*
X125320000Y-101810000D01*
X124570000Y-98860000D02*
X125320000Y-98860000D01*
X124570000Y-97360000D02*
X126370000Y-97360000D01*
X124570000Y-96610000D02*
X124570000Y-97360000D01*
X124560000Y-102570000D02*
X137180000Y-102570000D01*
X124560000Y-96600000D02*
X124560000Y-102570000D01*
X124270000Y-96310000D02*
X124270000Y-97560000D01*
%TD*%
M02*
