%TF.GenerationSoftware,KiCad,Pcbnew,9.0.1*%
%TF.CreationDate,2025-11-26T15:32:10+09:00*%
%TF.ProjectId,BNO055only,424e4f30-3535-46f6-9e6c-792e6b696361,rev?*%
%TF.SameCoordinates,Original*%
%TF.FileFunction,Drillmap*%
%TF.FilePolarity,Positive*%
%FSLAX45Y45*%
G04 Gerber Fmt 4.5, Leading zero omitted, Abs format (unit mm)*
G04 Created by KiCad (PCBNEW 9.0.1) date 2025-11-26 15:32:10*
%MOMM*%
%LPD*%
G01*
G04 APERTURE LIST*
%ADD10C,0.050000*%
%ADD11C,0.200000*%
%ADD12C,0.100000*%
G04 APERTURE END LIST*
D10*
X12192000Y-8128000D02*
X13970000Y-8128000D01*
X13970000Y-10414000D01*
X12192000Y-10414000D01*
X12192000Y-8128000D01*
D11*
D12*
X12813000Y-8870000D02*
X12853000Y-8910000D01*
X12853000Y-8870000D02*
X12813000Y-8910000D01*
X13067000Y-9632000D02*
X13107000Y-9672000D01*
X13107000Y-9632000D02*
X13067000Y-9672000D01*
X12746500Y-8636000D02*
G75*
G02*
X12666500Y-8636000I-40000J0D01*
G01*
X12666500Y-8636000D02*
G75*
G02*
X12746500Y-8636000I40000J0D01*
G01*
X12746500Y-8890000D02*
G75*
G02*
X12666500Y-8890000I-40000J0D01*
G01*
X12666500Y-8890000D02*
G75*
G02*
X12746500Y-8890000I40000J0D01*
G01*
X12746500Y-9144000D02*
G75*
G02*
X12666500Y-9144000I-40000J0D01*
G01*
X12666500Y-9144000D02*
G75*
G02*
X12746500Y-9144000I40000J0D01*
G01*
X12746500Y-9398000D02*
G75*
G02*
X12666500Y-9398000I-40000J0D01*
G01*
X12666500Y-9398000D02*
G75*
G02*
X12746500Y-9398000I40000J0D01*
G01*
X13508500Y-8636000D02*
G75*
G02*
X13428500Y-8636000I-40000J0D01*
G01*
X13428500Y-8636000D02*
G75*
G02*
X13508500Y-8636000I40000J0D01*
G01*
X13508500Y-8890000D02*
G75*
G02*
X13428500Y-8890000I-40000J0D01*
G01*
X13428500Y-8890000D02*
G75*
G02*
X13508500Y-8890000I40000J0D01*
G01*
X13508500Y-9144000D02*
G75*
G02*
X13428500Y-9144000I-40000J0D01*
G01*
X13428500Y-9144000D02*
G75*
G02*
X13508500Y-9144000I40000J0D01*
G01*
X13508500Y-9398000D02*
G75*
G02*
X13428500Y-9398000I-40000J0D01*
G01*
X13428500Y-9398000D02*
G75*
G02*
X13508500Y-9398000I40000J0D01*
G01*
X12712000Y-9856000D02*
X12712000Y-9956000D01*
X12662000Y-9906000D02*
X12762000Y-9906000D01*
X12962000Y-9856000D02*
X12962000Y-9956000D01*
X12912000Y-9906000D02*
X13012000Y-9906000D01*
X13212000Y-9856000D02*
X13212000Y-9956000D01*
X13162000Y-9906000D02*
X13262000Y-9906000D01*
X13462000Y-9856000D02*
X13462000Y-9956000D01*
X13412000Y-9906000D02*
X13512000Y-9906000D01*
D11*
X12450277Y-10727984D02*
X12450277Y-10527984D01*
X12450277Y-10527984D02*
X12497896Y-10527984D01*
X12497896Y-10527984D02*
X12526467Y-10537508D01*
X12526467Y-10537508D02*
X12545515Y-10556555D01*
X12545515Y-10556555D02*
X12555039Y-10575603D01*
X12555039Y-10575603D02*
X12564562Y-10613698D01*
X12564562Y-10613698D02*
X12564562Y-10642270D01*
X12564562Y-10642270D02*
X12555039Y-10680365D01*
X12555039Y-10680365D02*
X12545515Y-10699412D01*
X12545515Y-10699412D02*
X12526467Y-10718460D01*
X12526467Y-10718460D02*
X12497896Y-10727984D01*
X12497896Y-10727984D02*
X12450277Y-10727984D01*
X12650277Y-10727984D02*
X12650277Y-10594650D01*
X12650277Y-10632746D02*
X12659801Y-10613698D01*
X12659801Y-10613698D02*
X12669324Y-10604174D01*
X12669324Y-10604174D02*
X12688372Y-10594650D01*
X12688372Y-10594650D02*
X12707420Y-10594650D01*
X12774086Y-10727984D02*
X12774086Y-10594650D01*
X12774086Y-10527984D02*
X12764562Y-10537508D01*
X12764562Y-10537508D02*
X12774086Y-10547031D01*
X12774086Y-10547031D02*
X12783610Y-10537508D01*
X12783610Y-10537508D02*
X12774086Y-10527984D01*
X12774086Y-10527984D02*
X12774086Y-10547031D01*
X12897896Y-10727984D02*
X12878848Y-10718460D01*
X12878848Y-10718460D02*
X12869324Y-10699412D01*
X12869324Y-10699412D02*
X12869324Y-10527984D01*
X13002658Y-10727984D02*
X12983610Y-10718460D01*
X12983610Y-10718460D02*
X12974086Y-10699412D01*
X12974086Y-10699412D02*
X12974086Y-10527984D01*
X13231229Y-10727984D02*
X13231229Y-10527984D01*
X13231229Y-10527984D02*
X13297896Y-10670841D01*
X13297896Y-10670841D02*
X13364562Y-10527984D01*
X13364562Y-10527984D02*
X13364562Y-10727984D01*
X13545515Y-10727984D02*
X13545515Y-10623222D01*
X13545515Y-10623222D02*
X13535991Y-10604174D01*
X13535991Y-10604174D02*
X13516943Y-10594650D01*
X13516943Y-10594650D02*
X13478848Y-10594650D01*
X13478848Y-10594650D02*
X13459801Y-10604174D01*
X13545515Y-10718460D02*
X13526467Y-10727984D01*
X13526467Y-10727984D02*
X13478848Y-10727984D01*
X13478848Y-10727984D02*
X13459801Y-10718460D01*
X13459801Y-10718460D02*
X13450277Y-10699412D01*
X13450277Y-10699412D02*
X13450277Y-10680365D01*
X13450277Y-10680365D02*
X13459801Y-10661317D01*
X13459801Y-10661317D02*
X13478848Y-10651793D01*
X13478848Y-10651793D02*
X13526467Y-10651793D01*
X13526467Y-10651793D02*
X13545515Y-10642270D01*
X13640753Y-10594650D02*
X13640753Y-10794650D01*
X13640753Y-10604174D02*
X13659801Y-10594650D01*
X13659801Y-10594650D02*
X13697896Y-10594650D01*
X13697896Y-10594650D02*
X13716943Y-10604174D01*
X13716943Y-10604174D02*
X13726467Y-10613698D01*
X13726467Y-10613698D02*
X13735991Y-10632746D01*
X13735991Y-10632746D02*
X13735991Y-10689889D01*
X13735991Y-10689889D02*
X13726467Y-10708936D01*
X13726467Y-10708936D02*
X13716943Y-10718460D01*
X13716943Y-10718460D02*
X13697896Y-10727984D01*
X13697896Y-10727984D02*
X13659801Y-10727984D01*
X13659801Y-10727984D02*
X13640753Y-10718460D01*
X13821705Y-10708936D02*
X13831229Y-10718460D01*
X13831229Y-10718460D02*
X13821705Y-10727984D01*
X13821705Y-10727984D02*
X13812182Y-10718460D01*
X13812182Y-10718460D02*
X13821705Y-10708936D01*
X13821705Y-10708936D02*
X13821705Y-10727984D01*
X13821705Y-10604174D02*
X13831229Y-10613698D01*
X13831229Y-10613698D02*
X13821705Y-10623222D01*
X13821705Y-10623222D02*
X13812182Y-10613698D01*
X13812182Y-10613698D02*
X13821705Y-10604174D01*
X13821705Y-10604174D02*
X13821705Y-10623222D01*
D12*
X12149500Y-11036500D02*
X12189500Y-11076500D01*
X12189500Y-11036500D02*
X12149500Y-11076500D01*
D11*
X12488372Y-10947984D02*
X12507420Y-10947984D01*
X12507420Y-10947984D02*
X12526467Y-10957508D01*
X12526467Y-10957508D02*
X12535991Y-10967031D01*
X12535991Y-10967031D02*
X12545515Y-10986079D01*
X12545515Y-10986079D02*
X12555039Y-11024174D01*
X12555039Y-11024174D02*
X12555039Y-11071793D01*
X12555039Y-11071793D02*
X12545515Y-11109889D01*
X12545515Y-11109889D02*
X12535991Y-11128936D01*
X12535991Y-11128936D02*
X12526467Y-11138460D01*
X12526467Y-11138460D02*
X12507420Y-11147984D01*
X12507420Y-11147984D02*
X12488372Y-11147984D01*
X12488372Y-11147984D02*
X12469324Y-11138460D01*
X12469324Y-11138460D02*
X12459801Y-11128936D01*
X12459801Y-11128936D02*
X12450277Y-11109889D01*
X12450277Y-11109889D02*
X12440753Y-11071793D01*
X12440753Y-11071793D02*
X12440753Y-11024174D01*
X12440753Y-11024174D02*
X12450277Y-10986079D01*
X12450277Y-10986079D02*
X12459801Y-10967031D01*
X12459801Y-10967031D02*
X12469324Y-10957508D01*
X12469324Y-10957508D02*
X12488372Y-10947984D01*
X12640753Y-11128936D02*
X12650277Y-11138460D01*
X12650277Y-11138460D02*
X12640753Y-11147984D01*
X12640753Y-11147984D02*
X12631229Y-11138460D01*
X12631229Y-11138460D02*
X12640753Y-11128936D01*
X12640753Y-11128936D02*
X12640753Y-11147984D01*
X12821705Y-11014650D02*
X12821705Y-11147984D01*
X12774086Y-10938460D02*
X12726467Y-11081317D01*
X12726467Y-11081317D02*
X12850277Y-11081317D01*
X12964562Y-10947984D02*
X12983610Y-10947984D01*
X12983610Y-10947984D02*
X13002658Y-10957508D01*
X13002658Y-10957508D02*
X13012182Y-10967031D01*
X13012182Y-10967031D02*
X13021705Y-10986079D01*
X13021705Y-10986079D02*
X13031229Y-11024174D01*
X13031229Y-11024174D02*
X13031229Y-11071793D01*
X13031229Y-11071793D02*
X13021705Y-11109889D01*
X13021705Y-11109889D02*
X13012182Y-11128936D01*
X13012182Y-11128936D02*
X13002658Y-11138460D01*
X13002658Y-11138460D02*
X12983610Y-11147984D01*
X12983610Y-11147984D02*
X12964562Y-11147984D01*
X12964562Y-11147984D02*
X12945515Y-11138460D01*
X12945515Y-11138460D02*
X12935991Y-11128936D01*
X12935991Y-11128936D02*
X12926467Y-11109889D01*
X12926467Y-11109889D02*
X12916943Y-11071793D01*
X12916943Y-11071793D02*
X12916943Y-11024174D01*
X12916943Y-11024174D02*
X12926467Y-10986079D01*
X12926467Y-10986079D02*
X12935991Y-10967031D01*
X12935991Y-10967031D02*
X12945515Y-10957508D01*
X12945515Y-10957508D02*
X12964562Y-10947984D01*
X13155039Y-10947984D02*
X13174086Y-10947984D01*
X13174086Y-10947984D02*
X13193134Y-10957508D01*
X13193134Y-10957508D02*
X13202658Y-10967031D01*
X13202658Y-10967031D02*
X13212182Y-10986079D01*
X13212182Y-10986079D02*
X13221705Y-11024174D01*
X13221705Y-11024174D02*
X13221705Y-11071793D01*
X13221705Y-11071793D02*
X13212182Y-11109889D01*
X13212182Y-11109889D02*
X13202658Y-11128936D01*
X13202658Y-11128936D02*
X13193134Y-11138460D01*
X13193134Y-11138460D02*
X13174086Y-11147984D01*
X13174086Y-11147984D02*
X13155039Y-11147984D01*
X13155039Y-11147984D02*
X13135991Y-11138460D01*
X13135991Y-11138460D02*
X13126467Y-11128936D01*
X13126467Y-11128936D02*
X13116943Y-11109889D01*
X13116943Y-11109889D02*
X13107420Y-11071793D01*
X13107420Y-11071793D02*
X13107420Y-11024174D01*
X13107420Y-11024174D02*
X13116943Y-10986079D01*
X13116943Y-10986079D02*
X13126467Y-10967031D01*
X13126467Y-10967031D02*
X13135991Y-10957508D01*
X13135991Y-10957508D02*
X13155039Y-10947984D01*
X13307420Y-11147984D02*
X13307420Y-11014650D01*
X13307420Y-11033698D02*
X13316943Y-11024174D01*
X13316943Y-11024174D02*
X13335991Y-11014650D01*
X13335991Y-11014650D02*
X13364563Y-11014650D01*
X13364563Y-11014650D02*
X13383610Y-11024174D01*
X13383610Y-11024174D02*
X13393134Y-11043222D01*
X13393134Y-11043222D02*
X13393134Y-11147984D01*
X13393134Y-11043222D02*
X13402658Y-11024174D01*
X13402658Y-11024174D02*
X13421705Y-11014650D01*
X13421705Y-11014650D02*
X13450277Y-11014650D01*
X13450277Y-11014650D02*
X13469324Y-11024174D01*
X13469324Y-11024174D02*
X13478848Y-11043222D01*
X13478848Y-11043222D02*
X13478848Y-11147984D01*
X13574086Y-11147984D02*
X13574086Y-11014650D01*
X13574086Y-11033698D02*
X13583610Y-11024174D01*
X13583610Y-11024174D02*
X13602658Y-11014650D01*
X13602658Y-11014650D02*
X13631229Y-11014650D01*
X13631229Y-11014650D02*
X13650277Y-11024174D01*
X13650277Y-11024174D02*
X13659801Y-11043222D01*
X13659801Y-11043222D02*
X13659801Y-11147984D01*
X13659801Y-11043222D02*
X13669324Y-11024174D01*
X13669324Y-11024174D02*
X13688372Y-11014650D01*
X13688372Y-11014650D02*
X13716943Y-11014650D01*
X13716943Y-11014650D02*
X13735991Y-11024174D01*
X13735991Y-11024174D02*
X13745515Y-11043222D01*
X13745515Y-11043222D02*
X13745515Y-11147984D01*
X14135991Y-10938460D02*
X13964563Y-11195603D01*
X14393134Y-10947984D02*
X14412182Y-10947984D01*
X14412182Y-10947984D02*
X14431229Y-10957508D01*
X14431229Y-10957508D02*
X14440753Y-10967031D01*
X14440753Y-10967031D02*
X14450277Y-10986079D01*
X14450277Y-10986079D02*
X14459801Y-11024174D01*
X14459801Y-11024174D02*
X14459801Y-11071793D01*
X14459801Y-11071793D02*
X14450277Y-11109889D01*
X14450277Y-11109889D02*
X14440753Y-11128936D01*
X14440753Y-11128936D02*
X14431229Y-11138460D01*
X14431229Y-11138460D02*
X14412182Y-11147984D01*
X14412182Y-11147984D02*
X14393134Y-11147984D01*
X14393134Y-11147984D02*
X14374086Y-11138460D01*
X14374086Y-11138460D02*
X14364563Y-11128936D01*
X14364563Y-11128936D02*
X14355039Y-11109889D01*
X14355039Y-11109889D02*
X14345515Y-11071793D01*
X14345515Y-11071793D02*
X14345515Y-11024174D01*
X14345515Y-11024174D02*
X14355039Y-10986079D01*
X14355039Y-10986079D02*
X14364563Y-10967031D01*
X14364563Y-10967031D02*
X14374086Y-10957508D01*
X14374086Y-10957508D02*
X14393134Y-10947984D01*
X14545515Y-11128936D02*
X14555039Y-11138460D01*
X14555039Y-11138460D02*
X14545515Y-11147984D01*
X14545515Y-11147984D02*
X14535991Y-11138460D01*
X14535991Y-11138460D02*
X14545515Y-11128936D01*
X14545515Y-11128936D02*
X14545515Y-11147984D01*
X14678848Y-10947984D02*
X14697896Y-10947984D01*
X14697896Y-10947984D02*
X14716944Y-10957508D01*
X14716944Y-10957508D02*
X14726467Y-10967031D01*
X14726467Y-10967031D02*
X14735991Y-10986079D01*
X14735991Y-10986079D02*
X14745515Y-11024174D01*
X14745515Y-11024174D02*
X14745515Y-11071793D01*
X14745515Y-11071793D02*
X14735991Y-11109889D01*
X14735991Y-11109889D02*
X14726467Y-11128936D01*
X14726467Y-11128936D02*
X14716944Y-11138460D01*
X14716944Y-11138460D02*
X14697896Y-11147984D01*
X14697896Y-11147984D02*
X14678848Y-11147984D01*
X14678848Y-11147984D02*
X14659801Y-11138460D01*
X14659801Y-11138460D02*
X14650277Y-11128936D01*
X14650277Y-11128936D02*
X14640753Y-11109889D01*
X14640753Y-11109889D02*
X14631229Y-11071793D01*
X14631229Y-11071793D02*
X14631229Y-11024174D01*
X14631229Y-11024174D02*
X14640753Y-10986079D01*
X14640753Y-10986079D02*
X14650277Y-10967031D01*
X14650277Y-10967031D02*
X14659801Y-10957508D01*
X14659801Y-10957508D02*
X14678848Y-10947984D01*
X14935991Y-11147984D02*
X14821706Y-11147984D01*
X14878848Y-11147984D02*
X14878848Y-10947984D01*
X14878848Y-10947984D02*
X14859801Y-10976555D01*
X14859801Y-10976555D02*
X14840753Y-10995603D01*
X14840753Y-10995603D02*
X14821706Y-11005127D01*
X15116944Y-10947984D02*
X15021706Y-10947984D01*
X15021706Y-10947984D02*
X15012182Y-11043222D01*
X15012182Y-11043222D02*
X15021706Y-11033698D01*
X15021706Y-11033698D02*
X15040753Y-11024174D01*
X15040753Y-11024174D02*
X15088372Y-11024174D01*
X15088372Y-11024174D02*
X15107420Y-11033698D01*
X15107420Y-11033698D02*
X15116944Y-11043222D01*
X15116944Y-11043222D02*
X15126467Y-11062270D01*
X15126467Y-11062270D02*
X15126467Y-11109889D01*
X15126467Y-11109889D02*
X15116944Y-11128936D01*
X15116944Y-11128936D02*
X15107420Y-11138460D01*
X15107420Y-11138460D02*
X15088372Y-11147984D01*
X15088372Y-11147984D02*
X15040753Y-11147984D01*
X15040753Y-11147984D02*
X15021706Y-11138460D01*
X15021706Y-11138460D02*
X15012182Y-11128936D01*
X15193134Y-10947984D02*
X15326467Y-10947984D01*
X15326467Y-10947984D02*
X15240753Y-11147984D01*
X15393134Y-10947984D02*
X15393134Y-10986079D01*
X15469325Y-10947984D02*
X15469325Y-10986079D01*
X15764563Y-11224174D02*
X15755039Y-11214650D01*
X15755039Y-11214650D02*
X15735991Y-11186079D01*
X15735991Y-11186079D02*
X15726468Y-11167031D01*
X15726468Y-11167031D02*
X15716944Y-11138460D01*
X15716944Y-11138460D02*
X15707420Y-11090841D01*
X15707420Y-11090841D02*
X15707420Y-11052746D01*
X15707420Y-11052746D02*
X15716944Y-11005127D01*
X15716944Y-11005127D02*
X15726468Y-10976555D01*
X15726468Y-10976555D02*
X15735991Y-10957508D01*
X15735991Y-10957508D02*
X15755039Y-10928936D01*
X15755039Y-10928936D02*
X15764563Y-10919412D01*
X15831229Y-10967031D02*
X15840753Y-10957508D01*
X15840753Y-10957508D02*
X15859801Y-10947984D01*
X15859801Y-10947984D02*
X15907420Y-10947984D01*
X15907420Y-10947984D02*
X15926468Y-10957508D01*
X15926468Y-10957508D02*
X15935991Y-10967031D01*
X15935991Y-10967031D02*
X15945515Y-10986079D01*
X15945515Y-10986079D02*
X15945515Y-11005127D01*
X15945515Y-11005127D02*
X15935991Y-11033698D01*
X15935991Y-11033698D02*
X15821706Y-11147984D01*
X15821706Y-11147984D02*
X15945515Y-11147984D01*
X16183610Y-11147984D02*
X16183610Y-10947984D01*
X16269325Y-11147984D02*
X16269325Y-11043222D01*
X16269325Y-11043222D02*
X16259801Y-11024174D01*
X16259801Y-11024174D02*
X16240753Y-11014650D01*
X16240753Y-11014650D02*
X16212182Y-11014650D01*
X16212182Y-11014650D02*
X16193134Y-11024174D01*
X16193134Y-11024174D02*
X16183610Y-11033698D01*
X16393134Y-11147984D02*
X16374087Y-11138460D01*
X16374087Y-11138460D02*
X16364563Y-11128936D01*
X16364563Y-11128936D02*
X16355039Y-11109889D01*
X16355039Y-11109889D02*
X16355039Y-11052746D01*
X16355039Y-11052746D02*
X16364563Y-11033698D01*
X16364563Y-11033698D02*
X16374087Y-11024174D01*
X16374087Y-11024174D02*
X16393134Y-11014650D01*
X16393134Y-11014650D02*
X16421706Y-11014650D01*
X16421706Y-11014650D02*
X16440753Y-11024174D01*
X16440753Y-11024174D02*
X16450277Y-11033698D01*
X16450277Y-11033698D02*
X16459801Y-11052746D01*
X16459801Y-11052746D02*
X16459801Y-11109889D01*
X16459801Y-11109889D02*
X16450277Y-11128936D01*
X16450277Y-11128936D02*
X16440753Y-11138460D01*
X16440753Y-11138460D02*
X16421706Y-11147984D01*
X16421706Y-11147984D02*
X16393134Y-11147984D01*
X16574087Y-11147984D02*
X16555039Y-11138460D01*
X16555039Y-11138460D02*
X16545515Y-11119412D01*
X16545515Y-11119412D02*
X16545515Y-10947984D01*
X16726468Y-11138460D02*
X16707420Y-11147984D01*
X16707420Y-11147984D02*
X16669325Y-11147984D01*
X16669325Y-11147984D02*
X16650277Y-11138460D01*
X16650277Y-11138460D02*
X16640753Y-11119412D01*
X16640753Y-11119412D02*
X16640753Y-11043222D01*
X16640753Y-11043222D02*
X16650277Y-11024174D01*
X16650277Y-11024174D02*
X16669325Y-11014650D01*
X16669325Y-11014650D02*
X16707420Y-11014650D01*
X16707420Y-11014650D02*
X16726468Y-11024174D01*
X16726468Y-11024174D02*
X16735991Y-11043222D01*
X16735991Y-11043222D02*
X16735991Y-11062270D01*
X16735991Y-11062270D02*
X16640753Y-11081317D01*
X16812182Y-11138460D02*
X16831230Y-11147984D01*
X16831230Y-11147984D02*
X16869325Y-11147984D01*
X16869325Y-11147984D02*
X16888373Y-11138460D01*
X16888373Y-11138460D02*
X16897896Y-11119412D01*
X16897896Y-11119412D02*
X16897896Y-11109889D01*
X16897896Y-11109889D02*
X16888373Y-11090841D01*
X16888373Y-11090841D02*
X16869325Y-11081317D01*
X16869325Y-11081317D02*
X16840753Y-11081317D01*
X16840753Y-11081317D02*
X16821706Y-11071793D01*
X16821706Y-11071793D02*
X16812182Y-11052746D01*
X16812182Y-11052746D02*
X16812182Y-11043222D01*
X16812182Y-11043222D02*
X16821706Y-11024174D01*
X16821706Y-11024174D02*
X16840753Y-11014650D01*
X16840753Y-11014650D02*
X16869325Y-11014650D01*
X16869325Y-11014650D02*
X16888373Y-11024174D01*
X16964563Y-11224174D02*
X16974087Y-11214650D01*
X16974087Y-11214650D02*
X16993134Y-11186079D01*
X16993134Y-11186079D02*
X17002658Y-11167031D01*
X17002658Y-11167031D02*
X17012182Y-11138460D01*
X17012182Y-11138460D02*
X17021706Y-11090841D01*
X17021706Y-11090841D02*
X17021706Y-11052746D01*
X17021706Y-11052746D02*
X17012182Y-11005127D01*
X17012182Y-11005127D02*
X17002658Y-10976555D01*
X17002658Y-10976555D02*
X16993134Y-10957508D01*
X16993134Y-10957508D02*
X16974087Y-10928936D01*
X16974087Y-10928936D02*
X16964563Y-10919412D01*
D12*
X12189500Y-11320500D02*
G75*
G02*
X12109500Y-11320500I-40000J0D01*
G01*
X12109500Y-11320500D02*
G75*
G02*
X12189500Y-11320500I40000J0D01*
G01*
D11*
X12488372Y-11211984D02*
X12507420Y-11211984D01*
X12507420Y-11211984D02*
X12526467Y-11221508D01*
X12526467Y-11221508D02*
X12535991Y-11231031D01*
X12535991Y-11231031D02*
X12545515Y-11250079D01*
X12545515Y-11250079D02*
X12555039Y-11288174D01*
X12555039Y-11288174D02*
X12555039Y-11335793D01*
X12555039Y-11335793D02*
X12545515Y-11373888D01*
X12545515Y-11373888D02*
X12535991Y-11392936D01*
X12535991Y-11392936D02*
X12526467Y-11402460D01*
X12526467Y-11402460D02*
X12507420Y-11411984D01*
X12507420Y-11411984D02*
X12488372Y-11411984D01*
X12488372Y-11411984D02*
X12469324Y-11402460D01*
X12469324Y-11402460D02*
X12459801Y-11392936D01*
X12459801Y-11392936D02*
X12450277Y-11373888D01*
X12450277Y-11373888D02*
X12440753Y-11335793D01*
X12440753Y-11335793D02*
X12440753Y-11288174D01*
X12440753Y-11288174D02*
X12450277Y-11250079D01*
X12450277Y-11250079D02*
X12459801Y-11231031D01*
X12459801Y-11231031D02*
X12469324Y-11221508D01*
X12469324Y-11221508D02*
X12488372Y-11211984D01*
X12640753Y-11392936D02*
X12650277Y-11402460D01*
X12650277Y-11402460D02*
X12640753Y-11411984D01*
X12640753Y-11411984D02*
X12631229Y-11402460D01*
X12631229Y-11402460D02*
X12640753Y-11392936D01*
X12640753Y-11392936D02*
X12640753Y-11411984D01*
X12764562Y-11297698D02*
X12745515Y-11288174D01*
X12745515Y-11288174D02*
X12735991Y-11278650D01*
X12735991Y-11278650D02*
X12726467Y-11259603D01*
X12726467Y-11259603D02*
X12726467Y-11250079D01*
X12726467Y-11250079D02*
X12735991Y-11231031D01*
X12735991Y-11231031D02*
X12745515Y-11221508D01*
X12745515Y-11221508D02*
X12764562Y-11211984D01*
X12764562Y-11211984D02*
X12802658Y-11211984D01*
X12802658Y-11211984D02*
X12821705Y-11221508D01*
X12821705Y-11221508D02*
X12831229Y-11231031D01*
X12831229Y-11231031D02*
X12840753Y-11250079D01*
X12840753Y-11250079D02*
X12840753Y-11259603D01*
X12840753Y-11259603D02*
X12831229Y-11278650D01*
X12831229Y-11278650D02*
X12821705Y-11288174D01*
X12821705Y-11288174D02*
X12802658Y-11297698D01*
X12802658Y-11297698D02*
X12764562Y-11297698D01*
X12764562Y-11297698D02*
X12745515Y-11307222D01*
X12745515Y-11307222D02*
X12735991Y-11316746D01*
X12735991Y-11316746D02*
X12726467Y-11335793D01*
X12726467Y-11335793D02*
X12726467Y-11373888D01*
X12726467Y-11373888D02*
X12735991Y-11392936D01*
X12735991Y-11392936D02*
X12745515Y-11402460D01*
X12745515Y-11402460D02*
X12764562Y-11411984D01*
X12764562Y-11411984D02*
X12802658Y-11411984D01*
X12802658Y-11411984D02*
X12821705Y-11402460D01*
X12821705Y-11402460D02*
X12831229Y-11392936D01*
X12831229Y-11392936D02*
X12840753Y-11373888D01*
X12840753Y-11373888D02*
X12840753Y-11335793D01*
X12840753Y-11335793D02*
X12831229Y-11316746D01*
X12831229Y-11316746D02*
X12821705Y-11307222D01*
X12821705Y-11307222D02*
X12802658Y-11297698D01*
X12964562Y-11211984D02*
X12983610Y-11211984D01*
X12983610Y-11211984D02*
X13002658Y-11221508D01*
X13002658Y-11221508D02*
X13012182Y-11231031D01*
X13012182Y-11231031D02*
X13021705Y-11250079D01*
X13021705Y-11250079D02*
X13031229Y-11288174D01*
X13031229Y-11288174D02*
X13031229Y-11335793D01*
X13031229Y-11335793D02*
X13021705Y-11373888D01*
X13021705Y-11373888D02*
X13012182Y-11392936D01*
X13012182Y-11392936D02*
X13002658Y-11402460D01*
X13002658Y-11402460D02*
X12983610Y-11411984D01*
X12983610Y-11411984D02*
X12964562Y-11411984D01*
X12964562Y-11411984D02*
X12945515Y-11402460D01*
X12945515Y-11402460D02*
X12935991Y-11392936D01*
X12935991Y-11392936D02*
X12926467Y-11373888D01*
X12926467Y-11373888D02*
X12916943Y-11335793D01*
X12916943Y-11335793D02*
X12916943Y-11288174D01*
X12916943Y-11288174D02*
X12926467Y-11250079D01*
X12926467Y-11250079D02*
X12935991Y-11231031D01*
X12935991Y-11231031D02*
X12945515Y-11221508D01*
X12945515Y-11221508D02*
X12964562Y-11211984D01*
X13155039Y-11211984D02*
X13174086Y-11211984D01*
X13174086Y-11211984D02*
X13193134Y-11221508D01*
X13193134Y-11221508D02*
X13202658Y-11231031D01*
X13202658Y-11231031D02*
X13212182Y-11250079D01*
X13212182Y-11250079D02*
X13221705Y-11288174D01*
X13221705Y-11288174D02*
X13221705Y-11335793D01*
X13221705Y-11335793D02*
X13212182Y-11373888D01*
X13212182Y-11373888D02*
X13202658Y-11392936D01*
X13202658Y-11392936D02*
X13193134Y-11402460D01*
X13193134Y-11402460D02*
X13174086Y-11411984D01*
X13174086Y-11411984D02*
X13155039Y-11411984D01*
X13155039Y-11411984D02*
X13135991Y-11402460D01*
X13135991Y-11402460D02*
X13126467Y-11392936D01*
X13126467Y-11392936D02*
X13116943Y-11373888D01*
X13116943Y-11373888D02*
X13107420Y-11335793D01*
X13107420Y-11335793D02*
X13107420Y-11288174D01*
X13107420Y-11288174D02*
X13116943Y-11250079D01*
X13116943Y-11250079D02*
X13126467Y-11231031D01*
X13126467Y-11231031D02*
X13135991Y-11221508D01*
X13135991Y-11221508D02*
X13155039Y-11211984D01*
X13307420Y-11411984D02*
X13307420Y-11278650D01*
X13307420Y-11297698D02*
X13316943Y-11288174D01*
X13316943Y-11288174D02*
X13335991Y-11278650D01*
X13335991Y-11278650D02*
X13364563Y-11278650D01*
X13364563Y-11278650D02*
X13383610Y-11288174D01*
X13383610Y-11288174D02*
X13393134Y-11307222D01*
X13393134Y-11307222D02*
X13393134Y-11411984D01*
X13393134Y-11307222D02*
X13402658Y-11288174D01*
X13402658Y-11288174D02*
X13421705Y-11278650D01*
X13421705Y-11278650D02*
X13450277Y-11278650D01*
X13450277Y-11278650D02*
X13469324Y-11288174D01*
X13469324Y-11288174D02*
X13478848Y-11307222D01*
X13478848Y-11307222D02*
X13478848Y-11411984D01*
X13574086Y-11411984D02*
X13574086Y-11278650D01*
X13574086Y-11297698D02*
X13583610Y-11288174D01*
X13583610Y-11288174D02*
X13602658Y-11278650D01*
X13602658Y-11278650D02*
X13631229Y-11278650D01*
X13631229Y-11278650D02*
X13650277Y-11288174D01*
X13650277Y-11288174D02*
X13659801Y-11307222D01*
X13659801Y-11307222D02*
X13659801Y-11411984D01*
X13659801Y-11307222D02*
X13669324Y-11288174D01*
X13669324Y-11288174D02*
X13688372Y-11278650D01*
X13688372Y-11278650D02*
X13716943Y-11278650D01*
X13716943Y-11278650D02*
X13735991Y-11288174D01*
X13735991Y-11288174D02*
X13745515Y-11307222D01*
X13745515Y-11307222D02*
X13745515Y-11411984D01*
X14135991Y-11202460D02*
X13964563Y-11459603D01*
X14393134Y-11211984D02*
X14412182Y-11211984D01*
X14412182Y-11211984D02*
X14431229Y-11221508D01*
X14431229Y-11221508D02*
X14440753Y-11231031D01*
X14440753Y-11231031D02*
X14450277Y-11250079D01*
X14450277Y-11250079D02*
X14459801Y-11288174D01*
X14459801Y-11288174D02*
X14459801Y-11335793D01*
X14459801Y-11335793D02*
X14450277Y-11373888D01*
X14450277Y-11373888D02*
X14440753Y-11392936D01*
X14440753Y-11392936D02*
X14431229Y-11402460D01*
X14431229Y-11402460D02*
X14412182Y-11411984D01*
X14412182Y-11411984D02*
X14393134Y-11411984D01*
X14393134Y-11411984D02*
X14374086Y-11402460D01*
X14374086Y-11402460D02*
X14364563Y-11392936D01*
X14364563Y-11392936D02*
X14355039Y-11373888D01*
X14355039Y-11373888D02*
X14345515Y-11335793D01*
X14345515Y-11335793D02*
X14345515Y-11288174D01*
X14345515Y-11288174D02*
X14355039Y-11250079D01*
X14355039Y-11250079D02*
X14364563Y-11231031D01*
X14364563Y-11231031D02*
X14374086Y-11221508D01*
X14374086Y-11221508D02*
X14393134Y-11211984D01*
X14545515Y-11392936D02*
X14555039Y-11402460D01*
X14555039Y-11402460D02*
X14545515Y-11411984D01*
X14545515Y-11411984D02*
X14535991Y-11402460D01*
X14535991Y-11402460D02*
X14545515Y-11392936D01*
X14545515Y-11392936D02*
X14545515Y-11411984D01*
X14678848Y-11211984D02*
X14697896Y-11211984D01*
X14697896Y-11211984D02*
X14716944Y-11221508D01*
X14716944Y-11221508D02*
X14726467Y-11231031D01*
X14726467Y-11231031D02*
X14735991Y-11250079D01*
X14735991Y-11250079D02*
X14745515Y-11288174D01*
X14745515Y-11288174D02*
X14745515Y-11335793D01*
X14745515Y-11335793D02*
X14735991Y-11373888D01*
X14735991Y-11373888D02*
X14726467Y-11392936D01*
X14726467Y-11392936D02*
X14716944Y-11402460D01*
X14716944Y-11402460D02*
X14697896Y-11411984D01*
X14697896Y-11411984D02*
X14678848Y-11411984D01*
X14678848Y-11411984D02*
X14659801Y-11402460D01*
X14659801Y-11402460D02*
X14650277Y-11392936D01*
X14650277Y-11392936D02*
X14640753Y-11373888D01*
X14640753Y-11373888D02*
X14631229Y-11335793D01*
X14631229Y-11335793D02*
X14631229Y-11288174D01*
X14631229Y-11288174D02*
X14640753Y-11250079D01*
X14640753Y-11250079D02*
X14650277Y-11231031D01*
X14650277Y-11231031D02*
X14659801Y-11221508D01*
X14659801Y-11221508D02*
X14678848Y-11211984D01*
X14812182Y-11211984D02*
X14935991Y-11211984D01*
X14935991Y-11211984D02*
X14869325Y-11288174D01*
X14869325Y-11288174D02*
X14897896Y-11288174D01*
X14897896Y-11288174D02*
X14916944Y-11297698D01*
X14916944Y-11297698D02*
X14926467Y-11307222D01*
X14926467Y-11307222D02*
X14935991Y-11326269D01*
X14935991Y-11326269D02*
X14935991Y-11373888D01*
X14935991Y-11373888D02*
X14926467Y-11392936D01*
X14926467Y-11392936D02*
X14916944Y-11402460D01*
X14916944Y-11402460D02*
X14897896Y-11411984D01*
X14897896Y-11411984D02*
X14840753Y-11411984D01*
X14840753Y-11411984D02*
X14821706Y-11402460D01*
X14821706Y-11402460D02*
X14812182Y-11392936D01*
X15126467Y-11411984D02*
X15012182Y-11411984D01*
X15069325Y-11411984D02*
X15069325Y-11211984D01*
X15069325Y-11211984D02*
X15050277Y-11240555D01*
X15050277Y-11240555D02*
X15031229Y-11259603D01*
X15031229Y-11259603D02*
X15012182Y-11269127D01*
X15307420Y-11211984D02*
X15212182Y-11211984D01*
X15212182Y-11211984D02*
X15202658Y-11307222D01*
X15202658Y-11307222D02*
X15212182Y-11297698D01*
X15212182Y-11297698D02*
X15231229Y-11288174D01*
X15231229Y-11288174D02*
X15278848Y-11288174D01*
X15278848Y-11288174D02*
X15297896Y-11297698D01*
X15297896Y-11297698D02*
X15307420Y-11307222D01*
X15307420Y-11307222D02*
X15316944Y-11326269D01*
X15316944Y-11326269D02*
X15316944Y-11373888D01*
X15316944Y-11373888D02*
X15307420Y-11392936D01*
X15307420Y-11392936D02*
X15297896Y-11402460D01*
X15297896Y-11402460D02*
X15278848Y-11411984D01*
X15278848Y-11411984D02*
X15231229Y-11411984D01*
X15231229Y-11411984D02*
X15212182Y-11402460D01*
X15212182Y-11402460D02*
X15202658Y-11392936D01*
X15393134Y-11211984D02*
X15393134Y-11250079D01*
X15469325Y-11211984D02*
X15469325Y-11250079D01*
X15764563Y-11488174D02*
X15755039Y-11478650D01*
X15755039Y-11478650D02*
X15735991Y-11450079D01*
X15735991Y-11450079D02*
X15726468Y-11431031D01*
X15726468Y-11431031D02*
X15716944Y-11402460D01*
X15716944Y-11402460D02*
X15707420Y-11354841D01*
X15707420Y-11354841D02*
X15707420Y-11316746D01*
X15707420Y-11316746D02*
X15716944Y-11269127D01*
X15716944Y-11269127D02*
X15726468Y-11240555D01*
X15726468Y-11240555D02*
X15735991Y-11221508D01*
X15735991Y-11221508D02*
X15755039Y-11192936D01*
X15755039Y-11192936D02*
X15764563Y-11183412D01*
X15869325Y-11297698D02*
X15850277Y-11288174D01*
X15850277Y-11288174D02*
X15840753Y-11278650D01*
X15840753Y-11278650D02*
X15831229Y-11259603D01*
X15831229Y-11259603D02*
X15831229Y-11250079D01*
X15831229Y-11250079D02*
X15840753Y-11231031D01*
X15840753Y-11231031D02*
X15850277Y-11221508D01*
X15850277Y-11221508D02*
X15869325Y-11211984D01*
X15869325Y-11211984D02*
X15907420Y-11211984D01*
X15907420Y-11211984D02*
X15926468Y-11221508D01*
X15926468Y-11221508D02*
X15935991Y-11231031D01*
X15935991Y-11231031D02*
X15945515Y-11250079D01*
X15945515Y-11250079D02*
X15945515Y-11259603D01*
X15945515Y-11259603D02*
X15935991Y-11278650D01*
X15935991Y-11278650D02*
X15926468Y-11288174D01*
X15926468Y-11288174D02*
X15907420Y-11297698D01*
X15907420Y-11297698D02*
X15869325Y-11297698D01*
X15869325Y-11297698D02*
X15850277Y-11307222D01*
X15850277Y-11307222D02*
X15840753Y-11316746D01*
X15840753Y-11316746D02*
X15831229Y-11335793D01*
X15831229Y-11335793D02*
X15831229Y-11373888D01*
X15831229Y-11373888D02*
X15840753Y-11392936D01*
X15840753Y-11392936D02*
X15850277Y-11402460D01*
X15850277Y-11402460D02*
X15869325Y-11411984D01*
X15869325Y-11411984D02*
X15907420Y-11411984D01*
X15907420Y-11411984D02*
X15926468Y-11402460D01*
X15926468Y-11402460D02*
X15935991Y-11392936D01*
X15935991Y-11392936D02*
X15945515Y-11373888D01*
X15945515Y-11373888D02*
X15945515Y-11335793D01*
X15945515Y-11335793D02*
X15935991Y-11316746D01*
X15935991Y-11316746D02*
X15926468Y-11307222D01*
X15926468Y-11307222D02*
X15907420Y-11297698D01*
X16183610Y-11411984D02*
X16183610Y-11211984D01*
X16269325Y-11411984D02*
X16269325Y-11307222D01*
X16269325Y-11307222D02*
X16259801Y-11288174D01*
X16259801Y-11288174D02*
X16240753Y-11278650D01*
X16240753Y-11278650D02*
X16212182Y-11278650D01*
X16212182Y-11278650D02*
X16193134Y-11288174D01*
X16193134Y-11288174D02*
X16183610Y-11297698D01*
X16393134Y-11411984D02*
X16374087Y-11402460D01*
X16374087Y-11402460D02*
X16364563Y-11392936D01*
X16364563Y-11392936D02*
X16355039Y-11373888D01*
X16355039Y-11373888D02*
X16355039Y-11316746D01*
X16355039Y-11316746D02*
X16364563Y-11297698D01*
X16364563Y-11297698D02*
X16374087Y-11288174D01*
X16374087Y-11288174D02*
X16393134Y-11278650D01*
X16393134Y-11278650D02*
X16421706Y-11278650D01*
X16421706Y-11278650D02*
X16440753Y-11288174D01*
X16440753Y-11288174D02*
X16450277Y-11297698D01*
X16450277Y-11297698D02*
X16459801Y-11316746D01*
X16459801Y-11316746D02*
X16459801Y-11373888D01*
X16459801Y-11373888D02*
X16450277Y-11392936D01*
X16450277Y-11392936D02*
X16440753Y-11402460D01*
X16440753Y-11402460D02*
X16421706Y-11411984D01*
X16421706Y-11411984D02*
X16393134Y-11411984D01*
X16574087Y-11411984D02*
X16555039Y-11402460D01*
X16555039Y-11402460D02*
X16545515Y-11383412D01*
X16545515Y-11383412D02*
X16545515Y-11211984D01*
X16726468Y-11402460D02*
X16707420Y-11411984D01*
X16707420Y-11411984D02*
X16669325Y-11411984D01*
X16669325Y-11411984D02*
X16650277Y-11402460D01*
X16650277Y-11402460D02*
X16640753Y-11383412D01*
X16640753Y-11383412D02*
X16640753Y-11307222D01*
X16640753Y-11307222D02*
X16650277Y-11288174D01*
X16650277Y-11288174D02*
X16669325Y-11278650D01*
X16669325Y-11278650D02*
X16707420Y-11278650D01*
X16707420Y-11278650D02*
X16726468Y-11288174D01*
X16726468Y-11288174D02*
X16735991Y-11307222D01*
X16735991Y-11307222D02*
X16735991Y-11326269D01*
X16735991Y-11326269D02*
X16640753Y-11345317D01*
X16812182Y-11402460D02*
X16831230Y-11411984D01*
X16831230Y-11411984D02*
X16869325Y-11411984D01*
X16869325Y-11411984D02*
X16888373Y-11402460D01*
X16888373Y-11402460D02*
X16897896Y-11383412D01*
X16897896Y-11383412D02*
X16897896Y-11373888D01*
X16897896Y-11373888D02*
X16888373Y-11354841D01*
X16888373Y-11354841D02*
X16869325Y-11345317D01*
X16869325Y-11345317D02*
X16840753Y-11345317D01*
X16840753Y-11345317D02*
X16821706Y-11335793D01*
X16821706Y-11335793D02*
X16812182Y-11316746D01*
X16812182Y-11316746D02*
X16812182Y-11307222D01*
X16812182Y-11307222D02*
X16821706Y-11288174D01*
X16821706Y-11288174D02*
X16840753Y-11278650D01*
X16840753Y-11278650D02*
X16869325Y-11278650D01*
X16869325Y-11278650D02*
X16888373Y-11288174D01*
X16964563Y-11488174D02*
X16974087Y-11478650D01*
X16974087Y-11478650D02*
X16993134Y-11450079D01*
X16993134Y-11450079D02*
X17002658Y-11431031D01*
X17002658Y-11431031D02*
X17012182Y-11402460D01*
X17012182Y-11402460D02*
X17021706Y-11354841D01*
X17021706Y-11354841D02*
X17021706Y-11316746D01*
X17021706Y-11316746D02*
X17012182Y-11269127D01*
X17012182Y-11269127D02*
X17002658Y-11240555D01*
X17002658Y-11240555D02*
X16993134Y-11221508D01*
X16993134Y-11221508D02*
X16974087Y-11192936D01*
X16974087Y-11192936D02*
X16964563Y-11183412D01*
D12*
X12139500Y-11534500D02*
X12139500Y-11634500D01*
X12089500Y-11584500D02*
X12189500Y-11584500D01*
D11*
X12555039Y-11675984D02*
X12440753Y-11675984D01*
X12497896Y-11675984D02*
X12497896Y-11475984D01*
X12497896Y-11475984D02*
X12478848Y-11504555D01*
X12478848Y-11504555D02*
X12459801Y-11523603D01*
X12459801Y-11523603D02*
X12440753Y-11533127D01*
X12640753Y-11656936D02*
X12650277Y-11666460D01*
X12650277Y-11666460D02*
X12640753Y-11675984D01*
X12640753Y-11675984D02*
X12631229Y-11666460D01*
X12631229Y-11666460D02*
X12640753Y-11656936D01*
X12640753Y-11656936D02*
X12640753Y-11675984D01*
X12774086Y-11475984D02*
X12793134Y-11475984D01*
X12793134Y-11475984D02*
X12812182Y-11485508D01*
X12812182Y-11485508D02*
X12821705Y-11495031D01*
X12821705Y-11495031D02*
X12831229Y-11514079D01*
X12831229Y-11514079D02*
X12840753Y-11552174D01*
X12840753Y-11552174D02*
X12840753Y-11599793D01*
X12840753Y-11599793D02*
X12831229Y-11637888D01*
X12831229Y-11637888D02*
X12821705Y-11656936D01*
X12821705Y-11656936D02*
X12812182Y-11666460D01*
X12812182Y-11666460D02*
X12793134Y-11675984D01*
X12793134Y-11675984D02*
X12774086Y-11675984D01*
X12774086Y-11675984D02*
X12755039Y-11666460D01*
X12755039Y-11666460D02*
X12745515Y-11656936D01*
X12745515Y-11656936D02*
X12735991Y-11637888D01*
X12735991Y-11637888D02*
X12726467Y-11599793D01*
X12726467Y-11599793D02*
X12726467Y-11552174D01*
X12726467Y-11552174D02*
X12735991Y-11514079D01*
X12735991Y-11514079D02*
X12745515Y-11495031D01*
X12745515Y-11495031D02*
X12755039Y-11485508D01*
X12755039Y-11485508D02*
X12774086Y-11475984D01*
X12964562Y-11475984D02*
X12983610Y-11475984D01*
X12983610Y-11475984D02*
X13002658Y-11485508D01*
X13002658Y-11485508D02*
X13012182Y-11495031D01*
X13012182Y-11495031D02*
X13021705Y-11514079D01*
X13021705Y-11514079D02*
X13031229Y-11552174D01*
X13031229Y-11552174D02*
X13031229Y-11599793D01*
X13031229Y-11599793D02*
X13021705Y-11637888D01*
X13021705Y-11637888D02*
X13012182Y-11656936D01*
X13012182Y-11656936D02*
X13002658Y-11666460D01*
X13002658Y-11666460D02*
X12983610Y-11675984D01*
X12983610Y-11675984D02*
X12964562Y-11675984D01*
X12964562Y-11675984D02*
X12945515Y-11666460D01*
X12945515Y-11666460D02*
X12935991Y-11656936D01*
X12935991Y-11656936D02*
X12926467Y-11637888D01*
X12926467Y-11637888D02*
X12916943Y-11599793D01*
X12916943Y-11599793D02*
X12916943Y-11552174D01*
X12916943Y-11552174D02*
X12926467Y-11514079D01*
X12926467Y-11514079D02*
X12935991Y-11495031D01*
X12935991Y-11495031D02*
X12945515Y-11485508D01*
X12945515Y-11485508D02*
X12964562Y-11475984D01*
X13155039Y-11475984D02*
X13174086Y-11475984D01*
X13174086Y-11475984D02*
X13193134Y-11485508D01*
X13193134Y-11485508D02*
X13202658Y-11495031D01*
X13202658Y-11495031D02*
X13212182Y-11514079D01*
X13212182Y-11514079D02*
X13221705Y-11552174D01*
X13221705Y-11552174D02*
X13221705Y-11599793D01*
X13221705Y-11599793D02*
X13212182Y-11637888D01*
X13212182Y-11637888D02*
X13202658Y-11656936D01*
X13202658Y-11656936D02*
X13193134Y-11666460D01*
X13193134Y-11666460D02*
X13174086Y-11675984D01*
X13174086Y-11675984D02*
X13155039Y-11675984D01*
X13155039Y-11675984D02*
X13135991Y-11666460D01*
X13135991Y-11666460D02*
X13126467Y-11656936D01*
X13126467Y-11656936D02*
X13116943Y-11637888D01*
X13116943Y-11637888D02*
X13107420Y-11599793D01*
X13107420Y-11599793D02*
X13107420Y-11552174D01*
X13107420Y-11552174D02*
X13116943Y-11514079D01*
X13116943Y-11514079D02*
X13126467Y-11495031D01*
X13126467Y-11495031D02*
X13135991Y-11485508D01*
X13135991Y-11485508D02*
X13155039Y-11475984D01*
X13307420Y-11675984D02*
X13307420Y-11542650D01*
X13307420Y-11561698D02*
X13316943Y-11552174D01*
X13316943Y-11552174D02*
X13335991Y-11542650D01*
X13335991Y-11542650D02*
X13364563Y-11542650D01*
X13364563Y-11542650D02*
X13383610Y-11552174D01*
X13383610Y-11552174D02*
X13393134Y-11571222D01*
X13393134Y-11571222D02*
X13393134Y-11675984D01*
X13393134Y-11571222D02*
X13402658Y-11552174D01*
X13402658Y-11552174D02*
X13421705Y-11542650D01*
X13421705Y-11542650D02*
X13450277Y-11542650D01*
X13450277Y-11542650D02*
X13469324Y-11552174D01*
X13469324Y-11552174D02*
X13478848Y-11571222D01*
X13478848Y-11571222D02*
X13478848Y-11675984D01*
X13574086Y-11675984D02*
X13574086Y-11542650D01*
X13574086Y-11561698D02*
X13583610Y-11552174D01*
X13583610Y-11552174D02*
X13602658Y-11542650D01*
X13602658Y-11542650D02*
X13631229Y-11542650D01*
X13631229Y-11542650D02*
X13650277Y-11552174D01*
X13650277Y-11552174D02*
X13659801Y-11571222D01*
X13659801Y-11571222D02*
X13659801Y-11675984D01*
X13659801Y-11571222D02*
X13669324Y-11552174D01*
X13669324Y-11552174D02*
X13688372Y-11542650D01*
X13688372Y-11542650D02*
X13716943Y-11542650D01*
X13716943Y-11542650D02*
X13735991Y-11552174D01*
X13735991Y-11552174D02*
X13745515Y-11571222D01*
X13745515Y-11571222D02*
X13745515Y-11675984D01*
X14135991Y-11466460D02*
X13964563Y-11723603D01*
X14393134Y-11475984D02*
X14412182Y-11475984D01*
X14412182Y-11475984D02*
X14431229Y-11485508D01*
X14431229Y-11485508D02*
X14440753Y-11495031D01*
X14440753Y-11495031D02*
X14450277Y-11514079D01*
X14450277Y-11514079D02*
X14459801Y-11552174D01*
X14459801Y-11552174D02*
X14459801Y-11599793D01*
X14459801Y-11599793D02*
X14450277Y-11637888D01*
X14450277Y-11637888D02*
X14440753Y-11656936D01*
X14440753Y-11656936D02*
X14431229Y-11666460D01*
X14431229Y-11666460D02*
X14412182Y-11675984D01*
X14412182Y-11675984D02*
X14393134Y-11675984D01*
X14393134Y-11675984D02*
X14374086Y-11666460D01*
X14374086Y-11666460D02*
X14364563Y-11656936D01*
X14364563Y-11656936D02*
X14355039Y-11637888D01*
X14355039Y-11637888D02*
X14345515Y-11599793D01*
X14345515Y-11599793D02*
X14345515Y-11552174D01*
X14345515Y-11552174D02*
X14355039Y-11514079D01*
X14355039Y-11514079D02*
X14364563Y-11495031D01*
X14364563Y-11495031D02*
X14374086Y-11485508D01*
X14374086Y-11485508D02*
X14393134Y-11475984D01*
X14545515Y-11656936D02*
X14555039Y-11666460D01*
X14555039Y-11666460D02*
X14545515Y-11675984D01*
X14545515Y-11675984D02*
X14535991Y-11666460D01*
X14535991Y-11666460D02*
X14545515Y-11656936D01*
X14545515Y-11656936D02*
X14545515Y-11675984D01*
X14678848Y-11475984D02*
X14697896Y-11475984D01*
X14697896Y-11475984D02*
X14716944Y-11485508D01*
X14716944Y-11485508D02*
X14726467Y-11495031D01*
X14726467Y-11495031D02*
X14735991Y-11514079D01*
X14735991Y-11514079D02*
X14745515Y-11552174D01*
X14745515Y-11552174D02*
X14745515Y-11599793D01*
X14745515Y-11599793D02*
X14735991Y-11637888D01*
X14735991Y-11637888D02*
X14726467Y-11656936D01*
X14726467Y-11656936D02*
X14716944Y-11666460D01*
X14716944Y-11666460D02*
X14697896Y-11675984D01*
X14697896Y-11675984D02*
X14678848Y-11675984D01*
X14678848Y-11675984D02*
X14659801Y-11666460D01*
X14659801Y-11666460D02*
X14650277Y-11656936D01*
X14650277Y-11656936D02*
X14640753Y-11637888D01*
X14640753Y-11637888D02*
X14631229Y-11599793D01*
X14631229Y-11599793D02*
X14631229Y-11552174D01*
X14631229Y-11552174D02*
X14640753Y-11514079D01*
X14640753Y-11514079D02*
X14650277Y-11495031D01*
X14650277Y-11495031D02*
X14659801Y-11485508D01*
X14659801Y-11485508D02*
X14678848Y-11475984D01*
X14812182Y-11475984D02*
X14935991Y-11475984D01*
X14935991Y-11475984D02*
X14869325Y-11552174D01*
X14869325Y-11552174D02*
X14897896Y-11552174D01*
X14897896Y-11552174D02*
X14916944Y-11561698D01*
X14916944Y-11561698D02*
X14926467Y-11571222D01*
X14926467Y-11571222D02*
X14935991Y-11590269D01*
X14935991Y-11590269D02*
X14935991Y-11637888D01*
X14935991Y-11637888D02*
X14926467Y-11656936D01*
X14926467Y-11656936D02*
X14916944Y-11666460D01*
X14916944Y-11666460D02*
X14897896Y-11675984D01*
X14897896Y-11675984D02*
X14840753Y-11675984D01*
X14840753Y-11675984D02*
X14821706Y-11666460D01*
X14821706Y-11666460D02*
X14812182Y-11656936D01*
X15031229Y-11675984D02*
X15069325Y-11675984D01*
X15069325Y-11675984D02*
X15088372Y-11666460D01*
X15088372Y-11666460D02*
X15097896Y-11656936D01*
X15097896Y-11656936D02*
X15116944Y-11628365D01*
X15116944Y-11628365D02*
X15126467Y-11590269D01*
X15126467Y-11590269D02*
X15126467Y-11514079D01*
X15126467Y-11514079D02*
X15116944Y-11495031D01*
X15116944Y-11495031D02*
X15107420Y-11485508D01*
X15107420Y-11485508D02*
X15088372Y-11475984D01*
X15088372Y-11475984D02*
X15050277Y-11475984D01*
X15050277Y-11475984D02*
X15031229Y-11485508D01*
X15031229Y-11485508D02*
X15021706Y-11495031D01*
X15021706Y-11495031D02*
X15012182Y-11514079D01*
X15012182Y-11514079D02*
X15012182Y-11561698D01*
X15012182Y-11561698D02*
X15021706Y-11580746D01*
X15021706Y-11580746D02*
X15031229Y-11590269D01*
X15031229Y-11590269D02*
X15050277Y-11599793D01*
X15050277Y-11599793D02*
X15088372Y-11599793D01*
X15088372Y-11599793D02*
X15107420Y-11590269D01*
X15107420Y-11590269D02*
X15116944Y-11580746D01*
X15116944Y-11580746D02*
X15126467Y-11561698D01*
X15297896Y-11542650D02*
X15297896Y-11675984D01*
X15250277Y-11466460D02*
X15202658Y-11609317D01*
X15202658Y-11609317D02*
X15326467Y-11609317D01*
X15393134Y-11475984D02*
X15393134Y-11514079D01*
X15469325Y-11475984D02*
X15469325Y-11514079D01*
X15764563Y-11752174D02*
X15755039Y-11742650D01*
X15755039Y-11742650D02*
X15735991Y-11714079D01*
X15735991Y-11714079D02*
X15726468Y-11695031D01*
X15726468Y-11695031D02*
X15716944Y-11666460D01*
X15716944Y-11666460D02*
X15707420Y-11618841D01*
X15707420Y-11618841D02*
X15707420Y-11580746D01*
X15707420Y-11580746D02*
X15716944Y-11533127D01*
X15716944Y-11533127D02*
X15726468Y-11504555D01*
X15726468Y-11504555D02*
X15735991Y-11485508D01*
X15735991Y-11485508D02*
X15755039Y-11456936D01*
X15755039Y-11456936D02*
X15764563Y-11447412D01*
X15926468Y-11542650D02*
X15926468Y-11675984D01*
X15878848Y-11466460D02*
X15831229Y-11609317D01*
X15831229Y-11609317D02*
X15955039Y-11609317D01*
X16183610Y-11675984D02*
X16183610Y-11475984D01*
X16269325Y-11675984D02*
X16269325Y-11571222D01*
X16269325Y-11571222D02*
X16259801Y-11552174D01*
X16259801Y-11552174D02*
X16240753Y-11542650D01*
X16240753Y-11542650D02*
X16212182Y-11542650D01*
X16212182Y-11542650D02*
X16193134Y-11552174D01*
X16193134Y-11552174D02*
X16183610Y-11561698D01*
X16393134Y-11675984D02*
X16374087Y-11666460D01*
X16374087Y-11666460D02*
X16364563Y-11656936D01*
X16364563Y-11656936D02*
X16355039Y-11637888D01*
X16355039Y-11637888D02*
X16355039Y-11580746D01*
X16355039Y-11580746D02*
X16364563Y-11561698D01*
X16364563Y-11561698D02*
X16374087Y-11552174D01*
X16374087Y-11552174D02*
X16393134Y-11542650D01*
X16393134Y-11542650D02*
X16421706Y-11542650D01*
X16421706Y-11542650D02*
X16440753Y-11552174D01*
X16440753Y-11552174D02*
X16450277Y-11561698D01*
X16450277Y-11561698D02*
X16459801Y-11580746D01*
X16459801Y-11580746D02*
X16459801Y-11637888D01*
X16459801Y-11637888D02*
X16450277Y-11656936D01*
X16450277Y-11656936D02*
X16440753Y-11666460D01*
X16440753Y-11666460D02*
X16421706Y-11675984D01*
X16421706Y-11675984D02*
X16393134Y-11675984D01*
X16574087Y-11675984D02*
X16555039Y-11666460D01*
X16555039Y-11666460D02*
X16545515Y-11647412D01*
X16545515Y-11647412D02*
X16545515Y-11475984D01*
X16726468Y-11666460D02*
X16707420Y-11675984D01*
X16707420Y-11675984D02*
X16669325Y-11675984D01*
X16669325Y-11675984D02*
X16650277Y-11666460D01*
X16650277Y-11666460D02*
X16640753Y-11647412D01*
X16640753Y-11647412D02*
X16640753Y-11571222D01*
X16640753Y-11571222D02*
X16650277Y-11552174D01*
X16650277Y-11552174D02*
X16669325Y-11542650D01*
X16669325Y-11542650D02*
X16707420Y-11542650D01*
X16707420Y-11542650D02*
X16726468Y-11552174D01*
X16726468Y-11552174D02*
X16735991Y-11571222D01*
X16735991Y-11571222D02*
X16735991Y-11590269D01*
X16735991Y-11590269D02*
X16640753Y-11609317D01*
X16812182Y-11666460D02*
X16831230Y-11675984D01*
X16831230Y-11675984D02*
X16869325Y-11675984D01*
X16869325Y-11675984D02*
X16888373Y-11666460D01*
X16888373Y-11666460D02*
X16897896Y-11647412D01*
X16897896Y-11647412D02*
X16897896Y-11637888D01*
X16897896Y-11637888D02*
X16888373Y-11618841D01*
X16888373Y-11618841D02*
X16869325Y-11609317D01*
X16869325Y-11609317D02*
X16840753Y-11609317D01*
X16840753Y-11609317D02*
X16821706Y-11599793D01*
X16821706Y-11599793D02*
X16812182Y-11580746D01*
X16812182Y-11580746D02*
X16812182Y-11571222D01*
X16812182Y-11571222D02*
X16821706Y-11552174D01*
X16821706Y-11552174D02*
X16840753Y-11542650D01*
X16840753Y-11542650D02*
X16869325Y-11542650D01*
X16869325Y-11542650D02*
X16888373Y-11552174D01*
X16964563Y-11752174D02*
X16974087Y-11742650D01*
X16974087Y-11742650D02*
X16993134Y-11714079D01*
X16993134Y-11714079D02*
X17002658Y-11695031D01*
X17002658Y-11695031D02*
X17012182Y-11666460D01*
X17012182Y-11666460D02*
X17021706Y-11618841D01*
X17021706Y-11618841D02*
X17021706Y-11580746D01*
X17021706Y-11580746D02*
X17012182Y-11533127D01*
X17012182Y-11533127D02*
X17002658Y-11504555D01*
X17002658Y-11504555D02*
X16993134Y-11485508D01*
X16993134Y-11485508D02*
X16974087Y-11456936D01*
X16974087Y-11456936D02*
X16964563Y-11447412D01*
M02*
