%TF.GenerationSoftware,KiCad,Pcbnew,9.0.1*%
%TF.CreationDate,2025-11-19T13:08:34+09:00*%
%TF.ProjectId,9jikuwithR,396a696b-7577-4697-9468-522e6b696361,rev?*%
%TF.SameCoordinates,Original*%
%TF.FileFunction,Drillmap*%
%TF.FilePolarity,Positive*%
%FSLAX45Y45*%
G04 Gerber Fmt 4.5, Leading zero omitted, Abs format (unit mm)*
G04 Created by KiCad (PCBNEW 9.0.1) date 2025-11-19 13:08:34*
%MOMM*%
%LPD*%
G01*
G04 APERTURE LIST*
%ADD10C,0.050000*%
%ADD11C,0.200000*%
%ADD12C,0.100000*%
%ADD13C,0.110000*%
G04 APERTURE END LIST*
D10*
X11176000Y-8636000D02*
X14224000Y-8636000D01*
X14224000Y-11176000D01*
X11176000Y-11176000D01*
X11176000Y-8636000D01*
D11*
D12*
X11390000Y-9358000D02*
X11470000Y-9438000D01*
X11470000Y-9358000D02*
X11390000Y-9438000D01*
X11390000Y-10120000D02*
X11470000Y-10200000D01*
X11470000Y-10120000D02*
X11390000Y-10200000D01*
X11898000Y-8977000D02*
X11978000Y-9057000D01*
X11978000Y-8977000D02*
X11898000Y-9057000D01*
X11898000Y-9739000D02*
X11978000Y-9819000D01*
X11978000Y-9739000D02*
X11898000Y-9819000D01*
X12406000Y-9104000D02*
X12486000Y-9184000D01*
X12486000Y-9104000D02*
X12406000Y-9184000D01*
X12406000Y-9358000D02*
X12486000Y-9438000D01*
X12486000Y-9358000D02*
X12406000Y-9438000D01*
X12406000Y-9612000D02*
X12486000Y-9692000D01*
X12486000Y-9612000D02*
X12406000Y-9692000D01*
X12406000Y-9866000D02*
X12486000Y-9946000D01*
X12486000Y-9866000D02*
X12406000Y-9946000D01*
X13168000Y-9104000D02*
X13248000Y-9184000D01*
X13248000Y-9104000D02*
X13168000Y-9184000D01*
X13168000Y-9358000D02*
X13248000Y-9438000D01*
X13248000Y-9358000D02*
X13168000Y-9438000D01*
X13168000Y-9612000D02*
X13248000Y-9692000D01*
X13248000Y-9612000D02*
X13168000Y-9692000D01*
X13168000Y-9866000D02*
X13248000Y-9946000D01*
X13248000Y-9866000D02*
X13168000Y-9946000D01*
D13*
X12509000Y-10668000D02*
G75*
G02*
X12399000Y-10668000I-55000J0D01*
G01*
X12399000Y-10668000D02*
G75*
G02*
X12509000Y-10668000I55000J0D01*
G01*
X12759000Y-10668000D02*
G75*
G02*
X12649000Y-10668000I-55000J0D01*
G01*
X12649000Y-10668000D02*
G75*
G02*
X12759000Y-10668000I55000J0D01*
G01*
X13009000Y-10668000D02*
G75*
G02*
X12899000Y-10668000I-55000J0D01*
G01*
X12899000Y-10668000D02*
G75*
G02*
X13009000Y-10668000I55000J0D01*
G01*
X13259000Y-10668000D02*
G75*
G02*
X13149000Y-10668000I-55000J0D01*
G01*
X13149000Y-10668000D02*
G75*
G02*
X13259000Y-10668000I55000J0D01*
G01*
D11*
X11434277Y-11489984D02*
X11434277Y-11289984D01*
X11434277Y-11289984D02*
X11481896Y-11289984D01*
X11481896Y-11289984D02*
X11510467Y-11299508D01*
X11510467Y-11299508D02*
X11529515Y-11318555D01*
X11529515Y-11318555D02*
X11539039Y-11337603D01*
X11539039Y-11337603D02*
X11548562Y-11375698D01*
X11548562Y-11375698D02*
X11548562Y-11404269D01*
X11548562Y-11404269D02*
X11539039Y-11442365D01*
X11539039Y-11442365D02*
X11529515Y-11461412D01*
X11529515Y-11461412D02*
X11510467Y-11480460D01*
X11510467Y-11480460D02*
X11481896Y-11489984D01*
X11481896Y-11489984D02*
X11434277Y-11489984D01*
X11634277Y-11489984D02*
X11634277Y-11356650D01*
X11634277Y-11394746D02*
X11643801Y-11375698D01*
X11643801Y-11375698D02*
X11653324Y-11366174D01*
X11653324Y-11366174D02*
X11672372Y-11356650D01*
X11672372Y-11356650D02*
X11691420Y-11356650D01*
X11758086Y-11489984D02*
X11758086Y-11356650D01*
X11758086Y-11289984D02*
X11748562Y-11299508D01*
X11748562Y-11299508D02*
X11758086Y-11309031D01*
X11758086Y-11309031D02*
X11767610Y-11299508D01*
X11767610Y-11299508D02*
X11758086Y-11289984D01*
X11758086Y-11289984D02*
X11758086Y-11309031D01*
X11881896Y-11489984D02*
X11862848Y-11480460D01*
X11862848Y-11480460D02*
X11853324Y-11461412D01*
X11853324Y-11461412D02*
X11853324Y-11289984D01*
X11986658Y-11489984D02*
X11967610Y-11480460D01*
X11967610Y-11480460D02*
X11958086Y-11461412D01*
X11958086Y-11461412D02*
X11958086Y-11289984D01*
X12215229Y-11489984D02*
X12215229Y-11289984D01*
X12215229Y-11289984D02*
X12281896Y-11432841D01*
X12281896Y-11432841D02*
X12348562Y-11289984D01*
X12348562Y-11289984D02*
X12348562Y-11489984D01*
X12529515Y-11489984D02*
X12529515Y-11385222D01*
X12529515Y-11385222D02*
X12519991Y-11366174D01*
X12519991Y-11366174D02*
X12500943Y-11356650D01*
X12500943Y-11356650D02*
X12462848Y-11356650D01*
X12462848Y-11356650D02*
X12443801Y-11366174D01*
X12529515Y-11480460D02*
X12510467Y-11489984D01*
X12510467Y-11489984D02*
X12462848Y-11489984D01*
X12462848Y-11489984D02*
X12443801Y-11480460D01*
X12443801Y-11480460D02*
X12434277Y-11461412D01*
X12434277Y-11461412D02*
X12434277Y-11442365D01*
X12434277Y-11442365D02*
X12443801Y-11423317D01*
X12443801Y-11423317D02*
X12462848Y-11413793D01*
X12462848Y-11413793D02*
X12510467Y-11413793D01*
X12510467Y-11413793D02*
X12529515Y-11404269D01*
X12624753Y-11356650D02*
X12624753Y-11556650D01*
X12624753Y-11366174D02*
X12643801Y-11356650D01*
X12643801Y-11356650D02*
X12681896Y-11356650D01*
X12681896Y-11356650D02*
X12700943Y-11366174D01*
X12700943Y-11366174D02*
X12710467Y-11375698D01*
X12710467Y-11375698D02*
X12719991Y-11394746D01*
X12719991Y-11394746D02*
X12719991Y-11451888D01*
X12719991Y-11451888D02*
X12710467Y-11470936D01*
X12710467Y-11470936D02*
X12700943Y-11480460D01*
X12700943Y-11480460D02*
X12681896Y-11489984D01*
X12681896Y-11489984D02*
X12643801Y-11489984D01*
X12643801Y-11489984D02*
X12624753Y-11480460D01*
X12805705Y-11470936D02*
X12815229Y-11480460D01*
X12815229Y-11480460D02*
X12805705Y-11489984D01*
X12805705Y-11489984D02*
X12796182Y-11480460D01*
X12796182Y-11480460D02*
X12805705Y-11470936D01*
X12805705Y-11470936D02*
X12805705Y-11489984D01*
X12805705Y-11366174D02*
X12815229Y-11375698D01*
X12815229Y-11375698D02*
X12805705Y-11385222D01*
X12805705Y-11385222D02*
X12796182Y-11375698D01*
X12796182Y-11375698D02*
X12805705Y-11366174D01*
X12805705Y-11366174D02*
X12805705Y-11385222D01*
D12*
X11093500Y-11778500D02*
X11173500Y-11858500D01*
X11173500Y-11778500D02*
X11093500Y-11858500D01*
D11*
X11472372Y-11709984D02*
X11491420Y-11709984D01*
X11491420Y-11709984D02*
X11510467Y-11719508D01*
X11510467Y-11719508D02*
X11519991Y-11729031D01*
X11519991Y-11729031D02*
X11529515Y-11748079D01*
X11529515Y-11748079D02*
X11539039Y-11786174D01*
X11539039Y-11786174D02*
X11539039Y-11833793D01*
X11539039Y-11833793D02*
X11529515Y-11871888D01*
X11529515Y-11871888D02*
X11519991Y-11890936D01*
X11519991Y-11890936D02*
X11510467Y-11900460D01*
X11510467Y-11900460D02*
X11491420Y-11909984D01*
X11491420Y-11909984D02*
X11472372Y-11909984D01*
X11472372Y-11909984D02*
X11453324Y-11900460D01*
X11453324Y-11900460D02*
X11443801Y-11890936D01*
X11443801Y-11890936D02*
X11434277Y-11871888D01*
X11434277Y-11871888D02*
X11424753Y-11833793D01*
X11424753Y-11833793D02*
X11424753Y-11786174D01*
X11424753Y-11786174D02*
X11434277Y-11748079D01*
X11434277Y-11748079D02*
X11443801Y-11729031D01*
X11443801Y-11729031D02*
X11453324Y-11719508D01*
X11453324Y-11719508D02*
X11472372Y-11709984D01*
X11624753Y-11890936D02*
X11634277Y-11900460D01*
X11634277Y-11900460D02*
X11624753Y-11909984D01*
X11624753Y-11909984D02*
X11615229Y-11900460D01*
X11615229Y-11900460D02*
X11624753Y-11890936D01*
X11624753Y-11890936D02*
X11624753Y-11909984D01*
X11748562Y-11795698D02*
X11729515Y-11786174D01*
X11729515Y-11786174D02*
X11719991Y-11776650D01*
X11719991Y-11776650D02*
X11710467Y-11757603D01*
X11710467Y-11757603D02*
X11710467Y-11748079D01*
X11710467Y-11748079D02*
X11719991Y-11729031D01*
X11719991Y-11729031D02*
X11729515Y-11719508D01*
X11729515Y-11719508D02*
X11748562Y-11709984D01*
X11748562Y-11709984D02*
X11786658Y-11709984D01*
X11786658Y-11709984D02*
X11805705Y-11719508D01*
X11805705Y-11719508D02*
X11815229Y-11729031D01*
X11815229Y-11729031D02*
X11824753Y-11748079D01*
X11824753Y-11748079D02*
X11824753Y-11757603D01*
X11824753Y-11757603D02*
X11815229Y-11776650D01*
X11815229Y-11776650D02*
X11805705Y-11786174D01*
X11805705Y-11786174D02*
X11786658Y-11795698D01*
X11786658Y-11795698D02*
X11748562Y-11795698D01*
X11748562Y-11795698D02*
X11729515Y-11805222D01*
X11729515Y-11805222D02*
X11719991Y-11814746D01*
X11719991Y-11814746D02*
X11710467Y-11833793D01*
X11710467Y-11833793D02*
X11710467Y-11871888D01*
X11710467Y-11871888D02*
X11719991Y-11890936D01*
X11719991Y-11890936D02*
X11729515Y-11900460D01*
X11729515Y-11900460D02*
X11748562Y-11909984D01*
X11748562Y-11909984D02*
X11786658Y-11909984D01*
X11786658Y-11909984D02*
X11805705Y-11900460D01*
X11805705Y-11900460D02*
X11815229Y-11890936D01*
X11815229Y-11890936D02*
X11824753Y-11871888D01*
X11824753Y-11871888D02*
X11824753Y-11833793D01*
X11824753Y-11833793D02*
X11815229Y-11814746D01*
X11815229Y-11814746D02*
X11805705Y-11805222D01*
X11805705Y-11805222D02*
X11786658Y-11795698D01*
X11948562Y-11709984D02*
X11967610Y-11709984D01*
X11967610Y-11709984D02*
X11986658Y-11719508D01*
X11986658Y-11719508D02*
X11996182Y-11729031D01*
X11996182Y-11729031D02*
X12005705Y-11748079D01*
X12005705Y-11748079D02*
X12015229Y-11786174D01*
X12015229Y-11786174D02*
X12015229Y-11833793D01*
X12015229Y-11833793D02*
X12005705Y-11871888D01*
X12005705Y-11871888D02*
X11996182Y-11890936D01*
X11996182Y-11890936D02*
X11986658Y-11900460D01*
X11986658Y-11900460D02*
X11967610Y-11909984D01*
X11967610Y-11909984D02*
X11948562Y-11909984D01*
X11948562Y-11909984D02*
X11929515Y-11900460D01*
X11929515Y-11900460D02*
X11919991Y-11890936D01*
X11919991Y-11890936D02*
X11910467Y-11871888D01*
X11910467Y-11871888D02*
X11900943Y-11833793D01*
X11900943Y-11833793D02*
X11900943Y-11786174D01*
X11900943Y-11786174D02*
X11910467Y-11748079D01*
X11910467Y-11748079D02*
X11919991Y-11729031D01*
X11919991Y-11729031D02*
X11929515Y-11719508D01*
X11929515Y-11719508D02*
X11948562Y-11709984D01*
X12139039Y-11709984D02*
X12158086Y-11709984D01*
X12158086Y-11709984D02*
X12177134Y-11719508D01*
X12177134Y-11719508D02*
X12186658Y-11729031D01*
X12186658Y-11729031D02*
X12196182Y-11748079D01*
X12196182Y-11748079D02*
X12205705Y-11786174D01*
X12205705Y-11786174D02*
X12205705Y-11833793D01*
X12205705Y-11833793D02*
X12196182Y-11871888D01*
X12196182Y-11871888D02*
X12186658Y-11890936D01*
X12186658Y-11890936D02*
X12177134Y-11900460D01*
X12177134Y-11900460D02*
X12158086Y-11909984D01*
X12158086Y-11909984D02*
X12139039Y-11909984D01*
X12139039Y-11909984D02*
X12119991Y-11900460D01*
X12119991Y-11900460D02*
X12110467Y-11890936D01*
X12110467Y-11890936D02*
X12100943Y-11871888D01*
X12100943Y-11871888D02*
X12091420Y-11833793D01*
X12091420Y-11833793D02*
X12091420Y-11786174D01*
X12091420Y-11786174D02*
X12100943Y-11748079D01*
X12100943Y-11748079D02*
X12110467Y-11729031D01*
X12110467Y-11729031D02*
X12119991Y-11719508D01*
X12119991Y-11719508D02*
X12139039Y-11709984D01*
X12291420Y-11909984D02*
X12291420Y-11776650D01*
X12291420Y-11795698D02*
X12300943Y-11786174D01*
X12300943Y-11786174D02*
X12319991Y-11776650D01*
X12319991Y-11776650D02*
X12348563Y-11776650D01*
X12348563Y-11776650D02*
X12367610Y-11786174D01*
X12367610Y-11786174D02*
X12377134Y-11805222D01*
X12377134Y-11805222D02*
X12377134Y-11909984D01*
X12377134Y-11805222D02*
X12386658Y-11786174D01*
X12386658Y-11786174D02*
X12405705Y-11776650D01*
X12405705Y-11776650D02*
X12434277Y-11776650D01*
X12434277Y-11776650D02*
X12453324Y-11786174D01*
X12453324Y-11786174D02*
X12462848Y-11805222D01*
X12462848Y-11805222D02*
X12462848Y-11909984D01*
X12558086Y-11909984D02*
X12558086Y-11776650D01*
X12558086Y-11795698D02*
X12567610Y-11786174D01*
X12567610Y-11786174D02*
X12586658Y-11776650D01*
X12586658Y-11776650D02*
X12615229Y-11776650D01*
X12615229Y-11776650D02*
X12634277Y-11786174D01*
X12634277Y-11786174D02*
X12643801Y-11805222D01*
X12643801Y-11805222D02*
X12643801Y-11909984D01*
X12643801Y-11805222D02*
X12653324Y-11786174D01*
X12653324Y-11786174D02*
X12672372Y-11776650D01*
X12672372Y-11776650D02*
X12700943Y-11776650D01*
X12700943Y-11776650D02*
X12719991Y-11786174D01*
X12719991Y-11786174D02*
X12729515Y-11805222D01*
X12729515Y-11805222D02*
X12729515Y-11909984D01*
X13119991Y-11700460D02*
X12948563Y-11957603D01*
X13377134Y-11709984D02*
X13396182Y-11709984D01*
X13396182Y-11709984D02*
X13415229Y-11719508D01*
X13415229Y-11719508D02*
X13424753Y-11729031D01*
X13424753Y-11729031D02*
X13434277Y-11748079D01*
X13434277Y-11748079D02*
X13443801Y-11786174D01*
X13443801Y-11786174D02*
X13443801Y-11833793D01*
X13443801Y-11833793D02*
X13434277Y-11871888D01*
X13434277Y-11871888D02*
X13424753Y-11890936D01*
X13424753Y-11890936D02*
X13415229Y-11900460D01*
X13415229Y-11900460D02*
X13396182Y-11909984D01*
X13396182Y-11909984D02*
X13377134Y-11909984D01*
X13377134Y-11909984D02*
X13358086Y-11900460D01*
X13358086Y-11900460D02*
X13348563Y-11890936D01*
X13348563Y-11890936D02*
X13339039Y-11871888D01*
X13339039Y-11871888D02*
X13329515Y-11833793D01*
X13329515Y-11833793D02*
X13329515Y-11786174D01*
X13329515Y-11786174D02*
X13339039Y-11748079D01*
X13339039Y-11748079D02*
X13348563Y-11729031D01*
X13348563Y-11729031D02*
X13358086Y-11719508D01*
X13358086Y-11719508D02*
X13377134Y-11709984D01*
X13529515Y-11890936D02*
X13539039Y-11900460D01*
X13539039Y-11900460D02*
X13529515Y-11909984D01*
X13529515Y-11909984D02*
X13519991Y-11900460D01*
X13519991Y-11900460D02*
X13529515Y-11890936D01*
X13529515Y-11890936D02*
X13529515Y-11909984D01*
X13662848Y-11709984D02*
X13681896Y-11709984D01*
X13681896Y-11709984D02*
X13700944Y-11719508D01*
X13700944Y-11719508D02*
X13710467Y-11729031D01*
X13710467Y-11729031D02*
X13719991Y-11748079D01*
X13719991Y-11748079D02*
X13729515Y-11786174D01*
X13729515Y-11786174D02*
X13729515Y-11833793D01*
X13729515Y-11833793D02*
X13719991Y-11871888D01*
X13719991Y-11871888D02*
X13710467Y-11890936D01*
X13710467Y-11890936D02*
X13700944Y-11900460D01*
X13700944Y-11900460D02*
X13681896Y-11909984D01*
X13681896Y-11909984D02*
X13662848Y-11909984D01*
X13662848Y-11909984D02*
X13643801Y-11900460D01*
X13643801Y-11900460D02*
X13634277Y-11890936D01*
X13634277Y-11890936D02*
X13624753Y-11871888D01*
X13624753Y-11871888D02*
X13615229Y-11833793D01*
X13615229Y-11833793D02*
X13615229Y-11786174D01*
X13615229Y-11786174D02*
X13624753Y-11748079D01*
X13624753Y-11748079D02*
X13634277Y-11729031D01*
X13634277Y-11729031D02*
X13643801Y-11719508D01*
X13643801Y-11719508D02*
X13662848Y-11709984D01*
X13796182Y-11709984D02*
X13919991Y-11709984D01*
X13919991Y-11709984D02*
X13853325Y-11786174D01*
X13853325Y-11786174D02*
X13881896Y-11786174D01*
X13881896Y-11786174D02*
X13900944Y-11795698D01*
X13900944Y-11795698D02*
X13910467Y-11805222D01*
X13910467Y-11805222D02*
X13919991Y-11824269D01*
X13919991Y-11824269D02*
X13919991Y-11871888D01*
X13919991Y-11871888D02*
X13910467Y-11890936D01*
X13910467Y-11890936D02*
X13900944Y-11900460D01*
X13900944Y-11900460D02*
X13881896Y-11909984D01*
X13881896Y-11909984D02*
X13824753Y-11909984D01*
X13824753Y-11909984D02*
X13805706Y-11900460D01*
X13805706Y-11900460D02*
X13796182Y-11890936D01*
X14110467Y-11909984D02*
X13996182Y-11909984D01*
X14053325Y-11909984D02*
X14053325Y-11709984D01*
X14053325Y-11709984D02*
X14034277Y-11738555D01*
X14034277Y-11738555D02*
X14015229Y-11757603D01*
X14015229Y-11757603D02*
X13996182Y-11767127D01*
X14291420Y-11709984D02*
X14196182Y-11709984D01*
X14196182Y-11709984D02*
X14186658Y-11805222D01*
X14186658Y-11805222D02*
X14196182Y-11795698D01*
X14196182Y-11795698D02*
X14215229Y-11786174D01*
X14215229Y-11786174D02*
X14262848Y-11786174D01*
X14262848Y-11786174D02*
X14281896Y-11795698D01*
X14281896Y-11795698D02*
X14291420Y-11805222D01*
X14291420Y-11805222D02*
X14300944Y-11824269D01*
X14300944Y-11824269D02*
X14300944Y-11871888D01*
X14300944Y-11871888D02*
X14291420Y-11890936D01*
X14291420Y-11890936D02*
X14281896Y-11900460D01*
X14281896Y-11900460D02*
X14262848Y-11909984D01*
X14262848Y-11909984D02*
X14215229Y-11909984D01*
X14215229Y-11909984D02*
X14196182Y-11900460D01*
X14196182Y-11900460D02*
X14186658Y-11890936D01*
X14377134Y-11709984D02*
X14377134Y-11748079D01*
X14453325Y-11709984D02*
X14453325Y-11748079D01*
X14748563Y-11986174D02*
X14739039Y-11976650D01*
X14739039Y-11976650D02*
X14719991Y-11948079D01*
X14719991Y-11948079D02*
X14710468Y-11929031D01*
X14710468Y-11929031D02*
X14700944Y-11900460D01*
X14700944Y-11900460D02*
X14691420Y-11852841D01*
X14691420Y-11852841D02*
X14691420Y-11814746D01*
X14691420Y-11814746D02*
X14700944Y-11767127D01*
X14700944Y-11767127D02*
X14710468Y-11738555D01*
X14710468Y-11738555D02*
X14719991Y-11719508D01*
X14719991Y-11719508D02*
X14739039Y-11690936D01*
X14739039Y-11690936D02*
X14748563Y-11681412D01*
X14929515Y-11909984D02*
X14815229Y-11909984D01*
X14872372Y-11909984D02*
X14872372Y-11709984D01*
X14872372Y-11709984D02*
X14853325Y-11738555D01*
X14853325Y-11738555D02*
X14834277Y-11757603D01*
X14834277Y-11757603D02*
X14815229Y-11767127D01*
X15005706Y-11729031D02*
X15015229Y-11719508D01*
X15015229Y-11719508D02*
X15034277Y-11709984D01*
X15034277Y-11709984D02*
X15081896Y-11709984D01*
X15081896Y-11709984D02*
X15100944Y-11719508D01*
X15100944Y-11719508D02*
X15110468Y-11729031D01*
X15110468Y-11729031D02*
X15119991Y-11748079D01*
X15119991Y-11748079D02*
X15119991Y-11767127D01*
X15119991Y-11767127D02*
X15110468Y-11795698D01*
X15110468Y-11795698D02*
X14996182Y-11909984D01*
X14996182Y-11909984D02*
X15119991Y-11909984D01*
X15358087Y-11909984D02*
X15358087Y-11709984D01*
X15443801Y-11909984D02*
X15443801Y-11805222D01*
X15443801Y-11805222D02*
X15434277Y-11786174D01*
X15434277Y-11786174D02*
X15415230Y-11776650D01*
X15415230Y-11776650D02*
X15386658Y-11776650D01*
X15386658Y-11776650D02*
X15367610Y-11786174D01*
X15367610Y-11786174D02*
X15358087Y-11795698D01*
X15567610Y-11909984D02*
X15548563Y-11900460D01*
X15548563Y-11900460D02*
X15539039Y-11890936D01*
X15539039Y-11890936D02*
X15529515Y-11871888D01*
X15529515Y-11871888D02*
X15529515Y-11814746D01*
X15529515Y-11814746D02*
X15539039Y-11795698D01*
X15539039Y-11795698D02*
X15548563Y-11786174D01*
X15548563Y-11786174D02*
X15567610Y-11776650D01*
X15567610Y-11776650D02*
X15596182Y-11776650D01*
X15596182Y-11776650D02*
X15615230Y-11786174D01*
X15615230Y-11786174D02*
X15624753Y-11795698D01*
X15624753Y-11795698D02*
X15634277Y-11814746D01*
X15634277Y-11814746D02*
X15634277Y-11871888D01*
X15634277Y-11871888D02*
X15624753Y-11890936D01*
X15624753Y-11890936D02*
X15615230Y-11900460D01*
X15615230Y-11900460D02*
X15596182Y-11909984D01*
X15596182Y-11909984D02*
X15567610Y-11909984D01*
X15748563Y-11909984D02*
X15729515Y-11900460D01*
X15729515Y-11900460D02*
X15719991Y-11881412D01*
X15719991Y-11881412D02*
X15719991Y-11709984D01*
X15900944Y-11900460D02*
X15881896Y-11909984D01*
X15881896Y-11909984D02*
X15843801Y-11909984D01*
X15843801Y-11909984D02*
X15824753Y-11900460D01*
X15824753Y-11900460D02*
X15815230Y-11881412D01*
X15815230Y-11881412D02*
X15815230Y-11805222D01*
X15815230Y-11805222D02*
X15824753Y-11786174D01*
X15824753Y-11786174D02*
X15843801Y-11776650D01*
X15843801Y-11776650D02*
X15881896Y-11776650D01*
X15881896Y-11776650D02*
X15900944Y-11786174D01*
X15900944Y-11786174D02*
X15910468Y-11805222D01*
X15910468Y-11805222D02*
X15910468Y-11824269D01*
X15910468Y-11824269D02*
X15815230Y-11843317D01*
X15986658Y-11900460D02*
X16005706Y-11909984D01*
X16005706Y-11909984D02*
X16043801Y-11909984D01*
X16043801Y-11909984D02*
X16062849Y-11900460D01*
X16062849Y-11900460D02*
X16072372Y-11881412D01*
X16072372Y-11881412D02*
X16072372Y-11871888D01*
X16072372Y-11871888D02*
X16062849Y-11852841D01*
X16062849Y-11852841D02*
X16043801Y-11843317D01*
X16043801Y-11843317D02*
X16015230Y-11843317D01*
X16015230Y-11843317D02*
X15996182Y-11833793D01*
X15996182Y-11833793D02*
X15986658Y-11814746D01*
X15986658Y-11814746D02*
X15986658Y-11805222D01*
X15986658Y-11805222D02*
X15996182Y-11786174D01*
X15996182Y-11786174D02*
X16015230Y-11776650D01*
X16015230Y-11776650D02*
X16043801Y-11776650D01*
X16043801Y-11776650D02*
X16062849Y-11786174D01*
X16139039Y-11986174D02*
X16148563Y-11976650D01*
X16148563Y-11976650D02*
X16167611Y-11948079D01*
X16167611Y-11948079D02*
X16177134Y-11929031D01*
X16177134Y-11929031D02*
X16186658Y-11900460D01*
X16186658Y-11900460D02*
X16196182Y-11852841D01*
X16196182Y-11852841D02*
X16196182Y-11814746D01*
X16196182Y-11814746D02*
X16186658Y-11767127D01*
X16186658Y-11767127D02*
X16177134Y-11738555D01*
X16177134Y-11738555D02*
X16167611Y-11719508D01*
X16167611Y-11719508D02*
X16148563Y-11690936D01*
X16148563Y-11690936D02*
X16139039Y-11681412D01*
D13*
X11173500Y-12082500D02*
G75*
G02*
X11063500Y-12082500I-55000J0D01*
G01*
X11063500Y-12082500D02*
G75*
G02*
X11173500Y-12082500I55000J0D01*
G01*
D11*
X11539039Y-12173984D02*
X11424753Y-12173984D01*
X11481896Y-12173984D02*
X11481896Y-11973984D01*
X11481896Y-11973984D02*
X11462848Y-12002555D01*
X11462848Y-12002555D02*
X11443801Y-12021603D01*
X11443801Y-12021603D02*
X11424753Y-12031127D01*
X11624753Y-12154936D02*
X11634277Y-12164460D01*
X11634277Y-12164460D02*
X11624753Y-12173984D01*
X11624753Y-12173984D02*
X11615229Y-12164460D01*
X11615229Y-12164460D02*
X11624753Y-12154936D01*
X11624753Y-12154936D02*
X11624753Y-12173984D01*
X11824753Y-12173984D02*
X11710467Y-12173984D01*
X11767610Y-12173984D02*
X11767610Y-11973984D01*
X11767610Y-11973984D02*
X11748562Y-12002555D01*
X11748562Y-12002555D02*
X11729515Y-12021603D01*
X11729515Y-12021603D02*
X11710467Y-12031127D01*
X11948562Y-11973984D02*
X11967610Y-11973984D01*
X11967610Y-11973984D02*
X11986658Y-11983508D01*
X11986658Y-11983508D02*
X11996182Y-11993031D01*
X11996182Y-11993031D02*
X12005705Y-12012079D01*
X12005705Y-12012079D02*
X12015229Y-12050174D01*
X12015229Y-12050174D02*
X12015229Y-12097793D01*
X12015229Y-12097793D02*
X12005705Y-12135888D01*
X12005705Y-12135888D02*
X11996182Y-12154936D01*
X11996182Y-12154936D02*
X11986658Y-12164460D01*
X11986658Y-12164460D02*
X11967610Y-12173984D01*
X11967610Y-12173984D02*
X11948562Y-12173984D01*
X11948562Y-12173984D02*
X11929515Y-12164460D01*
X11929515Y-12164460D02*
X11919991Y-12154936D01*
X11919991Y-12154936D02*
X11910467Y-12135888D01*
X11910467Y-12135888D02*
X11900943Y-12097793D01*
X11900943Y-12097793D02*
X11900943Y-12050174D01*
X11900943Y-12050174D02*
X11910467Y-12012079D01*
X11910467Y-12012079D02*
X11919991Y-11993031D01*
X11919991Y-11993031D02*
X11929515Y-11983508D01*
X11929515Y-11983508D02*
X11948562Y-11973984D01*
X12139039Y-11973984D02*
X12158086Y-11973984D01*
X12158086Y-11973984D02*
X12177134Y-11983508D01*
X12177134Y-11983508D02*
X12186658Y-11993031D01*
X12186658Y-11993031D02*
X12196182Y-12012079D01*
X12196182Y-12012079D02*
X12205705Y-12050174D01*
X12205705Y-12050174D02*
X12205705Y-12097793D01*
X12205705Y-12097793D02*
X12196182Y-12135888D01*
X12196182Y-12135888D02*
X12186658Y-12154936D01*
X12186658Y-12154936D02*
X12177134Y-12164460D01*
X12177134Y-12164460D02*
X12158086Y-12173984D01*
X12158086Y-12173984D02*
X12139039Y-12173984D01*
X12139039Y-12173984D02*
X12119991Y-12164460D01*
X12119991Y-12164460D02*
X12110467Y-12154936D01*
X12110467Y-12154936D02*
X12100943Y-12135888D01*
X12100943Y-12135888D02*
X12091420Y-12097793D01*
X12091420Y-12097793D02*
X12091420Y-12050174D01*
X12091420Y-12050174D02*
X12100943Y-12012079D01*
X12100943Y-12012079D02*
X12110467Y-11993031D01*
X12110467Y-11993031D02*
X12119991Y-11983508D01*
X12119991Y-11983508D02*
X12139039Y-11973984D01*
X12291420Y-12173984D02*
X12291420Y-12040650D01*
X12291420Y-12059698D02*
X12300943Y-12050174D01*
X12300943Y-12050174D02*
X12319991Y-12040650D01*
X12319991Y-12040650D02*
X12348563Y-12040650D01*
X12348563Y-12040650D02*
X12367610Y-12050174D01*
X12367610Y-12050174D02*
X12377134Y-12069222D01*
X12377134Y-12069222D02*
X12377134Y-12173984D01*
X12377134Y-12069222D02*
X12386658Y-12050174D01*
X12386658Y-12050174D02*
X12405705Y-12040650D01*
X12405705Y-12040650D02*
X12434277Y-12040650D01*
X12434277Y-12040650D02*
X12453324Y-12050174D01*
X12453324Y-12050174D02*
X12462848Y-12069222D01*
X12462848Y-12069222D02*
X12462848Y-12173984D01*
X12558086Y-12173984D02*
X12558086Y-12040650D01*
X12558086Y-12059698D02*
X12567610Y-12050174D01*
X12567610Y-12050174D02*
X12586658Y-12040650D01*
X12586658Y-12040650D02*
X12615229Y-12040650D01*
X12615229Y-12040650D02*
X12634277Y-12050174D01*
X12634277Y-12050174D02*
X12643801Y-12069222D01*
X12643801Y-12069222D02*
X12643801Y-12173984D01*
X12643801Y-12069222D02*
X12653324Y-12050174D01*
X12653324Y-12050174D02*
X12672372Y-12040650D01*
X12672372Y-12040650D02*
X12700943Y-12040650D01*
X12700943Y-12040650D02*
X12719991Y-12050174D01*
X12719991Y-12050174D02*
X12729515Y-12069222D01*
X12729515Y-12069222D02*
X12729515Y-12173984D01*
X13119991Y-11964460D02*
X12948563Y-12221603D01*
X13377134Y-11973984D02*
X13396182Y-11973984D01*
X13396182Y-11973984D02*
X13415229Y-11983508D01*
X13415229Y-11983508D02*
X13424753Y-11993031D01*
X13424753Y-11993031D02*
X13434277Y-12012079D01*
X13434277Y-12012079D02*
X13443801Y-12050174D01*
X13443801Y-12050174D02*
X13443801Y-12097793D01*
X13443801Y-12097793D02*
X13434277Y-12135888D01*
X13434277Y-12135888D02*
X13424753Y-12154936D01*
X13424753Y-12154936D02*
X13415229Y-12164460D01*
X13415229Y-12164460D02*
X13396182Y-12173984D01*
X13396182Y-12173984D02*
X13377134Y-12173984D01*
X13377134Y-12173984D02*
X13358086Y-12164460D01*
X13358086Y-12164460D02*
X13348563Y-12154936D01*
X13348563Y-12154936D02*
X13339039Y-12135888D01*
X13339039Y-12135888D02*
X13329515Y-12097793D01*
X13329515Y-12097793D02*
X13329515Y-12050174D01*
X13329515Y-12050174D02*
X13339039Y-12012079D01*
X13339039Y-12012079D02*
X13348563Y-11993031D01*
X13348563Y-11993031D02*
X13358086Y-11983508D01*
X13358086Y-11983508D02*
X13377134Y-11973984D01*
X13529515Y-12154936D02*
X13539039Y-12164460D01*
X13539039Y-12164460D02*
X13529515Y-12173984D01*
X13529515Y-12173984D02*
X13519991Y-12164460D01*
X13519991Y-12164460D02*
X13529515Y-12154936D01*
X13529515Y-12154936D02*
X13529515Y-12173984D01*
X13662848Y-11973984D02*
X13681896Y-11973984D01*
X13681896Y-11973984D02*
X13700944Y-11983508D01*
X13700944Y-11983508D02*
X13710467Y-11993031D01*
X13710467Y-11993031D02*
X13719991Y-12012079D01*
X13719991Y-12012079D02*
X13729515Y-12050174D01*
X13729515Y-12050174D02*
X13729515Y-12097793D01*
X13729515Y-12097793D02*
X13719991Y-12135888D01*
X13719991Y-12135888D02*
X13710467Y-12154936D01*
X13710467Y-12154936D02*
X13700944Y-12164460D01*
X13700944Y-12164460D02*
X13681896Y-12173984D01*
X13681896Y-12173984D02*
X13662848Y-12173984D01*
X13662848Y-12173984D02*
X13643801Y-12164460D01*
X13643801Y-12164460D02*
X13634277Y-12154936D01*
X13634277Y-12154936D02*
X13624753Y-12135888D01*
X13624753Y-12135888D02*
X13615229Y-12097793D01*
X13615229Y-12097793D02*
X13615229Y-12050174D01*
X13615229Y-12050174D02*
X13624753Y-12012079D01*
X13624753Y-12012079D02*
X13634277Y-11993031D01*
X13634277Y-11993031D02*
X13643801Y-11983508D01*
X13643801Y-11983508D02*
X13662848Y-11973984D01*
X13900944Y-12040650D02*
X13900944Y-12173984D01*
X13853325Y-11964460D02*
X13805706Y-12107317D01*
X13805706Y-12107317D02*
X13929515Y-12107317D01*
X13986658Y-11973984D02*
X14110467Y-11973984D01*
X14110467Y-11973984D02*
X14043801Y-12050174D01*
X14043801Y-12050174D02*
X14072372Y-12050174D01*
X14072372Y-12050174D02*
X14091420Y-12059698D01*
X14091420Y-12059698D02*
X14100944Y-12069222D01*
X14100944Y-12069222D02*
X14110467Y-12088269D01*
X14110467Y-12088269D02*
X14110467Y-12135888D01*
X14110467Y-12135888D02*
X14100944Y-12154936D01*
X14100944Y-12154936D02*
X14091420Y-12164460D01*
X14091420Y-12164460D02*
X14072372Y-12173984D01*
X14072372Y-12173984D02*
X14015229Y-12173984D01*
X14015229Y-12173984D02*
X13996182Y-12164460D01*
X13996182Y-12164460D02*
X13986658Y-12154936D01*
X14177134Y-11973984D02*
X14300944Y-11973984D01*
X14300944Y-11973984D02*
X14234277Y-12050174D01*
X14234277Y-12050174D02*
X14262848Y-12050174D01*
X14262848Y-12050174D02*
X14281896Y-12059698D01*
X14281896Y-12059698D02*
X14291420Y-12069222D01*
X14291420Y-12069222D02*
X14300944Y-12088269D01*
X14300944Y-12088269D02*
X14300944Y-12135888D01*
X14300944Y-12135888D02*
X14291420Y-12154936D01*
X14291420Y-12154936D02*
X14281896Y-12164460D01*
X14281896Y-12164460D02*
X14262848Y-12173984D01*
X14262848Y-12173984D02*
X14205706Y-12173984D01*
X14205706Y-12173984D02*
X14186658Y-12164460D01*
X14186658Y-12164460D02*
X14177134Y-12154936D01*
X14377134Y-11973984D02*
X14377134Y-12012079D01*
X14453325Y-11973984D02*
X14453325Y-12012079D01*
X14748563Y-12250174D02*
X14739039Y-12240650D01*
X14739039Y-12240650D02*
X14719991Y-12212079D01*
X14719991Y-12212079D02*
X14710468Y-12193031D01*
X14710468Y-12193031D02*
X14700944Y-12164460D01*
X14700944Y-12164460D02*
X14691420Y-12116841D01*
X14691420Y-12116841D02*
X14691420Y-12078746D01*
X14691420Y-12078746D02*
X14700944Y-12031127D01*
X14700944Y-12031127D02*
X14710468Y-12002555D01*
X14710468Y-12002555D02*
X14719991Y-11983508D01*
X14719991Y-11983508D02*
X14739039Y-11954936D01*
X14739039Y-11954936D02*
X14748563Y-11945412D01*
X14910468Y-12040650D02*
X14910468Y-12173984D01*
X14862848Y-11964460D02*
X14815229Y-12107317D01*
X14815229Y-12107317D02*
X14939039Y-12107317D01*
X15167610Y-12173984D02*
X15167610Y-11973984D01*
X15253325Y-12173984D02*
X15253325Y-12069222D01*
X15253325Y-12069222D02*
X15243801Y-12050174D01*
X15243801Y-12050174D02*
X15224753Y-12040650D01*
X15224753Y-12040650D02*
X15196182Y-12040650D01*
X15196182Y-12040650D02*
X15177134Y-12050174D01*
X15177134Y-12050174D02*
X15167610Y-12059698D01*
X15377134Y-12173984D02*
X15358087Y-12164460D01*
X15358087Y-12164460D02*
X15348563Y-12154936D01*
X15348563Y-12154936D02*
X15339039Y-12135888D01*
X15339039Y-12135888D02*
X15339039Y-12078746D01*
X15339039Y-12078746D02*
X15348563Y-12059698D01*
X15348563Y-12059698D02*
X15358087Y-12050174D01*
X15358087Y-12050174D02*
X15377134Y-12040650D01*
X15377134Y-12040650D02*
X15405706Y-12040650D01*
X15405706Y-12040650D02*
X15424753Y-12050174D01*
X15424753Y-12050174D02*
X15434277Y-12059698D01*
X15434277Y-12059698D02*
X15443801Y-12078746D01*
X15443801Y-12078746D02*
X15443801Y-12135888D01*
X15443801Y-12135888D02*
X15434277Y-12154936D01*
X15434277Y-12154936D02*
X15424753Y-12164460D01*
X15424753Y-12164460D02*
X15405706Y-12173984D01*
X15405706Y-12173984D02*
X15377134Y-12173984D01*
X15558087Y-12173984D02*
X15539039Y-12164460D01*
X15539039Y-12164460D02*
X15529515Y-12145412D01*
X15529515Y-12145412D02*
X15529515Y-11973984D01*
X15710468Y-12164460D02*
X15691420Y-12173984D01*
X15691420Y-12173984D02*
X15653325Y-12173984D01*
X15653325Y-12173984D02*
X15634277Y-12164460D01*
X15634277Y-12164460D02*
X15624753Y-12145412D01*
X15624753Y-12145412D02*
X15624753Y-12069222D01*
X15624753Y-12069222D02*
X15634277Y-12050174D01*
X15634277Y-12050174D02*
X15653325Y-12040650D01*
X15653325Y-12040650D02*
X15691420Y-12040650D01*
X15691420Y-12040650D02*
X15710468Y-12050174D01*
X15710468Y-12050174D02*
X15719991Y-12069222D01*
X15719991Y-12069222D02*
X15719991Y-12088269D01*
X15719991Y-12088269D02*
X15624753Y-12107317D01*
X15796182Y-12164460D02*
X15815230Y-12173984D01*
X15815230Y-12173984D02*
X15853325Y-12173984D01*
X15853325Y-12173984D02*
X15872372Y-12164460D01*
X15872372Y-12164460D02*
X15881896Y-12145412D01*
X15881896Y-12145412D02*
X15881896Y-12135888D01*
X15881896Y-12135888D02*
X15872372Y-12116841D01*
X15872372Y-12116841D02*
X15853325Y-12107317D01*
X15853325Y-12107317D02*
X15824753Y-12107317D01*
X15824753Y-12107317D02*
X15805706Y-12097793D01*
X15805706Y-12097793D02*
X15796182Y-12078746D01*
X15796182Y-12078746D02*
X15796182Y-12069222D01*
X15796182Y-12069222D02*
X15805706Y-12050174D01*
X15805706Y-12050174D02*
X15824753Y-12040650D01*
X15824753Y-12040650D02*
X15853325Y-12040650D01*
X15853325Y-12040650D02*
X15872372Y-12050174D01*
X15948563Y-12250174D02*
X15958087Y-12240650D01*
X15958087Y-12240650D02*
X15977134Y-12212079D01*
X15977134Y-12212079D02*
X15986658Y-12193031D01*
X15986658Y-12193031D02*
X15996182Y-12164460D01*
X15996182Y-12164460D02*
X16005706Y-12116841D01*
X16005706Y-12116841D02*
X16005706Y-12078746D01*
X16005706Y-12078746D02*
X15996182Y-12031127D01*
X15996182Y-12031127D02*
X15986658Y-12002555D01*
X15986658Y-12002555D02*
X15977134Y-11983508D01*
X15977134Y-11983508D02*
X15958087Y-11954936D01*
X15958087Y-11954936D02*
X15948563Y-11945412D01*
M02*
