M48
; DRILL file {KiCad 9.0.1} date 2025-11-17T14:24:30+0900
; FORMAT={3:3/ absolute / metric / suppress leading zeros}
; #@! TF.CreationDate,2025-11-17T14:24:30+09:00
; #@! TF.GenerationSoftware,Kicad,Pcbnew,9.0.1
; #@! TF.FileFunction,MixedPlating,1,2
FMAT,2
METRIC,TZ
; #@! TA.AperFunction,Plated,PTH,ComponentDrill
T1C0.700
; #@! TA.AperFunction,Plated,PTH,ComponentDrill
T2C0.800
; #@! TA.AperFunction,Plated,PTH,ComponentDrill
T3C1.000
; #@! TA.AperFunction,Plated,PTH,ComponentDrill
T4C1.020
%
G90
G05
T1
X69850Y-60960
X71120Y-68580
X77470Y-60960
X78740Y-68580
X115570Y-109220
X115570Y-114440
X123190Y-109220
X123190Y-114440
T2
X91440Y-60960
X91440Y-63500
X91440Y-66040
X91440Y-68580
X99060Y-60960
X99060Y-63500
X99060Y-66040
X99060Y-68580
T3
X82700Y-29100
X82700Y-46880
X85240Y-29100
X85240Y-46880
X87780Y-29100
X87780Y-46880
X90320Y-29100
X90320Y-46880
X92860Y-29100
X92860Y-46880
X95400Y-29100
X95400Y-46880
X97940Y-29100
X97940Y-46880
X100480Y-29100
X100480Y-46880
X103020Y-29100
X103020Y-46880
X105560Y-29100
X105560Y-46880
X108100Y-29100
X108100Y-46880
X110640Y-29100
X110640Y-46880
T4
X86775Y-79045
X86775Y-81585
X86775Y-84125
X86775Y-86665
X86775Y-89205
X86775Y-91745
X86775Y-94285
X86775Y-96825
X86775Y-99365
X86775Y-101905
X86775Y-104445
X86775Y-106985
X86775Y-109525
X86775Y-112065
X86775Y-114605
X86775Y-117145
X86775Y-119685
X86775Y-122225
X86775Y-124765
X86775Y-127305
X104555Y-79045
X104555Y-81585
X104555Y-84125
X104555Y-86665
X104555Y-89205
X104555Y-91745
X104555Y-94285
X104555Y-96825
X104555Y-99365
X104555Y-101905
X104555Y-104445
X104555Y-106985
X104555Y-109525
X104555Y-112065
X104555Y-114605
X104555Y-117145
X104555Y-119685
X104555Y-122225
X104555Y-124765
X104555Y-127305
M30
