%TF.GenerationSoftware,KiCad,Pcbnew,9.0.1*%
%TF.CreationDate,2025-12-26T13:14:05+09:00*%
%TF.ProjectId,RasPiBNO2,52617350-6942-44e4-9f32-2e6b69636164,rev?*%
%TF.SameCoordinates,Original*%
%TF.FileFunction,Soldermask,Bot*%
%TF.FilePolarity,Negative*%
%FSLAX46Y46*%
G04 Gerber Fmt 4.6, Leading zero omitted, Abs format (unit mm)*
G04 Created by KiCad (PCBNEW 9.0.1) date 2025-12-26 13:14:05*
%MOMM*%
%LPD*%
G01*
G04 APERTURE LIST*
G04 Aperture macros list*
%AMRoundRect*
0 Rectangle with rounded corners*
0 $1 Rounding radius*
0 $2 $3 $4 $5 $6 $7 $8 $9 X,Y pos of 4 corners*
0 Add a 4 corners polygon primitive as box body*
4,1,4,$2,$3,$4,$5,$6,$7,$8,$9,$2,$3,0*
0 Add four circle primitives for the rounded corners*
1,1,$1+$1,$2,$3*
1,1,$1+$1,$4,$5*
1,1,$1+$1,$6,$7*
1,1,$1+$1,$8,$9*
0 Add four rect primitives between the rounded corners*
20,1,$1+$1,$2,$3,$4,$5,0*
20,1,$1+$1,$4,$5,$6,$7,0*
20,1,$1+$1,$6,$7,$8,$9,0*
20,1,$1+$1,$8,$9,$2,$3,0*%
G04 Aperture macros list end*
%ADD10C,1.600000*%
%ADD11RoundRect,0.250000X-0.550000X-0.550000X0.550000X-0.550000X0.550000X0.550000X-0.550000X0.550000X0*%
%ADD12O,1.600000X1.600000*%
%ADD13O,1.700000X1.700000*%
%ADD14R,1.700000X1.700000*%
%ADD15RoundRect,0.250000X-0.600000X-0.725000X0.600000X-0.725000X0.600000X0.725000X-0.600000X0.725000X0*%
%ADD16O,1.700000X1.950000*%
G04 APERTURE END LIST*
D10*
%TO.C,U4*%
X143515000Y-95250000D03*
X143515000Y-97790000D03*
X143515000Y-100330000D03*
X143515000Y-102870000D03*
X135895000Y-102870000D03*
X135895000Y-100330000D03*
X135895000Y-97790000D03*
D11*
X135895000Y-95250000D03*
%TD*%
D12*
%TO.C,R13*%
X147320000Y-104140000D03*
D10*
X147320000Y-93980000D03*
%TD*%
D12*
%TO.C,R14*%
X154940000Y-104140000D03*
D10*
X154940000Y-93980000D03*
%TD*%
D13*
%TO.C,U1*%
X131055000Y-157480000D03*
X131055000Y-154940000D03*
D14*
X131055000Y-152400000D03*
D13*
X131055000Y-149860000D03*
X131055000Y-147320000D03*
X131055000Y-144780000D03*
X131055000Y-142240000D03*
D14*
X131055000Y-139700000D03*
D13*
X131055000Y-137160000D03*
X131055000Y-134620000D03*
X131055000Y-132080000D03*
X131055000Y-129540000D03*
D14*
X131055000Y-127000000D03*
D13*
X131055000Y-124460000D03*
X131055000Y-121920000D03*
X131055000Y-119380000D03*
X131055000Y-116840000D03*
D14*
X131055000Y-114300000D03*
D13*
X131055000Y-111760000D03*
X131055000Y-109220000D03*
X148835000Y-109220000D03*
X148835000Y-111760000D03*
D14*
X148835000Y-114300000D03*
D13*
X148835000Y-116840000D03*
X148835000Y-119380000D03*
X148835000Y-121920000D03*
X148835000Y-124460000D03*
D14*
X148835000Y-127000000D03*
D13*
X148835000Y-129540000D03*
X148835000Y-132080000D03*
X148835000Y-134620000D03*
X148835000Y-137160000D03*
D14*
X148835000Y-139700000D03*
D13*
X148835000Y-142240000D03*
X148835000Y-144780000D03*
X148835000Y-147320000D03*
X148835000Y-149860000D03*
D14*
X148835000Y-152400000D03*
D13*
X148835000Y-154940000D03*
X148835000Y-157480000D03*
%TD*%
D10*
%TO.C,R4*%
X124460000Y-93980000D03*
D12*
X124460000Y-104140000D03*
%TD*%
D10*
%TO.C,R3*%
X129540000Y-93980000D03*
D12*
X129540000Y-104140000D03*
%TD*%
D15*
%TO.C,J2*%
X135950000Y-85835000D03*
D16*
X138450000Y-85835000D03*
X140950000Y-85835000D03*
X143450000Y-85835000D03*
%TD*%
M02*
