%TF.GenerationSoftware,KiCad,Pcbnew,9.0.1*%
%TF.CreationDate,2025-11-17T14:23:56+09:00*%
%TF.ProjectId,RasPiMulti_test,52617350-694d-4756-9c74-695f74657374,rev?*%
%TF.SameCoordinates,Original*%
%TF.FileFunction,Legend,Top*%
%TF.FilePolarity,Positive*%
%FSLAX46Y46*%
G04 Gerber Fmt 4.6, Leading zero omitted, Abs format (unit mm)*
G04 Created by KiCad (PCBNEW 9.0.1) date 2025-11-17 14:23:56*
%MOMM*%
%LPD*%
G01*
G04 APERTURE LIST*
%ADD10C,0.150000*%
%ADD11C,0.100000*%
%ADD12C,0.120000*%
G04 APERTURE END LIST*
D10*
X119213333Y-112974819D02*
X118880000Y-112498628D01*
X118641905Y-112974819D02*
X118641905Y-111974819D01*
X118641905Y-111974819D02*
X119022857Y-111974819D01*
X119022857Y-111974819D02*
X119118095Y-112022438D01*
X119118095Y-112022438D02*
X119165714Y-112070057D01*
X119165714Y-112070057D02*
X119213333Y-112165295D01*
X119213333Y-112165295D02*
X119213333Y-112308152D01*
X119213333Y-112308152D02*
X119165714Y-112403390D01*
X119165714Y-112403390D02*
X119118095Y-112451009D01*
X119118095Y-112451009D02*
X119022857Y-112498628D01*
X119022857Y-112498628D02*
X118641905Y-112498628D01*
X119594286Y-112070057D02*
X119641905Y-112022438D01*
X119641905Y-112022438D02*
X119737143Y-111974819D01*
X119737143Y-111974819D02*
X119975238Y-111974819D01*
X119975238Y-111974819D02*
X120070476Y-112022438D01*
X120070476Y-112022438D02*
X120118095Y-112070057D01*
X120118095Y-112070057D02*
X120165714Y-112165295D01*
X120165714Y-112165295D02*
X120165714Y-112260533D01*
X120165714Y-112260533D02*
X120118095Y-112403390D01*
X120118095Y-112403390D02*
X119546667Y-112974819D01*
X119546667Y-112974819D02*
X120165714Y-112974819D01*
X119213333Y-107754819D02*
X118880000Y-107278628D01*
X118641905Y-107754819D02*
X118641905Y-106754819D01*
X118641905Y-106754819D02*
X119022857Y-106754819D01*
X119022857Y-106754819D02*
X119118095Y-106802438D01*
X119118095Y-106802438D02*
X119165714Y-106850057D01*
X119165714Y-106850057D02*
X119213333Y-106945295D01*
X119213333Y-106945295D02*
X119213333Y-107088152D01*
X119213333Y-107088152D02*
X119165714Y-107183390D01*
X119165714Y-107183390D02*
X119118095Y-107231009D01*
X119118095Y-107231009D02*
X119022857Y-107278628D01*
X119022857Y-107278628D02*
X118641905Y-107278628D01*
X120165714Y-107754819D02*
X119594286Y-107754819D01*
X119880000Y-107754819D02*
X119880000Y-106754819D01*
X119880000Y-106754819D02*
X119784762Y-106897676D01*
X119784762Y-106897676D02*
X119689524Y-106992914D01*
X119689524Y-106992914D02*
X119594286Y-107040533D01*
X94488095Y-58084819D02*
X94488095Y-58894342D01*
X94488095Y-58894342D02*
X94535714Y-58989580D01*
X94535714Y-58989580D02*
X94583333Y-59037200D01*
X94583333Y-59037200D02*
X94678571Y-59084819D01*
X94678571Y-59084819D02*
X94869047Y-59084819D01*
X94869047Y-59084819D02*
X94964285Y-59037200D01*
X94964285Y-59037200D02*
X95011904Y-58989580D01*
X95011904Y-58989580D02*
X95059523Y-58894342D01*
X95059523Y-58894342D02*
X95059523Y-58084819D01*
X95964285Y-58418152D02*
X95964285Y-59084819D01*
X95726190Y-58037200D02*
X95488095Y-58751485D01*
X95488095Y-58751485D02*
X96107142Y-58751485D01*
D11*
X75477419Y-38861904D02*
X76286942Y-38861904D01*
X76286942Y-38861904D02*
X76382180Y-38814285D01*
X76382180Y-38814285D02*
X76429800Y-38766666D01*
X76429800Y-38766666D02*
X76477419Y-38671428D01*
X76477419Y-38671428D02*
X76477419Y-38480952D01*
X76477419Y-38480952D02*
X76429800Y-38385714D01*
X76429800Y-38385714D02*
X76382180Y-38338095D01*
X76382180Y-38338095D02*
X76286942Y-38290476D01*
X76286942Y-38290476D02*
X75477419Y-38290476D01*
X75572657Y-37861904D02*
X75525038Y-37814285D01*
X75525038Y-37814285D02*
X75477419Y-37719047D01*
X75477419Y-37719047D02*
X75477419Y-37480952D01*
X75477419Y-37480952D02*
X75525038Y-37385714D01*
X75525038Y-37385714D02*
X75572657Y-37338095D01*
X75572657Y-37338095D02*
X75667895Y-37290476D01*
X75667895Y-37290476D02*
X75763133Y-37290476D01*
X75763133Y-37290476D02*
X75905990Y-37338095D01*
X75905990Y-37338095D02*
X76477419Y-37909523D01*
X76477419Y-37909523D02*
X76477419Y-37290476D01*
D10*
X94903095Y-102629819D02*
X94903095Y-103439342D01*
X94903095Y-103439342D02*
X94950714Y-103534580D01*
X94950714Y-103534580D02*
X94998333Y-103582200D01*
X94998333Y-103582200D02*
X95093571Y-103629819D01*
X95093571Y-103629819D02*
X95284047Y-103629819D01*
X95284047Y-103629819D02*
X95379285Y-103582200D01*
X95379285Y-103582200D02*
X95426904Y-103534580D01*
X95426904Y-103534580D02*
X95474523Y-103439342D01*
X95474523Y-103439342D02*
X95474523Y-102629819D01*
X96474523Y-103629819D02*
X95903095Y-103629819D01*
X96188809Y-103629819D02*
X96188809Y-102629819D01*
X96188809Y-102629819D02*
X96093571Y-102772676D01*
X96093571Y-102772676D02*
X95998333Y-102867914D01*
X95998333Y-102867914D02*
X95903095Y-102915533D01*
X81018406Y-128102585D02*
X81772653Y-128479709D01*
X81772653Y-128479709D02*
X81395529Y-127725462D01*
X82042027Y-127617712D02*
X82149776Y-127563838D01*
X82149776Y-127563838D02*
X82203651Y-127563838D01*
X82203651Y-127563838D02*
X82284463Y-127590775D01*
X82284463Y-127590775D02*
X82365276Y-127671587D01*
X82365276Y-127671587D02*
X82392213Y-127752399D01*
X82392213Y-127752399D02*
X82392213Y-127806274D01*
X82392213Y-127806274D02*
X82365276Y-127887086D01*
X82365276Y-127887086D02*
X82149776Y-128102586D01*
X82149776Y-128102586D02*
X81584091Y-127536900D01*
X81584091Y-127536900D02*
X81772653Y-127348338D01*
X81772653Y-127348338D02*
X81853465Y-127321401D01*
X81853465Y-127321401D02*
X81907340Y-127321401D01*
X81907340Y-127321401D02*
X81988152Y-127348338D01*
X81988152Y-127348338D02*
X82042027Y-127402213D01*
X82042027Y-127402213D02*
X82068964Y-127483025D01*
X82068964Y-127483025D02*
X82068964Y-127536900D01*
X82068964Y-127536900D02*
X82042027Y-127617712D01*
X82042027Y-127617712D02*
X81853465Y-127806274D01*
X82149776Y-126971215D02*
X82607712Y-127429151D01*
X82607712Y-127429151D02*
X82688524Y-127456088D01*
X82688524Y-127456088D02*
X82742399Y-127456088D01*
X82742399Y-127456088D02*
X82823211Y-127429151D01*
X82823211Y-127429151D02*
X82930961Y-127321401D01*
X82930961Y-127321401D02*
X82957898Y-127240589D01*
X82957898Y-127240589D02*
X82957898Y-127186714D01*
X82957898Y-127186714D02*
X82930961Y-127105902D01*
X82930961Y-127105902D02*
X82473025Y-126647966D01*
X83254210Y-126944277D02*
X83361959Y-126890403D01*
X83361959Y-126890403D02*
X83496646Y-126755716D01*
X83496646Y-126755716D02*
X83523584Y-126674903D01*
X83523584Y-126674903D02*
X83523584Y-126621029D01*
X83523584Y-126621029D02*
X83496646Y-126540216D01*
X83496646Y-126540216D02*
X83442771Y-126486342D01*
X83442771Y-126486342D02*
X83361959Y-126459404D01*
X83361959Y-126459404D02*
X83308084Y-126459404D01*
X83308084Y-126459404D02*
X83227272Y-126486342D01*
X83227272Y-126486342D02*
X83092585Y-126567154D01*
X83092585Y-126567154D02*
X83011773Y-126594091D01*
X83011773Y-126594091D02*
X82957898Y-126594091D01*
X82957898Y-126594091D02*
X82877086Y-126567154D01*
X82877086Y-126567154D02*
X82823211Y-126513279D01*
X82823211Y-126513279D02*
X82796274Y-126432467D01*
X82796274Y-126432467D02*
X82796274Y-126378592D01*
X82796274Y-126378592D02*
X82823211Y-126297780D01*
X82823211Y-126297780D02*
X82957898Y-126163093D01*
X82957898Y-126163093D02*
X83065648Y-126109218D01*
X107678372Y-104596494D02*
X107597560Y-104623431D01*
X107597560Y-104623431D02*
X107516748Y-104704243D01*
X107516748Y-104704243D02*
X107462873Y-104811993D01*
X107462873Y-104811993D02*
X107462873Y-104919742D01*
X107462873Y-104919742D02*
X107489810Y-105000555D01*
X107489810Y-105000555D02*
X107570623Y-105135242D01*
X107570623Y-105135242D02*
X107651435Y-105216054D01*
X107651435Y-105216054D02*
X107786122Y-105296866D01*
X107786122Y-105296866D02*
X107866934Y-105323803D01*
X107866934Y-105323803D02*
X107974684Y-105323803D01*
X107974684Y-105323803D02*
X108082433Y-105269929D01*
X108082433Y-105269929D02*
X108136308Y-105216054D01*
X108136308Y-105216054D02*
X108190183Y-105108304D01*
X108190183Y-105108304D02*
X108190183Y-105054429D01*
X108190183Y-105054429D02*
X108001621Y-104865868D01*
X108001621Y-104865868D02*
X107893871Y-104973617D01*
X108486494Y-104865868D02*
X107920809Y-104300182D01*
X107920809Y-104300182D02*
X108136308Y-104084683D01*
X108136308Y-104084683D02*
X108217120Y-104057746D01*
X108217120Y-104057746D02*
X108270995Y-104057746D01*
X108270995Y-104057746D02*
X108351807Y-104084683D01*
X108351807Y-104084683D02*
X108432619Y-104165495D01*
X108432619Y-104165495D02*
X108459557Y-104246307D01*
X108459557Y-104246307D02*
X108459557Y-104300182D01*
X108459557Y-104300182D02*
X108432619Y-104380994D01*
X108432619Y-104380994D02*
X108217120Y-104596494D01*
X108432619Y-103788372D02*
X108809743Y-103411248D01*
X108809743Y-103411248D02*
X109132992Y-104219370D01*
X81654998Y-94665868D02*
X81574185Y-94692805D01*
X81574185Y-94692805D02*
X81493373Y-94773618D01*
X81493373Y-94773618D02*
X81439498Y-94881367D01*
X81439498Y-94881367D02*
X81439498Y-94989117D01*
X81439498Y-94989117D02*
X81466436Y-95069929D01*
X81466436Y-95069929D02*
X81547248Y-95204616D01*
X81547248Y-95204616D02*
X81628060Y-95285428D01*
X81628060Y-95285428D02*
X81762747Y-95366241D01*
X81762747Y-95366241D02*
X81843560Y-95393178D01*
X81843560Y-95393178D02*
X81951309Y-95393178D01*
X81951309Y-95393178D02*
X82059059Y-95339303D01*
X82059059Y-95339303D02*
X82112934Y-95285428D01*
X82112934Y-95285428D02*
X82166808Y-95177679D01*
X82166808Y-95177679D02*
X82166808Y-95123804D01*
X82166808Y-95123804D02*
X81978247Y-94935242D01*
X81978247Y-94935242D02*
X81870497Y-95042992D01*
X82463120Y-94935242D02*
X81897434Y-94369557D01*
X81897434Y-94369557D02*
X82112934Y-94154057D01*
X82112934Y-94154057D02*
X82193746Y-94127120D01*
X82193746Y-94127120D02*
X82247621Y-94127120D01*
X82247621Y-94127120D02*
X82328433Y-94154057D01*
X82328433Y-94154057D02*
X82409245Y-94234870D01*
X82409245Y-94234870D02*
X82436182Y-94315682D01*
X82436182Y-94315682D02*
X82436182Y-94369557D01*
X82436182Y-94369557D02*
X82409245Y-94450369D01*
X82409245Y-94450369D02*
X82193746Y-94665868D01*
X82490057Y-93884683D02*
X82490057Y-93830809D01*
X82490057Y-93830809D02*
X82516995Y-93749996D01*
X82516995Y-93749996D02*
X82651682Y-93615309D01*
X82651682Y-93615309D02*
X82732494Y-93588372D01*
X82732494Y-93588372D02*
X82786369Y-93588372D01*
X82786369Y-93588372D02*
X82867181Y-93615309D01*
X82867181Y-93615309D02*
X82921056Y-93669184D01*
X82921056Y-93669184D02*
X82974930Y-93776934D01*
X82974930Y-93776934D02*
X82974930Y-94423431D01*
X82974930Y-94423431D02*
X83325117Y-94073245D01*
X83863865Y-93534497D02*
X83540616Y-93857746D01*
X83702240Y-93696121D02*
X83136555Y-93130436D01*
X83136555Y-93130436D02*
X83163492Y-93265123D01*
X83163492Y-93265123D02*
X83163492Y-93372873D01*
X83163492Y-93372873D02*
X83136555Y-93453685D01*
X79820064Y-117709049D02*
X80089438Y-117439675D01*
X79927813Y-117924549D02*
X79550690Y-117170301D01*
X79550690Y-117170301D02*
X80304937Y-117547425D01*
X80493499Y-117358863D02*
X79927813Y-116793178D01*
X79927813Y-116793178D02*
X80062500Y-116658491D01*
X80062500Y-116658491D02*
X80170250Y-116604616D01*
X80170250Y-116604616D02*
X80277999Y-116604616D01*
X80277999Y-116604616D02*
X80358812Y-116631553D01*
X80358812Y-116631553D02*
X80493499Y-116712366D01*
X80493499Y-116712366D02*
X80574311Y-116793178D01*
X80574311Y-116793178D02*
X80655123Y-116927865D01*
X80655123Y-116927865D02*
X80682060Y-117008677D01*
X80682060Y-117008677D02*
X80682060Y-117116427D01*
X80682060Y-117116427D02*
X80628186Y-117224176D01*
X80628186Y-117224176D02*
X80493499Y-117358863D01*
X81328558Y-116416054D02*
X81328558Y-116469929D01*
X81328558Y-116469929D02*
X81274683Y-116577679D01*
X81274683Y-116577679D02*
X81220808Y-116631553D01*
X81220808Y-116631553D02*
X81113059Y-116685428D01*
X81113059Y-116685428D02*
X81005309Y-116685428D01*
X81005309Y-116685428D02*
X80924497Y-116658491D01*
X80924497Y-116658491D02*
X80789810Y-116577679D01*
X80789810Y-116577679D02*
X80708998Y-116496866D01*
X80708998Y-116496866D02*
X80628186Y-116362179D01*
X80628186Y-116362179D02*
X80601248Y-116281367D01*
X80601248Y-116281367D02*
X80601248Y-116173618D01*
X80601248Y-116173618D02*
X80655123Y-116065868D01*
X80655123Y-116065868D02*
X80708998Y-116011993D01*
X80708998Y-116011993D02*
X80816747Y-115958118D01*
X80816747Y-115958118D02*
X80870622Y-115958118D01*
X81544057Y-116416054D02*
X81975056Y-115985056D01*
X81409370Y-115311621D02*
X82163618Y-115688744D01*
X82163618Y-115688744D02*
X81786494Y-114934497D01*
X82863990Y-114988372D02*
X82406054Y-114907560D01*
X82540741Y-115311621D02*
X81975056Y-114745935D01*
X81975056Y-114745935D02*
X82190555Y-114530436D01*
X82190555Y-114530436D02*
X82271367Y-114503499D01*
X82271367Y-114503499D02*
X82325242Y-114503499D01*
X82325242Y-114503499D02*
X82406054Y-114530436D01*
X82406054Y-114530436D02*
X82486866Y-114611248D01*
X82486866Y-114611248D02*
X82513804Y-114692061D01*
X82513804Y-114692061D02*
X82513804Y-114745935D01*
X82513804Y-114745935D02*
X82486866Y-114826748D01*
X82486866Y-114826748D02*
X82271367Y-115042247D01*
X82810115Y-114449624D02*
X82998677Y-114261062D01*
X83375800Y-114476561D02*
X83106426Y-114745935D01*
X83106426Y-114745935D02*
X82540741Y-114180250D01*
X82540741Y-114180250D02*
X82810115Y-113910876D01*
X83510488Y-113749251D02*
X83321926Y-113937813D01*
X83618237Y-114234125D02*
X83052552Y-113668439D01*
X83052552Y-113668439D02*
X83321926Y-113399065D01*
X107762998Y-79435868D02*
X107682185Y-79462805D01*
X107682185Y-79462805D02*
X107601373Y-79543618D01*
X107601373Y-79543618D02*
X107547498Y-79651367D01*
X107547498Y-79651367D02*
X107547498Y-79759117D01*
X107547498Y-79759117D02*
X107574436Y-79839929D01*
X107574436Y-79839929D02*
X107655248Y-79974616D01*
X107655248Y-79974616D02*
X107736060Y-80055428D01*
X107736060Y-80055428D02*
X107870747Y-80136241D01*
X107870747Y-80136241D02*
X107951560Y-80163178D01*
X107951560Y-80163178D02*
X108059309Y-80163178D01*
X108059309Y-80163178D02*
X108167059Y-80109303D01*
X108167059Y-80109303D02*
X108220934Y-80055428D01*
X108220934Y-80055428D02*
X108274808Y-79947679D01*
X108274808Y-79947679D02*
X108274808Y-79893804D01*
X108274808Y-79893804D02*
X108086247Y-79705242D01*
X108086247Y-79705242D02*
X107978497Y-79812992D01*
X108571120Y-79705242D02*
X108005434Y-79139557D01*
X108005434Y-79139557D02*
X108220934Y-78924057D01*
X108220934Y-78924057D02*
X108301746Y-78897120D01*
X108301746Y-78897120D02*
X108355621Y-78897120D01*
X108355621Y-78897120D02*
X108436433Y-78924057D01*
X108436433Y-78924057D02*
X108517245Y-79004870D01*
X108517245Y-79004870D02*
X108544182Y-79085682D01*
X108544182Y-79085682D02*
X108544182Y-79139557D01*
X108544182Y-79139557D02*
X108517245Y-79220369D01*
X108517245Y-79220369D02*
X108301746Y-79435868D01*
X109433117Y-78843245D02*
X109109868Y-79166494D01*
X109271492Y-79004870D02*
X108705807Y-78439184D01*
X108705807Y-78439184D02*
X108732744Y-78573871D01*
X108732744Y-78573871D02*
X108732744Y-78681621D01*
X108732744Y-78681621D02*
X108705807Y-78762433D01*
X109379242Y-77765749D02*
X109109868Y-78035123D01*
X109109868Y-78035123D02*
X109352305Y-78331434D01*
X109352305Y-78331434D02*
X109352305Y-78277560D01*
X109352305Y-78277560D02*
X109379242Y-78196747D01*
X109379242Y-78196747D02*
X109513929Y-78062060D01*
X109513929Y-78062060D02*
X109594741Y-78035123D01*
X109594741Y-78035123D02*
X109648616Y-78035123D01*
X109648616Y-78035123D02*
X109729428Y-78062060D01*
X109729428Y-78062060D02*
X109864115Y-78196747D01*
X109864115Y-78196747D02*
X109891053Y-78277560D01*
X109891053Y-78277560D02*
X109891053Y-78331434D01*
X109891053Y-78331434D02*
X109864115Y-78412247D01*
X109864115Y-78412247D02*
X109729428Y-78546934D01*
X109729428Y-78546934D02*
X109648616Y-78573871D01*
X109648616Y-78573871D02*
X109594741Y-78573871D01*
X82503651Y-102578710D02*
X82045716Y-102497898D01*
X82180403Y-102901959D02*
X81614717Y-102336274D01*
X81614717Y-102336274D02*
X81830216Y-102120775D01*
X81830216Y-102120775D02*
X81911029Y-102093837D01*
X81911029Y-102093837D02*
X81964903Y-102093837D01*
X81964903Y-102093837D02*
X82045716Y-102120775D01*
X82045716Y-102120775D02*
X82126528Y-102201587D01*
X82126528Y-102201587D02*
X82153465Y-102282399D01*
X82153465Y-102282399D02*
X82153465Y-102336274D01*
X82153465Y-102336274D02*
X82126528Y-102417086D01*
X82126528Y-102417086D02*
X81911029Y-102632585D01*
X82180403Y-101770588D02*
X82638338Y-102228524D01*
X82638338Y-102228524D02*
X82719151Y-102255462D01*
X82719151Y-102255462D02*
X82773025Y-102255462D01*
X82773025Y-102255462D02*
X82853838Y-102228524D01*
X82853838Y-102228524D02*
X82961587Y-102120775D01*
X82961587Y-102120775D02*
X82988525Y-102039962D01*
X82988525Y-102039962D02*
X82988525Y-101986088D01*
X82988525Y-101986088D02*
X82961587Y-101905275D01*
X82961587Y-101905275D02*
X82503651Y-101447340D01*
X83338711Y-101743651D02*
X82773025Y-101177966D01*
X82773025Y-101177966D02*
X83661959Y-101420402D01*
X83661959Y-101420402D02*
X83096274Y-100854717D01*
X81654998Y-87055868D02*
X81574185Y-87082805D01*
X81574185Y-87082805D02*
X81493373Y-87163618D01*
X81493373Y-87163618D02*
X81439498Y-87271367D01*
X81439498Y-87271367D02*
X81439498Y-87379117D01*
X81439498Y-87379117D02*
X81466436Y-87459929D01*
X81466436Y-87459929D02*
X81547248Y-87594616D01*
X81547248Y-87594616D02*
X81628060Y-87675428D01*
X81628060Y-87675428D02*
X81762747Y-87756241D01*
X81762747Y-87756241D02*
X81843560Y-87783178D01*
X81843560Y-87783178D02*
X81951309Y-87783178D01*
X81951309Y-87783178D02*
X82059059Y-87729303D01*
X82059059Y-87729303D02*
X82112934Y-87675428D01*
X82112934Y-87675428D02*
X82166808Y-87567679D01*
X82166808Y-87567679D02*
X82166808Y-87513804D01*
X82166808Y-87513804D02*
X81978247Y-87325242D01*
X81978247Y-87325242D02*
X81870497Y-87432992D01*
X82463120Y-87325242D02*
X81897434Y-86759557D01*
X81897434Y-86759557D02*
X82112934Y-86544057D01*
X82112934Y-86544057D02*
X82193746Y-86517120D01*
X82193746Y-86517120D02*
X82247621Y-86517120D01*
X82247621Y-86517120D02*
X82328433Y-86544057D01*
X82328433Y-86544057D02*
X82409245Y-86624870D01*
X82409245Y-86624870D02*
X82436182Y-86705682D01*
X82436182Y-86705682D02*
X82436182Y-86759557D01*
X82436182Y-86759557D02*
X82409245Y-86840369D01*
X82409245Y-86840369D02*
X82193746Y-87055868D01*
X83325117Y-86463245D02*
X83001868Y-86786494D01*
X83163492Y-86624870D02*
X82597807Y-86059184D01*
X82597807Y-86059184D02*
X82624744Y-86193871D01*
X82624744Y-86193871D02*
X82624744Y-86301621D01*
X82624744Y-86301621D02*
X82597807Y-86382433D01*
X83325117Y-85816747D02*
X83244305Y-85843685D01*
X83244305Y-85843685D02*
X83190430Y-85843685D01*
X83190430Y-85843685D02*
X83109618Y-85816747D01*
X83109618Y-85816747D02*
X83082680Y-85789810D01*
X83082680Y-85789810D02*
X83055743Y-85708998D01*
X83055743Y-85708998D02*
X83055743Y-85655123D01*
X83055743Y-85655123D02*
X83082680Y-85574311D01*
X83082680Y-85574311D02*
X83190430Y-85466561D01*
X83190430Y-85466561D02*
X83271242Y-85439624D01*
X83271242Y-85439624D02*
X83325117Y-85439624D01*
X83325117Y-85439624D02*
X83405929Y-85466561D01*
X83405929Y-85466561D02*
X83432866Y-85493499D01*
X83432866Y-85493499D02*
X83459804Y-85574311D01*
X83459804Y-85574311D02*
X83459804Y-85628186D01*
X83459804Y-85628186D02*
X83432866Y-85708998D01*
X83432866Y-85708998D02*
X83325117Y-85816747D01*
X83325117Y-85816747D02*
X83298179Y-85897560D01*
X83298179Y-85897560D02*
X83298179Y-85951434D01*
X83298179Y-85951434D02*
X83325117Y-86032247D01*
X83325117Y-86032247D02*
X83432866Y-86139996D01*
X83432866Y-86139996D02*
X83513679Y-86166934D01*
X83513679Y-86166934D02*
X83567553Y-86166934D01*
X83567553Y-86166934D02*
X83648366Y-86139996D01*
X83648366Y-86139996D02*
X83756115Y-86032247D01*
X83756115Y-86032247D02*
X83783053Y-85951434D01*
X83783053Y-85951434D02*
X83783053Y-85897560D01*
X83783053Y-85897560D02*
X83756115Y-85816747D01*
X83756115Y-85816747D02*
X83648366Y-85708998D01*
X83648366Y-85708998D02*
X83567553Y-85682060D01*
X83567553Y-85682060D02*
X83513679Y-85682060D01*
X83513679Y-85682060D02*
X83432866Y-85708998D01*
X81654998Y-89595868D02*
X81574185Y-89622805D01*
X81574185Y-89622805D02*
X81493373Y-89703618D01*
X81493373Y-89703618D02*
X81439498Y-89811367D01*
X81439498Y-89811367D02*
X81439498Y-89919117D01*
X81439498Y-89919117D02*
X81466436Y-89999929D01*
X81466436Y-89999929D02*
X81547248Y-90134616D01*
X81547248Y-90134616D02*
X81628060Y-90215428D01*
X81628060Y-90215428D02*
X81762747Y-90296241D01*
X81762747Y-90296241D02*
X81843560Y-90323178D01*
X81843560Y-90323178D02*
X81951309Y-90323178D01*
X81951309Y-90323178D02*
X82059059Y-90269303D01*
X82059059Y-90269303D02*
X82112934Y-90215428D01*
X82112934Y-90215428D02*
X82166808Y-90107679D01*
X82166808Y-90107679D02*
X82166808Y-90053804D01*
X82166808Y-90053804D02*
X81978247Y-89865242D01*
X81978247Y-89865242D02*
X81870497Y-89972992D01*
X82463120Y-89865242D02*
X81897434Y-89299557D01*
X81897434Y-89299557D02*
X82112934Y-89084057D01*
X82112934Y-89084057D02*
X82193746Y-89057120D01*
X82193746Y-89057120D02*
X82247621Y-89057120D01*
X82247621Y-89057120D02*
X82328433Y-89084057D01*
X82328433Y-89084057D02*
X82409245Y-89164870D01*
X82409245Y-89164870D02*
X82436182Y-89245682D01*
X82436182Y-89245682D02*
X82436182Y-89299557D01*
X82436182Y-89299557D02*
X82409245Y-89380369D01*
X82409245Y-89380369D02*
X82193746Y-89595868D01*
X83325117Y-89003245D02*
X83001868Y-89326494D01*
X83163492Y-89164870D02*
X82597807Y-88599184D01*
X82597807Y-88599184D02*
X82624744Y-88733871D01*
X82624744Y-88733871D02*
X82624744Y-88841621D01*
X82624744Y-88841621D02*
X82597807Y-88922433D01*
X83594491Y-88733871D02*
X83702240Y-88626121D01*
X83702240Y-88626121D02*
X83729178Y-88545309D01*
X83729178Y-88545309D02*
X83729178Y-88491434D01*
X83729178Y-88491434D02*
X83702240Y-88356747D01*
X83702240Y-88356747D02*
X83621428Y-88222060D01*
X83621428Y-88222060D02*
X83405929Y-88006561D01*
X83405929Y-88006561D02*
X83325117Y-87979624D01*
X83325117Y-87979624D02*
X83271242Y-87979624D01*
X83271242Y-87979624D02*
X83190430Y-88006561D01*
X83190430Y-88006561D02*
X83082680Y-88114311D01*
X83082680Y-88114311D02*
X83055743Y-88195123D01*
X83055743Y-88195123D02*
X83055743Y-88248998D01*
X83055743Y-88248998D02*
X83082680Y-88329810D01*
X83082680Y-88329810D02*
X83217367Y-88464497D01*
X83217367Y-88464497D02*
X83298179Y-88491434D01*
X83298179Y-88491434D02*
X83352054Y-88491434D01*
X83352054Y-88491434D02*
X83432866Y-88464497D01*
X83432866Y-88464497D02*
X83540616Y-88356747D01*
X83540616Y-88356747D02*
X83567553Y-88275935D01*
X83567553Y-88275935D02*
X83567553Y-88222060D01*
X83567553Y-88222060D02*
X83540616Y-88141248D01*
X81654998Y-99755868D02*
X81574185Y-99782805D01*
X81574185Y-99782805D02*
X81493373Y-99863618D01*
X81493373Y-99863618D02*
X81439498Y-99971367D01*
X81439498Y-99971367D02*
X81439498Y-100079117D01*
X81439498Y-100079117D02*
X81466436Y-100159929D01*
X81466436Y-100159929D02*
X81547248Y-100294616D01*
X81547248Y-100294616D02*
X81628060Y-100375428D01*
X81628060Y-100375428D02*
X81762747Y-100456241D01*
X81762747Y-100456241D02*
X81843560Y-100483178D01*
X81843560Y-100483178D02*
X81951309Y-100483178D01*
X81951309Y-100483178D02*
X82059059Y-100429303D01*
X82059059Y-100429303D02*
X82112934Y-100375428D01*
X82112934Y-100375428D02*
X82166808Y-100267679D01*
X82166808Y-100267679D02*
X82166808Y-100213804D01*
X82166808Y-100213804D02*
X81978247Y-100025242D01*
X81978247Y-100025242D02*
X81870497Y-100132992D01*
X82463120Y-100025242D02*
X81897434Y-99459557D01*
X81897434Y-99459557D02*
X82112934Y-99244057D01*
X82112934Y-99244057D02*
X82193746Y-99217120D01*
X82193746Y-99217120D02*
X82247621Y-99217120D01*
X82247621Y-99217120D02*
X82328433Y-99244057D01*
X82328433Y-99244057D02*
X82409245Y-99324870D01*
X82409245Y-99324870D02*
X82436182Y-99405682D01*
X82436182Y-99405682D02*
X82436182Y-99459557D01*
X82436182Y-99459557D02*
X82409245Y-99540369D01*
X82409245Y-99540369D02*
X82193746Y-99755868D01*
X82490057Y-98974683D02*
X82490057Y-98920809D01*
X82490057Y-98920809D02*
X82516995Y-98839996D01*
X82516995Y-98839996D02*
X82651682Y-98705309D01*
X82651682Y-98705309D02*
X82732494Y-98678372D01*
X82732494Y-98678372D02*
X82786369Y-98678372D01*
X82786369Y-98678372D02*
X82867181Y-98705309D01*
X82867181Y-98705309D02*
X82921056Y-98759184D01*
X82921056Y-98759184D02*
X82974930Y-98866934D01*
X82974930Y-98866934D02*
X82974930Y-99513431D01*
X82974930Y-99513431D02*
X83325117Y-99163245D01*
X83028805Y-98435935D02*
X83028805Y-98382060D01*
X83028805Y-98382060D02*
X83055743Y-98301248D01*
X83055743Y-98301248D02*
X83190430Y-98166561D01*
X83190430Y-98166561D02*
X83271242Y-98139624D01*
X83271242Y-98139624D02*
X83325117Y-98139624D01*
X83325117Y-98139624D02*
X83405929Y-98166561D01*
X83405929Y-98166561D02*
X83459804Y-98220436D01*
X83459804Y-98220436D02*
X83513679Y-98328186D01*
X83513679Y-98328186D02*
X83513679Y-98974683D01*
X83513679Y-98974683D02*
X83863865Y-98624497D01*
X81654998Y-79435868D02*
X81574185Y-79462805D01*
X81574185Y-79462805D02*
X81493373Y-79543618D01*
X81493373Y-79543618D02*
X81439498Y-79651367D01*
X81439498Y-79651367D02*
X81439498Y-79759117D01*
X81439498Y-79759117D02*
X81466436Y-79839929D01*
X81466436Y-79839929D02*
X81547248Y-79974616D01*
X81547248Y-79974616D02*
X81628060Y-80055428D01*
X81628060Y-80055428D02*
X81762747Y-80136241D01*
X81762747Y-80136241D02*
X81843560Y-80163178D01*
X81843560Y-80163178D02*
X81951309Y-80163178D01*
X81951309Y-80163178D02*
X82059059Y-80109303D01*
X82059059Y-80109303D02*
X82112934Y-80055428D01*
X82112934Y-80055428D02*
X82166808Y-79947679D01*
X82166808Y-79947679D02*
X82166808Y-79893804D01*
X82166808Y-79893804D02*
X81978247Y-79705242D01*
X81978247Y-79705242D02*
X81870497Y-79812992D01*
X82463120Y-79705242D02*
X81897434Y-79139557D01*
X81897434Y-79139557D02*
X82112934Y-78924057D01*
X82112934Y-78924057D02*
X82193746Y-78897120D01*
X82193746Y-78897120D02*
X82247621Y-78897120D01*
X82247621Y-78897120D02*
X82328433Y-78924057D01*
X82328433Y-78924057D02*
X82409245Y-79004870D01*
X82409245Y-79004870D02*
X82436182Y-79085682D01*
X82436182Y-79085682D02*
X82436182Y-79139557D01*
X82436182Y-79139557D02*
X82409245Y-79220369D01*
X82409245Y-79220369D02*
X82193746Y-79435868D01*
X83325117Y-78843245D02*
X83001868Y-79166494D01*
X83163492Y-79004870D02*
X82597807Y-78439184D01*
X82597807Y-78439184D02*
X82624744Y-78573871D01*
X82624744Y-78573871D02*
X82624744Y-78681621D01*
X82624744Y-78681621D02*
X82597807Y-78762433D01*
X83244305Y-77792686D02*
X83136555Y-77900436D01*
X83136555Y-77900436D02*
X83109618Y-77981248D01*
X83109618Y-77981248D02*
X83109618Y-78035123D01*
X83109618Y-78035123D02*
X83136555Y-78169810D01*
X83136555Y-78169810D02*
X83217367Y-78304497D01*
X83217367Y-78304497D02*
X83432866Y-78519996D01*
X83432866Y-78519996D02*
X83513679Y-78546934D01*
X83513679Y-78546934D02*
X83567553Y-78546934D01*
X83567553Y-78546934D02*
X83648366Y-78519996D01*
X83648366Y-78519996D02*
X83756115Y-78412247D01*
X83756115Y-78412247D02*
X83783053Y-78331434D01*
X83783053Y-78331434D02*
X83783053Y-78277560D01*
X83783053Y-78277560D02*
X83756115Y-78196747D01*
X83756115Y-78196747D02*
X83621428Y-78062060D01*
X83621428Y-78062060D02*
X83540616Y-78035123D01*
X83540616Y-78035123D02*
X83486741Y-78035123D01*
X83486741Y-78035123D02*
X83405929Y-78062060D01*
X83405929Y-78062060D02*
X83298179Y-78169810D01*
X83298179Y-78169810D02*
X83271242Y-78250622D01*
X83271242Y-78250622D02*
X83271242Y-78304497D01*
X83271242Y-78304497D02*
X83298179Y-78385309D01*
X107778372Y-117266494D02*
X107697560Y-117293431D01*
X107697560Y-117293431D02*
X107616748Y-117374243D01*
X107616748Y-117374243D02*
X107562873Y-117481993D01*
X107562873Y-117481993D02*
X107562873Y-117589742D01*
X107562873Y-117589742D02*
X107589810Y-117670555D01*
X107589810Y-117670555D02*
X107670623Y-117805242D01*
X107670623Y-117805242D02*
X107751435Y-117886054D01*
X107751435Y-117886054D02*
X107886122Y-117966866D01*
X107886122Y-117966866D02*
X107966934Y-117993803D01*
X107966934Y-117993803D02*
X108074684Y-117993803D01*
X108074684Y-117993803D02*
X108182433Y-117939929D01*
X108182433Y-117939929D02*
X108236308Y-117886054D01*
X108236308Y-117886054D02*
X108290183Y-117778304D01*
X108290183Y-117778304D02*
X108290183Y-117724429D01*
X108290183Y-117724429D02*
X108101621Y-117535868D01*
X108101621Y-117535868D02*
X107993871Y-117643617D01*
X108586494Y-117535868D02*
X108020809Y-116970182D01*
X108020809Y-116970182D02*
X108236308Y-116754683D01*
X108236308Y-116754683D02*
X108317120Y-116727746D01*
X108317120Y-116727746D02*
X108370995Y-116727746D01*
X108370995Y-116727746D02*
X108451807Y-116754683D01*
X108451807Y-116754683D02*
X108532619Y-116835495D01*
X108532619Y-116835495D02*
X108559557Y-116916307D01*
X108559557Y-116916307D02*
X108559557Y-116970182D01*
X108559557Y-116970182D02*
X108532619Y-117050994D01*
X108532619Y-117050994D02*
X108317120Y-117266494D01*
X108532619Y-116458372D02*
X108882806Y-116108185D01*
X108882806Y-116108185D02*
X108909743Y-116512246D01*
X108909743Y-116512246D02*
X108990555Y-116431434D01*
X108990555Y-116431434D02*
X109071367Y-116404497D01*
X109071367Y-116404497D02*
X109125242Y-116404497D01*
X109125242Y-116404497D02*
X109206054Y-116431434D01*
X109206054Y-116431434D02*
X109340741Y-116566121D01*
X109340741Y-116566121D02*
X109367679Y-116646933D01*
X109367679Y-116646933D02*
X109367679Y-116700808D01*
X109367679Y-116700808D02*
X109340741Y-116781620D01*
X109340741Y-116781620D02*
X109179117Y-116943245D01*
X109179117Y-116943245D02*
X109098305Y-116970182D01*
X109098305Y-116970182D02*
X109044430Y-116970182D01*
X107751435Y-122373431D02*
X107670623Y-122400368D01*
X107670623Y-122400368D02*
X107589811Y-122481180D01*
X107589811Y-122481180D02*
X107535936Y-122588930D01*
X107535936Y-122588930D02*
X107535936Y-122696680D01*
X107535936Y-122696680D02*
X107562873Y-122777492D01*
X107562873Y-122777492D02*
X107643685Y-122912179D01*
X107643685Y-122912179D02*
X107724498Y-122992991D01*
X107724498Y-122992991D02*
X107859185Y-123073803D01*
X107859185Y-123073803D02*
X107939997Y-123100741D01*
X107939997Y-123100741D02*
X108047746Y-123100741D01*
X108047746Y-123100741D02*
X108155496Y-123046866D01*
X108155496Y-123046866D02*
X108209371Y-122992991D01*
X108209371Y-122992991D02*
X108263246Y-122885241D01*
X108263246Y-122885241D02*
X108263246Y-122831367D01*
X108263246Y-122831367D02*
X108074684Y-122642805D01*
X108074684Y-122642805D02*
X107966934Y-122750554D01*
X108559557Y-122642805D02*
X107993872Y-122077119D01*
X107993872Y-122077119D02*
X108882806Y-122319556D01*
X108882806Y-122319556D02*
X108317120Y-121753871D01*
X109152180Y-122050182D02*
X108586494Y-121484497D01*
X108586494Y-121484497D02*
X108721181Y-121349810D01*
X108721181Y-121349810D02*
X108828931Y-121295935D01*
X108828931Y-121295935D02*
X108936680Y-121295935D01*
X108936680Y-121295935D02*
X109017493Y-121322872D01*
X109017493Y-121322872D02*
X109152180Y-121403685D01*
X109152180Y-121403685D02*
X109232992Y-121484497D01*
X109232992Y-121484497D02*
X109313804Y-121619184D01*
X109313804Y-121619184D02*
X109340741Y-121699996D01*
X109340741Y-121699996D02*
X109340741Y-121807746D01*
X109340741Y-121807746D02*
X109286867Y-121915495D01*
X109286867Y-121915495D02*
X109152180Y-122050182D01*
X81185749Y-125425242D02*
X81939996Y-125802366D01*
X81939996Y-125802366D02*
X81562873Y-125048118D01*
X82263245Y-125425242D02*
X82370995Y-125371367D01*
X82370995Y-125371367D02*
X82505682Y-125236680D01*
X82505682Y-125236680D02*
X82532619Y-125155868D01*
X82532619Y-125155868D02*
X82532619Y-125101993D01*
X82532619Y-125101993D02*
X82505682Y-125021181D01*
X82505682Y-125021181D02*
X82451807Y-124967306D01*
X82451807Y-124967306D02*
X82370995Y-124940369D01*
X82370995Y-124940369D02*
X82317120Y-124940369D01*
X82317120Y-124940369D02*
X82236308Y-124967306D01*
X82236308Y-124967306D02*
X82101621Y-125048118D01*
X82101621Y-125048118D02*
X82020808Y-125075056D01*
X82020808Y-125075056D02*
X81966934Y-125075056D01*
X81966934Y-125075056D02*
X81886121Y-125048118D01*
X81886121Y-125048118D02*
X81832247Y-124994244D01*
X81832247Y-124994244D02*
X81805309Y-124913431D01*
X81805309Y-124913431D02*
X81805309Y-124859557D01*
X81805309Y-124859557D02*
X81832247Y-124778744D01*
X81832247Y-124778744D02*
X81966934Y-124644057D01*
X81966934Y-124644057D02*
X82074683Y-124590183D01*
X82694244Y-124509370D02*
X82963618Y-124778744D01*
X82209370Y-124401621D02*
X82694244Y-124509370D01*
X82694244Y-124509370D02*
X82586494Y-124024497D01*
X83286866Y-124401621D02*
X83394616Y-124347746D01*
X83394616Y-124347746D02*
X83529303Y-124213059D01*
X83529303Y-124213059D02*
X83556240Y-124132247D01*
X83556240Y-124132247D02*
X83556240Y-124078372D01*
X83556240Y-124078372D02*
X83529303Y-123997560D01*
X83529303Y-123997560D02*
X83475428Y-123943685D01*
X83475428Y-123943685D02*
X83394616Y-123916748D01*
X83394616Y-123916748D02*
X83340741Y-123916748D01*
X83340741Y-123916748D02*
X83259929Y-123943685D01*
X83259929Y-123943685D02*
X83125242Y-124024497D01*
X83125242Y-124024497D02*
X83044430Y-124051435D01*
X83044430Y-124051435D02*
X82990555Y-124051435D01*
X82990555Y-124051435D02*
X82909743Y-124024497D01*
X82909743Y-124024497D02*
X82855868Y-123970622D01*
X82855868Y-123970622D02*
X82828930Y-123889810D01*
X82828930Y-123889810D02*
X82828930Y-123835935D01*
X82828930Y-123835935D02*
X82855868Y-123755123D01*
X82855868Y-123755123D02*
X82990555Y-123620436D01*
X82990555Y-123620436D02*
X83098304Y-123566561D01*
X107878372Y-119806494D02*
X107797560Y-119833431D01*
X107797560Y-119833431D02*
X107716748Y-119914243D01*
X107716748Y-119914243D02*
X107662873Y-120021993D01*
X107662873Y-120021993D02*
X107662873Y-120129742D01*
X107662873Y-120129742D02*
X107689810Y-120210555D01*
X107689810Y-120210555D02*
X107770623Y-120345242D01*
X107770623Y-120345242D02*
X107851435Y-120426054D01*
X107851435Y-120426054D02*
X107986122Y-120506866D01*
X107986122Y-120506866D02*
X108066934Y-120533803D01*
X108066934Y-120533803D02*
X108174684Y-120533803D01*
X108174684Y-120533803D02*
X108282433Y-120479929D01*
X108282433Y-120479929D02*
X108336308Y-120426054D01*
X108336308Y-120426054D02*
X108390183Y-120318304D01*
X108390183Y-120318304D02*
X108390183Y-120264429D01*
X108390183Y-120264429D02*
X108201621Y-120075868D01*
X108201621Y-120075868D02*
X108093871Y-120183617D01*
X108686494Y-120075868D02*
X108120809Y-119510182D01*
X108120809Y-119510182D02*
X108336308Y-119294683D01*
X108336308Y-119294683D02*
X108417120Y-119267746D01*
X108417120Y-119267746D02*
X108470995Y-119267746D01*
X108470995Y-119267746D02*
X108551807Y-119294683D01*
X108551807Y-119294683D02*
X108632619Y-119375495D01*
X108632619Y-119375495D02*
X108659557Y-119456307D01*
X108659557Y-119456307D02*
X108659557Y-119510182D01*
X108659557Y-119510182D02*
X108632619Y-119590994D01*
X108632619Y-119590994D02*
X108417120Y-119806494D01*
X108713432Y-119025309D02*
X108713432Y-118971434D01*
X108713432Y-118971434D02*
X108740369Y-118890622D01*
X108740369Y-118890622D02*
X108875056Y-118755935D01*
X108875056Y-118755935D02*
X108955868Y-118728998D01*
X108955868Y-118728998D02*
X109009743Y-118728998D01*
X109009743Y-118728998D02*
X109090555Y-118755935D01*
X109090555Y-118755935D02*
X109144430Y-118809810D01*
X109144430Y-118809810D02*
X109198305Y-118917559D01*
X109198305Y-118917559D02*
X109198305Y-119564057D01*
X109198305Y-119564057D02*
X109548491Y-119213871D01*
X81654998Y-107365868D02*
X81574185Y-107392805D01*
X81574185Y-107392805D02*
X81493373Y-107473618D01*
X81493373Y-107473618D02*
X81439498Y-107581367D01*
X81439498Y-107581367D02*
X81439498Y-107689117D01*
X81439498Y-107689117D02*
X81466436Y-107769929D01*
X81466436Y-107769929D02*
X81547248Y-107904616D01*
X81547248Y-107904616D02*
X81628060Y-107985428D01*
X81628060Y-107985428D02*
X81762747Y-108066241D01*
X81762747Y-108066241D02*
X81843560Y-108093178D01*
X81843560Y-108093178D02*
X81951309Y-108093178D01*
X81951309Y-108093178D02*
X82059059Y-108039303D01*
X82059059Y-108039303D02*
X82112934Y-107985428D01*
X82112934Y-107985428D02*
X82166808Y-107877679D01*
X82166808Y-107877679D02*
X82166808Y-107823804D01*
X82166808Y-107823804D02*
X81978247Y-107635242D01*
X81978247Y-107635242D02*
X81870497Y-107742992D01*
X82463120Y-107635242D02*
X81897434Y-107069557D01*
X81897434Y-107069557D02*
X82112934Y-106854057D01*
X82112934Y-106854057D02*
X82193746Y-106827120D01*
X82193746Y-106827120D02*
X82247621Y-106827120D01*
X82247621Y-106827120D02*
X82328433Y-106854057D01*
X82328433Y-106854057D02*
X82409245Y-106934870D01*
X82409245Y-106934870D02*
X82436182Y-107015682D01*
X82436182Y-107015682D02*
X82436182Y-107069557D01*
X82436182Y-107069557D02*
X82409245Y-107150369D01*
X82409245Y-107150369D02*
X82193746Y-107365868D01*
X82490057Y-106584683D02*
X82490057Y-106530809D01*
X82490057Y-106530809D02*
X82516995Y-106449996D01*
X82516995Y-106449996D02*
X82651682Y-106315309D01*
X82651682Y-106315309D02*
X82732494Y-106288372D01*
X82732494Y-106288372D02*
X82786369Y-106288372D01*
X82786369Y-106288372D02*
X82867181Y-106315309D01*
X82867181Y-106315309D02*
X82921056Y-106369184D01*
X82921056Y-106369184D02*
X82974930Y-106476934D01*
X82974930Y-106476934D02*
X82974930Y-107123431D01*
X82974930Y-107123431D02*
X83325117Y-106773245D01*
X82947993Y-106018998D02*
X83325117Y-105641874D01*
X83325117Y-105641874D02*
X83648366Y-106449996D01*
X81708873Y-110616240D02*
X81978247Y-110346866D01*
X81816623Y-110831739D02*
X81439499Y-110077492D01*
X81439499Y-110077492D02*
X82193746Y-110454615D01*
X82139871Y-109430994D02*
X82059059Y-109457932D01*
X82059059Y-109457932D02*
X81978247Y-109538744D01*
X81978247Y-109538744D02*
X81924372Y-109646494D01*
X81924372Y-109646494D02*
X81924372Y-109754243D01*
X81924372Y-109754243D02*
X81951310Y-109835055D01*
X81951310Y-109835055D02*
X82032122Y-109969742D01*
X82032122Y-109969742D02*
X82112934Y-110050555D01*
X82112934Y-110050555D02*
X82247621Y-110131367D01*
X82247621Y-110131367D02*
X82328433Y-110158304D01*
X82328433Y-110158304D02*
X82436183Y-110158304D01*
X82436183Y-110158304D02*
X82543932Y-110104429D01*
X82543932Y-110104429D02*
X82597807Y-110050555D01*
X82597807Y-110050555D02*
X82651682Y-109942805D01*
X82651682Y-109942805D02*
X82651682Y-109888930D01*
X82651682Y-109888930D02*
X82463120Y-109700368D01*
X82463120Y-109700368D02*
X82355371Y-109808118D01*
X82947993Y-109700368D02*
X82382308Y-109134683D01*
X82382308Y-109134683D02*
X83271242Y-109377120D01*
X83271242Y-109377120D02*
X82705557Y-108811434D01*
X83540616Y-109107746D02*
X82974931Y-108542060D01*
X82974931Y-108542060D02*
X83109618Y-108407373D01*
X83109618Y-108407373D02*
X83217367Y-108353498D01*
X83217367Y-108353498D02*
X83325117Y-108353498D01*
X83325117Y-108353498D02*
X83405929Y-108380436D01*
X83405929Y-108380436D02*
X83540616Y-108461248D01*
X83540616Y-108461248D02*
X83621428Y-108542060D01*
X83621428Y-108542060D02*
X83702241Y-108676747D01*
X83702241Y-108676747D02*
X83729178Y-108757560D01*
X83729178Y-108757560D02*
X83729178Y-108865309D01*
X83729178Y-108865309D02*
X83675303Y-108973059D01*
X83675303Y-108973059D02*
X83540616Y-109107746D01*
X107762998Y-87055868D02*
X107682185Y-87082805D01*
X107682185Y-87082805D02*
X107601373Y-87163618D01*
X107601373Y-87163618D02*
X107547498Y-87271367D01*
X107547498Y-87271367D02*
X107547498Y-87379117D01*
X107547498Y-87379117D02*
X107574436Y-87459929D01*
X107574436Y-87459929D02*
X107655248Y-87594616D01*
X107655248Y-87594616D02*
X107736060Y-87675428D01*
X107736060Y-87675428D02*
X107870747Y-87756241D01*
X107870747Y-87756241D02*
X107951560Y-87783178D01*
X107951560Y-87783178D02*
X108059309Y-87783178D01*
X108059309Y-87783178D02*
X108167059Y-87729303D01*
X108167059Y-87729303D02*
X108220934Y-87675428D01*
X108220934Y-87675428D02*
X108274808Y-87567679D01*
X108274808Y-87567679D02*
X108274808Y-87513804D01*
X108274808Y-87513804D02*
X108086247Y-87325242D01*
X108086247Y-87325242D02*
X107978497Y-87432992D01*
X108571120Y-87325242D02*
X108005434Y-86759557D01*
X108005434Y-86759557D02*
X108220934Y-86544057D01*
X108220934Y-86544057D02*
X108301746Y-86517120D01*
X108301746Y-86517120D02*
X108355621Y-86517120D01*
X108355621Y-86517120D02*
X108436433Y-86544057D01*
X108436433Y-86544057D02*
X108517245Y-86624870D01*
X108517245Y-86624870D02*
X108544182Y-86705682D01*
X108544182Y-86705682D02*
X108544182Y-86759557D01*
X108544182Y-86759557D02*
X108517245Y-86840369D01*
X108517245Y-86840369D02*
X108301746Y-87055868D01*
X109433117Y-86463245D02*
X109109868Y-86786494D01*
X109271492Y-86624870D02*
X108705807Y-86059184D01*
X108705807Y-86059184D02*
X108732744Y-86193871D01*
X108732744Y-86193871D02*
X108732744Y-86301621D01*
X108732744Y-86301621D02*
X108705807Y-86382433D01*
X109055993Y-85708998D02*
X109406179Y-85358812D01*
X109406179Y-85358812D02*
X109433117Y-85762873D01*
X109433117Y-85762873D02*
X109513929Y-85682060D01*
X109513929Y-85682060D02*
X109594741Y-85655123D01*
X109594741Y-85655123D02*
X109648616Y-85655123D01*
X109648616Y-85655123D02*
X109729428Y-85682060D01*
X109729428Y-85682060D02*
X109864115Y-85816747D01*
X109864115Y-85816747D02*
X109891053Y-85897560D01*
X109891053Y-85897560D02*
X109891053Y-85951434D01*
X109891053Y-85951434D02*
X109864115Y-86032247D01*
X109864115Y-86032247D02*
X109702491Y-86193871D01*
X109702491Y-86193871D02*
X109621679Y-86220808D01*
X109621679Y-86220808D02*
X109567804Y-86220808D01*
X107778372Y-127426494D02*
X107697560Y-127453431D01*
X107697560Y-127453431D02*
X107616748Y-127534243D01*
X107616748Y-127534243D02*
X107562873Y-127641993D01*
X107562873Y-127641993D02*
X107562873Y-127749742D01*
X107562873Y-127749742D02*
X107589810Y-127830555D01*
X107589810Y-127830555D02*
X107670623Y-127965242D01*
X107670623Y-127965242D02*
X107751435Y-128046054D01*
X107751435Y-128046054D02*
X107886122Y-128126866D01*
X107886122Y-128126866D02*
X107966934Y-128153803D01*
X107966934Y-128153803D02*
X108074684Y-128153803D01*
X108074684Y-128153803D02*
X108182433Y-128099929D01*
X108182433Y-128099929D02*
X108236308Y-128046054D01*
X108236308Y-128046054D02*
X108290183Y-127938304D01*
X108290183Y-127938304D02*
X108290183Y-127884429D01*
X108290183Y-127884429D02*
X108101621Y-127695868D01*
X108101621Y-127695868D02*
X107993871Y-127803617D01*
X108586494Y-127695868D02*
X108020809Y-127130182D01*
X108020809Y-127130182D02*
X108236308Y-126914683D01*
X108236308Y-126914683D02*
X108317120Y-126887746D01*
X108317120Y-126887746D02*
X108370995Y-126887746D01*
X108370995Y-126887746D02*
X108451807Y-126914683D01*
X108451807Y-126914683D02*
X108532619Y-126995495D01*
X108532619Y-126995495D02*
X108559557Y-127076307D01*
X108559557Y-127076307D02*
X108559557Y-127130182D01*
X108559557Y-127130182D02*
X108532619Y-127210994D01*
X108532619Y-127210994D02*
X108317120Y-127426494D01*
X108694244Y-126456747D02*
X108748119Y-126402872D01*
X108748119Y-126402872D02*
X108828931Y-126375935D01*
X108828931Y-126375935D02*
X108882806Y-126375935D01*
X108882806Y-126375935D02*
X108963618Y-126402872D01*
X108963618Y-126402872D02*
X109098305Y-126483685D01*
X109098305Y-126483685D02*
X109232992Y-126618372D01*
X109232992Y-126618372D02*
X109313804Y-126753059D01*
X109313804Y-126753059D02*
X109340741Y-126833871D01*
X109340741Y-126833871D02*
X109340741Y-126887746D01*
X109340741Y-126887746D02*
X109313804Y-126968558D01*
X109313804Y-126968558D02*
X109259929Y-127022433D01*
X109259929Y-127022433D02*
X109179117Y-127049370D01*
X109179117Y-127049370D02*
X109125242Y-127049370D01*
X109125242Y-127049370D02*
X109044430Y-127022433D01*
X109044430Y-127022433D02*
X108909743Y-126941620D01*
X108909743Y-126941620D02*
X108775056Y-126806933D01*
X108775056Y-126806933D02*
X108694244Y-126672246D01*
X108694244Y-126672246D02*
X108667306Y-126591434D01*
X108667306Y-126591434D02*
X108667306Y-126537559D01*
X108667306Y-126537559D02*
X108694244Y-126456747D01*
X107908998Y-92135868D02*
X107828185Y-92162805D01*
X107828185Y-92162805D02*
X107747373Y-92243618D01*
X107747373Y-92243618D02*
X107693498Y-92351367D01*
X107693498Y-92351367D02*
X107693498Y-92459117D01*
X107693498Y-92459117D02*
X107720436Y-92539929D01*
X107720436Y-92539929D02*
X107801248Y-92674616D01*
X107801248Y-92674616D02*
X107882060Y-92755428D01*
X107882060Y-92755428D02*
X108016747Y-92836241D01*
X108016747Y-92836241D02*
X108097560Y-92863178D01*
X108097560Y-92863178D02*
X108205309Y-92863178D01*
X108205309Y-92863178D02*
X108313059Y-92809303D01*
X108313059Y-92809303D02*
X108366934Y-92755428D01*
X108366934Y-92755428D02*
X108420808Y-92647679D01*
X108420808Y-92647679D02*
X108420808Y-92593804D01*
X108420808Y-92593804D02*
X108232247Y-92405242D01*
X108232247Y-92405242D02*
X108124497Y-92512992D01*
X108717120Y-92405242D02*
X108151434Y-91839557D01*
X108151434Y-91839557D02*
X108366934Y-91624057D01*
X108366934Y-91624057D02*
X108447746Y-91597120D01*
X108447746Y-91597120D02*
X108501621Y-91597120D01*
X108501621Y-91597120D02*
X108582433Y-91624057D01*
X108582433Y-91624057D02*
X108663245Y-91704870D01*
X108663245Y-91704870D02*
X108690182Y-91785682D01*
X108690182Y-91785682D02*
X108690182Y-91839557D01*
X108690182Y-91839557D02*
X108663245Y-91920369D01*
X108663245Y-91920369D02*
X108447746Y-92135868D01*
X109579117Y-91543245D02*
X109255868Y-91866494D01*
X109417492Y-91704870D02*
X108851807Y-91139184D01*
X108851807Y-91139184D02*
X108878744Y-91273871D01*
X108878744Y-91273871D02*
X108878744Y-91381621D01*
X108878744Y-91381621D02*
X108851807Y-91462433D01*
X110117865Y-91004497D02*
X109794616Y-91327746D01*
X109956240Y-91166121D02*
X109390555Y-90600436D01*
X109390555Y-90600436D02*
X109417492Y-90735123D01*
X109417492Y-90735123D02*
X109417492Y-90842873D01*
X109417492Y-90842873D02*
X109390555Y-90923685D01*
X107778372Y-99486494D02*
X107697560Y-99513431D01*
X107697560Y-99513431D02*
X107616748Y-99594243D01*
X107616748Y-99594243D02*
X107562873Y-99701993D01*
X107562873Y-99701993D02*
X107562873Y-99809742D01*
X107562873Y-99809742D02*
X107589810Y-99890555D01*
X107589810Y-99890555D02*
X107670623Y-100025242D01*
X107670623Y-100025242D02*
X107751435Y-100106054D01*
X107751435Y-100106054D02*
X107886122Y-100186866D01*
X107886122Y-100186866D02*
X107966934Y-100213803D01*
X107966934Y-100213803D02*
X108074684Y-100213803D01*
X108074684Y-100213803D02*
X108182433Y-100159929D01*
X108182433Y-100159929D02*
X108236308Y-100106054D01*
X108236308Y-100106054D02*
X108290183Y-99998304D01*
X108290183Y-99998304D02*
X108290183Y-99944429D01*
X108290183Y-99944429D02*
X108101621Y-99755868D01*
X108101621Y-99755868D02*
X107993871Y-99863617D01*
X108586494Y-99755868D02*
X108020809Y-99190182D01*
X108020809Y-99190182D02*
X108236308Y-98974683D01*
X108236308Y-98974683D02*
X108317120Y-98947746D01*
X108317120Y-98947746D02*
X108370995Y-98947746D01*
X108370995Y-98947746D02*
X108451807Y-98974683D01*
X108451807Y-98974683D02*
X108532619Y-99055495D01*
X108532619Y-99055495D02*
X108559557Y-99136307D01*
X108559557Y-99136307D02*
X108559557Y-99190182D01*
X108559557Y-99190182D02*
X108532619Y-99270994D01*
X108532619Y-99270994D02*
X108317120Y-99486494D01*
X109179117Y-99163245D02*
X109286867Y-99055495D01*
X109286867Y-99055495D02*
X109313804Y-98974683D01*
X109313804Y-98974683D02*
X109313804Y-98920808D01*
X109313804Y-98920808D02*
X109286867Y-98786121D01*
X109286867Y-98786121D02*
X109206054Y-98651434D01*
X109206054Y-98651434D02*
X108990555Y-98435935D01*
X108990555Y-98435935D02*
X108909743Y-98408998D01*
X108909743Y-98408998D02*
X108855868Y-98408998D01*
X108855868Y-98408998D02*
X108775056Y-98435935D01*
X108775056Y-98435935D02*
X108667306Y-98543685D01*
X108667306Y-98543685D02*
X108640369Y-98624497D01*
X108640369Y-98624497D02*
X108640369Y-98678372D01*
X108640369Y-98678372D02*
X108667306Y-98759184D01*
X108667306Y-98759184D02*
X108801993Y-98893871D01*
X108801993Y-98893871D02*
X108882806Y-98920808D01*
X108882806Y-98920808D02*
X108936680Y-98920808D01*
X108936680Y-98920808D02*
X109017493Y-98893871D01*
X109017493Y-98893871D02*
X109125242Y-98786121D01*
X109125242Y-98786121D02*
X109152180Y-98705309D01*
X109152180Y-98705309D02*
X109152180Y-98651434D01*
X109152180Y-98651434D02*
X109125242Y-98570622D01*
X107778372Y-102026494D02*
X107697560Y-102053431D01*
X107697560Y-102053431D02*
X107616748Y-102134243D01*
X107616748Y-102134243D02*
X107562873Y-102241993D01*
X107562873Y-102241993D02*
X107562873Y-102349742D01*
X107562873Y-102349742D02*
X107589810Y-102430555D01*
X107589810Y-102430555D02*
X107670623Y-102565242D01*
X107670623Y-102565242D02*
X107751435Y-102646054D01*
X107751435Y-102646054D02*
X107886122Y-102726866D01*
X107886122Y-102726866D02*
X107966934Y-102753803D01*
X107966934Y-102753803D02*
X108074684Y-102753803D01*
X108074684Y-102753803D02*
X108182433Y-102699929D01*
X108182433Y-102699929D02*
X108236308Y-102646054D01*
X108236308Y-102646054D02*
X108290183Y-102538304D01*
X108290183Y-102538304D02*
X108290183Y-102484429D01*
X108290183Y-102484429D02*
X108101621Y-102295868D01*
X108101621Y-102295868D02*
X107993871Y-102403617D01*
X108586494Y-102295868D02*
X108020809Y-101730182D01*
X108020809Y-101730182D02*
X108236308Y-101514683D01*
X108236308Y-101514683D02*
X108317120Y-101487746D01*
X108317120Y-101487746D02*
X108370995Y-101487746D01*
X108370995Y-101487746D02*
X108451807Y-101514683D01*
X108451807Y-101514683D02*
X108532619Y-101595495D01*
X108532619Y-101595495D02*
X108559557Y-101676307D01*
X108559557Y-101676307D02*
X108559557Y-101730182D01*
X108559557Y-101730182D02*
X108532619Y-101810994D01*
X108532619Y-101810994D02*
X108317120Y-102026494D01*
X108909743Y-101326121D02*
X108828931Y-101353059D01*
X108828931Y-101353059D02*
X108775056Y-101353059D01*
X108775056Y-101353059D02*
X108694244Y-101326121D01*
X108694244Y-101326121D02*
X108667306Y-101299184D01*
X108667306Y-101299184D02*
X108640369Y-101218372D01*
X108640369Y-101218372D02*
X108640369Y-101164497D01*
X108640369Y-101164497D02*
X108667306Y-101083685D01*
X108667306Y-101083685D02*
X108775056Y-100975935D01*
X108775056Y-100975935D02*
X108855868Y-100948998D01*
X108855868Y-100948998D02*
X108909743Y-100948998D01*
X108909743Y-100948998D02*
X108990555Y-100975935D01*
X108990555Y-100975935D02*
X109017493Y-101002872D01*
X109017493Y-101002872D02*
X109044430Y-101083685D01*
X109044430Y-101083685D02*
X109044430Y-101137559D01*
X109044430Y-101137559D02*
X109017493Y-101218372D01*
X109017493Y-101218372D02*
X108909743Y-101326121D01*
X108909743Y-101326121D02*
X108882806Y-101406933D01*
X108882806Y-101406933D02*
X108882806Y-101460808D01*
X108882806Y-101460808D02*
X108909743Y-101541620D01*
X108909743Y-101541620D02*
X109017493Y-101649370D01*
X109017493Y-101649370D02*
X109098305Y-101676307D01*
X109098305Y-101676307D02*
X109152180Y-101676307D01*
X109152180Y-101676307D02*
X109232992Y-101649370D01*
X109232992Y-101649370D02*
X109340741Y-101541620D01*
X109340741Y-101541620D02*
X109367679Y-101460808D01*
X109367679Y-101460808D02*
X109367679Y-101406933D01*
X109367679Y-101406933D02*
X109340741Y-101326121D01*
X109340741Y-101326121D02*
X109232992Y-101218372D01*
X109232992Y-101218372D02*
X109152180Y-101191434D01*
X109152180Y-101191434D02*
X109098305Y-101191434D01*
X109098305Y-101191434D02*
X109017493Y-101218372D01*
X82151435Y-84273431D02*
X82070623Y-84300368D01*
X82070623Y-84300368D02*
X81989811Y-84381180D01*
X81989811Y-84381180D02*
X81935936Y-84488930D01*
X81935936Y-84488930D02*
X81935936Y-84596680D01*
X81935936Y-84596680D02*
X81962873Y-84677492D01*
X81962873Y-84677492D02*
X82043685Y-84812179D01*
X82043685Y-84812179D02*
X82124498Y-84892991D01*
X82124498Y-84892991D02*
X82259185Y-84973803D01*
X82259185Y-84973803D02*
X82339997Y-85000741D01*
X82339997Y-85000741D02*
X82447746Y-85000741D01*
X82447746Y-85000741D02*
X82555496Y-84946866D01*
X82555496Y-84946866D02*
X82609371Y-84892991D01*
X82609371Y-84892991D02*
X82663246Y-84785241D01*
X82663246Y-84785241D02*
X82663246Y-84731367D01*
X82663246Y-84731367D02*
X82474684Y-84542805D01*
X82474684Y-84542805D02*
X82366934Y-84650554D01*
X82959557Y-84542805D02*
X82393872Y-83977119D01*
X82393872Y-83977119D02*
X83282806Y-84219556D01*
X83282806Y-84219556D02*
X82717120Y-83653871D01*
X83552180Y-83950182D02*
X82986494Y-83384497D01*
X82986494Y-83384497D02*
X83121181Y-83249810D01*
X83121181Y-83249810D02*
X83228931Y-83195935D01*
X83228931Y-83195935D02*
X83336680Y-83195935D01*
X83336680Y-83195935D02*
X83417493Y-83222872D01*
X83417493Y-83222872D02*
X83552180Y-83303685D01*
X83552180Y-83303685D02*
X83632992Y-83384497D01*
X83632992Y-83384497D02*
X83713804Y-83519184D01*
X83713804Y-83519184D02*
X83740741Y-83599996D01*
X83740741Y-83599996D02*
X83740741Y-83707746D01*
X83740741Y-83707746D02*
X83686867Y-83815495D01*
X83686867Y-83815495D02*
X83552180Y-83950182D01*
X81654998Y-104835868D02*
X81574185Y-104862805D01*
X81574185Y-104862805D02*
X81493373Y-104943618D01*
X81493373Y-104943618D02*
X81439498Y-105051367D01*
X81439498Y-105051367D02*
X81439498Y-105159117D01*
X81439498Y-105159117D02*
X81466436Y-105239929D01*
X81466436Y-105239929D02*
X81547248Y-105374616D01*
X81547248Y-105374616D02*
X81628060Y-105455428D01*
X81628060Y-105455428D02*
X81762747Y-105536241D01*
X81762747Y-105536241D02*
X81843560Y-105563178D01*
X81843560Y-105563178D02*
X81951309Y-105563178D01*
X81951309Y-105563178D02*
X82059059Y-105509303D01*
X82059059Y-105509303D02*
X82112934Y-105455428D01*
X82112934Y-105455428D02*
X82166808Y-105347679D01*
X82166808Y-105347679D02*
X82166808Y-105293804D01*
X82166808Y-105293804D02*
X81978247Y-105105242D01*
X81978247Y-105105242D02*
X81870497Y-105212992D01*
X82463120Y-105105242D02*
X81897434Y-104539557D01*
X81897434Y-104539557D02*
X82112934Y-104324057D01*
X82112934Y-104324057D02*
X82193746Y-104297120D01*
X82193746Y-104297120D02*
X82247621Y-104297120D01*
X82247621Y-104297120D02*
X82328433Y-104324057D01*
X82328433Y-104324057D02*
X82409245Y-104404870D01*
X82409245Y-104404870D02*
X82436182Y-104485682D01*
X82436182Y-104485682D02*
X82436182Y-104539557D01*
X82436182Y-104539557D02*
X82409245Y-104620369D01*
X82409245Y-104620369D02*
X82193746Y-104835868D01*
X82490057Y-104054683D02*
X82490057Y-104000809D01*
X82490057Y-104000809D02*
X82516995Y-103919996D01*
X82516995Y-103919996D02*
X82651682Y-103785309D01*
X82651682Y-103785309D02*
X82732494Y-103758372D01*
X82732494Y-103758372D02*
X82786369Y-103758372D01*
X82786369Y-103758372D02*
X82867181Y-103785309D01*
X82867181Y-103785309D02*
X82921056Y-103839184D01*
X82921056Y-103839184D02*
X82974930Y-103946934D01*
X82974930Y-103946934D02*
X82974930Y-104593431D01*
X82974930Y-104593431D02*
X83325117Y-104243245D01*
X83244305Y-103192686D02*
X83136555Y-103300436D01*
X83136555Y-103300436D02*
X83109618Y-103381248D01*
X83109618Y-103381248D02*
X83109618Y-103435123D01*
X83109618Y-103435123D02*
X83136555Y-103569810D01*
X83136555Y-103569810D02*
X83217367Y-103704497D01*
X83217367Y-103704497D02*
X83432866Y-103919996D01*
X83432866Y-103919996D02*
X83513679Y-103946934D01*
X83513679Y-103946934D02*
X83567553Y-103946934D01*
X83567553Y-103946934D02*
X83648366Y-103919996D01*
X83648366Y-103919996D02*
X83756115Y-103812247D01*
X83756115Y-103812247D02*
X83783053Y-103731434D01*
X83783053Y-103731434D02*
X83783053Y-103677560D01*
X83783053Y-103677560D02*
X83756115Y-103596747D01*
X83756115Y-103596747D02*
X83621428Y-103462060D01*
X83621428Y-103462060D02*
X83540616Y-103435123D01*
X83540616Y-103435123D02*
X83486741Y-103435123D01*
X83486741Y-103435123D02*
X83405929Y-103462060D01*
X83405929Y-103462060D02*
X83298179Y-103569810D01*
X83298179Y-103569810D02*
X83271242Y-103650622D01*
X83271242Y-103650622D02*
X83271242Y-103704497D01*
X83271242Y-103704497D02*
X83298179Y-103785309D01*
X107778372Y-107106494D02*
X107697560Y-107133431D01*
X107697560Y-107133431D02*
X107616748Y-107214243D01*
X107616748Y-107214243D02*
X107562873Y-107321993D01*
X107562873Y-107321993D02*
X107562873Y-107429742D01*
X107562873Y-107429742D02*
X107589810Y-107510555D01*
X107589810Y-107510555D02*
X107670623Y-107645242D01*
X107670623Y-107645242D02*
X107751435Y-107726054D01*
X107751435Y-107726054D02*
X107886122Y-107806866D01*
X107886122Y-107806866D02*
X107966934Y-107833803D01*
X107966934Y-107833803D02*
X108074684Y-107833803D01*
X108074684Y-107833803D02*
X108182433Y-107779929D01*
X108182433Y-107779929D02*
X108236308Y-107726054D01*
X108236308Y-107726054D02*
X108290183Y-107618304D01*
X108290183Y-107618304D02*
X108290183Y-107564429D01*
X108290183Y-107564429D02*
X108101621Y-107375868D01*
X108101621Y-107375868D02*
X107993871Y-107483617D01*
X108586494Y-107375868D02*
X108020809Y-106810182D01*
X108020809Y-106810182D02*
X108236308Y-106594683D01*
X108236308Y-106594683D02*
X108317120Y-106567746D01*
X108317120Y-106567746D02*
X108370995Y-106567746D01*
X108370995Y-106567746D02*
X108451807Y-106594683D01*
X108451807Y-106594683D02*
X108532619Y-106675495D01*
X108532619Y-106675495D02*
X108559557Y-106756307D01*
X108559557Y-106756307D02*
X108559557Y-106810182D01*
X108559557Y-106810182D02*
X108532619Y-106890994D01*
X108532619Y-106890994D02*
X108317120Y-107106494D01*
X108828931Y-106002060D02*
X108721181Y-106109810D01*
X108721181Y-106109810D02*
X108694244Y-106190622D01*
X108694244Y-106190622D02*
X108694244Y-106244497D01*
X108694244Y-106244497D02*
X108721181Y-106379184D01*
X108721181Y-106379184D02*
X108801993Y-106513871D01*
X108801993Y-106513871D02*
X109017493Y-106729370D01*
X109017493Y-106729370D02*
X109098305Y-106756307D01*
X109098305Y-106756307D02*
X109152180Y-106756307D01*
X109152180Y-106756307D02*
X109232992Y-106729370D01*
X109232992Y-106729370D02*
X109340741Y-106621620D01*
X109340741Y-106621620D02*
X109367679Y-106540808D01*
X109367679Y-106540808D02*
X109367679Y-106486933D01*
X109367679Y-106486933D02*
X109340741Y-106406121D01*
X109340741Y-106406121D02*
X109206054Y-106271434D01*
X109206054Y-106271434D02*
X109125242Y-106244497D01*
X109125242Y-106244497D02*
X109071367Y-106244497D01*
X109071367Y-106244497D02*
X108990555Y-106271434D01*
X108990555Y-106271434D02*
X108882806Y-106379184D01*
X108882806Y-106379184D02*
X108855868Y-106459996D01*
X108855868Y-106459996D02*
X108855868Y-106513871D01*
X108855868Y-106513871D02*
X108882806Y-106594683D01*
X107751435Y-109673431D02*
X107670623Y-109700368D01*
X107670623Y-109700368D02*
X107589811Y-109781180D01*
X107589811Y-109781180D02*
X107535936Y-109888930D01*
X107535936Y-109888930D02*
X107535936Y-109996680D01*
X107535936Y-109996680D02*
X107562873Y-110077492D01*
X107562873Y-110077492D02*
X107643685Y-110212179D01*
X107643685Y-110212179D02*
X107724498Y-110292991D01*
X107724498Y-110292991D02*
X107859185Y-110373803D01*
X107859185Y-110373803D02*
X107939997Y-110400741D01*
X107939997Y-110400741D02*
X108047746Y-110400741D01*
X108047746Y-110400741D02*
X108155496Y-110346866D01*
X108155496Y-110346866D02*
X108209371Y-110292991D01*
X108209371Y-110292991D02*
X108263246Y-110185241D01*
X108263246Y-110185241D02*
X108263246Y-110131367D01*
X108263246Y-110131367D02*
X108074684Y-109942805D01*
X108074684Y-109942805D02*
X107966934Y-110050554D01*
X108559557Y-109942805D02*
X107993872Y-109377119D01*
X107993872Y-109377119D02*
X108882806Y-109619556D01*
X108882806Y-109619556D02*
X108317120Y-109053871D01*
X109152180Y-109350182D02*
X108586494Y-108784497D01*
X108586494Y-108784497D02*
X108721181Y-108649810D01*
X108721181Y-108649810D02*
X108828931Y-108595935D01*
X108828931Y-108595935D02*
X108936680Y-108595935D01*
X108936680Y-108595935D02*
X109017493Y-108622872D01*
X109017493Y-108622872D02*
X109152180Y-108703685D01*
X109152180Y-108703685D02*
X109232992Y-108784497D01*
X109232992Y-108784497D02*
X109313804Y-108919184D01*
X109313804Y-108919184D02*
X109340741Y-108999996D01*
X109340741Y-108999996D02*
X109340741Y-109107746D01*
X109340741Y-109107746D02*
X109286867Y-109215495D01*
X109286867Y-109215495D02*
X109152180Y-109350182D01*
X80187407Y-121533584D02*
X80537593Y-121183398D01*
X80537593Y-121183398D02*
X80564531Y-121587459D01*
X80564531Y-121587459D02*
X80645343Y-121506646D01*
X80645343Y-121506646D02*
X80726155Y-121479709D01*
X80726155Y-121479709D02*
X80780030Y-121479709D01*
X80780030Y-121479709D02*
X80860842Y-121506646D01*
X80860842Y-121506646D02*
X80995529Y-121641333D01*
X80995529Y-121641333D02*
X81022467Y-121722146D01*
X81022467Y-121722146D02*
X81022467Y-121776020D01*
X81022467Y-121776020D02*
X80995529Y-121856833D01*
X80995529Y-121856833D02*
X80833905Y-122018457D01*
X80833905Y-122018457D02*
X80753093Y-122045394D01*
X80753093Y-122045394D02*
X80699218Y-122045394D01*
X80699218Y-121021773D02*
X81453465Y-121398897D01*
X81453465Y-121398897D02*
X81076342Y-120644649D01*
X81211028Y-120509963D02*
X81561215Y-120159776D01*
X81561215Y-120159776D02*
X81588152Y-120563837D01*
X81588152Y-120563837D02*
X81668964Y-120483025D01*
X81668964Y-120483025D02*
X81749776Y-120456088D01*
X81749776Y-120456088D02*
X81803651Y-120456088D01*
X81803651Y-120456088D02*
X81884464Y-120483025D01*
X81884464Y-120483025D02*
X82019151Y-120617712D01*
X82019151Y-120617712D02*
X82046088Y-120698524D01*
X82046088Y-120698524D02*
X82046088Y-120752399D01*
X82046088Y-120752399D02*
X82019151Y-120833211D01*
X82019151Y-120833211D02*
X81857526Y-120994836D01*
X81857526Y-120994836D02*
X81776714Y-121021773D01*
X81776714Y-121021773D02*
X81722839Y-121021773D01*
X82288525Y-120671587D02*
X82719523Y-120240588D01*
X82504024Y-119755715D02*
X82692586Y-119567153D01*
X83069709Y-119782652D02*
X82800335Y-120052026D01*
X82800335Y-120052026D02*
X82234650Y-119486341D01*
X82234650Y-119486341D02*
X82504024Y-119216967D01*
X83312146Y-119540215D02*
X82746461Y-118974530D01*
X82746461Y-118974530D02*
X83635395Y-119216967D01*
X83635395Y-119216967D02*
X83069710Y-118651281D01*
X81654998Y-112709868D02*
X81574185Y-112736805D01*
X81574185Y-112736805D02*
X81493373Y-112817618D01*
X81493373Y-112817618D02*
X81439498Y-112925367D01*
X81439498Y-112925367D02*
X81439498Y-113033117D01*
X81439498Y-113033117D02*
X81466436Y-113113929D01*
X81466436Y-113113929D02*
X81547248Y-113248616D01*
X81547248Y-113248616D02*
X81628060Y-113329428D01*
X81628060Y-113329428D02*
X81762747Y-113410241D01*
X81762747Y-113410241D02*
X81843560Y-113437178D01*
X81843560Y-113437178D02*
X81951309Y-113437178D01*
X81951309Y-113437178D02*
X82059059Y-113383303D01*
X82059059Y-113383303D02*
X82112934Y-113329428D01*
X82112934Y-113329428D02*
X82166808Y-113221679D01*
X82166808Y-113221679D02*
X82166808Y-113167804D01*
X82166808Y-113167804D02*
X81978247Y-112979242D01*
X81978247Y-112979242D02*
X81870497Y-113086992D01*
X82463120Y-112979242D02*
X81897434Y-112413557D01*
X81897434Y-112413557D02*
X82112934Y-112198057D01*
X82112934Y-112198057D02*
X82193746Y-112171120D01*
X82193746Y-112171120D02*
X82247621Y-112171120D01*
X82247621Y-112171120D02*
X82328433Y-112198057D01*
X82328433Y-112198057D02*
X82409245Y-112278870D01*
X82409245Y-112278870D02*
X82436182Y-112359682D01*
X82436182Y-112359682D02*
X82436182Y-112413557D01*
X82436182Y-112413557D02*
X82409245Y-112494369D01*
X82409245Y-112494369D02*
X82193746Y-112709868D01*
X82490057Y-111928683D02*
X82490057Y-111874809D01*
X82490057Y-111874809D02*
X82516995Y-111793996D01*
X82516995Y-111793996D02*
X82651682Y-111659309D01*
X82651682Y-111659309D02*
X82732494Y-111632372D01*
X82732494Y-111632372D02*
X82786369Y-111632372D01*
X82786369Y-111632372D02*
X82867181Y-111659309D01*
X82867181Y-111659309D02*
X82921056Y-111713184D01*
X82921056Y-111713184D02*
X82974930Y-111820934D01*
X82974930Y-111820934D02*
X82974930Y-112467431D01*
X82974930Y-112467431D02*
X83325117Y-112117245D01*
X83325117Y-111470747D02*
X83244305Y-111497685D01*
X83244305Y-111497685D02*
X83190430Y-111497685D01*
X83190430Y-111497685D02*
X83109618Y-111470747D01*
X83109618Y-111470747D02*
X83082680Y-111443810D01*
X83082680Y-111443810D02*
X83055743Y-111362998D01*
X83055743Y-111362998D02*
X83055743Y-111309123D01*
X83055743Y-111309123D02*
X83082680Y-111228311D01*
X83082680Y-111228311D02*
X83190430Y-111120561D01*
X83190430Y-111120561D02*
X83271242Y-111093624D01*
X83271242Y-111093624D02*
X83325117Y-111093624D01*
X83325117Y-111093624D02*
X83405929Y-111120561D01*
X83405929Y-111120561D02*
X83432866Y-111147499D01*
X83432866Y-111147499D02*
X83459804Y-111228311D01*
X83459804Y-111228311D02*
X83459804Y-111282186D01*
X83459804Y-111282186D02*
X83432866Y-111362998D01*
X83432866Y-111362998D02*
X83325117Y-111470747D01*
X83325117Y-111470747D02*
X83298179Y-111551560D01*
X83298179Y-111551560D02*
X83298179Y-111605434D01*
X83298179Y-111605434D02*
X83325117Y-111686247D01*
X83325117Y-111686247D02*
X83432866Y-111793996D01*
X83432866Y-111793996D02*
X83513679Y-111820934D01*
X83513679Y-111820934D02*
X83567553Y-111820934D01*
X83567553Y-111820934D02*
X83648366Y-111793996D01*
X83648366Y-111793996D02*
X83756115Y-111686247D01*
X83756115Y-111686247D02*
X83783053Y-111605434D01*
X83783053Y-111605434D02*
X83783053Y-111551560D01*
X83783053Y-111551560D02*
X83756115Y-111470747D01*
X83756115Y-111470747D02*
X83648366Y-111362998D01*
X83648366Y-111362998D02*
X83567553Y-111336060D01*
X83567553Y-111336060D02*
X83513679Y-111336060D01*
X83513679Y-111336060D02*
X83432866Y-111362998D01*
X82151435Y-96973431D02*
X82070623Y-97000368D01*
X82070623Y-97000368D02*
X81989811Y-97081180D01*
X81989811Y-97081180D02*
X81935936Y-97188930D01*
X81935936Y-97188930D02*
X81935936Y-97296680D01*
X81935936Y-97296680D02*
X81962873Y-97377492D01*
X81962873Y-97377492D02*
X82043685Y-97512179D01*
X82043685Y-97512179D02*
X82124498Y-97592991D01*
X82124498Y-97592991D02*
X82259185Y-97673803D01*
X82259185Y-97673803D02*
X82339997Y-97700741D01*
X82339997Y-97700741D02*
X82447746Y-97700741D01*
X82447746Y-97700741D02*
X82555496Y-97646866D01*
X82555496Y-97646866D02*
X82609371Y-97592991D01*
X82609371Y-97592991D02*
X82663246Y-97485241D01*
X82663246Y-97485241D02*
X82663246Y-97431367D01*
X82663246Y-97431367D02*
X82474684Y-97242805D01*
X82474684Y-97242805D02*
X82366934Y-97350554D01*
X82959557Y-97242805D02*
X82393872Y-96677119D01*
X82393872Y-96677119D02*
X83282806Y-96919556D01*
X83282806Y-96919556D02*
X82717120Y-96353871D01*
X83552180Y-96650182D02*
X82986494Y-96084497D01*
X82986494Y-96084497D02*
X83121181Y-95949810D01*
X83121181Y-95949810D02*
X83228931Y-95895935D01*
X83228931Y-95895935D02*
X83336680Y-95895935D01*
X83336680Y-95895935D02*
X83417493Y-95922872D01*
X83417493Y-95922872D02*
X83552180Y-96003685D01*
X83552180Y-96003685D02*
X83632992Y-96084497D01*
X83632992Y-96084497D02*
X83713804Y-96219184D01*
X83713804Y-96219184D02*
X83740741Y-96299996D01*
X83740741Y-96299996D02*
X83740741Y-96407746D01*
X83740741Y-96407746D02*
X83686867Y-96515495D01*
X83686867Y-96515495D02*
X83552180Y-96650182D01*
X81654998Y-92135868D02*
X81574185Y-92162805D01*
X81574185Y-92162805D02*
X81493373Y-92243618D01*
X81493373Y-92243618D02*
X81439498Y-92351367D01*
X81439498Y-92351367D02*
X81439498Y-92459117D01*
X81439498Y-92459117D02*
X81466436Y-92539929D01*
X81466436Y-92539929D02*
X81547248Y-92674616D01*
X81547248Y-92674616D02*
X81628060Y-92755428D01*
X81628060Y-92755428D02*
X81762747Y-92836241D01*
X81762747Y-92836241D02*
X81843560Y-92863178D01*
X81843560Y-92863178D02*
X81951309Y-92863178D01*
X81951309Y-92863178D02*
X82059059Y-92809303D01*
X82059059Y-92809303D02*
X82112934Y-92755428D01*
X82112934Y-92755428D02*
X82166808Y-92647679D01*
X82166808Y-92647679D02*
X82166808Y-92593804D01*
X82166808Y-92593804D02*
X81978247Y-92405242D01*
X81978247Y-92405242D02*
X81870497Y-92512992D01*
X82463120Y-92405242D02*
X81897434Y-91839557D01*
X81897434Y-91839557D02*
X82112934Y-91624057D01*
X82112934Y-91624057D02*
X82193746Y-91597120D01*
X82193746Y-91597120D02*
X82247621Y-91597120D01*
X82247621Y-91597120D02*
X82328433Y-91624057D01*
X82328433Y-91624057D02*
X82409245Y-91704870D01*
X82409245Y-91704870D02*
X82436182Y-91785682D01*
X82436182Y-91785682D02*
X82436182Y-91839557D01*
X82436182Y-91839557D02*
X82409245Y-91920369D01*
X82409245Y-91920369D02*
X82193746Y-92135868D01*
X82490057Y-91354683D02*
X82490057Y-91300809D01*
X82490057Y-91300809D02*
X82516995Y-91219996D01*
X82516995Y-91219996D02*
X82651682Y-91085309D01*
X82651682Y-91085309D02*
X82732494Y-91058372D01*
X82732494Y-91058372D02*
X82786369Y-91058372D01*
X82786369Y-91058372D02*
X82867181Y-91085309D01*
X82867181Y-91085309D02*
X82921056Y-91139184D01*
X82921056Y-91139184D02*
X82974930Y-91246934D01*
X82974930Y-91246934D02*
X82974930Y-91893431D01*
X82974930Y-91893431D02*
X83325117Y-91543245D01*
X83109618Y-90627373D02*
X83163492Y-90573499D01*
X83163492Y-90573499D02*
X83244305Y-90546561D01*
X83244305Y-90546561D02*
X83298179Y-90546561D01*
X83298179Y-90546561D02*
X83378992Y-90573499D01*
X83378992Y-90573499D02*
X83513679Y-90654311D01*
X83513679Y-90654311D02*
X83648366Y-90788998D01*
X83648366Y-90788998D02*
X83729178Y-90923685D01*
X83729178Y-90923685D02*
X83756115Y-91004497D01*
X83756115Y-91004497D02*
X83756115Y-91058372D01*
X83756115Y-91058372D02*
X83729178Y-91139184D01*
X83729178Y-91139184D02*
X83675303Y-91193059D01*
X83675303Y-91193059D02*
X83594491Y-91219996D01*
X83594491Y-91219996D02*
X83540616Y-91219996D01*
X83540616Y-91219996D02*
X83459804Y-91193059D01*
X83459804Y-91193059D02*
X83325117Y-91112247D01*
X83325117Y-91112247D02*
X83190430Y-90977560D01*
X83190430Y-90977560D02*
X83109618Y-90842873D01*
X83109618Y-90842873D02*
X83082680Y-90762060D01*
X83082680Y-90762060D02*
X83082680Y-90708186D01*
X83082680Y-90708186D02*
X83109618Y-90627373D01*
X81755123Y-117465868D02*
X82105309Y-117115682D01*
X82105309Y-117115682D02*
X82132247Y-117519743D01*
X82132247Y-117519743D02*
X82213059Y-117438931D01*
X82213059Y-117438931D02*
X82293871Y-117411993D01*
X82293871Y-117411993D02*
X82347746Y-117411993D01*
X82347746Y-117411993D02*
X82428558Y-117438931D01*
X82428558Y-117438931D02*
X82563245Y-117573618D01*
X82563245Y-117573618D02*
X82590182Y-117654430D01*
X82590182Y-117654430D02*
X82590182Y-117708305D01*
X82590182Y-117708305D02*
X82563245Y-117789117D01*
X82563245Y-117789117D02*
X82401621Y-117950741D01*
X82401621Y-117950741D02*
X82320808Y-117977679D01*
X82320808Y-117977679D02*
X82266934Y-117977679D01*
X82266934Y-116954057D02*
X83021181Y-117331181D01*
X83021181Y-117331181D02*
X82644057Y-116576934D01*
X82778744Y-116442247D02*
X83128930Y-116092061D01*
X83128930Y-116092061D02*
X83155868Y-116496122D01*
X83155868Y-116496122D02*
X83236680Y-116415309D01*
X83236680Y-116415309D02*
X83317492Y-116388372D01*
X83317492Y-116388372D02*
X83371367Y-116388372D01*
X83371367Y-116388372D02*
X83452179Y-116415309D01*
X83452179Y-116415309D02*
X83586866Y-116549996D01*
X83586866Y-116549996D02*
X83613804Y-116630809D01*
X83613804Y-116630809D02*
X83613804Y-116684683D01*
X83613804Y-116684683D02*
X83586866Y-116765496D01*
X83586866Y-116765496D02*
X83425242Y-116927120D01*
X83425242Y-116927120D02*
X83344430Y-116954057D01*
X83344430Y-116954057D02*
X83290555Y-116954057D01*
X107778372Y-114726494D02*
X107697560Y-114753431D01*
X107697560Y-114753431D02*
X107616748Y-114834243D01*
X107616748Y-114834243D02*
X107562873Y-114941993D01*
X107562873Y-114941993D02*
X107562873Y-115049742D01*
X107562873Y-115049742D02*
X107589810Y-115130555D01*
X107589810Y-115130555D02*
X107670623Y-115265242D01*
X107670623Y-115265242D02*
X107751435Y-115346054D01*
X107751435Y-115346054D02*
X107886122Y-115426866D01*
X107886122Y-115426866D02*
X107966934Y-115453803D01*
X107966934Y-115453803D02*
X108074684Y-115453803D01*
X108074684Y-115453803D02*
X108182433Y-115399929D01*
X108182433Y-115399929D02*
X108236308Y-115346054D01*
X108236308Y-115346054D02*
X108290183Y-115238304D01*
X108290183Y-115238304D02*
X108290183Y-115184429D01*
X108290183Y-115184429D02*
X108101621Y-114995868D01*
X108101621Y-114995868D02*
X107993871Y-115103617D01*
X108586494Y-114995868D02*
X108020809Y-114430182D01*
X108020809Y-114430182D02*
X108236308Y-114214683D01*
X108236308Y-114214683D02*
X108317120Y-114187746D01*
X108317120Y-114187746D02*
X108370995Y-114187746D01*
X108370995Y-114187746D02*
X108451807Y-114214683D01*
X108451807Y-114214683D02*
X108532619Y-114295495D01*
X108532619Y-114295495D02*
X108559557Y-114376307D01*
X108559557Y-114376307D02*
X108559557Y-114430182D01*
X108559557Y-114430182D02*
X108532619Y-114510994D01*
X108532619Y-114510994D02*
X108317120Y-114726494D01*
X109017493Y-113810622D02*
X109394616Y-114187746D01*
X108667306Y-113729810D02*
X108936680Y-114268558D01*
X108936680Y-114268558D02*
X109286867Y-113918372D01*
X107778372Y-112186494D02*
X107697560Y-112213431D01*
X107697560Y-112213431D02*
X107616748Y-112294243D01*
X107616748Y-112294243D02*
X107562873Y-112401993D01*
X107562873Y-112401993D02*
X107562873Y-112509742D01*
X107562873Y-112509742D02*
X107589810Y-112590555D01*
X107589810Y-112590555D02*
X107670623Y-112725242D01*
X107670623Y-112725242D02*
X107751435Y-112806054D01*
X107751435Y-112806054D02*
X107886122Y-112886866D01*
X107886122Y-112886866D02*
X107966934Y-112913803D01*
X107966934Y-112913803D02*
X108074684Y-112913803D01*
X108074684Y-112913803D02*
X108182433Y-112859929D01*
X108182433Y-112859929D02*
X108236308Y-112806054D01*
X108236308Y-112806054D02*
X108290183Y-112698304D01*
X108290183Y-112698304D02*
X108290183Y-112644429D01*
X108290183Y-112644429D02*
X108101621Y-112455868D01*
X108101621Y-112455868D02*
X107993871Y-112563617D01*
X108586494Y-112455868D02*
X108020809Y-111890182D01*
X108020809Y-111890182D02*
X108236308Y-111674683D01*
X108236308Y-111674683D02*
X108317120Y-111647746D01*
X108317120Y-111647746D02*
X108370995Y-111647746D01*
X108370995Y-111647746D02*
X108451807Y-111674683D01*
X108451807Y-111674683D02*
X108532619Y-111755495D01*
X108532619Y-111755495D02*
X108559557Y-111836307D01*
X108559557Y-111836307D02*
X108559557Y-111890182D01*
X108559557Y-111890182D02*
X108532619Y-111970994D01*
X108532619Y-111970994D02*
X108317120Y-112186494D01*
X108855868Y-111055123D02*
X108586494Y-111324497D01*
X108586494Y-111324497D02*
X108828931Y-111620808D01*
X108828931Y-111620808D02*
X108828931Y-111566933D01*
X108828931Y-111566933D02*
X108855868Y-111486121D01*
X108855868Y-111486121D02*
X108990555Y-111351434D01*
X108990555Y-111351434D02*
X109071367Y-111324497D01*
X109071367Y-111324497D02*
X109125242Y-111324497D01*
X109125242Y-111324497D02*
X109206054Y-111351434D01*
X109206054Y-111351434D02*
X109340741Y-111486121D01*
X109340741Y-111486121D02*
X109367679Y-111566933D01*
X109367679Y-111566933D02*
X109367679Y-111620808D01*
X109367679Y-111620808D02*
X109340741Y-111701620D01*
X109340741Y-111701620D02*
X109206054Y-111836307D01*
X109206054Y-111836307D02*
X109125242Y-111863245D01*
X109125242Y-111863245D02*
X109071367Y-111863245D01*
X107751435Y-96973431D02*
X107670623Y-97000368D01*
X107670623Y-97000368D02*
X107589811Y-97081180D01*
X107589811Y-97081180D02*
X107535936Y-97188930D01*
X107535936Y-97188930D02*
X107535936Y-97296680D01*
X107535936Y-97296680D02*
X107562873Y-97377492D01*
X107562873Y-97377492D02*
X107643685Y-97512179D01*
X107643685Y-97512179D02*
X107724498Y-97592991D01*
X107724498Y-97592991D02*
X107859185Y-97673803D01*
X107859185Y-97673803D02*
X107939997Y-97700741D01*
X107939997Y-97700741D02*
X108047746Y-97700741D01*
X108047746Y-97700741D02*
X108155496Y-97646866D01*
X108155496Y-97646866D02*
X108209371Y-97592991D01*
X108209371Y-97592991D02*
X108263246Y-97485241D01*
X108263246Y-97485241D02*
X108263246Y-97431367D01*
X108263246Y-97431367D02*
X108074684Y-97242805D01*
X108074684Y-97242805D02*
X107966934Y-97350554D01*
X108559557Y-97242805D02*
X107993872Y-96677119D01*
X107993872Y-96677119D02*
X108882806Y-96919556D01*
X108882806Y-96919556D02*
X108317120Y-96353871D01*
X109152180Y-96650182D02*
X108586494Y-96084497D01*
X108586494Y-96084497D02*
X108721181Y-95949810D01*
X108721181Y-95949810D02*
X108828931Y-95895935D01*
X108828931Y-95895935D02*
X108936680Y-95895935D01*
X108936680Y-95895935D02*
X109017493Y-95922872D01*
X109017493Y-95922872D02*
X109152180Y-96003685D01*
X109152180Y-96003685D02*
X109232992Y-96084497D01*
X109232992Y-96084497D02*
X109313804Y-96219184D01*
X109313804Y-96219184D02*
X109340741Y-96299996D01*
X109340741Y-96299996D02*
X109340741Y-96407746D01*
X109340741Y-96407746D02*
X109286867Y-96515495D01*
X109286867Y-96515495D02*
X109152180Y-96650182D01*
X81654998Y-81975868D02*
X81574185Y-82002805D01*
X81574185Y-82002805D02*
X81493373Y-82083618D01*
X81493373Y-82083618D02*
X81439498Y-82191367D01*
X81439498Y-82191367D02*
X81439498Y-82299117D01*
X81439498Y-82299117D02*
X81466436Y-82379929D01*
X81466436Y-82379929D02*
X81547248Y-82514616D01*
X81547248Y-82514616D02*
X81628060Y-82595428D01*
X81628060Y-82595428D02*
X81762747Y-82676241D01*
X81762747Y-82676241D02*
X81843560Y-82703178D01*
X81843560Y-82703178D02*
X81951309Y-82703178D01*
X81951309Y-82703178D02*
X82059059Y-82649303D01*
X82059059Y-82649303D02*
X82112934Y-82595428D01*
X82112934Y-82595428D02*
X82166808Y-82487679D01*
X82166808Y-82487679D02*
X82166808Y-82433804D01*
X82166808Y-82433804D02*
X81978247Y-82245242D01*
X81978247Y-82245242D02*
X81870497Y-82352992D01*
X82463120Y-82245242D02*
X81897434Y-81679557D01*
X81897434Y-81679557D02*
X82112934Y-81464057D01*
X82112934Y-81464057D02*
X82193746Y-81437120D01*
X82193746Y-81437120D02*
X82247621Y-81437120D01*
X82247621Y-81437120D02*
X82328433Y-81464057D01*
X82328433Y-81464057D02*
X82409245Y-81544870D01*
X82409245Y-81544870D02*
X82436182Y-81625682D01*
X82436182Y-81625682D02*
X82436182Y-81679557D01*
X82436182Y-81679557D02*
X82409245Y-81760369D01*
X82409245Y-81760369D02*
X82193746Y-81975868D01*
X83325117Y-81383245D02*
X83001868Y-81706494D01*
X83163492Y-81544870D02*
X82597807Y-80979184D01*
X82597807Y-80979184D02*
X82624744Y-81113871D01*
X82624744Y-81113871D02*
X82624744Y-81221621D01*
X82624744Y-81221621D02*
X82597807Y-81302433D01*
X82947993Y-80628998D02*
X83325117Y-80251874D01*
X83325117Y-80251874D02*
X83648366Y-81059996D01*
X107762998Y-94675868D02*
X107682185Y-94702805D01*
X107682185Y-94702805D02*
X107601373Y-94783618D01*
X107601373Y-94783618D02*
X107547498Y-94891367D01*
X107547498Y-94891367D02*
X107547498Y-94999117D01*
X107547498Y-94999117D02*
X107574436Y-95079929D01*
X107574436Y-95079929D02*
X107655248Y-95214616D01*
X107655248Y-95214616D02*
X107736060Y-95295428D01*
X107736060Y-95295428D02*
X107870747Y-95376241D01*
X107870747Y-95376241D02*
X107951560Y-95403178D01*
X107951560Y-95403178D02*
X108059309Y-95403178D01*
X108059309Y-95403178D02*
X108167059Y-95349303D01*
X108167059Y-95349303D02*
X108220934Y-95295428D01*
X108220934Y-95295428D02*
X108274808Y-95187679D01*
X108274808Y-95187679D02*
X108274808Y-95133804D01*
X108274808Y-95133804D02*
X108086247Y-94945242D01*
X108086247Y-94945242D02*
X107978497Y-95052992D01*
X108571120Y-94945242D02*
X108005434Y-94379557D01*
X108005434Y-94379557D02*
X108220934Y-94164057D01*
X108220934Y-94164057D02*
X108301746Y-94137120D01*
X108301746Y-94137120D02*
X108355621Y-94137120D01*
X108355621Y-94137120D02*
X108436433Y-94164057D01*
X108436433Y-94164057D02*
X108517245Y-94244870D01*
X108517245Y-94244870D02*
X108544182Y-94325682D01*
X108544182Y-94325682D02*
X108544182Y-94379557D01*
X108544182Y-94379557D02*
X108517245Y-94460369D01*
X108517245Y-94460369D02*
X108301746Y-94675868D01*
X109433117Y-94083245D02*
X109109868Y-94406494D01*
X109271492Y-94244870D02*
X108705807Y-93679184D01*
X108705807Y-93679184D02*
X108732744Y-93813871D01*
X108732744Y-93813871D02*
X108732744Y-93921621D01*
X108732744Y-93921621D02*
X108705807Y-94002433D01*
X109217618Y-93167373D02*
X109271492Y-93113499D01*
X109271492Y-93113499D02*
X109352305Y-93086561D01*
X109352305Y-93086561D02*
X109406179Y-93086561D01*
X109406179Y-93086561D02*
X109486992Y-93113499D01*
X109486992Y-93113499D02*
X109621679Y-93194311D01*
X109621679Y-93194311D02*
X109756366Y-93328998D01*
X109756366Y-93328998D02*
X109837178Y-93463685D01*
X109837178Y-93463685D02*
X109864115Y-93544497D01*
X109864115Y-93544497D02*
X109864115Y-93598372D01*
X109864115Y-93598372D02*
X109837178Y-93679184D01*
X109837178Y-93679184D02*
X109783303Y-93733059D01*
X109783303Y-93733059D02*
X109702491Y-93759996D01*
X109702491Y-93759996D02*
X109648616Y-93759996D01*
X109648616Y-93759996D02*
X109567804Y-93733059D01*
X109567804Y-93733059D02*
X109433117Y-93652247D01*
X109433117Y-93652247D02*
X109298430Y-93517560D01*
X109298430Y-93517560D02*
X109217618Y-93382873D01*
X109217618Y-93382873D02*
X109190680Y-93302060D01*
X109190680Y-93302060D02*
X109190680Y-93248186D01*
X109190680Y-93248186D02*
X109217618Y-93167373D01*
X82151435Y-122373431D02*
X82070623Y-122400368D01*
X82070623Y-122400368D02*
X81989811Y-122481180D01*
X81989811Y-122481180D02*
X81935936Y-122588930D01*
X81935936Y-122588930D02*
X81935936Y-122696680D01*
X81935936Y-122696680D02*
X81962873Y-122777492D01*
X81962873Y-122777492D02*
X82043685Y-122912179D01*
X82043685Y-122912179D02*
X82124498Y-122992991D01*
X82124498Y-122992991D02*
X82259185Y-123073803D01*
X82259185Y-123073803D02*
X82339997Y-123100741D01*
X82339997Y-123100741D02*
X82447746Y-123100741D01*
X82447746Y-123100741D02*
X82555496Y-123046866D01*
X82555496Y-123046866D02*
X82609371Y-122992991D01*
X82609371Y-122992991D02*
X82663246Y-122885241D01*
X82663246Y-122885241D02*
X82663246Y-122831367D01*
X82663246Y-122831367D02*
X82474684Y-122642805D01*
X82474684Y-122642805D02*
X82366934Y-122750554D01*
X82959557Y-122642805D02*
X82393872Y-122077119D01*
X82393872Y-122077119D02*
X83282806Y-122319556D01*
X83282806Y-122319556D02*
X82717120Y-121753871D01*
X83552180Y-122050182D02*
X82986494Y-121484497D01*
X82986494Y-121484497D02*
X83121181Y-121349810D01*
X83121181Y-121349810D02*
X83228931Y-121295935D01*
X83228931Y-121295935D02*
X83336680Y-121295935D01*
X83336680Y-121295935D02*
X83417493Y-121322872D01*
X83417493Y-121322872D02*
X83552180Y-121403685D01*
X83552180Y-121403685D02*
X83632992Y-121484497D01*
X83632992Y-121484497D02*
X83713804Y-121619184D01*
X83713804Y-121619184D02*
X83740741Y-121699996D01*
X83740741Y-121699996D02*
X83740741Y-121807746D01*
X83740741Y-121807746D02*
X83686867Y-121915495D01*
X83686867Y-121915495D02*
X83552180Y-122050182D01*
X107751435Y-84273431D02*
X107670623Y-84300368D01*
X107670623Y-84300368D02*
X107589811Y-84381180D01*
X107589811Y-84381180D02*
X107535936Y-84488930D01*
X107535936Y-84488930D02*
X107535936Y-84596680D01*
X107535936Y-84596680D02*
X107562873Y-84677492D01*
X107562873Y-84677492D02*
X107643685Y-84812179D01*
X107643685Y-84812179D02*
X107724498Y-84892991D01*
X107724498Y-84892991D02*
X107859185Y-84973803D01*
X107859185Y-84973803D02*
X107939997Y-85000741D01*
X107939997Y-85000741D02*
X108047746Y-85000741D01*
X108047746Y-85000741D02*
X108155496Y-84946866D01*
X108155496Y-84946866D02*
X108209371Y-84892991D01*
X108209371Y-84892991D02*
X108263246Y-84785241D01*
X108263246Y-84785241D02*
X108263246Y-84731367D01*
X108263246Y-84731367D02*
X108074684Y-84542805D01*
X108074684Y-84542805D02*
X107966934Y-84650554D01*
X108559557Y-84542805D02*
X107993872Y-83977119D01*
X107993872Y-83977119D02*
X108882806Y-84219556D01*
X108882806Y-84219556D02*
X108317120Y-83653871D01*
X109152180Y-83950182D02*
X108586494Y-83384497D01*
X108586494Y-83384497D02*
X108721181Y-83249810D01*
X108721181Y-83249810D02*
X108828931Y-83195935D01*
X108828931Y-83195935D02*
X108936680Y-83195935D01*
X108936680Y-83195935D02*
X109017493Y-83222872D01*
X109017493Y-83222872D02*
X109152180Y-83303685D01*
X109152180Y-83303685D02*
X109232992Y-83384497D01*
X109232992Y-83384497D02*
X109313804Y-83519184D01*
X109313804Y-83519184D02*
X109340741Y-83599996D01*
X109340741Y-83599996D02*
X109340741Y-83707746D01*
X109340741Y-83707746D02*
X109286867Y-83815495D01*
X109286867Y-83815495D02*
X109152180Y-83950182D01*
X107808998Y-81975868D02*
X107728185Y-82002805D01*
X107728185Y-82002805D02*
X107647373Y-82083618D01*
X107647373Y-82083618D02*
X107593498Y-82191367D01*
X107593498Y-82191367D02*
X107593498Y-82299117D01*
X107593498Y-82299117D02*
X107620436Y-82379929D01*
X107620436Y-82379929D02*
X107701248Y-82514616D01*
X107701248Y-82514616D02*
X107782060Y-82595428D01*
X107782060Y-82595428D02*
X107916747Y-82676241D01*
X107916747Y-82676241D02*
X107997560Y-82703178D01*
X107997560Y-82703178D02*
X108105309Y-82703178D01*
X108105309Y-82703178D02*
X108213059Y-82649303D01*
X108213059Y-82649303D02*
X108266934Y-82595428D01*
X108266934Y-82595428D02*
X108320808Y-82487679D01*
X108320808Y-82487679D02*
X108320808Y-82433804D01*
X108320808Y-82433804D02*
X108132247Y-82245242D01*
X108132247Y-82245242D02*
X108024497Y-82352992D01*
X108617120Y-82245242D02*
X108051434Y-81679557D01*
X108051434Y-81679557D02*
X108266934Y-81464057D01*
X108266934Y-81464057D02*
X108347746Y-81437120D01*
X108347746Y-81437120D02*
X108401621Y-81437120D01*
X108401621Y-81437120D02*
X108482433Y-81464057D01*
X108482433Y-81464057D02*
X108563245Y-81544870D01*
X108563245Y-81544870D02*
X108590182Y-81625682D01*
X108590182Y-81625682D02*
X108590182Y-81679557D01*
X108590182Y-81679557D02*
X108563245Y-81760369D01*
X108563245Y-81760369D02*
X108347746Y-81975868D01*
X109479117Y-81383245D02*
X109155868Y-81706494D01*
X109317492Y-81544870D02*
X108751807Y-80979184D01*
X108751807Y-80979184D02*
X108778744Y-81113871D01*
X108778744Y-81113871D02*
X108778744Y-81221621D01*
X108778744Y-81221621D02*
X108751807Y-81302433D01*
X109586866Y-80521248D02*
X109963990Y-80898372D01*
X109236680Y-80440436D02*
X109506054Y-80979184D01*
X109506054Y-80979184D02*
X109856240Y-80628998D01*
X107878372Y-124896494D02*
X107797560Y-124923431D01*
X107797560Y-124923431D02*
X107716748Y-125004243D01*
X107716748Y-125004243D02*
X107662873Y-125111993D01*
X107662873Y-125111993D02*
X107662873Y-125219742D01*
X107662873Y-125219742D02*
X107689810Y-125300555D01*
X107689810Y-125300555D02*
X107770623Y-125435242D01*
X107770623Y-125435242D02*
X107851435Y-125516054D01*
X107851435Y-125516054D02*
X107986122Y-125596866D01*
X107986122Y-125596866D02*
X108066934Y-125623803D01*
X108066934Y-125623803D02*
X108174684Y-125623803D01*
X108174684Y-125623803D02*
X108282433Y-125569929D01*
X108282433Y-125569929D02*
X108336308Y-125516054D01*
X108336308Y-125516054D02*
X108390183Y-125408304D01*
X108390183Y-125408304D02*
X108390183Y-125354429D01*
X108390183Y-125354429D02*
X108201621Y-125165868D01*
X108201621Y-125165868D02*
X108093871Y-125273617D01*
X108686494Y-125165868D02*
X108120809Y-124600182D01*
X108120809Y-124600182D02*
X108336308Y-124384683D01*
X108336308Y-124384683D02*
X108417120Y-124357746D01*
X108417120Y-124357746D02*
X108470995Y-124357746D01*
X108470995Y-124357746D02*
X108551807Y-124384683D01*
X108551807Y-124384683D02*
X108632619Y-124465495D01*
X108632619Y-124465495D02*
X108659557Y-124546307D01*
X108659557Y-124546307D02*
X108659557Y-124600182D01*
X108659557Y-124600182D02*
X108632619Y-124680994D01*
X108632619Y-124680994D02*
X108417120Y-124896494D01*
X109548491Y-124303871D02*
X109225242Y-124627120D01*
X109386867Y-124465495D02*
X108821181Y-123899810D01*
X108821181Y-123899810D02*
X108848119Y-124034497D01*
X108848119Y-124034497D02*
X108848119Y-124142246D01*
X108848119Y-124142246D02*
X108821181Y-124223059D01*
X107908998Y-89595868D02*
X107828185Y-89622805D01*
X107828185Y-89622805D02*
X107747373Y-89703618D01*
X107747373Y-89703618D02*
X107693498Y-89811367D01*
X107693498Y-89811367D02*
X107693498Y-89919117D01*
X107693498Y-89919117D02*
X107720436Y-89999929D01*
X107720436Y-89999929D02*
X107801248Y-90134616D01*
X107801248Y-90134616D02*
X107882060Y-90215428D01*
X107882060Y-90215428D02*
X108016747Y-90296241D01*
X108016747Y-90296241D02*
X108097560Y-90323178D01*
X108097560Y-90323178D02*
X108205309Y-90323178D01*
X108205309Y-90323178D02*
X108313059Y-90269303D01*
X108313059Y-90269303D02*
X108366934Y-90215428D01*
X108366934Y-90215428D02*
X108420808Y-90107679D01*
X108420808Y-90107679D02*
X108420808Y-90053804D01*
X108420808Y-90053804D02*
X108232247Y-89865242D01*
X108232247Y-89865242D02*
X108124497Y-89972992D01*
X108717120Y-89865242D02*
X108151434Y-89299557D01*
X108151434Y-89299557D02*
X108366934Y-89084057D01*
X108366934Y-89084057D02*
X108447746Y-89057120D01*
X108447746Y-89057120D02*
X108501621Y-89057120D01*
X108501621Y-89057120D02*
X108582433Y-89084057D01*
X108582433Y-89084057D02*
X108663245Y-89164870D01*
X108663245Y-89164870D02*
X108690182Y-89245682D01*
X108690182Y-89245682D02*
X108690182Y-89299557D01*
X108690182Y-89299557D02*
X108663245Y-89380369D01*
X108663245Y-89380369D02*
X108447746Y-89595868D01*
X109579117Y-89003245D02*
X109255868Y-89326494D01*
X109417492Y-89164870D02*
X108851807Y-88599184D01*
X108851807Y-88599184D02*
X108878744Y-88733871D01*
X108878744Y-88733871D02*
X108878744Y-88841621D01*
X108878744Y-88841621D02*
X108851807Y-88922433D01*
X109282805Y-88275935D02*
X109282805Y-88222060D01*
X109282805Y-88222060D02*
X109309743Y-88141248D01*
X109309743Y-88141248D02*
X109444430Y-88006561D01*
X109444430Y-88006561D02*
X109525242Y-87979624D01*
X109525242Y-87979624D02*
X109579117Y-87979624D01*
X109579117Y-87979624D02*
X109659929Y-88006561D01*
X109659929Y-88006561D02*
X109713804Y-88060436D01*
X109713804Y-88060436D02*
X109767679Y-88168186D01*
X109767679Y-88168186D02*
X109767679Y-88814683D01*
X109767679Y-88814683D02*
X110117865Y-88464497D01*
X74763333Y-70954819D02*
X74430000Y-70478628D01*
X74191905Y-70954819D02*
X74191905Y-69954819D01*
X74191905Y-69954819D02*
X74572857Y-69954819D01*
X74572857Y-69954819D02*
X74668095Y-70002438D01*
X74668095Y-70002438D02*
X74715714Y-70050057D01*
X74715714Y-70050057D02*
X74763333Y-70145295D01*
X74763333Y-70145295D02*
X74763333Y-70288152D01*
X74763333Y-70288152D02*
X74715714Y-70383390D01*
X74715714Y-70383390D02*
X74668095Y-70431009D01*
X74668095Y-70431009D02*
X74572857Y-70478628D01*
X74572857Y-70478628D02*
X74191905Y-70478628D01*
X75620476Y-70288152D02*
X75620476Y-70954819D01*
X75382381Y-69907200D02*
X75144286Y-70621485D01*
X75144286Y-70621485D02*
X75763333Y-70621485D01*
X73493333Y-63334819D02*
X73160000Y-62858628D01*
X72921905Y-63334819D02*
X72921905Y-62334819D01*
X72921905Y-62334819D02*
X73302857Y-62334819D01*
X73302857Y-62334819D02*
X73398095Y-62382438D01*
X73398095Y-62382438D02*
X73445714Y-62430057D01*
X73445714Y-62430057D02*
X73493333Y-62525295D01*
X73493333Y-62525295D02*
X73493333Y-62668152D01*
X73493333Y-62668152D02*
X73445714Y-62763390D01*
X73445714Y-62763390D02*
X73398095Y-62811009D01*
X73398095Y-62811009D02*
X73302857Y-62858628D01*
X73302857Y-62858628D02*
X72921905Y-62858628D01*
X73826667Y-62334819D02*
X74445714Y-62334819D01*
X74445714Y-62334819D02*
X74112381Y-62715771D01*
X74112381Y-62715771D02*
X74255238Y-62715771D01*
X74255238Y-62715771D02*
X74350476Y-62763390D01*
X74350476Y-62763390D02*
X74398095Y-62811009D01*
X74398095Y-62811009D02*
X74445714Y-62906247D01*
X74445714Y-62906247D02*
X74445714Y-63144342D01*
X74445714Y-63144342D02*
X74398095Y-63239580D01*
X74398095Y-63239580D02*
X74350476Y-63287200D01*
X74350476Y-63287200D02*
X74255238Y-63334819D01*
X74255238Y-63334819D02*
X73969524Y-63334819D01*
X73969524Y-63334819D02*
X73874286Y-63287200D01*
X73874286Y-63287200D02*
X73826667Y-63239580D01*
D12*
%TO.C,R2*%
X116510000Y-114440000D02*
X117460000Y-114440000D01*
X117460000Y-113520000D02*
X117460000Y-115360000D01*
X117460000Y-115360000D02*
X121300000Y-115360000D01*
X121300000Y-113520000D02*
X117460000Y-113520000D01*
X121300000Y-115360000D02*
X121300000Y-113520000D01*
X122250000Y-114440000D02*
X121300000Y-114440000D01*
%TO.C,R1*%
X122250000Y-109220000D02*
X121300000Y-109220000D01*
X121300000Y-110140000D02*
X121300000Y-108300000D01*
X121300000Y-108300000D02*
X117460000Y-108300000D01*
X117460000Y-110140000D02*
X121300000Y-110140000D01*
X117460000Y-108300000D02*
X117460000Y-110140000D01*
X116510000Y-109220000D02*
X117460000Y-109220000D01*
%TO.C,U4*%
X92600000Y-59630000D02*
X92600000Y-69910000D01*
X92600000Y-69910000D02*
X97900000Y-69910000D01*
X94250000Y-59630000D02*
X92600000Y-59630000D01*
X97900000Y-59630000D02*
X96250000Y-59630000D01*
X97900000Y-69910000D02*
X97900000Y-59630000D01*
X96250000Y-59630000D02*
G75*
G02*
X94250000Y-59630000I-1000000J0D01*
G01*
%TO.C,U2*%
D11*
X80520000Y-48850000D02*
X112520000Y-48850000D01*
X112520000Y-27350000D01*
X80520000Y-27350000D01*
X80520000Y-48850000D01*
D12*
%TO.C,U1*%
X106165000Y-128675000D02*
X106165000Y-128375000D01*
X106165000Y-128675000D02*
X85165000Y-128675000D01*
X106165000Y-126275000D02*
X106165000Y-125875000D01*
X106165000Y-126008000D02*
X103158000Y-126008000D01*
X106165000Y-123675000D02*
X106165000Y-123275000D01*
X106165000Y-121175000D02*
X106165000Y-120775000D01*
X106165000Y-118575000D02*
X106165000Y-118175000D01*
X106165000Y-116075000D02*
X106165000Y-115675000D01*
X106165000Y-113575000D02*
X106165000Y-113175000D01*
X106165000Y-110975000D02*
X106165000Y-110575000D01*
X106165000Y-108475000D02*
X106165000Y-108075000D01*
X106165000Y-105875000D02*
X106165000Y-105475000D01*
X106165000Y-103375000D02*
X106165000Y-102975000D01*
X106165000Y-100875000D02*
X106165000Y-100475000D01*
X106165000Y-98275000D02*
X106165000Y-97875000D01*
X106165000Y-95775000D02*
X106165000Y-95375000D01*
X106165000Y-93175000D02*
X106165000Y-92775000D01*
X106165000Y-90675000D02*
X106165000Y-90275000D01*
X106165000Y-88075000D02*
X106165000Y-87675000D01*
X106165000Y-85575000D02*
X106165000Y-85175000D01*
X106165000Y-83075000D02*
X106165000Y-82675000D01*
X106165000Y-80475000D02*
X106165000Y-80075000D01*
X103158000Y-126008000D02*
X103158000Y-128675000D01*
X99365000Y-77675000D02*
X106165000Y-77675000D01*
X97165000Y-77675000D02*
X96765000Y-77675000D01*
X94565000Y-77675000D02*
X94165000Y-77675000D01*
X85165000Y-128675000D02*
X85165000Y-128375000D01*
X85165000Y-126275000D02*
X85165000Y-125875000D01*
X85165000Y-123675000D02*
X85165000Y-123275000D01*
X85165000Y-121175000D02*
X85165000Y-120775000D01*
X85165000Y-118575000D02*
X85165000Y-118175000D01*
X85165000Y-116075000D02*
X85165000Y-115675000D01*
X85165000Y-113575000D02*
X85165000Y-113175000D01*
X85165000Y-110975000D02*
X85165000Y-110575000D01*
X85165000Y-108475000D02*
X85165000Y-108075000D01*
X85165000Y-105875000D02*
X85165000Y-105475000D01*
X85165000Y-103375000D02*
X85165000Y-102975000D01*
X85165000Y-100875000D02*
X85165000Y-100475000D01*
X85165000Y-98275000D02*
X85165000Y-97875000D01*
X85165000Y-95775000D02*
X85165000Y-95375000D01*
X85165000Y-93175000D02*
X85165000Y-92775000D01*
X85165000Y-90675000D02*
X85165000Y-90275000D01*
X85165000Y-88075000D02*
X85165000Y-87675000D01*
X85165000Y-85575000D02*
X85165000Y-85175000D01*
X85165000Y-83075000D02*
X85165000Y-82675000D01*
X85165000Y-80475000D02*
X85165000Y-80075000D01*
X85165000Y-77675000D02*
X91965000Y-77675000D01*
D11*
X99365000Y-128075000D02*
X91965000Y-128075000D01*
X91965000Y-123375000D01*
X99365000Y-123375000D01*
X99365000Y-128075000D01*
D12*
%TO.C,R4*%
X77800000Y-68580000D02*
X76850000Y-68580000D01*
X76850000Y-69500000D02*
X76850000Y-67660000D01*
X76850000Y-67660000D02*
X73010000Y-67660000D01*
X73010000Y-69500000D02*
X76850000Y-69500000D01*
X73010000Y-67660000D02*
X73010000Y-69500000D01*
X72060000Y-68580000D02*
X73010000Y-68580000D01*
%TO.C,R3*%
X76530000Y-60960000D02*
X75580000Y-60960000D01*
X75580000Y-61880000D02*
X75580000Y-60040000D01*
X75580000Y-60040000D02*
X71740000Y-60040000D01*
X71740000Y-61880000D02*
X75580000Y-61880000D01*
X71740000Y-60040000D02*
X71740000Y-61880000D01*
X70790000Y-60960000D02*
X71740000Y-60960000D01*
%TD*%
M02*
