%TF.GenerationSoftware,KiCad,Pcbnew,9.0.1*%
%TF.CreationDate,2025-11-17T14:23:56+09:00*%
%TF.ProjectId,RasPiMulti_test,52617350-694d-4756-9c74-695f74657374,rev?*%
%TF.SameCoordinates,Original*%
%TF.FileFunction,Copper,L1,Top*%
%TF.FilePolarity,Positive*%
%FSLAX46Y46*%
G04 Gerber Fmt 4.6, Leading zero omitted, Abs format (unit mm)*
G04 Created by KiCad (PCBNEW 9.0.1) date 2025-11-17 14:23:56*
%MOMM*%
%LPD*%
G01*
G04 APERTURE LIST*
G04 Aperture macros list*
%AMRoundRect*
0 Rectangle with rounded corners*
0 $1 Rounding radius*
0 $2 $3 $4 $5 $6 $7 $8 $9 X,Y pos of 4 corners*
0 Add a 4 corners polygon primitive as box body*
4,1,4,$2,$3,$4,$5,$6,$7,$8,$9,$2,$3,0*
0 Add four circle primitives for the rounded corners*
1,1,$1+$1,$2,$3*
1,1,$1+$1,$4,$5*
1,1,$1+$1,$6,$7*
1,1,$1+$1,$8,$9*
0 Add four rect primitives between the rounded corners*
20,1,$1+$1,$2,$3,$4,$5,0*
20,1,$1+$1,$4,$5,$6,$7,0*
20,1,$1+$1,$6,$7,$8,$9,0*
20,1,$1+$1,$8,$9,$2,$3,0*%
G04 Aperture macros list end*
%TA.AperFunction,ComponentPad*%
%ADD10C,1.400000*%
%TD*%
%TA.AperFunction,ComponentPad*%
%ADD11O,1.400000X1.400000*%
%TD*%
%TA.AperFunction,ComponentPad*%
%ADD12RoundRect,0.250000X-0.550000X-0.550000X0.550000X-0.550000X0.550000X0.550000X-0.550000X0.550000X0*%
%TD*%
%TA.AperFunction,ComponentPad*%
%ADD13C,1.600000*%
%TD*%
%TA.AperFunction,ComponentPad*%
%ADD14C,1.905000*%
%TD*%
%TA.AperFunction,ComponentPad*%
%ADD15O,1.700000X1.700000*%
%TD*%
%TA.AperFunction,ComponentPad*%
%ADD16R,1.700000X1.700000*%
%TD*%
G04 APERTURE END LIST*
D10*
%TO.P,R2,1*%
%TO.N,SDA*%
X115570000Y-114440000D03*
D11*
%TO.P,R2,2*%
%TO.N,VCC*%
X123190000Y-114440000D03*
%TD*%
%TO.P,R1,2*%
%TO.N,VCC*%
X123190000Y-109220000D03*
D10*
%TO.P,R1,1*%
%TO.N,SCL*%
X115570000Y-109220000D03*
%TD*%
D12*
%TO.P,U4,1,Vin*%
%TO.N,VCC*%
X91440000Y-60960000D03*
D13*
%TO.P,U4,2,GND*%
%TO.N,GND*%
X91440000Y-63500000D03*
%TO.P,U4,3,SDA*%
%TO.N,Net-(U2-SD1)*%
X91440000Y-66040000D03*
%TO.P,U4,4,SCL*%
%TO.N,Net-(U2-SC1)*%
X91440000Y-68580000D03*
%TO.P,U4,5,Vout*%
%TO.N,unconnected-(U4-Vout-Pad5)*%
X99060000Y-68580000D03*
%TO.P,U4,6,GND*%
%TO.N,unconnected-(U4-GND-Pad6)*%
X99060000Y-66040000D03*
%TO.P,U4,7,INT*%
%TO.N,unconnected-(U4-INT-Pad7)*%
X99060000Y-63500000D03*
%TO.P,U4,8,RST*%
%TO.N,unconnected-(U4-RST-Pad8)*%
X99060000Y-60960000D03*
%TD*%
D14*
%TO.P,U2,1,A0*%
%TO.N,GND*%
X95400000Y-46880000D03*
%TO.P,U2,2,A1*%
X97940000Y-46880000D03*
%TO.P,U2,3,RST*%
%TO.N,unconnected-(U2-RST-Pad3)*%
X92860000Y-46880000D03*
%TO.P,U2,4,SD0*%
%TO.N,unconnected-(U2-SD0-Pad4)*%
X103020000Y-46880000D03*
%TO.P,U2,5,SC0*%
%TO.N,unconnected-(U2-SC0-Pad5)*%
X105560000Y-46880000D03*
%TO.P,U2,6,SD1*%
%TO.N,Net-(U2-SD1)*%
X108100000Y-46880000D03*
%TO.P,U2,7,SC1*%
%TO.N,Net-(U2-SC1)*%
X110640000Y-46880000D03*
%TO.P,U2,8,SD2*%
%TO.N,unconnected-(U2-SD2-Pad8)*%
X110640000Y-29100000D03*
%TO.P,U2,9,SC2*%
%TO.N,unconnected-(U2-SC2-Pad9)*%
X108100000Y-29100000D03*
%TO.P,U2,10,SD3*%
%TO.N,unconnected-(U2-SD3-Pad10)*%
X105560000Y-29100000D03*
%TO.P,U2,11,SC3*%
%TO.N,unconnected-(U2-SC3-Pad11)*%
X103020000Y-29100000D03*
%TO.P,U2,12,GND*%
%TO.N,GND*%
X85240000Y-46880000D03*
%TO.P,U2,13,SD4*%
%TO.N,unconnected-(U2-SD4-Pad13)*%
X100480000Y-29100000D03*
%TO.P,U2,14,SC4*%
%TO.N,unconnected-(U2-SC4-Pad14)*%
X97940000Y-29100000D03*
%TO.P,U2,15,SD5*%
%TO.N,unconnected-(U2-SD5-Pad15)*%
X95400000Y-29100000D03*
%TO.P,U2,16,SC5*%
%TO.N,unconnected-(U2-SC5-Pad16)*%
X92860000Y-29100000D03*
%TO.P,U2,17,SD6*%
%TO.N,unconnected-(U2-SD6-Pad17)*%
X90320000Y-29100000D03*
%TO.P,U2,18,SC6*%
%TO.N,unconnected-(U2-SC6-Pad18)*%
X87780000Y-29100000D03*
%TO.P,U2,19,SD7*%
%TO.N,unconnected-(U2-SD7-Pad19)*%
X85240000Y-29100000D03*
%TO.P,U2,20,SC7*%
%TO.N,unconnected-(U2-SC7-Pad20)*%
X82700000Y-29100000D03*
%TO.P,U2,21,A2*%
%TO.N,GND*%
X100480000Y-46880000D03*
%TO.P,U2,22,SCL*%
%TO.N,SCL*%
X90320000Y-46880000D03*
%TO.P,U2,23,SDA*%
%TO.N,SDA*%
X87780000Y-46880000D03*
%TO.P,U2,24,VIN*%
%TO.N,VCC*%
X82700000Y-46880000D03*
%TD*%
D15*
%TO.P,U1,1,GPIO0*%
%TO.N,unconnected-(U1-GPIO0-Pad1)*%
X104555000Y-127305000D03*
%TO.P,U1,2,GPIO1*%
%TO.N,unconnected-(U1-GPIO1-Pad2)*%
X104555000Y-124765000D03*
D16*
%TO.P,U1,3,GND*%
%TO.N,unconnected-(U1-GND-Pad3)*%
X104555000Y-122225000D03*
D15*
%TO.P,U1,4,GPIO2*%
%TO.N,unconnected-(U1-GPIO2-Pad4)*%
X104555000Y-119685000D03*
%TO.P,U1,5,GPIO3*%
%TO.N,unconnected-(U1-GPIO3-Pad5)*%
X104555000Y-117145000D03*
%TO.P,U1,6,GPIO4*%
%TO.N,SDA*%
X104555000Y-114605000D03*
%TO.P,U1,7,GPIO5*%
%TO.N,SCL*%
X104555000Y-112065000D03*
D16*
%TO.P,U1,8,GND*%
%TO.N,unconnected-(U1-GND-Pad8)*%
X104555000Y-109525000D03*
D15*
%TO.P,U1,9,GPIO6*%
%TO.N,unconnected-(U1-GPIO6-Pad9)*%
X104555000Y-106985000D03*
%TO.P,U1,10,GPIO7*%
%TO.N,unconnected-(U1-GPIO7-Pad10)*%
X104555000Y-104445000D03*
%TO.P,U1,11,GPIO8*%
%TO.N,unconnected-(U1-GPIO8-Pad11)*%
X104555000Y-101905000D03*
%TO.P,U1,12,GPIO9*%
%TO.N,unconnected-(U1-GPIO9-Pad12)*%
X104555000Y-99365000D03*
D16*
%TO.P,U1,13,GND*%
%TO.N,unconnected-(U1-GND-Pad13)*%
X104555000Y-96825000D03*
D15*
%TO.P,U1,14,GPIO10*%
%TO.N,unconnected-(U1-GPIO10-Pad14)*%
X104555000Y-94285000D03*
%TO.P,U1,15,GPIO11*%
%TO.N,unconnected-(U1-GPIO11-Pad15)*%
X104555000Y-91745000D03*
%TO.P,U1,16,GPIO12*%
%TO.N,unconnected-(U1-GPIO12-Pad16)*%
X104555000Y-89205000D03*
%TO.P,U1,17,GPIO13*%
%TO.N,unconnected-(U1-GPIO13-Pad17)*%
X104555000Y-86665000D03*
D16*
%TO.P,U1,18,GND*%
%TO.N,unconnected-(U1-GND-Pad18)*%
X104555000Y-84125000D03*
D15*
%TO.P,U1,19,GPIO14*%
%TO.N,unconnected-(U1-GPIO14-Pad19)*%
X104555000Y-81585000D03*
%TO.P,U1,20,GPIO15*%
%TO.N,unconnected-(U1-GPIO15-Pad20)*%
X104555000Y-79045000D03*
%TO.P,U1,21,GPIO16*%
%TO.N,unconnected-(U1-GPIO16-Pad21)*%
X86775000Y-79045000D03*
%TO.P,U1,22,GPIO17*%
%TO.N,unconnected-(U1-GPIO17-Pad22)*%
X86775000Y-81585000D03*
D16*
%TO.P,U1,23,GND*%
%TO.N,unconnected-(U1-GND-Pad23)*%
X86775000Y-84125000D03*
D15*
%TO.P,U1,24,GPIO18*%
%TO.N,unconnected-(U1-GPIO18-Pad24)*%
X86775000Y-86665000D03*
%TO.P,U1,25,GPIO19*%
%TO.N,unconnected-(U1-GPIO19-Pad25)*%
X86775000Y-89205000D03*
%TO.P,U1,26,GPIO20*%
%TO.N,unconnected-(U1-GPIO20-Pad26)*%
X86775000Y-91745000D03*
%TO.P,U1,27,GPIO21*%
%TO.N,unconnected-(U1-GPIO21-Pad27)*%
X86775000Y-94285000D03*
D16*
%TO.P,U1,28,GND*%
%TO.N,unconnected-(U1-GND-Pad28)*%
X86775000Y-96825000D03*
D15*
%TO.P,U1,29,GPIO22*%
%TO.N,unconnected-(U1-GPIO22-Pad29)*%
X86775000Y-99365000D03*
%TO.P,U1,30,RUN*%
%TO.N,unconnected-(U1-RUN-Pad30)*%
X86775000Y-101905000D03*
%TO.P,U1,31,GPIO26_ADC0*%
%TO.N,unconnected-(U1-GPIO26_ADC0-Pad31)*%
X86775000Y-104445000D03*
%TO.P,U1,32,GPIO27_ADC1*%
%TO.N,unconnected-(U1-GPIO27_ADC1-Pad32)*%
X86775000Y-106985000D03*
D16*
%TO.P,U1,33,AGND*%
%TO.N,GND*%
X86775000Y-109525000D03*
D15*
%TO.P,U1,34,GPIO28_ADC2*%
%TO.N,unconnected-(U1-GPIO28_ADC2-Pad34)*%
X86775000Y-112065000D03*
%TO.P,U1,35,ADC_VREF*%
%TO.N,unconnected-(U1-ADC_VREF-Pad35)*%
X86775000Y-114605000D03*
%TO.P,U1,36,3V3*%
%TO.N,VCC*%
X86775000Y-117145000D03*
%TO.P,U1,37,3V3_EN*%
%TO.N,unconnected-(U1-3V3_EN-Pad37)*%
X86775000Y-119685000D03*
D16*
%TO.P,U1,38,GND*%
%TO.N,unconnected-(U1-GND-Pad38)*%
X86775000Y-122225000D03*
D15*
%TO.P,U1,39,VSYS*%
%TO.N,unconnected-(U1-VSYS-Pad39)*%
X86775000Y-124765000D03*
%TO.P,U1,40,VBUS*%
%TO.N,unconnected-(U1-VBUS-Pad40)*%
X86775000Y-127305000D03*
%TD*%
D10*
%TO.P,R4,1*%
%TO.N,Net-(U2-SC1)*%
X78740000Y-68580000D03*
D11*
%TO.P,R4,2*%
%TO.N,VCC*%
X71120000Y-68580000D03*
%TD*%
D10*
%TO.P,R3,1*%
%TO.N,Net-(U2-SD1)*%
X77470000Y-60960000D03*
D11*
%TO.P,R3,2*%
%TO.N,VCC*%
X69850000Y-60960000D03*
%TD*%
M02*
