%TF.GenerationSoftware,KiCad,Pcbnew,9.0.1*%
%TF.CreationDate,2025-11-17T14:23:57+09:00*%
%TF.ProjectId,RasPiMulti_test,52617350-694d-4756-9c74-695f74657374,rev?*%
%TF.SameCoordinates,Original*%
%TF.FileFunction,Soldermask,Bot*%
%TF.FilePolarity,Negative*%
%FSLAX46Y46*%
G04 Gerber Fmt 4.6, Leading zero omitted, Abs format (unit mm)*
G04 Created by KiCad (PCBNEW 9.0.1) date 2025-11-17 14:23:57*
%MOMM*%
%LPD*%
G01*
G04 APERTURE LIST*
G04 Aperture macros list*
%AMRoundRect*
0 Rectangle with rounded corners*
0 $1 Rounding radius*
0 $2 $3 $4 $5 $6 $7 $8 $9 X,Y pos of 4 corners*
0 Add a 4 corners polygon primitive as box body*
4,1,4,$2,$3,$4,$5,$6,$7,$8,$9,$2,$3,0*
0 Add four circle primitives for the rounded corners*
1,1,$1+$1,$2,$3*
1,1,$1+$1,$4,$5*
1,1,$1+$1,$6,$7*
1,1,$1+$1,$8,$9*
0 Add four rect primitives between the rounded corners*
20,1,$1+$1,$2,$3,$4,$5,0*
20,1,$1+$1,$4,$5,$6,$7,0*
20,1,$1+$1,$6,$7,$8,$9,0*
20,1,$1+$1,$8,$9,$2,$3,0*%
G04 Aperture macros list end*
%ADD10C,1.400000*%
%ADD11O,1.400000X1.400000*%
%ADD12RoundRect,0.250000X-0.550000X-0.550000X0.550000X-0.550000X0.550000X0.550000X-0.550000X0.550000X0*%
%ADD13C,1.600000*%
%ADD14C,1.905000*%
%ADD15O,1.700000X1.700000*%
%ADD16R,1.700000X1.700000*%
G04 APERTURE END LIST*
D10*
%TO.C,R2*%
X115570000Y-114440000D03*
D11*
X123190000Y-114440000D03*
%TD*%
%TO.C,R1*%
X123190000Y-109220000D03*
D10*
X115570000Y-109220000D03*
%TD*%
D12*
%TO.C,U4*%
X91440000Y-60960000D03*
D13*
X91440000Y-63500000D03*
X91440000Y-66040000D03*
X91440000Y-68580000D03*
X99060000Y-68580000D03*
X99060000Y-66040000D03*
X99060000Y-63500000D03*
X99060000Y-60960000D03*
%TD*%
D14*
%TO.C,U2*%
X95400000Y-46880000D03*
X97940000Y-46880000D03*
X92860000Y-46880000D03*
X103020000Y-46880000D03*
X105560000Y-46880000D03*
X108100000Y-46880000D03*
X110640000Y-46880000D03*
X110640000Y-29100000D03*
X108100000Y-29100000D03*
X105560000Y-29100000D03*
X103020000Y-29100000D03*
X85240000Y-46880000D03*
X100480000Y-29100000D03*
X97940000Y-29100000D03*
X95400000Y-29100000D03*
X92860000Y-29100000D03*
X90320000Y-29100000D03*
X87780000Y-29100000D03*
X85240000Y-29100000D03*
X82700000Y-29100000D03*
X100480000Y-46880000D03*
X90320000Y-46880000D03*
X87780000Y-46880000D03*
X82700000Y-46880000D03*
%TD*%
D15*
%TO.C,U1*%
X104555000Y-127305000D03*
X104555000Y-124765000D03*
D16*
X104555000Y-122225000D03*
D15*
X104555000Y-119685000D03*
X104555000Y-117145000D03*
X104555000Y-114605000D03*
X104555000Y-112065000D03*
D16*
X104555000Y-109525000D03*
D15*
X104555000Y-106985000D03*
X104555000Y-104445000D03*
X104555000Y-101905000D03*
X104555000Y-99365000D03*
D16*
X104555000Y-96825000D03*
D15*
X104555000Y-94285000D03*
X104555000Y-91745000D03*
X104555000Y-89205000D03*
X104555000Y-86665000D03*
D16*
X104555000Y-84125000D03*
D15*
X104555000Y-81585000D03*
X104555000Y-79045000D03*
X86775000Y-79045000D03*
X86775000Y-81585000D03*
D16*
X86775000Y-84125000D03*
D15*
X86775000Y-86665000D03*
X86775000Y-89205000D03*
X86775000Y-91745000D03*
X86775000Y-94285000D03*
D16*
X86775000Y-96825000D03*
D15*
X86775000Y-99365000D03*
X86775000Y-101905000D03*
X86775000Y-104445000D03*
X86775000Y-106985000D03*
D16*
X86775000Y-109525000D03*
D15*
X86775000Y-112065000D03*
X86775000Y-114605000D03*
X86775000Y-117145000D03*
X86775000Y-119685000D03*
D16*
X86775000Y-122225000D03*
D15*
X86775000Y-124765000D03*
X86775000Y-127305000D03*
%TD*%
D10*
%TO.C,R4*%
X78740000Y-68580000D03*
D11*
X71120000Y-68580000D03*
%TD*%
D10*
%TO.C,R3*%
X77470000Y-60960000D03*
D11*
X69850000Y-60960000D03*
%TD*%
M02*
