%TF.GenerationSoftware,KiCad,Pcbnew,9.0.1*%
%TF.CreationDate,2026-03-14T13:22:24+09:00*%
%TF.ProjectId,XiaoTcaBno_ver2,5869616f-5463-4614-926e-6f5f76657232,rev?*%
%TF.SameCoordinates,Original*%
%TF.FileFunction,Copper,L2,Bot*%
%TF.FilePolarity,Positive*%
%FSLAX46Y46*%
G04 Gerber Fmt 4.6, Leading zero omitted, Abs format (unit mm)*
G04 Created by KiCad (PCBNEW 9.0.1) date 2026-03-14 13:22:24*
%MOMM*%
%LPD*%
G01*
G04 APERTURE LIST*
G04 Aperture macros list*
%AMRoundRect*
0 Rectangle with rounded corners*
0 $1 Rounding radius*
0 $2 $3 $4 $5 $6 $7 $8 $9 X,Y pos of 4 corners*
0 Add a 4 corners polygon primitive as box body*
4,1,4,$2,$3,$4,$5,$6,$7,$8,$9,$2,$3,0*
0 Add four circle primitives for the rounded corners*
1,1,$1+$1,$2,$3*
1,1,$1+$1,$4,$5*
1,1,$1+$1,$6,$7*
1,1,$1+$1,$8,$9*
0 Add four rect primitives between the rounded corners*
20,1,$1+$1,$2,$3,$4,$5,0*
20,1,$1+$1,$4,$5,$6,$7,0*
20,1,$1+$1,$6,$7,$8,$9,0*
20,1,$1+$1,$8,$9,$2,$3,0*%
G04 Aperture macros list end*
%TA.AperFunction,ComponentPad*%
%ADD10RoundRect,0.250000X0.725000X-0.600000X0.725000X0.600000X-0.725000X0.600000X-0.725000X-0.600000X0*%
%TD*%
%TA.AperFunction,ComponentPad*%
%ADD11O,1.950000X1.700000*%
%TD*%
%TA.AperFunction,ComponentPad*%
%ADD12R,1.600000X1.600000*%
%TD*%
%TA.AperFunction,ComponentPad*%
%ADD13C,1.600000*%
%TD*%
%TA.AperFunction,ComponentPad*%
%ADD14C,1.400000*%
%TD*%
%TA.AperFunction,ComponentPad*%
%ADD15O,1.400000X1.400000*%
%TD*%
%TA.AperFunction,ComponentPad*%
%ADD16RoundRect,0.250000X-0.725000X0.600000X-0.725000X-0.600000X0.725000X-0.600000X0.725000X0.600000X0*%
%TD*%
%TA.AperFunction,ComponentPad*%
%ADD17C,1.905000*%
%TD*%
%TA.AperFunction,ComponentPad*%
%ADD18RoundRect,0.250000X-0.550000X-0.550000X0.550000X-0.550000X0.550000X0.550000X-0.550000X0.550000X0*%
%TD*%
%TA.AperFunction,ComponentPad*%
%ADD19RoundRect,0.250000X-0.600000X-0.725000X0.600000X-0.725000X0.600000X0.725000X-0.600000X0.725000X0*%
%TD*%
%TA.AperFunction,ComponentPad*%
%ADD20O,1.700000X1.950000*%
%TD*%
%TA.AperFunction,ComponentPad*%
%ADD21C,1.524000*%
%TD*%
%TA.AperFunction,ViaPad*%
%ADD22C,0.800000*%
%TD*%
%TA.AperFunction,Conductor*%
%ADD23C,0.600000*%
%TD*%
%TA.AperFunction,Conductor*%
%ADD24C,0.300000*%
%TD*%
G04 APERTURE END LIST*
D10*
%TO.P,J6,1,Pin_1*%
%TO.N,VCC*%
X156210000Y-81280000D03*
D11*
%TO.P,J6,2,Pin_2*%
%TO.N,GND*%
X156210000Y-78780000D03*
%TO.P,J6,3,Pin_3*%
%TO.N,SD6*%
X156210000Y-76280000D03*
%TO.P,J6,4,Pin_4*%
%TO.N,SC6*%
X156210000Y-73780000D03*
%TD*%
D12*
%TO.P,C8,1*%
%TO.N,VCC*%
X162600000Y-119420000D03*
D13*
%TO.P,C8,2*%
%TO.N,GND*%
X162600000Y-121920000D03*
%TD*%
%TO.P,C5,1*%
%TO.N,VCC*%
X170180000Y-68580000D03*
%TO.P,C5,2*%
%TO.N,GND*%
X170180000Y-71080000D03*
%TD*%
D14*
%TO.P,R12,1*%
%TO.N,VCC*%
X168835743Y-73732983D03*
D15*
%TO.P,R12,2*%
%TO.N,SC6*%
X161215743Y-73732983D03*
%TD*%
D16*
%TO.P,J2,1,Pin_1*%
%TO.N,VCC*%
X198120000Y-59750000D03*
D11*
%TO.P,J2,2,Pin_2*%
%TO.N,GND*%
X198120000Y-62250000D03*
%TO.P,J2,3,Pin_3*%
%TO.N,SD2*%
X198120000Y-64750000D03*
%TO.P,J2,4,Pin_4*%
%TO.N,SC2*%
X198120000Y-67250000D03*
%TD*%
D13*
%TO.P,C4,1*%
%TO.N,VCC*%
X172720000Y-60960000D03*
%TO.P,C4,2*%
%TO.N,GND*%
X175220000Y-60960000D03*
%TD*%
D17*
%TO.P,U2,1,A0*%
%TO.N,unconnected-(U2-A0-Pad1)*%
X175260000Y-101490000D03*
%TO.P,U2,2,A1*%
%TO.N,unconnected-(U2-A1-Pad2)*%
X177800000Y-101490000D03*
%TO.P,U2,3,RST*%
%TO.N,RST*%
X172720000Y-101490000D03*
%TO.P,U2,4,SD0*%
%TO.N,unconnected-(U2-SD0-Pad4)*%
X182880000Y-101490000D03*
%TO.P,U2,5,SC0*%
%TO.N,unconnected-(U2-SC0-Pad5)*%
X185420000Y-101490000D03*
%TO.P,U2,6,SD1*%
%TO.N,unconnected-(U2-SD1-Pad6)*%
X187960000Y-101490000D03*
%TO.P,U2,7,SC1*%
%TO.N,unconnected-(U2-SC1-Pad7)*%
X190500000Y-101490000D03*
%TO.P,U2,8,SD2*%
%TO.N,SD2*%
X190500000Y-86250000D03*
%TO.P,U2,9,SC2*%
%TO.N,SC2*%
X187960000Y-86250000D03*
%TO.P,U2,10,SD3*%
%TO.N,SD3*%
X185420000Y-86250000D03*
%TO.P,U2,11,SC3*%
%TO.N,SC3*%
X182880000Y-86250000D03*
%TO.P,U2,12,GND*%
%TO.N,GND*%
X165100000Y-101490000D03*
%TO.P,U2,13,SD4*%
%TO.N,SD4*%
X180340000Y-86250000D03*
%TO.P,U2,14,SC4*%
%TO.N,SC4*%
X177800000Y-86250000D03*
%TO.P,U2,15,SD5*%
%TO.N,SD5*%
X175260000Y-86250000D03*
%TO.P,U2,16,SC5*%
%TO.N,SC5*%
X172720000Y-86250000D03*
%TO.P,U2,17,SD6*%
%TO.N,SD6*%
X170180000Y-86250000D03*
%TO.P,U2,18,SC6*%
%TO.N,SC6*%
X167640000Y-86250000D03*
%TO.P,U2,19,SD7*%
%TO.N,SD7*%
X165100000Y-86250000D03*
%TO.P,U2,20,SC7*%
%TO.N,SC7*%
X162560000Y-86250000D03*
%TO.P,U2,21,A2*%
%TO.N,unconnected-(U2-A2-Pad21)*%
X180340000Y-101490000D03*
%TO.P,U2,22,SCL*%
%TO.N,SCL*%
X170180000Y-101490000D03*
%TO.P,U2,23,SDA*%
%TO.N,SDA*%
X167640000Y-101490000D03*
%TO.P,U2,24,VIN*%
%TO.N,VCC*%
X162560000Y-101490000D03*
%TD*%
D13*
%TO.P,C3,1*%
%TO.N,VCC*%
X193040000Y-73660000D03*
%TO.P,C3,2*%
%TO.N,GND*%
X193040000Y-76160000D03*
%TD*%
D14*
%TO.P,R7,1*%
%TO.N,VCC*%
X177800000Y-63500000D03*
D15*
%TO.P,R7,2*%
%TO.N,SD4*%
X185420000Y-63500000D03*
%TD*%
D18*
%TO.P,U4,1,Vin*%
%TO.N,VCC*%
X172720000Y-68580000D03*
D13*
%TO.P,U4,2,GND*%
%TO.N,GND*%
X172720000Y-71120000D03*
%TO.P,U4,3,SDA*%
%TO.N,SD5*%
X172720000Y-73660000D03*
%TO.P,U4,4,SCL*%
%TO.N,SC5*%
X172720000Y-76200000D03*
%TO.P,U4,5,Vout*%
%TO.N,unconnected-(U4-Vout-Pad5)*%
X180340000Y-76200000D03*
%TO.P,U4,6,GND*%
%TO.N,unconnected-(U4-GND-Pad6)*%
X180340000Y-73660000D03*
%TO.P,U4,7,INT*%
%TO.N,unconnected-(U4-INT-Pad7)*%
X180340000Y-71120000D03*
%TO.P,U4,8,RST*%
%TO.N,unconnected-(U4-RST-Pad8)*%
X180340000Y-68580000D03*
%TD*%
D14*
%TO.P,R13,1*%
%TO.N,VCC*%
X185382600Y-66040000D03*
D15*
%TO.P,R13,2*%
%TO.N,SD2*%
X193002600Y-66040000D03*
%TD*%
D14*
%TO.P,R4,1*%
%TO.N,VCC*%
X168910000Y-81280000D03*
D15*
%TO.P,R4,2*%
%TO.N,SC5*%
X176530000Y-81280000D03*
%TD*%
D14*
%TO.P,R9,1*%
%TO.N,VCC*%
X168790934Y-62259448D03*
D15*
%TO.P,R9,2*%
%TO.N,SD7*%
X161170934Y-62259448D03*
%TD*%
D14*
%TO.P,R8,1*%
%TO.N,VCC*%
X177800000Y-60960000D03*
D15*
%TO.P,R8,2*%
%TO.N,SC4*%
X185420000Y-60960000D03*
%TD*%
D14*
%TO.P,R5,1*%
%TO.N,VCC*%
X185420000Y-78740000D03*
D15*
%TO.P,R5,2*%
%TO.N,SD3*%
X193040000Y-78740000D03*
%TD*%
D16*
%TO.P,J3,1,Pin_1*%
%TO.N,VCC*%
X198120000Y-73780000D03*
D11*
%TO.P,J3,2,Pin_2*%
%TO.N,GND*%
X198120000Y-76280000D03*
%TO.P,J3,3,Pin_3*%
%TO.N,SD3*%
X198120000Y-78780000D03*
%TO.P,J3,4,Pin_4*%
%TO.N,SC3*%
X198120000Y-81280000D03*
%TD*%
D10*
%TO.P,J5,1,Pin_1*%
%TO.N,VCC*%
X156210000Y-67250000D03*
D11*
%TO.P,J5,2,Pin_2*%
%TO.N,GND*%
X156210000Y-64750000D03*
%TO.P,J5,3,Pin_3*%
%TO.N,SD7*%
X156210000Y-62250000D03*
%TO.P,J5,4,Pin_4*%
%TO.N,SC7*%
X156210000Y-59750000D03*
%TD*%
D14*
%TO.P,R10,1*%
%TO.N,VCC*%
X168792207Y-59794977D03*
D15*
%TO.P,R10,2*%
%TO.N,SC7*%
X161172207Y-59794977D03*
%TD*%
D13*
%TO.P,C7,1*%
%TO.N,VCC*%
X161487140Y-67313535D03*
%TO.P,C7,2*%
%TO.N,GND*%
X161487140Y-64813535D03*
%TD*%
D19*
%TO.P,J4,1,Pin_1*%
%TO.N,VCC*%
X172840000Y-55880000D03*
D20*
%TO.P,J4,2,Pin_2*%
%TO.N,GND*%
X175340000Y-55880000D03*
%TO.P,J4,3,Pin_3*%
%TO.N,SD4*%
X177840000Y-55880000D03*
%TO.P,J4,4,Pin_4*%
%TO.N,SC4*%
X180340000Y-55880000D03*
%TD*%
D13*
%TO.P,C2,1*%
%TO.N,VCC*%
X193040000Y-59713296D03*
%TO.P,C2,2*%
%TO.N,GND*%
X193040000Y-62213296D03*
%TD*%
D21*
%TO.P,U1,1,GPIO0/A0/D0*%
%TO.N,unconnected-(U1-GPIO0{slash}A0{slash}D0-Pad1)*%
X185420000Y-121920000D03*
%TO.P,U1,2,GPIO1/A1/D1*%
%TO.N,unconnected-(U1-GPIO1{slash}A1{slash}D1-Pad2)_1*%
X185420000Y-119380000D03*
%TO.P,U1,3,GPIO2/A2/D2*%
%TO.N,unconnected-(U1-GPIO2{slash}A2{slash}D2-Pad3)*%
X185420000Y-116840000D03*
%TO.P,U1,4,GPIO21/D3*%
%TO.N,unconnected-(U1-GPIO21{slash}D3-Pad4)_1*%
X185420000Y-114300000D03*
%TO.P,U1,5,GPIO22/D4/SDA*%
%TO.N,SDA*%
X185420000Y-111760000D03*
%TO.P,U1,6,GPIO23/D5/SCL*%
%TO.N,SCL*%
X185420000Y-109220000D03*
%TO.P,U1,7,GPIO16/D6/TX*%
%TO.N,RST*%
X185420000Y-106680000D03*
%TO.P,U1,8,GPIO17/D7/RX*%
%TO.N,unconnected-(U1-GPIO17{slash}D7{slash}RX-Pad8)_1*%
X170180000Y-106680000D03*
%TO.P,U1,9,GPIO19/D8/SCK*%
%TO.N,unconnected-(U1-GPIO19{slash}D8{slash}SCK-Pad9)*%
X170180000Y-109220000D03*
%TO.P,U1,10,GPIO20/D9/MISO*%
%TO.N,unconnected-(U1-GPIO20{slash}D9{slash}MISO-Pad10)*%
X170180000Y-111760000D03*
%TO.P,U1,11,GPIO18/D10/MOSI*%
%TO.N,unconnected-(U1-GPIO18{slash}D10{slash}MOSI-Pad11)*%
X170180000Y-114300000D03*
%TO.P,U1,12,3V3*%
%TO.N,VCC*%
X170180000Y-116840000D03*
%TO.P,U1,13,GND*%
%TO.N,GND*%
X170180000Y-119380000D03*
%TO.P,U1,14,VBUS*%
%TO.N,unconnected-(U1-VBUS-Pad14)*%
X170180000Y-121920000D03*
%TD*%
D13*
%TO.P,C6,1*%
%TO.N,VCC*%
X161398100Y-81313407D03*
%TO.P,C6,2*%
%TO.N,GND*%
X161398100Y-78813407D03*
%TD*%
D14*
%TO.P,R14,1*%
%TO.N,VCC*%
X185345096Y-68580000D03*
D15*
%TO.P,R14,2*%
%TO.N,SC2*%
X192965096Y-68580000D03*
%TD*%
D14*
%TO.P,R6,1*%
%TO.N,VCC*%
X185420000Y-81280000D03*
D15*
%TO.P,R6,2*%
%TO.N,SC3*%
X193040000Y-81280000D03*
%TD*%
D13*
%TO.P,C1,1*%
%TO.N,VCC*%
X162560000Y-99060000D03*
%TO.P,C1,2*%
%TO.N,GND*%
X165060000Y-99060000D03*
%TD*%
D14*
%TO.P,R11,1*%
%TO.N,VCC*%
X168910000Y-76200000D03*
D15*
%TO.P,R11,2*%
%TO.N,SD6*%
X161290000Y-76200000D03*
%TD*%
D14*
%TO.P,R3,1*%
%TO.N,VCC*%
X168939099Y-78977422D03*
D15*
%TO.P,R3,2*%
%TO.N,SD5*%
X176559099Y-78977422D03*
%TD*%
D22*
%TO.N,GND*%
X175612290Y-62579496D03*
X195580000Y-88900000D03*
X195580000Y-78030000D03*
X160020000Y-91440000D03*
X160020000Y-85500000D03*
X158212265Y-82356874D03*
X158212265Y-79997788D03*
X199659997Y-76200000D03*
X200701352Y-70100691D03*
X200642293Y-67444517D03*
X200660000Y-63500000D03*
%TO.N,SD2*%
X201728265Y-77386961D03*
X201876635Y-72787485D03*
%TO.N,SC2*%
X200660000Y-71120000D03*
X200660000Y-76200000D03*
%TO.N,GND*%
X195580000Y-58420000D03*
X152400000Y-71120000D03*
%TO.N,SD3*%
X191247657Y-80530000D03*
X188857868Y-82982724D03*
%TO.N,SC4*%
X180340000Y-58420000D03*
X180340000Y-63500000D03*
%TO.N,SC7*%
X154940000Y-83820000D03*
X157480000Y-86360000D03*
%TO.N,SD7*%
X151031982Y-78014746D03*
X157480000Y-88900000D03*
%TO.N,SC6*%
X165100000Y-83820000D03*
X165100000Y-78740000D03*
%TO.N,SD6*%
X166180514Y-80274002D03*
X168261509Y-82406706D03*
%TD*%
D23*
%TO.N,GND*%
X175220000Y-62187206D02*
X175612290Y-62579496D01*
X175220000Y-60960000D02*
X175220000Y-62187206D01*
X185420000Y-99060000D02*
X165060000Y-99060000D01*
X195580000Y-88900000D02*
X185420000Y-99060000D01*
X197330000Y-76280000D02*
X195580000Y-78030000D01*
X198120000Y-76280000D02*
X197330000Y-76280000D01*
X165060000Y-96480000D02*
X165060000Y-99060000D01*
X160020000Y-91440000D02*
X165060000Y-96480000D01*
X158212265Y-83692265D02*
X160020000Y-85500000D01*
X156994477Y-78780000D02*
X158212265Y-79997788D01*
X158212265Y-82356874D02*
X158212265Y-83692265D01*
X156210000Y-78780000D02*
X156994477Y-78780000D01*
X198200000Y-76200000D02*
X198120000Y-76280000D01*
X199659997Y-76200000D02*
X198200000Y-76200000D01*
X200642293Y-70041632D02*
X200701352Y-70100691D01*
X200642293Y-67444517D02*
X200642293Y-70041632D01*
X199410000Y-62250000D02*
X200660000Y-63500000D01*
X198120000Y-62250000D02*
X199410000Y-62250000D01*
D24*
%TO.N,SD2*%
X198010000Y-86250000D02*
X190500000Y-86250000D01*
X198120000Y-86360000D02*
X198010000Y-86250000D01*
X201728265Y-82751735D02*
X198120000Y-86360000D01*
X201817287Y-72728137D02*
X201876635Y-72787485D01*
X201728265Y-77386961D02*
X201728265Y-82751735D01*
X201817287Y-68247357D02*
X201817287Y-72728137D01*
X200660000Y-66040000D02*
X201817287Y-67197287D01*
X201817287Y-67197287D02*
X201817287Y-68247357D01*
X199370000Y-64750000D02*
X200660000Y-66040000D01*
X198120000Y-64750000D02*
X199370000Y-64750000D01*
%TO.N,SC2*%
X190390000Y-83820000D02*
X187960000Y-86250000D01*
X198120000Y-83820000D02*
X190390000Y-83820000D01*
X200660000Y-81280000D02*
X198120000Y-83820000D01*
X200660000Y-76200000D02*
X200660000Y-81280000D01*
X198120000Y-68580000D02*
X200660000Y-71120000D01*
X198120000Y-67250000D02*
X198120000Y-68580000D01*
D23*
%TO.N,GND*%
X170220000Y-71120000D02*
X170180000Y-71080000D01*
X172720000Y-71120000D02*
X170220000Y-71120000D01*
X191301000Y-54141000D02*
X195580000Y-58420000D01*
X177079000Y-54141000D02*
X191301000Y-54141000D01*
X175340000Y-55880000D02*
X177079000Y-54141000D01*
X152400000Y-68560000D02*
X152400000Y-71120000D01*
X156210000Y-64750000D02*
X152400000Y-68560000D01*
X198000000Y-76160000D02*
X198120000Y-76280000D01*
X161423605Y-64750000D02*
X161487140Y-64813535D01*
X175340000Y-60840000D02*
X175220000Y-60960000D01*
X156273535Y-64813535D02*
X156210000Y-64750000D01*
X193040000Y-76160000D02*
X198000000Y-76160000D01*
X161364693Y-78780000D02*
X161398100Y-78813407D01*
X156210000Y-78780000D02*
X161364693Y-78780000D01*
X193040000Y-62213296D02*
X198083296Y-62213296D01*
X198083296Y-62213296D02*
X198120000Y-62250000D01*
X161487140Y-64813535D02*
X156273535Y-64813535D01*
X175340000Y-55880000D02*
X175340000Y-60840000D01*
X165140000Y-119380000D02*
X162600000Y-121920000D01*
X170180000Y-119380000D02*
X165140000Y-119380000D01*
D24*
%TO.N,SD2*%
X198120000Y-64750000D02*
X194292600Y-64750000D01*
X194292600Y-64750000D02*
X193002600Y-66040000D01*
D23*
%TO.N,VCC*%
X190500000Y-73660000D02*
X185420000Y-78740000D01*
X170180000Y-116840000D02*
X175260000Y-116840000D01*
X172840000Y-55880000D02*
X172840000Y-60840000D01*
X162560000Y-114300000D02*
X162560000Y-101490000D01*
X160130000Y-101490000D02*
X160020000Y-101600000D01*
X191709304Y-59713296D02*
X185382600Y-66040000D01*
X185420000Y-78740000D02*
X185420000Y-81280000D01*
X193040000Y-73660000D02*
X190500000Y-73660000D01*
D24*
X168835743Y-76125743D02*
X168910000Y-76200000D01*
D23*
X172720000Y-68580000D02*
X170180000Y-68580000D01*
X193040000Y-59713296D02*
X198083296Y-59713296D01*
X185382600Y-68542496D02*
X185345096Y-68580000D01*
X156210000Y-67250000D02*
X161423605Y-67250000D01*
X168790934Y-62259448D02*
X168790934Y-59796250D01*
X160020000Y-101600000D02*
X156210000Y-97790000D01*
X198120000Y-73780000D02*
X193160000Y-73780000D01*
X165100000Y-116840000D02*
X165100000Y-116920000D01*
X203200000Y-63500000D02*
X199450000Y-59750000D01*
X170180000Y-63500000D02*
X172720000Y-66040000D01*
X172840000Y-60840000D02*
X172720000Y-60960000D01*
X156210000Y-81280000D02*
X154940000Y-81280000D01*
X168835743Y-73732983D02*
X168835743Y-81205743D01*
X198120000Y-58420000D02*
X193040000Y-53340000D01*
X162560000Y-101490000D02*
X160130000Y-101490000D01*
X162560000Y-101490000D02*
X162560000Y-99060000D01*
X156210000Y-81280000D02*
X161364693Y-81280000D01*
X175380000Y-53340000D02*
X172840000Y-55880000D01*
X165100000Y-116920000D02*
X162600000Y-119420000D01*
X165100000Y-116840000D02*
X162560000Y-114300000D01*
X200540000Y-73780000D02*
X198120000Y-73780000D01*
X203200000Y-76200000D02*
X203200000Y-63500000D01*
X182880000Y-124460000D02*
X190500000Y-124460000D01*
X170180000Y-68580000D02*
X168835743Y-69924257D01*
X172840000Y-58300000D02*
X170180000Y-60960000D01*
X200660000Y-73660000D02*
X200540000Y-73780000D01*
X161398100Y-81313407D02*
X168876593Y-81313407D01*
X154940000Y-81280000D02*
X152400000Y-78740000D01*
X199450000Y-59750000D02*
X198120000Y-59750000D01*
X161487140Y-67313535D02*
X163736847Y-67313535D01*
X193040000Y-53340000D02*
X175380000Y-53340000D01*
X168835743Y-69924257D02*
X168835743Y-73732983D01*
X170180000Y-60960000D02*
X170180000Y-63500000D01*
X185382600Y-66040000D02*
X185382600Y-68542496D01*
X168835743Y-81205743D02*
X168910000Y-81280000D01*
X175260000Y-63500000D02*
X177800000Y-63500000D01*
X193040000Y-59713296D02*
X191709304Y-59713296D01*
X203200000Y-76200000D02*
X200660000Y-73660000D01*
X193160000Y-73780000D02*
X193040000Y-73660000D01*
X198120000Y-59750000D02*
X198120000Y-58420000D01*
X161364693Y-81280000D02*
X161398100Y-81313407D01*
X172720000Y-66040000D02*
X172720000Y-68580000D01*
X156210000Y-97790000D02*
X156210000Y-81280000D01*
X172720000Y-60960000D02*
X175260000Y-63500000D01*
X152400000Y-73660000D02*
X156210000Y-69850000D01*
X190500000Y-124460000D02*
X203200000Y-111760000D01*
X163736847Y-67313535D02*
X168790934Y-62259448D01*
X177800000Y-60960000D02*
X177800000Y-63500000D01*
X161423605Y-67250000D02*
X161487140Y-67313535D01*
X152400000Y-78740000D02*
X152400000Y-73660000D01*
X172840000Y-55880000D02*
X172840000Y-58300000D01*
X170180000Y-116840000D02*
X165100000Y-116840000D01*
X175260000Y-116840000D02*
X182880000Y-124460000D01*
X168790934Y-59796250D02*
X168792207Y-59794977D01*
X156210000Y-69850000D02*
X156210000Y-67250000D01*
X198083296Y-59713296D02*
X198120000Y-59750000D01*
X168876593Y-81313407D02*
X168910000Y-81280000D01*
X203200000Y-111760000D02*
X203200000Y-76200000D01*
D24*
%TO.N,SD3*%
X193080000Y-78780000D02*
X193040000Y-78740000D01*
X193037657Y-78740000D02*
X191247657Y-80530000D01*
X198120000Y-78780000D02*
X193080000Y-78780000D01*
X188857868Y-82982724D02*
X188687276Y-82982724D01*
X188687276Y-82982724D02*
X185420000Y-86250000D01*
X193040000Y-78740000D02*
X193037657Y-78740000D01*
%TO.N,SC3*%
X198120000Y-81280000D02*
X193040000Y-81280000D01*
X187850000Y-81280000D02*
X182880000Y-86250000D01*
X193040000Y-81280000D02*
X187850000Y-81280000D01*
%TO.N,SC4*%
X180340000Y-65905574D02*
X182163063Y-67728637D01*
X182163063Y-67728637D02*
X182163063Y-81886937D01*
X182880000Y-55880000D02*
X185420000Y-58420000D01*
X182163063Y-81886937D02*
X177800000Y-86250000D01*
X180340000Y-55880000D02*
X180340000Y-58420000D01*
X180340000Y-55880000D02*
X182880000Y-55880000D01*
X185420000Y-58420000D02*
X185420000Y-60960000D01*
X180340000Y-63500000D02*
X180340000Y-65905574D01*
%TO.N,SD4*%
X182880000Y-83710000D02*
X180340000Y-86250000D01*
X177840000Y-58460000D02*
X182880000Y-63500000D01*
X182880000Y-63500000D02*
X185420000Y-63500000D01*
X177840000Y-55880000D02*
X177840000Y-58460000D01*
X182880000Y-63500000D02*
X182880000Y-83710000D01*
%TO.N,SC7*%
X157590000Y-86250000D02*
X162560000Y-86250000D01*
X156210000Y-59750000D02*
X149860000Y-66100000D01*
X156210000Y-59750000D02*
X161127230Y-59750000D01*
X149860000Y-78740000D02*
X154940000Y-83820000D01*
X157480000Y-86360000D02*
X157590000Y-86250000D01*
X161127230Y-59750000D02*
X161172207Y-59794977D01*
X149860000Y-66100000D02*
X149860000Y-78740000D01*
%TO.N,SD7*%
X161161486Y-62250000D02*
X161170934Y-62259448D01*
X157480000Y-88900000D02*
X162450000Y-88900000D01*
X151031982Y-67428018D02*
X151031982Y-78014746D01*
X156210000Y-62250000D02*
X151031982Y-67428018D01*
X156210000Y-62250000D02*
X161161486Y-62250000D01*
X162450000Y-88900000D02*
X165100000Y-86250000D01*
%TO.N,SC6*%
X156210000Y-73780000D02*
X161168726Y-73780000D01*
X165210000Y-83820000D02*
X167640000Y-86250000D01*
X165100000Y-77617240D02*
X161215743Y-73732983D01*
X165100000Y-78740000D02*
X165100000Y-77617240D01*
X165100000Y-83820000D02*
X165210000Y-83820000D01*
X161168726Y-73780000D02*
X161215743Y-73732983D01*
%TO.N,SD6*%
X156210000Y-76280000D02*
X161210000Y-76280000D01*
X168261509Y-82406706D02*
X170180000Y-84325197D01*
X170180000Y-84325197D02*
X170180000Y-86250000D01*
X161290000Y-76200000D02*
X165364002Y-80274002D01*
X165364002Y-80274002D02*
X166180514Y-80274002D01*
X161210000Y-76280000D02*
X161290000Y-76200000D01*
%TO.N,SD5*%
X177800000Y-83820000D02*
X177690000Y-83820000D01*
X176559099Y-77499099D02*
X176559099Y-78977422D01*
X176559099Y-78977422D02*
X177800000Y-80218323D01*
X172720000Y-73660000D02*
X176559099Y-77499099D01*
X177690000Y-83820000D02*
X175260000Y-86250000D01*
X177800000Y-80218323D02*
X177800000Y-83820000D01*
%TO.N,SC5*%
X172720000Y-76200000D02*
X172720000Y-77470000D01*
X172720000Y-85090000D02*
X172720000Y-86250000D01*
X176530000Y-81280000D02*
X172720000Y-85090000D01*
X172720000Y-77470000D02*
X176530000Y-81280000D01*
%TO.N,SDA*%
X167640000Y-101490000D02*
X177910000Y-111760000D01*
X177910000Y-111760000D02*
X185420000Y-111760000D01*
%TO.N,SCL*%
X177910000Y-109220000D02*
X185420000Y-109220000D01*
X170180000Y-101490000D02*
X177910000Y-109220000D01*
%TO.N,RST*%
X172720000Y-101490000D02*
X177910000Y-106680000D01*
X177910000Y-106680000D02*
X185420000Y-106680000D01*
%TO.N,SC2*%
X192965096Y-68580000D02*
X194295096Y-67250000D01*
X194295096Y-67250000D02*
X198120000Y-67250000D01*
%TD*%
%TA.AperFunction,Conductor*%
%TO.N,GND*%
G36*
X202318834Y-83183627D02*
G01*
X202374767Y-83225499D01*
X202399184Y-83290963D01*
X202399500Y-83299809D01*
X202399500Y-111377060D01*
X202379815Y-111444099D01*
X202363181Y-111464741D01*
X190204741Y-123623181D01*
X190143418Y-123656666D01*
X190117060Y-123659500D01*
X183262940Y-123659500D01*
X183195901Y-123639815D01*
X183175259Y-123623181D01*
X175770292Y-116218213D01*
X175770288Y-116218210D01*
X175639185Y-116130609D01*
X175639172Y-116130602D01*
X175493501Y-116070264D01*
X175493489Y-116070261D01*
X175338845Y-116039500D01*
X175338842Y-116039500D01*
X171216307Y-116039500D01*
X171149268Y-116019815D01*
X171128626Y-116003181D01*
X171002466Y-115877021D01*
X171002464Y-115877019D01*
X170841694Y-115760213D01*
X170685218Y-115680484D01*
X170634423Y-115632510D01*
X170617628Y-115564689D01*
X170640165Y-115498554D01*
X170685218Y-115459515D01*
X170841694Y-115379787D01*
X171002464Y-115262981D01*
X171142981Y-115122464D01*
X171259787Y-114961694D01*
X171350005Y-114784632D01*
X171411413Y-114595636D01*
X171442500Y-114399361D01*
X171442500Y-114200639D01*
X171411413Y-114004364D01*
X171350005Y-113815368D01*
X171350005Y-113815367D01*
X171259786Y-113638305D01*
X171142981Y-113477536D01*
X171002464Y-113337019D01*
X170841694Y-113220213D01*
X170685218Y-113140484D01*
X170634423Y-113092510D01*
X170617628Y-113024689D01*
X170640165Y-112958554D01*
X170685218Y-112919515D01*
X170841694Y-112839787D01*
X171002464Y-112722981D01*
X171142981Y-112582464D01*
X171259787Y-112421694D01*
X171350005Y-112244632D01*
X171411413Y-112055636D01*
X171442500Y-111859361D01*
X171442500Y-111660639D01*
X171411413Y-111464364D01*
X171350005Y-111275368D01*
X171350005Y-111275367D01*
X171304035Y-111185149D01*
X171259787Y-111098306D01*
X171142981Y-110937536D01*
X171002464Y-110797019D01*
X170841694Y-110680213D01*
X170685218Y-110600484D01*
X170634423Y-110552510D01*
X170617628Y-110484689D01*
X170640165Y-110418554D01*
X170685218Y-110379515D01*
X170841694Y-110299787D01*
X171002464Y-110182981D01*
X171142981Y-110042464D01*
X171259787Y-109881694D01*
X171350005Y-109704632D01*
X171411413Y-109515636D01*
X171442500Y-109319361D01*
X171442500Y-109120639D01*
X171411413Y-108924364D01*
X171350005Y-108735368D01*
X171350005Y-108735367D01*
X171304035Y-108645149D01*
X171259787Y-108558306D01*
X171142981Y-108397536D01*
X171002464Y-108257019D01*
X170841694Y-108140213D01*
X170685218Y-108060484D01*
X170634423Y-108012510D01*
X170617628Y-107944689D01*
X170640165Y-107878554D01*
X170685218Y-107839515D01*
X170841694Y-107759787D01*
X171002464Y-107642981D01*
X171142981Y-107502464D01*
X171259787Y-107341694D01*
X171350005Y-107164632D01*
X171411413Y-106975636D01*
X171442500Y-106779361D01*
X171442500Y-106580639D01*
X171432909Y-106520086D01*
X171441863Y-106450795D01*
X171486859Y-106397343D01*
X171553610Y-106376703D01*
X171620924Y-106395427D01*
X171643063Y-106413009D01*
X177495330Y-112265276D01*
X177502822Y-112270282D01*
X177502831Y-112270292D01*
X177502833Y-112270289D01*
X177601873Y-112336465D01*
X177720256Y-112385501D01*
X177720260Y-112385501D01*
X177720261Y-112385502D01*
X177845928Y-112410500D01*
X177845931Y-112410500D01*
X184268899Y-112410500D01*
X184335938Y-112430185D01*
X184369217Y-112461615D01*
X184457019Y-112582464D01*
X184597536Y-112722981D01*
X184758306Y-112839787D01*
X184876832Y-112900179D01*
X184914780Y-112919515D01*
X184965576Y-112967490D01*
X184982371Y-113035311D01*
X184959833Y-113101446D01*
X184914780Y-113140485D01*
X184758305Y-113220213D01*
X184597533Y-113337021D01*
X184457021Y-113477533D01*
X184340213Y-113638305D01*
X184249994Y-113815367D01*
X184249993Y-113815370D01*
X184188587Y-114004362D01*
X184157500Y-114200639D01*
X184157500Y-114399360D01*
X184188587Y-114595637D01*
X184249993Y-114784629D01*
X184249994Y-114784632D01*
X184263069Y-114810292D01*
X184340213Y-114961694D01*
X184457019Y-115122464D01*
X184597536Y-115262981D01*
X184758306Y-115379787D01*
X184876832Y-115440179D01*
X184914780Y-115459515D01*
X184965576Y-115507490D01*
X184982371Y-115575311D01*
X184959833Y-115641446D01*
X184914780Y-115680485D01*
X184758305Y-115760213D01*
X184597533Y-115877021D01*
X184457021Y-116017533D01*
X184340213Y-116178305D01*
X184249994Y-116355367D01*
X184249993Y-116355370D01*
X184188587Y-116544362D01*
X184157500Y-116740639D01*
X184157500Y-116939360D01*
X184188587Y-117135637D01*
X184249993Y-117324629D01*
X184249994Y-117324632D01*
X184340213Y-117501694D01*
X184457019Y-117662464D01*
X184597536Y-117802981D01*
X184758306Y-117919787D01*
X184876832Y-117980179D01*
X184914780Y-117999515D01*
X184965576Y-118047490D01*
X184982371Y-118115311D01*
X184959833Y-118181446D01*
X184914780Y-118220485D01*
X184758305Y-118300213D01*
X184597533Y-118417021D01*
X184457021Y-118557533D01*
X184340213Y-118718305D01*
X184249994Y-118895367D01*
X184249993Y-118895370D01*
X184188587Y-119084362D01*
X184157500Y-119280639D01*
X184157500Y-119479360D01*
X184188587Y-119675637D01*
X184249993Y-119864629D01*
X184249994Y-119864632D01*
X184340076Y-120041425D01*
X184340213Y-120041694D01*
X184457019Y-120202464D01*
X184597536Y-120342981D01*
X184758306Y-120459787D01*
X184876832Y-120520179D01*
X184914780Y-120539515D01*
X184965576Y-120587490D01*
X184982371Y-120655311D01*
X184959833Y-120721446D01*
X184914780Y-120760485D01*
X184758305Y-120840213D01*
X184597533Y-120957021D01*
X184457021Y-121097533D01*
X184340213Y-121258305D01*
X184249994Y-121435367D01*
X184249993Y-121435370D01*
X184188587Y-121624362D01*
X184157500Y-121820639D01*
X184157500Y-122019360D01*
X184188587Y-122215637D01*
X184249993Y-122404629D01*
X184249994Y-122404632D01*
X184340213Y-122581694D01*
X184457019Y-122742464D01*
X184597536Y-122882981D01*
X184758306Y-122999787D01*
X184821251Y-123031859D01*
X184935367Y-123090005D01*
X184935370Y-123090006D01*
X185029866Y-123120709D01*
X185124364Y-123151413D01*
X185320639Y-123182500D01*
X185320640Y-123182500D01*
X185519360Y-123182500D01*
X185519361Y-123182500D01*
X185715636Y-123151413D01*
X185904632Y-123090005D01*
X186081694Y-122999787D01*
X186242464Y-122882981D01*
X186382981Y-122742464D01*
X186499787Y-122581694D01*
X186590005Y-122404632D01*
X186651413Y-122215636D01*
X186682500Y-122019361D01*
X186682500Y-121820639D01*
X186651413Y-121624364D01*
X186590005Y-121435368D01*
X186590005Y-121435367D01*
X186499786Y-121258305D01*
X186485506Y-121238650D01*
X186382981Y-121097536D01*
X186242464Y-120957019D01*
X186081694Y-120840213D01*
X185925218Y-120760484D01*
X185874423Y-120712510D01*
X185857628Y-120644689D01*
X185880165Y-120578554D01*
X185925218Y-120539515D01*
X186081694Y-120459787D01*
X186242464Y-120342981D01*
X186382981Y-120202464D01*
X186499787Y-120041694D01*
X186590005Y-119864632D01*
X186651413Y-119675636D01*
X186682500Y-119479361D01*
X186682500Y-119280639D01*
X186651413Y-119084364D01*
X186590005Y-118895368D01*
X186590005Y-118895367D01*
X186544035Y-118805149D01*
X186499787Y-118718306D01*
X186382981Y-118557536D01*
X186242464Y-118417019D01*
X186081694Y-118300213D01*
X185925218Y-118220484D01*
X185874423Y-118172510D01*
X185857628Y-118104689D01*
X185880165Y-118038554D01*
X185925218Y-117999515D01*
X186081694Y-117919787D01*
X186242464Y-117802981D01*
X186382981Y-117662464D01*
X186499787Y-117501694D01*
X186590005Y-117324632D01*
X186651413Y-117135636D01*
X186682500Y-116939361D01*
X186682500Y-116740639D01*
X186651413Y-116544364D01*
X186590005Y-116355368D01*
X186590005Y-116355367D01*
X186544035Y-116265149D01*
X186499787Y-116178306D01*
X186382981Y-116017536D01*
X186242464Y-115877019D01*
X186081694Y-115760213D01*
X185925218Y-115680484D01*
X185874423Y-115632510D01*
X185857628Y-115564689D01*
X185880165Y-115498554D01*
X185925218Y-115459515D01*
X186081694Y-115379787D01*
X186242464Y-115262981D01*
X186382981Y-115122464D01*
X186499787Y-114961694D01*
X186590005Y-114784632D01*
X186651413Y-114595636D01*
X186682500Y-114399361D01*
X186682500Y-114200639D01*
X186651413Y-114004364D01*
X186590005Y-113815368D01*
X186590005Y-113815367D01*
X186499786Y-113638305D01*
X186382981Y-113477536D01*
X186242464Y-113337019D01*
X186081694Y-113220213D01*
X185925218Y-113140484D01*
X185874423Y-113092510D01*
X185857628Y-113024689D01*
X185880165Y-112958554D01*
X185925218Y-112919515D01*
X186081694Y-112839787D01*
X186242464Y-112722981D01*
X186382981Y-112582464D01*
X186499787Y-112421694D01*
X186590005Y-112244632D01*
X186651413Y-112055636D01*
X186682500Y-111859361D01*
X186682500Y-111660639D01*
X186651413Y-111464364D01*
X186590005Y-111275368D01*
X186590005Y-111275367D01*
X186544035Y-111185149D01*
X186499787Y-111098306D01*
X186382981Y-110937536D01*
X186242464Y-110797019D01*
X186081694Y-110680213D01*
X185925218Y-110600484D01*
X185874423Y-110552510D01*
X185857628Y-110484689D01*
X185880165Y-110418554D01*
X185925218Y-110379515D01*
X186081694Y-110299787D01*
X186242464Y-110182981D01*
X186382981Y-110042464D01*
X186499787Y-109881694D01*
X186590005Y-109704632D01*
X186651413Y-109515636D01*
X186682500Y-109319361D01*
X186682500Y-109120639D01*
X186651413Y-108924364D01*
X186590005Y-108735368D01*
X186590005Y-108735367D01*
X186544035Y-108645149D01*
X186499787Y-108558306D01*
X186382981Y-108397536D01*
X186242464Y-108257019D01*
X186081694Y-108140213D01*
X185925218Y-108060484D01*
X185874423Y-108012510D01*
X185857628Y-107944689D01*
X185880165Y-107878554D01*
X185925218Y-107839515D01*
X186081694Y-107759787D01*
X186242464Y-107642981D01*
X186382981Y-107502464D01*
X186499787Y-107341694D01*
X186590005Y-107164632D01*
X186651413Y-106975636D01*
X186682500Y-106779361D01*
X186682500Y-106580639D01*
X186651413Y-106384364D01*
X186590005Y-106195368D01*
X186590005Y-106195367D01*
X186511657Y-106041603D01*
X186499787Y-106018306D01*
X186382981Y-105857536D01*
X186242464Y-105717019D01*
X186081694Y-105600213D01*
X186058396Y-105588342D01*
X185904632Y-105509994D01*
X185904629Y-105509993D01*
X185715637Y-105448587D01*
X185617498Y-105433043D01*
X185519361Y-105417500D01*
X185320639Y-105417500D01*
X185260090Y-105427090D01*
X185124362Y-105448587D01*
X184935370Y-105509993D01*
X184935367Y-105509994D01*
X184758305Y-105600213D01*
X184597533Y-105717021D01*
X184457021Y-105857533D01*
X184457016Y-105857539D01*
X184369217Y-105978385D01*
X184313887Y-106021051D01*
X184268899Y-106029500D01*
X178230808Y-106029500D01*
X178163769Y-106009815D01*
X178143127Y-105993181D01*
X175303506Y-103153560D01*
X175270021Y-103092237D01*
X175275005Y-103022545D01*
X175316877Y-102966612D01*
X175371789Y-102943406D01*
X175374352Y-102943000D01*
X175374354Y-102943000D01*
X175600245Y-102907222D01*
X175600248Y-102907221D01*
X175600249Y-102907221D01*
X175817755Y-102836549D01*
X175817755Y-102836548D01*
X175817758Y-102836548D01*
X176021538Y-102732717D01*
X176206566Y-102598286D01*
X176368286Y-102436566D01*
X176429683Y-102352059D01*
X176485012Y-102309396D01*
X176554625Y-102303417D01*
X176616420Y-102336023D01*
X176630314Y-102352056D01*
X176691714Y-102436566D01*
X176853434Y-102598286D01*
X177038462Y-102732717D01*
X177241327Y-102836082D01*
X177242244Y-102836549D01*
X177459751Y-102907221D01*
X177459752Y-102907221D01*
X177459755Y-102907222D01*
X177685646Y-102943000D01*
X177685647Y-102943000D01*
X177914353Y-102943000D01*
X177914354Y-102943000D01*
X178140245Y-102907222D01*
X178140248Y-102907221D01*
X178140249Y-102907221D01*
X178357755Y-102836549D01*
X178357755Y-102836548D01*
X178357758Y-102836548D01*
X178561538Y-102732717D01*
X178746566Y-102598286D01*
X178908286Y-102436566D01*
X178969683Y-102352059D01*
X179025012Y-102309396D01*
X179094625Y-102303417D01*
X179156420Y-102336023D01*
X179170314Y-102352056D01*
X179231714Y-102436566D01*
X179393434Y-102598286D01*
X179578462Y-102732717D01*
X179781327Y-102836082D01*
X179782244Y-102836549D01*
X179999751Y-102907221D01*
X179999752Y-102907221D01*
X179999755Y-102907222D01*
X180225646Y-102943000D01*
X180225647Y-102943000D01*
X180454353Y-102943000D01*
X180454354Y-102943000D01*
X180680245Y-102907222D01*
X180680248Y-102907221D01*
X180680249Y-102907221D01*
X180897755Y-102836549D01*
X180897755Y-102836548D01*
X180897758Y-102836548D01*
X181101538Y-102732717D01*
X181286566Y-102598286D01*
X181448286Y-102436566D01*
X181509683Y-102352059D01*
X181565012Y-102309396D01*
X181634625Y-102303417D01*
X181696420Y-102336023D01*
X181710314Y-102352056D01*
X181771714Y-102436566D01*
X181933434Y-102598286D01*
X182118462Y-102732717D01*
X182321327Y-102836082D01*
X182322244Y-102836549D01*
X182539751Y-102907221D01*
X182539752Y-102907221D01*
X182539755Y-102907222D01*
X182765646Y-102943000D01*
X182765647Y-102943000D01*
X182994353Y-102943000D01*
X182994354Y-102943000D01*
X183220245Y-102907222D01*
X183220248Y-102907221D01*
X183220249Y-102907221D01*
X183437755Y-102836549D01*
X183437755Y-102836548D01*
X183437758Y-102836548D01*
X183641538Y-102732717D01*
X183826566Y-102598286D01*
X183988286Y-102436566D01*
X184049683Y-102352059D01*
X184105012Y-102309396D01*
X184174625Y-102303417D01*
X184236420Y-102336023D01*
X184250314Y-102352056D01*
X184311714Y-102436566D01*
X184473434Y-102598286D01*
X184658462Y-102732717D01*
X184861327Y-102836082D01*
X184862244Y-102836549D01*
X185079751Y-102907221D01*
X185079752Y-102907221D01*
X185079755Y-102907222D01*
X185305646Y-102943000D01*
X185305647Y-102943000D01*
X185534353Y-102943000D01*
X185534354Y-102943000D01*
X185760245Y-102907222D01*
X185760248Y-102907221D01*
X185760249Y-102907221D01*
X185977755Y-102836549D01*
X185977755Y-102836548D01*
X185977758Y-102836548D01*
X186181538Y-102732717D01*
X186366566Y-102598286D01*
X186528286Y-102436566D01*
X186589683Y-102352059D01*
X186645012Y-102309396D01*
X186714625Y-102303417D01*
X186776420Y-102336023D01*
X186790314Y-102352056D01*
X186851714Y-102436566D01*
X187013434Y-102598286D01*
X187198462Y-102732717D01*
X187401327Y-102836082D01*
X187402244Y-102836549D01*
X187619751Y-102907221D01*
X187619752Y-102907221D01*
X187619755Y-102907222D01*
X187845646Y-102943000D01*
X187845647Y-102943000D01*
X188074353Y-102943000D01*
X188074354Y-102943000D01*
X188300245Y-102907222D01*
X188300248Y-102907221D01*
X188300249Y-102907221D01*
X188517755Y-102836549D01*
X188517755Y-102836548D01*
X188517758Y-102836548D01*
X188721538Y-102732717D01*
X188906566Y-102598286D01*
X189068286Y-102436566D01*
X189129683Y-102352059D01*
X189185012Y-102309396D01*
X189254625Y-102303417D01*
X189316420Y-102336023D01*
X189330314Y-102352056D01*
X189391714Y-102436566D01*
X189553434Y-102598286D01*
X189738462Y-102732717D01*
X189941327Y-102836082D01*
X189942244Y-102836549D01*
X190159751Y-102907221D01*
X190159752Y-102907221D01*
X190159755Y-102907222D01*
X190385646Y-102943000D01*
X190385647Y-102943000D01*
X190614353Y-102943000D01*
X190614354Y-102943000D01*
X190840245Y-102907222D01*
X190840248Y-102907221D01*
X190840249Y-102907221D01*
X191057755Y-102836549D01*
X191057755Y-102836548D01*
X191057758Y-102836548D01*
X191261538Y-102732717D01*
X191446566Y-102598286D01*
X191608286Y-102436566D01*
X191742717Y-102251538D01*
X191846548Y-102047758D01*
X191876386Y-101955925D01*
X191917221Y-101830249D01*
X191917221Y-101830248D01*
X191917222Y-101830245D01*
X191953000Y-101604354D01*
X191953000Y-101375646D01*
X191917222Y-101149755D01*
X191917221Y-101149751D01*
X191917221Y-101149750D01*
X191846549Y-100932244D01*
X191846548Y-100932242D01*
X191742717Y-100728462D01*
X191608286Y-100543434D01*
X191446566Y-100381714D01*
X191261538Y-100247283D01*
X191121286Y-100175821D01*
X191057755Y-100143450D01*
X190840248Y-100072778D01*
X190670826Y-100045944D01*
X190614354Y-100037000D01*
X190385646Y-100037000D01*
X190310349Y-100048926D01*
X190159753Y-100072778D01*
X190159750Y-100072778D01*
X189942244Y-100143450D01*
X189738461Y-100247283D01*
X189664049Y-100301347D01*
X189553434Y-100381714D01*
X189553432Y-100381716D01*
X189553431Y-100381716D01*
X189391715Y-100543432D01*
X189330318Y-100627938D01*
X189274987Y-100670603D01*
X189205374Y-100676582D01*
X189143579Y-100643976D01*
X189129682Y-100627938D01*
X189068288Y-100543437D01*
X189068286Y-100543434D01*
X188906566Y-100381714D01*
X188721538Y-100247283D01*
X188581286Y-100175821D01*
X188517755Y-100143450D01*
X188300248Y-100072778D01*
X188130826Y-100045944D01*
X188074354Y-100037000D01*
X187845646Y-100037000D01*
X187770349Y-100048926D01*
X187619753Y-100072778D01*
X187619750Y-100072778D01*
X187402244Y-100143450D01*
X187198461Y-100247283D01*
X187124049Y-100301347D01*
X187013434Y-100381714D01*
X187013432Y-100381716D01*
X187013431Y-100381716D01*
X186851715Y-100543432D01*
X186790318Y-100627938D01*
X186734987Y-100670603D01*
X186665374Y-100676582D01*
X186603579Y-100643976D01*
X186589682Y-100627938D01*
X186528288Y-100543437D01*
X186528286Y-100543434D01*
X186366566Y-100381714D01*
X186181538Y-100247283D01*
X186041286Y-100175821D01*
X185977755Y-100143450D01*
X185760248Y-100072778D01*
X185590826Y-100045944D01*
X185534354Y-100037000D01*
X185305646Y-100037000D01*
X185230349Y-100048926D01*
X185079753Y-100072778D01*
X185079750Y-100072778D01*
X184862244Y-100143450D01*
X184658461Y-100247283D01*
X184584049Y-100301347D01*
X184473434Y-100381714D01*
X184473432Y-100381716D01*
X184473431Y-100381716D01*
X184311715Y-100543432D01*
X184250318Y-100627938D01*
X184194987Y-100670603D01*
X184125374Y-100676582D01*
X184063579Y-100643976D01*
X184049682Y-100627938D01*
X183988288Y-100543437D01*
X183988286Y-100543434D01*
X183826566Y-100381714D01*
X183641538Y-100247283D01*
X183501286Y-100175821D01*
X183437755Y-100143450D01*
X183220248Y-100072778D01*
X183050826Y-100045944D01*
X182994354Y-100037000D01*
X182765646Y-100037000D01*
X182690349Y-100048926D01*
X182539753Y-100072778D01*
X182539750Y-100072778D01*
X182322244Y-100143450D01*
X182118461Y-100247283D01*
X182044049Y-100301347D01*
X181933434Y-100381714D01*
X181933432Y-100381716D01*
X181933431Y-100381716D01*
X181771715Y-100543432D01*
X181710318Y-100627938D01*
X181654987Y-100670603D01*
X181585374Y-100676582D01*
X181523579Y-100643976D01*
X181509682Y-100627938D01*
X181448288Y-100543437D01*
X181448286Y-100543434D01*
X181286566Y-100381714D01*
X181101538Y-100247283D01*
X180961286Y-100175821D01*
X180897755Y-100143450D01*
X180680248Y-100072778D01*
X180510826Y-100045944D01*
X180454354Y-100037000D01*
X180225646Y-100037000D01*
X180150349Y-100048926D01*
X179999753Y-100072778D01*
X179999750Y-100072778D01*
X179782244Y-100143450D01*
X179578461Y-100247283D01*
X179504049Y-100301347D01*
X179393434Y-100381714D01*
X179393432Y-100381716D01*
X179393431Y-100381716D01*
X179231715Y-100543432D01*
X179170318Y-100627938D01*
X179114987Y-100670603D01*
X179045374Y-100676582D01*
X178983579Y-100643976D01*
X178969682Y-100627938D01*
X178908288Y-100543437D01*
X178908286Y-100543434D01*
X178746566Y-100381714D01*
X178561538Y-100247283D01*
X178421286Y-100175821D01*
X178357755Y-100143450D01*
X178140248Y-100072778D01*
X177970826Y-100045944D01*
X177914354Y-100037000D01*
X177685646Y-100037000D01*
X177610349Y-100048926D01*
X177459753Y-100072778D01*
X177459750Y-100072778D01*
X177242244Y-100143450D01*
X177038461Y-100247283D01*
X176964049Y-100301347D01*
X176853434Y-100381714D01*
X176853432Y-100381716D01*
X176853431Y-100381716D01*
X176691715Y-100543432D01*
X176630318Y-100627938D01*
X176574987Y-100670603D01*
X176505374Y-100676582D01*
X176443579Y-100643976D01*
X176429682Y-100627938D01*
X176368288Y-100543437D01*
X176368286Y-100543434D01*
X176206566Y-100381714D01*
X176021538Y-100247283D01*
X175881286Y-100175821D01*
X175817755Y-100143450D01*
X175600248Y-100072778D01*
X175430826Y-100045944D01*
X175374354Y-100037000D01*
X175145646Y-100037000D01*
X175070349Y-100048926D01*
X174919753Y-100072778D01*
X174919750Y-100072778D01*
X174702244Y-100143450D01*
X174498461Y-100247283D01*
X174424049Y-100301347D01*
X174313434Y-100381714D01*
X174313432Y-100381716D01*
X174313431Y-100381716D01*
X174151715Y-100543432D01*
X174090318Y-100627938D01*
X174034987Y-100670603D01*
X173965374Y-100676582D01*
X173903579Y-100643976D01*
X173889682Y-100627938D01*
X173828288Y-100543437D01*
X173828286Y-100543434D01*
X173666566Y-100381714D01*
X173481538Y-100247283D01*
X173341286Y-100175821D01*
X173277755Y-100143450D01*
X173060248Y-100072778D01*
X172890826Y-100045944D01*
X172834354Y-100037000D01*
X172605646Y-100037000D01*
X172530349Y-100048926D01*
X172379753Y-100072778D01*
X172379750Y-100072778D01*
X172162244Y-100143450D01*
X171958461Y-100247283D01*
X171884049Y-100301347D01*
X171773434Y-100381714D01*
X171773432Y-100381716D01*
X171773431Y-100381716D01*
X171611715Y-100543432D01*
X171550318Y-100627938D01*
X171494987Y-100670603D01*
X171425374Y-100676582D01*
X171363579Y-100643976D01*
X171349682Y-100627938D01*
X171288288Y-100543437D01*
X171288286Y-100543434D01*
X171126566Y-100381714D01*
X170941538Y-100247283D01*
X170801286Y-100175821D01*
X170737755Y-100143450D01*
X170520248Y-100072778D01*
X170350826Y-100045944D01*
X170294354Y-100037000D01*
X170065646Y-100037000D01*
X169990349Y-100048926D01*
X169839753Y-100072778D01*
X169839750Y-100072778D01*
X169622244Y-100143450D01*
X169418461Y-100247283D01*
X169344049Y-100301347D01*
X169233434Y-100381714D01*
X169233432Y-100381716D01*
X169233431Y-100381716D01*
X169071715Y-100543432D01*
X169010318Y-100627938D01*
X168954987Y-100670603D01*
X168885374Y-100676582D01*
X168823579Y-100643976D01*
X168809682Y-100627938D01*
X168748288Y-100543437D01*
X168748286Y-100543434D01*
X168586566Y-100381714D01*
X168401538Y-100247283D01*
X168261286Y-100175821D01*
X168197755Y-100143450D01*
X167980248Y-100072778D01*
X167810826Y-100045944D01*
X167754354Y-100037000D01*
X167525646Y-100037000D01*
X167450349Y-100048926D01*
X167299753Y-100072778D01*
X167299750Y-100072778D01*
X167082244Y-100143450D01*
X166878461Y-100247283D01*
X166804049Y-100301347D01*
X166693434Y-100381714D01*
X166693432Y-100381716D01*
X166693431Y-100381716D01*
X166531716Y-100543431D01*
X166531709Y-100543440D01*
X166470007Y-100628364D01*
X166414677Y-100671030D01*
X166345063Y-100677008D01*
X166305710Y-100656242D01*
X166288651Y-100654899D01*
X165582962Y-101360589D01*
X165565925Y-101297007D01*
X165500099Y-101182993D01*
X165407007Y-101089901D01*
X165292993Y-101024075D01*
X165229408Y-101007037D01*
X165935099Y-100301347D01*
X165861276Y-100247711D01*
X165854458Y-100244237D01*
X165803663Y-100196262D01*
X165790812Y-100144364D01*
X165106447Y-99460000D01*
X165112661Y-99460000D01*
X165214394Y-99432741D01*
X165305606Y-99380080D01*
X165380080Y-99305606D01*
X165432741Y-99214394D01*
X165460000Y-99112661D01*
X165460000Y-99106448D01*
X166139474Y-99785922D01*
X166139474Y-99785921D01*
X166171859Y-99741349D01*
X166264755Y-99559031D01*
X166327990Y-99364417D01*
X166360000Y-99162317D01*
X166360000Y-98957682D01*
X166327990Y-98755582D01*
X166264755Y-98560968D01*
X166171859Y-98378650D01*
X166139474Y-98334077D01*
X166139474Y-98334076D01*
X165460000Y-99013551D01*
X165460000Y-99007339D01*
X165432741Y-98905606D01*
X165380080Y-98814394D01*
X165305606Y-98739920D01*
X165214394Y-98687259D01*
X165112661Y-98660000D01*
X165106446Y-98660000D01*
X165785922Y-97980524D01*
X165785921Y-97980523D01*
X165741359Y-97948147D01*
X165741350Y-97948141D01*
X165559031Y-97855244D01*
X165364417Y-97792009D01*
X165162317Y-97760000D01*
X164957683Y-97760000D01*
X164755582Y-97792009D01*
X164560968Y-97855244D01*
X164378644Y-97948143D01*
X164334077Y-97980523D01*
X164334077Y-97980524D01*
X165013554Y-98660000D01*
X165007339Y-98660000D01*
X164905606Y-98687259D01*
X164814394Y-98739920D01*
X164739920Y-98814394D01*
X164687259Y-98905606D01*
X164660000Y-99007339D01*
X164660000Y-99013553D01*
X163980524Y-98334077D01*
X163980523Y-98334077D01*
X163948143Y-98378644D01*
X163920765Y-98432378D01*
X163872790Y-98483174D01*
X163804969Y-98499969D01*
X163738834Y-98477431D01*
X163699795Y-98432378D01*
X163672284Y-98378385D01*
X163551971Y-98212786D01*
X163407213Y-98068028D01*
X163241613Y-97947715D01*
X163241612Y-97947714D01*
X163241610Y-97947713D01*
X163184653Y-97918691D01*
X163059223Y-97854781D01*
X162864534Y-97791522D01*
X162689995Y-97763878D01*
X162662352Y-97759500D01*
X162457648Y-97759500D01*
X162433329Y-97763351D01*
X162255465Y-97791522D01*
X162060776Y-97854781D01*
X161878386Y-97947715D01*
X161712786Y-98068028D01*
X161568028Y-98212786D01*
X161447715Y-98378386D01*
X161354781Y-98560776D01*
X161291522Y-98755465D01*
X161259500Y-98957648D01*
X161259500Y-99162351D01*
X161291522Y-99364534D01*
X161354781Y-99559223D01*
X161397248Y-99642567D01*
X161447585Y-99741359D01*
X161447715Y-99741613D01*
X161568028Y-99907213D01*
X161712779Y-100051964D01*
X161716038Y-100054748D01*
X161716287Y-100055130D01*
X161716703Y-100055320D01*
X161735378Y-100084380D01*
X161754227Y-100113258D01*
X161754313Y-100113843D01*
X161754477Y-100114098D01*
X161759500Y-100149033D01*
X161759500Y-100212409D01*
X161739815Y-100279448D01*
X161708386Y-100312727D01*
X161613432Y-100381715D01*
X161451716Y-100543431D01*
X161451711Y-100543437D01*
X161382728Y-100638385D01*
X161327398Y-100681051D01*
X161282410Y-100689500D01*
X160292940Y-100689500D01*
X160225901Y-100669815D01*
X160205259Y-100653181D01*
X157046819Y-97494741D01*
X157013334Y-97433418D01*
X157010500Y-97407060D01*
X157010500Y-89865799D01*
X157030185Y-89798760D01*
X157082989Y-89753005D01*
X157152147Y-89743061D01*
X157181946Y-89751236D01*
X157217334Y-89765894D01*
X157217337Y-89765894D01*
X157217341Y-89765896D01*
X157391304Y-89800499D01*
X157391307Y-89800500D01*
X157391309Y-89800500D01*
X157568693Y-89800500D01*
X157568694Y-89800499D01*
X157626682Y-89788964D01*
X157742658Y-89765896D01*
X157742661Y-89765894D01*
X157742666Y-89765894D01*
X157906547Y-89698013D01*
X158054035Y-89599464D01*
X158054038Y-89599461D01*
X158066681Y-89586819D01*
X158128004Y-89553334D01*
X158154362Y-89550500D01*
X162514071Y-89550500D01*
X162598615Y-89533682D01*
X162639744Y-89525501D01*
X162758127Y-89476465D01*
X162806544Y-89444114D01*
X162806544Y-89444113D01*
X162806546Y-89444113D01*
X162835606Y-89424695D01*
X162864669Y-89405277D01*
X164587503Y-87682441D01*
X164648824Y-87648958D01*
X164713500Y-87652192D01*
X164731969Y-87658194D01*
X164759754Y-87667222D01*
X164872700Y-87685111D01*
X164985646Y-87703000D01*
X164985647Y-87703000D01*
X165214353Y-87703000D01*
X165214354Y-87703000D01*
X165440245Y-87667222D01*
X165440248Y-87667221D01*
X165440249Y-87667221D01*
X165657755Y-87596549D01*
X165657755Y-87596548D01*
X165657758Y-87596548D01*
X165861538Y-87492717D01*
X166046566Y-87358286D01*
X166208286Y-87196566D01*
X166269683Y-87112059D01*
X166325012Y-87069396D01*
X166394625Y-87063417D01*
X166456420Y-87096023D01*
X166470314Y-87112056D01*
X166531714Y-87196566D01*
X166693434Y-87358286D01*
X166878462Y-87492717D01*
X167082242Y-87596548D01*
X167082244Y-87596549D01*
X167299751Y-87667221D01*
X167299752Y-87667221D01*
X167299755Y-87667222D01*
X167525646Y-87703000D01*
X167525647Y-87703000D01*
X167754353Y-87703000D01*
X167754354Y-87703000D01*
X167980245Y-87667222D01*
X167980248Y-87667221D01*
X167980249Y-87667221D01*
X168197755Y-87596549D01*
X168197755Y-87596548D01*
X168197758Y-87596548D01*
X168401538Y-87492717D01*
X168586566Y-87358286D01*
X168748286Y-87196566D01*
X168809683Y-87112059D01*
X168865012Y-87069396D01*
X168934625Y-87063417D01*
X168996420Y-87096023D01*
X169010314Y-87112056D01*
X169071714Y-87196566D01*
X169233434Y-87358286D01*
X169418462Y-87492717D01*
X169622242Y-87596548D01*
X169622244Y-87596549D01*
X169839751Y-87667221D01*
X169839752Y-87667221D01*
X169839755Y-87667222D01*
X170065646Y-87703000D01*
X170065647Y-87703000D01*
X170294353Y-87703000D01*
X170294354Y-87703000D01*
X170520245Y-87667222D01*
X170520248Y-87667221D01*
X170520249Y-87667221D01*
X170737755Y-87596549D01*
X170737755Y-87596548D01*
X170737758Y-87596548D01*
X170941538Y-87492717D01*
X171126566Y-87358286D01*
X171288286Y-87196566D01*
X171349683Y-87112059D01*
X171405012Y-87069396D01*
X171474625Y-87063417D01*
X171536420Y-87096023D01*
X171550314Y-87112056D01*
X171611714Y-87196566D01*
X171773434Y-87358286D01*
X171958462Y-87492717D01*
X172162242Y-87596548D01*
X172162244Y-87596549D01*
X172379751Y-87667221D01*
X172379752Y-87667221D01*
X172379755Y-87667222D01*
X172605646Y-87703000D01*
X172605647Y-87703000D01*
X172834353Y-87703000D01*
X172834354Y-87703000D01*
X173060245Y-87667222D01*
X173060248Y-87667221D01*
X173060249Y-87667221D01*
X173277755Y-87596549D01*
X173277755Y-87596548D01*
X173277758Y-87596548D01*
X173481538Y-87492717D01*
X173666566Y-87358286D01*
X173828286Y-87196566D01*
X173889683Y-87112059D01*
X173945012Y-87069396D01*
X174014625Y-87063417D01*
X174076420Y-87096023D01*
X174090314Y-87112056D01*
X174151714Y-87196566D01*
X174313434Y-87358286D01*
X174498462Y-87492717D01*
X174702242Y-87596548D01*
X174702244Y-87596549D01*
X174919751Y-87667221D01*
X174919752Y-87667221D01*
X174919755Y-87667222D01*
X175145646Y-87703000D01*
X175145647Y-87703000D01*
X175374353Y-87703000D01*
X175374354Y-87703000D01*
X175600245Y-87667222D01*
X175600248Y-87667221D01*
X175600249Y-87667221D01*
X175817755Y-87596549D01*
X175817755Y-87596548D01*
X175817758Y-87596548D01*
X176021538Y-87492717D01*
X176206566Y-87358286D01*
X176368286Y-87196566D01*
X176429683Y-87112059D01*
X176485012Y-87069396D01*
X176554625Y-87063417D01*
X176616420Y-87096023D01*
X176630314Y-87112056D01*
X176691714Y-87196566D01*
X176853434Y-87358286D01*
X177038462Y-87492717D01*
X177242242Y-87596548D01*
X177242244Y-87596549D01*
X177459751Y-87667221D01*
X177459752Y-87667221D01*
X177459755Y-87667222D01*
X177685646Y-87703000D01*
X177685647Y-87703000D01*
X177914353Y-87703000D01*
X177914354Y-87703000D01*
X178140245Y-87667222D01*
X178140248Y-87667221D01*
X178140249Y-87667221D01*
X178357755Y-87596549D01*
X178357755Y-87596548D01*
X178357758Y-87596548D01*
X178561538Y-87492717D01*
X178746566Y-87358286D01*
X178908286Y-87196566D01*
X178969683Y-87112059D01*
X179025012Y-87069396D01*
X179094625Y-87063417D01*
X179156420Y-87096023D01*
X179170314Y-87112056D01*
X179231714Y-87196566D01*
X179393434Y-87358286D01*
X179578462Y-87492717D01*
X179782242Y-87596548D01*
X179782244Y-87596549D01*
X179999751Y-87667221D01*
X179999752Y-87667221D01*
X179999755Y-87667222D01*
X180225646Y-87703000D01*
X180225647Y-87703000D01*
X180454353Y-87703000D01*
X180454354Y-87703000D01*
X180680245Y-87667222D01*
X180680248Y-87667221D01*
X180680249Y-87667221D01*
X180897755Y-87596549D01*
X180897755Y-87596548D01*
X180897758Y-87596548D01*
X181101538Y-87492717D01*
X181286566Y-87358286D01*
X181448286Y-87196566D01*
X181509683Y-87112059D01*
X181565012Y-87069396D01*
X181634625Y-87063417D01*
X181696420Y-87096023D01*
X181710314Y-87112056D01*
X181771714Y-87196566D01*
X181933434Y-87358286D01*
X182118462Y-87492717D01*
X182322242Y-87596548D01*
X182322244Y-87596549D01*
X182539751Y-87667221D01*
X182539752Y-87667221D01*
X182539755Y-87667222D01*
X182765646Y-87703000D01*
X182765647Y-87703000D01*
X182994353Y-87703000D01*
X182994354Y-87703000D01*
X183220245Y-87667222D01*
X183220248Y-87667221D01*
X183220249Y-87667221D01*
X183437755Y-87596549D01*
X183437755Y-87596548D01*
X183437758Y-87596548D01*
X183641538Y-87492717D01*
X183826566Y-87358286D01*
X183988286Y-87196566D01*
X184049683Y-87112059D01*
X184105012Y-87069396D01*
X184174625Y-87063417D01*
X184236420Y-87096023D01*
X184250314Y-87112056D01*
X184311714Y-87196566D01*
X184473434Y-87358286D01*
X184658462Y-87492717D01*
X184862242Y-87596548D01*
X184862244Y-87596549D01*
X185079751Y-87667221D01*
X185079752Y-87667221D01*
X185079755Y-87667222D01*
X185305646Y-87703000D01*
X185305647Y-87703000D01*
X185534353Y-87703000D01*
X185534354Y-87703000D01*
X185760245Y-87667222D01*
X185760248Y-87667221D01*
X185760249Y-87667221D01*
X185977755Y-87596549D01*
X185977755Y-87596548D01*
X185977758Y-87596548D01*
X186181538Y-87492717D01*
X186366566Y-87358286D01*
X186528286Y-87196566D01*
X186589683Y-87112059D01*
X186645012Y-87069396D01*
X186714625Y-87063417D01*
X186776420Y-87096023D01*
X186790314Y-87112056D01*
X186851714Y-87196566D01*
X187013434Y-87358286D01*
X187198462Y-87492717D01*
X187402242Y-87596548D01*
X187402244Y-87596549D01*
X187619751Y-87667221D01*
X187619752Y-87667221D01*
X187619755Y-87667222D01*
X187845646Y-87703000D01*
X187845647Y-87703000D01*
X188074353Y-87703000D01*
X188074354Y-87703000D01*
X188300245Y-87667222D01*
X188300248Y-87667221D01*
X188300249Y-87667221D01*
X188517755Y-87596549D01*
X188517755Y-87596548D01*
X188517758Y-87596548D01*
X188721538Y-87492717D01*
X188906566Y-87358286D01*
X189068286Y-87196566D01*
X189129683Y-87112059D01*
X189185012Y-87069396D01*
X189254625Y-87063417D01*
X189316420Y-87096023D01*
X189330314Y-87112056D01*
X189391714Y-87196566D01*
X189553434Y-87358286D01*
X189738462Y-87492717D01*
X189942242Y-87596548D01*
X189942244Y-87596549D01*
X190159751Y-87667221D01*
X190159752Y-87667221D01*
X190159755Y-87667222D01*
X190385646Y-87703000D01*
X190385647Y-87703000D01*
X190614353Y-87703000D01*
X190614354Y-87703000D01*
X190840245Y-87667222D01*
X190840248Y-87667221D01*
X190840249Y-87667221D01*
X191057755Y-87596549D01*
X191057755Y-87596548D01*
X191057758Y-87596548D01*
X191261538Y-87492717D01*
X191446566Y-87358286D01*
X191608286Y-87196566D01*
X191742717Y-87011538D01*
X191764796Y-86968204D01*
X191812770Y-86917409D01*
X191875281Y-86900500D01*
X197720432Y-86900500D01*
X197787471Y-86920185D01*
X197789317Y-86921393D01*
X197811873Y-86936465D01*
X197930256Y-86985501D01*
X198055926Y-87010498D01*
X198055930Y-87010499D01*
X198055931Y-87010499D01*
X198184070Y-87010499D01*
X198184071Y-87010498D01*
X198309744Y-86985501D01*
X198428127Y-86936465D01*
X198534669Y-86865277D01*
X200340734Y-85059212D01*
X202187819Y-83212128D01*
X202249142Y-83178643D01*
X202318834Y-83183627D01*
G37*
%TD.AperFunction*%
%TA.AperFunction,Conductor*%
G36*
X164634075Y-101682993D02*
G01*
X164699901Y-101797007D01*
X164792993Y-101890099D01*
X164907007Y-101955925D01*
X164970590Y-101972962D01*
X164264899Y-102678651D01*
X164338725Y-102732288D01*
X164338731Y-102732292D01*
X164542431Y-102836082D01*
X164759875Y-102906734D01*
X164985687Y-102942500D01*
X165214313Y-102942500D01*
X165440124Y-102906734D01*
X165440125Y-102906734D01*
X165657568Y-102836082D01*
X165861276Y-102732288D01*
X165935098Y-102678651D01*
X165229409Y-101972962D01*
X165292993Y-101955925D01*
X165407007Y-101890099D01*
X165500099Y-101797007D01*
X165565925Y-101682993D01*
X165582962Y-101619410D01*
X166288651Y-102325099D01*
X166305503Y-102323772D01*
X166324699Y-102308970D01*
X166394312Y-102302989D01*
X166456107Y-102335594D01*
X166470007Y-102351634D01*
X166483161Y-102369739D01*
X166531714Y-102436566D01*
X166693434Y-102598286D01*
X166878462Y-102732717D01*
X167081327Y-102836082D01*
X167082244Y-102836549D01*
X167299751Y-102907221D01*
X167299752Y-102907221D01*
X167299755Y-102907222D01*
X167525646Y-102943000D01*
X167525647Y-102943000D01*
X167754353Y-102943000D01*
X167754354Y-102943000D01*
X167980245Y-102907222D01*
X168026499Y-102892192D01*
X168096339Y-102890198D01*
X168152497Y-102922443D01*
X170446990Y-105216936D01*
X170480475Y-105278259D01*
X170475491Y-105347951D01*
X170433619Y-105403884D01*
X170368155Y-105428301D01*
X170339912Y-105427090D01*
X170279361Y-105417500D01*
X170080639Y-105417500D01*
X170020090Y-105427090D01*
X169884362Y-105448587D01*
X169695370Y-105509993D01*
X169695367Y-105509994D01*
X169518305Y-105600213D01*
X169357533Y-105717021D01*
X169217021Y-105857533D01*
X169100213Y-106018305D01*
X169009994Y-106195367D01*
X169009993Y-106195370D01*
X168948587Y-106384362D01*
X168917500Y-106580639D01*
X168917500Y-106779360D01*
X168948587Y-106975637D01*
X169009993Y-107164629D01*
X169009994Y-107164632D01*
X169081772Y-107305502D01*
X169100213Y-107341694D01*
X169217019Y-107502464D01*
X169357536Y-107642981D01*
X169518306Y-107759787D01*
X169636832Y-107820179D01*
X169674780Y-107839515D01*
X169725576Y-107887490D01*
X169742371Y-107955311D01*
X169719833Y-108021446D01*
X169674780Y-108060485D01*
X169518305Y-108140213D01*
X169357533Y-108257021D01*
X169217021Y-108397533D01*
X169100213Y-108558305D01*
X169009994Y-108735367D01*
X169009993Y-108735370D01*
X168948587Y-108924362D01*
X168917500Y-109120639D01*
X168917500Y-109319360D01*
X168948587Y-109515637D01*
X169009993Y-109704629D01*
X169009994Y-109704632D01*
X169081772Y-109845502D01*
X169100213Y-109881694D01*
X169217019Y-110042464D01*
X169357536Y-110182981D01*
X169518306Y-110299787D01*
X169636832Y-110360179D01*
X169674780Y-110379515D01*
X169725576Y-110427490D01*
X169742371Y-110495311D01*
X169719833Y-110561446D01*
X169674780Y-110600485D01*
X169518305Y-110680213D01*
X169357533Y-110797021D01*
X169217021Y-110937533D01*
X169100213Y-111098305D01*
X169009994Y-111275367D01*
X169009993Y-111275370D01*
X168948587Y-111464362D01*
X168917500Y-111660639D01*
X168917500Y-111859360D01*
X168948587Y-112055637D01*
X169009993Y-112244629D01*
X169009994Y-112244632D01*
X169081772Y-112385502D01*
X169100213Y-112421694D01*
X169217019Y-112582464D01*
X169357536Y-112722981D01*
X169518306Y-112839787D01*
X169636832Y-112900179D01*
X169674780Y-112919515D01*
X169725576Y-112967490D01*
X169742371Y-113035311D01*
X169719833Y-113101446D01*
X169674780Y-113140485D01*
X169518305Y-113220213D01*
X169357533Y-113337021D01*
X169217021Y-113477533D01*
X169100213Y-113638305D01*
X169009994Y-113815367D01*
X169009993Y-113815370D01*
X168948587Y-114004362D01*
X168917500Y-114200639D01*
X168917500Y-114399360D01*
X168948587Y-114595637D01*
X169009993Y-114784629D01*
X169009994Y-114784632D01*
X169023069Y-114810292D01*
X169100213Y-114961694D01*
X169217019Y-115122464D01*
X169357536Y-115262981D01*
X169518306Y-115379787D01*
X169636832Y-115440179D01*
X169674780Y-115459515D01*
X169725576Y-115507490D01*
X169742371Y-115575311D01*
X169719833Y-115641446D01*
X169674780Y-115680485D01*
X169518305Y-115760213D01*
X169357533Y-115877021D01*
X169231374Y-116003181D01*
X169170051Y-116036666D01*
X169143693Y-116039500D01*
X165482940Y-116039500D01*
X165415901Y-116019815D01*
X165395259Y-116003181D01*
X163396819Y-114004741D01*
X163363334Y-113943418D01*
X163360500Y-113917060D01*
X163360500Y-102767589D01*
X163360897Y-102766234D01*
X163360530Y-102764872D01*
X163370709Y-102732820D01*
X163380185Y-102700550D01*
X163381390Y-102699189D01*
X163381679Y-102698280D01*
X163387951Y-102691782D01*
X163405370Y-102672119D01*
X163408399Y-102669608D01*
X163506566Y-102598286D01*
X163668286Y-102436566D01*
X163729991Y-102351635D01*
X163785321Y-102308970D01*
X163854934Y-102302991D01*
X163894290Y-102323756D01*
X163911347Y-102325099D01*
X164617037Y-101619409D01*
X164634075Y-101682993D01*
G37*
%TD.AperFunction*%
%TA.AperFunction,Conductor*%
G36*
X164660000Y-99112661D02*
G01*
X164687259Y-99214394D01*
X164739920Y-99305606D01*
X164814394Y-99380080D01*
X164905606Y-99432741D01*
X165007339Y-99460000D01*
X165013553Y-99460000D01*
X164334076Y-100139474D01*
X164336937Y-100175821D01*
X164325572Y-100238229D01*
X164286033Y-100322480D01*
X164970590Y-101007037D01*
X164907007Y-101024075D01*
X164792993Y-101089901D01*
X164699901Y-101182993D01*
X164634075Y-101297007D01*
X164617037Y-101360590D01*
X163911347Y-100654899D01*
X163894490Y-100656226D01*
X163875293Y-100671029D01*
X163805679Y-100677007D01*
X163743885Y-100644399D01*
X163729990Y-100628362D01*
X163668288Y-100543437D01*
X163668283Y-100543431D01*
X163565232Y-100440380D01*
X163506566Y-100381714D01*
X163408421Y-100310407D01*
X163405370Y-100307878D01*
X163387965Y-100282057D01*
X163368949Y-100257396D01*
X163368024Y-100252475D01*
X163366317Y-100249942D01*
X163366154Y-100242515D01*
X163360500Y-100212409D01*
X163360500Y-100149033D01*
X163380185Y-100081994D01*
X163403962Y-100054748D01*
X163407210Y-100051972D01*
X163407219Y-100051966D01*
X163551966Y-99907219D01*
X163551968Y-99907215D01*
X163551971Y-99907213D01*
X163672286Y-99741611D01*
X163672415Y-99741359D01*
X163699795Y-99687621D01*
X163747769Y-99636826D01*
X163815589Y-99620030D01*
X163881725Y-99642567D01*
X163920765Y-99687621D01*
X163948141Y-99741350D01*
X163948147Y-99741359D01*
X163980523Y-99785921D01*
X163980524Y-99785922D01*
X164660000Y-99106446D01*
X164660000Y-99112661D01*
G37*
%TD.AperFunction*%
%TA.AperFunction,Conductor*%
G36*
X160289987Y-82082041D02*
G01*
X160295349Y-82080955D01*
X160323153Y-82091780D01*
X160351777Y-82100185D01*
X160356711Y-82104845D01*
X160360458Y-82106304D01*
X160385056Y-82131615D01*
X160406130Y-82160622D01*
X160550886Y-82305378D01*
X160693079Y-82408685D01*
X160716490Y-82425694D01*
X160796082Y-82466248D01*
X160898876Y-82518625D01*
X160898878Y-82518625D01*
X160898881Y-82518627D01*
X161003237Y-82552534D01*
X161093565Y-82581884D01*
X161190556Y-82597246D01*
X161295748Y-82613907D01*
X161295749Y-82613907D01*
X161500451Y-82613907D01*
X161500452Y-82613907D01*
X161702634Y-82581884D01*
X161897319Y-82518627D01*
X162079710Y-82425694D01*
X162227926Y-82318010D01*
X162245313Y-82305378D01*
X162245315Y-82305375D01*
X162245319Y-82305373D01*
X162390066Y-82160626D01*
X162390072Y-82160617D01*
X162392848Y-82157369D01*
X162451358Y-82119180D01*
X162487133Y-82113907D01*
X167250514Y-82113907D01*
X167317553Y-82133592D01*
X167363308Y-82186396D01*
X167373252Y-82255554D01*
X167372131Y-82262098D01*
X167361009Y-82318010D01*
X167361009Y-82495401D01*
X167395612Y-82669364D01*
X167395615Y-82669373D01*
X167463492Y-82833246D01*
X167463499Y-82833259D01*
X167562044Y-82980740D01*
X167562047Y-82980744D01*
X167687470Y-83106167D01*
X167687474Y-83106170D01*
X167834955Y-83204715D01*
X167834968Y-83204722D01*
X167957872Y-83255629D01*
X167998843Y-83272600D01*
X167998845Y-83272600D01*
X167998850Y-83272602D01*
X168172813Y-83307205D01*
X168172816Y-83307206D01*
X168172818Y-83307206D01*
X168190701Y-83307206D01*
X168257740Y-83326891D01*
X168278382Y-83343525D01*
X169493181Y-84558324D01*
X169507884Y-84585251D01*
X169524477Y-84611070D01*
X169525368Y-84617270D01*
X169526666Y-84619647D01*
X169529500Y-84646005D01*
X169529500Y-84874718D01*
X169509815Y-84941757D01*
X169461796Y-84985202D01*
X169418464Y-85007281D01*
X169408026Y-85014865D01*
X169233434Y-85141714D01*
X169233432Y-85141716D01*
X169233431Y-85141716D01*
X169071715Y-85303432D01*
X169010318Y-85387938D01*
X168954987Y-85430603D01*
X168885374Y-85436582D01*
X168823579Y-85403976D01*
X168809682Y-85387938D01*
X168798773Y-85372923D01*
X168748286Y-85303434D01*
X168586566Y-85141714D01*
X168401538Y-85007283D01*
X168317197Y-84964309D01*
X168197755Y-84903450D01*
X167980248Y-84832778D01*
X167794067Y-84803290D01*
X167754354Y-84797000D01*
X167525646Y-84797000D01*
X167485933Y-84803290D01*
X167299751Y-84832778D01*
X167253500Y-84847806D01*
X167183659Y-84849801D01*
X167127502Y-84817556D01*
X166016977Y-83707031D01*
X165983492Y-83645708D01*
X165983069Y-83643682D01*
X165965894Y-83557334D01*
X165904565Y-83409271D01*
X165898016Y-83393459D01*
X165898009Y-83393446D01*
X165799464Y-83245965D01*
X165799461Y-83245961D01*
X165674038Y-83120538D01*
X165674034Y-83120535D01*
X165526553Y-83021990D01*
X165526540Y-83021983D01*
X165362667Y-82954106D01*
X165362658Y-82954103D01*
X165188694Y-82919500D01*
X165188691Y-82919500D01*
X165011309Y-82919500D01*
X165011306Y-82919500D01*
X164837341Y-82954103D01*
X164837332Y-82954106D01*
X164673459Y-83021983D01*
X164673446Y-83021990D01*
X164525965Y-83120535D01*
X164525961Y-83120538D01*
X164400538Y-83245961D01*
X164400535Y-83245965D01*
X164301990Y-83393446D01*
X164301983Y-83393459D01*
X164234106Y-83557332D01*
X164234103Y-83557341D01*
X164199500Y-83731304D01*
X164199500Y-83908695D01*
X164234103Y-84082658D01*
X164234106Y-84082667D01*
X164301983Y-84246540D01*
X164301990Y-84246553D01*
X164400535Y-84394034D01*
X164400538Y-84394038D01*
X164525961Y-84519461D01*
X164525965Y-84519464D01*
X164673446Y-84618009D01*
X164673459Y-84618016D01*
X164691421Y-84625456D01*
X164745825Y-84669296D01*
X164767890Y-84735590D01*
X164750611Y-84803290D01*
X164699474Y-84850901D01*
X164682287Y-84857948D01*
X164542244Y-84903450D01*
X164338461Y-85007283D01*
X164266988Y-85059212D01*
X164153434Y-85141714D01*
X164153432Y-85141716D01*
X164153431Y-85141716D01*
X163991715Y-85303432D01*
X163930318Y-85387938D01*
X163874987Y-85430603D01*
X163805374Y-85436582D01*
X163743579Y-85403976D01*
X163729682Y-85387938D01*
X163718773Y-85372923D01*
X163668286Y-85303434D01*
X163506566Y-85141714D01*
X163321538Y-85007283D01*
X163237197Y-84964309D01*
X163117755Y-84903450D01*
X162900248Y-84832778D01*
X162714067Y-84803290D01*
X162674354Y-84797000D01*
X162445646Y-84797000D01*
X162405933Y-84803290D01*
X162219753Y-84832778D01*
X162219750Y-84832778D01*
X162002244Y-84903450D01*
X161798461Y-85007283D01*
X161726988Y-85059212D01*
X161613434Y-85141714D01*
X161613432Y-85141716D01*
X161613431Y-85141716D01*
X161451716Y-85303431D01*
X161451716Y-85303432D01*
X161451714Y-85303434D01*
X161393980Y-85382896D01*
X161317283Y-85488461D01*
X161295204Y-85531795D01*
X161247230Y-85582591D01*
X161184719Y-85599500D01*
X158000305Y-85599500D01*
X157933266Y-85579815D01*
X157931414Y-85578602D01*
X157906550Y-85561988D01*
X157906547Y-85561987D01*
X157742667Y-85494106D01*
X157742658Y-85494103D01*
X157568694Y-85459500D01*
X157568691Y-85459500D01*
X157391309Y-85459500D01*
X157391306Y-85459500D01*
X157217341Y-85494103D01*
X157217337Y-85494105D01*
X157217335Y-85494105D01*
X157217334Y-85494106D01*
X157181951Y-85508762D01*
X157112481Y-85516229D01*
X157050002Y-85484953D01*
X157014351Y-85424864D01*
X157010500Y-85394200D01*
X157010500Y-82735154D01*
X157030185Y-82668115D01*
X157082989Y-82622360D01*
X157095496Y-82617448D01*
X157122179Y-82608605D01*
X157254334Y-82564814D01*
X157403656Y-82472712D01*
X157527712Y-82348656D01*
X157619814Y-82199334D01*
X157631028Y-82165494D01*
X157670801Y-82108050D01*
X157735317Y-82081228D01*
X157748733Y-82080500D01*
X160284738Y-82080500D01*
X160289987Y-82082041D01*
G37*
%TD.AperFunction*%
%TA.AperFunction,Conductor*%
G36*
X171259474Y-71805922D02*
G01*
X171259474Y-71805921D01*
X171291859Y-71761349D01*
X171329323Y-71687821D01*
X171377297Y-71637024D01*
X171445118Y-71620228D01*
X171511253Y-71642764D01*
X171550294Y-71687819D01*
X171608141Y-71801350D01*
X171608147Y-71801359D01*
X171640523Y-71845921D01*
X171640524Y-71845922D01*
X172320000Y-71166446D01*
X172320000Y-71172661D01*
X172347259Y-71274394D01*
X172399920Y-71365606D01*
X172474394Y-71440080D01*
X172565606Y-71492741D01*
X172667339Y-71520000D01*
X172673553Y-71520000D01*
X171994076Y-72199474D01*
X172038652Y-72231861D01*
X172131628Y-72279234D01*
X172182425Y-72327208D01*
X172199220Y-72395029D01*
X172176683Y-72461164D01*
X172131630Y-72500203D01*
X172038388Y-72547713D01*
X171872786Y-72668028D01*
X171728028Y-72812786D01*
X171607715Y-72978386D01*
X171514781Y-73160776D01*
X171451522Y-73355465D01*
X171419500Y-73557648D01*
X171419500Y-73762351D01*
X171451522Y-73964534D01*
X171514781Y-74159223D01*
X171569912Y-74267422D01*
X171585702Y-74298412D01*
X171607715Y-74341613D01*
X171728028Y-74507213D01*
X171872786Y-74651971D01*
X172027749Y-74764556D01*
X172038390Y-74772287D01*
X172112608Y-74810103D01*
X172131080Y-74819515D01*
X172181876Y-74867490D01*
X172198671Y-74935311D01*
X172176134Y-75001446D01*
X172131080Y-75040485D01*
X172038386Y-75087715D01*
X171872786Y-75208028D01*
X171728028Y-75352786D01*
X171607715Y-75518386D01*
X171514781Y-75700776D01*
X171451522Y-75895465D01*
X171419500Y-76097648D01*
X171419500Y-76302351D01*
X171451522Y-76504534D01*
X171514781Y-76699223D01*
X171555940Y-76780000D01*
X171604019Y-76874361D01*
X171607715Y-76881613D01*
X171728028Y-77047213D01*
X171872784Y-77191969D01*
X171910586Y-77219433D01*
X172018385Y-77297753D01*
X172061051Y-77353081D01*
X172069500Y-77398070D01*
X172069500Y-77534070D01*
X172074066Y-77557022D01*
X172087578Y-77624949D01*
X172094499Y-77659744D01*
X172143535Y-77778127D01*
X172214723Y-77884669D01*
X172214726Y-77884673D01*
X172214727Y-77884674D01*
X175310265Y-80980211D01*
X175343750Y-81041534D01*
X175345057Y-81087290D01*
X175329500Y-81185513D01*
X175329500Y-81374486D01*
X175345057Y-81472708D01*
X175336103Y-81542001D01*
X175310265Y-81579787D01*
X172214722Y-84675331D01*
X172214720Y-84675333D01*
X172188809Y-84714114D01*
X172188806Y-84714119D01*
X172184543Y-84720500D01*
X172143535Y-84781873D01*
X172094499Y-84900256D01*
X172093940Y-84903063D01*
X172088460Y-84913979D01*
X172067573Y-84936358D01*
X172048364Y-84960196D01*
X172041487Y-84964309D01*
X172040788Y-84965059D01*
X172039825Y-84965303D01*
X172033940Y-84968824D01*
X171958463Y-85007281D01*
X171829022Y-85101326D01*
X171773434Y-85141714D01*
X171773432Y-85141716D01*
X171773431Y-85141716D01*
X171611715Y-85303432D01*
X171550318Y-85387938D01*
X171494987Y-85430603D01*
X171425374Y-85436582D01*
X171363579Y-85403976D01*
X171349682Y-85387938D01*
X171338773Y-85372923D01*
X171288286Y-85303434D01*
X171126566Y-85141714D01*
X170941538Y-85007283D01*
X170941537Y-85007282D01*
X170941535Y-85007281D01*
X170898204Y-84985202D01*
X170847408Y-84937227D01*
X170830500Y-84874718D01*
X170830500Y-84261125D01*
X170805502Y-84135458D01*
X170805501Y-84135457D01*
X170805501Y-84135453D01*
X170756465Y-84017070D01*
X170751570Y-84009744D01*
X170751569Y-84009742D01*
X170751569Y-84009741D01*
X170685278Y-83910529D01*
X170685272Y-83910522D01*
X169356680Y-82581931D01*
X169323195Y-82520608D01*
X169328179Y-82450916D01*
X169370051Y-82394983D01*
X169388063Y-82383766D01*
X169539199Y-82306760D01*
X169692073Y-82195690D01*
X169825690Y-82062073D01*
X169936760Y-81909199D01*
X170022547Y-81740832D01*
X170080940Y-81561118D01*
X170101429Y-81431755D01*
X170110500Y-81374486D01*
X170110500Y-81185513D01*
X170080940Y-80998881D01*
X170022545Y-80819163D01*
X169938644Y-80654499D01*
X169936760Y-80650801D01*
X169825690Y-80497927D01*
X169692073Y-80364310D01*
X169692072Y-80364309D01*
X169692071Y-80364308D01*
X169687353Y-80360880D01*
X169684014Y-80356549D01*
X169679040Y-80354278D01*
X169662908Y-80329176D01*
X169644690Y-80305548D01*
X169643437Y-80298879D01*
X169641266Y-80295500D01*
X169636243Y-80260565D01*
X169636243Y-80017997D01*
X169655928Y-79950958D01*
X169687358Y-79917679D01*
X169721172Y-79893112D01*
X169854789Y-79759495D01*
X169965859Y-79606621D01*
X170048495Y-79444436D01*
X170051644Y-79438258D01*
X170051644Y-79438257D01*
X170051646Y-79438254D01*
X170110039Y-79258540D01*
X170117628Y-79210623D01*
X170139599Y-79071908D01*
X170139599Y-78882935D01*
X170110039Y-78696303D01*
X170074526Y-78587007D01*
X170051646Y-78516590D01*
X170051644Y-78516587D01*
X170051644Y-78516585D01*
X169996532Y-78408422D01*
X169965859Y-78348223D01*
X169854789Y-78195349D01*
X169721172Y-78061732D01*
X169687356Y-78037163D01*
X169644691Y-77981833D01*
X169636243Y-77936846D01*
X169636243Y-77219433D01*
X169655928Y-77152394D01*
X169687359Y-77119114D01*
X169692073Y-77115690D01*
X169825690Y-76982073D01*
X169936760Y-76829199D01*
X170022547Y-76660832D01*
X170080940Y-76481118D01*
X170083816Y-76462962D01*
X170110500Y-76294486D01*
X170110500Y-76105513D01*
X170080940Y-75918881D01*
X170033687Y-75773453D01*
X170022547Y-75739168D01*
X170022545Y-75739165D01*
X170022545Y-75739163D01*
X169970331Y-75636688D01*
X169936760Y-75570801D01*
X169825690Y-75417927D01*
X169692073Y-75284310D01*
X169692072Y-75284309D01*
X169692071Y-75284308D01*
X169687353Y-75280880D01*
X169644690Y-75225548D01*
X169636243Y-75180565D01*
X169636243Y-74681608D01*
X169655928Y-74614569D01*
X169672562Y-74593927D01*
X169685989Y-74580500D01*
X169751433Y-74515056D01*
X169862503Y-74362182D01*
X169948290Y-74193815D01*
X170006683Y-74014101D01*
X170020686Y-73925690D01*
X170036243Y-73827469D01*
X170036243Y-73638496D01*
X170006683Y-73451864D01*
X169975361Y-73355466D01*
X169948290Y-73272151D01*
X169948288Y-73272148D01*
X169948288Y-73272146D01*
X169871301Y-73121051D01*
X169862503Y-73103784D01*
X169751433Y-72950910D01*
X169672562Y-72872039D01*
X169639077Y-72810716D01*
X169636243Y-72784358D01*
X169636243Y-72440895D01*
X169655928Y-72373856D01*
X169708732Y-72328101D01*
X169777890Y-72318157D01*
X169798562Y-72322964D01*
X169875582Y-72347990D01*
X170077683Y-72380000D01*
X170282317Y-72380000D01*
X170484417Y-72347990D01*
X170679031Y-72284755D01*
X170861349Y-72191859D01*
X170905921Y-72159474D01*
X170226447Y-71480000D01*
X170232661Y-71480000D01*
X170334394Y-71452741D01*
X170425606Y-71400080D01*
X170500080Y-71325606D01*
X170552741Y-71234394D01*
X170580000Y-71132661D01*
X170580000Y-71126448D01*
X171259474Y-71805922D01*
G37*
%TD.AperFunction*%
%TA.AperFunction,Conductor*%
G36*
X179187037Y-60731542D02*
G01*
X179209179Y-60749125D01*
X181068194Y-62608140D01*
X181101679Y-62669463D01*
X181096695Y-62739155D01*
X181089715Y-62748478D01*
X181090661Y-62747629D01*
X181159631Y-62736453D01*
X181223695Y-62764338D01*
X181231859Y-62771805D01*
X182193181Y-63733127D01*
X182226666Y-63794450D01*
X182229500Y-63820808D01*
X182229500Y-66575766D01*
X182209815Y-66642805D01*
X182157011Y-66688560D01*
X182087853Y-66698504D01*
X182024297Y-66669479D01*
X182017819Y-66663447D01*
X181026819Y-65672447D01*
X180993334Y-65611124D01*
X180990500Y-65584766D01*
X180990500Y-64174361D01*
X181010185Y-64107322D01*
X181026816Y-64086682D01*
X181039464Y-64074035D01*
X181138013Y-63926547D01*
X181205894Y-63762666D01*
X181211585Y-63734059D01*
X181238249Y-63600008D01*
X181240500Y-63588691D01*
X181240500Y-63411309D01*
X181240500Y-63411306D01*
X181240499Y-63411304D01*
X181205896Y-63237341D01*
X181205893Y-63237332D01*
X181138016Y-63073459D01*
X181138009Y-63073446D01*
X181041076Y-62928377D01*
X181020198Y-62861700D01*
X181036607Y-62801882D01*
X180989359Y-62819505D01*
X180921086Y-62804653D01*
X180911622Y-62798923D01*
X180766553Y-62701990D01*
X180766540Y-62701983D01*
X180602667Y-62634106D01*
X180602658Y-62634103D01*
X180428694Y-62599500D01*
X180428691Y-62599500D01*
X180251309Y-62599500D01*
X180251306Y-62599500D01*
X180077341Y-62634103D01*
X180077332Y-62634106D01*
X179913459Y-62701983D01*
X179913446Y-62701990D01*
X179765965Y-62800535D01*
X179765961Y-62800538D01*
X179640538Y-62925961D01*
X179640535Y-62925965D01*
X179541990Y-63073446D01*
X179541983Y-63073459D01*
X179474106Y-63237332D01*
X179474103Y-63237341D01*
X179439500Y-63411304D01*
X179439500Y-63588695D01*
X179474103Y-63762658D01*
X179474106Y-63762667D01*
X179541983Y-63926540D01*
X179541990Y-63926553D01*
X179640534Y-64074033D01*
X179640535Y-64074034D01*
X179640536Y-64074035D01*
X179653180Y-64086679D01*
X179686665Y-64147999D01*
X179689500Y-64174361D01*
X179689500Y-65969645D01*
X179706934Y-66057288D01*
X179706934Y-66057289D01*
X179714496Y-66095311D01*
X179714498Y-66095316D01*
X179719883Y-66108315D01*
X179763535Y-66213701D01*
X179834723Y-66320243D01*
X179834726Y-66320247D01*
X179834727Y-66320248D01*
X180590298Y-67075818D01*
X180623783Y-67137141D01*
X180618799Y-67206832D01*
X180576927Y-67262766D01*
X180511463Y-67287183D01*
X180483221Y-67285973D01*
X180477912Y-67285132D01*
X180442352Y-67279500D01*
X180237648Y-67279500D01*
X180213329Y-67283351D01*
X180035465Y-67311522D01*
X179840776Y-67374781D01*
X179658386Y-67467715D01*
X179492786Y-67588028D01*
X179348028Y-67732786D01*
X179227715Y-67898386D01*
X179134781Y-68080776D01*
X179071522Y-68275465D01*
X179045034Y-68442710D01*
X179039500Y-68477648D01*
X179039500Y-68682352D01*
X179043112Y-68705154D01*
X179071522Y-68884534D01*
X179134781Y-69079223D01*
X179227715Y-69261613D01*
X179348028Y-69427213D01*
X179492786Y-69571971D01*
X179647749Y-69684556D01*
X179658390Y-69692287D01*
X179749840Y-69738883D01*
X179751080Y-69739515D01*
X179801876Y-69787490D01*
X179818671Y-69855311D01*
X179796134Y-69921446D01*
X179751080Y-69960485D01*
X179658386Y-70007715D01*
X179492786Y-70128028D01*
X179348028Y-70272786D01*
X179227715Y-70438386D01*
X179134781Y-70620776D01*
X179071522Y-70815465D01*
X179039500Y-71017648D01*
X179039500Y-71222351D01*
X179071522Y-71424534D01*
X179134781Y-71619223D01*
X179172902Y-71694038D01*
X179227585Y-71801359D01*
X179227715Y-71801613D01*
X179348028Y-71967213D01*
X179492786Y-72111971D01*
X179602745Y-72191859D01*
X179658390Y-72232287D01*
X179749840Y-72278883D01*
X179751080Y-72279515D01*
X179801876Y-72327490D01*
X179818671Y-72395311D01*
X179796134Y-72461446D01*
X179751080Y-72500485D01*
X179658386Y-72547715D01*
X179492786Y-72668028D01*
X179348028Y-72812786D01*
X179227715Y-72978386D01*
X179134781Y-73160776D01*
X179071522Y-73355465D01*
X179039500Y-73557648D01*
X179039500Y-73762351D01*
X179071522Y-73964534D01*
X179134781Y-74159223D01*
X179189912Y-74267422D01*
X179205702Y-74298412D01*
X179227715Y-74341613D01*
X179348028Y-74507213D01*
X179492786Y-74651971D01*
X179647749Y-74764556D01*
X179658390Y-74772287D01*
X179732608Y-74810103D01*
X179751080Y-74819515D01*
X179801876Y-74867490D01*
X179818671Y-74935311D01*
X179796134Y-75001446D01*
X179751080Y-75040485D01*
X179658386Y-75087715D01*
X179492786Y-75208028D01*
X179348028Y-75352786D01*
X179227715Y-75518386D01*
X179134781Y-75700776D01*
X179071522Y-75895465D01*
X179039500Y-76097648D01*
X179039500Y-76302351D01*
X179071522Y-76504534D01*
X179134781Y-76699223D01*
X179175940Y-76780000D01*
X179224019Y-76874361D01*
X179227715Y-76881613D01*
X179348028Y-77047213D01*
X179492786Y-77191971D01*
X179602745Y-77271859D01*
X179658390Y-77312287D01*
X179761364Y-77364755D01*
X179840776Y-77405218D01*
X179840778Y-77405218D01*
X179840781Y-77405220D01*
X179945137Y-77439127D01*
X180035465Y-77468477D01*
X180136557Y-77484488D01*
X180237648Y-77500500D01*
X180237649Y-77500500D01*
X180442351Y-77500500D01*
X180442352Y-77500500D01*
X180644534Y-77468477D01*
X180839219Y-77405220D01*
X181021610Y-77312287D01*
X181149414Y-77219433D01*
X181187213Y-77191971D01*
X181187215Y-77191968D01*
X181187219Y-77191966D01*
X181300882Y-77078303D01*
X181362205Y-77044818D01*
X181431897Y-77049802D01*
X181487830Y-77091674D01*
X181512247Y-77157138D01*
X181512563Y-77165984D01*
X181512563Y-81566128D01*
X181492878Y-81633167D01*
X181476244Y-81653809D01*
X178312496Y-84817556D01*
X178304296Y-84822033D01*
X178298663Y-84829486D01*
X178274122Y-84838509D01*
X178251173Y-84851041D01*
X178241854Y-84850374D01*
X178233086Y-84853599D01*
X178186497Y-84847806D01*
X178140245Y-84832777D01*
X177911788Y-84796593D01*
X177848653Y-84766664D01*
X177811722Y-84707352D01*
X177812720Y-84637489D01*
X177843503Y-84586441D01*
X177963257Y-84466687D01*
X177972983Y-84460189D01*
X177977087Y-84454760D01*
X177986030Y-84451471D01*
X178003483Y-84439810D01*
X178108120Y-84396468D01*
X178108120Y-84396467D01*
X178108127Y-84396465D01*
X178214669Y-84325276D01*
X178305276Y-84234669D01*
X178376465Y-84128127D01*
X178425501Y-84009744D01*
X178445238Y-83910522D01*
X178450500Y-83884071D01*
X178450500Y-80154251D01*
X178425502Y-80028584D01*
X178425501Y-80028583D01*
X178425501Y-80028579D01*
X178376465Y-79910196D01*
X178372199Y-79903812D01*
X178365051Y-79893113D01*
X178305275Y-79803651D01*
X178305272Y-79803648D01*
X177778832Y-79277209D01*
X177745347Y-79215886D01*
X177744040Y-79170135D01*
X177759599Y-79071903D01*
X177759599Y-78882941D01*
X177759599Y-78882935D01*
X177730039Y-78696303D01*
X177694526Y-78587007D01*
X177671646Y-78516590D01*
X177671644Y-78516587D01*
X177671644Y-78516585D01*
X177616532Y-78408422D01*
X177585859Y-78348223D01*
X177474789Y-78195349D01*
X177341172Y-78061732D01*
X177341171Y-78061731D01*
X177260712Y-78003273D01*
X177218047Y-77947943D01*
X177209599Y-77902956D01*
X177209599Y-77435027D01*
X177184601Y-77309360D01*
X177184600Y-77309359D01*
X177184600Y-77309355D01*
X177135564Y-77190972D01*
X177116121Y-77161873D01*
X177114511Y-77159464D01*
X177064374Y-77084427D01*
X177064371Y-77084424D01*
X174027137Y-74047191D01*
X173993652Y-73985868D01*
X173992345Y-73940112D01*
X174010187Y-73827464D01*
X174020500Y-73762352D01*
X174020500Y-73557648D01*
X173988477Y-73355466D01*
X173925220Y-73160781D01*
X173925218Y-73160778D01*
X173925218Y-73160776D01*
X173891503Y-73094607D01*
X173832287Y-72978390D01*
X173815238Y-72954924D01*
X173711971Y-72812786D01*
X173567213Y-72668028D01*
X173401611Y-72547713D01*
X173308369Y-72500203D01*
X173257574Y-72452229D01*
X173240779Y-72384407D01*
X173263317Y-72318273D01*
X173308371Y-72279234D01*
X173401346Y-72231861D01*
X173401347Y-72231861D01*
X173445921Y-72199474D01*
X172766447Y-71520000D01*
X172772661Y-71520000D01*
X172874394Y-71492741D01*
X172965606Y-71440080D01*
X173040080Y-71365606D01*
X173092741Y-71274394D01*
X173120000Y-71172661D01*
X173120000Y-71166447D01*
X173799474Y-71845921D01*
X173831859Y-71801349D01*
X173924755Y-71619031D01*
X173987990Y-71424417D01*
X174020000Y-71222317D01*
X174020000Y-71017682D01*
X173987990Y-70815582D01*
X173924755Y-70620968D01*
X173831859Y-70438650D01*
X173799474Y-70394077D01*
X173799474Y-70394076D01*
X173120000Y-71073551D01*
X173120000Y-71067339D01*
X173092741Y-70965606D01*
X173040080Y-70874394D01*
X172965606Y-70799920D01*
X172874394Y-70747259D01*
X172772661Y-70720000D01*
X172766446Y-70720000D01*
X173445922Y-70040524D01*
X173444570Y-70023349D01*
X173430299Y-70004842D01*
X173424320Y-69935229D01*
X173456925Y-69873433D01*
X173506845Y-69842148D01*
X173589334Y-69814814D01*
X173738656Y-69722712D01*
X173862712Y-69598656D01*
X173954814Y-69449334D01*
X174009999Y-69282797D01*
X174020500Y-69180009D01*
X174020499Y-67979992D01*
X174009999Y-67877203D01*
X173954814Y-67710666D01*
X173862712Y-67561344D01*
X173738656Y-67437288D01*
X173589334Y-67345186D01*
X173589332Y-67345185D01*
X173583187Y-67341395D01*
X173584290Y-67339605D01*
X173539649Y-67300290D01*
X173520500Y-67234091D01*
X173520500Y-65961160D01*
X173519518Y-65956219D01*
X173519518Y-65956218D01*
X173489738Y-65806507D01*
X173489737Y-65806506D01*
X173489737Y-65806502D01*
X173452179Y-65715830D01*
X173441522Y-65690102D01*
X173429397Y-65660828D01*
X173429396Y-65660827D01*
X173429394Y-65660821D01*
X173408438Y-65629458D01*
X173341790Y-65529712D01*
X173306962Y-65494884D01*
X173230289Y-65418211D01*
X171016819Y-63204741D01*
X170983334Y-63143418D01*
X170980500Y-63117060D01*
X170980500Y-61342939D01*
X171000185Y-61275900D01*
X171016815Y-61255262D01*
X171218735Y-61053342D01*
X171280057Y-61019858D01*
X171349749Y-61024842D01*
X171405682Y-61066714D01*
X171428888Y-61121626D01*
X171451522Y-61264534D01*
X171514781Y-61459223D01*
X171559061Y-61546125D01*
X171601924Y-61630249D01*
X171607715Y-61641613D01*
X171728028Y-61807213D01*
X171872786Y-61951971D01*
X171993226Y-62039474D01*
X172038390Y-62072287D01*
X172153503Y-62130940D01*
X172220776Y-62165218D01*
X172220778Y-62165218D01*
X172220781Y-62165220D01*
X172325137Y-62199127D01*
X172415465Y-62228477D01*
X172514319Y-62244134D01*
X172617648Y-62260500D01*
X172617649Y-62260500D01*
X172822344Y-62260500D01*
X172822352Y-62260500D01*
X172822359Y-62260498D01*
X172826592Y-62260165D01*
X172894972Y-62274518D01*
X172924022Y-62296100D01*
X174638211Y-64010289D01*
X174701955Y-64074033D01*
X174749711Y-64121789D01*
X174880814Y-64209390D01*
X174880816Y-64209391D01*
X174880821Y-64209394D01*
X174966116Y-64244724D01*
X175026502Y-64269737D01*
X175181152Y-64300499D01*
X175181155Y-64300500D01*
X175181157Y-64300500D01*
X175181158Y-64300500D01*
X176851375Y-64300500D01*
X176918414Y-64320185D01*
X176939056Y-64336819D01*
X177017927Y-64415690D01*
X177170801Y-64526760D01*
X177250347Y-64567290D01*
X177339163Y-64612545D01*
X177339165Y-64612545D01*
X177339168Y-64612547D01*
X177435497Y-64643846D01*
X177518881Y-64670940D01*
X177705514Y-64700500D01*
X177705519Y-64700500D01*
X177894486Y-64700500D01*
X178081118Y-64670940D01*
X178117431Y-64659141D01*
X178260832Y-64612547D01*
X178429199Y-64526760D01*
X178582073Y-64415690D01*
X178715690Y-64282073D01*
X178826760Y-64129199D01*
X178912547Y-63960832D01*
X178970940Y-63781118D01*
X178973862Y-63762667D01*
X179000500Y-63594486D01*
X179000500Y-63405513D01*
X178970940Y-63218881D01*
X178941886Y-63129464D01*
X178912547Y-63039168D01*
X178912545Y-63039165D01*
X178912545Y-63039163D01*
X178838914Y-62894655D01*
X178826760Y-62870801D01*
X178715690Y-62717927D01*
X178636819Y-62639056D01*
X178603334Y-62577733D01*
X178600500Y-62551375D01*
X178600500Y-61908625D01*
X178620185Y-61841586D01*
X178636819Y-61820944D01*
X178673688Y-61784075D01*
X178715690Y-61742073D01*
X178826760Y-61589199D01*
X178912547Y-61420832D01*
X178970940Y-61241118D01*
X178974301Y-61219896D01*
X179000500Y-61054486D01*
X179000500Y-60865518D01*
X178999025Y-60856208D01*
X179007978Y-60786914D01*
X179052972Y-60733461D01*
X179119723Y-60712819D01*
X179187037Y-60731542D01*
G37*
%TD.AperFunction*%
%TA.AperFunction,Conductor*%
G36*
X196592484Y-60520661D02*
G01*
X196616709Y-60523298D01*
X196625411Y-60530329D01*
X196636144Y-60533481D01*
X196652098Y-60551893D01*
X196671054Y-60567210D01*
X196678768Y-60582672D01*
X196681899Y-60586285D01*
X196686811Y-60598792D01*
X196710185Y-60669331D01*
X196710187Y-60669336D01*
X196735678Y-60710664D01*
X196802288Y-60818656D01*
X196926344Y-60942712D01*
X197051418Y-61019858D01*
X197081558Y-61038448D01*
X197128283Y-61090396D01*
X197139506Y-61159358D01*
X197111663Y-61223441D01*
X197104144Y-61231668D01*
X196965271Y-61370541D01*
X196840379Y-61542442D01*
X196743904Y-61731782D01*
X196678242Y-61933870D01*
X196678242Y-61933873D01*
X196667769Y-62000000D01*
X197686988Y-62000000D01*
X197654075Y-62057007D01*
X197620000Y-62184174D01*
X197620000Y-62315826D01*
X197654075Y-62442993D01*
X197686988Y-62500000D01*
X196667769Y-62500000D01*
X196678242Y-62566126D01*
X196678242Y-62566129D01*
X196743904Y-62768217D01*
X196840379Y-62957557D01*
X196965272Y-63129459D01*
X196965276Y-63129464D01*
X197115535Y-63279723D01*
X197115540Y-63279727D01*
X197280218Y-63399372D01*
X197322884Y-63454701D01*
X197328863Y-63524315D01*
X197296258Y-63586110D01*
X197280218Y-63600008D01*
X197115214Y-63719890D01*
X197115209Y-63719894D01*
X196964890Y-63870213D01*
X196837085Y-64046125D01*
X196835740Y-64045148D01*
X196789295Y-64087166D01*
X196735382Y-64099500D01*
X194228529Y-64099500D01*
X194116485Y-64121788D01*
X194106238Y-64123826D01*
X194102855Y-64124499D01*
X193984470Y-64173535D01*
X193877931Y-64244722D01*
X193877924Y-64244728D01*
X193302387Y-64820265D01*
X193241064Y-64853750D01*
X193195308Y-64855057D01*
X193097086Y-64839500D01*
X193097081Y-64839500D01*
X192908119Y-64839500D01*
X192908114Y-64839500D01*
X192721481Y-64869059D01*
X192541763Y-64927454D01*
X192373400Y-65013240D01*
X192286179Y-65076610D01*
X192220527Y-65124310D01*
X192220525Y-65124312D01*
X192220524Y-65124312D01*
X192086912Y-65257924D01*
X192086912Y-65257925D01*
X192086910Y-65257927D01*
X192079434Y-65268217D01*
X191975840Y-65410800D01*
X191890054Y-65579163D01*
X191831659Y-65758881D01*
X191802100Y-65945513D01*
X191802100Y-66134486D01*
X191831659Y-66321118D01*
X191890054Y-66500836D01*
X191964973Y-66647872D01*
X191975840Y-66669199D01*
X192086910Y-66822073D01*
X192220527Y-66955690D01*
X192373401Y-67066760D01*
X192541768Y-67152547D01*
X192644651Y-67185976D01*
X192702326Y-67225412D01*
X192729524Y-67289771D01*
X192717609Y-67358617D01*
X192670365Y-67410093D01*
X192644652Y-67421836D01*
X192504263Y-67467452D01*
X192335896Y-67553240D01*
X192288007Y-67588034D01*
X192183023Y-67664310D01*
X192183021Y-67664312D01*
X192183020Y-67664312D01*
X192049408Y-67797924D01*
X192049408Y-67797925D01*
X192049406Y-67797927D01*
X192001706Y-67863579D01*
X191938336Y-67950800D01*
X191852550Y-68119163D01*
X191794155Y-68298881D01*
X191764596Y-68485513D01*
X191764596Y-68674486D01*
X191794155Y-68861118D01*
X191852550Y-69040836D01*
X191938336Y-69209199D01*
X192049406Y-69362073D01*
X192183023Y-69495690D01*
X192335897Y-69606760D01*
X192415443Y-69647290D01*
X192504259Y-69692545D01*
X192504261Y-69692545D01*
X192504264Y-69692547D01*
X192588124Y-69719795D01*
X192683977Y-69750940D01*
X192870610Y-69780500D01*
X192870615Y-69780500D01*
X193059582Y-69780500D01*
X193246214Y-69750940D01*
X193281376Y-69739515D01*
X193425928Y-69692547D01*
X193594295Y-69606760D01*
X193747169Y-69495690D01*
X193880786Y-69362073D01*
X193991856Y-69209199D01*
X194077643Y-69040832D01*
X194136036Y-68861118D01*
X194152844Y-68754996D01*
X194165596Y-68674486D01*
X194165596Y-68485521D01*
X194165595Y-68485513D01*
X194150037Y-68387287D01*
X194158991Y-68317997D01*
X194184826Y-68280214D01*
X194528223Y-67936819D01*
X194589546Y-67903334D01*
X194615904Y-67900500D01*
X196735382Y-67900500D01*
X196802421Y-67920185D01*
X196836099Y-67954591D01*
X196837085Y-67953875D01*
X196964890Y-68129786D01*
X197115213Y-68280109D01*
X197262739Y-68387291D01*
X197287184Y-68405051D01*
X197401794Y-68463447D01*
X197452591Y-68511421D01*
X197469500Y-68573932D01*
X197469500Y-68644069D01*
X197469500Y-68644071D01*
X197469499Y-68644071D01*
X197491094Y-68752630D01*
X197494498Y-68769740D01*
X197494499Y-68769744D01*
X197543534Y-68888125D01*
X197614726Y-68994673D01*
X197614727Y-68994674D01*
X199723181Y-71103127D01*
X199756666Y-71164450D01*
X199759500Y-71190808D01*
X199759500Y-71208695D01*
X199794103Y-71382658D01*
X199794106Y-71382667D01*
X199861983Y-71546540D01*
X199861990Y-71546553D01*
X199960535Y-71694034D01*
X199960538Y-71694038D01*
X200085961Y-71819461D01*
X200085965Y-71819464D01*
X200233446Y-71918009D01*
X200233459Y-71918016D01*
X200316196Y-71952286D01*
X200397334Y-71985894D01*
X200397336Y-71985894D01*
X200397341Y-71985896D01*
X200571304Y-72020499D01*
X200571307Y-72020500D01*
X200571309Y-72020500D01*
X200748693Y-72020500D01*
X200748694Y-72020499D01*
X200812523Y-72007803D01*
X200922658Y-71985896D01*
X200922661Y-71985894D01*
X200922666Y-71985894D01*
X200995335Y-71955794D01*
X201027959Y-71952286D01*
X201060434Y-71947617D01*
X201062521Y-71948570D01*
X201064805Y-71948325D01*
X201094142Y-71963011D01*
X201123990Y-71976642D01*
X201125231Y-71978574D01*
X201127283Y-71979601D01*
X201144016Y-72007803D01*
X201161764Y-72035420D01*
X201162199Y-72038450D01*
X201162935Y-72039690D01*
X201166787Y-72070355D01*
X201166787Y-72191374D01*
X201147102Y-72258413D01*
X201145889Y-72260265D01*
X201078623Y-72360934D01*
X201078622Y-72360937D01*
X201010741Y-72524817D01*
X201010738Y-72524826D01*
X200976135Y-72698789D01*
X200976135Y-72755605D01*
X200956450Y-72822644D01*
X200903646Y-72868399D01*
X200834488Y-72878343D01*
X200827945Y-72877223D01*
X200783582Y-72868399D01*
X200738843Y-72859500D01*
X200581158Y-72859500D01*
X200581153Y-72859500D01*
X200426510Y-72890260D01*
X200426502Y-72890262D01*
X200280824Y-72950604D01*
X200280809Y-72950612D01*
X200268852Y-72958602D01*
X200202175Y-72979480D01*
X200199962Y-72979500D01*
X199658733Y-72979500D01*
X199591694Y-72959815D01*
X199545939Y-72907011D01*
X199541028Y-72894506D01*
X199535300Y-72877223D01*
X199529814Y-72860666D01*
X199437712Y-72711344D01*
X199313656Y-72587288D01*
X199164334Y-72495186D01*
X198997797Y-72440001D01*
X198997795Y-72440000D01*
X198895010Y-72429500D01*
X197344998Y-72429500D01*
X197344981Y-72429501D01*
X197242203Y-72440000D01*
X197242200Y-72440001D01*
X197075668Y-72495185D01*
X197075663Y-72495187D01*
X196926342Y-72587289D01*
X196802289Y-72711342D01*
X196710187Y-72860663D01*
X196710184Y-72860671D01*
X196698972Y-72894506D01*
X196659199Y-72951950D01*
X196594683Y-72978772D01*
X196581267Y-72979500D01*
X194216275Y-72979500D01*
X194149236Y-72959815D01*
X194115957Y-72928386D01*
X194031966Y-72812781D01*
X193887219Y-72668034D01*
X193887213Y-72668028D01*
X193721613Y-72547715D01*
X193721612Y-72547714D01*
X193721610Y-72547713D01*
X193664653Y-72518691D01*
X193539223Y-72454781D01*
X193344534Y-72391522D01*
X193169995Y-72363878D01*
X193142352Y-72359500D01*
X192937648Y-72359500D01*
X192913329Y-72363351D01*
X192735465Y-72391522D01*
X192540776Y-72454781D01*
X192358386Y-72547715D01*
X192192786Y-72668028D01*
X192048035Y-72812779D01*
X192045252Y-72816038D01*
X191986742Y-72854227D01*
X191950967Y-72859500D01*
X190421155Y-72859500D01*
X190266510Y-72890261D01*
X190266498Y-72890264D01*
X190120827Y-72950602D01*
X190120814Y-72950609D01*
X189989711Y-73038210D01*
X189989707Y-73038213D01*
X185524741Y-77503181D01*
X185463418Y-77536666D01*
X185437060Y-77539500D01*
X185325514Y-77539500D01*
X185138881Y-77569059D01*
X184959163Y-77627454D01*
X184790800Y-77713240D01*
X184703579Y-77776610D01*
X184637927Y-77824310D01*
X184637925Y-77824312D01*
X184637924Y-77824312D01*
X184504312Y-77957924D01*
X184504312Y-77957925D01*
X184504310Y-77957927D01*
X184471364Y-78003273D01*
X184393240Y-78110800D01*
X184307454Y-78279163D01*
X184249059Y-78458881D01*
X184219500Y-78645513D01*
X184219500Y-78834486D01*
X184249059Y-79021118D01*
X184307454Y-79200836D01*
X184379478Y-79342190D01*
X184393240Y-79369199D01*
X184504310Y-79522073D01*
X184504312Y-79522075D01*
X184583181Y-79600944D01*
X184616666Y-79662267D01*
X184619500Y-79688625D01*
X184619500Y-80331375D01*
X184599815Y-80398414D01*
X184583181Y-80419056D01*
X184504312Y-80497924D01*
X184504312Y-80497925D01*
X184504310Y-80497927D01*
X184456610Y-80563579D01*
X184393240Y-80650800D01*
X184307454Y-80819163D01*
X184249059Y-80998881D01*
X184219500Y-81185513D01*
X184219500Y-81374486D01*
X184249059Y-81561118D01*
X184307454Y-81740836D01*
X184389464Y-81901789D01*
X184393240Y-81909199D01*
X184504310Y-82062073D01*
X184637927Y-82195690D01*
X184790801Y-82306760D01*
X184870347Y-82347290D01*
X184959163Y-82392545D01*
X184959165Y-82392545D01*
X184959168Y-82392547D01*
X185008848Y-82408689D01*
X185138881Y-82450940D01*
X185325514Y-82480500D01*
X185430191Y-82480500D01*
X185497230Y-82500185D01*
X185542985Y-82552989D01*
X185552929Y-82622147D01*
X185523904Y-82685703D01*
X185517872Y-82692181D01*
X183392496Y-84817556D01*
X183331173Y-84851041D01*
X183266497Y-84847806D01*
X183220245Y-84832777D01*
X182991788Y-84796593D01*
X182928653Y-84766664D01*
X182891722Y-84707352D01*
X182892720Y-84637489D01*
X182923501Y-84586443D01*
X183385276Y-84124670D01*
X183456465Y-84018127D01*
X183505501Y-83899744D01*
X183530500Y-83774069D01*
X183530500Y-64274500D01*
X183550185Y-64207461D01*
X183602989Y-64161706D01*
X183654500Y-64150500D01*
X184345535Y-64150500D01*
X184412574Y-64170185D01*
X184445852Y-64201613D01*
X184504310Y-64282073D01*
X184637927Y-64415690D01*
X184790801Y-64526760D01*
X184959168Y-64612547D01*
X185062103Y-64645992D01*
X185119778Y-64685429D01*
X185146976Y-64749788D01*
X185135061Y-64818634D01*
X185087817Y-64870110D01*
X185062104Y-64881854D01*
X184921762Y-64927455D01*
X184753400Y-65013240D01*
X184666179Y-65076610D01*
X184600527Y-65124310D01*
X184600525Y-65124312D01*
X184600524Y-65124312D01*
X184466912Y-65257924D01*
X184466912Y-65257925D01*
X184466910Y-65257927D01*
X184459434Y-65268217D01*
X184355840Y-65410800D01*
X184270054Y-65579163D01*
X184211659Y-65758881D01*
X184182100Y-65945513D01*
X184182100Y-66134486D01*
X184211659Y-66321118D01*
X184270054Y-66500836D01*
X184344973Y-66647872D01*
X184355840Y-66669199D01*
X184466910Y-66822073D01*
X184466912Y-66822075D01*
X184545781Y-66900944D01*
X184579266Y-66962267D01*
X184582100Y-66988625D01*
X184582100Y-67593870D01*
X184562415Y-67660909D01*
X184545782Y-67681551D01*
X184429405Y-67797928D01*
X184318336Y-67950800D01*
X184232550Y-68119163D01*
X184174155Y-68298881D01*
X184144596Y-68485513D01*
X184144596Y-68674486D01*
X184174155Y-68861118D01*
X184232550Y-69040836D01*
X184318336Y-69209199D01*
X184429406Y-69362073D01*
X184563023Y-69495690D01*
X184715897Y-69606760D01*
X184795443Y-69647290D01*
X184884259Y-69692545D01*
X184884261Y-69692545D01*
X184884264Y-69692547D01*
X184968124Y-69719795D01*
X185063977Y-69750940D01*
X185250610Y-69780500D01*
X185250615Y-69780500D01*
X185439582Y-69780500D01*
X185626214Y-69750940D01*
X185661376Y-69739515D01*
X185805928Y-69692547D01*
X185974295Y-69606760D01*
X186127169Y-69495690D01*
X186260786Y-69362073D01*
X186371856Y-69209199D01*
X186457643Y-69040832D01*
X186516036Y-68861118D01*
X186532844Y-68754996D01*
X186545596Y-68674486D01*
X186545596Y-68485513D01*
X186516036Y-68298881D01*
X186478477Y-68183288D01*
X186457643Y-68119168D01*
X186457641Y-68119165D01*
X186457641Y-68119163D01*
X186395947Y-67998083D01*
X186371856Y-67950801D01*
X186260786Y-67797927D01*
X186219419Y-67756560D01*
X186185934Y-67695237D01*
X186183100Y-67668879D01*
X186183100Y-66988625D01*
X186202785Y-66921586D01*
X186219419Y-66900944D01*
X186245235Y-66875128D01*
X186298290Y-66822073D01*
X186409360Y-66669199D01*
X186495147Y-66500832D01*
X186553540Y-66321118D01*
X186569572Y-66219896D01*
X186583100Y-66134486D01*
X186583100Y-66022939D01*
X186602785Y-65955900D01*
X186619414Y-65935263D01*
X191933417Y-60621259D01*
X191994740Y-60587775D01*
X192064432Y-60592759D01*
X192108779Y-60621260D01*
X192192786Y-60705267D01*
X192358385Y-60825580D01*
X192358387Y-60825581D01*
X192358390Y-60825583D01*
X192412378Y-60853091D01*
X192463174Y-60901065D01*
X192479969Y-60968886D01*
X192457432Y-61035021D01*
X192412378Y-61074061D01*
X192358644Y-61101439D01*
X192314077Y-61133819D01*
X192314077Y-61133820D01*
X192993554Y-61813296D01*
X192987339Y-61813296D01*
X192885606Y-61840555D01*
X192794394Y-61893216D01*
X192719920Y-61967690D01*
X192667259Y-62058902D01*
X192640000Y-62160635D01*
X192640000Y-62166849D01*
X191960524Y-61487373D01*
X191960523Y-61487373D01*
X191928143Y-61531940D01*
X191835244Y-61714264D01*
X191772009Y-61908878D01*
X191740000Y-62110978D01*
X191740000Y-62315613D01*
X191772009Y-62517713D01*
X191835244Y-62712327D01*
X191928141Y-62894646D01*
X191928147Y-62894655D01*
X191960523Y-62939217D01*
X191960524Y-62939218D01*
X192640000Y-62259742D01*
X192640000Y-62265957D01*
X192667259Y-62367690D01*
X192719920Y-62458902D01*
X192794394Y-62533376D01*
X192885606Y-62586037D01*
X192987339Y-62613296D01*
X192993553Y-62613296D01*
X192314076Y-63292770D01*
X192358650Y-63325155D01*
X192540968Y-63418051D01*
X192735582Y-63481286D01*
X192937683Y-63513296D01*
X193142317Y-63513296D01*
X193344417Y-63481286D01*
X193539031Y-63418051D01*
X193721349Y-63325155D01*
X193765921Y-63292770D01*
X193086447Y-62613296D01*
X193092661Y-62613296D01*
X193194394Y-62586037D01*
X193285606Y-62533376D01*
X193360080Y-62458902D01*
X193412741Y-62367690D01*
X193440000Y-62265957D01*
X193440000Y-62259743D01*
X194119474Y-62939217D01*
X194151859Y-62894645D01*
X194244755Y-62712327D01*
X194307990Y-62517713D01*
X194340000Y-62315613D01*
X194340000Y-62110978D01*
X194307990Y-61908878D01*
X194244755Y-61714264D01*
X194151859Y-61531946D01*
X194119474Y-61487373D01*
X194119474Y-61487372D01*
X193440000Y-62166847D01*
X193440000Y-62160635D01*
X193412741Y-62058902D01*
X193360080Y-61967690D01*
X193285606Y-61893216D01*
X193194394Y-61840555D01*
X193092661Y-61813296D01*
X193086446Y-61813296D01*
X193765922Y-61133820D01*
X193765921Y-61133819D01*
X193721359Y-61101443D01*
X193721350Y-61101437D01*
X193667621Y-61074061D01*
X193616825Y-61026087D01*
X193600030Y-60958266D01*
X193622567Y-60892131D01*
X193667621Y-60853091D01*
X193721610Y-60825583D01*
X193784208Y-60780103D01*
X193887213Y-60705267D01*
X193887215Y-60705264D01*
X193887219Y-60705262D01*
X194031966Y-60560515D01*
X194031972Y-60560506D01*
X194034748Y-60557258D01*
X194093258Y-60519069D01*
X194129033Y-60513796D01*
X196569105Y-60513796D01*
X196592484Y-60520661D01*
G37*
%TD.AperFunction*%
%TA.AperFunction,Conductor*%
G36*
X192018006Y-74480185D02*
G01*
X192045252Y-74503962D01*
X192048035Y-74507220D01*
X192192786Y-74651971D01*
X192358385Y-74772284D01*
X192358387Y-74772285D01*
X192358390Y-74772287D01*
X192412378Y-74799795D01*
X192463174Y-74847769D01*
X192479969Y-74915590D01*
X192457432Y-74981725D01*
X192412378Y-75020765D01*
X192358644Y-75048143D01*
X192314077Y-75080523D01*
X192314077Y-75080524D01*
X192993554Y-75760000D01*
X192987339Y-75760000D01*
X192885606Y-75787259D01*
X192794394Y-75839920D01*
X192719920Y-75914394D01*
X192667259Y-76005606D01*
X192640000Y-76107339D01*
X192640000Y-76113553D01*
X191960524Y-75434077D01*
X191960523Y-75434077D01*
X191928143Y-75478644D01*
X191835244Y-75660968D01*
X191772009Y-75855582D01*
X191740000Y-76057682D01*
X191740000Y-76262317D01*
X191772009Y-76464417D01*
X191835244Y-76659031D01*
X191928141Y-76841350D01*
X191928147Y-76841359D01*
X191960523Y-76885921D01*
X191960524Y-76885922D01*
X192640000Y-76206446D01*
X192640000Y-76212661D01*
X192667259Y-76314394D01*
X192719920Y-76405606D01*
X192794394Y-76480080D01*
X192885606Y-76532741D01*
X192987339Y-76560000D01*
X192993553Y-76560000D01*
X192314076Y-77239474D01*
X192358650Y-77271859D01*
X192540968Y-77364755D01*
X192601364Y-77384379D01*
X192659039Y-77423817D01*
X192686237Y-77488176D01*
X192674322Y-77557022D01*
X192627078Y-77608498D01*
X192601366Y-77620240D01*
X192579166Y-77627453D01*
X192410800Y-77713240D01*
X192323579Y-77776610D01*
X192257927Y-77824310D01*
X192257925Y-77824312D01*
X192257924Y-77824312D01*
X192124312Y-77957924D01*
X192124312Y-77957925D01*
X192124310Y-77957927D01*
X192091364Y-78003273D01*
X192013240Y-78110800D01*
X191927454Y-78279163D01*
X191869059Y-78458881D01*
X191839500Y-78645513D01*
X191839500Y-78834486D01*
X191854736Y-78930687D01*
X191845781Y-78999980D01*
X191819944Y-79037765D01*
X191264530Y-79593181D01*
X191203207Y-79626666D01*
X191176849Y-79629500D01*
X191158963Y-79629500D01*
X190984998Y-79664103D01*
X190984989Y-79664106D01*
X190821116Y-79731983D01*
X190821103Y-79731990D01*
X190673622Y-79830535D01*
X190673618Y-79830538D01*
X190548195Y-79955961D01*
X190548192Y-79955965D01*
X190449647Y-80103446D01*
X190449640Y-80103459D01*
X190381763Y-80267332D01*
X190381760Y-80267341D01*
X190347157Y-80441304D01*
X190347157Y-80505500D01*
X190327472Y-80572539D01*
X190274668Y-80618294D01*
X190223157Y-80629500D01*
X187785929Y-80629500D01*
X187678852Y-80650800D01*
X187678847Y-80650801D01*
X187664870Y-80653581D01*
X187660255Y-80654499D01*
X187541870Y-80703535D01*
X187435331Y-80774722D01*
X187435324Y-80774728D01*
X186832181Y-81377872D01*
X186770858Y-81411357D01*
X186701166Y-81406373D01*
X186645233Y-81364501D01*
X186620816Y-81299037D01*
X186620500Y-81290191D01*
X186620500Y-81185513D01*
X186590940Y-80998881D01*
X186532545Y-80819163D01*
X186448644Y-80654499D01*
X186446760Y-80650801D01*
X186335690Y-80497927D01*
X186256819Y-80419056D01*
X186223334Y-80357733D01*
X186220500Y-80331375D01*
X186220500Y-79688625D01*
X186240185Y-79621586D01*
X186256819Y-79600944D01*
X186283226Y-79574537D01*
X186335690Y-79522073D01*
X186446760Y-79369199D01*
X186532547Y-79200832D01*
X186590940Y-79021118D01*
X186593862Y-79002667D01*
X186620500Y-78834486D01*
X186620500Y-78722940D01*
X186640185Y-78655901D01*
X186656819Y-78635259D01*
X190795259Y-74496819D01*
X190856582Y-74463334D01*
X190882940Y-74460500D01*
X191950967Y-74460500D01*
X192018006Y-74480185D01*
G37*
%TD.AperFunction*%
%TA.AperFunction,Conductor*%
G36*
X199697946Y-76428510D02*
G01*
X199731640Y-76428991D01*
X199732791Y-76429754D01*
X199734171Y-76429804D01*
X199761822Y-76449002D01*
X199789873Y-76467601D01*
X199790796Y-76469119D01*
X199791563Y-76469652D01*
X199809572Y-76500006D01*
X199861983Y-76626540D01*
X199861990Y-76626553D01*
X199960534Y-76774033D01*
X199960535Y-76774034D01*
X199960536Y-76774035D01*
X199973180Y-76786679D01*
X200006665Y-76847999D01*
X200009500Y-76874361D01*
X200009500Y-80959191D01*
X200000855Y-80988631D01*
X199994332Y-81018618D01*
X199990577Y-81023633D01*
X199989815Y-81026230D01*
X199973181Y-81046872D01*
X199801880Y-81218172D01*
X199740557Y-81251657D01*
X199670865Y-81246673D01*
X199614932Y-81204801D01*
X199591726Y-81149891D01*
X199562246Y-80963757D01*
X199496557Y-80761588D01*
X199400051Y-80572184D01*
X199400049Y-80572181D01*
X199400048Y-80572179D01*
X199275109Y-80400213D01*
X199124792Y-80249896D01*
X199071729Y-80211344D01*
X198960204Y-80130316D01*
X198917540Y-80074989D01*
X198911561Y-80005376D01*
X198944166Y-79943580D01*
X198960199Y-79929686D01*
X199124792Y-79810104D01*
X199275104Y-79659792D01*
X199275106Y-79659788D01*
X199275109Y-79659786D01*
X199400048Y-79487820D01*
X199400047Y-79487820D01*
X199400051Y-79487816D01*
X199496557Y-79298412D01*
X199562246Y-79096243D01*
X199595500Y-78886287D01*
X199595500Y-78673713D01*
X199562246Y-78463757D01*
X199496557Y-78261588D01*
X199400051Y-78072184D01*
X199400049Y-78072181D01*
X199400048Y-78072179D01*
X199275109Y-77900213D01*
X199124790Y-77749894D01*
X199124785Y-77749890D01*
X198959781Y-77630008D01*
X198917115Y-77574678D01*
X198911136Y-77505065D01*
X198943741Y-77443270D01*
X198959781Y-77429371D01*
X199124466Y-77309721D01*
X199274723Y-77159464D01*
X199274727Y-77159459D01*
X199399620Y-76987557D01*
X199496095Y-76798217D01*
X199561755Y-76596134D01*
X199572537Y-76528061D01*
X199573128Y-76526813D01*
X199572981Y-76525441D01*
X199588043Y-76495350D01*
X199602466Y-76464926D01*
X199603638Y-76464196D01*
X199604256Y-76462962D01*
X199633182Y-76445799D01*
X199661777Y-76427994D01*
X199663158Y-76428013D01*
X199664345Y-76427310D01*
X199697946Y-76428510D01*
G37*
%TD.AperFunction*%
%TA.AperFunction,Conductor*%
G36*
X162903303Y-78733695D02*
G01*
X162909781Y-78739727D01*
X164471280Y-80301226D01*
X164504765Y-80362549D01*
X164499781Y-80432241D01*
X164457909Y-80488174D01*
X164392445Y-80512591D01*
X164383599Y-80512907D01*
X162487133Y-80512907D01*
X162420094Y-80493222D01*
X162392848Y-80469445D01*
X162390064Y-80466186D01*
X162245313Y-80321435D01*
X162079711Y-80201120D01*
X162025721Y-80173610D01*
X161974925Y-80125635D01*
X161958131Y-80057814D01*
X161980669Y-79991679D01*
X162025724Y-79952640D01*
X162079449Y-79925266D01*
X162124021Y-79892881D01*
X161444547Y-79213407D01*
X161450761Y-79213407D01*
X161552494Y-79186148D01*
X161643706Y-79133487D01*
X161718180Y-79059013D01*
X161770841Y-78967801D01*
X161798100Y-78866068D01*
X161798100Y-78859853D01*
X162477574Y-79539328D01*
X162509959Y-79494756D01*
X162602855Y-79312438D01*
X162666090Y-79117824D01*
X162698100Y-78915724D01*
X162698100Y-78827408D01*
X162717785Y-78760369D01*
X162770589Y-78714614D01*
X162839747Y-78704670D01*
X162903303Y-78733695D01*
G37*
%TD.AperFunction*%
%TA.AperFunction,Conductor*%
G36*
X169346855Y-63417315D02*
G01*
X169377684Y-63480016D01*
X169379500Y-63501162D01*
X169379500Y-63578846D01*
X169410261Y-63733489D01*
X169410264Y-63733501D01*
X169470602Y-63879172D01*
X169470609Y-63879185D01*
X169558210Y-64010288D01*
X169558213Y-64010292D01*
X171883181Y-66335259D01*
X171916666Y-66396582D01*
X171919500Y-66422940D01*
X171919500Y-67234091D01*
X171899815Y-67301130D01*
X171855731Y-67339641D01*
X171856813Y-67341395D01*
X171850667Y-67345185D01*
X171850666Y-67345186D01*
X171802685Y-67374781D01*
X171701342Y-67437289D01*
X171577289Y-67561342D01*
X171557226Y-67593870D01*
X171503000Y-67681786D01*
X171481395Y-67716813D01*
X171479600Y-67715706D01*
X171475014Y-67720916D01*
X171467805Y-67736703D01*
X171452406Y-67746598D01*
X171440313Y-67760337D01*
X171423425Y-67765224D01*
X171409027Y-67774477D01*
X171374092Y-67779500D01*
X171269033Y-67779500D01*
X171201994Y-67759815D01*
X171174748Y-67736038D01*
X171171964Y-67732779D01*
X171027213Y-67588028D01*
X170861613Y-67467715D01*
X170861612Y-67467714D01*
X170861610Y-67467713D01*
X170788407Y-67430414D01*
X170679223Y-67374781D01*
X170484534Y-67311522D01*
X170309995Y-67283878D01*
X170282352Y-67279500D01*
X170077648Y-67279500D01*
X170053329Y-67283351D01*
X169875465Y-67311522D01*
X169680776Y-67374781D01*
X169498386Y-67467715D01*
X169332786Y-67588028D01*
X169188028Y-67732786D01*
X169067715Y-67898386D01*
X168974781Y-68080776D01*
X168911522Y-68275465D01*
X168879500Y-68477648D01*
X168879500Y-68682359D01*
X168879835Y-68686619D01*
X168865467Y-68754996D01*
X168843898Y-68784022D01*
X168447913Y-69180009D01*
X168325454Y-69302468D01*
X168269703Y-69358219D01*
X168213952Y-69413969D01*
X168126352Y-69545071D01*
X168126345Y-69545084D01*
X168066007Y-69690755D01*
X168066004Y-69690767D01*
X168035243Y-69845410D01*
X168035243Y-72784358D01*
X168015558Y-72851397D01*
X167998924Y-72872039D01*
X167920055Y-72950907D01*
X167920055Y-72950908D01*
X167920053Y-72950910D01*
X167900088Y-72978390D01*
X167808983Y-73103783D01*
X167723197Y-73272146D01*
X167664802Y-73451864D01*
X167635243Y-73638496D01*
X167635243Y-73827469D01*
X167664802Y-74014101D01*
X167723197Y-74193819D01*
X167808983Y-74362182D01*
X167920053Y-74515056D01*
X167920055Y-74515058D01*
X167998924Y-74593927D01*
X168032409Y-74655250D01*
X168035243Y-74681608D01*
X168035243Y-75325632D01*
X168015558Y-75392671D01*
X167998924Y-75413313D01*
X167994312Y-75417924D01*
X167994312Y-75417925D01*
X167994310Y-75417927D01*
X167950196Y-75478644D01*
X167883240Y-75570800D01*
X167797454Y-75739163D01*
X167739059Y-75918881D01*
X167709500Y-76105513D01*
X167709500Y-76294486D01*
X167739059Y-76481118D01*
X167797454Y-76660836D01*
X167858172Y-76780000D01*
X167883240Y-76829199D01*
X167994310Y-76982073D01*
X167994312Y-76982075D01*
X167998924Y-76986687D01*
X168032409Y-77048010D01*
X168035243Y-77074368D01*
X168035243Y-78138771D01*
X168015558Y-78205810D01*
X168011569Y-78211645D01*
X167975283Y-78261588D01*
X167912339Y-78348222D01*
X167826553Y-78516585D01*
X167768158Y-78696303D01*
X167738599Y-78882935D01*
X167738599Y-79071908D01*
X167768158Y-79258540D01*
X167826553Y-79438258D01*
X167878052Y-79539329D01*
X167912339Y-79606621D01*
X168011562Y-79743189D01*
X168035041Y-79808992D01*
X168035243Y-79816072D01*
X168035243Y-80388907D01*
X168015558Y-80455946D01*
X167962754Y-80501701D01*
X167911243Y-80512907D01*
X167202229Y-80512907D01*
X167135190Y-80493222D01*
X167089435Y-80440418D01*
X167079491Y-80371260D01*
X167080608Y-80364732D01*
X167081014Y-80362693D01*
X167081014Y-80185311D01*
X167081014Y-80185308D01*
X167081013Y-80185306D01*
X167046410Y-80011343D01*
X167046407Y-80011334D01*
X167039718Y-79995186D01*
X167017067Y-79940500D01*
X166978530Y-79847461D01*
X166978523Y-79847448D01*
X166879978Y-79699967D01*
X166879975Y-79699963D01*
X166754552Y-79574540D01*
X166754548Y-79574537D01*
X166607067Y-79475992D01*
X166607054Y-79475985D01*
X166443181Y-79408108D01*
X166443172Y-79408105D01*
X166269208Y-79373502D01*
X166269205Y-79373502D01*
X166091823Y-79373502D01*
X166091818Y-79373502D01*
X166002437Y-79391281D01*
X165932845Y-79385054D01*
X165877668Y-79342190D01*
X165854424Y-79276301D01*
X165870492Y-79208304D01*
X165875144Y-79200772D01*
X165898013Y-79166547D01*
X165965894Y-79002666D01*
X165966429Y-78999980D01*
X165993065Y-78866068D01*
X166000500Y-78828691D01*
X166000500Y-78651309D01*
X166000500Y-78651306D01*
X166000499Y-78651304D01*
X165965896Y-78477341D01*
X165965893Y-78477332D01*
X165960271Y-78463760D01*
X165926993Y-78383418D01*
X165898016Y-78313459D01*
X165898009Y-78313446D01*
X165799464Y-78165965D01*
X165799461Y-78165961D01*
X165786819Y-78153319D01*
X165753334Y-78091996D01*
X165750500Y-78065638D01*
X165750500Y-77553168D01*
X165725502Y-77427501D01*
X165725501Y-77427500D01*
X165725501Y-77427496D01*
X165676465Y-77309113D01*
X165669221Y-77298272D01*
X165669221Y-77298270D01*
X165605278Y-77202572D01*
X165605272Y-77202565D01*
X162435476Y-74032770D01*
X162401991Y-73971447D01*
X162400684Y-73925696D01*
X162416243Y-73827464D01*
X162416243Y-73638502D01*
X162416243Y-73638496D01*
X162386683Y-73451864D01*
X162355361Y-73355466D01*
X162328290Y-73272151D01*
X162328288Y-73272148D01*
X162328288Y-73272146D01*
X162251301Y-73121051D01*
X162242503Y-73103784D01*
X162131433Y-72950910D01*
X161997816Y-72817293D01*
X161844942Y-72706223D01*
X161830352Y-72698789D01*
X161676579Y-72620437D01*
X161496861Y-72562042D01*
X161310229Y-72532483D01*
X161310224Y-72532483D01*
X161121262Y-72532483D01*
X161121257Y-72532483D01*
X160934624Y-72562042D01*
X160754906Y-72620437D01*
X160586543Y-72706223D01*
X160499322Y-72769593D01*
X160433670Y-72817293D01*
X160433668Y-72817295D01*
X160433667Y-72817295D01*
X160300055Y-72950907D01*
X160300055Y-72950908D01*
X160300053Y-72950910D01*
X160209079Y-73076125D01*
X160207436Y-73078386D01*
X160152106Y-73121051D01*
X160107118Y-73129500D01*
X157594618Y-73129500D01*
X157527579Y-73109815D01*
X157493900Y-73075408D01*
X157492915Y-73076125D01*
X157365109Y-72900213D01*
X157214786Y-72749890D01*
X157042820Y-72624951D01*
X156853414Y-72528444D01*
X156853413Y-72528443D01*
X156853412Y-72528443D01*
X156651243Y-72462754D01*
X156651241Y-72462753D01*
X156651240Y-72462753D01*
X156489957Y-72437208D01*
X156441287Y-72429500D01*
X155978713Y-72429500D01*
X155930042Y-72437208D01*
X155768760Y-72462753D01*
X155768757Y-72462754D01*
X155577742Y-72524819D01*
X155566585Y-72528444D01*
X155377179Y-72624951D01*
X155205213Y-72749890D01*
X155054890Y-72900213D01*
X154929951Y-73072179D01*
X154833444Y-73261585D01*
X154833443Y-73261587D01*
X154833443Y-73261588D01*
X154830011Y-73272151D01*
X154767753Y-73463760D01*
X154734500Y-73673713D01*
X154734500Y-73886286D01*
X154759311Y-74042940D01*
X154767754Y-74096243D01*
X154799457Y-74193815D01*
X154833444Y-74298414D01*
X154929951Y-74487820D01*
X155054890Y-74659786D01*
X155205209Y-74810105D01*
X155205214Y-74810109D01*
X155369793Y-74929682D01*
X155412459Y-74985011D01*
X155418438Y-75054625D01*
X155385833Y-75116420D01*
X155369793Y-75130318D01*
X155205214Y-75249890D01*
X155205209Y-75249894D01*
X155054890Y-75400213D01*
X154929951Y-75572179D01*
X154833444Y-75761585D01*
X154767753Y-75963760D01*
X154734500Y-76173713D01*
X154734500Y-76386287D01*
X154742764Y-76438464D01*
X154767736Y-76596134D01*
X154767754Y-76596243D01*
X154825522Y-76774035D01*
X154833444Y-76798414D01*
X154929951Y-76987820D01*
X155054890Y-77159786D01*
X155205209Y-77310105D01*
X155205214Y-77310109D01*
X155370218Y-77429991D01*
X155412884Y-77485320D01*
X155418863Y-77554934D01*
X155386258Y-77616729D01*
X155370218Y-77630627D01*
X155205540Y-77750272D01*
X155205535Y-77750276D01*
X155055276Y-77900535D01*
X155055272Y-77900540D01*
X154930379Y-78072442D01*
X154833904Y-78261782D01*
X154768242Y-78463870D01*
X154768242Y-78463873D01*
X154757769Y-78530000D01*
X155776988Y-78530000D01*
X155744075Y-78587007D01*
X155710000Y-78714174D01*
X155710000Y-78845826D01*
X155744075Y-78972993D01*
X155776988Y-79030000D01*
X154757769Y-79030000D01*
X154768242Y-79096126D01*
X154768242Y-79096129D01*
X154833904Y-79298217D01*
X154930379Y-79487557D01*
X155055272Y-79659459D01*
X155055276Y-79659464D01*
X155194143Y-79798331D01*
X155205288Y-79818742D01*
X155220191Y-79836598D01*
X155221719Y-79848833D01*
X155227628Y-79859654D01*
X155225969Y-79882851D01*
X155228852Y-79905929D01*
X155223523Y-79917046D01*
X155222644Y-79929346D01*
X155208705Y-79947964D01*
X155198655Y-79968936D01*
X155183601Y-79981499D01*
X155180772Y-79985279D01*
X155171558Y-79991551D01*
X155015070Y-80088073D01*
X154947678Y-80106513D01*
X154881015Y-80085590D01*
X154862293Y-80070215D01*
X153236819Y-78444741D01*
X153203334Y-78383418D01*
X153200500Y-78357060D01*
X153200500Y-74042940D01*
X153220185Y-73975901D01*
X153236819Y-73955259D01*
X156831786Y-70360292D01*
X156831789Y-70360289D01*
X156919394Y-70229179D01*
X156979738Y-70083497D01*
X157010500Y-69928842D01*
X157010500Y-69771157D01*
X157010500Y-68705154D01*
X157030185Y-68638115D01*
X157082989Y-68592360D01*
X157095496Y-68587448D01*
X157136284Y-68573932D01*
X157254334Y-68534814D01*
X157403656Y-68442712D01*
X157527712Y-68318656D01*
X157619814Y-68169334D01*
X157631028Y-68135494D01*
X157670801Y-68078050D01*
X157735317Y-68051228D01*
X157748733Y-68050500D01*
X160351889Y-68050500D01*
X160418928Y-68070185D01*
X160452208Y-68101616D01*
X160495170Y-68160750D01*
X160639926Y-68305506D01*
X160752496Y-68387291D01*
X160805530Y-68425822D01*
X160907244Y-68477648D01*
X160987916Y-68518753D01*
X160987918Y-68518753D01*
X160987921Y-68518755D01*
X161037346Y-68534814D01*
X161182605Y-68582012D01*
X161282879Y-68597894D01*
X161384788Y-68614035D01*
X161384789Y-68614035D01*
X161589491Y-68614035D01*
X161589492Y-68614035D01*
X161791674Y-68582012D01*
X161986359Y-68518755D01*
X162168750Y-68425822D01*
X162263934Y-68356667D01*
X162334353Y-68305506D01*
X162334355Y-68305503D01*
X162334359Y-68305501D01*
X162479106Y-68160754D01*
X162479112Y-68160745D01*
X162481888Y-68157497D01*
X162540398Y-68119308D01*
X162576173Y-68114035D01*
X163815691Y-68114035D01*
X163815692Y-68114034D01*
X163970344Y-68083272D01*
X164116026Y-68022929D01*
X164247136Y-67935324D01*
X168686193Y-63496267D01*
X168747516Y-63462782D01*
X168773874Y-63459948D01*
X168885420Y-63459948D01*
X169018727Y-63438833D01*
X169072052Y-63430388D01*
X169217185Y-63383230D01*
X169287022Y-63381235D01*
X169346855Y-63417315D01*
G37*
%TD.AperFunction*%
%TA.AperFunction,Conductor*%
G36*
X160340698Y-76950185D02*
G01*
X160370828Y-76978639D01*
X160371146Y-76978368D01*
X160373669Y-76981322D01*
X160373972Y-76981609D01*
X160374310Y-76982073D01*
X160507927Y-77115690D01*
X160660801Y-77226760D01*
X160685754Y-77239474D01*
X160829163Y-77312545D01*
X160829165Y-77312545D01*
X160829168Y-77312547D01*
X160956821Y-77354024D01*
X161014496Y-77393462D01*
X161041694Y-77457821D01*
X161029779Y-77526667D01*
X160982535Y-77578143D01*
X160956822Y-77589885D01*
X160899072Y-77608649D01*
X160716744Y-77701550D01*
X160672177Y-77733930D01*
X160672177Y-77733931D01*
X161351654Y-78413407D01*
X161345439Y-78413407D01*
X161243706Y-78440666D01*
X161152494Y-78493327D01*
X161078020Y-78567801D01*
X161025359Y-78659013D01*
X160998100Y-78760746D01*
X160998100Y-78766960D01*
X160318624Y-78087484D01*
X160318623Y-78087484D01*
X160286243Y-78132051D01*
X160193344Y-78314375D01*
X160130109Y-78508989D01*
X160098100Y-78711089D01*
X160098100Y-78915724D01*
X160130109Y-79117824D01*
X160193344Y-79312438D01*
X160286241Y-79494757D01*
X160286247Y-79494766D01*
X160318623Y-79539328D01*
X160318624Y-79539329D01*
X160998100Y-78859853D01*
X160998100Y-78866068D01*
X161025359Y-78967801D01*
X161078020Y-79059013D01*
X161152494Y-79133487D01*
X161243706Y-79186148D01*
X161345439Y-79213407D01*
X161351653Y-79213407D01*
X160672176Y-79892881D01*
X160716752Y-79925268D01*
X160770476Y-79952641D01*
X160821272Y-80000615D01*
X160838068Y-80068435D01*
X160815531Y-80134571D01*
X160770479Y-80173610D01*
X160716486Y-80201121D01*
X160550888Y-80321434D01*
X160429140Y-80443182D01*
X160367817Y-80476666D01*
X160341459Y-80479500D01*
X157748733Y-80479500D01*
X157681694Y-80459815D01*
X157635939Y-80407011D01*
X157631028Y-80394506D01*
X157626495Y-80380829D01*
X157619814Y-80360666D01*
X157527712Y-80211344D01*
X157403656Y-80087288D01*
X157254334Y-79995186D01*
X157254332Y-79995185D01*
X157248440Y-79991551D01*
X157201716Y-79939603D01*
X157190493Y-79870641D01*
X157218337Y-79806558D01*
X157225856Y-79798330D01*
X157364728Y-79659458D01*
X157489620Y-79487557D01*
X157586095Y-79298217D01*
X157651757Y-79096129D01*
X157651757Y-79096126D01*
X157662231Y-79030000D01*
X156643012Y-79030000D01*
X156675925Y-78972993D01*
X156710000Y-78845826D01*
X156710000Y-78714174D01*
X156675925Y-78587007D01*
X156643012Y-78530000D01*
X157662231Y-78530000D01*
X157651757Y-78463873D01*
X157651757Y-78463870D01*
X157586095Y-78261782D01*
X157489620Y-78072442D01*
X157364727Y-77900540D01*
X157364723Y-77900535D01*
X157214464Y-77750276D01*
X157214459Y-77750272D01*
X157049781Y-77630627D01*
X157007115Y-77575297D01*
X157001136Y-77505684D01*
X157033741Y-77443889D01*
X157049776Y-77429994D01*
X157214792Y-77310104D01*
X157365104Y-77159792D01*
X157365106Y-77159788D01*
X157365109Y-77159786D01*
X157492915Y-76983875D01*
X157494259Y-76984851D01*
X157540705Y-76942834D01*
X157594618Y-76930500D01*
X160273659Y-76930500D01*
X160340698Y-76950185D01*
G37*
%TD.AperFunction*%
%TA.AperFunction,Conductor*%
G36*
X196648306Y-74600185D02*
G01*
X196694061Y-74652989D01*
X196698972Y-74665494D01*
X196710186Y-74699334D01*
X196802288Y-74848656D01*
X196926344Y-74972712D01*
X197048644Y-75048147D01*
X197081558Y-75068448D01*
X197128283Y-75120396D01*
X197139506Y-75189358D01*
X197111663Y-75253441D01*
X197104144Y-75261668D01*
X196965271Y-75400541D01*
X196840379Y-75572442D01*
X196743904Y-75761782D01*
X196678242Y-75963870D01*
X196678242Y-75963873D01*
X196667769Y-76030000D01*
X197686988Y-76030000D01*
X197654075Y-76087007D01*
X197620000Y-76214174D01*
X197620000Y-76345826D01*
X197654075Y-76472993D01*
X197686988Y-76530000D01*
X196667769Y-76530000D01*
X196678242Y-76596126D01*
X196678242Y-76596129D01*
X196743904Y-76798217D01*
X196840379Y-76987557D01*
X196965272Y-77159459D01*
X196965276Y-77159464D01*
X197115535Y-77309723D01*
X197115540Y-77309727D01*
X197280218Y-77429372D01*
X197322884Y-77484701D01*
X197328863Y-77554315D01*
X197296258Y-77616110D01*
X197280218Y-77630008D01*
X197115214Y-77749890D01*
X197115209Y-77749894D01*
X196964890Y-77900213D01*
X196837085Y-78076125D01*
X196835740Y-78075148D01*
X196789295Y-78117166D01*
X196735382Y-78129500D01*
X194143526Y-78129500D01*
X194076487Y-78109815D01*
X194043208Y-78078385D01*
X194013258Y-78037163D01*
X193955690Y-77957927D01*
X193822073Y-77824310D01*
X193669199Y-77713240D01*
X193646256Y-77701550D01*
X193500832Y-77627452D01*
X193478634Y-77620240D01*
X193420959Y-77580802D01*
X193393762Y-77516443D01*
X193405677Y-77447597D01*
X193452922Y-77396122D01*
X193478636Y-77384379D01*
X193539029Y-77364755D01*
X193721349Y-77271859D01*
X193765921Y-77239474D01*
X193086447Y-76560000D01*
X193092661Y-76560000D01*
X193194394Y-76532741D01*
X193285606Y-76480080D01*
X193360080Y-76405606D01*
X193412741Y-76314394D01*
X193440000Y-76212661D01*
X193440000Y-76206447D01*
X194119474Y-76885921D01*
X194151859Y-76841349D01*
X194244755Y-76659031D01*
X194307990Y-76464417D01*
X194340000Y-76262317D01*
X194340000Y-76057682D01*
X194307990Y-75855582D01*
X194244755Y-75660968D01*
X194151859Y-75478650D01*
X194119474Y-75434077D01*
X194119474Y-75434076D01*
X193440000Y-76113551D01*
X193440000Y-76107339D01*
X193412741Y-76005606D01*
X193360080Y-75914394D01*
X193285606Y-75839920D01*
X193194394Y-75787259D01*
X193092661Y-75760000D01*
X193086446Y-75760000D01*
X193765922Y-75080524D01*
X193765921Y-75080523D01*
X193721359Y-75048147D01*
X193721350Y-75048141D01*
X193667621Y-75020765D01*
X193616825Y-74972791D01*
X193600030Y-74904970D01*
X193622567Y-74838835D01*
X193667621Y-74799795D01*
X193721610Y-74772287D01*
X193771144Y-74736298D01*
X193887213Y-74651971D01*
X193887215Y-74651968D01*
X193887219Y-74651966D01*
X193922366Y-74616819D01*
X193983689Y-74583334D01*
X194010047Y-74580500D01*
X196581267Y-74580500D01*
X196648306Y-74600185D01*
G37*
%TD.AperFunction*%
%TA.AperFunction,Conductor*%
G36*
X200464099Y-74600185D02*
G01*
X200484741Y-74616819D01*
X200982348Y-75114426D01*
X201015833Y-75175749D01*
X201010849Y-75245441D01*
X200968977Y-75301374D01*
X200903513Y-75325791D01*
X200870476Y-75323724D01*
X200748694Y-75299500D01*
X200748691Y-75299500D01*
X200571309Y-75299500D01*
X200571306Y-75299500D01*
X200397341Y-75334103D01*
X200397332Y-75334106D01*
X200233459Y-75401983D01*
X200233446Y-75401990D01*
X200085965Y-75500535D01*
X200085961Y-75500538D01*
X199960538Y-75625961D01*
X199960535Y-75625965D01*
X199861990Y-75773446D01*
X199861983Y-75773459D01*
X199794106Y-75937332D01*
X199792353Y-75943112D01*
X199754050Y-76001548D01*
X199690235Y-76029999D01*
X199621169Y-76019433D01*
X199568780Y-75973204D01*
X199555764Y-75945425D01*
X199496095Y-75761782D01*
X199399620Y-75572442D01*
X199274727Y-75400540D01*
X199274723Y-75400535D01*
X199135856Y-75261668D01*
X199102371Y-75200345D01*
X199107355Y-75130653D01*
X199149227Y-75074720D01*
X199158441Y-75068448D01*
X199164331Y-75064814D01*
X199164334Y-75064814D01*
X199313656Y-74972712D01*
X199437712Y-74848656D01*
X199529814Y-74699334D01*
X199541028Y-74665494D01*
X199580801Y-74608050D01*
X199645317Y-74581228D01*
X199658733Y-74580500D01*
X200397060Y-74580500D01*
X200464099Y-74600185D01*
G37*
%TD.AperFunction*%
%TA.AperFunction,Conductor*%
G36*
X154665040Y-64817418D02*
G01*
X154720973Y-64859290D01*
X154744179Y-64914202D01*
X154768242Y-65066127D01*
X154768242Y-65066130D01*
X154833904Y-65268217D01*
X154930379Y-65457557D01*
X155055272Y-65629459D01*
X155055276Y-65629464D01*
X155194143Y-65768331D01*
X155227628Y-65829654D01*
X155222644Y-65899346D01*
X155180772Y-65955279D01*
X155171559Y-65961551D01*
X155016342Y-66057289D01*
X154892289Y-66181342D01*
X154800187Y-66330663D01*
X154800185Y-66330668D01*
X154772843Y-66413181D01*
X154745001Y-66497203D01*
X154745001Y-66497204D01*
X154745000Y-66497204D01*
X154734500Y-66599983D01*
X154734500Y-67900001D01*
X154734501Y-67900018D01*
X154745000Y-68002796D01*
X154745001Y-68002799D01*
X154797343Y-68160754D01*
X154800186Y-68169334D01*
X154892288Y-68318656D01*
X155016344Y-68442712D01*
X155165666Y-68534814D01*
X155283716Y-68573932D01*
X155324504Y-68587448D01*
X155381949Y-68627221D01*
X155408772Y-68691737D01*
X155409500Y-68705154D01*
X155409500Y-69467060D01*
X155389815Y-69534099D01*
X155373181Y-69554741D01*
X151894163Y-73033759D01*
X151832840Y-73067244D01*
X151763148Y-73062260D01*
X151707215Y-73020388D01*
X151682798Y-72954924D01*
X151682482Y-72946078D01*
X151682482Y-67748825D01*
X151702167Y-67681786D01*
X151718796Y-67661149D01*
X154534027Y-64845917D01*
X154595348Y-64812434D01*
X154665040Y-64817418D01*
G37*
%TD.AperFunction*%
%TA.AperFunction,Conductor*%
G36*
X171441131Y-69400185D02*
G01*
X171479636Y-69444271D01*
X171481395Y-69443187D01*
X171485185Y-69449331D01*
X171485186Y-69449334D01*
X171577288Y-69598656D01*
X171701344Y-69722712D01*
X171850666Y-69814814D01*
X171933152Y-69842147D01*
X171990597Y-69881920D01*
X172017420Y-69946436D01*
X172005105Y-70015212D01*
X171995143Y-70026975D01*
X171994077Y-70040524D01*
X172673554Y-70720000D01*
X172667339Y-70720000D01*
X172565606Y-70747259D01*
X172474394Y-70799920D01*
X172399920Y-70874394D01*
X172347259Y-70965606D01*
X172320000Y-71067339D01*
X172320000Y-71073553D01*
X171640524Y-70394077D01*
X171640523Y-70394077D01*
X171608143Y-70438645D01*
X171608141Y-70438648D01*
X171570674Y-70512181D01*
X171522700Y-70562976D01*
X171454879Y-70579771D01*
X171388744Y-70557233D01*
X171349705Y-70512179D01*
X171291861Y-70398652D01*
X171259474Y-70354077D01*
X171259474Y-70354076D01*
X170580000Y-71033551D01*
X170580000Y-71027339D01*
X170552741Y-70925606D01*
X170500080Y-70834394D01*
X170425606Y-70759920D01*
X170334394Y-70707259D01*
X170232661Y-70680000D01*
X170226446Y-70680000D01*
X170905922Y-70000524D01*
X170905921Y-70000523D01*
X170861359Y-69968147D01*
X170861350Y-69968141D01*
X170807621Y-69940765D01*
X170756825Y-69892791D01*
X170740030Y-69824970D01*
X170762567Y-69758835D01*
X170807621Y-69719795D01*
X170861610Y-69692287D01*
X170979329Y-69606760D01*
X171027213Y-69571971D01*
X171027215Y-69571968D01*
X171027219Y-69571966D01*
X171171966Y-69427219D01*
X171171972Y-69427210D01*
X171174748Y-69423962D01*
X171175130Y-69423712D01*
X171175320Y-69423297D01*
X171204380Y-69404621D01*
X171233258Y-69385773D01*
X171233843Y-69385686D01*
X171234098Y-69385523D01*
X171269033Y-69380500D01*
X171374092Y-69380500D01*
X171441131Y-69400185D01*
G37*
%TD.AperFunction*%
%TA.AperFunction,Conductor*%
G36*
X199345809Y-65661601D02*
G01*
X199390156Y-65690102D01*
X201130468Y-67430414D01*
X201163953Y-67491737D01*
X201166787Y-67518095D01*
X201166787Y-70169644D01*
X201147102Y-70236683D01*
X201094298Y-70282438D01*
X201025140Y-70292382D01*
X200995336Y-70284206D01*
X200961424Y-70270160D01*
X200922666Y-70254106D01*
X200922662Y-70254105D01*
X200922658Y-70254103D01*
X200748694Y-70219500D01*
X200748691Y-70219500D01*
X200730808Y-70219500D01*
X200663769Y-70199815D01*
X200643127Y-70183181D01*
X199004613Y-68544667D01*
X198971128Y-68483344D01*
X198976112Y-68413652D01*
X199017984Y-68357719D01*
X199019323Y-68356730D01*
X199124792Y-68280104D01*
X199275104Y-68129792D01*
X199275106Y-68129788D01*
X199275109Y-68129786D01*
X199400048Y-67957820D01*
X199400047Y-67957820D01*
X199400051Y-67957816D01*
X199496557Y-67768412D01*
X199562246Y-67566243D01*
X199595500Y-67356287D01*
X199595500Y-67143713D01*
X199562246Y-66933757D01*
X199496557Y-66731588D01*
X199400051Y-66542184D01*
X199400049Y-66542181D01*
X199400048Y-66542179D01*
X199275109Y-66370213D01*
X199124792Y-66219896D01*
X199116265Y-66213701D01*
X198960204Y-66100316D01*
X198917540Y-66044989D01*
X198911561Y-65975376D01*
X198944166Y-65913580D01*
X198960199Y-65899686D01*
X199124792Y-65780104D01*
X199214794Y-65690102D01*
X199276117Y-65656617D01*
X199345809Y-65661601D01*
G37*
%TD.AperFunction*%
%TA.AperFunction,Conductor*%
G36*
X199432678Y-60901772D02*
G01*
X199455479Y-60903403D01*
X199468661Y-60911874D01*
X199477940Y-60914480D01*
X199484877Y-60922297D01*
X199499826Y-60931904D01*
X202363181Y-63795259D01*
X202396666Y-63856582D01*
X202399500Y-63882940D01*
X202399500Y-66560191D01*
X202379815Y-66627230D01*
X202327011Y-66672985D01*
X202257853Y-66682929D01*
X202194297Y-66653904D01*
X202187819Y-66647872D01*
X201074669Y-65534723D01*
X199784674Y-64244727D01*
X199784673Y-64244726D01*
X199784669Y-64244723D01*
X199678127Y-64173535D01*
X199670039Y-64170185D01*
X199559744Y-64124499D01*
X199559741Y-64124498D01*
X199552203Y-64122999D01*
X199546115Y-64121788D01*
X199487698Y-64110167D01*
X199466436Y-64099045D01*
X199425789Y-64077783D01*
X199401406Y-64044843D01*
X199400050Y-64042181D01*
X199275109Y-63870213D01*
X199124790Y-63719894D01*
X199124785Y-63719890D01*
X198959781Y-63600008D01*
X198917115Y-63544678D01*
X198911136Y-63475065D01*
X198943741Y-63413270D01*
X198959781Y-63399371D01*
X199124466Y-63279721D01*
X199274723Y-63129464D01*
X199274727Y-63129459D01*
X199399620Y-62957557D01*
X199496095Y-62768217D01*
X199561757Y-62566129D01*
X199561757Y-62566126D01*
X199572231Y-62500000D01*
X198553012Y-62500000D01*
X198585925Y-62442993D01*
X198620000Y-62315826D01*
X198620000Y-62184174D01*
X198585925Y-62057007D01*
X198553012Y-62000000D01*
X199572231Y-62000000D01*
X199561757Y-61933873D01*
X199561757Y-61933870D01*
X199496095Y-61731782D01*
X199399620Y-61542442D01*
X199274727Y-61370540D01*
X199274723Y-61370535D01*
X199135856Y-61231668D01*
X199125586Y-61212861D01*
X199111363Y-61196835D01*
X199109175Y-61182806D01*
X199102371Y-61170345D01*
X199103899Y-61148971D01*
X199100598Y-61127799D01*
X199106342Y-61114814D01*
X199107355Y-61100653D01*
X199120196Y-61083499D01*
X199128866Y-61063903D01*
X199145736Y-61049382D01*
X199149227Y-61044720D01*
X199155263Y-61040475D01*
X199163352Y-61035139D01*
X199164334Y-61034814D01*
X199313656Y-60942712D01*
X199333366Y-60923001D01*
X199343871Y-60916073D01*
X199365726Y-60909372D01*
X199385787Y-60898419D01*
X199398493Y-60899327D01*
X199410672Y-60895594D01*
X199432678Y-60901772D01*
G37*
%TD.AperFunction*%
%TA.AperFunction,Conductor*%
G36*
X160156644Y-62920185D02*
G01*
X160189921Y-62951612D01*
X160255244Y-63041521D01*
X160388861Y-63175138D01*
X160541735Y-63286208D01*
X160618173Y-63325155D01*
X160710097Y-63371993D01*
X160710099Y-63371993D01*
X160710102Y-63371995D01*
X160878909Y-63426844D01*
X160936584Y-63466282D01*
X160963782Y-63530641D01*
X160951867Y-63599487D01*
X160904623Y-63650963D01*
X160896886Y-63655259D01*
X160805788Y-63701676D01*
X160805785Y-63701678D01*
X160761217Y-63734058D01*
X160761217Y-63734059D01*
X161440694Y-64413535D01*
X161434479Y-64413535D01*
X161332746Y-64440794D01*
X161241534Y-64493455D01*
X161167060Y-64567929D01*
X161114399Y-64659141D01*
X161087140Y-64760874D01*
X161087140Y-64767088D01*
X160407664Y-64087612D01*
X160407663Y-64087612D01*
X160375283Y-64132179D01*
X160282384Y-64314503D01*
X160219149Y-64509117D01*
X160187140Y-64711217D01*
X160187140Y-64915852D01*
X160219149Y-65117952D01*
X160282384Y-65312566D01*
X160375281Y-65494885D01*
X160375287Y-65494894D01*
X160407663Y-65539456D01*
X160407664Y-65539457D01*
X161087140Y-64859981D01*
X161087140Y-64866196D01*
X161114399Y-64967929D01*
X161167060Y-65059141D01*
X161241534Y-65133615D01*
X161332746Y-65186276D01*
X161434479Y-65213535D01*
X161440693Y-65213535D01*
X160761216Y-65893009D01*
X160805792Y-65925396D01*
X160859516Y-65952769D01*
X160910312Y-66000743D01*
X160927108Y-66068563D01*
X160904571Y-66134699D01*
X160859519Y-66173738D01*
X160805526Y-66201249D01*
X160639926Y-66321563D01*
X160639922Y-66321567D01*
X160548309Y-66413181D01*
X160486986Y-66446666D01*
X160460628Y-66449500D01*
X157748733Y-66449500D01*
X157681694Y-66429815D01*
X157635939Y-66377011D01*
X157631028Y-66364506D01*
X157626495Y-66350829D01*
X157619814Y-66330666D01*
X157527712Y-66181344D01*
X157403656Y-66057288D01*
X157254334Y-65965186D01*
X157254332Y-65965185D01*
X157248440Y-65961551D01*
X157201716Y-65909603D01*
X157190493Y-65840641D01*
X157218337Y-65776558D01*
X157225856Y-65768330D01*
X157364728Y-65629458D01*
X157489620Y-65457557D01*
X157586095Y-65268217D01*
X157651757Y-65066129D01*
X157651757Y-65066126D01*
X157662231Y-65000000D01*
X156643012Y-65000000D01*
X156675925Y-64942993D01*
X156710000Y-64815826D01*
X156710000Y-64684174D01*
X156675925Y-64557007D01*
X156643012Y-64500000D01*
X157662231Y-64500000D01*
X157651757Y-64433873D01*
X157651757Y-64433870D01*
X157586095Y-64231782D01*
X157489620Y-64042442D01*
X157364727Y-63870540D01*
X157364723Y-63870535D01*
X157214464Y-63720276D01*
X157214459Y-63720272D01*
X157049781Y-63600627D01*
X157007115Y-63545297D01*
X157001136Y-63475684D01*
X157033741Y-63413889D01*
X157049776Y-63399994D01*
X157214792Y-63280104D01*
X157365104Y-63129792D01*
X157365106Y-63129788D01*
X157365109Y-63129786D01*
X157492915Y-62953875D01*
X157494259Y-62954851D01*
X157540705Y-62912834D01*
X157594618Y-62900500D01*
X160089605Y-62900500D01*
X160156644Y-62920185D01*
G37*
%TD.AperFunction*%
%TA.AperFunction,Conductor*%
G36*
X192724099Y-54160185D02*
G01*
X192744741Y-54176819D01*
X196938872Y-58370950D01*
X196972357Y-58432273D01*
X196967373Y-58501965D01*
X196931080Y-58551810D01*
X196931451Y-58552181D01*
X196929098Y-58554533D01*
X196928110Y-58555891D01*
X196926345Y-58557286D01*
X196802289Y-58681342D01*
X196710187Y-58830663D01*
X196707136Y-58837209D01*
X196705236Y-58836323D01*
X196671360Y-58885248D01*
X196606843Y-58912068D01*
X196593430Y-58912796D01*
X194129033Y-58912796D01*
X194061994Y-58893111D01*
X194034748Y-58869334D01*
X194031964Y-58866075D01*
X193887213Y-58721324D01*
X193721613Y-58601011D01*
X193721612Y-58601010D01*
X193721610Y-58601009D01*
X193635799Y-58557286D01*
X193539223Y-58508077D01*
X193344534Y-58444818D01*
X193169995Y-58417174D01*
X193142352Y-58412796D01*
X192937648Y-58412796D01*
X192913329Y-58416647D01*
X192735465Y-58444818D01*
X192540776Y-58508077D01*
X192358386Y-58601011D01*
X192192786Y-58721324D01*
X192048035Y-58866075D01*
X192045252Y-58869334D01*
X191986742Y-58907523D01*
X191950967Y-58912796D01*
X191630457Y-58912796D01*
X191475814Y-58943556D01*
X191475806Y-58943558D01*
X191330128Y-59003900D01*
X191330118Y-59003905D01*
X191199015Y-59091506D01*
X191199011Y-59091509D01*
X186828749Y-63461771D01*
X186767426Y-63495256D01*
X186697734Y-63490272D01*
X186641801Y-63448400D01*
X186618595Y-63393488D01*
X186590940Y-63218881D01*
X186561886Y-63129464D01*
X186532547Y-63039168D01*
X186532545Y-63039165D01*
X186532545Y-63039163D01*
X186458914Y-62894655D01*
X186446760Y-62870801D01*
X186335690Y-62717927D01*
X186202073Y-62584310D01*
X186049199Y-62473240D01*
X186021059Y-62458902D01*
X185880836Y-62387454D01*
X185795501Y-62359727D01*
X185759195Y-62347930D01*
X185701521Y-62308493D01*
X185674323Y-62244134D01*
X185686238Y-62175288D01*
X185733482Y-62123812D01*
X185759194Y-62112069D01*
X185880832Y-62072547D01*
X186049199Y-61986760D01*
X186202073Y-61875690D01*
X186335690Y-61742073D01*
X186446760Y-61589199D01*
X186532547Y-61420832D01*
X186590940Y-61241118D01*
X186594301Y-61219896D01*
X186620500Y-61054486D01*
X186620500Y-60865513D01*
X186590940Y-60678881D01*
X186557853Y-60577051D01*
X186532547Y-60499168D01*
X186532545Y-60499165D01*
X186532545Y-60499163D01*
X186470519Y-60377431D01*
X186446760Y-60330801D01*
X186335690Y-60177927D01*
X186202073Y-60044310D01*
X186197951Y-60041315D01*
X186121613Y-59985851D01*
X186078948Y-59930521D01*
X186070500Y-59885534D01*
X186070500Y-58355928D01*
X186045502Y-58230261D01*
X186045501Y-58230260D01*
X186045501Y-58230256D01*
X185996465Y-58111873D01*
X185966150Y-58066503D01*
X185966150Y-58066502D01*
X185925274Y-58005327D01*
X183294673Y-55374726D01*
X183294669Y-55374723D01*
X183188127Y-55303535D01*
X183069744Y-55254499D01*
X183069738Y-55254497D01*
X182944071Y-55229500D01*
X182944069Y-55229500D01*
X181663933Y-55229500D01*
X181596894Y-55209815D01*
X181553448Y-55161795D01*
X181524505Y-55104991D01*
X181495051Y-55047184D01*
X181489681Y-55039793D01*
X181370109Y-54875213D01*
X181219786Y-54724890D01*
X181047820Y-54599951D01*
X180858414Y-54503444D01*
X180858413Y-54503443D01*
X180858412Y-54503443D01*
X180656243Y-54437754D01*
X180656241Y-54437753D01*
X180656240Y-54437753D01*
X180494957Y-54412208D01*
X180446287Y-54404500D01*
X180233713Y-54404500D01*
X180185042Y-54412208D01*
X180023760Y-54437753D01*
X179821585Y-54503444D01*
X179632179Y-54599951D01*
X179460213Y-54724890D01*
X179309894Y-54875209D01*
X179309890Y-54875214D01*
X179190318Y-55039793D01*
X179134989Y-55082459D01*
X179065375Y-55088438D01*
X179003580Y-55055833D01*
X178989682Y-55039793D01*
X178870109Y-54875214D01*
X178870105Y-54875209D01*
X178719786Y-54724890D01*
X178547820Y-54599951D01*
X178358414Y-54503444D01*
X178358413Y-54503443D01*
X178358412Y-54503443D01*
X178156243Y-54437754D01*
X178156241Y-54437753D01*
X178156240Y-54437753D01*
X177994957Y-54412208D01*
X177946287Y-54404500D01*
X177733713Y-54404500D01*
X177685042Y-54412208D01*
X177523760Y-54437753D01*
X177321585Y-54503444D01*
X177132179Y-54599951D01*
X176960213Y-54724890D01*
X176809894Y-54875209D01*
X176809890Y-54875214D01*
X176690008Y-55040218D01*
X176634678Y-55082884D01*
X176565065Y-55088863D01*
X176503270Y-55056257D01*
X176489372Y-55040218D01*
X176369727Y-54875540D01*
X176369723Y-54875535D01*
X176219464Y-54725276D01*
X176219459Y-54725272D01*
X176047557Y-54600379D01*
X175858217Y-54503904D01*
X175665700Y-54441352D01*
X175608025Y-54401915D01*
X175580826Y-54337556D01*
X175592741Y-54268710D01*
X175616335Y-54235742D01*
X175675260Y-54176818D01*
X175736583Y-54143334D01*
X175762940Y-54140500D01*
X192657060Y-54140500D01*
X192724099Y-54160185D01*
G37*
%TD.AperFunction*%
%TA.AperFunction,Conductor*%
G36*
X176299474Y-61685921D02*
G01*
X176331859Y-61641349D01*
X176424755Y-61459029D01*
X176444379Y-61398636D01*
X176483817Y-61340960D01*
X176548175Y-61313762D01*
X176617022Y-61325677D01*
X176668497Y-61372921D01*
X176680240Y-61398634D01*
X176687452Y-61420832D01*
X176749416Y-61542442D01*
X176773240Y-61589199D01*
X176884310Y-61742073D01*
X176884312Y-61742075D01*
X176963181Y-61820944D01*
X176996666Y-61882267D01*
X176999500Y-61908625D01*
X176999500Y-62551375D01*
X176990855Y-62580815D01*
X176984332Y-62610802D01*
X176980577Y-62615817D01*
X176979815Y-62618414D01*
X176963181Y-62639056D01*
X176939056Y-62663181D01*
X176877733Y-62696666D01*
X176851375Y-62699500D01*
X175642940Y-62699500D01*
X175575901Y-62679815D01*
X175555259Y-62663181D01*
X175347438Y-62455360D01*
X175313953Y-62394037D01*
X175318937Y-62324345D01*
X175360809Y-62268412D01*
X175415721Y-62245206D01*
X175524417Y-62227990D01*
X175719031Y-62164755D01*
X175901349Y-62071859D01*
X175945921Y-62039474D01*
X175266446Y-61360000D01*
X175272661Y-61360000D01*
X175374394Y-61332741D01*
X175465606Y-61280080D01*
X175540080Y-61205606D01*
X175592741Y-61114394D01*
X175620000Y-61012661D01*
X175620000Y-61006447D01*
X176299474Y-61685921D01*
G37*
%TD.AperFunction*%
%TA.AperFunction,Conductor*%
G36*
X175590000Y-57332230D02*
G01*
X175656126Y-57321757D01*
X175656129Y-57321757D01*
X175858217Y-57256095D01*
X176047557Y-57159620D01*
X176219459Y-57034727D01*
X176219464Y-57034723D01*
X176369721Y-56884466D01*
X176489371Y-56719781D01*
X176544701Y-56677115D01*
X176614314Y-56671136D01*
X176676110Y-56703741D01*
X176690008Y-56719781D01*
X176809890Y-56884785D01*
X176809894Y-56884790D01*
X176809896Y-56884792D01*
X176960208Y-57035104D01*
X177132184Y-57160051D01*
X177132188Y-57160053D01*
X177136126Y-57162914D01*
X177135146Y-57164262D01*
X177177160Y-57210690D01*
X177189500Y-57264617D01*
X177189500Y-58524069D01*
X177189500Y-58524071D01*
X177189499Y-58524071D01*
X177214497Y-58649738D01*
X177214499Y-58649744D01*
X177244148Y-58721324D01*
X177263535Y-58768127D01*
X177331746Y-58870213D01*
X177334726Y-58874673D01*
X177334727Y-58874674D01*
X178010874Y-59550820D01*
X178044359Y-59612143D01*
X178039375Y-59681834D01*
X177997504Y-59737768D01*
X177932039Y-59762185D01*
X177903798Y-59760975D01*
X177894484Y-59759500D01*
X177894481Y-59759500D01*
X177705519Y-59759500D01*
X177705514Y-59759500D01*
X177518881Y-59789059D01*
X177339163Y-59847454D01*
X177170800Y-59933240D01*
X177092743Y-59989953D01*
X177017927Y-60044310D01*
X177017925Y-60044312D01*
X177017924Y-60044312D01*
X176884312Y-60177924D01*
X176884312Y-60177925D01*
X176884310Y-60177927D01*
X176836610Y-60243579D01*
X176773240Y-60330800D01*
X176687453Y-60499166D01*
X176680240Y-60521366D01*
X176640801Y-60579040D01*
X176576442Y-60606237D01*
X176507596Y-60594321D01*
X176456121Y-60547076D01*
X176444379Y-60521364D01*
X176424755Y-60460968D01*
X176331859Y-60278650D01*
X176299474Y-60234077D01*
X176299474Y-60234076D01*
X175620000Y-60913551D01*
X175620000Y-60907339D01*
X175592741Y-60805606D01*
X175540080Y-60714394D01*
X175465606Y-60639920D01*
X175374394Y-60587259D01*
X175272661Y-60560000D01*
X175266446Y-60560000D01*
X175945922Y-59880524D01*
X175945921Y-59880523D01*
X175901359Y-59848147D01*
X175901350Y-59848141D01*
X175719031Y-59755244D01*
X175524417Y-59692009D01*
X175322317Y-59660000D01*
X175117683Y-59660000D01*
X174915582Y-59692009D01*
X174720968Y-59755244D01*
X174538644Y-59848143D01*
X174494077Y-59880523D01*
X174494077Y-59880524D01*
X175173554Y-60560000D01*
X175167339Y-60560000D01*
X175065606Y-60587259D01*
X174974394Y-60639920D01*
X174899920Y-60714394D01*
X174847259Y-60805606D01*
X174820000Y-60907339D01*
X174820000Y-60913553D01*
X174140524Y-60234077D01*
X174140523Y-60234077D01*
X174108143Y-60278644D01*
X174080765Y-60332378D01*
X174032790Y-60383174D01*
X173964969Y-60399969D01*
X173898834Y-60377431D01*
X173859795Y-60332378D01*
X173832287Y-60278390D01*
X173832285Y-60278387D01*
X173832284Y-60278385D01*
X173711971Y-60112786D01*
X173676819Y-60077634D01*
X173662115Y-60050706D01*
X173645523Y-60024888D01*
X173644631Y-60018687D01*
X173643334Y-60016311D01*
X173640500Y-59989953D01*
X173640500Y-57418732D01*
X173660185Y-57351693D01*
X173712989Y-57305938D01*
X173725495Y-57301026D01*
X173759334Y-57289814D01*
X173908656Y-57197712D01*
X174032712Y-57073656D01*
X174124814Y-56924334D01*
X174124814Y-56924331D01*
X174128448Y-56918441D01*
X174180395Y-56871716D01*
X174249358Y-56860493D01*
X174313440Y-56888336D01*
X174321668Y-56895856D01*
X174460535Y-57034723D01*
X174460540Y-57034727D01*
X174632442Y-57159620D01*
X174821782Y-57256095D01*
X175023871Y-57321757D01*
X175090000Y-57332231D01*
X175090000Y-56313012D01*
X175147007Y-56345925D01*
X175274174Y-56380000D01*
X175405826Y-56380000D01*
X175532993Y-56345925D01*
X175590000Y-56313012D01*
X175590000Y-57332230D01*
G37*
%TD.AperFunction*%
%TA.AperFunction,Conductor*%
G36*
X205182539Y-51320185D02*
G01*
X205228294Y-51372989D01*
X205239500Y-51424500D01*
X205239500Y-126375500D01*
X205219815Y-126442539D01*
X205167011Y-126488294D01*
X205115500Y-126499500D01*
X147944500Y-126499500D01*
X147877461Y-126479815D01*
X147831706Y-126427011D01*
X147820500Y-126375500D01*
X147820500Y-66035928D01*
X149209500Y-66035928D01*
X149209500Y-78804070D01*
X149231238Y-78913348D01*
X149231238Y-78913350D01*
X149234497Y-78929736D01*
X149234501Y-78929749D01*
X149283532Y-79048123D01*
X149354726Y-79154673D01*
X149354727Y-79154674D01*
X154003181Y-83803127D01*
X154036666Y-83864450D01*
X154039500Y-83890808D01*
X154039500Y-83908695D01*
X154074103Y-84082658D01*
X154074106Y-84082667D01*
X154141983Y-84246540D01*
X154141990Y-84246553D01*
X154240535Y-84394034D01*
X154240538Y-84394038D01*
X154365961Y-84519461D01*
X154365965Y-84519464D01*
X154513446Y-84618009D01*
X154513459Y-84618016D01*
X154623919Y-84663769D01*
X154677334Y-84685894D01*
X154677336Y-84685894D01*
X154677341Y-84685896D01*
X154851304Y-84720499D01*
X154851307Y-84720500D01*
X154851309Y-84720500D01*
X155028693Y-84720500D01*
X155028694Y-84720499D01*
X155094790Y-84707352D01*
X155202658Y-84685896D01*
X155202660Y-84685895D01*
X155202666Y-84685894D01*
X155238049Y-84671237D01*
X155307516Y-84663769D01*
X155369996Y-84695044D01*
X155405648Y-84755133D01*
X155409500Y-84785799D01*
X155409500Y-97868846D01*
X155440261Y-98023489D01*
X155440264Y-98023501D01*
X155500602Y-98169172D01*
X155500609Y-98169185D01*
X155588210Y-98300288D01*
X155588213Y-98300292D01*
X159509707Y-102221786D01*
X159509711Y-102221789D01*
X159640814Y-102309390D01*
X159640818Y-102309392D01*
X159640821Y-102309394D01*
X159786503Y-102369738D01*
X159941153Y-102400499D01*
X159941157Y-102400500D01*
X159941158Y-102400500D01*
X160098844Y-102400500D01*
X160098845Y-102400499D01*
X160253497Y-102369738D01*
X160399179Y-102309394D01*
X160399187Y-102309388D01*
X160404554Y-102306521D01*
X160405586Y-102308452D01*
X160462864Y-102290520D01*
X160465072Y-102290500D01*
X161282410Y-102290500D01*
X161349449Y-102310185D01*
X161382728Y-102341615D01*
X161451711Y-102436562D01*
X161451714Y-102436566D01*
X161613434Y-102598286D01*
X161708388Y-102667274D01*
X161751051Y-102722600D01*
X161759500Y-102767589D01*
X161759500Y-114378846D01*
X161790261Y-114533489D01*
X161790264Y-114533501D01*
X161850602Y-114679172D01*
X161850609Y-114679185D01*
X161938210Y-114810288D01*
X161938213Y-114810292D01*
X163920240Y-116792318D01*
X163953725Y-116853641D01*
X163948741Y-116923333D01*
X163920240Y-116967680D01*
X162804739Y-118083181D01*
X162743416Y-118116666D01*
X162717058Y-118119500D01*
X161752129Y-118119500D01*
X161752123Y-118119501D01*
X161692516Y-118125908D01*
X161557671Y-118176202D01*
X161557664Y-118176206D01*
X161442455Y-118262452D01*
X161442452Y-118262455D01*
X161356206Y-118377664D01*
X161356202Y-118377671D01*
X161305908Y-118512517D01*
X161299501Y-118572116D01*
X161299500Y-118572135D01*
X161299500Y-120267870D01*
X161299501Y-120267876D01*
X161305908Y-120327483D01*
X161356202Y-120462328D01*
X161356206Y-120462335D01*
X161442452Y-120577544D01*
X161442455Y-120577547D01*
X161557664Y-120663793D01*
X161557671Y-120663797D01*
X161602618Y-120680561D01*
X161692517Y-120714091D01*
X161752127Y-120720500D01*
X161752153Y-120720499D01*
X161755453Y-120720678D01*
X161755365Y-120722308D01*
X161816238Y-120740067D01*
X161862084Y-120792791D01*
X161869804Y-120836251D01*
X162553554Y-121520000D01*
X162547339Y-121520000D01*
X162445606Y-121547259D01*
X162354394Y-121599920D01*
X162279920Y-121674394D01*
X162227259Y-121765606D01*
X162200000Y-121867339D01*
X162200000Y-121873553D01*
X161520524Y-121194077D01*
X161520523Y-121194077D01*
X161488143Y-121238644D01*
X161395244Y-121420968D01*
X161332009Y-121615582D01*
X161300000Y-121817682D01*
X161300000Y-122022317D01*
X161332009Y-122224417D01*
X161395244Y-122419031D01*
X161488141Y-122601350D01*
X161488147Y-122601359D01*
X161520523Y-122645921D01*
X161520524Y-122645922D01*
X162200000Y-121966446D01*
X162200000Y-121972661D01*
X162227259Y-122074394D01*
X162279920Y-122165606D01*
X162354394Y-122240080D01*
X162445606Y-122292741D01*
X162547339Y-122320000D01*
X162553553Y-122320000D01*
X161874076Y-122999474D01*
X161918650Y-123031859D01*
X162100968Y-123124755D01*
X162295582Y-123187990D01*
X162497683Y-123220000D01*
X162702317Y-123220000D01*
X162904417Y-123187990D01*
X163099031Y-123124755D01*
X163281349Y-123031859D01*
X163325921Y-122999474D01*
X162646447Y-122320000D01*
X162652661Y-122320000D01*
X162754394Y-122292741D01*
X162845606Y-122240080D01*
X162920080Y-122165606D01*
X162972741Y-122074394D01*
X163000000Y-121972661D01*
X163000000Y-121966448D01*
X163679474Y-122645922D01*
X163679474Y-122645921D01*
X163711859Y-122601349D01*
X163804755Y-122419031D01*
X163867990Y-122224417D01*
X163900000Y-122022317D01*
X163900000Y-121817682D01*
X163867990Y-121615582D01*
X163804755Y-121420968D01*
X163711859Y-121238650D01*
X163679474Y-121194077D01*
X163679474Y-121194076D01*
X163000000Y-121873551D01*
X163000000Y-121867339D01*
X162972741Y-121765606D01*
X162920080Y-121674394D01*
X162845606Y-121599920D01*
X162754394Y-121547259D01*
X162652661Y-121520000D01*
X162646446Y-121520000D01*
X163330931Y-120835515D01*
X163341364Y-120785852D01*
X163390415Y-120736094D01*
X163444637Y-120722048D01*
X163444576Y-120720900D01*
X163444571Y-120720854D01*
X163444573Y-120720853D01*
X163444564Y-120720676D01*
X163447857Y-120720499D01*
X163447872Y-120720499D01*
X163507483Y-120714091D01*
X163642331Y-120663796D01*
X163757546Y-120577546D01*
X163843796Y-120462331D01*
X163894091Y-120327483D01*
X163900500Y-120267873D01*
X163900499Y-119302938D01*
X163909145Y-119273492D01*
X163915667Y-119243512D01*
X163919419Y-119238498D01*
X163920183Y-119235900D01*
X163936813Y-119215263D01*
X165475259Y-117676819D01*
X165536582Y-117643334D01*
X165562940Y-117640500D01*
X169143693Y-117640500D01*
X169210732Y-117660185D01*
X169231374Y-117676819D01*
X169357536Y-117802981D01*
X169518306Y-117919787D01*
X169675332Y-117999796D01*
X169726127Y-118047769D01*
X169742922Y-118115590D01*
X169720385Y-118181725D01*
X169675332Y-118220764D01*
X169518566Y-118300641D01*
X169481283Y-118327729D01*
X169481282Y-118327730D01*
X170095906Y-118942352D01*
X170008429Y-118965792D01*
X169907070Y-119024311D01*
X169824311Y-119107070D01*
X169765792Y-119208429D01*
X169742352Y-119295905D01*
X169127730Y-118681282D01*
X169127729Y-118681283D01*
X169100643Y-118718564D01*
X169010457Y-118895562D01*
X168949075Y-119084476D01*
X168949075Y-119084479D01*
X168918000Y-119280678D01*
X168918000Y-119479321D01*
X168949075Y-119675520D01*
X168949075Y-119675523D01*
X169010457Y-119864437D01*
X169100641Y-120041432D01*
X169127730Y-120078715D01*
X169127731Y-120078716D01*
X169742352Y-119464094D01*
X169765792Y-119551571D01*
X169824311Y-119652930D01*
X169907070Y-119735689D01*
X170008429Y-119794208D01*
X170095905Y-119817647D01*
X169481283Y-120432268D01*
X169481283Y-120432269D01*
X169518567Y-120459358D01*
X169675331Y-120539234D01*
X169726127Y-120587209D01*
X169742922Y-120655030D01*
X169720384Y-120721165D01*
X169675331Y-120760204D01*
X169518305Y-120840213D01*
X169357533Y-120957021D01*
X169217021Y-121097533D01*
X169100213Y-121258305D01*
X169009994Y-121435367D01*
X169009993Y-121435370D01*
X168948587Y-121624362D01*
X168917500Y-121820639D01*
X168917500Y-122019360D01*
X168948587Y-122215637D01*
X169009993Y-122404629D01*
X169009994Y-122404632D01*
X169100213Y-122581694D01*
X169217019Y-122742464D01*
X169357536Y-122882981D01*
X169518306Y-122999787D01*
X169581251Y-123031859D01*
X169695367Y-123090005D01*
X169695370Y-123090006D01*
X169789866Y-123120709D01*
X169884364Y-123151413D01*
X170080639Y-123182500D01*
X170080640Y-123182500D01*
X170279360Y-123182500D01*
X170279361Y-123182500D01*
X170475636Y-123151413D01*
X170664632Y-123090005D01*
X170841694Y-122999787D01*
X171002464Y-122882981D01*
X171142981Y-122742464D01*
X171259787Y-122581694D01*
X171350005Y-122404632D01*
X171411413Y-122215636D01*
X171442500Y-122019361D01*
X171442500Y-121820639D01*
X171411413Y-121624364D01*
X171350005Y-121435368D01*
X171350005Y-121435367D01*
X171259786Y-121258305D01*
X171245506Y-121238650D01*
X171142981Y-121097536D01*
X171002464Y-120957019D01*
X170841694Y-120840213D01*
X170684667Y-120760203D01*
X170633872Y-120712229D01*
X170617077Y-120644408D01*
X170639614Y-120578273D01*
X170684669Y-120539234D01*
X170841422Y-120459364D01*
X170878716Y-120432268D01*
X170264095Y-119817647D01*
X170351571Y-119794208D01*
X170452930Y-119735689D01*
X170535689Y-119652930D01*
X170594208Y-119551571D01*
X170617647Y-119464094D01*
X171232268Y-120078715D01*
X171259362Y-120041425D01*
X171349542Y-119864437D01*
X171410924Y-119675523D01*
X171410924Y-119675520D01*
X171442000Y-119479321D01*
X171442000Y-119280678D01*
X171410924Y-119084479D01*
X171410924Y-119084476D01*
X171349542Y-118895562D01*
X171259358Y-118718567D01*
X171232268Y-118681283D01*
X170617647Y-119295904D01*
X170594208Y-119208429D01*
X170535689Y-119107070D01*
X170452930Y-119024311D01*
X170351571Y-118965792D01*
X170264094Y-118942352D01*
X170878716Y-118327731D01*
X170878715Y-118327730D01*
X170841432Y-118300641D01*
X170684668Y-118220765D01*
X170633872Y-118172790D01*
X170617077Y-118104969D01*
X170639615Y-118038834D01*
X170684667Y-117999796D01*
X170841694Y-117919787D01*
X171002464Y-117802981D01*
X171128626Y-117676819D01*
X171189949Y-117643334D01*
X171216307Y-117640500D01*
X174877060Y-117640500D01*
X174944099Y-117660185D01*
X174964741Y-117676819D01*
X182258211Y-124970289D01*
X182369711Y-125081789D01*
X182500821Y-125169394D01*
X182603833Y-125212062D01*
X182646502Y-125229737D01*
X182801152Y-125260499D01*
X182801155Y-125260500D01*
X182801157Y-125260500D01*
X190578844Y-125260500D01*
X190578845Y-125260499D01*
X190733497Y-125229737D01*
X190879179Y-125169394D01*
X191010289Y-125081789D01*
X203821789Y-112270289D01*
X203838932Y-112244632D01*
X203909394Y-112139179D01*
X203969737Y-111993497D01*
X203978440Y-111949743D01*
X204000500Y-111838843D01*
X204000500Y-111681158D01*
X204000500Y-76121158D01*
X204000500Y-76121157D01*
X204000500Y-63421158D01*
X204000500Y-63421157D01*
X204000500Y-63421155D01*
X204000499Y-63421153D01*
X203990720Y-63371993D01*
X203969737Y-63266503D01*
X203950012Y-63218882D01*
X203909397Y-63120827D01*
X203909390Y-63120814D01*
X203821790Y-62989712D01*
X203771295Y-62939217D01*
X203710289Y-62878211D01*
X201844739Y-61012661D01*
X199960292Y-59128213D01*
X199960288Y-59128210D01*
X199829185Y-59040609D01*
X199829172Y-59040602D01*
X199683501Y-58980264D01*
X199683491Y-58980261D01*
X199642844Y-58972176D01*
X199580933Y-58939791D01*
X199549331Y-58889565D01*
X199529814Y-58830666D01*
X199437712Y-58681344D01*
X199313656Y-58557288D01*
X199164334Y-58465186D01*
X199066458Y-58432753D01*
X198998235Y-58410146D01*
X198940790Y-58370373D01*
X198915622Y-58316632D01*
X198889738Y-58186508D01*
X198889737Y-58186507D01*
X198889737Y-58186503D01*
X198877654Y-58157332D01*
X198829397Y-58040827D01*
X198829390Y-58040814D01*
X198741790Y-57909712D01*
X198741789Y-57909711D01*
X198630289Y-57798211D01*
X196135612Y-55303534D01*
X193550291Y-52718212D01*
X193550288Y-52718210D01*
X193419185Y-52630609D01*
X193419172Y-52630602D01*
X193273501Y-52570264D01*
X193273489Y-52570261D01*
X193118845Y-52539500D01*
X193118842Y-52539500D01*
X175458842Y-52539500D01*
X175301157Y-52539500D01*
X175301154Y-52539500D01*
X175146509Y-52570261D01*
X175146497Y-52570264D01*
X175103832Y-52587936D01*
X175103833Y-52587937D01*
X175000823Y-52630604D01*
X175000814Y-52630609D01*
X174869712Y-52718209D01*
X174869710Y-52718212D01*
X173219739Y-54368181D01*
X173158416Y-54401666D01*
X173132058Y-54404500D01*
X172189998Y-54404500D01*
X172189980Y-54404501D01*
X172087203Y-54415000D01*
X172087200Y-54415001D01*
X171920668Y-54470185D01*
X171920663Y-54470187D01*
X171771342Y-54562289D01*
X171647289Y-54686342D01*
X171555187Y-54835663D01*
X171555186Y-54835666D01*
X171500001Y-55002203D01*
X171500001Y-55002204D01*
X171500000Y-55002204D01*
X171489500Y-55104983D01*
X171489500Y-56655001D01*
X171489501Y-56655018D01*
X171500000Y-56757796D01*
X171500001Y-56757799D01*
X171534031Y-56860493D01*
X171555186Y-56924334D01*
X171647288Y-57073656D01*
X171771344Y-57197712D01*
X171920666Y-57289814D01*
X171954500Y-57301025D01*
X172011947Y-57340796D01*
X172038772Y-57405311D01*
X172039500Y-57418732D01*
X172039500Y-57917059D01*
X172019815Y-57984098D01*
X172003181Y-58004740D01*
X170204388Y-59803533D01*
X170143065Y-59837018D01*
X170073373Y-59832034D01*
X170017440Y-59790162D01*
X169993023Y-59724698D01*
X169992707Y-59715852D01*
X169992707Y-59700490D01*
X169963147Y-59513858D01*
X169904752Y-59334140D01*
X169852497Y-59231585D01*
X169818967Y-59165778D01*
X169707897Y-59012904D01*
X169574280Y-58879287D01*
X169421406Y-58768217D01*
X169367613Y-58740808D01*
X169253043Y-58682431D01*
X169073325Y-58624036D01*
X168886693Y-58594477D01*
X168886688Y-58594477D01*
X168697726Y-58594477D01*
X168697721Y-58594477D01*
X168511088Y-58624036D01*
X168331370Y-58682431D01*
X168163007Y-58768217D01*
X168077059Y-58830663D01*
X168010134Y-58879287D01*
X168010132Y-58879289D01*
X168010131Y-58879289D01*
X167876519Y-59012901D01*
X167876519Y-59012902D01*
X167876517Y-59012904D01*
X167850738Y-59048386D01*
X167765447Y-59165777D01*
X167679661Y-59334140D01*
X167621266Y-59513858D01*
X167591707Y-59700490D01*
X167591707Y-59889463D01*
X167621266Y-60076095D01*
X167679661Y-60255813D01*
X167755169Y-60404005D01*
X167765447Y-60424176D01*
X167876517Y-60577050D01*
X167876519Y-60577052D01*
X167954115Y-60654648D01*
X167987600Y-60715971D01*
X167990434Y-60742329D01*
X167990434Y-61310823D01*
X167970749Y-61377862D01*
X167954115Y-61398504D01*
X167875246Y-61477372D01*
X167875246Y-61477373D01*
X167875244Y-61477375D01*
X167867981Y-61487372D01*
X167764174Y-61630248D01*
X167678388Y-61798611D01*
X167619993Y-61978329D01*
X167590434Y-62164961D01*
X167590434Y-62276508D01*
X167570749Y-62343547D01*
X167554115Y-62364189D01*
X163441588Y-66476716D01*
X163380265Y-66510201D01*
X163353907Y-66513035D01*
X162576173Y-66513035D01*
X162509134Y-66493350D01*
X162481888Y-66469573D01*
X162479104Y-66466314D01*
X162334353Y-66321563D01*
X162168751Y-66201248D01*
X162114761Y-66173738D01*
X162063965Y-66125763D01*
X162047171Y-66057942D01*
X162069709Y-65991807D01*
X162114764Y-65952768D01*
X162168489Y-65925394D01*
X162213061Y-65893009D01*
X161533587Y-65213535D01*
X161539801Y-65213535D01*
X161641534Y-65186276D01*
X161732746Y-65133615D01*
X161807220Y-65059141D01*
X161859881Y-64967929D01*
X161887140Y-64866196D01*
X161887140Y-64859982D01*
X162566614Y-65539456D01*
X162598999Y-65494884D01*
X162691895Y-65312566D01*
X162755130Y-65117952D01*
X162787140Y-64915852D01*
X162787140Y-64711217D01*
X162755130Y-64509117D01*
X162691895Y-64314503D01*
X162598999Y-64132185D01*
X162566614Y-64087612D01*
X162566614Y-64087611D01*
X161887140Y-64767086D01*
X161887140Y-64760874D01*
X161859881Y-64659141D01*
X161807220Y-64567929D01*
X161732746Y-64493455D01*
X161641534Y-64440794D01*
X161539801Y-64413535D01*
X161533586Y-64413535D01*
X162213062Y-63734059D01*
X162213061Y-63734058D01*
X162168499Y-63701682D01*
X162168490Y-63701676D01*
X161986171Y-63608779D01*
X161791557Y-63545544D01*
X161786743Y-63544782D01*
X161723610Y-63514848D01*
X161686683Y-63455534D01*
X161687685Y-63385672D01*
X161726299Y-63327442D01*
X161749847Y-63311829D01*
X161800133Y-63286208D01*
X161953007Y-63175138D01*
X162086624Y-63041521D01*
X162197694Y-62888647D01*
X162283481Y-62720280D01*
X162341874Y-62540566D01*
X162348299Y-62500000D01*
X162371434Y-62353934D01*
X162371434Y-62164961D01*
X162341874Y-61978329D01*
X162302537Y-61857263D01*
X162283481Y-61798616D01*
X162283479Y-61798613D01*
X162283479Y-61798611D01*
X162203484Y-61641613D01*
X162197694Y-61630249D01*
X162086624Y-61477375D01*
X161953007Y-61343758D01*
X161800133Y-61232688D01*
X161775027Y-61219896D01*
X161631766Y-61146900D01*
X161626990Y-61145349D01*
X161569315Y-61105911D01*
X161542118Y-61041552D01*
X161554033Y-60972706D01*
X161601278Y-60921231D01*
X161626988Y-60909490D01*
X161633039Y-60907524D01*
X161801406Y-60821737D01*
X161954280Y-60710667D01*
X162087897Y-60577050D01*
X162198967Y-60424176D01*
X162284754Y-60255809D01*
X162343147Y-60076095D01*
X162349041Y-60038880D01*
X162372707Y-59889463D01*
X162372707Y-59700490D01*
X162343147Y-59513858D01*
X162284752Y-59334140D01*
X162232497Y-59231585D01*
X162198967Y-59165778D01*
X162087897Y-59012904D01*
X161954280Y-58879287D01*
X161801406Y-58768217D01*
X161747613Y-58740808D01*
X161633043Y-58682431D01*
X161453325Y-58624036D01*
X161266693Y-58594477D01*
X161266688Y-58594477D01*
X161077726Y-58594477D01*
X161077721Y-58594477D01*
X160891088Y-58624036D01*
X160711370Y-58682431D01*
X160543007Y-58768217D01*
X160457059Y-58830663D01*
X160390134Y-58879287D01*
X160390132Y-58879289D01*
X160390131Y-58879289D01*
X160256519Y-59012901D01*
X160256512Y-59012910D01*
X160230737Y-59048386D01*
X160175407Y-59091052D01*
X160130420Y-59099500D01*
X157594618Y-59099500D01*
X157527579Y-59079815D01*
X157493900Y-59045408D01*
X157492915Y-59046125D01*
X157365109Y-58870213D01*
X157214786Y-58719890D01*
X157042820Y-58594951D01*
X156853414Y-58498444D01*
X156853413Y-58498443D01*
X156853412Y-58498443D01*
X156651243Y-58432754D01*
X156651241Y-58432753D01*
X156651240Y-58432753D01*
X156489957Y-58407208D01*
X156441287Y-58399500D01*
X155978713Y-58399500D01*
X155930042Y-58407208D01*
X155768760Y-58432753D01*
X155566585Y-58498444D01*
X155377179Y-58594951D01*
X155205213Y-58719890D01*
X155054890Y-58870213D01*
X154929951Y-59042179D01*
X154833444Y-59231585D01*
X154767753Y-59433760D01*
X154734500Y-59643713D01*
X154734500Y-59856286D01*
X154767753Y-60066240D01*
X154767754Y-60066244D01*
X154794805Y-60149500D01*
X154796800Y-60219341D01*
X154764555Y-60275498D01*
X149354724Y-65685329D01*
X149305580Y-65758881D01*
X149305579Y-65758881D01*
X149283536Y-65791870D01*
X149283534Y-65791874D01*
X149234499Y-65910255D01*
X149234497Y-65910261D01*
X149209500Y-66035928D01*
X147820500Y-66035928D01*
X147820500Y-51424500D01*
X147840185Y-51357461D01*
X147892989Y-51311706D01*
X147944500Y-51300500D01*
X205115500Y-51300500D01*
X205182539Y-51320185D01*
G37*
%TD.AperFunction*%
%TD*%
M02*
