M48
; DRILL file {KiCad 9.0.1} date 2026-03-14T13:22:42+0900
; FORMAT={3:3/ absolute / metric / suppress leading zeros}
; #@! TF.CreationDate,2026-03-14T13:22:42+09:00
; #@! TF.GenerationSoftware,Kicad,Pcbnew,9.0.1
; #@! TF.FileFunction,MixedPlating,1,2
FMAT,2
METRIC,TZ
; #@! TA.AperFunction,Plated,PTH,ViaDrill
T1C0.400
; #@! TA.AperFunction,Plated,PTH,ComponentDrill
T2C0.700
; #@! TA.AperFunction,Plated,PTH,ComponentDrill
T3C0.800
; #@! TA.AperFunction,Plated,PTH,ComponentDrill
T4C0.889
; #@! TA.AperFunction,Plated,PTH,ComponentDrill
T5C1.000
%
G90
G05
T1
X151032Y-78015
X152400Y-71120
X154940Y-83820
X157480Y-86360
X157480Y-88900
X158212Y-79998
X158212Y-82357
X160020Y-85500
X160020Y-91440
X165100Y-78740
X165100Y-83820
X166181Y-80274
X168262Y-82407
X175612Y-62579
X180340Y-58420
X180340Y-63500
X188858Y-82983
X191248Y-80530
X195580Y-58420
X195580Y-78030
X195580Y-88900
X199660Y-76200
X200642Y-67445
X200660Y-63500
X200660Y-71120
X200660Y-76200
X200701Y-70101
X201728Y-77387
X201877Y-72787
T2
X161171Y-62259
X161172Y-59795
X161216Y-73733
X161290Y-76200
X168791Y-62259
X168792Y-59795
X168836Y-73733
X168910Y-76200
X168910Y-81280
X168939Y-78977
X176530Y-81280
X176559Y-78977
X177800Y-60960
X177800Y-63500
X185345Y-68580
X185383Y-66040
X185420Y-60960
X185420Y-63500
X185420Y-78740
X185420Y-81280
X192965Y-68580
X193003Y-66040
X193040Y-78740
X193040Y-81280
T3
X161398Y-78813
X161398Y-81313
X161487Y-64814
X161487Y-67314
X162560Y-99060
X162600Y-119420
X162600Y-121920
X165060Y-99060
X170180Y-68580
X170180Y-71080
X172720Y-60960
X172720Y-68580
X172720Y-71120
X172720Y-73660
X172720Y-76200
X175220Y-60960
X180340Y-68580
X180340Y-71120
X180340Y-73660
X180340Y-76200
X193040Y-59713
X193040Y-62213
X193040Y-73660
X193040Y-76160
T4
X170180Y-106680
X170180Y-109220
X170180Y-111760
X170180Y-114300
X170180Y-116840
X170180Y-119380
X170180Y-121920
X185420Y-106680
X185420Y-109220
X185420Y-111760
X185420Y-114300
X185420Y-116840
X185420Y-119380
X185420Y-121920
T5
X156210Y-59750
X156210Y-62250
X156210Y-64750
X156210Y-67250
X156210Y-73780
X156210Y-76280
X156210Y-78780
X156210Y-81280
X162560Y-86250
X162560Y-101490
X165100Y-86250
X165100Y-101490
X167640Y-86250
X167640Y-101490
X170180Y-86250
X170180Y-101490
X172720Y-86250
X172720Y-101490
X172840Y-55880
X175260Y-86250
X175260Y-101490
X175340Y-55880
X177800Y-86250
X177800Y-101490
X177840Y-55880
X180340Y-55880
X180340Y-86250
X180340Y-101490
X182880Y-86250
X182880Y-101490
X185420Y-86250
X185420Y-101490
X187960Y-86250
X187960Y-101490
X190500Y-86250
X190500Y-101490
X198120Y-59750
X198120Y-62250
X198120Y-64750
X198120Y-67250
X198120Y-73780
X198120Y-76280
X198120Y-78780
X198120Y-81280
M30
