%TF.GenerationSoftware,KiCad,Pcbnew,9.0.1*%
%TF.CreationDate,2025-11-19T13:08:26+09:00*%
%TF.ProjectId,9jikuwithR,396a696b-7577-4697-9468-522e6b696361,rev?*%
%TF.SameCoordinates,Original*%
%TF.FileFunction,Copper,L2,Bot*%
%TF.FilePolarity,Positive*%
%FSLAX46Y46*%
G04 Gerber Fmt 4.6, Leading zero omitted, Abs format (unit mm)*
G04 Created by KiCad (PCBNEW 9.0.1) date 2025-11-19 13:08:26*
%MOMM*%
%LPD*%
G01*
G04 APERTURE LIST*
G04 Aperture macros list*
%AMRoundRect*
0 Rectangle with rounded corners*
0 $1 Rounding radius*
0 $2 $3 $4 $5 $6 $7 $8 $9 X,Y pos of 4 corners*
0 Add a 4 corners polygon primitive as box body*
4,1,4,$2,$3,$4,$5,$6,$7,$8,$9,$2,$3,0*
0 Add four circle primitives for the rounded corners*
1,1,$1+$1,$2,$3*
1,1,$1+$1,$4,$5*
1,1,$1+$1,$6,$7*
1,1,$1+$1,$8,$9*
0 Add four rect primitives between the rounded corners*
20,1,$1+$1,$2,$3,$4,$5,0*
20,1,$1+$1,$4,$5,$6,$7,0*
20,1,$1+$1,$6,$7,$8,$9,0*
20,1,$1+$1,$8,$9,$2,$3,0*%
G04 Aperture macros list end*
%TA.AperFunction,ComponentPad*%
%ADD10O,1.600000X1.600000*%
%TD*%
%TA.AperFunction,ComponentPad*%
%ADD11C,1.600000*%
%TD*%
%TA.AperFunction,ComponentPad*%
%ADD12RoundRect,0.250000X-0.550000X-0.550000X0.550000X-0.550000X0.550000X0.550000X-0.550000X0.550000X0*%
%TD*%
%TA.AperFunction,ComponentPad*%
%ADD13RoundRect,0.264706X0.635294X0.710294X-0.635294X0.710294X-0.635294X-0.710294X0.635294X-0.710294X0*%
%TD*%
%TA.AperFunction,ComponentPad*%
%ADD14O,1.700000X1.950000*%
%TD*%
%TA.AperFunction,Conductor*%
%ADD15C,0.500000*%
%TD*%
G04 APERTURE END LIST*
D10*
%TO.P,R1,2*%
%TO.N,Net-(J1-Pin_3)*%
X119380000Y-97790000D03*
D11*
%TO.P,R1,1*%
%TO.N,VCC*%
X119380000Y-90170000D03*
%TD*%
D10*
%TO.P,R2,2*%
%TO.N,Net-(J1-Pin_4)*%
X114300000Y-101600000D03*
D11*
%TO.P,R2,1*%
%TO.N,VCC*%
X114300000Y-93980000D03*
%TD*%
%TO.P,U1,8,RST*%
%TO.N,unconnected-(U1-RST-Pad8)*%
X132080000Y-91440000D03*
%TO.P,U1,7,INT*%
%TO.N,unconnected-(U1-INT-Pad7)*%
X132080000Y-93980000D03*
%TO.P,U1,6,GND*%
%TO.N,unconnected-(U1-GND-Pad6)*%
X132080000Y-96520000D03*
%TO.P,U1,5,Vout*%
%TO.N,unconnected-(U1-Vout-Pad5)*%
X132080000Y-99060000D03*
%TO.P,U1,4,SCL*%
%TO.N,Net-(J1-Pin_4)*%
X124460000Y-99060000D03*
%TO.P,U1,3,SDA*%
%TO.N,Net-(J1-Pin_3)*%
X124460000Y-96520000D03*
%TO.P,U1,2,GND*%
%TO.N,GND*%
X124460000Y-93980000D03*
D12*
%TO.P,U1,1,Vin*%
%TO.N,VCC*%
X124460000Y-91440000D03*
%TD*%
D13*
%TO.P,J1,1,Pin_1*%
%TO.N,VCC*%
X132040000Y-106680000D03*
D14*
%TO.P,J1,2,Pin_2*%
%TO.N,GND*%
X129540000Y-106680000D03*
%TO.P,J1,3,Pin_3*%
%TO.N,Net-(J1-Pin_3)*%
X127040000Y-106680000D03*
%TO.P,J1,4,Pin_4*%
%TO.N,Net-(J1-Pin_4)*%
X124540000Y-106680000D03*
%TD*%
D15*
%TO.N,Net-(J1-Pin_3)*%
X120650000Y-96520000D02*
X119380000Y-97790000D01*
X127040000Y-99100000D02*
X127040000Y-106680000D01*
X124460000Y-96520000D02*
X120650000Y-96520000D01*
X124460000Y-96520000D02*
X127040000Y-99100000D01*
%TO.N,Net-(J1-Pin_4)*%
X121920000Y-99060000D02*
X119380000Y-101600000D01*
X124460000Y-99060000D02*
X121920000Y-99060000D01*
X124460000Y-99060000D02*
X124460000Y-106600000D01*
X119380000Y-101600000D02*
X114300000Y-101600000D01*
%TO.N,VCC*%
X124460000Y-91440000D02*
X120650000Y-91440000D01*
X129540000Y-88900000D02*
X127000000Y-91440000D01*
X134620000Y-99060000D02*
X134620000Y-91440000D01*
X132040000Y-101640000D02*
X134620000Y-99060000D01*
X132040000Y-106680000D02*
X132040000Y-101640000D01*
X132080000Y-88900000D02*
X129540000Y-88900000D01*
X127000000Y-91440000D02*
X124460000Y-91440000D01*
X119380000Y-90170000D02*
X118110000Y-90170000D01*
X120650000Y-91440000D02*
X119380000Y-90170000D01*
X134620000Y-91440000D02*
X132080000Y-88900000D01*
X118110000Y-90170000D02*
X114300000Y-93980000D01*
%TO.N,GND*%
X127000000Y-93980000D02*
X129540000Y-96520000D01*
X129540000Y-96520000D02*
X129540000Y-106680000D01*
X124460000Y-93980000D02*
X127000000Y-93980000D01*
%TO.N,Net-(J1-Pin_4)*%
X124460000Y-106600000D02*
X124540000Y-106680000D01*
%TD*%
%TA.AperFunction,Conductor*%
%TO.N,GND*%
G36*
X131784809Y-89670185D02*
G01*
X131805451Y-89686819D01*
X132047698Y-89929066D01*
X132081183Y-89990389D01*
X132076199Y-90060081D01*
X132034327Y-90116014D01*
X131979415Y-90139220D01*
X131775465Y-90171522D01*
X131580776Y-90234781D01*
X131398386Y-90327715D01*
X131232786Y-90448028D01*
X131088028Y-90592786D01*
X130967715Y-90758386D01*
X130874781Y-90940776D01*
X130811522Y-91135465D01*
X130779500Y-91337648D01*
X130779500Y-91542351D01*
X130811522Y-91744534D01*
X130874781Y-91939223D01*
X130967715Y-92121613D01*
X131088028Y-92287213D01*
X131232786Y-92431971D01*
X131387749Y-92544556D01*
X131398390Y-92552287D01*
X131489840Y-92598883D01*
X131491080Y-92599515D01*
X131541876Y-92647490D01*
X131558671Y-92715311D01*
X131536134Y-92781446D01*
X131491080Y-92820485D01*
X131398386Y-92867715D01*
X131232786Y-92988028D01*
X131088028Y-93132786D01*
X130967715Y-93298386D01*
X130874781Y-93480776D01*
X130811522Y-93675465D01*
X130779500Y-93877648D01*
X130779500Y-94082351D01*
X130811522Y-94284534D01*
X130874781Y-94479223D01*
X130938691Y-94604653D01*
X130967585Y-94661359D01*
X130967715Y-94661613D01*
X131088028Y-94827213D01*
X131232786Y-94971971D01*
X131353226Y-95059474D01*
X131398390Y-95092287D01*
X131489840Y-95138883D01*
X131491080Y-95139515D01*
X131541876Y-95187490D01*
X131558671Y-95255311D01*
X131536134Y-95321446D01*
X131491080Y-95360485D01*
X131398386Y-95407715D01*
X131232786Y-95528028D01*
X131088028Y-95672786D01*
X130967715Y-95838386D01*
X130874781Y-96020776D01*
X130811522Y-96215465D01*
X130779500Y-96417648D01*
X130779500Y-96622351D01*
X130811522Y-96824534D01*
X130874781Y-97019223D01*
X130967715Y-97201613D01*
X131088028Y-97367213D01*
X131232786Y-97511971D01*
X131387749Y-97624556D01*
X131398390Y-97632287D01*
X131489840Y-97678883D01*
X131491080Y-97679515D01*
X131541876Y-97727490D01*
X131558671Y-97795311D01*
X131536134Y-97861446D01*
X131491080Y-97900485D01*
X131398386Y-97947715D01*
X131232786Y-98068028D01*
X131088028Y-98212786D01*
X130967715Y-98378386D01*
X130874781Y-98560776D01*
X130811522Y-98755465D01*
X130779500Y-98957648D01*
X130779500Y-99162351D01*
X130811522Y-99364534D01*
X130874781Y-99559223D01*
X130967715Y-99741613D01*
X131088028Y-99907213D01*
X131232786Y-100051971D01*
X131354535Y-100140425D01*
X131398390Y-100172287D01*
X131514607Y-100231503D01*
X131580776Y-100265218D01*
X131580778Y-100265218D01*
X131580781Y-100265220D01*
X131775466Y-100328477D01*
X131977648Y-100360500D01*
X131977652Y-100360500D01*
X131979414Y-100360779D01*
X132042548Y-100390708D01*
X132079480Y-100450019D01*
X132078482Y-100519882D01*
X132047697Y-100570933D01*
X131457049Y-101161581D01*
X131449117Y-101173454D01*
X131449116Y-101173456D01*
X131374913Y-101284508D01*
X131318343Y-101421082D01*
X131318340Y-101421092D01*
X131289500Y-101566079D01*
X131289500Y-105112217D01*
X131269815Y-105179256D01*
X131217011Y-105225011D01*
X131204504Y-105229923D01*
X131079117Y-105271472D01*
X131079112Y-105271474D01*
X130926865Y-105365381D01*
X130800380Y-105491866D01*
X130800377Y-105491870D01*
X130724644Y-105614653D01*
X130672696Y-105661378D01*
X130603734Y-105672599D01*
X130539652Y-105644756D01*
X130531425Y-105637237D01*
X130419464Y-105525276D01*
X130419459Y-105525272D01*
X130247557Y-105400379D01*
X130058215Y-105303903D01*
X129856124Y-105238241D01*
X129790000Y-105227768D01*
X129790000Y-106189252D01*
X129752292Y-106167482D01*
X129612409Y-106130000D01*
X129467591Y-106130000D01*
X129327708Y-106167482D01*
X129290000Y-106189252D01*
X129290000Y-105227768D01*
X129289999Y-105227768D01*
X129223875Y-105238241D01*
X129021784Y-105303903D01*
X128832442Y-105400379D01*
X128660540Y-105525272D01*
X128660535Y-105525276D01*
X128510276Y-105675535D01*
X128510272Y-105675540D01*
X128390627Y-105840218D01*
X128335297Y-105882884D01*
X128265684Y-105888863D01*
X128203889Y-105856257D01*
X128189991Y-105840218D01*
X128070109Y-105675214D01*
X128070105Y-105675209D01*
X127919794Y-105524898D01*
X127919788Y-105524893D01*
X127841615Y-105468097D01*
X127798949Y-105412767D01*
X127790500Y-105367779D01*
X127790500Y-99026079D01*
X127761659Y-98881092D01*
X127761658Y-98881091D01*
X127761658Y-98881087D01*
X127713494Y-98764808D01*
X127705087Y-98744511D01*
X127705083Y-98744504D01*
X127668999Y-98690500D01*
X127633395Y-98637213D01*
X127622956Y-98621589D01*
X127622952Y-98621584D01*
X125786473Y-96785105D01*
X125752988Y-96723782D01*
X125751681Y-96678027D01*
X125760500Y-96622352D01*
X125760500Y-96417648D01*
X125728477Y-96215466D01*
X125665220Y-96020781D01*
X125665218Y-96020778D01*
X125665218Y-96020776D01*
X125622556Y-95937048D01*
X125572287Y-95838390D01*
X125564556Y-95827749D01*
X125451971Y-95672786D01*
X125307213Y-95528028D01*
X125141611Y-95407713D01*
X125048369Y-95360203D01*
X124997574Y-95312229D01*
X124980779Y-95244407D01*
X125003317Y-95178273D01*
X125048371Y-95139234D01*
X125141346Y-95091861D01*
X125141347Y-95091861D01*
X125185921Y-95059474D01*
X124506447Y-94380000D01*
X124512661Y-94380000D01*
X124614394Y-94352741D01*
X124705606Y-94300080D01*
X124780080Y-94225606D01*
X124832741Y-94134394D01*
X124860000Y-94032661D01*
X124860000Y-94026448D01*
X125539474Y-94705922D01*
X125539474Y-94705921D01*
X125571859Y-94661349D01*
X125664755Y-94479031D01*
X125727990Y-94284417D01*
X125760000Y-94082317D01*
X125760000Y-93877682D01*
X125727990Y-93675582D01*
X125664755Y-93480968D01*
X125571859Y-93298650D01*
X125539474Y-93254077D01*
X125539474Y-93254076D01*
X124860000Y-93933551D01*
X124860000Y-93927339D01*
X124832741Y-93825606D01*
X124780080Y-93734394D01*
X124705606Y-93659920D01*
X124614394Y-93607259D01*
X124512661Y-93580000D01*
X124506446Y-93580000D01*
X125185922Y-92900524D01*
X125184570Y-92883349D01*
X125170299Y-92864842D01*
X125164320Y-92795229D01*
X125196925Y-92733433D01*
X125246845Y-92702148D01*
X125329334Y-92674814D01*
X125478656Y-92582712D01*
X125602712Y-92458656D01*
X125694814Y-92309334D01*
X125706028Y-92275494D01*
X125745801Y-92218050D01*
X125810317Y-92191228D01*
X125823733Y-92190500D01*
X127073920Y-92190500D01*
X127171462Y-92171096D01*
X127218913Y-92161658D01*
X127355495Y-92105084D01*
X127404729Y-92072186D01*
X127478416Y-92022952D01*
X129814548Y-89686818D01*
X129875871Y-89653334D01*
X129902229Y-89650500D01*
X131717770Y-89650500D01*
X131784809Y-89670185D01*
G37*
%TD.AperFunction*%
%TA.AperFunction,Conductor*%
G36*
X141682539Y-86880185D02*
G01*
X141728294Y-86932989D01*
X141739500Y-86984500D01*
X141739500Y-111135500D01*
X141719815Y-111202539D01*
X141667011Y-111248294D01*
X141615500Y-111259500D01*
X112384500Y-111259500D01*
X112317461Y-111239815D01*
X112271706Y-111187011D01*
X112260500Y-111135500D01*
X112260500Y-93877648D01*
X112999500Y-93877648D01*
X112999500Y-94082351D01*
X113031522Y-94284534D01*
X113094781Y-94479223D01*
X113158691Y-94604653D01*
X113187585Y-94661359D01*
X113187715Y-94661613D01*
X113308028Y-94827213D01*
X113452786Y-94971971D01*
X113573226Y-95059474D01*
X113618390Y-95092287D01*
X113710529Y-95139234D01*
X113800776Y-95185218D01*
X113800778Y-95185218D01*
X113800781Y-95185220D01*
X113905137Y-95219127D01*
X113995465Y-95248477D01*
X114038613Y-95255311D01*
X114197648Y-95280500D01*
X114197649Y-95280500D01*
X114402351Y-95280500D01*
X114402352Y-95280500D01*
X114604534Y-95248477D01*
X114799219Y-95185220D01*
X114981610Y-95092287D01*
X115074590Y-95024732D01*
X115147213Y-94971971D01*
X115147215Y-94971968D01*
X115147219Y-94971966D01*
X115291966Y-94827219D01*
X115291968Y-94827215D01*
X115291971Y-94827213D01*
X115344732Y-94754590D01*
X115412287Y-94661610D01*
X115505220Y-94479219D01*
X115568477Y-94284534D01*
X115600500Y-94082352D01*
X115600500Y-93877648D01*
X115591576Y-93821309D01*
X115591478Y-93820642D01*
X115596239Y-93786694D01*
X115600635Y-93752679D01*
X115601107Y-93751987D01*
X115601183Y-93751450D01*
X115602606Y-93749795D01*
X115626470Y-93714895D01*
X118268411Y-91072954D01*
X118329732Y-91039471D01*
X118399424Y-91044455D01*
X118443771Y-91072956D01*
X118532786Y-91161971D01*
X118687749Y-91274556D01*
X118698390Y-91282287D01*
X118807042Y-91337648D01*
X118880776Y-91375218D01*
X118880778Y-91375218D01*
X118880781Y-91375220D01*
X118985137Y-91409127D01*
X119075465Y-91438477D01*
X119159564Y-91451797D01*
X119277648Y-91470500D01*
X119277649Y-91470500D01*
X119482350Y-91470500D01*
X119482352Y-91470500D01*
X119538027Y-91461681D01*
X119607319Y-91470635D01*
X119645106Y-91496473D01*
X120171580Y-92022948D01*
X120171584Y-92022951D01*
X120294498Y-92105080D01*
X120294511Y-92105087D01*
X120431082Y-92161656D01*
X120431087Y-92161658D01*
X120431091Y-92161658D01*
X120431092Y-92161659D01*
X120576079Y-92190500D01*
X120576082Y-92190500D01*
X120723917Y-92190500D01*
X123096267Y-92190500D01*
X123163306Y-92210185D01*
X123209061Y-92262989D01*
X123213972Y-92275494D01*
X123225184Y-92309328D01*
X123225186Y-92309334D01*
X123317288Y-92458656D01*
X123441344Y-92582712D01*
X123590666Y-92674814D01*
X123673152Y-92702147D01*
X123730597Y-92741920D01*
X123757420Y-92806436D01*
X123745105Y-92875212D01*
X123735143Y-92886975D01*
X123734077Y-92900524D01*
X124413554Y-93580000D01*
X124407339Y-93580000D01*
X124305606Y-93607259D01*
X124214394Y-93659920D01*
X124139920Y-93734394D01*
X124087259Y-93825606D01*
X124060000Y-93927339D01*
X124060000Y-93933553D01*
X123380524Y-93254077D01*
X123380523Y-93254077D01*
X123348143Y-93298644D01*
X123255244Y-93480968D01*
X123192009Y-93675582D01*
X123160000Y-93877682D01*
X123160000Y-94082317D01*
X123192009Y-94284417D01*
X123255244Y-94479031D01*
X123348141Y-94661350D01*
X123348147Y-94661359D01*
X123380523Y-94705921D01*
X123380524Y-94705922D01*
X124060000Y-94026446D01*
X124060000Y-94032661D01*
X124087259Y-94134394D01*
X124139920Y-94225606D01*
X124214394Y-94300080D01*
X124305606Y-94352741D01*
X124407339Y-94380000D01*
X124413553Y-94380000D01*
X123734076Y-95059474D01*
X123778652Y-95091861D01*
X123871628Y-95139234D01*
X123922425Y-95187208D01*
X123939220Y-95255029D01*
X123916683Y-95321164D01*
X123871630Y-95360203D01*
X123778388Y-95407713D01*
X123612786Y-95528028D01*
X123468032Y-95672782D01*
X123468028Y-95672787D01*
X123434900Y-95718385D01*
X123379571Y-95761051D01*
X123334582Y-95769500D01*
X120576080Y-95769500D01*
X120431092Y-95798340D01*
X120431082Y-95798343D01*
X120294511Y-95854912D01*
X120294498Y-95854919D01*
X120171584Y-95937048D01*
X120171580Y-95937051D01*
X119645105Y-96463526D01*
X119583782Y-96497011D01*
X119538026Y-96498318D01*
X119482352Y-96489500D01*
X119277648Y-96489500D01*
X119253329Y-96493351D01*
X119075465Y-96521522D01*
X118880776Y-96584781D01*
X118698386Y-96677715D01*
X118532786Y-96798028D01*
X118388028Y-96942786D01*
X118267715Y-97108386D01*
X118174781Y-97290776D01*
X118111522Y-97485465D01*
X118079500Y-97687648D01*
X118079500Y-97892351D01*
X118111522Y-98094534D01*
X118174781Y-98289223D01*
X118267715Y-98471613D01*
X118388028Y-98637213D01*
X118532786Y-98781971D01*
X118669210Y-98881087D01*
X118698390Y-98902287D01*
X118807042Y-98957648D01*
X118880776Y-98995218D01*
X118880778Y-98995218D01*
X118880781Y-98995220D01*
X118980735Y-99027697D01*
X119075465Y-99058477D01*
X119176557Y-99074488D01*
X119277648Y-99090500D01*
X119277649Y-99090500D01*
X119482351Y-99090500D01*
X119482352Y-99090500D01*
X119684534Y-99058477D01*
X119879219Y-98995220D01*
X120061610Y-98902287D01*
X120222424Y-98785450D01*
X120227213Y-98781971D01*
X120227215Y-98781968D01*
X120227219Y-98781966D01*
X120371966Y-98637219D01*
X120371968Y-98637215D01*
X120371971Y-98637213D01*
X120427505Y-98560776D01*
X120492287Y-98471610D01*
X120585220Y-98289219D01*
X120648477Y-98094534D01*
X120680500Y-97892352D01*
X120680500Y-97687648D01*
X120671681Y-97631971D01*
X120680635Y-97562679D01*
X120706468Y-97524897D01*
X120924549Y-97306816D01*
X120985871Y-97273334D01*
X121012229Y-97270500D01*
X123334582Y-97270500D01*
X123401621Y-97290185D01*
X123434900Y-97321615D01*
X123468028Y-97367212D01*
X123468032Y-97367217D01*
X123612786Y-97511971D01*
X123767749Y-97624556D01*
X123778390Y-97632287D01*
X123869840Y-97678883D01*
X123871080Y-97679515D01*
X123921876Y-97727490D01*
X123938671Y-97795311D01*
X123916134Y-97861446D01*
X123871080Y-97900485D01*
X123778386Y-97947715D01*
X123612786Y-98068028D01*
X123468032Y-98212782D01*
X123468028Y-98212787D01*
X123434900Y-98258385D01*
X123379571Y-98301051D01*
X123334582Y-98309500D01*
X121846080Y-98309500D01*
X121701092Y-98338340D01*
X121701082Y-98338343D01*
X121564511Y-98394912D01*
X121564498Y-98394919D01*
X121441584Y-98477048D01*
X121441580Y-98477051D01*
X119105451Y-100813181D01*
X119044128Y-100846666D01*
X119017770Y-100849500D01*
X115425418Y-100849500D01*
X115358379Y-100829815D01*
X115325100Y-100798385D01*
X115291971Y-100752787D01*
X115291967Y-100752782D01*
X115147213Y-100608028D01*
X114981613Y-100487715D01*
X114981612Y-100487714D01*
X114981610Y-100487713D01*
X114924653Y-100458691D01*
X114799223Y-100394781D01*
X114604534Y-100331522D01*
X114429995Y-100303878D01*
X114402352Y-100299500D01*
X114197648Y-100299500D01*
X114173329Y-100303351D01*
X113995465Y-100331522D01*
X113800776Y-100394781D01*
X113618386Y-100487715D01*
X113452786Y-100608028D01*
X113308028Y-100752786D01*
X113187715Y-100918386D01*
X113094781Y-101100776D01*
X113031522Y-101295465D01*
X112999500Y-101497648D01*
X112999500Y-101702351D01*
X113031522Y-101904534D01*
X113094781Y-102099223D01*
X113187715Y-102281613D01*
X113308028Y-102447213D01*
X113452786Y-102591971D01*
X113607749Y-102704556D01*
X113618390Y-102712287D01*
X113734607Y-102771503D01*
X113800776Y-102805218D01*
X113800778Y-102805218D01*
X113800781Y-102805220D01*
X113905137Y-102839127D01*
X113995465Y-102868477D01*
X114096557Y-102884488D01*
X114197648Y-102900500D01*
X114197649Y-102900500D01*
X114402351Y-102900500D01*
X114402352Y-102900500D01*
X114604534Y-102868477D01*
X114799219Y-102805220D01*
X114981610Y-102712287D01*
X115074590Y-102644732D01*
X115147213Y-102591971D01*
X115147215Y-102591968D01*
X115147219Y-102591966D01*
X115291966Y-102447219D01*
X115294650Y-102443524D01*
X115325100Y-102401615D01*
X115380429Y-102358949D01*
X115425418Y-102350500D01*
X119453920Y-102350500D01*
X119551462Y-102331096D01*
X119598913Y-102321658D01*
X119735495Y-102265084D01*
X119798550Y-102222952D01*
X119858416Y-102182952D01*
X122194548Y-99846818D01*
X122255871Y-99813334D01*
X122282229Y-99810500D01*
X123334582Y-99810500D01*
X123401621Y-99830185D01*
X123434900Y-99861615D01*
X123468028Y-99907212D01*
X123468032Y-99907217D01*
X123468034Y-99907219D01*
X123612781Y-100051966D01*
X123658384Y-100085098D01*
X123701050Y-100140425D01*
X123709500Y-100185416D01*
X123709500Y-105425902D01*
X123689815Y-105492941D01*
X123663302Y-105521017D01*
X123663913Y-105521732D01*
X123660205Y-105524898D01*
X123509890Y-105675213D01*
X123384951Y-105847179D01*
X123288444Y-106036585D01*
X123222753Y-106238760D01*
X123189500Y-106448713D01*
X123189500Y-106911286D01*
X123222574Y-107120110D01*
X123222754Y-107121243D01*
X123258091Y-107230000D01*
X123288444Y-107323414D01*
X123384951Y-107512820D01*
X123509890Y-107684786D01*
X123660213Y-107835109D01*
X123832179Y-107960048D01*
X123832181Y-107960049D01*
X123832184Y-107960051D01*
X124021588Y-108056557D01*
X124223757Y-108122246D01*
X124433713Y-108155500D01*
X124433714Y-108155500D01*
X124646286Y-108155500D01*
X124646287Y-108155500D01*
X124856243Y-108122246D01*
X125058412Y-108056557D01*
X125247816Y-107960051D01*
X125374330Y-107868134D01*
X125419786Y-107835109D01*
X125419788Y-107835106D01*
X125419792Y-107835104D01*
X125570104Y-107684792D01*
X125689683Y-107520204D01*
X125745011Y-107477540D01*
X125814624Y-107471561D01*
X125876420Y-107504166D01*
X125890313Y-107520199D01*
X126009654Y-107684459D01*
X126009896Y-107684792D01*
X126160213Y-107835109D01*
X126332179Y-107960048D01*
X126332181Y-107960049D01*
X126332184Y-107960051D01*
X126521588Y-108056557D01*
X126723757Y-108122246D01*
X126933713Y-108155500D01*
X126933714Y-108155500D01*
X127146286Y-108155500D01*
X127146287Y-108155500D01*
X127356243Y-108122246D01*
X127558412Y-108056557D01*
X127747816Y-107960051D01*
X127874330Y-107868134D01*
X127919786Y-107835109D01*
X127919788Y-107835106D01*
X127919792Y-107835104D01*
X128070104Y-107684792D01*
X128189991Y-107519779D01*
X128245320Y-107477115D01*
X128314933Y-107471136D01*
X128376729Y-107503741D01*
X128390627Y-107519781D01*
X128510272Y-107684459D01*
X128510276Y-107684464D01*
X128660535Y-107834723D01*
X128660540Y-107834727D01*
X128832442Y-107959620D01*
X129021782Y-108056095D01*
X129223871Y-108121757D01*
X129290000Y-108132231D01*
X129290000Y-107170747D01*
X129327708Y-107192518D01*
X129467591Y-107230000D01*
X129612409Y-107230000D01*
X129752292Y-107192518D01*
X129790000Y-107170747D01*
X129790000Y-108132230D01*
X129856126Y-108121757D01*
X129856129Y-108121757D01*
X130058217Y-108056095D01*
X130247557Y-107959620D01*
X130419458Y-107834728D01*
X130531424Y-107722762D01*
X130592747Y-107689277D01*
X130662439Y-107694261D01*
X130718373Y-107736132D01*
X130724641Y-107745340D01*
X130800380Y-107868133D01*
X130926867Y-107994620D01*
X131079115Y-108088527D01*
X131248915Y-108144793D01*
X131353719Y-108155500D01*
X132726280Y-108155499D01*
X132726288Y-108155498D01*
X132726291Y-108155498D01*
X132783679Y-108149635D01*
X132831085Y-108144793D01*
X133000885Y-108088527D01*
X133153133Y-107994620D01*
X133279620Y-107868133D01*
X133373527Y-107715885D01*
X133429793Y-107546085D01*
X133440500Y-107441281D01*
X133440499Y-105918720D01*
X133433191Y-105847184D01*
X133429793Y-105813915D01*
X133429792Y-105813912D01*
X133383940Y-105675540D01*
X133373527Y-105644115D01*
X133279620Y-105491867D01*
X133153133Y-105365380D01*
X133000885Y-105271473D01*
X133000882Y-105271472D01*
X132875496Y-105229923D01*
X132818051Y-105190150D01*
X132791228Y-105125634D01*
X132790500Y-105112217D01*
X132790500Y-102002230D01*
X132810185Y-101935191D01*
X132826819Y-101914549D01*
X133988587Y-100752781D01*
X135202952Y-99538416D01*
X135252186Y-99464729D01*
X135285084Y-99415495D01*
X135341658Y-99278913D01*
X135370500Y-99133918D01*
X135370500Y-91366082D01*
X135370500Y-91366079D01*
X135341659Y-91221092D01*
X135341658Y-91221091D01*
X135341658Y-91221087D01*
X135341656Y-91221082D01*
X135285087Y-91084511D01*
X135285080Y-91084498D01*
X135202952Y-90961585D01*
X135182143Y-90940776D01*
X135098416Y-90857049D01*
X134476147Y-90234780D01*
X132558421Y-88317052D01*
X132558414Y-88317046D01*
X132484729Y-88267812D01*
X132484729Y-88267813D01*
X132435491Y-88234913D01*
X132298917Y-88178343D01*
X132298907Y-88178340D01*
X132153920Y-88149500D01*
X132153918Y-88149500D01*
X129466082Y-88149500D01*
X129466080Y-88149500D01*
X129321092Y-88178340D01*
X129321082Y-88178343D01*
X129184511Y-88234912D01*
X129184498Y-88234919D01*
X129061584Y-88317048D01*
X129061580Y-88317051D01*
X126725451Y-90653181D01*
X126664128Y-90686666D01*
X126637770Y-90689500D01*
X125823733Y-90689500D01*
X125756694Y-90669815D01*
X125710939Y-90617011D01*
X125706028Y-90604506D01*
X125701495Y-90590829D01*
X125694814Y-90570666D01*
X125602712Y-90421344D01*
X125478656Y-90297288D01*
X125329334Y-90205186D01*
X125162797Y-90150001D01*
X125162795Y-90150000D01*
X125060010Y-90139500D01*
X123859998Y-90139500D01*
X123859981Y-90139501D01*
X123757203Y-90150000D01*
X123757200Y-90150001D01*
X123590668Y-90205185D01*
X123590663Y-90205187D01*
X123441342Y-90297289D01*
X123317289Y-90421342D01*
X123225187Y-90570663D01*
X123225184Y-90570671D01*
X123213972Y-90604506D01*
X123174199Y-90661950D01*
X123109683Y-90688772D01*
X123096267Y-90689500D01*
X121012229Y-90689500D01*
X120945190Y-90669815D01*
X120924548Y-90653181D01*
X120706473Y-90435106D01*
X120672988Y-90373783D01*
X120671681Y-90328028D01*
X120680500Y-90272352D01*
X120680500Y-90067648D01*
X120668263Y-89990389D01*
X120648477Y-89865465D01*
X120585218Y-89670776D01*
X120542555Y-89587047D01*
X120492287Y-89488390D01*
X120463190Y-89448341D01*
X120371971Y-89322786D01*
X120227213Y-89178028D01*
X120061613Y-89057715D01*
X120061612Y-89057714D01*
X120061610Y-89057713D01*
X120004653Y-89028691D01*
X119879223Y-88964781D01*
X119684534Y-88901522D01*
X119509995Y-88873878D01*
X119482352Y-88869500D01*
X119277648Y-88869500D01*
X119253329Y-88873351D01*
X119075465Y-88901522D01*
X118880776Y-88964781D01*
X118698386Y-89057715D01*
X118532786Y-89178028D01*
X118388032Y-89322782D01*
X118388028Y-89322787D01*
X118354900Y-89368385D01*
X118299571Y-89411051D01*
X118254582Y-89419500D01*
X118036076Y-89419500D01*
X118007242Y-89425234D01*
X118007243Y-89425235D01*
X117891093Y-89448339D01*
X117891083Y-89448342D01*
X117811081Y-89481479D01*
X117811082Y-89481480D01*
X117754505Y-89504915D01*
X117672372Y-89559795D01*
X117631585Y-89587047D01*
X117631581Y-89587050D01*
X114565105Y-92653526D01*
X114503782Y-92687011D01*
X114458026Y-92688318D01*
X114402352Y-92679500D01*
X114197648Y-92679500D01*
X114173329Y-92683351D01*
X113995465Y-92711522D01*
X113800776Y-92774781D01*
X113618386Y-92867715D01*
X113452786Y-92988028D01*
X113308028Y-93132786D01*
X113187715Y-93298386D01*
X113094781Y-93480776D01*
X113031522Y-93675465D01*
X112999500Y-93877648D01*
X112260500Y-93877648D01*
X112260500Y-86984500D01*
X112280185Y-86917461D01*
X112332989Y-86871706D01*
X112384500Y-86860500D01*
X141615500Y-86860500D01*
X141682539Y-86880185D01*
G37*
%TD.AperFunction*%
%TD*%
M02*
