%TF.GenerationSoftware,KiCad,Pcbnew,9.0.1*%
%TF.CreationDate,2025-11-19T13:08:26+09:00*%
%TF.ProjectId,9jikuwithR,396a696b-7577-4697-9468-522e6b696361,rev?*%
%TF.SameCoordinates,Original*%
%TF.FileFunction,Legend,Top*%
%TF.FilePolarity,Positive*%
%FSLAX46Y46*%
G04 Gerber Fmt 4.6, Leading zero omitted, Abs format (unit mm)*
G04 Created by KiCad (PCBNEW 9.0.1) date 2025-11-19 13:08:26*
%MOMM*%
%LPD*%
G01*
G04 APERTURE LIST*
%ADD10C,0.120000*%
G04 APERTURE END LIST*
D10*
%TO.C,R1*%
X120750000Y-97250000D02*
X120420000Y-97250000D01*
X120750000Y-90710000D02*
X120750000Y-97250000D01*
X120420000Y-90710000D02*
X120750000Y-90710000D01*
X118340000Y-90710000D02*
X118010000Y-90710000D01*
X118010000Y-97250000D02*
X118340000Y-97250000D01*
X118010000Y-90710000D02*
X118010000Y-97250000D01*
%TO.C,R2*%
X115670000Y-101060000D02*
X115340000Y-101060000D01*
X115670000Y-94520000D02*
X115670000Y-101060000D01*
X115340000Y-94520000D02*
X115670000Y-94520000D01*
X113260000Y-94520000D02*
X112930000Y-94520000D01*
X112930000Y-101060000D02*
X113260000Y-101060000D01*
X112930000Y-94520000D02*
X112930000Y-101060000D01*
%TO.C,U1*%
X129270000Y-90110000D02*
G75*
G02*
X127270000Y-90110000I-1000000J0D01*
G01*
X130920000Y-100390000D02*
X130920000Y-90110000D01*
X130920000Y-90110000D02*
X129270000Y-90110000D01*
X127270000Y-90110000D02*
X125620000Y-90110000D01*
X125620000Y-100390000D02*
X130920000Y-100390000D01*
X125620000Y-90110000D02*
X125620000Y-100390000D01*
%TO.C,J1*%
X121980000Y-103170000D02*
X121980000Y-109140000D01*
X121980000Y-109140000D02*
X134600000Y-109140000D01*
X121990000Y-106880000D02*
X122740000Y-106880000D01*
X121990000Y-108380000D02*
X121990000Y-109130000D01*
X121990000Y-109130000D02*
X123790000Y-109130000D01*
X122740000Y-103930000D02*
X128290000Y-103930000D01*
X122740000Y-106880000D02*
X122740000Y-103930000D01*
X123790000Y-108380000D02*
X121990000Y-108380000D01*
X123790000Y-109130000D02*
X123790000Y-108380000D01*
X125290000Y-108380000D02*
X125290000Y-109130000D01*
X125290000Y-109130000D02*
X131290000Y-109130000D01*
X131290000Y-108380000D02*
X125290000Y-108380000D01*
X131290000Y-109130000D02*
X131290000Y-108380000D01*
X132790000Y-108380000D02*
X132790000Y-109130000D01*
X132790000Y-109130000D02*
X134590000Y-109130000D01*
X133640000Y-109430000D02*
X134890000Y-109430000D01*
X133840000Y-103930000D02*
X128290000Y-103930000D01*
X133840000Y-106880000D02*
X133840000Y-103930000D01*
X134590000Y-106880000D02*
X133840000Y-106880000D01*
X134590000Y-108380000D02*
X132790000Y-108380000D01*
X134590000Y-109130000D02*
X134590000Y-108380000D01*
X134600000Y-103170000D02*
X121980000Y-103170000D01*
X134600000Y-109140000D02*
X134600000Y-103170000D01*
X134890000Y-109430000D02*
X134890000Y-108180000D01*
%TD*%
M02*
