%TF.GenerationSoftware,KiCad,Pcbnew,9.0.1*%
%TF.CreationDate,2026-03-14T13:22:24+09:00*%
%TF.ProjectId,XiaoTcaBno_ver2,5869616f-5463-4614-926e-6f5f76657232,rev?*%
%TF.SameCoordinates,Original*%
%TF.FileFunction,Copper,L1,Top*%
%TF.FilePolarity,Positive*%
%FSLAX46Y46*%
G04 Gerber Fmt 4.6, Leading zero omitted, Abs format (unit mm)*
G04 Created by KiCad (PCBNEW 9.0.1) date 2026-03-14 13:22:24*
%MOMM*%
%LPD*%
G01*
G04 APERTURE LIST*
G04 Aperture macros list*
%AMRoundRect*
0 Rectangle with rounded corners*
0 $1 Rounding radius*
0 $2 $3 $4 $5 $6 $7 $8 $9 X,Y pos of 4 corners*
0 Add a 4 corners polygon primitive as box body*
4,1,4,$2,$3,$4,$5,$6,$7,$8,$9,$2,$3,0*
0 Add four circle primitives for the rounded corners*
1,1,$1+$1,$2,$3*
1,1,$1+$1,$4,$5*
1,1,$1+$1,$6,$7*
1,1,$1+$1,$8,$9*
0 Add four rect primitives between the rounded corners*
20,1,$1+$1,$2,$3,$4,$5,0*
20,1,$1+$1,$4,$5,$6,$7,0*
20,1,$1+$1,$6,$7,$8,$9,0*
20,1,$1+$1,$8,$9,$2,$3,0*%
G04 Aperture macros list end*
%TA.AperFunction,ComponentPad*%
%ADD10RoundRect,0.250000X0.725000X-0.600000X0.725000X0.600000X-0.725000X0.600000X-0.725000X-0.600000X0*%
%TD*%
%TA.AperFunction,ComponentPad*%
%ADD11O,1.950000X1.700000*%
%TD*%
%TA.AperFunction,ComponentPad*%
%ADD12R,1.600000X1.600000*%
%TD*%
%TA.AperFunction,ComponentPad*%
%ADD13C,1.600000*%
%TD*%
%TA.AperFunction,ComponentPad*%
%ADD14C,1.400000*%
%TD*%
%TA.AperFunction,ComponentPad*%
%ADD15O,1.400000X1.400000*%
%TD*%
%TA.AperFunction,ComponentPad*%
%ADD16RoundRect,0.250000X-0.725000X0.600000X-0.725000X-0.600000X0.725000X-0.600000X0.725000X0.600000X0*%
%TD*%
%TA.AperFunction,ComponentPad*%
%ADD17C,1.905000*%
%TD*%
%TA.AperFunction,ComponentPad*%
%ADD18RoundRect,0.250000X-0.550000X-0.550000X0.550000X-0.550000X0.550000X0.550000X-0.550000X0.550000X0*%
%TD*%
%TA.AperFunction,ComponentPad*%
%ADD19RoundRect,0.250000X-0.600000X-0.725000X0.600000X-0.725000X0.600000X0.725000X-0.600000X0.725000X0*%
%TD*%
%TA.AperFunction,ComponentPad*%
%ADD20O,1.700000X1.950000*%
%TD*%
%TA.AperFunction,SMDPad,CuDef*%
%ADD21RoundRect,0.152400X-1.063600X-0.609600X1.063600X-0.609600X1.063600X0.609600X-1.063600X0.609600X0*%
%TD*%
%TA.AperFunction,ComponentPad*%
%ADD22C,1.524000*%
%TD*%
%TA.AperFunction,SMDPad,CuDef*%
%ADD23RoundRect,0.152400X1.063600X0.609600X-1.063600X0.609600X-1.063600X-0.609600X1.063600X-0.609600X0*%
%TD*%
%TA.AperFunction,ViaPad*%
%ADD24C,0.800000*%
%TD*%
%TA.AperFunction,Conductor*%
%ADD25C,0.600000*%
%TD*%
%TA.AperFunction,Conductor*%
%ADD26C,0.300000*%
%TD*%
G04 APERTURE END LIST*
D10*
%TO.P,J6,1,Pin_1*%
%TO.N,VCC*%
X156210000Y-81280000D03*
D11*
%TO.P,J6,2,Pin_2*%
%TO.N,GND*%
X156210000Y-78780000D03*
%TO.P,J6,3,Pin_3*%
%TO.N,SD6*%
X156210000Y-76280000D03*
%TO.P,J6,4,Pin_4*%
%TO.N,SC6*%
X156210000Y-73780000D03*
%TD*%
D12*
%TO.P,C8,1*%
%TO.N,VCC*%
X162600000Y-119420000D03*
D13*
%TO.P,C8,2*%
%TO.N,GND*%
X162600000Y-121920000D03*
%TD*%
%TO.P,C5,1*%
%TO.N,VCC*%
X170180000Y-68580000D03*
%TO.P,C5,2*%
%TO.N,GND*%
X170180000Y-71080000D03*
%TD*%
D14*
%TO.P,R12,1*%
%TO.N,VCC*%
X168835743Y-73732983D03*
D15*
%TO.P,R12,2*%
%TO.N,SC6*%
X161215743Y-73732983D03*
%TD*%
D16*
%TO.P,J2,1,Pin_1*%
%TO.N,VCC*%
X198120000Y-59750000D03*
D11*
%TO.P,J2,2,Pin_2*%
%TO.N,GND*%
X198120000Y-62250000D03*
%TO.P,J2,3,Pin_3*%
%TO.N,SD2*%
X198120000Y-64750000D03*
%TO.P,J2,4,Pin_4*%
%TO.N,SC2*%
X198120000Y-67250000D03*
%TD*%
D13*
%TO.P,C4,1*%
%TO.N,VCC*%
X172720000Y-60960000D03*
%TO.P,C4,2*%
%TO.N,GND*%
X175220000Y-60960000D03*
%TD*%
D17*
%TO.P,U2,1,A0*%
%TO.N,unconnected-(U2-A0-Pad1)*%
X175260000Y-101490000D03*
%TO.P,U2,2,A1*%
%TO.N,unconnected-(U2-A1-Pad2)*%
X177800000Y-101490000D03*
%TO.P,U2,3,RST*%
%TO.N,RST*%
X172720000Y-101490000D03*
%TO.P,U2,4,SD0*%
%TO.N,unconnected-(U2-SD0-Pad4)*%
X182880000Y-101490000D03*
%TO.P,U2,5,SC0*%
%TO.N,unconnected-(U2-SC0-Pad5)*%
X185420000Y-101490000D03*
%TO.P,U2,6,SD1*%
%TO.N,unconnected-(U2-SD1-Pad6)*%
X187960000Y-101490000D03*
%TO.P,U2,7,SC1*%
%TO.N,unconnected-(U2-SC1-Pad7)*%
X190500000Y-101490000D03*
%TO.P,U2,8,SD2*%
%TO.N,SD2*%
X190500000Y-86250000D03*
%TO.P,U2,9,SC2*%
%TO.N,SC2*%
X187960000Y-86250000D03*
%TO.P,U2,10,SD3*%
%TO.N,SD3*%
X185420000Y-86250000D03*
%TO.P,U2,11,SC3*%
%TO.N,SC3*%
X182880000Y-86250000D03*
%TO.P,U2,12,GND*%
%TO.N,GND*%
X165100000Y-101490000D03*
%TO.P,U2,13,SD4*%
%TO.N,SD4*%
X180340000Y-86250000D03*
%TO.P,U2,14,SC4*%
%TO.N,SC4*%
X177800000Y-86250000D03*
%TO.P,U2,15,SD5*%
%TO.N,SD5*%
X175260000Y-86250000D03*
%TO.P,U2,16,SC5*%
%TO.N,SC5*%
X172720000Y-86250000D03*
%TO.P,U2,17,SD6*%
%TO.N,SD6*%
X170180000Y-86250000D03*
%TO.P,U2,18,SC6*%
%TO.N,SC6*%
X167640000Y-86250000D03*
%TO.P,U2,19,SD7*%
%TO.N,SD7*%
X165100000Y-86250000D03*
%TO.P,U2,20,SC7*%
%TO.N,SC7*%
X162560000Y-86250000D03*
%TO.P,U2,21,A2*%
%TO.N,unconnected-(U2-A2-Pad21)*%
X180340000Y-101490000D03*
%TO.P,U2,22,SCL*%
%TO.N,SCL*%
X170180000Y-101490000D03*
%TO.P,U2,23,SDA*%
%TO.N,SDA*%
X167640000Y-101490000D03*
%TO.P,U2,24,VIN*%
%TO.N,VCC*%
X162560000Y-101490000D03*
%TD*%
D13*
%TO.P,C3,1*%
%TO.N,VCC*%
X193040000Y-73660000D03*
%TO.P,C3,2*%
%TO.N,GND*%
X193040000Y-76160000D03*
%TD*%
D14*
%TO.P,R7,1*%
%TO.N,VCC*%
X177800000Y-63500000D03*
D15*
%TO.P,R7,2*%
%TO.N,SD4*%
X185420000Y-63500000D03*
%TD*%
D18*
%TO.P,U4,1,Vin*%
%TO.N,VCC*%
X172720000Y-68580000D03*
D13*
%TO.P,U4,2,GND*%
%TO.N,GND*%
X172720000Y-71120000D03*
%TO.P,U4,3,SDA*%
%TO.N,SD5*%
X172720000Y-73660000D03*
%TO.P,U4,4,SCL*%
%TO.N,SC5*%
X172720000Y-76200000D03*
%TO.P,U4,5,Vout*%
%TO.N,unconnected-(U4-Vout-Pad5)*%
X180340000Y-76200000D03*
%TO.P,U4,6,GND*%
%TO.N,unconnected-(U4-GND-Pad6)*%
X180340000Y-73660000D03*
%TO.P,U4,7,INT*%
%TO.N,unconnected-(U4-INT-Pad7)*%
X180340000Y-71120000D03*
%TO.P,U4,8,RST*%
%TO.N,unconnected-(U4-RST-Pad8)*%
X180340000Y-68580000D03*
%TD*%
D14*
%TO.P,R13,1*%
%TO.N,VCC*%
X185382600Y-66040000D03*
D15*
%TO.P,R13,2*%
%TO.N,SD2*%
X193002600Y-66040000D03*
%TD*%
D14*
%TO.P,R4,1*%
%TO.N,VCC*%
X168910000Y-81280000D03*
D15*
%TO.P,R4,2*%
%TO.N,SC5*%
X176530000Y-81280000D03*
%TD*%
D14*
%TO.P,R9,1*%
%TO.N,VCC*%
X168790934Y-62259448D03*
D15*
%TO.P,R9,2*%
%TO.N,SD7*%
X161170934Y-62259448D03*
%TD*%
D14*
%TO.P,R8,1*%
%TO.N,VCC*%
X177800000Y-60960000D03*
D15*
%TO.P,R8,2*%
%TO.N,SC4*%
X185420000Y-60960000D03*
%TD*%
D14*
%TO.P,R5,1*%
%TO.N,VCC*%
X185420000Y-78740000D03*
D15*
%TO.P,R5,2*%
%TO.N,SD3*%
X193040000Y-78740000D03*
%TD*%
D16*
%TO.P,J3,1,Pin_1*%
%TO.N,VCC*%
X198120000Y-73780000D03*
D11*
%TO.P,J3,2,Pin_2*%
%TO.N,GND*%
X198120000Y-76280000D03*
%TO.P,J3,3,Pin_3*%
%TO.N,SD3*%
X198120000Y-78780000D03*
%TO.P,J3,4,Pin_4*%
%TO.N,SC3*%
X198120000Y-81280000D03*
%TD*%
D10*
%TO.P,J5,1,Pin_1*%
%TO.N,VCC*%
X156210000Y-67250000D03*
D11*
%TO.P,J5,2,Pin_2*%
%TO.N,GND*%
X156210000Y-64750000D03*
%TO.P,J5,3,Pin_3*%
%TO.N,SD7*%
X156210000Y-62250000D03*
%TO.P,J5,4,Pin_4*%
%TO.N,SC7*%
X156210000Y-59750000D03*
%TD*%
D14*
%TO.P,R10,1*%
%TO.N,VCC*%
X168792207Y-59794977D03*
D15*
%TO.P,R10,2*%
%TO.N,SC7*%
X161172207Y-59794977D03*
%TD*%
D13*
%TO.P,C7,1*%
%TO.N,VCC*%
X161487140Y-67313535D03*
%TO.P,C7,2*%
%TO.N,GND*%
X161487140Y-64813535D03*
%TD*%
D19*
%TO.P,J4,1,Pin_1*%
%TO.N,VCC*%
X172840000Y-55880000D03*
D20*
%TO.P,J4,2,Pin_2*%
%TO.N,GND*%
X175340000Y-55880000D03*
%TO.P,J4,3,Pin_3*%
%TO.N,SD4*%
X177840000Y-55880000D03*
%TO.P,J4,4,Pin_4*%
%TO.N,SC4*%
X180340000Y-55880000D03*
%TD*%
D13*
%TO.P,C2,1*%
%TO.N,VCC*%
X193040000Y-59713296D03*
%TO.P,C2,2*%
%TO.N,GND*%
X193040000Y-62213296D03*
%TD*%
D21*
%TO.P,U1,1,GPIO0/A0/D0*%
%TO.N,unconnected-(U1-GPIO0{slash}A0{slash}D0-Pad1)_1*%
X186255000Y-121920000D03*
D22*
%TO.N,unconnected-(U1-GPIO0{slash}A0{slash}D0-Pad1)*%
X185420000Y-121920000D03*
D21*
%TO.P,U1,2,GPIO1/A1/D1*%
%TO.N,unconnected-(U1-GPIO1{slash}A1{slash}D1-Pad2)*%
X186255000Y-119380000D03*
D22*
%TO.N,unconnected-(U1-GPIO1{slash}A1{slash}D1-Pad2)_1*%
X185420000Y-119380000D03*
D21*
%TO.P,U1,3,GPIO2/A2/D2*%
%TO.N,unconnected-(U1-GPIO2{slash}A2{slash}D2-Pad3)_1*%
X186255000Y-116840000D03*
D22*
%TO.N,unconnected-(U1-GPIO2{slash}A2{slash}D2-Pad3)*%
X185420000Y-116840000D03*
D21*
%TO.P,U1,4,GPIO21/D3*%
%TO.N,unconnected-(U1-GPIO21{slash}D3-Pad4)*%
X186255000Y-114300000D03*
D22*
%TO.N,unconnected-(U1-GPIO21{slash}D3-Pad4)_1*%
X185420000Y-114300000D03*
D21*
%TO.P,U1,5,GPIO22/D4/SDA*%
%TO.N,SDA*%
X186255000Y-111760000D03*
D22*
X185420000Y-111760000D03*
D21*
%TO.P,U1,6,GPIO23/D5/SCL*%
%TO.N,SCL*%
X186255000Y-109220000D03*
D22*
X185420000Y-109220000D03*
D21*
%TO.P,U1,7,GPIO16/D6/TX*%
%TO.N,RST*%
X186255000Y-106680000D03*
D22*
X185420000Y-106680000D03*
%TO.P,U1,8,GPIO17/D7/RX*%
%TO.N,unconnected-(U1-GPIO17{slash}D7{slash}RX-Pad8)_1*%
X170180000Y-106680000D03*
D23*
%TO.N,unconnected-(U1-GPIO17{slash}D7{slash}RX-Pad8)*%
X169345000Y-106680000D03*
D22*
%TO.P,U1,9,GPIO19/D8/SCK*%
%TO.N,unconnected-(U1-GPIO19{slash}D8{slash}SCK-Pad9)*%
X170180000Y-109220000D03*
D23*
%TO.N,unconnected-(U1-GPIO19{slash}D8{slash}SCK-Pad9)_1*%
X169345000Y-109220000D03*
D22*
%TO.P,U1,10,GPIO20/D9/MISO*%
%TO.N,unconnected-(U1-GPIO20{slash}D9{slash}MISO-Pad10)*%
X170180000Y-111760000D03*
D23*
%TO.N,unconnected-(U1-GPIO20{slash}D9{slash}MISO-Pad10)_1*%
X169345000Y-111760000D03*
D22*
%TO.P,U1,11,GPIO18/D10/MOSI*%
%TO.N,unconnected-(U1-GPIO18{slash}D10{slash}MOSI-Pad11)*%
X170180000Y-114300000D03*
D23*
%TO.N,unconnected-(U1-GPIO18{slash}D10{slash}MOSI-Pad11)_1*%
X169345000Y-114300000D03*
D22*
%TO.P,U1,12,3V3*%
%TO.N,VCC*%
X170180000Y-116840000D03*
D23*
X169345000Y-116840000D03*
D22*
%TO.P,U1,13,GND*%
%TO.N,GND*%
X170180000Y-119380000D03*
D23*
X169345000Y-119380000D03*
D22*
%TO.P,U1,14,VBUS*%
%TO.N,unconnected-(U1-VBUS-Pad14)*%
X170180000Y-121920000D03*
D23*
%TO.N,unconnected-(U1-VBUS-Pad14)_1*%
X169345000Y-121920000D03*
%TD*%
D13*
%TO.P,C6,1*%
%TO.N,VCC*%
X161398100Y-81313407D03*
%TO.P,C6,2*%
%TO.N,GND*%
X161398100Y-78813407D03*
%TD*%
D14*
%TO.P,R14,1*%
%TO.N,VCC*%
X185345096Y-68580000D03*
D15*
%TO.P,R14,2*%
%TO.N,SC2*%
X192965096Y-68580000D03*
%TD*%
D14*
%TO.P,R6,1*%
%TO.N,VCC*%
X185420000Y-81280000D03*
D15*
%TO.P,R6,2*%
%TO.N,SC3*%
X193040000Y-81280000D03*
%TD*%
D13*
%TO.P,C1,1*%
%TO.N,VCC*%
X162560000Y-99060000D03*
%TO.P,C1,2*%
%TO.N,GND*%
X165060000Y-99060000D03*
%TD*%
D14*
%TO.P,R11,1*%
%TO.N,VCC*%
X168910000Y-76200000D03*
D15*
%TO.P,R11,2*%
%TO.N,SD6*%
X161290000Y-76200000D03*
%TD*%
D14*
%TO.P,R3,1*%
%TO.N,VCC*%
X168939099Y-78977422D03*
D15*
%TO.P,R3,2*%
%TO.N,SD5*%
X176559099Y-78977422D03*
%TD*%
D24*
%TO.N,GND*%
X175612290Y-62579496D03*
X195580000Y-88900000D03*
X195580000Y-78030000D03*
X160020000Y-91440000D03*
X160020000Y-85500000D03*
X158212265Y-82356874D03*
X158212265Y-79997788D03*
X199659997Y-76200000D03*
X200701352Y-70100691D03*
X200642293Y-67444517D03*
X200660000Y-63500000D03*
%TO.N,SD2*%
X201728265Y-77386961D03*
X201876635Y-72787485D03*
%TO.N,SC2*%
X200660000Y-71120000D03*
X200660000Y-76200000D03*
%TO.N,GND*%
X195580000Y-58420000D03*
X152400000Y-71120000D03*
%TO.N,SD3*%
X191247657Y-80530000D03*
X188857868Y-82982724D03*
%TO.N,SC4*%
X180340000Y-58420000D03*
X180340000Y-63500000D03*
%TO.N,SC7*%
X154940000Y-83820000D03*
X157480000Y-86360000D03*
%TO.N,SD7*%
X151031982Y-78014746D03*
X157480000Y-88900000D03*
%TO.N,SC6*%
X165100000Y-83820000D03*
X165100000Y-78740000D03*
%TO.N,SD6*%
X166180514Y-80274002D03*
X168261509Y-82406706D03*
%TD*%
D25*
%TO.N,GND*%
X175612290Y-68227710D02*
X172720000Y-71120000D01*
X175612290Y-62579496D02*
X175612290Y-68227710D01*
X195580000Y-78030000D02*
X195580000Y-88900000D01*
X160020000Y-85500000D02*
X160020000Y-91440000D01*
X158212265Y-79997788D02*
X158212265Y-82356874D01*
X199659997Y-70845796D02*
X199659997Y-76200000D01*
X200405102Y-70100691D02*
X199659997Y-70845796D01*
X200701352Y-70100691D02*
X200405102Y-70100691D01*
X200660000Y-67426810D02*
X200642293Y-67444517D01*
X200660000Y-63500000D02*
X200660000Y-67426810D01*
D26*
%TO.N,SD2*%
X201876635Y-77238591D02*
X201728265Y-77386961D01*
X201876635Y-72787485D02*
X201876635Y-77238591D01*
%TO.N,SC2*%
X200660000Y-71120000D02*
X200660000Y-76200000D01*
D25*
%TO.N,GND*%
X195580000Y-58420000D02*
X195580000Y-59710000D01*
X195580000Y-59710000D02*
X198120000Y-62250000D01*
X152400000Y-71120000D02*
X152400000Y-74970000D01*
X152400000Y-74970000D02*
X156210000Y-78780000D01*
D26*
%TO.N,SD3*%
X191247657Y-80592935D02*
X188857868Y-82982724D01*
X191247657Y-80530000D02*
X191247657Y-80592935D01*
%TO.N,SC4*%
X180340000Y-58420000D02*
X180340000Y-63500000D01*
%TO.N,SC7*%
X154940000Y-83820000D02*
X157480000Y-86360000D01*
%TO.N,SD7*%
X151031982Y-82451982D02*
X157480000Y-88900000D01*
X151031982Y-78014746D02*
X151031982Y-82451982D01*
%TO.N,SC6*%
X165100000Y-78740000D02*
X165100000Y-83820000D01*
%TO.N,SD6*%
X166180514Y-80274002D02*
X166180514Y-80325711D01*
X166180514Y-80325711D02*
X168261509Y-82406706D01*
%TD*%
M02*
